<?xml version="1.0" encoding="UTF-8" standalone="no" ?>
<!DOCTYPE svg PUBLIC "-//W3C//DTD SVG 1.1//EN" "http://www.w3.org/Graphics/SVG/1.1/DTD/svg11.dtd">
<svg xmlns="http://www.w3.org/2000/svg" xmlns:xlink="http://www.w3.org/1999/xlink" version="1.1" width="38" height="31" viewBox="0 0 38 31" xml:space="preserve">
<desc>Created with Fabric.js 5.2.4</desc>
<defs>
</defs>
<g transform="matrix(1 0 0 1 19 15.5)" id="1e62e8ec-9a3e-4dfa-9521-dd86fb4970d5"  >
<rect style="stroke: none; stroke-width: 1; stroke-dasharray: none; stroke-linecap: butt; stroke-dashoffset: 0; stroke-linejoin: miter; stroke-miterlimit: 4; fill: rgb(255,255,255); fill-rule: nonzero; opacity: 1; visibility: hidden;" vector-effect="non-scaling-stroke"  x="-19" y="-15.5" rx="0" ry="0" width="38" height="31" />
</g>
<g transform="matrix(Infinity NaN NaN Infinity 0 0)" id="8cbd9b42-20e7-4e85-92a3-ba09f70398d3"  >
</g>
<g transform="matrix(0.82 0 0 0.82 19 15.5)"  >
<path style="stroke: none; stroke-width: 1; stroke-dasharray: none; stroke-linecap: butt; stroke-dashoffset: 0; stroke-linejoin: miter; stroke-miterlimit: 4; fill: rgb(255,255,255); fill-rule: nonzero; opacity: 1;"  transform=" translate(-19, -16)" d="M 1.226 17.23 L 36.775 17.23 C 36.937842991322896 17.229734999376756 37.09391106260084 17.164791614630552 37.20887090933064 17.049456694991356 C 37.32383075606044 16.93412177535216 37.3882654325721 16.777842990619398 37.388 16.615000000000002 C 37.3882654325721 16.452157009380606 37.32383075606044 16.295878224647844 37.20887090933064 16.180543305008648 C 37.09391106260084 16.065208385369452 36.937842991322896 16.000265000623248 36.775 16.000000000000004 L 1.226 16.000000000000004 C 1.0631570086771056 16.000265000623248 0.9070889373991579 16.065208385369452 0.7921290906693583 16.180543305008648 C 0.6771692439395587 16.295878224647844 0.6127345674278994 16.452157009380606 0.613 16.615000000000002 C 0.613 16.955000000000002 0.888 17.231 1.226 17.231 z M 1.226 31 L 36.775 31 C 37.113 31 38 31 38 29.77 C 38 28.538999999999998 33.436 28.538999999999998 33.097 28.538999999999998 L 1.2270000000000003 29.769 C 1.0638099600355169 29.768999134258856 0.9073327979235419 29.83396270473867 0.7921277968806408 29.949542966371286 C 0.6769227958377397 30.065123228003905 0.6124684363496038 30.221810825774362 0.6130000000000004 30.384999999999998 C 0.6130000000000003 30.724999999999998 0.8880000000000003 30.999999999999996 1.2260000000000004 30.999999999999996 z M 36.774 3.462 L 1.225 3.462 C 0.887 3.462 0 3.462 0 2.23 C 0 0.9979999999999998 4.564 1 4.903 1 L 36.773 2.23 C 37.11300000000001 2.23 37.387 2.5060000000000002 37.387 2.846 C 37.387 3.186 37.112 3.462 36.774 3.462 z" stroke-linecap="round" />
</g>
</svg>