<?xml version="1.0" encoding="UTF-8" standalone="no" ?>
<!DOCTYPE svg PUBLIC "-//W3C//DTD SVG 1.1//EN" "http://www.w3.org/Graphics/SVG/1.1/DTD/svg11.dtd">
<svg xmlns="http://www.w3.org/2000/svg" xmlns:xlink="http://www.w3.org/1999/xlink" version="1.1" width="130" height="48" viewBox="0 0 130 48" xml:space="preserve">
<desc>Created with Fabric.js 5.2.4</desc>
<defs>
</defs>
<g transform="matrix(1 0 0 1 65 24)" id="a4664081-e7cc-435e-8483-4b64e7824d83"  >
<rect style="stroke: none; stroke-width: 1; stroke-dasharray: none; stroke-linecap: butt; stroke-dashoffset: 0; stroke-linejoin: miter; stroke-miterlimit: 4; fill: rgb(255,255,255); fill-rule: nonzero; opacity: 1; visibility: hidden;" vector-effect="non-scaling-stroke"  x="-65" y="-24" rx="0" ry="0" width="130" height="48" />
</g>
<g transform="matrix(Infinity NaN NaN Infinity 0 0)" id="3a6bc323-8e29-4e72-88b1-dccf1f779fc9"  >
</g>
<g transform="matrix(0.7 0 0 0.83 65.09 24.79)"  >
<g style=""   >
		<g transform="matrix(1 0 0 1 -79.29 -2.94)" id="Group 607"  >
<path style="stroke: none; stroke-width: 1; stroke-dasharray: none; stroke-linecap: butt; stroke-dashoffset: 0; stroke-linejoin: miter; stroke-miterlimit: 4; fill: rgb(255,255,255); fill-opacity: 0; fill-rule: evenodd; opacity: 1;" vector-effect="non-scaling-stroke"  transform=" translate(-10.21, -21.06)" d="M 8.69221 36.4131 C 8.41004 34.6086 2.45881 19.4507 11.3856 10.789 C 14.1358 8.12059 16.1277 6.39388 16.9371 5.7093 C 17.0212 5.63812 16.9459 5.5028 16.8414 5.53786 C 15.4762 5.99586 11.6673 7.34776 10.2419 8.62361 C 8.11048 10.5313 5.35104 14.1897 4.72473 16.9244 C 4.30419 18.7606 3.45068 21.1841 3.45068 23.7815 C 3.45068 29.195 8.92479 37.9004 8.69221 36.4131 Z" stroke-linecap="round" />
</g>
		<g transform="matrix(1 0 0 1 -0.19 0)" id="Group 607"  >
<path style="stroke: none; stroke-width: 1; stroke-dasharray: none; stroke-linecap: butt; stroke-dashoffset: 0; stroke-linejoin: miter; stroke-miterlimit: 4; fill: rgb(255,255,255); fill-rule: evenodd; opacity: 1;" vector-effect="non-scaling-stroke"  transform=" translate(-89.31, -24)" d="M 144.349 47.6391 C 75.5795 48.3609 28.2353 48 18.3166 46.5564 C 3.43854 44.391 1.4548 33.5639 0.462934 25.985 C -0.528937 18.406 3.43854 10.8271 9.38977 5.41353 C 13.3572 1.80451 27.5741 0 52.0402 0 C 110.79 0 151.14 0.360902 157.092 1.08271 C 166.018 2.16541 176.089 5.41353 178.073 21.6541 C 180.056 37.8947 169.146 42.2256 164.187 44.391 C 160.88 45.8346 154.268 46.9173 144.349 47.6391 Z M 8.68007 36.4511 C 8.3979 34.6466 2.44667 19.4887 11.3735 10.8271 C 15.0131 7.29562 17.3247 5.41353 17.3247 5.41353 C 17.3247 5.41353 11.9802 7.09493 10.2297 8.66165 C 8.09834 10.5694 5.3389 14.2277 4.71259 16.9624 C 4.29205 18.7986 3.43854 21.2222 3.43854 23.8195 C 3.43854 29.2331 8.91265 37.9385 8.68007 36.4511 Z" stroke-linecap="round" />
</g>
		<g transform="matrix(1 0 0 1 -0.19 0)" id="Group 607"  >
<path style="stroke: none; stroke-width: 1; stroke-dasharray: none; stroke-linecap: butt; stroke-dashoffset: 0; stroke-linejoin: miter; stroke-miterlimit: 4; fill: rgb(255,255,255); fill-rule: evenodd; opacity: 1;" vector-effect="non-scaling-stroke"  transform=" translate(-89.31, -24)" d="M 144.349 47.6391 C 154.268 46.9173 160.88 45.8346 164.187 44.391 C 164.303 44.3401 164.423 44.2881 164.546 44.2347 C 169.651 42.0156 180.01 37.5133 178.073 21.6541 C 176.089 5.41353 166.018 2.16541 157.092 1.08271 C 151.14 0.360902 110.79 0 52.0402 0 C 27.5741 0 13.3572 1.80451 9.38977 5.41353 C 3.43854 10.8271 -0.528937 18.406 0.462934 25.985 C 1.4548 33.5639 3.43854 44.391 18.3166 46.5564 C 28.2353 48 75.5795 48.3609 144.349 47.6391 Z M 59.2721 46.9098 C 80.9289 47.0901 109.94 47.0001 144.308 46.6395 C 154.228 45.9163 160.663 44.8383 163.786 43.4745 C 163.896 43.4268 164.007 43.3783 164.121 43.3288 C 166.622 42.2409 170.189 40.6888 172.996 37.6253 C 175.881 34.4755 178.04 29.631 177.08 21.7754 C 176.114 13.866 173.205 9.26046 169.577 6.47765 C 165.912 3.666 161.381 2.6103 156.971 2.07543 C 154.066 1.72312 142.568 1.45145 124.355 1.27063 C 106.185 1.09022 81.4136 1 52.0402 1 C 39.8243 1 30.2015 1.45088 23.1539 2.34542 C 19.6294 2.79279 16.7742 3.34807 14.5725 4.00354 C 12.349 4.66547 10.8883 5.40222 10.0627 6.15327 C 4.26003 11.4316 0.519195 18.7086 1.45448 25.8552 C 1.95049 29.6452 2.67727 34.0461 5.02785 37.7666 C 7.3392 41.425 11.2871 44.5228 18.4606 45.5668 C 23.3357 46.2764 37.5681 46.7291 59.2721 46.9098 Z" stroke-linecap="round" />
</g>
</g>
</g>
</svg>