<?xml version="1.0" encoding="UTF-8" standalone="no" ?>
<!DOCTYPE svg PUBLIC "-//W3C//DTD SVG 1.1//EN" "http://www.w3.org/Graphics/SVG/1.1/DTD/svg11.dtd">
<svg xmlns="http://www.w3.org/2000/svg" xmlns:xlink="http://www.w3.org/1999/xlink" version="1.1" width="108" height="108" viewBox="0 0 108 108" xml:space="preserve">
<desc>Created with Fabric.js 5.2.4</desc>
<defs>
</defs>
<rect x="0" y="0" width="100%" height="100%" fill="transparent"></rect>
<g transform="matrix(1 0 0 1 54 54)" id="7ad3bd39-c295-405d-b715-d8b386965f9d"  >
<rect style="stroke: none; stroke-width: 1; stroke-dasharray: none; stroke-linecap: butt; stroke-dashoffset: 0; stroke-linejoin: miter; stroke-miterlimit: 4; fill: rgb(255,255,255); fill-rule: nonzero; opacity: 1; visibility: hidden;" vector-effect="non-scaling-stroke"  x="-54" y="-54" rx="0" ry="0" width="108" height="108" />
</g>
<g transform="matrix(0 0 0 0 0 0)" id="4f671a17-5437-4401-a55e-ae770d603f26"  >
</g>
<g transform="matrix(3.18 0 0 3.18 54 54)"  >
<g style=""   >
		<g transform="matrix(1 0 0 1 -6.97 6.84)"  >
<path style="stroke: none; stroke-width: 1; stroke-dasharray: none; stroke-linecap: butt; stroke-dashoffset: 0; stroke-linejoin: miter; stroke-miterlimit: 4; fill: rgb(0,0,0); fill-rule: evenodd; opacity: 1;" vector-effect="non-scaling-stroke"  transform=" translate(-10.04, -23.34)" d="M 16.248 15.81 L 17.689 16.258 C 17.689 16.258 11.95 27.544 2.385 30.863 L 2.385 27.046 C 9.279 25.44 16.248 15.81 16.248 15.81 z" stroke-linecap="round" />
</g>
		<g transform="matrix(1 0 0 1 -6.97 -6.61)"  >
<path style="stroke: none; stroke-width: 1; stroke-dasharray: none; stroke-linecap: butt; stroke-dashoffset: 0; stroke-linejoin: miter; stroke-miterlimit: 4; fill: rgb(0,0,0); fill-rule: evenodd; opacity: 1;" vector-effect="non-scaling-stroke"  transform=" translate(-10.04, -9.89)" d="M 16.247 16.91 L 17.689 16.562 C 17.689 16.562 11.95 5.982 2.385 2.87 L 2.385 6.448 C 9.279 7.954000000000001 16.247 16.911 16.247 16.911 z" stroke-linecap="round" />
</g>
		<g transform="matrix(1 0 0 1 6.55 6.84)"  >
<path style="stroke: none; stroke-width: 1; stroke-dasharray: none; stroke-linecap: butt; stroke-dashoffset: 0; stroke-linejoin: miter; stroke-miterlimit: 4; fill: rgb(0,0,0); fill-rule: evenodd; opacity: 1;" vector-effect="non-scaling-stroke"  transform=" translate(-23.55, -23.34)" d="M 17.344 15.81 L 15.902000000000001 16.258 C 15.902000000000001 16.258 21.642000000000003 27.543999999999997 31.207 30.863 L 31.207 27.046 C 24.313 25.44 17.344 15.81 17.344 15.81 z" stroke-linecap="round" />
</g>
		<g transform="matrix(1 0 0 1 6.55 -6.61)"  >
<path style="stroke: none; stroke-width: 1; stroke-dasharray: none; stroke-linecap: butt; stroke-dashoffset: 0; stroke-linejoin: miter; stroke-miterlimit: 4; fill: rgb(0,0,0); fill-rule: evenodd; opacity: 1;" vector-effect="non-scaling-stroke"  transform=" translate(-23.55, -9.89)" d="M 17.344 16.91 L 15.903 16.562 C 15.903 16.562 21.642 5.982 31.207 2.87 L 31.207 6.448 C 24.313000000000002 7.954000000000001 17.344 16.911 17.344 16.911 z" stroke-linecap="round" />
</g>
</g>
</g>
</svg>