<?xml version="1.0" encoding="UTF-8" standalone="no" ?>
<!DOCTYPE svg PUBLIC "-//W3C//DTD SVG 1.1//EN" "http://www.w3.org/Graphics/SVG/1.1/DTD/svg11.dtd">
<svg xmlns="http://www.w3.org/2000/svg" xmlns:xlink="http://www.w3.org/1999/xlink" version="1.1" width="100" height="130" viewBox="0 0 100 130" xml:space="preserve">
<desc>Created with Fabric.js 5.2.4</desc>
<defs>
</defs>
<g transform="matrix(Infinity NaN NaN Infinity 0 0)" id="26e8307e-1762-4bec-83a3-7da03bf3f5a6"  >
</g>
<g transform="matrix(1 0 0 1 50 65)" id="90fa6abd-abf2-4d03-9dff-f55396527b79"  >
<rect style="stroke: none; stroke-width: 1; stroke-dasharray: none; stroke-linecap: butt; stroke-dashoffset: 0; stroke-linejoin: miter; stroke-miterlimit: 4; fill: rgb(255,255,255); fill-rule: nonzero; opacity: 1; visibility: hidden;" vector-effect="non-scaling-stroke"  x="-50" y="-65" rx="0" ry="0" width="100" height="130" />
</g>
<g transform="matrix(1.44 0 0 1.6 50 64)"  >
<path style="stroke: none; stroke-width: 1; stroke-dasharray: none; stroke-linecap: butt; stroke-dashoffset: 0; stroke-linejoin: miter; stroke-miterlimit: 4; fill: rgb(26,25,25); fill-rule: evenodd; opacity: 1;"  transform=" translate(-26.82, -33.99)" d="M 53.4 33.995 L 53.449999999999996 33.958 C 53.449999999999996 33.958 53.324999999999996 33.891 53.089 33.760999999999996 L 52.992 33.68899999999999 L 52.97 33.69599999999999 C 48.845 31.425 19.39 14.818 13.992 0.783 L 0.192 0.783 C 11.105 19.835 45.837 31.956 52.04 33.995 C 45.836999999999996 36.035 11.104999999999997 48.155 0.19200000000000017 67.207 L 13.992 67.207 C 19.39 53.173 48.845 36.566 52.97 34.295 L 52.992 34.301 L 53.089 34.229 C 53.324999999999996 34.099 53.449 34.033 53.449 34.033 L 53.4 33.995000000000005 z" stroke-linecap="round" />
</g>
</svg>