<svg width="1056" height="655" viewBox="0 0 1056 655" fill="none" xmlns="http://www.w3.org/2000/svg">
<path fill-rule="evenodd" clip-rule="evenodd" d="M536.017 84.0936C536.017 84.0936 570.909 140.138 643.986 153.662C685.932 161.424 829.479 168.595 904.756 171.929C959.122 174.33 1001.69 210.306 1000.21 252.63C999.196 281.69 998.206 310.039 997.874 319.541C997.246 337.521 1013.95 363.488 1043.11 378.227C1013 390.895 994.519 415.634 993.891 433.607C993.559 443.109 992.569 471.465 991.554 500.518C990.076 542.849 945.104 575.762 890.702 574.364C815.377 572.433 671.679 569.586 629.294 574.403C555.452 582.796 516.735 636.27 516.735 636.27C516.735 636.27 481.843 580.226 408.766 566.702C366.814 558.94 223.28 551.756 147.997 548.428C93.6308 546.028 51.0638 510.058 52.542 467.727C53.5566 438.674 54.5468 410.318 54.8786 400.816C55.5062 382.843 38.7984 356.876 9.64125 342.137C39.7554 329.469 58.234 304.73 58.8619 286.75C59.1937 277.248 60.1836 248.899 61.1984 219.839C62.6764 177.515 107.649 144.595 162.051 145.993C237.383 147.918 381.067 150.778 423.459 145.961C497.301 137.568 536.017 84.0936 536.017 84.0936Z" fill="white"/>
<path fill-rule="evenodd" clip-rule="evenodd" d="M639.854 164.639C680.298 172.017 818.695 178.894 891.27 182.097C943.686 184.403 984.745 218.512 983.345 258.609C982.384 286.141 981.446 312.998 981.132 322C980.537 339.034 997.937 363.69 1026.06 377.67C997.03 389.655 977.952 413.038 977.358 430.065C977.043 439.067 976.105 465.931 975.144 493.456C973.744 533.559 930.405 564.715 877.956 563.359C805.335 561.485 666.795 558.705 625.934 563.243C554.748 571.152 517.453 621.792 517.453 621.792C517.453 621.792 483.781 568.674 413.321 555.819C372.87 548.44 234.486 541.551 161.904 538.354C109.489 536.048 68.429 501.945 69.8294 461.842C70.7906 434.317 71.7288 407.453 72.0431 398.451C72.6377 381.423 53.9598 356.722 25.8411 342.742C54.8665 330.757 75.222 307.419 75.8168 290.386C76.1312 281.384 77.0691 254.526 78.0305 226.995C79.4307 186.898 122.769 155.736 175.218 157.092C247.847 158.959 386.373 161.752 427.24 157.214C498.426 149.305 535.721 98.6656 535.721 98.6656C535.806 96.2437 569.393 151.783 639.854 164.639Z" stroke="black" stroke-width="1.8"/>
<path fill-rule="evenodd" clip-rule="evenodd" d="M673.017 41.4227C674.784 37.4907 676.896 34.5522 679.539 32.5969C682.091 30.7359 684.687 29.942 687.541 30.2337C690.291 30.4065 692.915 31.6643 695.489 34.0741C698.157 36.5863 700.501 40.1586 702.418 44.8757C703.466 47.436 704.928 48.8372 706.534 49.3759C708.322 49.9159 709.95 49.6809 711.32 48.7533C712.592 47.9175 713.502 46.4875 714.05 44.4704C714.507 42.5405 714.019 40.3911 712.581 38.0104C710.071 33.8571 707.328 30.8593 704.362 28.6266C701.494 26.4965 698.498 25.0397 695.376 24.4551C692.362 23.7814 689.505 23.6885 686.616 24.3736C683.924 25.0627 681.401 26.1479 679.342 27.731C677.18 29.4125 675.589 31.2994 674.351 33.7894C673.218 36.1833 672.735 38.6903 673.017 41.4227ZM692.865 81.1702C692.346 81.6641 692.432 82.4583 693.065 83.1504C693.746 84.2567 694.521 84.3962 695.041 83.9023L695.387 83.573C696.131 83.3246 695.884 82.6833 695.191 81.5888C694.538 80.8744 693.949 80.5679 693.212 80.8409L692.865 81.1702ZM669.123 139.353C674.539 134.585 678.616 129.369 681.274 123.606C683.839 117.942 684.886 111.229 684.535 103.385C684.266 99.4583 683.807 95.3322 683.058 91.2826C682.304 87.2421 681.468 83.098 680.619 78.9486C679.875 74.7081 679.136 70.4678 678.581 66.2375C678.031 62.0027 677.863 57.7863 677.984 53.4887C677.006 57.4591 676.599 61.6469 676.952 66.0692C677.309 70.487 677.752 75.0086 678.583 79.7422C679.318 84.3809 680.041 89.194 680.768 94.0258C681.399 98.9446 681.545 103.943 681.306 108.928C680.975 114.005 679.967 118.946 678.194 124.07C676.415 129.181 673.301 134.239 669.123 139.353ZM692.686 123.972C694.083 123.268 695.47 121.95 696.751 119.694C698.036 117.443 699.31 114.987 700.889 112.246C702.362 109.606 704.047 106.981 705.823 104.465C707.604 101.945 709.785 100.074 712.277 98.9401C709.978 99.0636 707.973 99.5131 706.187 100.802C704.499 101.994 703.008 103.411 701.721 105.047C700.536 106.799 699.259 108.638 698.377 110.717C697.387 112.682 696.607 114.663 695.822 116.448C695.238 118.243 694.553 119.923 694.064 121.219C693.575 122.713 693.083 123.594 692.686 123.972ZM677.785 138.206C681.998 135.145 685.29 131.071 687.762 126.097C690.229 121.126 691.842 115.823 692.713 110.314C693.662 104.895 693.854 99.4577 693.291 93.9918C692.811 88.626 691.83 83.9148 690.151 80.06C691.063 86.7148 691.421 92.7552 691.224 98.3896C691.02 104.026 690.454 109.263 689.329 114.085C688.201 118.909 686.618 123.236 684.757 127.258C682.807 131.183 680.475 134.898 677.785 138.206ZM671.044 56.8345C671.27 53.2398 671.963 49.5594 673.43 45.9129C674.898 42.2663 676.634 39.1113 678.916 36.7635C681.004 34.402 683.346 32.9279 685.845 32.4283C688.344 31.9287 690.79 32.9828 693.18 35.5951C688.846 39.3436 686.206 43.9254 685.149 49.4384C684.008 54.8466 684.751 60.9138 687.57 67.6257C688.61 65.1327 689.931 62.9462 691.33 61.24C692.916 59.5402 694.485 58.4241 696.219 57.9002C697.857 57.4703 699.565 57.7268 701.258 58.7593C702.941 59.7915 704.592 61.7985 705.909 64.8534C703.883 65.4715 702.305 66.9721 701.161 69.5635C700.017 72.1503 699.154 75.0436 698.748 78.4373C698.343 81.8263 698.216 85.5241 698.468 89.2374C698.715 92.9367 699.262 96.3658 699.927 99.3099C701.181 96.2378 702.984 93.7713 705.529 92.1049C707.969 90.5369 710.571 89.7465 713.337 89.9423C716.203 90.042 718.84 91.112 721.531 93.2456C724.136 95.2859 726.324 98.2829 727.992 102.525C724.548 102.603 721.468 103.274 718.933 104.74C716.3 106.308 713.85 108.068 711.283 110.315C708.914 112.567 706.347 115.007 703.771 117.649C701.2 120.285 698.146 122.804 694.531 125.112C696.611 125.775 698.676 126.821 700.442 128.146C702.305 129.576 703.878 130.892 705.161 132.497C706.442 134.099 707.245 135.784 707.66 137.449C708.168 139.217 708.116 140.771 707.393 142.404C705.541 140.784 703.284 139.729 700.812 139.451C698.249 139.067 695.378 139.164 692.403 139.543C689.332 140.027 686.16 140.594 682.786 141.55C679.497 142.604 676.024 143.649 672.454 144.594C668.979 145.646 665.515 146.495 661.952 147.249C658.49 148.105 655.031 148.569 651.686 148.547C646.622 148.661 640.737 147.68 634.028 145.597C627.322 143.511 620.442 140.842 613.294 137.677C606.15 134.503 599.198 131.143 592.261 127.397C585.512 123.659 579.338 120.137 573.903 117.027C568.483 113.722 564.087 111.138 560.817 108.972C557.552 106.821 555.777 105.688 555.777 105.688C555.777 105.688 559.985 103.863 563.315 105.023C566.646 106.183 569.938 109.075 579.51 114.758C589.081 120.441 607.607 127.965 620.83 116.229C622.611 114.536 623.27 112.03 622.721 108.598C626.929 111.179 629.794 113.907 631.317 116.784C632.932 119.761 633.407 122.506 632.847 124.919C632.37 127.431 630.959 129.524 628.714 131.104C626.359 132.77 623.375 133.547 619.837 133.516C622.023 133.887 624.773 134.474 628.279 135.273C631.693 135.976 635.305 136.491 639.107 136.816C642.831 137.045 646.56 136.885 650.116 136.324C653.663 135.764 656.772 134.321 659.236 132.163C661.007 130.671 662.227 128.567 662.989 125.967C663.65 123.458 664.031 120.845 663.837 118.012C663.647 115.382 662.973 112.625 661.921 110.061C660.865 107.493 659.314 105.395 657.463 103.775C655.515 102.049 653.159 101.089 650.499 100.806C647.832 100.516 644.658 101.282 641.155 103.108C640.005 100.437 639.521 98.0853 639.686 96.0487C639.846 94.0026 640.574 92.3797 641.858 91.1586C643.044 90.0315 644.598 89.1095 646.726 88.604C648.747 88.1874 650.935 88.3586 653.404 88.8316C655.864 89.3043 658.311 90.3631 660.934 91.8174C663.558 93.4688 666.062 95.6006 668.351 98.3044C668.682 94.2335 668.159 90.2233 666.872 85.9942C665.576 81.9525 663.901 78.097 661.821 74.8139C659.742 71.5308 657.445 68.8174 654.853 66.5899C652.248 64.5496 649.608 63.4818 647.22 63.5008C648.007 60.3174 649.502 58.3224 651.339 57.7047C653.187 56.8927 655.178 57.0593 657.249 58.112C659.314 58.9558 661.273 60.4867 663.201 62.5938C665.045 64.6099 666.501 66.6055 667.377 68.7804L671.044 56.8345ZM660.288 138.986C665.541 135.704 669.452 132.187 672.204 128.223C674.959 124.262 676.763 119.876 677.515 115.156C678.451 110.438 678.238 105.293 677.264 99.7112C676.292 94.1412 674.656 88.2463 672.538 82.0399C673.566 88.9003 674.417 94.963 674.919 100.229C675.513 105.59 675.546 110.342 674.807 114.667C674.174 119.096 672.671 123.196 670.402 127.069C668.133 130.95 664.795 134.889 660.288 138.986Z" fill="white"/>
<path fill-rule="evenodd" clip-rule="evenodd" d="M401.2 31.4037C399.712 27.358 397.81 24.2793 395.31 22.1445C392.894 20.1099 390.359 19.1369 387.492 19.2288C384.737 19.2094 382.031 20.281 379.295 22.5054C376.459 24.8254 373.872 28.2255 371.63 32.7974C370.406 35.2783 368.85 36.5741 367.21 36.9995C365.389 37.4134 363.781 37.0654 362.48 36.0446C361.268 35.122 360.461 33.6321 360.054 31.5816C359.733 29.6246 360.37 27.5144 361.971 25.2399C364.765 21.2718 367.709 18.4726 370.824 16.4523C373.834 14.5274 376.924 13.2831 380.079 12.9177C383.133 12.456 385.99 12.5625 388.824 13.4475C391.461 14.3227 393.902 15.5812 395.845 17.3041C397.885 19.1323 399.341 21.1257 400.402 23.6959C401.365 26.163 401.672 28.6976 401.2 31.4037ZM378.628 69.6698C379.111 70.1988 378.97 70.985 378.29 71.6313C377.534 72.6874 376.751 72.7725 376.267 72.2435L375.944 71.8908C375.219 71.5912 375.511 70.9687 376.278 69.9252C376.98 69.2581 377.589 68.9934 378.305 69.3171L378.628 69.6698ZM398.254 129.367C393.183 124.233 389.48 118.745 387.23 112.811C385.067 106.982 384.49 100.212 385.388 92.4119C385.93 88.5132 386.676 84.4292 387.706 80.4417C388.74 76.4637 389.863 72.3879 390.999 68.3079C392.037 64.1296 393.07 59.9512 393.919 55.7699C394.762 51.5838 395.225 47.3894 395.403 43.0938C396.102 47.1228 396.216 51.3287 395.556 55.7156C394.891 60.0978 394.133 64.5775 392.975 69.2416C391.918 73.8178 390.861 78.5686 389.799 83.338C388.826 88.2007 388.331 93.177 388.222 98.1665C388.199 103.254 388.86 108.253 390.27 113.488C391.688 118.711 394.442 123.975 398.254 129.367ZM375.821 112.38C374.476 111.58 373.184 110.168 372.064 107.829C370.939 105.494 369.839 102.955 368.455 100.11C367.171 97.3738 365.673 94.6374 364.076 92.0041C362.475 89.366 360.431 87.3474 358.023 86.0423C360.308 86.3259 362.277 86.9142 363.968 88.3243C365.57 89.6309 366.958 91.1488 368.127 92.8708C369.188 94.7009 370.333 96.6248 371.068 98.7598C371.919 100.789 372.559 102.82 373.217 104.655C373.675 106.487 374.241 108.211 374.638 109.538C375.022 111.062 375.451 111.975 375.821 112.38ZM389.693 127.619C385.703 124.271 382.703 119.978 380.584 114.843C378.47 109.713 377.231 104.31 376.747 98.7532C376.178 93.2816 376.365 87.8438 377.308 82.4305C378.162 77.1112 379.469 72.48 381.413 68.7517C380.039 75.3267 379.26 81.3274 379.064 86.9618C378.875 92.5988 379.073 97.8627 379.859 102.751C380.648 107.642 381.925 112.069 383.501 116.211C385.173 120.262 387.24 124.131 389.693 127.619ZM402.093 46.9156C402.119 43.3139 401.684 39.5941 400.475 35.8541C399.265 32.1141 397.753 28.8456 395.641 26.3443C393.722 23.8429 391.489 22.209 389.031 21.5364C386.573 20.8637 384.059 21.7445 381.493 24.1838C385.555 28.2255 387.869 32.9802 388.539 38.5536C389.299 44.0282 388.135 50.0288 384.855 56.5277C383.991 53.9682 382.826 51.6949 381.549 49.8952C380.086 48.089 378.598 46.8661 376.906 46.2226C375.301 45.6795 373.579 45.8161 371.819 46.7281C370.068 47.6403 368.281 49.5273 366.754 52.4829C368.731 53.2408 370.202 54.8479 371.162 57.5127C372.122 60.173 372.782 63.1194 372.949 66.5332C373.117 69.9423 372.986 73.6399 372.476 77.3266C371.971 80.9995 371.187 84.3822 370.318 87.2727C369.281 84.1206 367.654 81.5344 365.232 79.6945C362.907 77.9601 360.366 76.9901 357.594 76.9926C354.727 76.8921 352.022 77.7755 349.189 79.7162C346.448 81.5698 344.057 84.4069 342.097 88.5227C345.527 88.84 348.552 89.725 350.979 91.3633C353.497 93.1115 355.818 95.0382 358.222 97.4593C360.428 99.8711 362.818 102.484 365.204 105.299C367.585 108.108 370.456 110.833 373.901 113.388C371.779 113.905 369.647 114.804 367.792 116.002C365.835 117.299 364.174 118.502 362.781 120.013C361.392 121.523 360.473 123.148 359.943 124.78C359.313 126.508 359.256 128.062 359.864 129.741C361.824 128.254 364.15 127.359 366.635 127.254C369.218 127.05 372.076 127.347 375.016 127.933C378.046 128.63 381.171 129.417 384.471 130.606C387.678 131.887 391.07 133.172 394.565 134.363C397.958 135.655 401.355 136.743 404.856 137.744C408.25 138.839 411.668 139.543 415.006 139.755C420.05 140.222 425.99 139.654 432.828 138.044C439.663 136.431 446.712 134.249 454.063 131.59C461.411 128.922 468.581 126.055 475.763 122.802C482.755 119.544 489.16 116.461 494.799 113.737C500.436 110.819 505.002 108.547 508.415 106.615C511.822 104.697 513.672 103.691 513.672 103.691C513.672 103.691 509.602 101.577 506.198 102.502C502.794 103.427 499.309 106.082 489.364 111.083C479.419 116.085 460.414 122.298 448.042 109.668C446.383 107.855 445.901 105.309 446.688 101.924C442.31 104.205 439.261 106.727 437.541 109.49C435.723 112.347 435.058 115.053 435.448 117.498C435.748 120.038 437.01 122.224 439.139 123.957C441.373 125.783 444.295 126.766 447.826 126.983C445.62 127.2 442.836 127.594 439.283 128.146C435.828 128.609 432.189 128.871 428.373 128.93C424.642 128.898 420.934 128.479 417.426 127.672C413.927 126.865 410.925 125.209 408.618 122.884C406.955 121.273 405.885 119.088 405.306 116.441C404.822 113.893 404.624 111.259 405.016 108.447C405.388 105.836 406.253 103.133 407.481 100.649C408.714 98.1609 410.407 96.1756 412.367 94.6888C414.43 93.1036 416.848 92.3097 419.521 92.2133C422.201 92.1103 425.315 93.0957 428.681 95.1611C430.015 92.5767 430.662 90.2649 430.64 88.2217C430.622 86.1694 430.01 84.4997 428.813 83.192C427.709 81.9848 426.224 80.9568 424.136 80.304C422.149 79.7475 419.954 79.7656 417.458 80.0652C414.971 80.3652 412.457 81.2507 409.738 82.5185C407.006 83.9829 404.359 85.9348 401.887 88.4724C401.841 84.3883 402.643 80.4244 404.221 76.2953C405.796 72.3538 407.736 68.6245 410.039 65.4945C412.343 62.3645 414.824 59.8179 417.565 57.7766C420.306 55.9231 423.013 55.042 425.395 55.2275C424.832 51.997 423.479 49.9025 421.69 49.1582C419.903 48.2193 417.905 48.2466 415.766 49.1522C413.647 49.8499 411.586 51.2405 409.516 53.208C407.536 55.0905 405.944 56.9797 404.918 59.0881L402.093 46.9156ZM407.092 129.617C402.081 125.977 398.425 122.195 395.956 118.049C393.484 113.905 391.991 109.404 391.57 104.644C390.965 99.8717 391.536 94.7541 392.897 89.2539C394.256 83.7654 396.299 77.9989 398.844 71.9554C397.341 78.7274 396.069 84.7159 395.2 89.934C394.234 95.2405 393.87 99.979 394.305 104.345C394.628 108.808 395.841 113.002 397.834 117.023C399.827 121.054 402.883 125.215 407.092 129.617Z" fill="white"/>
</svg>
