<?xml version="1.0" encoding="UTF-8"?>
<svg width="367px" height="121px" viewBox="0 0 367 121" version="1.1" xmlns="http://www.w3.org/2000/svg" xmlns:xlink="http://www.w3.org/1999/xlink">
    <!-- Generator: Sketch 54.1 (76490) - https://sketchapp.com -->
    <title>Path hover</title>
    <desc>Created with Sketch.</desc>
    <g id="Page-1" stroke="none" stroke-width="1" fill="none" fill-rule="evenodd">
        <g id="Main-blk/wht-new" transform="translate(-1086.000000, -8030.000000)" fill="#000000" fill-rule="nonzero">
            <path d="M1404.17766,8050.81469 C1376,8031 1320.05894,8026.98881 1232.38855,8032.59471 C1187.11738,8035.51293 1146.83088,8043.85071 1119.45104,8055.96848 C1100.62753,8064.70479 1089.40527,8074.94053 1086.97513,8085.58952 C1082.06009,8101.55395 1095.84768,8114.75078 1125.56758,8127.53506 C1153.15354,8138.97357 1192.72982,8146.68094 1236.68469,8149.17481 C1247.75272,8149.76865 1259.112,8150.12496 1270.32566,8150.60004 C1279.98498,8150.99369 1289.73473,8151.09705 1299.45203,8150.90884 C1318.70038,8150.48128 1337.52684,8148.86933 1354.93777,8146.15807 C1432.77801,8134.28115 1457.65289,8109.25612 1452.30537,8086.99272 C1451.60731,8084.08647 1448.28655,8079.63883 1444.28409,8075.86102 C1441.95398,8073.48563 1439.93556,8074.24576 1441.61032,8075.86102 C1456.4664,8089.04142 1454.40637,8100.65433 1440.35086,8113.92784 C1427.15488,8125.49201 1402.12956,8135.21629 1369.50096,8141.45854 C1353.79135,8144.4743 1336.5123,8146.51963 1318.5298,8147.49201 C1300.10268,8148.15515 1281.4844,8147.99532 1263.18969,8147.01693 C1242.1298,8146.51123 1221.45467,8144.90729 1201.95149,8142.26617 C1182.64965,8139.58846 1164.96903,8135.80766 1149.74247,8131.10186 C1115.61728,8120.17425 1096.29583,8105.2506 1096.07712,8089.65142 C1095.16128,8081.12612 1100.76681,8072.66058 1112.38789,8065.0187 C1131.74977,8053.76378 1162.94204,8045.17454 1200.20391,8040.83729 C1290.13159,8029.79176 1370.46388,8025.80936 1404.17766,8056.38054 C1406.6534,8058.63716 1406.38025,8052.36357 1404.17766,8050.81469 Z" id="Path-hover"></path>
        </g>
    </g>
</svg>