<svg width="400" height="144" fill="none" xmlns="http://www.w3.org/2000/svg"><path d="M41.2 116.5L2.5 86.7.6 45.8 72 100.3l-30.8 16.2zM2.5 88.3c1.1 1.8 2.2 3.6 3.2 5.3 1 1.7 2.1 3.6 3.2 5.7.3.6.8 1.6 1.5 3.1s1.3 3.2 2 5.3c.6 2.1 1.1 4.4 1.5 6.9.3 2.5.3 5.1-.1 7.8s-1.2 5.4-2.6 8.1c-1.4 2.7-3.5 5.2-6.3 7.6L2.5 88.3zm22.7 30.3c-1.5-.6-3-1.2-4.7-1.8-1.7-.5-3.4-.9-5.3-1.2.9-1.6 1.6-3.3 2.1-4.9.5-1.6.9-3.3 1.2-4.9 1.6.8 3.2 1.5 4.8 2 1.6.5 3.4.8 5.2.9-1.7 2.9-2.8 6.2-3.3 9.9zM57.2 46.3L78 19.5l5-1.4c2.1-.6 4.8-1.1 8-1.4 1.7-.2 3.4-.2 5.1-.1 1.7.1 3.4.3 5.2.6 3.4.7 6.7 2.1 9.7 4.4 3 2.3 5.2 5.7 6.4 10.3.8 3 1 5.9.5 8.8-.5 2.9-1.6 5.7-3.3 8.3-1.8 2.6-4.3 5-7.6 7.2-3.2 2.1-7.3 3.8-12.1 5.1l.3 1.3 22-6 1.9 6.9c.8 2.8 1.5 5.2 2.3 7 .4.9.8 1.7 1.1 2.4.3.7.6 1.4 1 2 .7 1.2 1.3 2 1.8 2.5.2.3.5.6.7.8.2.2.4.4.6.5.8.6 1.9 1.1 3.1 1.4 1.3.3 2.7.3 4.3-.1.8-.2 1.7-.6 2.7-1.1.8-.5 1.5-1.1 2.1-1.6.5-.4 1.1-1.2 1.7-2.2.3-.5.5-.9.6-1.4.2-.5.3-.9.5-1.3.5 2.5.2 4.7-.6 6.4-1 1.7-2 3-3.1 3.9-1 .9-2.1 1.6-3.2 2.1-.6.2-1.2.5-1.8.7-.7.2-1.3.4-1.9.6-1.4.4-3 .7-4.6.9-1.7.2-3.5.3-5.4.2-.9-.1-1.8-.2-2.8-.3-1-.2-1.9-.4-2.9-.6-1.8-.5-3.6-1.4-5.4-2.7-2-1.5-4-3.7-5.8-6.5-.9-1.4-1.8-2.8-2.5-4.2-.7-1.4-1.3-2.7-1.8-4.1l-1.1-3.1-2.2.6 7.1 26-31.1 8.5-15.3-54.5zm36.6 11.5c1.8-.4 3.5-1.2 5.2-2.2 1.4-1 2.6-2.2 3.5-3.7.8-1.2 1.4-2.7 1.7-4.6.3-1.7.2-3.6-.4-5.7-.5-1.9-1.5-4-3-6.2s-3.5-4-6.1-5.4c2-.1 3.8.1 5.5.5 1.9.5 3.7 1.3 5.5 2.4-.6-2-1.5-4-2.9-5.7-1.3-1.7-2.9-3.1-4.8-4.1-2-1.1-4.1-1.7-6.5-2-2.4-.3-4.9 0-7.7.7l10 36zM138 43.4c-.2-5.5.7-10.7 2.8-15.6 2-4.9 4.9-9.2 8.5-12.9 3.6-3.7 8-6.7 13-9s10.4-3.5 16.1-3.7c5.8-.2 11.2.7 16.4 2.6 5.1 1.9 9.7 4.6 13.5 8.1 3.9 3.5 7 7.6 9.4 12.3 2.4 4.8 3.6 9.9 3.8 15.4.2 5.5-.7 10.7-2.8 15.6-2 4.9-4.9 9.2-8.5 12.9-3.6 3.7-8 6.7-13 9s-10.4 3.5-16.1 3.7c-5.8.2-11.2-.7-16.4-2.6-5.1-1.9-9.7-4.6-13.5-8.1-3.9-3.5-7-7.6-9.4-12.3-2.4-4.7-3.6-9.9-3.8-15.4zm27.6-.9c.2 5.7.8 10.7 1.9 14.8 1.1 4.2 2.3 7.8 3.8 10.8 1.5 3 3.1 5.5 4.8 7.4 1.7 1.9 3.4 3.5 4.9 4.7 1.4-1.3 2.9-2.9 4.6-4.9 1.6-2 3.1-4.5 4.4-7.6 1.3-3.1 2.3-6.8 3.1-11 .8-4.2 1.1-9.3.9-15.1-.2-5.8-.8-10.8-1.9-15-1.1-4.2-2.3-7.8-3.8-10.8-1.5-3-3.1-5.4-4.8-7.3-1.7-1.9-3.4-3.4-4.9-4.6-1.5 1.3-3 3-4.6 5-1.6 2-3 4.6-4.3 7.7-1.3 3.1-2.3 6.8-3.1 11-.9 4.2-1.2 9.2-1 14.9zM233.5 44.9l1.8 2.7c.6.9 1.1 1.9 1.5 2.9.9 2 1.7 4.1 2.2 6 .3 1 .5 2 .6 3 .2 1 .3 2 .4 3.1.2 1.9.1 3.8-.3 5.8-.8 3.9-2.3 7.3-4.5 10.1-2.3 2.9-5.4 5.1-9.5 6.5l7.8-40.1zM242.1.8l52.2 52.6-8.4 43.2L233.7 44 242.1.8zm52.3 51.6l-1.8-2.7c-.6-.9-1.1-1.9-1.5-2.9-.9-2-1.7-4.1-2.2-6-.3-1-.5-2-.6-3-.2-1-.3-2-.4-3-.2-1.9-.1-3.9.3-5.9.7-3.7 2.3-7.1 4.7-10.1 2.4-3 5.5-5.1 9.4-6.5l-7.9 40.1zM324 106.7l-30.3-11.2 26.8-72.2 30.3 11.2-26.8 72.2zM365.2 78.8c-.4.9-.9 1.9-1.3 2.8-.4.9-.9 1.9-1.3 2.8-.4.9-.9 1.9-1.5 2.8-.5.9-1.1 1.9-1.7 2.9-.2.3-.4.7-.7 1.2-.3.5-.6 1-1.1 1.7-1 1.4-2.1 2.9-3.4 4.5-.6.8-1.4 1.6-2.3 2.4-.9.8-1.8 1.7-2.7 2.6-1.9 1.5-4.1 2.9-6.6 4.1-2.4 1.1-5.1 1.8-8.3 2.1-3 .3-6.3-.1-9.8-1.2l40.7-28.7zm-3.2 32.9c-3.2.1-6.6.9-10.1 2.6-.2-.8-.3-1.6-.5-2.4-.1-.8-.3-1.7-.6-2.5-.2-.8-.5-1.6-.8-2.5-.3-.9-.6-1.7-1-2.6 1.7-.1 3.5-.4 5.2-.8.8-.2 1.6-.5 2.4-.8l2.4-.9c.1.9.2 1.8.4 2.6.1.8.3 1.7.6 2.5.2.8.5 1.6.9 2.4.3.7.7 1.5 1.1 2.4zm.2 14.8l4.3-48.7L400 54.4l-7.7 89.5-30.1-17.4z" fill="#000"/></svg>