<svg width="624" height="215" fill="none" xmlns="http://www.w3.org/2000/svg"><path d="M31.3 112.8l21.1 9.2c-3.7 0-7 .4-10.1 1.2-3.1.8-5.8 1.8-8.2 3-2.4 1.2-4.4 2.4-6 3.6-1.6 1.3-2.9 2.4-3.7 3.3-2.6 2.8-4.4 5.7-5.4 8.5-1 2.9-1.3 5.7-1 8.4.3 2.7 1.2 5.3 2.5 7.8 1.4 2.4 3.2 4.7 5.3 6.7-.3-1.9-.4-3.8-.2-5.6.2-1.8.6-3.7 1.3-5.4.6-1.8 1.4-3.4 2.3-5 .9-1.5 1.8-3 2.8-4.2-1.1 5.7-.8 11 1 15.8 1.7 4.9 4.5 9 8.3 12.5 2 1.9 4.3 3.5 6.6 4.8 2.4 1.3 5.1 2.1 8.1 2.3 3.3.2 6.2-.4 8.6-1.6 2.4-1.2 4.6-3 6.7-5.2 4-4.3 6.4-9 7.1-13.9.7-4.9.5-10.3-.7-16 1.7 3 3.7 6.3 6 9.8 2.3 3.5 5.1 7.3 8.4 11.4l-7.6 8.2-2.7-9.9-.4.1c0 5-.9 9.5-2.9 13.5-1.9 3.9-4.6 7.7-7.9 11.3-4.5 4.9-9.3 8.6-14.3 11-5 2.4-10 3.7-14.9 3.9-5 .2-9.9-.7-14.6-2.6-4.8-1.9-9.2-4.8-13.3-8.6-2.8-2.6-5.2-5.3-6.9-8.1-1.8-2.7-3.1-5.4-4-8-.9-2.6-1.5-5.2-1.8-7.7-.3-2.5-.4-4.8-.3-6.8.2-5.5 1.4-10.5 3.6-15.1s4.9-8.6 8.2-12.2c4-4.3 8.4-7.4 13.3-9.3 4.9-1.9 10-3 15.2-3.3l.2-.4-15.1-1.6 5.4-5.8zM134.8 90.1c.5.7.9 1.4 1.4 2.2.5.8 1.1 1.8 1.7 2.8l1.8 3.3c.5 1.1 1 2.4 1.5 3.8.9 2.8 1.5 5.6 1.9 8.6.3 3.1 0 6.2-.8 9.5-.9 3.2-2.6 6.5-5 9.9-2.5 3.3-6 6.5-10.6 9.6-4.6 3.1-8.9 5.2-12.8 6.3-4.1 1-7.8 1.4-11 1-3.4-.4-6.4-1.3-9.1-2.7-2.7-1.4-5.1-3.1-7.2-4.9-2.3-1.8-4.1-3.7-5.5-5.6-.8-1-1.4-1.9-2-2.6-.6-.8-1.1-1.5-1.5-2.2L54.2 94.5l24-16.5 33.4 49.3c2.5 3.7 4.9 6.5 7.2 8.3 2 1.6 4.3 2.5 7 2.8.7-2.6.7-5.1 0-7.6-.9-2.8-2.5-6-5.1-9.7L87.3 71.8l24.1-16.3 23.4 34.6zM193.9 19.3l14.9 17.6c-4.1-2.1-8.2-3.4-12.4-4-4.2-.6-7.7-.6-10.7-.1-3.1.6-5.4 1.1-6.9 1.7-3.6 1.4-6.3 3.1-8.2 5.3-1 1-1.9 2-2.5 3-.7 1-1.3 2-1.7 3-1 2.3-1.6 5.1-1.7 8.3-.2 3.1.3 6.2 1.7 9.2.7-2.1 1.4-3.8 2.3-5 .4-.7.9-1.4 1.5-2.1.6-.7 1.2-1.4 1.9-2 .7-.7 1.4-1.3 2.2-1.9.7-.6 1.4-1.2 2.1-1.7 1.6-1.2 3.1-2.1 4.5-2.7-.7.9-1.3 1.8-1.8 2.8-.5.9-1 1.9-1.4 2.8-.5 1-.9 1.9-1.2 2.9-.3 1-.6 1.9-.9 2.9-.9 3.3-1.2 6.4-.9 9.2.2 3 .9 6 2.1 9 1 2.6 2.3 5 3.9 7.2 1.5 2.3 3.6 4.2 6.2 5.6 3 1.6 5.8 2.4 8.5 2.4 2.7-.1 5.4-.7 8.2-1.7 3.8-1.5 6.8-3.3 9.1-5.6 1.1-1.2 2.1-2.5 3.1-3.8.9-1.3 1.8-2.7 2.6-4.1.3-.6.7-1.3 1.1-2 .4-.7.8-1.6 1.1-2.5.3-.9.6-1.9 1-2.9s.7-2.1 1-3.2c.1 1.8.2 3.6.4 5.5s.4 3.9.7 6c.2 2.1.6 4.3 1 6.6s.9 4.7 1.5 7.3l-10.4 4 1.9-10.1-.4-.1c-2.3 4.7-5.2 8.3-8.5 10.8-3.6 2.7-7.7 5-12.1 6.7-5.7 2.2-10.9 3.3-15.8 3.5-2.5.1-4.9 0-7.1-.3-2.2-.3-4.4-.8-6.4-1.4-5.4-1.7-10-4.6-14-8.5-4-4-7.2-9-9.5-15.1-1.3-3.4-2.2-6.9-2.6-10.3-.4-3.2-.4-6.2-.1-8.9.3-2.7.9-5.3 1.7-7.7.9-2.5 1.8-4.5 2.8-6.3 2.6-4.8 5.9-8.8 9.9-11.9 4-3.2 8.2-5.6 12.7-7.4 5.5-2.1 10.8-2.9 16.1-2.4 5.2.5 10.2 1.7 15 3.7l.4-.3-12.9-8.1 7-2.9zM297 44.8c.1.8.2 1.7.3 2.6.1 1 .2 2 .3 3.3.1 1.2.1 2.5.1 3.8 0 1.3-.1 2.6-.3 4-.5 2.9-1.2 5.7-2.1 8.5-1.1 2.9-2.7 5.6-4.9 8.1s-5.2 4.7-8.9 6.7c-3.7 1.8-8.3 3.1-13.8 3.9-5.6.8-10.3.7-14.2-.1-4.2-.9-7.6-2.3-10.3-4-2.9-1.8-5.2-4-6.9-6.5-1.8-2.5-3.2-5-4.3-7.6-1.2-2.6-2-5.1-2.4-7.4-.2-1.2-.5-2.3-.6-3.2-.2-.9-.3-1.8-.4-2.6l-5.7-41.4L251.7 9l8.1 59c.6 4.4 1.5 8 2.7 10.6 1.1 2.3 2.8 4.2 5.1 5.6 1.8-2 2.9-4.3 3.4-6.8.5-2.9.4-6.5-.2-11l-8.1-59 28.8-3.9 5.5 41.3zM319.2 29.7l.6 2.1c.1.7.3 1.5.4 2.3.1.8.3 1.6.4 2.3.1.7.3 1.4.3 2 .2 1.1.3 2.2.4 3.3.1 1.2.2 2.4.4 3.8.2 2.6.1 5.1-.2 7.4-.1.8-.2 1.7-.4 2.6-.1.9-.3 1.8-.5 2.8-.3.9-.5 1.8-.8 2.7-.3.9-.5 1.8-.8 2.7-.3.9-.7 1.8-1.1 2.7-.4.9-.8 1.7-1.2 2.6-.8 1.5-1.7 3-2.8 4.3-.7.9-1.6 1.8-2.6 2.7-1 .8-2.1 1.7-3.3 2.5-2.3 1.5-5.1 2.7-8.5 3.4l19.7-52.2zm-.8-7.1c1-.2 2-.5 2.9-.8.9-.3 1.8-.6 2.7-1 .8-.4 1.6-.8 2.3-1.2.7-.4 1.4-.7 2.1-1.1 1.2-.7 2.3-1.4 3.1-2.1l1.2-.9c.3-.3.6-.6.9-.8 2.3-1.9 4.3-4.2 5.9-6.6.8-1.3 1.5-2.6 2.1-3.8.6-1.3 1.2-2.5 1.8-3.7l15.7 49.1L391 6.1l10.7 83.2-31.3-3.6-4.7-36-26.9 36.7-20.4-63.8zM457.5 30.4l7.9 3c2.6 1 5.4 2.5 8.4 4.5 2.8 1.9 5.2 4.6 7.1 8.2 1.2 2.2 2 4.8 2.5 7.9.4 2.9-.2 6.2-1.5 9.8-1.5 3.8-3.1 6.6-4.8 8.2-.9.8-1.7 1.4-2.5 2-.8.6-1.6 1.1-2.3 1.4 1.4 2.2 2.3 4.8 2.9 7.8.6 3 0 6.7-1.6 10.8-1 2.7-2.6 5.2-4.7 7.7-1.9 2.2-4.8 4-8.4 5.2-4.3 1.4-8.5 1.7-12.5 1-2-.4-3.9-.8-5.8-1.4-1.9-.5-3.7-1.1-5.4-1.8l-34-13.1L423 38.9l34.5-8.5zm-23.4 69.5l2.9 1.1c.7.3 1.5.5 2.3.7.8.2 1.7.4 2.6.6 1.8.2 3.6.3 5.4.1 2.8-.2 5.1-1 6.9-2.2 1.7-1.2 3-2.4 4-3.6-1 .2-2.4.4-4.3.3-1.9 0-4.1-.5-6.7-1.5.7-.1 1.3-.1 1.8-.1s1-.1 1.5-.1c.5-.1.9-.2 1.3-.3.4-.1.8-.2 1.3-.3l2.2-.9c.3-.2.7-.4 1-.7.3-.3.7-.5 1.1-.7 1.4-1 2.5-1.9 3.4-2.9.9-.9 1.6-2.2 2.2-3.8.9-2.4 1.3-4.7 1.3-6.8-.9.3-1.8.5-2.9.7-.6.1-1.2.1-1.8.1h-1.9c-1.4 0-2.9-.2-4.6-.6-.7-.2-1.5-.4-2.2-.7-.7-.2-1.3-.5-1.9-.7-1.9-.7-3.6-1.6-5.3-2.6l-9.6 24.9zm11.1-28.8c.4.3.9.7 1.3 1 .4.3.8.6 1.2.8.4.2.8.4 1.1.6.4.1.7.3 1 .4 3 1.2 5.8 1.5 8.4 1 1.4-.2 2.4-.6 3.1-.9.8-.5 1.4-.9 2-1.3 0-.7-.3-1.6-.7-2.6-.5-1-1.2-2.1-2.1-3.3-1.4-1.8-3.5-3.2-6.4-4.3-.7-.3-1.3-.5-1.8-.7-.5-.2-1-.3-1.4-.3-.4-.1-.7-.1-1-.2-.3 0-.6-.1-.8-.1l-3.9 9.9zm5.3-13.7c1.9.4 3.6.8 5.1 1.4 1.5.6 3.4 1.5 5.6 2.9 2 1.2 4 3.3 6.2 6.1.3-.3.5-.6.7-.8.2-.3.4-.6.7-.9.2-.3.4-.7.6-1.1.2-.4.4-.8.5-1.1.5-1.4.9-3 1.2-4.8.2-1.7.1-3.4-.3-5.1-.1-.5-.5-1.7-1.2-3.4-.3-1-.8-2-1.5-3s-1.6-2.1-2.5-3.3c.5.3 1 .5 1.7.8.6.3 1.3.6 2.1 1.1 1.4.8 3.1 1.9 4.9 3.3-.8-3-2.2-5.6-4.4-7.9-2.2-2.5-5-4.4-8.4-5.7l-2.4-.9-8.6 22.4zM563.5 113.2c-.2-1.1-.4-2.2-.6-3.4-.2-1.1-.5-2.3-.9-3.4-.8-2.5-1.8-4.7-2.8-6.7-.6-1.1-1.2-2.2-2-3.2-.7-1-1.5-2-2.3-3-1.7-2-3.7-3.7-5.8-5.1-3.1-2.1-6.1-3.5-9-4.2-2.8-.7-5.4-.9-7.8-.6-2.2.4-4.3 1.1-6.2 2.2-2.3 1.1-4.1 2.5-5.6 4.2 3.2-.9 6.6-.9 10.4-.1 3.6.6 7.1 2.1 10.5 4.6-1 0-2 .1-3 .3-1 .2-1.9.4-2.8.7-.9.3-1.8.6-2.6.9-.8.3-1.6.7-2.3 1.1-.6.3-1.2.7-1.8 1.1-.6.4-1.1.8-1.6 1.2-.5.4-.9.8-1.3 1.2-.4.4-.9.8-1.2 1.2-.4.4-.7.8-1 1.1-.3.4-.6.7-.8 1.1-.3.3-.5.5-.7.8-.2.3-.3.5-.5.7-.5.8-1 1.6-1.5 2.5-.5.9-.9 1.8-1.4 2.7-.4.9-.8 1.9-1.1 2.9-.3 1-.5 2-.6 2.8-.2 1.7-.2 3.6 0 5.8.2 1.8.7 3.7 1.4 5.6-2.1-1.3-3.8-2.6-5.1-4-1.3-1.6-2.4-3-3.2-4.3-.7-1.2-1.4-2.6-2-4.4-.4-.9-.6-1.7-.9-2.6-.2-.9-.4-1.8-.5-2.8-1 1.6-1.8 3.8-2.3 6.4-.6 2.5-.4 5.5.4 9.1.8 3.3 2.1 6 4.1 8.2 1.8 2.1 4 4.1 6.8 6 3.4 2.3 6.6 3.7 9.8 4.2 3.1.4 6.3.4 9.6.2 1-.1 2-.2 3-.4 1-.1 1.9-.3 2.8-.6 1.8-.5 3.6-1 5.3-1.6-1.5 1.2-2.9 2.5-4.4 3.7-1.5 1.3-2.9 2.6-4.4 4-1.5 1.3-3 2.8-4.7 4.5-1.7 1.7-3.4 3.4-5.1 5.3l-9.6-6.5 9.6-4-.2-.4c-5.2.8-9.7.5-13.7-.8-4.3-1.4-8.5-3.5-12.4-6.1-4.8-3.3-8.9-7-12.1-11.3-3.1-4-5.3-8.2-6.6-12.5-.3-1.1-.6-2.2-.8-3.3-.2-1.1-.4-2.2-.5-3.5-.2-2.4-.1-5 .2-7.5.2-2.5.9-5.2 2.1-8.2 1-2.8 2.5-5.7 4.6-8.8 2.3-3.4 4.8-6.3 7.4-8.7 2.5-2.4 5.1-4.3 7.6-5.7 2.7-1.5 5.2-2.6 7.4-3.3 2.4-.6 4.6-1.1 6.8-1.4 4.2-.4 8.5 0 13.2 1.1 4.7.9 9.6 3.2 14.7 6.6 5.1 3.4 9 7.5 11.7 12.1 3 4.8 5 9.7 5.9 14.9l.5.1-.6-15.4 6.4 4.3-5.9 22.4zM576.4 124.9l33.4 5.9 3.5 3.8c1.5 1.6 3.2 3.8 4.9 6.4.9 1.4 1.8 2.9 2.5 4.5.7 1.5 1.3 3.2 1.9 4.9 1 3.4 1.2 6.9.6 10.6-.6 3.7-2.7 7.2-6.2 10.5-2.3 2.1-4.8 3.6-7.5 4.5-2.8 1-5.8 1.3-8.9.9-3.1-.3-6.4-1.5-9.9-3.4-3.4-1.9-6.8-4.7-10.2-8.3l-1 .9 15.6 16.7-5.2 4.9c-2.1 2-3.9 3.8-5.2 5.3-.6.8-1.1 1.5-1.7 2.1-.5.6-1 1.2-1.3 1.8-.7 1.2-1.2 2.1-1.4 2.7-.2.4-.3.7-.4 1-.1.3-.1.5-.1.8-.2 1-.1 2.1.2 3.4.3 1.3 1 2.5 2.1 3.7.6.6 1.3 1.2 2.2 1.9.8.5 1.6.8 2.4 1.1.6.3 1.5.4 2.7.5.5 0 1 0 1.5-.1s1-.1 1.4-.2c-2 1.6-4 2.4-6 2.4-2-.1-3.6-.4-4.9-.9-1.3-.5-2.4-1.1-3.4-1.9-.5-.4-1-.8-1.5-1.3s-1-.9-1.4-1.4c-1-1.1-2-2.3-3-3.7-1-1.4-1.9-3-2.7-4.7-.4-.8-.7-1.7-1-2.6-.3-.9-.6-1.9-.8-2.8-.4-1.8-.4-3.9-.1-6.1.4-2.5 1.4-5.2 3-8.2.8-1.5 1.7-2.9 2.6-4.1.9-1.2 1.8-2.4 2.8-3.5l2.3-2.4-1.6-1.7-19.6 18.3-22-23.6 41.4-38.6zm6.8 37.8c1.2 1.4 2.7 2.6 4.4 3.6 1.5.8 3.2 1.2 4.9 1.4 1.4.1 3.1-.1 4.9-.6 1.6-.5 3.3-1.5 4.9-3 1.4-1.3 2.8-3.2 4.1-5.6 1.2-2.3 1.9-5 1.9-7.9 1 1.7 1.7 3.4 2.1 5.1.5 1.9.6 3.9.5 6 1.6-1.4 2.8-3.2 3.7-5.2.9-1.9 1.4-4 1.4-6.2s-.4-4.5-1.3-6.7-2.3-4.4-4.2-6.5l-27.3 25.6z" fill="#000"/></svg>