<svg width="772" height="331" fill="none" xmlns="http://www.w3.org/2000/svg"><path fill-rule="evenodd" clip-rule="evenodd" d="M40.104 278.515l.258-.643c.517-1.283.865-2.738 1.045-4.365.18-1.625.046-3.254-.405-4.887-.45-1.629-1.283-3.145-2.498-4.546-1.216-1.401-2.945-2.553-5.191-3.456-1.836-.74-4.069-1.181-6.698-1.328-2.628-.144-5.331.384-8.108 1.585 1.252-1.733 2.596-3.16 4.035-4.28 1.439-1.119 3.097-2.049 4.973-2.785-1.903-.766-3.919-1.161-6.043-1.189a15.198 15.198 0 00-6.19 1.24c-2.003.852-3.869 2.152-5.6 3.899-1.73 1.749-3.156 4.014-4.275 6.795l34.697 13.96zM8.765 300.71L0 267.973l1.937-4.813c.517-1.285 1.257-2.83 2.222-4.638.964-1.808 2.128-3.619 3.49-5.433a35.526 35.526 0 014.728-5.121 22.466 22.466 0 015.928-3.83c2.162-.952 4.532-1.49 7.111-1.614 2.58-.121 5.366.419 8.359 1.623 2.994 1.205 5.513 2.901 7.556 5.091 2.044 2.189 3.534 4.821 4.473 7.89.939 3.072 1.246 6.531.923 10.378-.322 3.848-1.374 7.984-3.153 12.405l1.224.493 8.523-21.184 6.633 2.669c2.722 1.095 5.044 1.905 6.967 2.43 1.923.525 3.538.885 4.842 1.078 1.306.195 2.353.244 3.143.145.791-.094 1.33-.21 1.62-.341.979-.269 1.988-.817 3.031-1.64 1.043-.824 1.865-1.984 2.468-3.483.746-1.853.983-3.623.712-5.306-.271-1.683-.979-3.459-2.124-5.33 1.819.98 3.167 2.103 4.041 3.366.875 1.265 1.46 2.514 1.752 3.75.293 1.237.391 2.417.296 3.538-.096 1.122-.211 1.946-.343 2.472a32.27 32.27 0 01-.579 1.881 37.048 37.048 0 01-.68 1.838c-.861 2.14-2.041 4.381-3.534 6.721-1.496 2.341-3.518 4.323-6.069 5.948-2.551 1.627-5.709 2.697-9.473 3.212-3.765.517-8.314.034-13.645-1.45l-3.148-1.017-.861 2.139 25.003 10.06-12.052 29.955L8.765 300.71zM98.724 178.485c.666.458 1.38.973 2.143 1.543.764.573 1.638 1.243 2.622 2.012.985.77 1.935 1.587 2.854 2.45.919.866 1.844 1.85 2.774 2.956a53.156 53.156 0 014.88 7.27c1.409 2.742 2.302 5.78 2.678 9.117.317 3.296-.031 6.974-1.043 11.036-1.133 3.979-3.266 8.25-6.401 12.811-3.179 4.626-6.379 8.118-9.6 10.475-3.472 2.465-6.781 4.109-9.928 4.932-3.293.908-6.45 1.164-9.47.768-3.063-.332-5.91-.982-8.537-1.949-2.776-.88-5.152-1.953-7.13-3.22a151.316 151.316 0 01-2.818-1.726 65.434 65.434 0 01-2.21-1.448l-34.45-23.673 16.458-23.951 49.047 33.702c3.688 2.534 6.918 4.243 9.694 5.123 2.429.737 4.958.748 7.584.034-.275-2.708-1.192-5.064-2.751-7.068-1.818-2.274-4.57-4.679-8.257-7.213l-49.047-33.702 16.457-23.951 34.45 23.672zM117.342 100.221l19.975 11.101c-4.172-.501-8.27-.368-12.296.405-3.116.62-6.222 1.583-9.32 2.891-3.099 1.31-5.795 3.044-8.088 5.207-1.623 1.53-2.655 2.957-3.097 4.28-.66 1.429-.943 2.755-.848 3.974 1.46-1.476 2.962-2.741 4.505-3.794a12.867 12.867 0 012.421-1.299c.841-.34 1.695-.665 2.562-.98l-1.594 1.503c-.28.265-.561.555-.843.87-.282.319-.538.635-.768.951-.682.847-1.197 1.533-1.544 2.061a7.31 7.31 0 00-1.133 1.824c-.912 2.171-.663 4.003.744 5.496a4.877 4.877 0 002.004 1.285c.676.271 1.305.434 1.888.489 1.107.166 2.365-.012 3.774-.535a44.337 44.337 0 011.711-.707 13.71 13.71 0 001.552-.707 17.939 17.939 0 011.72-.865l1.796-.786 3.674-1.65 6.04-2.671c.437-.209.886-.406 1.347-.589.462-.183.989-.352 1.581-.508a20.123 20.123 0 011.623-.548 92.53 92.53 0 011.699-.468 27.623 27.623 0 011.695-.388 16.293 16.293 0 011.686-.229c.48-.05.961-.098 1.442-.15l1.443-.151c2.763.017 5.578.538 8.446 1.561 2.912 1.186 5.527 3.005 7.84 5.459a29.543 29.543 0 015.105 7.432c1.297 2.609 2.02 5.504 2.17 8.689.121 2.708-.198 5.227-.96 7.556a38.005 38.005 0 01-2.904 6.669 34.711 34.711 0 01-2.04 3.133 58.933 58.933 0 01-2.265 2.891 80.5 80.5 0 01-4.976 5.146l-1.511 1.423a53.01 53.01 0 01-3.452 2.726 29.133 29.133 0 01-3.503 2.169c-2.405 1.261-4.79 2.148-7.156 2.664-2.478.624-4.756 1.007-6.836 1.154l-3.276.14a18.546 18.546 0 01-3.023-.097l-.177.318 14.334 3.267-5.035 4.746-19.975-11.1c4.064.502 8.137.392 12.213-.327 1.129-.257 2.246-.531 3.351-.817a19.265 19.265 0 003.209-1.135 71.147 71.147 0 002.944-1.416c.928-.47 1.832-.97 2.71-1.496.828-.578 1.599-1.104 2.316-1.579a28.6 28.6 0 002.072-1.5 77.49 77.49 0 001.707-1.383c.473-.394.905-.777 1.297-1.146 1.789-1.688 2.984-3.166 3.583-4.437.543-1.215.907-2.568 1.092-4.053-1.409 1.532-2.911 2.797-4.506 3.795-.771.526-1.579.959-2.42 1.299a74.28 74.28 0 01-2.563.98 17.943 17.943 0 001.842-1.661 26.725 26.725 0 001.867-2.139c1.197-1.529 1.94-2.985 2.224-4.364.392-1.376.254-2.757-.418-4.142-.726-1.33-2.15-2.054-4.268-2.174a22.53 22.53 0 00-1.757.07c-.641.051-1.31.152-2.009.306-1.454.365-3.157.913-5.109 1.642-.979.42-1.916.8-2.81 1.138-.895.341-1.751.693-2.567 1.059-.817.368-1.606.708-2.366 1.022a30.36 30.36 0 01-2.357.861l-1.787.626a132.69 132.69 0 01-3.565 1.094 30.194 30.194 0 01-3.792.853c-2.629.464-5.212.582-7.75.353a13.611 13.611 0 01-3.355-.616 36.275 36.275 0 01-3.556-1.334 21.355 21.355 0 01-6.759-4.816c-3.018-3.201-5.01-6.714-5.976-10.542-1.122-3.879-1.302-7.488-.54-10.828.537-2.118 1.545-4.58 3.021-7.385 1.361-2.591 3.69-5.443 6.99-8.555 3.804-3.586 8.039-6.268 12.703-8.045 2.276-.835 4.725-1.432 7.348-1.788 2.622-.356 5.497-.445 8.623-.268l.26-.396-14.333-3.268 5.034-4.746zM187.594 52.327l17.288 14.946c-3.982-1.342-8.021-2.048-12.121-2.113-3.176-.029-6.413.28-9.713.927-3.301.65-6.295 1.797-8.981 3.445-1.901 1.166-3.203 2.353-3.905 3.558-.938 1.264-1.486 2.505-1.643 3.717 1.732-1.147 3.46-2.079 5.186-2.794.864-.357 1.74-.617 2.635-.778a75.79 75.79 0 012.709-.436l-1.868 1.146a13.9 13.9 0 00-1.003.68c-.342.254-.657.512-.946.774-.841.69-1.485 1.256-1.932 1.701a7.307 7.307 0 00-1.482 1.555c-1.337 1.94-1.467 3.783-.394 5.532.423.69.988 1.245 1.7 1.668.606.403 1.189.691 1.747.864 1.05.388 2.319.471 3.805.247a41.517 41.517 0 011.819-.342 13.905 13.905 0 001.664-.376 18.17 18.17 0 011.86-.496l1.918-.403 3.934-.865 6.459-1.38c.47-.116.95-.216 1.438-.302.489-.085 1.04-.143 1.652-.175.572-.094 1.14-.16 1.7-.205.561-.04 1.147-.078 1.759-.112.611-.03 1.192-.04 1.738-.033.547.01 1.112.05 1.697.12.481.05.962.1 1.443.147.481.05.962.1 1.443.147 2.701.581 5.352 1.665 7.949 3.253 2.61 1.755 4.798 4.071 6.561 6.945a29.5 29.5 0 013.48 8.318c.737 2.818.853 5.8.35 8.948-.434 2.676-1.261 5.077-2.482 7.201a38.213 38.213 0 01-4.205 5.936 34.533 34.533 0 01-2.636 2.649 58.108 58.108 0 01-2.809 2.369 80.4 80.4 0 01-5.921 4.021l-1.77 1.085a53.157 53.157 0 01-3.936 1.964 29.179 29.179 0 01-3.872 1.407c-2.611.744-5.127 1.126-7.549 1.147-2.553.105-4.862.015-6.928-.265-1.105-.182-2.182-.36-3.235-.532a18.796 18.796 0 01-2.94-.712l-.238.274 13.365 6.125-5.898 3.619-17.288-14.946a40.936 40.936 0 0012.022 2.174 117.84 117.84 0 003.447-.115 19.254 19.254 0 003.374-.457 70.823 70.823 0 003.171-.784 43.579 43.579 0 002.958-.912c.929-.395 1.791-.754 2.59-1.072a29.317 29.317 0 002.335-1.045 77.659 77.659 0 001.954-1.006 28.062 28.062 0 001.503-.857c2.096-1.286 3.567-2.49 4.413-3.612.78-1.079 1.413-2.329 1.897-3.745-1.692 1.212-3.421 2.144-5.186 2.795-.863.358-1.741.617-2.634.778-.895.162-1.797.307-2.709.436a18.053 18.053 0 002.142-1.25 26.711 26.711 0 002.264-1.712c1.484-1.254 2.509-2.527 3.069-3.818.664-1.268.811-2.648.437-4.14-.44-1.45-1.686-2.451-3.735-3-.52-.11-1.098-.208-1.735-.291a14.782 14.782 0 00-2.029-.11c-1.498.06-3.277.248-5.336.564a69.295 69.295 0 01-2.983.54c-.946.151-1.856.322-2.73.513-.874.194-1.716.366-2.524.517-.809.153-1.637.274-2.484.362l-1.877.248c-1.186.127-2.423.241-3.713.343-1.29.103-2.586.124-3.886.061-2.668-.083-5.221-.495-7.659-1.237a13.567 13.567 0 01-3.159-1.288 36.206 36.206 0 01-3.208-2.032 21.355 21.355 0 01-5.633-6.094c-2.301-3.75-3.534-7.596-3.698-11.54-.306-4.027.254-7.597 1.681-10.71.96-1.965 2.449-4.169 4.467-6.613 1.861-2.259 4.722-4.576 8.59-6.949 4.455-2.733 9.148-4.494 14.077-5.28 2.398-.353 4.918-.437 7.558-.25 2.639.187 5.472.687 8.496 1.497l.336-.335-13.365-6.125 5.898-3.619zM273.032 100.181l-29.919 12.144-28.959-71.347 29.919-12.144 28.959 71.347zM304.368 78.173c-2.336 2.248-4.251 5.152-5.744 8.712a39.906 39.906 0 01-1.981-1.476 20.868 20.868 0 00-2.094-1.45 47.708 47.708 0 00-2.296-1.293 56.429 56.429 0 00-2.52-1.244 28.84 28.84 0 003.338-4.12c.472-.706.9-1.44 1.283-2.2.381-.762.764-1.523 1.147-2.284.683.6 1.36 1.163 2.029 1.69a19.816 19.816 0 002.094 1.451c.727.441 1.485.836 2.271 1.186.787.351 1.611.695 2.473 1.028zm10.196 10.808l-29.647-38.829 8.853-39.937 54.68 71.242-33.886 7.524zM284.552 51.7c.296.987.594 1.972.892 2.956.297.988.595 1.973.893 2.957.297.988.562 2 .792 3.036l.727 3.275.298 1.343c.119.537.228 1.208.329 2.011.214 1.681.394 3.557.54 5.626a22.75 22.75 0 01-.029 3.332 947.769 947.769 0 01-.294 3.727c-.408 2.42-1.116 4.906-2.124 7.457-1.041 2.411-2.6 4.785-4.68 7.124-2.021 2.251-4.707 4.161-8.059 5.733l10.715-48.577zM409.153 40.805a43.327 43.327 0 01-2.286-2.273 25.25 25.25 0 01-2.059-2.498 41.765 41.765 0 01-3.433-5.445 30.272 30.272 0 01-1.257-2.84 78.807 78.807 0 01-1.026-2.843c-.569-1.824-.869-3.763-.902-5.816a22.882 22.882 0 012.477-10.822c1.713-3.401 4.321-6.156 7.824-8.268l.662 40.805zm-61.159 5.172a45.33 45.33 0 012.286 2.273 26.03 26.03 0 012.059 2.497 42.22 42.22 0 013.433 5.446c.477.946.896 1.893 1.257 2.84.361.948.704 1.932 1.028 2.953a20.23 20.23 0 01.9 5.706c.064 3.96-.724 7.567-2.362 10.82-1.638 3.327-4.284 6.082-7.939 8.27l-.662-40.805zm-.727-44.874l61.902 40.691.713 43.995-61.902-40.692-.713-43.994zM505.671 64.057c.078-.817.178-1.57.302-2.262.122-.69.228-1.326.32-1.912a174.077 174.077 0 00.485-3.296c.07-.513.154-1.005.252-1.473.096-.47.17-.925.221-1.37.069-.512.172-.998.307-1.457l.417-1.424c1.423-4.857 3.32-8.732 5.691-11.63 2.338-3.058 4.824-5.387 7.455-6.985 2.652-1.668 5.343-2.79 8.076-3.365 2.657-.597 5.113-.908 7.365-.936l-30.891 36.11zm-8.465-43.287l7.461 44.254-26.127 30.513-14.09-84.367 32.756 9.6zM553.17 83.8c-2.797 4.988-4.825 9.548-6.082 13.677-1.258 4.131-2.027 7.86-2.308 11.191-.281 3.331-.186 6.264.289 8.8.473 2.535 1.075 4.723 1.807 6.562 1.883-.374 4.038-.994 6.465-1.862 2.423-.867 4.985-2.29 7.681-4.268 2.695-1.977 5.476-4.58 8.343-7.807 2.867-3.227 5.717-7.367 8.55-12.42 2.833-5.054 4.887-9.66 6.163-13.822 1.274-4.16 2.044-7.89 2.308-11.192.263-3.298.148-6.2-.343-8.704-.493-2.503-1.104-4.674-1.834-6.513-1.953.336-4.132.961-6.542 1.88-2.411.918-4.963 2.37-7.658 4.345-2.695 1.98-5.476 4.581-8.343 7.808-2.867 3.227-5.699 7.335-8.496 12.324zm-24.041-13.48c2.69-4.796 6.174-8.77 10.452-11.92 4.278-3.15 8.938-5.372 13.982-6.664 5.041-1.292 10.288-1.61 15.736-.95 5.448.658 10.687 2.396 15.717 5.216 5.029 2.82 9.246 6.382 12.65 10.686 3.403 4.304 5.869 8.946 7.399 13.922 1.527 4.976 2.065 10.111 1.609 15.404-.456 5.294-2.028 10.339-4.718 15.137-2.69 4.796-6.174 8.771-10.452 11.921-4.278 3.15-8.94 5.372-13.982 6.664-5.044 1.292-10.288 1.609-15.736.951-5.448-.659-10.687-2.398-15.717-5.218-5.029-2.819-9.246-6.382-12.649-10.686-3.404-4.304-5.872-8.945-7.399-13.922-1.53-4.975-2.065-10.11-1.61-15.404.456-5.294 2.029-10.339 4.718-15.137zM610.855 165.882l2.842 2.701.961.914c.362.344.819.729 1.372 1.152.551.423 1.17.861 1.857 1.309.686.45 1.385.913 2.1 1.39.764.423 1.595.833 2.491 1.228.896.397 1.832.807 2.81 1.23 1.893.686 4.091 1.106 6.597 1.261.692.05 1.423.063 2.193.036a78.26 78.26 0 002.345-.124 30.837 30.837 0 002.568-.443c.866-.186 1.717-.44 2.552-.76 1.667-.64 3.432-1.493 5.294-2.557 1.698-1.117 3.355-2.525 4.973-4.228a20.984 20.984 0 01-3.666.007 24.708 24.708 0 01-3.454-.551 24.54 24.54 0 01-3.154-.949c-.976-.37-1.896-.714-2.76-1.03a18.279 18.279 0 01-2.404-1.07 40.964 40.964 0 01-2.009-1.151 16.563 16.563 0 01-1.61-1.151 12.231 12.231 0 00-1.117-.833c3.436.737 6.291 1.022 8.569.859a162.83 162.83 0 012.891-.363 20.497 20.497 0 001.465-.202c3.524-.696 6.725-2.054 9.602-4.076 2.824-1.968 5.147-3.911 6.966-5.824 2.071-2.179 3.967-4.676 5.689-7.493 1.721-2.814 2.564-6.213 2.528-10.192a52.819 52.819 0 00-.224-2.944 14.632 14.632 0 00-.528-2.626 14.7 14.7 0 00-1.82-4.614c-.763-1.431-1.622-2.703-2.578-3.816a59.122 59.122 0 00-1.474-1.629 37.17 37.17 0 00-1.384-1.39l-2.591-2.463-47.892 50.392zm48.044-55.406l9.697 9.215c3.622 3.442 6.491 7.231 8.607 11.366 2.16 3.976 3.494 7.874 4 11.693.208 1.009.313 2.07.316 3.184 0 1.114-.021 2.308-.064 3.582-.1 1.22-.277 2.494-.529 3.821a31.417 31.417 0 01-1.076 4.062c-.827 2.654-2.146 5.548-3.957 8.683-1.667 2.868-4.014 5.898-7.045 9.087a42.235 42.235 0 01-2.205 2.152 50.507 50.507 0 01-2.449 2.075c-.87.69-1.781 1.342-2.733 1.955a47.478 47.478 0 01-3.06 1.797c-2.023 1.011-4.424 1.864-7.206 2.559-2.574.588-5.43.86-8.567.812a36.08 36.08 0 01-9.23-1.336 41.343 41.343 0 01-8.208-3.248 55.386 55.386 0 01-3.653-2.183 50.812 50.812 0 01-3.51-2.501 87.58 87.58 0 01-3.32-2.7 77.429 77.429 0 01-3.085-2.78l-26.164-24.866 39.026-41.063 34.415 4.634zM730.778 187.675l-28.492 18.735c.686.377 1.311.794 1.875 1.251.625.417 1.255 1.108 1.889 2.071.928 1.412 1.587 2.682 1.976 3.806.278-.643.554-1.26.823-1.851.269-.592.555-1.124.857-1.599a25.083 25.083 0 012.061-2.873 53.15 53.15 0 012.066-2.464c.627-.78 1.523-1.553 2.688-2.319 4.534-2.981 8.975-3.969 13.323-2.963 2.586.598 4.656 1.676 6.207 3.233a22.764 22.764 0 013.875 4.491 26.853 26.853 0 012.904 5.819c.734 2.185.811 4.435.227 6.752a16.123 16.123 0 01-1.88 4.549c-1.011 1.399-2.342 2.643-3.997 3.731-2.022 1.33-4.23 2.045-6.62 2.146-.434.008-.908.02-1.423.038a5.995 5.995 0 01-1.549-.155 16.122 16.122 0 00-1.567-.28 15.86 15.86 0 01-1.567-.281 76.78 76.78 0 011.494-.431c.482-.134.929-.289 1.339-.466.47-.218.905-.457 1.304-.719.398-.262.812-.533 1.241-.817 1.838-1.208 3.203-2.336 4.095-3.382.749-.862 1.284-1.582 1.607-2.161.4-.724.755-1.786 1.065-3.184.186-1.32-.005-2.943-.569-4.871-.596 1.496-1.303 2.558-2.118 3.187-.449.386-.815.695-1.1.93a9.999 9.999 0 01-.795.592c-.552.363-1.393.685-2.523.968.289-1.294.344-2.481.163-3.556-.225-1.143-.716-2.29-1.476-3.447-.846-1.285-1.705-2.191-2.579-2.72a5.975 5.975 0 00-2.307-1.106c-.932-.216-2.006-.247-3.22-.091-1.441.21-2.988.861-4.642 1.949-1.287.846-2.518 1.977-3.693 3.394-1.401 1.473-2.453 3.545-3.154 6.214l-.577-1.276a28.836 28.836 0 00-.576-1.278 130.28 130.28 0 00-.767-1.566 30.608 30.608 0 00-1.034-1.873 55.62 55.62 0 00-1.316-2.102c-.93-1.414-1.79-2.321-2.579-2.72-.773-.506-1.416-.819-1.933-.938.023.168.038.527.047 1.073.008.547.108 1.034.301 1.458.022.169.119.381.288.639.169.256.327.566.479.928.149.361.309.67.478.928l.38.578 9.504 14.453-13.051 8.582-2.987 1.964a59.3 59.3 0 00-3.016 2.121c-2.104 1.473-3.844 3.032-5.22 4.675-1.36 1.536-2.293 3.254-2.8 5.152-.427 1.752.078 3.722 1.514 5.906.591.899 1.42 1.826 2.487 2.781.46.433.919.797 1.378 1.095.458.296.907.577 1.344.842-1.786.622-3.508.74-5.162.357-1.553-.358-3.102-1.044-4.642-2.053a14.75 14.75 0 01-2.003-1.444 27.26 27.26 0 01-1.727-1.625c-1.07-1.228-1.923-2.324-2.556-3.288-1.141-1.734-2.069-3.746-2.784-6.036-.674-2.226-.888-4.753-.642-7.583.348-2.806 1.367-5.729 3.053-8.77 1.644-3.106 4.329-6.296 8.054-9.575l2.504-2.198-.57-.867-21.691 14.263-17.74-26.98 47.242-31.063 38.512 13.32z" fill="#000"/><path fill-rule="evenodd" clip-rule="evenodd" d="M696.488 298.633l33.909-35.166 40.817 2.725-62.176 64.804-12.55-32.363zm9.145-11.71c-2.574-1.97-5.734-3.425-9.479-4.363.352-.715.739-1.443 1.16-2.182.42-.741.792-1.503 1.118-2.289.323-.786.634-1.606.932-2.464.296-.857.578-1.751.849-2.679a28.837 28.837 0 004.577 2.677c.769.362 1.559.673 2.369.937.81.262 1.62.526 2.43.79-.49.765-.944 1.519-1.365 2.261a19.927 19.927 0 00-1.118 2.289 20.217 20.217 0 00-.829 2.423 51.77 51.77 0 00-.644 2.6zm23.181-23.584c-.931.442-1.86.886-2.788 1.328l-2.788 1.329c-.931.443-1.891.857-2.882 1.241l-3.128 1.213-1.282.497c-.512.2-1.16.408-1.939.628-1.629.466-3.456.927-5.48 1.384a22.865 22.865 0 01-3.297.474 883.57 883.57 0 01-3.729.271c-2.454-.038-5.019-.363-7.693-.974-2.54-.665-5.122-1.848-7.748-3.551-2.531-1.658-4.824-4.025-6.883-7.102l49.637 3.262z" fill="#000"/></svg>