<svg width="599" height="178" fill="none" xmlns="http://www.w3.org/2000/svg"><path fill-rule="evenodd" clip-rule="evenodd" d="M38.107 21.793l3.147-2.412a18.135 18.135 0 00-3.177-6.494c-1.575-2.055-3.426-3.685-5.55-4.89a18.97 18.97 0 00-6.728-2.312 18.578 18.578 0 00-7.063.347 17.177 17.177 0 00-6.462 3.109c-1.961 1.503-3.521 3.313-4.68 5.433a17.781 17.781 0 00-2.12 6.691c-.253 2.34-.075 4.693.537 7.057.61 2.366 1.705 4.575 3.28 6.63 2.045 2.668 4.575 4.651 7.589 5.946l-1.54 5.044a27.852 27.852 0 01-5.427-3.18c-1.722-1.285-3.287-2.847-4.697-4.686C3.17 35.407 1.73 32.533.898 29.451.064 26.37-.19 23.315.138 20.288a23.378 23.378 0 012.685-8.626c1.46-2.723 3.464-5.059 6.01-7.011 2.545-1.95 5.33-3.285 8.357-4.002 3.026-.716 6.043-.84 9.052-.37 3.008.47 5.9 1.5 8.678 3.093 2.776 1.592 5.187 3.722 7.233 6.391 1.409 1.839 2.518 3.75 3.329 5.733a26.116 26.116 0 011.678 6.141l-5.778 4.428-3.275-4.272zM21.147 48.411l3.493 3.823L53.048 26.28l-3.033-3.32 3.791-3.464 6.848 7.496-32.199 29.42 2.896 3.17-3.79 3.462-10.205-11.168 3.791-3.464zM43.8 62.266c-1.448 1.553-2.126 3.365-2.03 5.438.092 2.074 1.008 3.919 2.743 5.537 1.735 1.618 3.64 2.402 5.714 2.35 2.073-.05 3.835-.85 5.284-2.403 1.477-1.584 2.154-3.398 2.031-5.44-.125-2.04-1.054-3.87-2.788-5.488-1.735-1.617-3.626-2.417-5.67-2.398-2.045.018-3.806.82-5.284 2.404zm-4.18-3.811a11.72 11.72 0 014.097-2.844c1.58-.66 3.216-1 4.911-1.02 1.695-.018 3.393.292 5.095.93 1.702.64 3.251 1.61 4.647 2.912.897.837 1.608 1.738 2.137 2.704.527.967.932 1.863 1.217 2.69.284.83.46 1.54.525 2.136.066.594.055.94-.033 1.035a8.786 8.786 0 011.12-1.001 9.071 9.071 0 001.163-1.047l3.438 3.207-13.122 14.07 3.787 3.532-3.502 3.755-7.425-6.925.886-.95.887-.951c-.122.064-.45.084-.986.058-.536-.025-1.204-.16-2.002-.401-.8-.241-1.678-.616-2.634-1.123s-1.916-1.21-2.879-2.107c-1.396-1.302-2.479-2.772-3.25-4.41-.772-1.636-1.206-3.301-1.305-4.994a13.085 13.085 0 01.653-4.946 11.652 11.652 0 012.574-4.31zM69.166 90.576l-1.567 1.993c.298.511.635.954 1.01 1.332.375.377.868.807 1.483 1.29.035.028.177.126.425.293.247.168.563.306.945.413.383.11.785.136 1.207.081.422-.053.838-.304 1.25-.753.518-.586.706-1.194.566-1.829-.14-.633-.438-1.309-.893-2.026a55.019 55.019 0 00-1.552-2.296 11.852 11.852 0 01-1.406-2.595c-.357-.913-.469-1.898-.337-2.953.13-1.054.665-2.177 1.603-3.369.83-1.056 1.742-1.773 2.733-2.15a7.395 7.395 0 012.993-.5 8.265 8.265 0 012.872.647c.911.386 1.669.817 2.277 1.294.356.28.767.66 1.232 1.135.463.475.896 1.01 1.298 1.6.402.592.754 1.228 1.058 1.908.302.68.49 1.378.562 2.095l-3.497 4.445-3.963-3.118 1.728-2.197a6.946 6.946 0 00-1.428-1.537c-.798-.627-1.504-.92-2.12-.882-.617.04-1.104.36-1.46.961-.25.465-.241 1.01.025 1.632.266.623.618 1.301 1.06 2.033.441.734.901 1.535 1.379 2.407.476.873.84 1.78 1.09 2.72.249.94.296 1.914.142 2.923-.154 1.01-.646 2.042-1.476 3.098-.376.477-.93.978-1.661 1.505-.733.527-1.604.918-2.612 1.171-1.009.253-2.135.251-3.375-.008-1.24-.26-2.576-.951-4.003-2.075a18.734 18.734 0 01-3.421-3.476c-.96-1.278-1.502-2.573-1.626-3.885l3.496-4.444 3.963 3.117zM87.218 104.121l-1.439 2.087c.329.491.693.913 1.091 1.266s.917.751 1.56 1.195c.037.025.185.115.443.266.258.152.581.27.97.353.388.084.792.086 1.209.006.418-.08.817-.358 1.201-.831.479-.616.63-1.236.45-1.861-.18-.624-.519-1.279-1.018-1.965a54.001 54.001 0 00-1.693-2.195 11.884 11.884 0 01-1.565-2.502c-.413-.889-.587-1.865-.522-2.925.065-1.062.528-2.215 1.39-3.464.762-1.105 1.627-1.878 2.592-2.318a7.386 7.386 0 012.956-.685 8.275 8.275 0 012.908.466c.933.328 1.716.711 2.353 1.15.373.257.807.61 1.3 1.055.492.445.958.951 1.396 1.515.438.567.829 1.178 1.175 1.837a6.76 6.76 0 01.692 2.058l-3.211 4.654-4.151-2.863 1.587-2.3a6.895 6.895 0 00-1.521-1.445c-.836-.576-1.559-.825-2.171-.748-.613.078-1.079.427-1.397 1.05-.22.48-.178 1.022.126 1.627.305.605.699 1.26 1.186 1.963.486.704.995 1.476 1.527 2.317.53.84.95 1.721 1.257 2.644.308.923.416 1.894.326 2.909-.091 1.017-.517 2.08-1.28 3.185-.345.5-.866 1.034-1.563 1.605-.699.573-1.543 1.017-2.534 1.332-.992.317-2.115.385-3.368.204-1.255-.182-2.631-.788-4.126-1.82a18.757 18.757 0 01-3.632-3.256c-1.038-1.215-1.66-2.474-1.866-3.775l3.211-4.654 4.151 2.863zM118.047 93.347c.517-.852 1.254-1.367 2.213-1.546.958-.18 1.826-.033 2.603.439.738.447 1.249 1.136 1.534 2.07.284.932.168 1.825-.349 2.677-.517.853-1.249 1.359-2.196 1.519-.948.16-1.79.016-2.528-.431-.777-.471-1.314-1.164-1.609-2.08-.296-.912-.185-1.794.332-2.648zM99.629 115.7l4.078 2.474 7.314-12.06-4.078-2.474 2.663-4.391 8.914 5.407-9.977 16.451 4.021 2.438-2.663 4.391-12.935-7.845 2.663-4.391zM135.14 138.902a14.786 14.786 0 01-4.421.009c-1.499-.219-2.975-.705-4.425-1.46-1.693-.88-3.12-2.001-4.281-3.362-1.162-1.361-2.016-2.843-2.564-4.448a13.066 13.066 0 01-.695-4.94c.084-1.69.537-3.322 1.357-4.899a11.865 11.865 0 013.217-3.895 12.598 12.598 0 014.444-2.268c1.618-.452 3.316-.594 5.098-.425 1.781.169 3.518.694 5.211 1.575 1.491.775 2.766 1.719 3.827 2.832a14.742 14.742 0 012.561 3.64l-3.479 6.69-4.474-2.327 2.01-3.864a9.234 9.234 0 00-2.875-2.3c-2.095-1.091-4.124-1.352-6.083-.784-1.96.569-3.439 1.814-4.439 3.736-.98 1.884-1.15 3.81-.51 5.779.639 1.97 2.008 3.499 4.104 4.589 1.773.923 3.534 1.228 5.284.917l1.133 5.205zM167.934 142.084a7.052 7.052 0 00-.394 2.963c.083.994.344 1.925.786 2.792a8.027 8.027 0 004.514 3.899 7.992 7.992 0 003.087.468 8.297 8.297 0 002.907-.664 7.229 7.229 0 002.395-1.671 7.066 7.066 0 001.551-2.555 7.05 7.05 0 00.394-2.962 7.605 7.605 0 00-.807-2.834 8.023 8.023 0 00-1.838-2.372 8.043 8.043 0 00-2.698-1.571 8.043 8.043 0 00-3.086-.467 7.639 7.639 0 00-2.886.705 7.864 7.864 0 00-2.374 1.714 7.074 7.074 0 00-1.551 2.555zm-5.313-1.941a11.86 11.86 0 012.638-4.308 12.638 12.638 0 014.082-2.869c1.539-.675 3.201-1.054 4.989-1.137 1.787-.082 3.58.194 5.38.828 1.799.634 3.38 1.548 4.742 2.74 1.361 1.193 2.43 2.534 3.206 4.024a12.625 12.625 0 011.381 4.795 11.881 11.881 0 01-.646 5.01c-.591 1.676-1.474 3.122-2.649 4.338a13.125 13.125 0 01-4.082 2.87c-1.546.695-3.223 1.081-5.031 1.155-1.809.074-3.613-.205-5.412-.839-1.8-.635-3.37-1.544-4.711-2.728-1.341-1.185-2.394-2.533-3.162-4.044a13.087 13.087 0 01-1.381-4.794c-.154-1.685.065-3.365.656-5.041zM191.036 157.233l4.998 1.358 10.091-37.132-4.34-1.18 1.346-4.955 9.799 2.662-11.438 42.089 4.142 1.126-1.346 4.955-14.599-3.968 1.347-4.955zM217.613 156.801c-.389 2.087.012 3.98 1.204 5.679 1.191 1.699 2.953 2.765 5.286 3.2 2.332.435 4.359.075 6.083-1.08 1.723-1.155 2.78-2.777 3.169-4.864.397-2.13-.004-4.023-1.203-5.68-1.2-1.655-2.966-2.701-5.298-3.136-2.332-.435-4.357-.096-6.072 1.017-1.716 1.113-2.772 2.734-3.169 4.864zm14.411 13.794l.238-1.277c-.068.119-.335.312-.801.578-.465.266-1.1.511-1.904.735-.805.226-1.747.38-2.825.466-1.08.085-2.266.007-3.561-.234-1.876-.35-3.579-1.009-5.108-1.978-1.529-.968-2.789-2.14-3.781-3.515a12.984 12.984 0 01-2.096-4.556 11.856 11.856 0 01-.133-5.05 11.642 11.642 0 011.938-4.631 13.097 13.097 0 013.591-3.463c1.42-.925 3.018-1.563 4.794-1.916 1.775-.352 3.601-.353 5.477-.004 1.115.208 2.149.556 3.098 1.04.949.487 1.767.991 2.456 1.516.687.525 1.23 1.023 1.627 1.494.398.471.629.778.695.923a7.806 7.806 0 00-.15-1.053 7.501 7.501 0 01-.151-1.053l3.681-19.745-4.421-.824.941-5.048 9.981 1.861-7.993 42.877 5.091.948-.941 5.049-9.981-1.862.238-1.278zM249.704 164.839l.541-5.237 12.472 1.289-.541 5.237-12.472-1.289zM274.394 168.7l-.111 2.533c.54.241 1.072.405 1.597.492.525.089 1.177.15 1.958.184.044.002.217 0 .516-.01.299-.008.635-.08 1.009-.216a2.97 2.97 0 001.028-.637c.311-.29.502-.737.575-1.342.079-.777-.123-1.382-.606-1.816-.485-.432-1.12-.807-1.908-1.125a54.873 54.873 0 00-2.6-.959 11.857 11.857 0 01-2.655-1.288c-.823-.534-1.488-1.268-1.996-2.202-.509-.933-.73-2.156-.663-3.673.059-1.34.38-2.455.965-3.34a7.377 7.377 0 012.141-2.151 8.286 8.286 0 012.71-1.15c.965-.218 1.832-.31 2.604-.276.453.02 1.008.088 1.662.203.654.116 1.317.296 1.989.543.671.247 1.328.557 1.971.932a6.782 6.782 0 011.679 1.375l-.248 5.65-5.037-.221.122-2.793a6.926 6.926 0 00-2.057-.415c-1.014-.045-1.759.129-2.236.519-.478.392-.687.936-.626 1.632.069.524.393.961.972 1.312.579.35 1.261.695 2.048 1.033.785.338 1.627.722 2.523 1.151.896.43 1.72.954 2.471 1.573a7.102 7.102 0 011.821 2.292c.463.91.666 2.036.608 3.377-.027.607-.185 1.337-.472 2.192-.288.855-.767 1.68-1.438 2.474-.672.794-1.588 1.449-2.746 1.961-1.16.513-2.648.73-4.463.651a18.755 18.755 0 01-4.806-.829c-1.525-.479-2.721-1.214-3.586-2.207l.247-5.65 5.038.221zM313.412 174.402a14.775 14.775 0 01-3.868 2.141c-1.419.532-2.945.818-4.58.858-1.908.046-3.699-.248-5.372-.879-1.675-.631-3.138-1.517-4.392-2.657a13.086 13.086 0 01-2.993-3.992c-.742-1.521-1.133-3.169-1.176-4.946-.042-1.732.27-3.387.937-4.963a12.595 12.595 0 012.798-4.132c1.198-1.177 2.618-2.121 4.26-2.833 1.641-.711 3.416-1.09 5.324-1.136 1.679-.04 3.252.172 4.718.635a14.707 14.707 0 014 1.951l.182 7.538-5.041.121-.105-4.353a9.22 9.22 0 00-3.628-.628c-2.362.056-4.264.807-5.705 2.25-1.443 1.444-2.138 3.249-2.086 5.414.051 2.123.832 3.892 2.343 5.308 1.51 1.416 3.447 2.095 5.809 2.038 1.998-.048 3.688-.63 5.07-1.747l3.505 4.012zM338.575 169.073l5.211-.614-1.186-10.05c-.229-1.156-.787-2.109-1.676-2.859-.889-.75-2.196-1.068-3.92-.953a9.723 9.723 0 00-3.281.98 9.218 9.218 0 00-2.617 1.952 8.232 8.232 0 00-1.672 2.696 6.655 6.655 0 00-.377 3.2l.788 6.678 4.263-.503.602 5.1-15.023 1.773-.602-5.099 5.143-.608-4.51-38.214-5.143.607-.602-5.1 10.76-1.27 3.246 27.5.139 2.929c.743-2.226 1.996-4.021 3.756-5.385 1.761-1.364 3.919-2.263 6.475-2.696 2.662-.314 4.839.107 6.53 1.259 1.691 1.154 2.709 2.8 3.053 4.941l1.471 12.459 4.195-.495.602 5.099-15.023 1.773-.602-5.1zM363.32 158.052a7.054 7.054 0 001.236 2.722 7.451 7.451 0 002.146 1.951c.834.503 1.759.84 2.774 1.013a8.035 8.035 0 003.121-.098 8.038 8.038 0 002.865-1.238 8.308 8.308 0 002.114-2.104 7.25 7.25 0 001.146-2.687 7.047 7.047 0 00-.039-2.989 7.06 7.06 0 00-1.236-2.72 7.63 7.63 0 00-2.187-1.977 8.007 8.007 0 00-5.935-.939 8.04 8.04 0 00-2.865 1.239 7.625 7.625 0 00-2.073 2.128 7.87 7.87 0 00-1.106 2.711 7.043 7.043 0 00.039 2.988zm-5.534 1.169a11.853 11.853 0 01-.046-5.051 12.612 12.612 0 011.942-4.597c.947-1.386 2.156-2.588 3.628-3.606 1.472-1.017 3.139-1.733 5.001-2.149 1.863-.415 3.687-.479 5.474-.19 1.786.29 3.404.861 4.851 1.714a12.666 12.666 0 013.712 3.334 11.893 11.893 0 012.107 4.592c.387 1.734.404 3.429.052 5.083a13.107 13.107 0 01-1.941 4.596c-.942 1.409-2.161 2.625-3.654 3.646-1.495 1.022-3.173 1.74-5.035 2.156-1.862.416-3.676.476-5.44.182-1.765-.293-3.373-.878-4.825-1.753a13.086 13.086 0 01-3.712-3.334c-1.023-1.347-1.727-2.888-2.114-4.623zM394.62 150.303c.319.99.812 1.855 1.479 2.597a7.47 7.47 0 002.316 1.747 7.859 7.859 0 002.856.754 8.025 8.025 0 003.098-.382 8.018 8.018 0 002.74-1.496 8.303 8.303 0 001.913-2.288 7.256 7.256 0 00.895-2.781 7.066 7.066 0 00-.312-2.971 7.04 7.04 0 00-1.48-2.597 7.6 7.6 0 00-2.358-1.768 8.009 8.009 0 00-5.996-.393 8.035 8.035 0 00-2.74 1.496 7.617 7.617 0 00-1.87 2.309 7.883 7.883 0 00-.853 2.8 7.073 7.073 0 00.312 2.973zm-5.404 1.67a11.86 11.86 0 01-.507-5.026 12.595 12.595 0 011.513-4.754c.816-1.468 1.909-2.777 3.283-3.924 1.372-1.147 2.967-2.013 4.784-2.598 1.816-.584 3.627-.813 5.433-.689 1.805.126 3.468.547 4.988 1.263a12.627 12.627 0 014.001 2.981 11.884 11.884 0 012.518 4.379c.544 1.692.716 3.378.517 5.057a13.113 13.113 0 01-1.513 4.754c-.809 1.49-1.912 2.812-3.306 3.966-1.395 1.153-2.999 2.023-4.816 2.608-1.816.584-3.617.81-5.401.678-1.784-.131-3.439-.566-4.965-1.304a13.106 13.106 0 01-4.001-2.981c-1.142-1.248-1.984-2.718-2.528-4.41zM422.155 148.387l4.801-1.943-14.438-35.669-4.169 1.687-1.927-4.76 9.411-3.809 16.365 40.429 3.979-1.612 1.927 4.76-14.022 5.677-1.927-4.76zM450.112 115.293l13.084-7.595 2.577 4.442-3.094 1.796a188.9 188.9 0 015.818 3.236c1.901 1.102 3.604 2.318 5.111 3.647a33.261 33.261 0 01-.661-6.229c-.034-2.185-.019-4.398.046-6.641l-3.507 2.035-2.577-4.44 13.496-7.834 2.577 4.441-4.921 2.857c.072 4.016.114 8.001.123 11.953.01 3.953.039 7.919.09 11.897a1589.484 1589.484 0 01-10.331-5.99 1665.942 1665.942 0 00-10.332-5.99l-4.921 2.856-2.578-4.441zM495.214 102.049a7.044 7.044 0 002.215 2.007c.865.496 1.78.81 2.744.939a7.861 7.861 0 002.949-.172 8.016 8.016 0 002.825-1.328 8.025 8.025 0 002.138-2.275 8.308 8.308 0 001.105-2.77 7.24 7.24 0 00-.015-2.921 7.063 7.063 0 00-1.222-2.727 7.068 7.068 0 00-2.215-2.007 7.616 7.616 0 00-2.791-.945 8.016 8.016 0 00-5.82 1.494 8.02 8.02 0 00-2.138 2.274 7.63 7.63 0 00-1.059 2.777 7.856 7.856 0 00.062 2.927 7.05 7.05 0 001.222 2.727zm-4.615 3.271a11.872 11.872 0 01-2.047-4.619 12.607 12.607 0 01-.043-4.99c.318-1.648.95-3.231 1.898-4.75.947-1.517 2.193-2.837 3.737-3.958s3.193-1.902 4.948-2.347c1.755-.443 3.466-.561 5.133-.353 1.668.21 3.244.738 4.731 1.587a11.855 11.855 0 013.756 3.377c1.044 1.438 1.733 2.987 2.067 4.644.333 1.659.348 3.323.042 4.99-.305 1.667-.941 3.267-1.906 4.797-.966 1.531-2.221 2.857-3.765 3.978s-3.185 1.896-4.921 2.327c-1.736.431-3.444.532-5.124.306a13.075 13.075 0 01-4.73-1.586c-1.474-.83-2.732-1.965-3.776-3.403zM520.945 82.458c1.41 1.59 3.15 2.434 5.223 2.535 2.073.103 3.996-.636 5.77-2.21 1.775-1.575 2.735-3.396 2.88-5.467.145-2.069-.487-3.899-1.896-5.487-1.438-1.62-3.18-2.465-5.223-2.534-2.044-.068-3.953.684-5.727 2.258-1.775 1.575-2.749 3.382-2.923 5.42-.174 2.037.458 3.865 1.896 5.485zm19.735-2.914l-.863-.973c.052.128.041.457-.035.988-.075.531-.271 1.182-.587 1.955-.316.773-.772 1.612-1.366 2.516-.596.905-1.385 1.794-2.37 2.668-1.427 1.267-2.993 2.207-4.695 2.82-1.704.614-3.402.89-5.096.83a12.977 12.977 0 01-4.884-1.142 11.84 11.84 0 01-4.069-2.993 11.645 11.645 0 01-2.468-4.372 13.1 13.1 0 01-.53-4.96c.14-1.69.617-3.343 1.428-4.962.811-1.617 1.93-3.06 3.357-4.326a11.339 11.339 0 012.723-1.809c.966-.45 1.867-.787 2.704-1.009.836-.22 1.562-.343 2.178-.369.616-.024 1-.018 1.155.02a7.793 7.793 0 00-.924-.529 7.649 7.649 0 01-.924-.527l-13.332-15.022-3.363 2.985-3.409-3.84 7.594-6.74 28.951 32.62 3.873-3.437 3.409 3.84-7.594 6.74-.863-.972zM561.658 52.938l.506-.553a272.798 272.798 0 01-3.322-.27 142.265 142.265 0 01-3.276-.32l-.05 4.481 1.678 1.537 2.899-3.166 3.787 3.468-10.218 11.157-3.786-3.47 3.498-3.818-28.377-25.99-3.038 3.316-3.787-3.468 6.858-7.486 25.836 23.663.114-8.305-1.703 1.86-3.786-3.47 9.251-10.1 3.786 3.468-2.853 3.115a83.055 83.055 0 00-.014 3.961 83.04 83.04 0 01-.014 3.962c1.824.192 3.646.367 5.468.526 1.823.16 3.66.319 5.514.475l4.28-4.674 3.787 3.47-9.251 10.1-3.787-3.468zM572.338 29.585c1.706 1.265 3.583 1.734 5.632 1.407 2.05-.325 3.781-1.442 5.193-3.348 1.413-1.906 1.979-3.885 1.696-5.942-.284-2.055-1.278-3.716-2.983-4.98-1.741-1.291-3.619-1.759-5.633-1.408-2.014.353-3.728 1.482-5.141 3.387-1.413 1.905-1.995 3.874-1.747 5.904s1.243 3.69 2.983 4.98zm-3.317 4.582a11.734 11.734 0 01-3.287-3.752 12.99 12.99 0 01-1.564-4.766c-.209-1.681-.092-3.404.352-5.168.445-1.761 1.235-3.411 2.371-4.943.731-.985 1.546-1.794 2.447-2.428.901-.631 1.747-1.135 2.537-1.511.791-.374 1.478-.629 2.062-.762.584-.132.928-.16 1.033-.083a8.49 8.49 0 01-1.12-1 9.05 9.05 0 00-1.172-1.038l2.8-3.777 15.455 11.458 3.085-4.16 4.125 3.059-6.047 8.156-1.045-.774-1.044-.775c.077.115.134.439.169.974.035.535-.023 1.214-.174 2.034-.15.822-.424 1.736-.82 2.743-.397 1.008-.986 2.04-1.771 3.098-1.136 1.533-2.476 2.775-4.015 3.725-1.541.951-3.147 1.569-4.817 1.858a13.08 13.08 0 01-4.988-.094 11.642 11.642 0 01-4.572-2.074z" fill="#000"/></svg>