<svg width="687" height="248" fill="none" xmlns="http://www.w3.org/2000/svg"><path d="M5.8 17.2L7.1 20l32-14.7-1.3-2.8L42.5.4l6 13c.6 1.4 1.2 3.1 1.5 5 .4 1.9.4 3.8.2 5.7-.2 1.9-.8 3.7-1.8 5.3-1 1.6-2.4 2.9-4.5 3.8-3.6 1.6-6.9 1.8-10.1.6-3.1-1.3-5.7-4-7.6-8.2l-3.1-6.8-13.8 6.3 3.2 7.1-4.7 2.1-6.9-15 4.9-2.1zm22.2-.5l2.5 5.4c.8 1.8 1.7 3.2 2.7 4.2 1 1 2 1.7 3 2 1 .4 2 .5 2.9.5 1-.1 1.8-.3 2.6-.6.9-.4 1.6-1 2.1-1.8.6-.8 1-1.8 1.2-2.9.2-1.1.3-2.3.1-3.6-.2-1.3-.5-2.6-1.1-3.9l-2.5-5.5L28 16.7zM27.3 46.4c1.5-.9 3.1-1.4 4.8-1.6 1.7-.2 3.4 0 5 .5s3.1 1.3 4.5 2.4c1.4 1.1 2.6 2.5 3.6 4.1 1 1.6 1.6 3.4 1.8 5.2.3 1.8.2 3.5-.2 5.1-.4 1.6-1.1 3.2-2.1 4.5-1 1.4-2.2 2.5-3.7 3.4-1.5.9-3.1 1.4-4.8 1.6-1.7.2-3.3 0-5-.5-1.6-.5-3.2-1.3-4.6-2.4-1.4-1.1-2.6-2.5-3.6-4.2-1-1.7-1.6-3.4-1.8-5.1-.3-1.8-.2-3.5.2-5.1.4-1.6 1.1-3.2 2.1-4.5 1-1.4 2.3-2.5 3.8-3.4zm2.8 4.9c-.9.5-1.6 1.2-2.2 2-.6.8-1 1.7-1.2 2.6-.2.9-.3 1.9-.1 3 .1 1 .5 2 1 2.9.5.9 1.2 1.7 2 2.4.8.6 1.7 1.1 2.6 1.4.9.3 1.9.4 2.9.3 1-.1 1.9-.4 2.8-.9.9-.5 1.6-1.2 2.2-2 .6-.8 1-1.7 1.2-2.7.2-1 .3-2 .1-3-.1-1-.5-2-1-2.9-.5-.9-1.2-1.7-2-2.4s-1.7-1.1-2.7-1.3c-1-.3-1.9-.3-2.9-.2-1 .1-1.8.3-2.7.8zM61.9 110.6l3.2 4.1 8-6.2c.9-.8 1.4-1.8 1.6-2.9.2-1.1-.2-2.4-1.2-3.9-.7-.9-1.6-1.7-2.5-2.3-1-.6-2-1-3-1.2-1.1-.2-2.1-.2-3.2 0s-2 .6-2.9 1.3l-5.3 4.1 2.6 3.4-4.1 3.1-9.2-12L50 95l3.2 4.1 8-6.2c.9-.8 1.4-1.8 1.6-2.9.2-1.1-.2-2.4-1.2-3.9-.7-.9-1.6-1.7-2.5-2.3-1-.6-2-1-3-1.2-1.1-.2-2.1-.2-3.2 0s-2 .6-2.9 1.3L44.7 88l2.6 3.4-4.1 3.1-9.2-12 4.1-3.1 3.2 4.1 11.2-8.6-2.7-3.6 4.1-3.1 5.8 7.5-.5.4c-.8.7-1.5 1.3-2.1 1.9-.6.6-1.3 1.2-2.1 1.9 2.2-.5 4.4-.4 6.5.4 2.1.8 4 2.2 5.7 4.2 1.5 2 2.3 3.9 2.3 5.9 0 1.9-.7 3.6-2.1 5 2.2-.4 4.3-.2 6.4.6 2.1.8 3.9 2.2 5.5 4.1 1.6 2.1 2.4 4.2 2.3 6.2-.1 2-1 3.8-2.7 5.2l-9.9 7.7 2.6 3.4-4.1 3.1-9.2-12 3.6-3.1zM100.5 138.6c-3-1.4-5.9-2.8-8.8-4.2-2.9-1.4-5.9-2.8-8.8-4.2-.2 1.1 0 2.3.4 3.4.4 1.2 1.1 2.3 2.1 3.3 1.5 1.5 3.2 2.2 5.1 2.2l-.3 5.2c-1.6 0-3.1-.4-4.5-1s-2.8-1.5-4-2.7c-1.3-1.4-2.4-2.8-3.1-4.5-.7-1.6-1.1-3.3-1.1-5 0-1.7.2-3.3.8-4.9.6-1.6 1.5-3 2.8-4.3 1.2-1.2 2.6-2.1 4.2-2.7 1.6-.6 3.2-.9 4.9-.8 1.7.1 3.3.4 5 1.1 1.6.7 3.1 1.7 4.5 3.1 1 1 1.8 2.1 2.3 3.4.5 1.3.8 2.6.9 4 0 1.4-.1 2.8-.5 4.3-.5 1.5-1.1 2.9-1.9 4.3zM96 126.2c-1.6-1.6-3.4-2.5-5.4-2.6-2-.1-3.7.5-5.2 1.9 2 1 4.1 2 6.1 2.9 2 1 4.1 1.9 6.1 2.9.1-1 0-1.9-.3-2.8-.2-.9-.7-1.6-1.3-2.3zM128.1 148.7l7.6 6.3-3.3 4-4-3.3-14.7 17.8c-1.1 1.3-2.4 2.4-3.9 3.1-1.5.7-3.1 1.1-4.7 1.2-1.6.1-3.3-.2-5-.7-1.7-.5-3.2-1.4-4.7-2.6-1.6-1.3-2.8-2.9-3.8-4.8-.9-1.9-1.6-3.6-2.1-5.2l5.7-1c.3 1.1.7 2.2 1.3 3.4.6 1.2 1.3 2.2 2.4 3.1.9.8 1.9 1.3 2.9 1.6 1 .3 2 .5 3 .4 1-.1 1.9-.3 2.8-.8.9-.5 1.7-1.1 2.4-2l2.8-3.4.6-.3.6-.3c-.2.1-.6.1-1.2.1s-1.2-.2-2-.4-1.6-.5-2.5-1c-.9-.4-1.8-1-2.8-1.8-1.5-1.2-2.6-2.6-3.5-4.2-.9-1.6-1.4-3.2-1.6-4.9-.2-1.7-.1-3.3.3-5 .4-1.7 1.2-3.1 2.3-4.5 1.1-1.3 2.4-2.3 3.9-3.1 1.5-.8 3.1-1.2 4.8-1.3 1.7-.1 3.4.1 5.1.6 1.7.5 3.3 1.4 4.8 2.6.9.8 1.7 1.6 2.3 2.6.6.9 1 1.8 1.4 2.6.3.8.6 1.5.7 2.1.1.6.1.9 0 1 .3-.4.7-.7 1.1-1.1.3-.1.7-.4 1-.8zm-20.8-1.5c-1.3 1.6-1.9 3.5-1.7 5.5.2 2.1 1.2 3.8 3.1 5.4 1.8 1.5 3.8 2.2 5.8 2 2.1-.2 3.8-1.1 5.1-2.7 1.4-1.7 1.9-3.5 1.7-5.5-.3-2-1.3-3.8-3.1-5.3s-3.8-2.2-5.8-2.1c-2 .2-3.7 1.1-5.1 2.7zM128 172.9l4.3 2.9 8-11.6-3.7-2.5 2.9-4.2 7.8 5.4-.3.5c-.5.9-1 1.7-1.4 2.5-.4.7-.9 1.6-1.4 2.5 1.1-.6 2.2-1 3.4-1.2 1.2-.2 2.3-.3 3.4-.3s2.1.2 3 .4c.9.3 1.6.6 2.2 1l-3.3 4.1c-2.3-1.6-4.5-2.2-6.8-1.9-2.2.3-4 1.3-5.3 3.2L137 179l3.5 2.4-2.9 4.2-12.5-8.6 2.9-4.1zM152.8 181.5c.8-1.5 1.9-2.7 3.3-3.7s2.9-1.7 4.5-2.1c1.6-.4 3.4-.5 5.2-.3 1.8.2 3.5.8 5.2 1.7 1.1.6 2 1.3 2.7 2.1.7.8 1.3 1.6 1.8 2.3.5.7.8 1.4 1 2 .2.6.3.9.2 1 .2-.4.5-.8.9-1.2.3-.4.6-.8.9-1.3l4.1 2.3-9.5 16.8 4.5 2.5-2.5 4.5-8.8-5 .6-1.1.6-1.1c-.1.1-.4.2-.9.3-.5.1-1.2.1-2 .1s-1.8-.2-2.8-.5c-1-.3-2.1-.7-3.3-1.4-1.7-.9-3.1-2.1-4.2-3.5s-1.9-2.9-2.4-4.5-.7-3.3-.5-5c.1-1.8.6-3.4 1.4-4.9zm5 2.7c-1 1.8-1.3 3.8-.7 5.8.6 2 1.9 3.6 4 4.7 2.1 1.2 4.1 1.5 6.1.9 2-.5 3.5-1.7 4.6-3.6 1.1-1.9 1.3-3.8.7-5.8-.6-2-1.9-3.5-4-4.7-2.1-1.2-4.1-1.5-6.1-1-2 .7-3.5 1.8-4.6 3.7zM201.1 214.1l4.8 2.1 4-9.3c.4-1.1.4-2.2 0-3.3-.4-1.1-1.4-2-2.9-2.8-1.1-.5-2.2-.7-3.3-.8-1.1-.1-2.2.1-3.2.4-1 .3-2 .8-2.8 1.5-.8.7-1.5 1.6-1.9 2.6l-2.6 6.2 3.9 1.7-2 4.7-13.9-6 2-4.7 4.8 2 5.5-13-4.1-1.8 2-4.7 8.7 3.7-.2.5c-.3 1-.6 1.9-.9 2.7-.3.8-.6 1.7-.9 2.7 1.7-1.6 3.7-2.5 6-2.8 2.3-.3 4.6 0 6.9.9 2.5 1.1 4.1 2.5 5 4.3.9 1.8 1 3.8.2 5.8l-4.9 11.5 3.9 1.7-2 4.7-13.9-6 1.8-4.5zM222.7 215.3c.5-1.6 1.3-3.1 2.4-4.4 1.1-1.3 2.4-2.3 4-3.1 1.5-.8 3.2-1.2 5-1.4 1.8-.2 3.6 0 5.5.6 1.2.4 2.2.9 3.1 1.5.9.6 1.7 1.3 2.3 1.9.6.6 1.1 1.2 1.4 1.7.3.5.5.8.4.9.1-.5.3-.9.6-1.4l.6-1.5 4.5 1.4-5.6 18.4 5 1.5-1.5 4.9-9.7-2.9.4-1.2.4-1.2c-.1.1-.4.3-.9.5s-1.1.4-2 .5c-.8.1-1.8.2-2.9.2-1.1 0-2.3-.2-3.5-.6-1.8-.6-3.4-1.4-4.9-2.5-1.4-1.1-2.5-2.4-3.4-3.9-.9-1.5-1.4-3.1-1.6-4.7-.2-1.9-.1-3.6.4-5.2zm5.4 1.6c-.6 2-.4 4 .6 5.8 1 1.8 2.6 3.1 4.9 3.8 2.3.7 4.3.6 6.2-.4 1.8-1 3.1-2.5 3.7-4.5.6-2.1.4-4-.6-5.8-1-1.8-2.7-3-4.9-3.7-2.3-.7-4.3-.6-6.1.3-1.9.9-3.1 2.4-3.8 4.5zM270 199.3l5.5 1.2-3.3 15.5 6.5 1.4-1.1 5.2-6.5-1.4-2.9 13.7 5 1.1-1.1 5-10.5-2.2 4-18.7-5.6-1.2 1.1-5.2 5.6 1.2 3.3-15.6zM306.5 231.7c-3.2.7-6.4 1.3-9.6 2-3.2.7-6.4 1.3-9.6 2 .6 1 1.3 1.8 2.4 2.5 1 .7 2.2 1.1 3.6 1.3 2.1.3 3.9-.2 5.4-1.4l2.9 4.3c-1.3.9-2.7 1.6-4.2 2-1.5.4-3.1.5-4.8.3-1.9-.3-3.6-.8-5.2-1.7-1.6-.9-2.9-2-3.9-3.3-1.1-1.3-1.8-2.8-2.3-4.4-.5-1.6-.6-3.3-.4-5.1.2-1.7.8-3.3 1.7-4.8.9-1.5 2-2.7 3.4-3.6 1.4-1 2.9-1.7 4.7-2.1 1.7-.4 3.5-.5 5.4-.3 1.4.2 2.7.6 3.9 1.3 1.2.7 2.3 1.6 3.1 2.7.9 1.1 1.6 2.3 2.2 3.7.7 1.5 1.1 3 1.3 4.6zm-11.2-7.1c-2.3-.3-4.3.1-5.9 1.2-1.6 1.1-2.6 2.7-3 4.6 2.2-.4 4.4-.9 6.6-1.4 2.2-.5 4.4-.9 6.6-1.4-.5-.8-1.2-1.5-1.9-2.1-.6-.4-1.4-.8-2.4-.9zM330.7 242l4.2.1.2-14-4.2-.1.1-5.3 4.1.1.1-9.2c0-2.4.5-4.6 1.4-6.4.9-1.8 2-3.4 3.5-4.7 1.5-1.3 3.2-2.2 5.3-2.8 2-.6 4.2-1 6.5-1l-.1 5.1c-3.1.1-5.7 1-7.7 2.7-2 1.7-3.1 4.2-3.1 7.4l-.1 9 8 .1-.1 5.3-8-.1-.2 14 5.4.1-.1 5.1-15.2-.2V242zM353.9 242l5.2-.3-2.1-38.4-4.5.2-.3-5.1 10.1-.6 2.4 43.5 4.3-.2.3 5.1-15.1.8-.3-5zM373.4 234.1c-.2-1.7-.1-3.3.4-5 .5-1.6 1.3-3.1 2.3-4.4 1.1-1.3 2.4-2.4 3.9-3.4 1.6-.9 3.3-1.5 5.2-1.8 1.2-.2 2.4-.1 3.4.1 1.1.2 2 .5 2.9.8.8.3 1.5.6 2 .9.5.3.8.6.8.7-.1-.5-.1-1-.1-1.5s0-1-.1-1.6l4.7-.6 2.6 19.1 5.1-.7.7 5.1-10.1 1.4-.2-1.3-.2-1.3c0 .1-.2.4-.6.8-.4.4-.9.8-1.6 1.3-.7.5-1.5.9-2.5 1.3s-2.1.7-3.5.9c-1.9.3-3.7.2-5.5-.3-1.8-.4-3.3-1.2-4.7-2.1-1.4-1-2.5-2.2-3.4-3.6-.7-1.5-1.2-3.1-1.5-4.8zm5.6-.8c.3 2.1 1.3 3.8 2.9 5 1.7 1.2 3.7 1.7 6 1.4 2.4-.3 4.2-1.3 5.4-2.9 1.3-1.6 1.8-3.5 1.5-5.6-.3-2.1-1.3-3.8-2.9-5-1.7-1.2-3.7-1.6-6-1.3-2.4.3-4.2 1.3-5.4 2.9-1.3 1.4-1.8 3.3-1.5 5.5zM407.9 216.9l14.7-3.7 1.2 5-3.5.9c1.6 1.6 3.2 3.1 4.7 4.7s2.8 3.2 3.9 4.9c.2-2 .5-4.1 1.1-6.2.6-2.1 1.2-4.2 1.9-6.4l-3.9 1-1.2-5 15.1-3.8 1.2 5-5.5 1.4c-1 3.9-2.1 7.7-3.2 11.5s-2.2 7.6-3.2 11.5l-8.3-8.6c-2.7-2.9-5.5-5.7-8.3-8.6l-5.5 1.4-1.2-5zM449.6 218.5c-.6-1.6-.8-3.3-.7-5 .1-1.7.6-3.3 1.3-4.8.7-1.5 1.8-2.8 3.1-4 1.3-1.2 2.9-2.1 4.7-2.8 1.8-.7 3.6-.9 5.4-.9 1.8.1 3.5.4 5 1.1 1.5.7 2.9 1.6 4.1 2.8 1.2 1.2 2.1 2.7 2.7 4.3.6 1.7.8 3.3.7 5-.1 1.7-.6 3.3-1.3 4.8-.8 1.5-1.8 2.9-3.2 4.1-1.4 1.2-2.9 2.1-4.7 2.8-1.8.7-3.6.9-5.4.9-1.8-.1-3.5-.4-5-1.1-1.6-.7-2.9-1.6-4.1-2.8-1.1-1.3-2-2.7-2.6-4.4zm5.3-1.8c.4 1 .9 1.8 1.6 2.5.7.7 1.5 1.3 2.4 1.7.9.4 1.9.6 2.9.6s2.1-.1 3.1-.5 1.9-.9 2.7-1.6c.8-.7 1.4-1.5 1.8-2.4.5-.9.7-1.8.8-2.8.1-1-.1-2-.4-3-.3-1-.9-1.8-1.6-2.5-.7-.7-1.5-1.3-2.4-1.7-.9-.4-1.9-.6-2.9-.7-1 0-2.1.1-3.1.5s-1.9.9-2.7 1.6c-.8.7-1.4 1.5-1.8 2.4-.4.9-.7 1.8-.7 2.8-.2 1.1 0 2.1.3 3.1zM482.6 213.7l4.7-2.2-5.9-12.8-4.1 1.9-2.1-4.7 8.6-3.9.2.5c.5.9 1 1.7 1.4 2.5.4.7.9 1.6 1.4 2.5 0-1.2.3-2.4.7-3.5.4-1.1.9-2.1 1.5-3.1.6-.9 1.2-1.7 1.9-2.3.7-.6 1.3-1.1 1.9-1.4l1.8 5c-2.5 1.2-4.2 2.8-5.1 4.8-.9 2.1-.9 4.1.1 6.2l2.8 6.1 3.9-1.8 2.1 4.7-13.8 6.3-2-4.8zM523.9 182.5c-2.2 2.5-4.3 4.9-6.5 7.3-2.2 2.4-4.3 4.9-6.5 7.3 1 .5 2.2.7 3.4.6 1.2-.1 2.5-.4 3.7-1.1 1.8-1 3-2.5 3.5-4.3l4.9 1.7c-.5 1.5-1.2 2.9-2.2 4.1-1 1.2-2.2 2.3-3.7 3.1-1.7.9-3.4 1.5-5.2 1.7-1.8.2-3.5.1-5.1-.3-1.6-.4-3.1-1.1-4.5-2.1s-2.5-2.3-3.3-3.8c-.8-1.5-1.3-3.1-1.5-4.8-.1-1.7 0-3.4.6-5 .5-1.6 1.3-3.1 2.4-4.5 1.1-1.4 2.5-2.6 4.2-3.5 1.2-.7 2.5-1.1 3.9-1.3 1.4-.2 2.8-.1 4.1.3 1.4.3 2.7.9 4 1.7 1.4.8 2.7 1.8 3.8 2.9zm-13.2 1c-2 1.1-3.3 2.6-4 4.5-.6 1.9-.5 3.7.4 5.5l4.5-5.1 4.5-5.1c-.9-.3-1.8-.5-2.7-.5-1 .1-1.9.3-2.7.7zM554 177.9l-.7-1.1c0 .1 0 .5-.2 1s-.4 1.1-.8 1.9c-.4.7-1 1.5-1.7 2.3-.7.8-1.6 1.6-2.7 2.4-1.6 1.1-3.2 1.8-5 2.2-1.8.4-3.5.5-5.2.2-1.7-.3-3.2-.8-4.7-1.7-1.5-.9-2.7-2-3.7-3.5-1-1.4-1.6-3-1.9-4.6-.3-1.7-.3-3.3.1-5 .3-1.7 1-3.2 2-4.8 1-1.5 2.3-2.8 3.9-3.9.9-.6 1.9-1.1 2.9-1.5 1-.3 1.9-.6 2.8-.7.9-.1 1.6-.2 2.2-.1.6 0 1 .1 1.1.2l-.9-.6-.9-.6-11.4-16.5-3.7 2.6-2.9-4.2 8.4-5.8 24.8 35.9 4.3-2.9 2.9 4.2-8.4 5.8-.6-1.2zm-20 .5c1.2 1.7 2.8 2.8 4.9 3.1 2 .4 4-.1 6-1.5 2-1.3 3.1-3 3.5-5.1.4-2 0-3.9-1.2-5.7-1.2-1.8-2.9-2.8-4.9-3.1-2-.3-4 .2-6 1.6-2 1.3-3.1 3-3.6 5-.3 2 .1 3.9 1.3 5.7zM567.3 138.4l10.9-10.5 3.6 3.7-2.6 2.5c2.2.5 4.3 1.1 6.4 1.7 2.1.6 4.1 1.4 5.8 2.3-.9-1.8-1.6-3.8-2.1-5.9-.6-2.1-1.1-4.3-1.6-6.5l-2.9 2.8-3.6-3.7 11.2-10.9 3.6 3.7-4.1 4c1 3.9 2 7.7 3 11.6 1 3.9 2 7.7 3 11.5-3.8-1.1-7.7-2.2-11.5-3.3-3.8-1.1-7.6-2.2-11.5-3.3l-4.1 4-3.5-3.7zM604.2 118.9c-1.3-1.1-2.4-2.4-3.1-4-.7-1.6-1.2-3.2-1.2-4.8 0-1.6.1-3.4.7-5.1.6-1.7 1.4-3.3 2.7-4.7 1.2-1.5 2.6-2.6 4.2-3.5 1.6-.9 3.2-1.4 4.9-1.6 1.7-.2 3.3-.1 5 .4 1.6.5 3.1 1.3 4.5 2.4 1.4 1.1 2.4 2.5 3.1 4 .7 1.5 1.1 3.1 1.2 4.8.1 1.7-.1 3.4-.7 5.1-.6 1.7-1.5 3.3-2.7 4.8-1.2 1.5-2.6 2.6-4.2 3.4-1.6.8-3.2 1.3-4.9 1.5-1.7.2-3.3.1-5-.4-1.7-.4-3.2-1.2-4.5-2.3zm3.7-4.3c.8.7 1.7 1.1 2.6 1.4.9.3 1.9.4 2.9.2 1-.1 1.9-.4 2.8-.9.9-.5 1.7-1.1 2.4-2 .7-.8 1.2-1.7 1.5-2.7.3-1 .5-2 .4-3 0-1-.3-1.9-.7-2.8-.4-.9-1-1.7-1.8-2.4s-1.7-1.1-2.6-1.4c-.9-.3-1.9-.4-2.9-.2s-2 .4-2.9.9c-.9.5-1.7 1.1-2.4 2-.7.8-1.2 1.7-1.5 2.7-.3 1-.4 2-.4 2.9.1 1 .3 1.9.8 2.8.5.9 1 1.8 1.8 2.5zM646.6 81.8l-1.1-.7c.1.1.2.4.2 1s0 1.2-.1 2-.4 1.8-.7 2.8c-.4 1-.9 2.1-1.7 3.2-1.1 1.6-2.4 2.9-3.9 3.9s-3.1 1.7-4.7 2c-1.7.4-3.3.4-5 .1-1.7-.3-3.2-.9-4.7-1.9-1.4-1-2.6-2.2-3.5-3.6-.9-1.4-1.4-3-1.7-4.7-.3-1.7-.2-3.4.2-5.2.4-1.8 1.1-3.4 2.2-5 .6-.9 1.4-1.7 2.2-2.4.8-.7 1.6-1.2 2.4-1.6.8-.4 1.4-.7 2-.9.6-.2 1-.3 1.1-.3-.3-.1-.7-.2-1-.3-.3-.1-.7-.2-1-.3l-16.6-11.4-2.5 3.7-4.2-2.9 5.7-8.4 36 24.7 2.9-4.3 4.2 2.9-5.7 8.4-1-.8zm-18.5 7.6c1.8 1.2 3.6 1.6 5.7 1.2 2-.4 3.7-1.6 5.1-3.5 1.3-2 1.8-4 1.5-6-.4-2-1.4-3.7-3.2-4.9-1.8-1.2-3.7-1.6-5.7-1.2-2 .4-3.7 1.6-5 3.6-1.3 2-1.8 3.9-1.5 6 .3 1.9 1.3 3.5 3.1 4.8zM660.5 50.9l.4-.7c-1.1.2-2.2.4-3.3.5-1.1.2-2.2.3-3.3.5l1 4.4 2 1.1 2-3.8 4.5 2.4-7.2 13.3-4.5-2.4 2.5-4.6-33.8-18.3-2.1 4-4.5-2.4L619 36l30.8 16.7-1.9-8.1-1.2 2.2-4.5-2.4 6.5-12 4.5 2.4-2 3.7c.3 1.3.6 2.6.9 3.8.3 1.3.7 2.6.9 3.8 1.8-.3 3.6-.5 5.4-.8 1.8-.3 3.6-.6 5.5-.9l3-5.6 4.5 2.4-6.5 12-4.4-2.3zM663.1 30.9c-1.6-.6-2.9-1.6-4.1-2.8-1.2-1.2-2.1-2.7-2.7-4.2-.6-1.6-.9-3.3-.9-5.1 0-1.8.4-3.6 1.1-5.4.5-1.1 1.1-2.1 1.8-2.9.7-.8 1.4-1.5 2.1-2.1.7-.6 1.3-1 1.8-1.2.5-.3.9-.4 1-.3-.4-.2-.9-.4-1.3-.7-.4-.3-.9-.5-1.4-.7l1.8-4.3 17.8 7.4 2-4.8 4.7 2-3.9 9.4-1.2-.5-1.2-.5c.1.1.2.4.4.9s.3 1.2.3 2c.1.8 0 1.8-.1 2.9-.1 1.1-.5 2.2-1 3.4-.7 1.8-1.7 3.3-3 4.6-1.3 1.3-2.7 2.3-4.2 3-1.5.7-3.2 1.1-4.9 1.1-1.7-.3-3.3-.6-4.9-1.2zm2.1-5.3c2 .8 3.9.8 5.8 0s3.3-2.3 4.2-4.5c.9-2.2 1-4.2.2-6.2-.8-1.9-2.1-3.3-4.1-4.1-2-.8-3.9-.8-5.8 0s-3.3 2.3-4.2 4.5c-.9 2.2-1 4.2-.3 6.2.8 1.9 2.2 3.3 4.2 4.1z" fill="#000"/></svg>