<svg width="530" height="164" fill="none" xmlns="http://www.w3.org/2000/svg"><path d="M.7 117.9l9.6-32.5 4.2-3.1c1.1-.8 2.5-1.8 4.3-2.8 1.8-1 3.7-2 5.8-2.8 2.1-.8 4.3-1.5 6.7-1.9 2.4-.4 4.7-.5 7.1-.2 2.3.3 4.6 1.1 6.9 2.3 2.3 1.2 4.4 3.2 6.3 5.7 1.9 2.6 3.2 5.4 3.8 8.3.6 2.9.5 6-.3 9.1-.8 3.1-2.3 6.2-4.6 9.3-2.3 3.1-5.3 6.1-9.2 8.9l.8 1.1 18.3-13.6 4.3 5.7c1.8 2.4 3.3 4.3 4.7 5.7 1.4 1.5 2.6 2.6 3.6 3.4 1 .8 1.9 1.4 2.6 1.8.7.3 1.2.5 1.6.6 1 .3 2.1.3 3.4.2 1.3-.2 2.6-.7 3.9-1.7 1.6-1.2 2.7-2.6 3.4-4.2.6-1.6 1-3.5 1-5.7 1 1.8 1.6 3.4 1.7 5 .1 1.5-.1 2.9-.5 4.1-.4 1.2-.9 2.3-1.6 3.2-.7.9-1.2 1.6-1.6 1.9-.5.4-.9.9-1.5 1.3l-1.5 1.2c-1.9 1.4-4 2.7-6.5 3.9-2.5 1.2-5.3 1.9-8.3 1.9-3 .1-6.3-.7-9.8-2.2-3.5-1.5-7.1-4.3-10.9-8.4l-2.2-2.5-1.9 1.4 16.1 21.6-25.9 19.3L.7 117.9zm38.3-2.6l.6-.4c1.1-.8 2.2-1.9 3.2-3.2 1-1.3 1.7-2.8 2.2-4.4.5-1.6.5-3.4.2-5.2-.3-1.8-1.2-3.7-2.6-5.7-1.2-1.6-2.9-3.1-5-4.6-2.2-1.5-4.7-2.5-7.7-2.9 2-.8 3.9-1.3 5.7-1.5 1.8-.2 3.7-.1 5.7.2-1.2-1.6-2.7-3-4.5-4.2-1.8-1.1-3.8-1.9-5.9-2.2-2.2-.3-4.4-.2-6.8.4-2.4.6-4.8 1.8-7.2 3.6L39 115.3zM120.9 108.1L93 120.4 61.8 50l27.9-12.4 31.2 70.5zm36.5-16.2l-28 12.4-31.1-70.4 28-12.4 31.1 70.4zm-43.5-22.7l-.5 10.7-8.1-6.9.4-10.4 8.2 6.6zM224.2 42.7c.2.8.3 1.7.4 2.6.1.9.3 2 .5 3.3.2 1.2.3 2.5.3 3.7 0 1.3 0 2.6-.1 4.1-.3 2.9-.9 5.8-1.6 8.6-.9 2.9-2.4 5.7-4.5 8.4-2.1 2.6-4.9 4.9-8.5 7.1-3.6 2-8.1 3.6-13.6 4.6-5.5 1.1-10.2 1.3-14.2.7-4.2-.7-7.7-1.8-10.5-3.5-3-1.7-5.4-3.7-7.3-6.1-1.9-2.4-3.5-4.9-4.7-7.4-1.4-2.6-2.3-5-2.8-7.3-.3-1.2-.6-2.3-.8-3.2-.2-.9-.4-1.8-.6-2.6l-7.9-41.1 28.5-5.5L188 67.5c.8 4.4 1.9 7.9 3.3 10.5 1.2 2.2 3 4 5.4 5.4 1.7-2.1 2.7-4.4 3-7 .3-2.9 0-6.5-.8-10.9L187.7 7.1l28.5-5.5 8 41.1zM267.4.9l8.4.2c2.8.1 5.9.6 9.4 1.5 3.3.8 6.4 2.6 9.4 5.3 1.9 1.7 3.5 3.9 5 6.6 1.3 2.6 1.9 5.8 1.8 9.7-.1 4.1-.7 7.2-1.7 9.3-.6 1-1.1 1.9-1.7 2.8-.6.8-1.1 1.5-1.7 2.1 2 1.6 3.8 3.7 5.4 6.4 1.5 2.7 2.3 6.3 2.1 10.7-.1 2.9-.7 5.8-1.9 8.9-1.1 2.8-3.1 5.3-6.2 7.8-3.6 2.8-7.4 4.5-11.4 5.1-2 .3-4 .5-6 .7-2 .1-3.9.2-5.7.1l-36.4-1 1.5-56.6L267.4.9zm1.3 73.3l3.1.1c.8 0 1.6 0 2.4-.1.8-.1 1.7-.2 2.7-.3 1.8-.4 3.5-1 5.1-1.7 2.6-1.2 4.5-2.6 5.8-4.4 1.2-1.7 2.1-3.3 2.6-4.8-.9.6-2.2 1.2-4 1.8-1.8.6-4.1.9-6.8.8.6-.3 1.2-.5 1.7-.7.5-.2 1-.4 1.3-.6.4-.3.8-.5 1.1-.7.3-.2.7-.5 1.1-.7l1.8-1.6c.2-.3.5-.6.7-1 .2-.4.5-.7.8-1.1 1-1.4 1.7-2.7 2.2-3.9.5-1.2.8-2.6.8-4.3.1-2.6-.3-4.8-1.1-6.9-.7.6-1.5 1.1-2.5 1.6-.5.3-1.1.5-1.7.7l-1.8.6c-1.3.5-2.8.8-4.5 1-.8.1-1.5.1-2.3.1h-2c-2-.1-4-.3-5.9-.7l-.6 26.8zm.8-30.9c.5.2 1 .3 1.5.5s1 .3 1.4.4c.5.1.9.1 1.3.1h1c3.2.1 6-.5 8.2-1.9 1.2-.7 2.1-1.3 2.6-1.9.6-.7 1-1.4 1.4-1.9-.3-.7-.8-1.4-1.6-2.2-.8-.8-1.8-1.6-3.1-2.4-1.9-1.2-4.4-1.9-7.4-2h-2c-.5 0-1 .1-1.4.1-.4.1-.7.1-1 .2-.3.1-.6.1-.8.2l-.1 10.8zm.4-14.6c1.9-.3 3.7-.5 5.3-.4 1.6 0 3.7.3 6.2.8 2.3.5 4.9 1.7 7.9 3.7.2-.4.3-.7.4-1 .1-.3.2-.7.4-1 .1-.4.2-.8.2-1.2 0-.4.1-.8.1-1.2 0-1.5-.1-3.1-.4-5-.4-1.6-1.1-3.2-2-4.7-.3-.4-1-1.4-2.2-2.8-.6-.8-1.4-1.6-2.4-2.3-1-.7-2.2-1.5-3.5-2.2.5.1 1.1.2 1.8.2.7.1 1.5.2 2.3.3 1.6.3 3.5.8 5.7 1.5-1.7-2.5-4-4.5-6.8-6-2.9-1.6-6.2-2.5-9.9-2.6l-2.5-.1-.6 24zM332.6 41.5c-.2 1-.3 2-.5 3s-.3 2-.5 3-.4 2-.6 3.1c-.3 1-.5 2.1-.8 3.3-.1.4-.2.8-.3 1.3-.1.5-.3 1.2-.6 2-.5 1.6-1.2 3.4-2 5.3-.4 1-.9 2-1.5 3s-1.2 2.1-1.9 3.2c-1.4 2-3.2 3.9-5.2 5.8-2 1.7-4.4 3.1-7.3 4.3-2.8 1.1-6.1 1.7-9.8 1.6l31-38.9zm6.1 32.5c-3.1 1-6.1 2.7-9 5.3-.4-.7-.8-1.4-1.1-2.2-.4-.8-.8-1.5-1.2-2.2-.5-.7-1-1.4-1.5-2.2-.5-.7-1.1-1.5-1.7-2.2 1.6-.6 3.2-1.3 4.8-2.2.7-.4 1.4-.9 2.1-1.4.7-.5 1.4-1 2-1.5.3.8.7 1.6 1.1 2.4.4.8.8 1.5 1.2 2.2l1.5 2.1c.6.5 1.2 1.2 1.8 1.9zm4.4 14.2l-9.5-47.9 25.6-31.9 17.6 88.1-33.7-8.3zM401.5 46l33.3-6.4 4.7 2.3c2 1 4.3 2.4 6.9 4.2 1.4 1 2.7 2.1 3.9 3.3 1.2 1.2 2.4 2.5 3.5 3.9 2.2 2.8 3.6 6 4.4 9.7.8 3.7.1 7.7-2 12-1.3 2.8-3.2 5.1-5.4 6.9-2.3 1.9-5 3.3-8 4.1-3 .8-6.5.9-10.5.4-3.8-.6-8-1.9-12.5-4.1l-.6 1.2 20.5 10-3.1 6.4c-1.3 2.6-2.3 4.9-2.9 6.8-.3.9-.5 1.8-.8 2.5-.2.8-.5 1.5-.6 2.2-.2 1.4-.3 2.4-.3 3v1c0 .3.1.5.1.7.2 1 .7 2 1.4 3.1s1.8 2 3.3 2.7c.8.4 1.7.7 2.7 1 1 .1 1.8.2 2.6.2.7 0 1.6-.2 2.7-.5.5-.2 1-.4 1.4-.6.4-.2.8-.5 1.3-.7-1.3 2.2-2.9 3.7-4.7 4.4-1.9.6-3.5.9-4.9.9-1.4 0-2.6-.2-3.8-.5-.6-.2-1.2-.4-1.8-.7-.6-.3-1.2-.5-1.8-.8-1.3-.6-2.7-1.4-4.1-2.4-1.4-.9-2.8-2.1-4.2-3.4-.6-.6-1.3-1.3-1.9-2.1-.6-.7-1.2-1.5-1.7-2.4-1-1.6-1.8-3.4-2.3-5.6-.5-2.5-.5-5.4-.1-8.7.2-1.7.5-3.3.9-4.8s.8-2.9 1.3-4.3l1.2-3.1-2.1-1-11.8 24.2-29-14.1L401.5 46zm19.9 32.9c1.6.9 3.4 1.5 5.4 1.8 1.7.2 3.4 0 5.1-.5 1.4-.4 2.8-1.2 4.3-2.3 1.4-1 2.5-2.6 3.5-4.5.9-1.8 1.5-4 1.8-6.7.3-2.6 0-5.3-1.1-8.1 1.5 1.2 2.8 2.6 3.8 4.1 1.1 1.6 2 3.4 2.6 5.4.9-1.9 1.5-4 1.6-6.2.2-2.1-.1-4.2-.9-6.3-.8-2.1-2-4-3.6-5.8-1.6-1.8-3.7-3.3-6.3-4.5l-16.2 33.6z" fill="#000"/><path d="M511.8 86.9l6.6 5.2c2.2 1.7 4.4 4 6.7 6.8 2.1 2.6 3.6 5.9 4.4 9.9.5 2.5.5 5.2 0 8.3-.5 2.9-2 5.8-4.4 8.9-2.5 3.2-4.9 5.4-7 6.4-1.1.5-2.1.9-3 1.2-.9.3-1.8.6-2.6.7.7 2.5.8 5.3.5 8.4-.4 3.1-1.9 6.4-4.7 9.9-1.8 2.2-4 4.2-6.8 6-2.5 1.6-5.7 2.4-9.6 2.5-4.5 0-8.6-.9-12.2-2.8-1.8-1-3.5-2-5.2-3-1.7-1.1-3.2-2.2-4.6-3.3l-28.6-22.6L476.4 85l35.4 1.9zm-42.9 59.4l2.4 1.9c.6.5 1.3.9 2 1.4.7.4 1.5.9 2.3 1.3 1.7.8 3.4 1.3 5.1 1.7 2.8.6 5.2.6 7.2 0 2-.7 3.6-1.4 4.9-2.3-1-.1-2.4-.4-4.2-1-1.8-.6-3.8-1.7-6-3.4.7.2 1.3.3 1.8.4.5.1 1 .2 1.4.3.5 0 .9 0 1.3.1.4 0 .9.1 1.3.1l2.4-.2c.4-.1.7-.2 1.2-.3.4-.1.8-.3 1.3-.4 1.6-.5 2.9-1.1 4.1-1.8 1.1-.6 2.2-1.6 3.2-2.9 1.6-2 2.7-4.1 3.2-6.1-.9 0-1.9 0-2.9-.2-.6-.1-1.2-.2-1.8-.4l-1.8-.6c-1.3-.4-2.7-1.1-4.2-1.9-.6-.4-1.3-.8-1.9-1.3-.6-.4-1.1-.8-1.6-1.2-1.6-1.2-3-2.6-4.3-4.1l-16.4 20.9zm19.2-24.2c.3.4.6.9.9 1.3l.9 1.2.9.9c.3.2.6.5.8.6 2.5 2 5.1 3.1 7.7 3.4 1.4.2 2.5.2 3.2 0 .9-.2 1.6-.5 2.3-.7.2-.7.2-1.6.1-2.7-.2-1.1-.5-2.3-1-3.7-.8-2.1-2.4-4.1-4.8-6-.6-.5-1.1-.9-1.6-1.2-.4-.3-.8-.5-1.2-.7-.3-.2-.7-.3-1-.5-.3-.1-.5-.2-.8-.3l-6.4 8.4zm9.1-11.5c1.7.9 3.2 1.9 4.5 2.9 1.3 1 2.8 2.5 4.5 4.4 1.5 1.8 2.9 4.3 4.1 7.7.3-.2.7-.4.9-.6l.9-.6c.3-.2.6-.5.9-.8.3-.3.6-.6.8-.9.9-1.1 1.8-2.6 2.6-4.2.6-1.6 1-3.2 1.2-4.9 0-.5 0-1.7-.1-3.6 0-1-.2-2.1-.5-3.3-.4-1.2-.9-2.5-1.4-3.9l1.3 1.3c.5.5 1.1 1 1.6 1.6 1.1 1.2 2.4 2.7 3.7 4.6.2-3.1-.4-6-1.8-8.9-1.3-3-3.5-5.7-6.3-8l-2-1.6-14.9 18.8z" fill="#000"/></svg>