<svg width="555" height="151" fill="none" xmlns="http://www.w3.org/2000/svg"><path d="M4.3 28.9l2.2 2.2 24.8-25-2.2-2.2L32.7.2l10.2 10.1c1.1 1.1 2.2 2.5 3.2 4.1 1 1.6 1.8 3.4 2.2 5.3.5 1.9.5 3.7.2 5.6-.3 1.9-1.3 3.6-2.8 5.2-2.3 2.3-4.8 3.6-7.6 4-2.8.4-5.5-.4-8.3-2.2l-5.5 16.4 4.6 4.5-3.6 3.6-7.1-7 7.1-21.5-2.1-2.1-2-2L10.5 35l5.5 5.5-3.6 3.6L.7 32.5l3.6-3.6zm20.6-8.4l4.2 4.2c1.4 1.4 2.8 2.4 4 2.9 1.3.6 2.4.8 3.5.9 1.1 0 2-.2 2.9-.6.9-.4 1.6-.9 2.2-1.5.7-.7 1.1-1.5 1.4-2.5.2-1 .3-2 .1-3.1-.2-1.1-.5-2.2-1.2-3.4-.6-1.2-1.4-2.2-2.4-3.2L35.3 10 24.9 20.5zM48.8 69.3l4.1 3.3 6.3-7.9c.7-1 .9-2 .8-3.2-.1-1.2-.8-2.3-2.1-3.4-.9-.7-1.9-1.3-3-1.6-1.1-.4-2.2-.5-3.2-.5-1.1 0-2.1.3-3.1.7-1 .4-1.8 1.1-2.5 2L41.9 64l3.4 2.7-3.2 4-11.9-9.4 3.2-4 4.1 3.2 23.8-30.2-4.1-3.2 3.2-4 8.5 6.7-17.2 21.7-2 2.2c2.1-1 4.3-1.4 6.5-1.1 2.2.3 4.4 1.2 6.5 2.7 2.1 1.7 3.3 3.5 3.7 5.5.4 2-.1 3.9-1.3 5.7l-7.8 9.8 3.3 2.6-3.2 4-11.9-9.4 3.3-4.2zM75.8 65.8l8.6 5.4-8.1 13c-.5 1-.7 2.1-.5 3.3.2 1.1 1 2.2 2.5 3.2 1 .6 2.1 1.1 3.2 1.3 1.1.2 2.2.3 3.3.1 1.1-.2 2.1-.5 3-1.1.9-.6 1.7-1.3 2.3-2.3l3.5-5.7-3.8-2.4 2.7-4.4 8.6 5.4-10.5 16.8 3.6 2.2-2.4 3.9-8.4-5.2 1.8-2.8 1.7-2.4c-1.9 1.3-4 1.9-6.4 1.9-2.4 0-4.6-.7-6.7-2-2.3-1.4-3.7-3.1-4.3-5.1-.6-2-.4-3.9.7-5.8l6.6-10.6-3.8-2.4 2.8-4.3zM99.8 103l4.7 2.2 16.7-34.7-4.1-2 2.2-4.6 9.1 4.4L117.5 91c-.2.3-.5.5-.7.8-.3.2-.5.5-.7.8.1-.1.4-.2 1-.4.6-.1 1.3-.2 2.2-.2.9 0 1.8.1 2.9.2 1.1.2 2.1.5 3.2 1 1.7.8 3.2 1.9 4.4 3.2 1.2 1.3 2.1 2.8 2.7 4.4.6 1.6.9 3.2.8 4.9 0 1.7-.4 3.3-1.2 4.9-.8 1.6-1.8 2.9-3.1 4s-2.8 1.9-4.4 2.4c-1.6.5-3.3.7-5.1.6-1.8-.1-3.6-.6-5.3-1.4-1.2-.6-2.2-1.2-3-1.9-.8-.7-1.5-1.4-2-2-.5-.7-.9-1.2-1.1-1.7-.2-.5-.3-.8-.3-.9l-.6 1.2-.6 1.2-9.1-4.4 2.3-4.7zm27.2 5.3c.9-2 1-3.9.3-5.8s-2.2-3.4-4.3-4.4c-2.1-1-4.2-1.2-6.1-.6-1.9.6-3.4 1.9-4.3 3.9-.9 1.9-1 3.8-.3 5.8s2.1 3.4 4.3 4.5c2.1 1 4.2 1.2 6.2.5 1.9-.7 3.3-2 4.2-3.9zM136.9 112.8c.6-1.6 1.4-3 2.6-4.2 1.2-1.2 2.6-2.2 4.1-2.9 1.5-.7 3.2-1.1 5-1.2 1.8-.1 3.6.2 5.4.8 1.2.4 2.2 1 3 1.6.9.7 1.6 1.3 2.2 2 .6.6 1 1.2 1.3 1.7.3.5.4.8.4 1 .2-.4.4-.9.6-1.4.3-.5.5-.9.7-1.4l4.4 1.6-6.4 18.1 4.9 1.7-1.7 4.8-9.6-3.4.4-1.2.4-1.2c-.1.1-.4.3-.9.4-.5.2-1.2.3-2 .4-.8.1-1.8.1-2.9 0-1.1-.1-2.2-.3-3.5-.8-1.8-.6-3.4-1.6-4.7-2.8-1.4-1.2-2.4-2.6-3.2-4.1-.8-1.5-1.2-3.1-1.4-4.8.1-1.4.3-3.1.9-4.7zm5.3 1.8c-.7 2-.6 3.9.3 5.8.9 1.9 2.5 3.2 4.7 4 2.2.8 4.3.8 6.2-.1 1.9-.9 3.2-2.3 3.9-4.3.7-2 .6-4-.3-5.8-.9-1.8-2.5-3.1-4.7-3.9-2.2-.8-4.3-.8-6.2.1-1.8.8-3.1 2.2-3.9 4.2zM170.5 131.7l5 1.3 3.5-13.7-4.4-1.1 1.3-5 9.2 2.4-.1.6c-.2 1-.3 2-.5 2.8-.1.8-.3 1.8-.5 2.8.8-.9 1.7-1.7 2.7-2.3 1-.6 2.1-1.1 3.1-1.4 1-.3 2-.5 3-.6 1-.1 1.7 0 2.4.1l-1.7 5c-2.7-.7-5-.5-7 .5s-3.3 2.6-3.8 4.8l-1.7 6.5 4.2 1.1-1.3 5-14.6-3.8 1.2-5zM195.7 138.2l5.1.8 6.3-38-4.4-.7.8-5.1 10 1.7-4.1 24.9c-.1.3-.3.6-.5.9-.2.3-.4.6-.5.9.1-.1.4-.3.9-.6s1.2-.6 2-.8c.8-.3 1.8-.5 2.8-.6 1-.1 2.2-.1 3.3.1 1.9.3 3.6.9 5.1 1.9 1.5.9 2.8 2.1 3.9 3.4 1 1.4 1.8 2.8 2.2 4.5.4 1.6.5 3.3.2 5-.3 1.7-.9 3.3-1.8 4.7-1 1.4-2.1 2.6-3.5 3.6s-3 1.6-4.8 2c-1.8.4-3.6.4-5.5.1-1.3-.2-2.4-.5-3.4-1-1-.4-1.8-.9-2.5-1.4-.7-.5-1.2-.9-1.5-1.3-.3-.4-.5-.7-.6-.8l-.2 1.3-.2 1.3-10-1.7.9-5.1zm27.6-2.6c.4-2.1-.1-4-1.3-5.7-1.2-1.7-3-2.6-5.4-3-2.3-.4-4.4 0-6 1.1-1.7 1.1-2.7 2.8-3.1 4.9-.3 2.1.1 4 1.3 5.7 1.2 1.7 3 2.7 5.4 3.1 2.4.4 4.4 0 6.1-1.2 1.6-1.2 2.7-2.8 3-4.9zM253.6 145.4h3.1l.6-35.2h-3.1l.1-5.1 14.3.2c1.5 0 3.3.3 5.1.8 1.9.5 3.6 1.2 5.2 2.3 1.6 1.1 3 2.3 4 3.9 1.1 1.6 1.6 3.5 1.5 5.7-.1 3.9-1.3 7.1-3.8 9.3-2.5 2.2-6.1 3.4-10.7 3.3l-7.4-.1-.2 15.1 7.8.1-.1 5.1-16.5-.3.1-5.1zm9-20.2l5.9.1c2 0 3.6-.2 5-.7 1.3-.5 2.3-1.1 3.1-1.8.8-.7 1.3-1.5 1.7-2.4.3-.9.5-1.8.5-2.6 0-.9-.2-1.9-.7-2.7-.5-.9-1.2-1.6-2.1-2.3-.9-.7-1.9-1.2-3.2-1.6-1.2-.4-2.6-.6-4-.6l-6-.1-.2 14.7zM289.5 145.3l4.8-.3-1-14.1-4.8.3-.4-5.1 10.4-.7 1.4 19.2 4.7-.3.4 5.1-15.1 1.1-.4-5.2zm2.1-28.9c-.1-1 .2-1.8.9-2.5s1.5-1.1 2.4-1.1c.9-.1 1.7.2 2.4.8.8.6 1.2 1.4 1.3 2.4.1 1-.2 1.8-.9 2.5s-1.5 1-2.3 1.1c-.9.1-1.7-.2-2.5-.8-.8-.6-1.2-1.4-1.3-2.4zM329.4 141l5.2-.8-1.6-10c-.3-1.1-.9-2.1-1.8-2.8-.9-.7-2.2-1-4-.8-1.2.2-2.2.5-3.2 1.1-1 .6-1.8 1.2-2.5 2.1-.7.8-1.2 1.7-1.6 2.8-.3 1-.4 2.1-.3 3.2l1 6.6 4.2-.7.8 5.1-14.9 2.3-.7-5.1 5.1-.8-2.2-13.9-4.4.7-.8-5.1 9.4-1.5.1.6c.2 1 .5 1.9.7 2.8.2.8.4 1.7.7 2.8.6-2.2 1.8-4.1 3.6-5.6s3.9-2.5 6.3-2.9c2.6-.4 4.8-.1 6.6 1 1.7 1.1 2.8 2.7 3.2 4.8l1.9 12.4 4.2-.6.8 5.1-14.9 2.3-.9-5.1zM366.9 132.9l.7-.2c-.9-.7-1.8-1.3-2.7-2-.9-.7-1.8-1.4-2.6-2l-2.5 3.8.6 2.2 4.1-1.1 1.3 5-14.6 3.9-1.3-5 5-1.3-10-37.2-4.3 1.2-1.3-5 9.8-2.6 9.1 33.8 4.6-6.9-2.4.7-1.3-5 13.2-3.5 1.3 5-4.1 1.1c-.7 1.1-1.5 2.2-2.1 3.3l-2.1 3.3c1.4 1.1 2.9 2.3 4.3 3.4 1.5 1.1 2.9 2.2 4.4 3.4l6.1-1.6 1.3 5-13.2 3.5-1.3-5.2zM397.2 103l13.8-6.3 2.1 4.7-3.3 1.5c1.9 1.2 3.7 2.5 5.5 3.8 1.8 1.3 3.4 2.7 4.7 4.1-.2-2-.2-4.1 0-6.3s.4-4.4.7-6.6l-3.7 1.7-2.1-4.7 14.2-6.5 2.1 4.7-5.2 2.4c-.3 4-.7 8-1 11.9-.4 3.9-.7 7.9-1.1 11.8-3.3-2.3-6.5-4.6-9.7-7-3.2-2.3-6.4-4.6-9.7-7l-5.2 2.4-2.1-4.6zM438.5 97c-.9-1.5-1.4-3.1-1.6-4.8-.2-1.7 0-3.4.4-5 .5-1.6 1.3-3.1 2.4-4.5 1.1-1.4 2.5-2.6 4.1-3.6 1.6-1 3.4-1.6 5.2-1.9 1.8-.3 3.5-.2 5.1.2 1.6.4 3.2 1 4.6 2 1.4 1 2.5 2.2 3.4 3.7.9 1.5 1.4 3.1 1.6 4.8.2 1.7 0 3.3-.4 5-.5 1.6-1.3 3.2-2.4 4.6-1.1 1.4-2.5 2.6-4.1 3.6-1.6 1-3.4 1.6-5.1 1.8-1.7.2-3.5.2-5.1-.2-1.7-.4-3.2-1.1-4.6-2-1.5-.9-2.6-2.2-3.5-3.7zm4.9-2.8c.5.9 1.2 1.6 2 2.2.8.6 1.7 1 2.6 1.2.9.2 1.9.3 3 .1 1-.1 2-.5 2.9-1 .9-.6 1.7-1.2 2.3-2.1.6-.8 1.1-1.7 1.4-2.6.3-.9.4-1.9.3-2.9-.1-1-.4-1.9-1-2.8-.6-.9-1.2-1.6-2-2.2-.8-.6-1.7-1-2.7-1.2-1-.2-2-.3-3-.1-1 .1-2 .5-2.9 1-.9.5-1.7 1.2-2.3 2.1-.6.8-1.1 1.7-1.3 2.7-.3 1-.3 1.9-.2 2.9.1.9.4 1.8.9 2.7zM490.8 76.2l-.8-1.1c0 .1 0 .5-.1 1s-.4 1.2-.8 1.9-.9 1.5-1.6 2.4c-.7.8-1.6 1.7-2.6 2.4-1.5 1.1-3.2 1.9-4.9 2.4-1.7.5-3.5.6-5.2.3-1.7-.2-3.3-.8-4.8-1.6s-2.7-2-3.8-3.4c-1-1.4-1.7-2.9-2-4.6-.3-1.7-.4-3.3 0-5 .4-1.7.9-3.3 1.9-4.8 1-1.5 2.2-2.9 3.8-4 .9-.7 1.9-1.2 2.9-1.5 1-.4 1.9-.6 2.8-.7.9-.1 1.6-.2 2.2-.2.6 0 1 .1 1.1.1l-.9-.6-.9-.6-11.8-16.2-3.6 2.6-3-4.2 8.2-6 25.6 35.3 4.2-3 3 4.2-8.2 6-.7-1.1zm-19.9 1c1.2 1.7 2.9 2.7 5 3 2.1.3 4-.2 6-1.6 1.9-1.4 3.1-3.1 3.4-5.2.3-2-.1-3.9-1.4-5.6-1.3-1.8-2.9-2.8-5-3-2-.3-4 .3-5.9 1.7-1.9 1.4-3.1 3.1-3.4 5.1-.4 2 0 3.9 1.3 5.6zM514.3 51.8l.6-.5-3.3-.6c-1.1-.2-2.2-.4-3.2-.6l-.5 4.5 1.5 1.7 3.2-2.9 3.4 3.8-11.3 10.1-3.4-3.8 3.9-3.5-25.7-28.6-3.3 3-3.4-3.8 7.6-6.8 23.4 26.1.9-8.3-1.9 1.7-3.4-3.8 10.2-9.2 3.4 3.8-3.1 2.8c-.2 1.3-.3 2.6-.4 3.9-.1 1.3-.2 2.6-.4 3.9 1.8.4 3.6.7 5.4 1.1 1.8.3 3.6.7 5.4 1l4.7-4.2 3.4 3.8-10.2 9.2-3.5-3.8zM523.5 33.8c-1.3-1.1-2.2-2.5-2.9-4.1-.7-1.6-1-3.2-1.1-4.9 0-1.7.2-3.4.9-5.1.6-1.7 1.6-3.3 2.8-4.7.8-.9 1.7-1.6 2.7-2.2 1-.5 1.8-1 2.7-1.3.8-.3 1.5-.5 2.1-.6.6-.1.9-.1 1 0-.4-.3-.7-.7-1-1.1-.3-.4-.7-.8-1.1-1.1l3.2-3.5 14.3 12.9 3.5-3.8 3.8 3.4-6.8 7.5-1-.9-1-.9c.1.1.1.5.1 1s-.1 1.2-.4 2c-.2.8-.6 1.7-1.1 2.7-.5 1-1.2 1.9-2.1 2.9-1.3 1.4-2.7 2.5-4.4 3.3-1.6.8-3.3 1.3-5 1.4-1.7.1-3.3-.1-5-.6-1.5-.3-3-1.1-4.2-2.3zm3.7-4.2c1.6 1.4 3.4 2.1 5.5 1.9 2.1-.1 3.9-1.1 5.5-2.8 1.6-1.7 2.3-3.7 2.3-5.7-.1-2.1-.9-3.8-2.5-5.2-1.6-1.5-3.4-2.1-5.5-1.9-2 .2-3.9 1.1-5.4 2.9-1.6 1.8-2.4 3.7-2.3 5.7 0 1.9.8 3.6 2.4 5.1z" fill="#000"/></svg>