<?xml version="1.0" standalone="no"?>
<!DOCTYPE svg PUBLIC "-//W3C//DTD SVG 20010904//EN"
 "http://www.w3.org/TR/2001/REC-SVG-20010904/DTD/svg10.dtd">
<svg version="1.0" xmlns="http://www.w3.org/2000/svg"
 width="406.000000pt" height="171.000000pt" viewBox="0 0 406.000000 171.000000"
 preserveAspectRatio="xMidYMid meet">

<g transform="translate(0.000000,171.000000) scale(0.100000,-0.100000)"
fill="#000000" stroke="none">
<path d="M530 1383 c-83 -82 -206 -169 -293 -208 l-57 -25 0 -430 0 -430 215
0 215 0 0 585 c0 322 -1 584 -2 584 -2 -1 -37 -35 -78 -76z"/>
<path d="M1172 1419 c-117 -20 -241 -108 -289 -207 -36 -74 -39 -183 -6 -253
26 -58 86 -125 131 -148 l35 -18 -54 -25 c-111 -51 -169 -129 -169 -228 0
-101 67 -189 176 -229 118 -45 351 -52 474 -15 123 36 209 105 253 202 31 68
31 200 -1 259 -39 74 -81 112 -172 156 l-88 43 47 17 c148 52 219 161 177 271
-53 138 -278 214 -514 175z m213 -44 c55 -32 81 -59 106 -108 29 -56 29 -129
1 -183 -23 -44 -74 -94 -98 -94 -31 0 -189 67 -215 92 -23 20 -29 35 -29 67 0
51 24 77 85 93 52 14 41 28 -22 28 -24 0 -43 2 -43 5 0 15 31 63 57 86 59 55
84 57 158 14z m-125 -683 c131 -61 147 -70 163 -104 18 -36 18 -38 -2 -83 -13
-29 -32 -52 -55 -66 -20 -12 -36 -23 -36 -26 0 -3 20 -3 45 0 25 4 45 4 45 0
0 -3 -12 -22 -26 -41 -37 -47 -123 -86 -172 -77 -95 18 -191 98 -213 177 -14
53 -7 154 14 195 22 42 66 93 80 92 7 0 77 -31 157 -67z"/>
<path d="M2225 1424 c-165 -26 -301 -113 -360 -231 -28 -54 -30 -66 -30 -168
0 -101 2 -114 28 -164 35 -65 109 -141 167 -171 51 -26 157 -50 225 -50 65 0
162 25 197 50 15 11 29 20 32 20 2 0 -3 -26 -11 -57 -41 -158 -140 -269 -314
-353 l-64 -32 78 7 c221 19 441 125 555 267 104 129 147 343 108 529 -18 84
-42 132 -100 196 -95 105 -204 151 -374 157 -59 3 -120 2 -137 0z m139 -50
c73 -71 106 -174 106 -334 0 -163 -43 -291 -117 -347 l-33 -25 -33 25 c-74 56
-117 184 -117 347 0 160 33 263 106 334 21 20 40 36 44 36 4 0 23 -16 44 -36z"/>
<path d="M3285 1416 c-135 -26 -270 -118 -321 -217 -13 -26 -28 -77 -34 -114
-34 -215 110 -403 335 -436 100 -15 191 -4 261 31 l56 28 -6 -37 c-4 -20 -25
-73 -46 -118 -50 -102 -133 -182 -253 -243 l-82 -42 70 7 c334 31 587 209 659
465 22 82 29 195 17 285 -27 190 -142 322 -331 379 -75 23 -238 29 -325 12z
m177 -43 c78 -82 113 -204 105 -368 -7 -139 -34 -220 -96 -287 l-48 -52 -27
17 c-124 81 -172 376 -95 581 20 54 93 146 115 146 6 0 26 -17 46 -37z"/>
</g>
</svg>
