<svg width="131" height="161" xmlns="http://www.w3.org/2000/svg"><g fill="none" fill-rule="evenodd"><path d="M75.939 132.706c2.092-1.093 4.51-5.31 6.866-10.929.578-1.378 8.42 9.89 12.883-2.773 4.462-12.663-2.218-32.197-2.324-37.68-.178-9.272-8.226-10.725-10.455-14.844-1.64-3.03-12.176.989-15.102 5.709-2.945 4.75 1.717 10.208-1.162 9.134-5.825-2.17-10.128-5.363-15.692-2.455-11.047 5.773-14.63 20.384-8.003 32.633 6.626 12.25 21.942 26.979 32.989 21.205z" fill="#000"/><path d="M3.293 103.903c.034.149.048.308.027.48-.05.412.172.853.26 1.283.045.223.105.462.07.68-.083.528.046.968.388 1.377.378.454.63.96.415 1.462.177.277.313.455.414.652.223.434.441.872.638 1.317.38.858.96 1.64.99 2.63.004.126.04.263.103.373.632 1.114.767 2.449 1.58 3.484.059.076.037.208.085.298.11.206.192.472.368.588.566.371.892.938 1.29 1.442.237.3.394.664.588 1 .271.465.496.935.897 1.348.752.774 1.607 1.49 1.91 2.623.175.652.696 1.158 1.235 1.555.375.276.648.576.855.98.164.315.371.618.609.884.64.72 1.312 1.413 1.964 2.124.828.904 1.662 1.803 2.468 2.726.496.568 1.145.97 1.582 1.613.452.665.997 1.288 1.594 1.83.577.524 1.185 1 1.706 1.596.851.971 1.802 1.855 2.72 2.768.75.746 1.474 1.525 2.28 2.206.853.722 1.528 1.607 2.463 2.27a10.65 10.65 0 012.317 2.236c.201.266.458.41.836.49a4.222 4.222 0 011.633.743c.663.507 1.346.97 2.11 1.286 1.05.435 1.963 1.158 3.1 1.418.339.077.652.276.972.429.697.333 1.417.605 2.061 1.062.796.566 1.595 1.181 2.66 1.179.072 0 .188.034.21.083.2.472.682.439 1.058.59l.214.087c-.274-.169-.542-.346-.816-.514-.066-.04-.165-.091-.173-.149-.097-.686-.497-.412-.83-.26-.466-.094-.51-.63-.988-.746-.339-.084-.599-.464-.901-.704a.397.397 0 00-.218-.062c-.546-.01-.894-.276-1.077-.77-.102-.274-.28-.434-.607-.384-.129.02-.307.052-.387-.012-.655-.517-1.415-.97-1.902-1.614-.446-.591-1.014-.983-1.588-1.35-.641-.41-1.357-.685-1.81-1.348a2.041 2.041 0 00-.76-.677c-.913-.438-1.52-1.189-2.192-1.88-.476-.486-.972-.951-1.45-1.434-.2-.2-.379-.418-.633-.701-.253-.007-.581-.015-.82-.397-.335-.534-.761-1.021-1.189-1.493-.261-.287-.62-.489-.899-.763-.465-.458-.897-.948-1.35-1.414a9.795 9.795 0 01-1.176-1.442c-.23-.345-.443-.705-.712-1.022-.213-.25-.496-.444-.75-.661-.273-.234-.554-.46-.82-.7-.093-.085-.126-.257-.226-.302-.645-.293-.939-.806-1.066-1.457-.027-.14-.17-.257-.26-.385l-.018.02c.173.035.4.011.511.111.78.71 1.496 1.494 2.31 2.161.902.738 1.454 1.758 2.327 2.515 1.003.87 1.942 1.809 2.894 2.731.239.232.42.52.633.776.168.2.32.424.522.588.811.65 1.633 1.288 2.466 1.913.34.257.556.547.445 1.023.866-.035 1.318.542 1.742 1.096.244.316.528.55.836.789.972.762 1.927 1.545 2.882 2.327.775.633 1.54 1.275 2.305 1.915.08.067.149.226.21.22.69-.065.953.516 1.41.817 1.09.72 2.267 1.313 3.37 2.016.63.401 1.395.585 1.89 1.236.165.217.685.202 1.05.242.351.04.686.06.936.353.083.097.206.18.328.22.972.323 1.93.775 2.933.915 1.224.17 2.39.623 3.655.62.67-.003 1.343.226 2.014.361.587.119 1.21.057 1.766.34.18.091.365.174.39.184.61-.022 1.073-.06 1.535-.051 1.318.026 2.636.07 3.955.112.239.007.485.014.711.077.147.041.264.183.346.431-.656.022-1.312.069-1.966.058-.444-.007-.886-.092-1.328-.144-.319-.038-.465.446-.86.238a2.32 2.32 0 00-.818-.224c-.483-.053-.95-.195-1.469-.031-.197.063-.526-.267-.805-.423-.355.086-.755.265-1.15.253-.408-.012-.808-.209-1.223-.329-.16.095-.286.17-.39.224.958.134 1.838.631 2.833.562.235-.017.476 0 .708.036.413.065.874.069 1.217.266.316.182.555.192.876.119.22-.05.461-.006.693.009.153.01.317.09.454.056 1.238-.313 2.502-.255 3.76-.318.854-.043 1.725-.035 2.537-.425.314-.152.76-.299 1.043-.189.54.21.802-.074 1.127-.35.117-.099.24-.203.38-.26.865-.357 1.622-.902 2.542-1.194.92-.294 1.723-.954 2.58-1.45 1.244-.72 2.497-1.425 3.728-2.164.375-.226.657-.613 1.043-.806a26.207 26.207 0 012.644-1.149c.352-.13.777-.071 1.17-.09.365-.018.738.012 1.095-.05a1.01 1.01 0 00.567-.333c.431-.535.474-1.138.241-1.818l-.744.254c-.182-.318-.346-.606-.484-.844-.735-.314-1.393-.112-1.997.215-.736.396-1.457.833-2.138 1.318a45.578 45.578 0 01-3.418 2.212c-.345.204-.681.378-1.146.029.465-.356.873-.7 1.316-.997.562-.377 1.166-.69 1.724-1.07 1.036-.71 2.026-1.485 3.088-2.151.494-.31 1.106-.44 1.67-.636.166-.058.352-.06.605-.098-.285-1.064-.233-2.177-.818-3.146a1.467 1.467 0 01-.162-.44c-.298-1.37-.63-2.736-.87-4.117-.178-1.018-.381-2.04-.842-2.95-.306-.602-.522-1.183-.569-1.836-.03-.427.096-.897-.46-1.117-.06-.023-.072-.183-.092-.283a90.092 90.092 0 01-.316-1.599c-.042-.227-.038-.437-.317-.57-.472-.226-.603-.657-.62-1.167-.018-.565-.007-1.173-.216-1.678-.217-.526-.451-1.04-.581-1.597-.029-.118-.118-.228-.196-.329-.17-.22-.35-.43-.555-.682-.906-.223-.966-.285-1.32-1.466.131-.168.303-.336.415-.537.29-.521.345-1.124.071-1.611-.193-.345-.337-.64-.258-1.007.079-.364-.037-.585-.348-.787-.153-.1-.345-.373-.302-.493.128-.359-.098-.52-.268-.742-.11-.144-.237-.31-.259-.48-.106-.798-.641-1.403-.954-2.106-.313-.704-.902-1.294-.843-2.144.006-.086-.06-.237-.126-.257-.33-.107-.3-.394-.375-.635-.038-.123-.083-.305-.172-.34-.614-.232-.508-.749-.577-1.23-.048-.338-.16-.752-.397-.959-.488-.426-.728-.895-.688-1.527.006-.093-.049-.27-.096-.276-.425-.064-.405-.416-.542-.702-.47-.968-.89-1.948-1.192-2.984-.217-.743-.34-1.546-.875-2.151-.577-.65-.68-1.397-.572-2.196.015-.113.04-.212.033-.308a.272.272 0 01-.158.11c-.088.028-.307-.16-.368-.295-.218-.483-.406-.98-.578-1.483-.05-.145-.006-.323-.004-.486l.203-.016.188.415c.146.32.29.642.44.96.046-.183.17-.38.317-.608.417.746.817 1.381 1.136 2.053.378.797.689 1.623 1.023 2.44.66 1.609 1.292 3.228 2.08 4.784.186.369.288.78.46 1.158.314.684.667 1.352.977 2.038.321.708.577 1.448.927 2.142.351.695.569 1.44.984 2.119.663 1.086 1.192 2.255 1.75 3.4.204.419.318.879.495 1.31.196.475.384.956.633 1.403.528.945 1.506 1.193 2.455 1.284.823.08 1.67-.109 2.509-.164.434-.03.87-.03 1.459-.048.086-.209.207-.541.359-.86.222-.468.497-.914.694-1.392a50.52 50.52 0 00.87-2.323c.32-.905.751-1.796.905-2.73.318-1.942 1.212-3.767 1.171-5.775 0-.075.037-.153.065-.226.349-.907.436-1.853.467-2.814.013-.35.23-.694.242-1.044.03-1.003 0-2.007.002-3.012 0-.618.009-1.238.025-1.857.014-.516 0-1.039.086-1.544.053-.322.04-.562-.081-.88-.168-.443-.154-.957-.195-1.442-.027-.306.017-.62-.022-.922-.109-.868-.037-1.756-.301-2.606-.022-.074-.022-.154-.026-.233-.036-.804-.056-1.61-.11-2.412-.039-.572-.1-1.143-.194-1.708-.113-.69-.268-1.375-.41-2.061-.14-.683-.261-1.368-.434-2.041-.315-1.237-.669-2.464-.992-3.699-.092-.351-.065-.746-.209-1.07-.46-1.041-.826-2.172-1.513-3.051-.566-.727-.59-1.758-1.437-2.287-.08-.05-.056-.247-.103-.366-.198-.51-.283-1.14-.642-1.492-.395-.389-.773-.746-1.022-1.245-.148-.298-.357-.568-.56-.835-.125-.163-.299-.429-.434-.419-.845.057-1.035-.665-1.281-1.15-.18-.355-.362-.588-.685-.769-.703-.395-1.38-.848-2.108-1.186-.908-.422-1.795-.954-2.861-.903-.363-.373-.725.05-1.096.005-.57-.069-1.151-.134-1.722-.097-.565.038-1.257.038-1.655.35-.695.548-1.489.585-2.26.788-.014.004-.05-.07-.127-.182l.814-.257c.065-.4.294-.661.74-.775a4.64 4.64 0 001.141-.468c.751-.43 1.519-.383 2.312-.182.096.024.212.041.302.01 1.1-.36 2.161-.097 3.184.266.773.274 1.504.676 2.242 1.04.12.06.22.213.274.346.212.52.578.827 1.144.912.153.022.335.05.441.144.607.535 1.232 1.058 1.78 1.65.78.84 1.45 1.783 2.258 2.593.48.48.807.991 1.049 1.606.24.616.513 1.23.86 1.789.437.705.903 1.384 1.088 2.208.034.148.1.291.161.433.202.476.513.935.59 1.43.12.782.48 1.469.712 2.204.11.348.224.698.285 1.055.148.868.264 1.74.394 2.61.02.129.017.271.074.382.491.949.635 1.97.687 3.017.012.259.102.513.132.772.076.642.14 1.288.206 1.931.026.257.052.514.075.77.094 1.059.198 2.117.278 3.177.069.928-.174 1.864.06 2.793.049.194.081.476-.023.604-.38.48-.228.986-.182 1.496.014.152.067.354-.007.45-.512.657-.277 1.311-.044 1.977.049.142.133.337.077.44-.283.52-.095 1.02.009 1.527.087.423.116.801-.272 1.142-.149.133-.252.54-.16.679.512.751-.004 1.483-.008 2.213-.003.573-.348 1.137-.49 1.718-.283 1.161-.528 2.33-.793 3.496-.104.455-.186.919-.339 1.358-.625 1.798-1.123 3.638-1.96 5.362-.81 1.664-1.54 3.364-2.313 5.043-.188.41-.365.459-.917.287l1.297-3.183c-.05-.04-.1-.08-.15-.118-.229.127-.445.283-.686.374-.978.376-1.963.735-2.947 1.092-.647.235-.77.575-.419 1.194.128.226.26.454.353.694.36.923.7 1.853 1.06 2.775.31.798.686 1.575.943 2.389.175.546.378 1.046.696 1.532.292.445.462.98.62 1.495.09.296.109.582.358.832.189.189.263.498.364.762.412 1.074.785 2.158.843 3.388-.463-.212-.86-.417-.934-.96-.017-.126-.047-.277-.127-.364-.739-.802-.718-1.975-1.405-2.805-.082-.099-.038-.34.014-.495.106-.316.019-.558-.212-.77-.095-.087-.234-.147-.288-.252-.415-.818-.814-1.644-1.294-2.62.003.592-.065 1.03.288 1.462.228.282.328.72.351 1.096.03.46.16.904.216 1.354.09.703.447 1.374.699 2.056.044.119.097.267.194.329.59.375.763 1.026 1.067 1.58.511.93.977 1.886 1.43 2.847.487 1.034.937 2.087 1.403 3.133.18.4.331.817.546 1.199.074.131.287.226.452.258.308.06.63.044.94.095.295.047.582.14.872.213v.176c-.403.109-.806.219-1.214.328.147.276.273.47.356.68.22.565.528.786 1.159.785.716 0 1.4-.12 2.07-.648.17.316.336.595.475.886.121.255.317.313.492.13.616-.653 1.326-1.14 2.138-1.544.788-.391 1.484-.961 2.242-1.416.264-.157.557-.264.847-.375.176-.46.266-1.052.712-1.202.097-.031.207.014.317.023l-.134.803 1.636-.704c.094-.04.202-.048.297-.09.64-.276 1.375-.441 1.896-.864.713-.58 1.546-.876 2.32-1.306.18-.1.355-.213.519-.338.306-.236.594-.496.903-.729.674-.51 1.454-.84 2.077-1.469.94-.944 1.896-1.853 2.652-2.96.193-.282.177-.496-.075-.833.537.176.719-.073.879-.364.325-.595.654-1.188.979-1.783.436-.798.89-1.587 1.301-2.397a52.78 52.78 0 001.197-2.541 274.339 274.339 0 002.032-4.736c.26-.623.407-1.296.695-1.904.58-1.23 1.042-2.49 1.325-3.818.27-1.27.601-2.527.893-3.794.298-1.29.61-2.578.86-3.88.182-.944.27-1.905.405-2.86.117-.822.263-1.642.358-2.469.056-.489.025-.988.053-1.482.115-2.016.4-4.022.348-6.051a211.102 211.102 0 01-.057-5.38c-.002-1.955.032-3.908.037-5.861 0-.49-.045-.982-.07-1.473-.037-.701-.081-1.403-.111-2.103-.063-1.457-.05-2.92-.192-4.37-.186-1.918-.519-3.821-.737-5.737-.126-1.107-.145-2.225-.226-3.336-.014-.174-.088-.347-.155-.511-.32-.783-.776-1.512-.885-2.376-.064-.513-.188-1.018-.281-1.528-.357-1.933-1.027-3.779-1.681-5.622-.67-1.887-1.466-3.73-2.201-5.593a1.531 1.531 0 01-.125-.452 2.825 2.825 0 00-.511-1.448 2.125 2.125 0 01-.287-.555c-.639-2.015-1.857-3.72-2.98-5.477-.477-.745-.977-1.475-1.461-2.217-.784-1.2-1.477-2.471-2.363-3.592-1.422-1.795-2.952-3.507-4.474-5.222-1.038-1.168-2.248-2.161-3.485-3.118-.493-.38-1.005-.735-1.509-1.1-.21-.152-.422-.302-.636-.448-.386-.263-.776-.52-1.162-.784-.257-.175-.51-.357-.765-.535-.429-.3-.825-.668-1.294-.887-1.419-.663-2.908-1.142-4.436-1.502a4.53 4.53 0 01-.737-.265c-.288-.123-.59-.16-.889-.225-.52-.113-1.029-.03-1.533-.1-.828-.115-1.649-.27-2.473-.4-.542-.085-1.108-.085-1.624-.245-1.336-.417-2.708-.502-4.087-.541-.468-.014-.947.06-1.408.153-1.378.278-2.618 1.113-4.1.984-.114-.01-.244.089-.36.15-.457.243-.888.56-1.373.722-.686.23-1.411.35-1.988.486-.651.42-1.225.773-1.78 1.156-.402.278-.803.568-1.158.902-.402.377-.755.807-1.122 1.22-.357.403-.738.79-1.046 1.227-.478.677-.902 1.39-1.354 2.085-.31.48-.674.931-.934 1.436-.402.786-.729 1.607-1.101 2.408-.308.66-.553 1.369-.973 1.953-.5.697-.73 1.533-1.27 2.197-.096.119-.16.275-.196.424-.191.782-.363 1.568-.552 2.35-.41 1.702-1.026 3.36-1.074 5.14-.009.324-.244.638-.287.967-.134 1.027-.213 2.06-.702 3.005a.597.597 0 00-.057.224c-.072.877-.21 1.74-.476 2.581-.11.346-.25.684-.324 1.037-.1.482-.133.979-.226 1.463-.114.59-.13.587.294 1.028L60.53 61.97c.146.405.319.836.454 1.28.056.182.102.416.032.577-.24.557-.246.536.166.932.174.167.35.391.4.617.097.454.198.825.723 1 .342.113.32.316.034.635-.06.067-.093.157-.179.306.557.084.655.427.65.86-.003.173.055.368.142.52.404.704.415 1.488.55 2.222.184.155.383.32.454.528.45 1.321.863 2.655 1.312 3.978.047.135.244.221.463.41.138-.725.233-1.336.37-1.935.139-.605.307-1.205.488-1.798.05-.166.16-.367.3-.438.426-.217.557-.597.687-1 .11-.335.316-.58.808-.619-.028.45.04.889-.103 1.246-.175.436-.537.797-.796 1.203-.08.124-.09.291-.132.439-.07.247-.15.493-.21.742-.048.197-.09.396-.104.596-.016.207.08.455-.004.618-.467.909-.083 1.978-.58 2.878-.05.092-.002.26.046.375.495 1.176 1.011 2.343 1.267 3.602.025.125.11.236.155.359.31.882.697 1.75.896 2.656.116.526.283 1.004.56 1.437a9.412 9.412 0 011.277 3.014c.287 1.283.825 2.472 1.281 3.691.217.582.549 1.12.766 1.702.164.44.358.896.257 1.427-.394-.06-.404-.363-.504-.58-.314-.678-.65-1.347-.908-2.046-.187-.509-.44-.979-.663-1.465-.317-.693-.465-1.463-.692-2.198a.71.71 0 00-.17-.258c-.63-.666-.924-1.504-1.237-2.337-.153-.41-.371-.795-.536-1.2-.196-.477-.376-.939-.392-1.489-.017-.563-.281-1.12-.444-1.677-.011-.042-.07-.087-.114-.102-.48-.165-.57-.592-.661-.996-.222-.991-.412-1.991-.628-2.984-.141-.646-.264-1.306-.787-1.88-.537.721.31 1.44-.137 2.162-.115-.17-.216-.278-.27-.407-.502-1.185-.77-2.462-1.432-3.585-.075-.128-.073-.3-.101-.454-.136-.741-.127-1.553-.446-2.208-.39-.801-.024-1.772-.693-2.464-.023-.025.016-.103.007-.153-.036-.227-.052-.46-.124-.677-.17-.511-.466-1-.527-1.52-.113-.955-.708-1.647-1.133-2.435a2.823 2.823 0 01-.238-.654c-.12-.477-.153-.988-.345-1.433-.348-.802-.695-1.619-1.518-2.11a28.6 28.6 0 01-2.024-1.342c-.635-.46-1.208-1.011-1.86-1.444-.98-.651-1.977-1.286-3.02-1.831-1.01-.527-1.9-1.201-2.806-1.87-.436-.32-.947-.546-1.435-.791a224.652 224.652 0 00-3.153-1.554 4.78 4.78 0 00-.787-.307c-.774-.218-1.552-.42-2.329-.62-.783-.199-1.561-.437-2.356-.564-.713-.114-1.447-.135-2.17-.133-.661.002-1.321.09-1.98.144-1.39.113-2.777.23-4.166.346-.21.018-.428.092-.628.056-.611-.109-1.132.13-1.675.334-.562.212-1.134.427-1.722.521-.364.059-.702.061-1 .324-.15.133-.368.206-.566.27-1.447.469-2.897.929-4.346 1.395a1.58 1.58 0 00-.427.188c-.62.437-1.204.93-1.851 1.32-.842.508-1.505 1.298-2.51 1.545-.094.023-.17.12-.252.186-.733.588-1.518 1.126-2.187 1.779-.992.97-1.98 1.962-2.824 3.053-.973 1.254-1.788 2.626-2.67 3.947-.188.284-.4.557-.55.86-.365.74-.707 1.494-1.045 2.246-.35.782-.74 1.553-1.016 2.36-.326.955-.535 1.95-.822 2.918-.466 1.58-.503 3.227-.794 4.834-.124.688-.034 1.43-.244 2.082-.436 1.352-.409 2.756-.578 4.132-.179 1.462-.473 2.915-.438 4.408.027 1.138-.117 2.278-.13 3.418-.008.568.234 1.162.131 1.7-.166.87-.038 1.712.012 2.561.048.85-.018 1.732.483 2.506a.58.58 0 01.064.374 4.843 4.843 0 000 1.58c.022-.061.048-.123.078-.188.661.596.637 1.438.623 2.284l-.003-.005zm113.632 29.116l.163.479c-.19.038-.36.123-.51.09-.635.911-1.28 1.815-1.94 2.71a179.072 179.072 0 01-2.673 3.556 4.392 4.392 0 01-.93.915c-.993.691-1.978 1.412-3.041 1.987-1.401.756-2.831 1.483-4.447 1.75-.556.093-1.09.317-1.64.446-.353.084-.723.12-1.038-.133-.03-.709-.03-.71.566-.849.203-.047.406-.117.611-.126 1.115-.042 2.124-.43 3.122-.875.8-.357 1.615-.683 2.413-1.046.325-.148.642-.334.929-.547 1.006-.746 2.213-1.236 2.989-2.28.596-.803 1.214-1.59 1.833-2.375.49-.62.966-1.253 1.502-1.832.452-.488.887-.98 1.266-1.52-.105-.103-.174-.255-.17-.49.003-.289.232-.396.801-.425l.037.108c.04-.036.08-.071.119-.108l.201.127c-.06.142-.105.294-.163.438zm4.543-8.984l.071-.36c-.02.12-.043.24-.07.36-.207 1.06-.404 2.124-.69 3.16-.44 1.584-1.024 3.123-1.528 4.69a4.447 4.447 0 00-.2 1.052c-.019.305-.043.56-.355.659-.61-.438-.48-.965-.29-1.5.383-1.08.8-2.15 1.172-3.235zm.003-1.857c.085.022.17.047.255.07l-.031.232a.699.699 0 00-.224-.302zm-61.956 35.798c.222.037.445.07.668.099a3.903 3.903 0 01-.205-.355 1.318 1.318 0 01-.463.256zM87.287 131.3l.129-.038c-.035-.121-.07-.241-.11-.36 0-.002-.086.024-.132.037l.113.361zM37.668 48.236l.783-.159c-.028.474-.028.474-.783.159zm49.377 82.462c-.408-.38-.434-.764-.457-1.164.52.07.52.07.457 1.164zM30.822 48.553c.03-.058.058-.117.086-.175-.172-.112-.386-.352-.51-.314-.431.14-.987.066-1.306.606.64.194 1.182.008 1.73-.117zm5.649-.34c-.054-.37-.174-.584-.563-.548-.202.018-.461.027-.608-.079-.484-.346-.958-.123-1.438-.053-.255.036-.503.128-.76.147-.438.035-.72.227-.83.658.797.224 3.665.148 4.199-.125zm56.173 98.617c-.28-.62-.53-1.16-.77-1.705-.27-.617-.54-1.234-.795-1.857-.177-.432-.423-.87-.46-1.318-.034-.414-.233-.443-.581-.54.487 1.918.98 3.755 1.549 5.582l1.057-.162zM38.328 5.447c0 .029-.013.11.003.185.25 1.134.691 1.414 1.84 1.179.336-.069.684-.088 1.014-.172.629-.162 1.304-.275 1.418-1.108.017-.13.196-.234.286-.359.121-.167.31-.337.325-.517.042-.53.319-.914.652-1.286.06-.066.092-.158.118-.203-.632-.011-1.225-.08-1.803-.015-.495.056-1.027.113-1.448.43-.781.59-1.548 1.199-2.405 1.866zm20.625 41.898c-.523-.202-.789.072-1.079.474-.299.414-.71.76-1.116 1.084-.796.635-.914 1.125-.422 2.012.291.526.612 1.04.851 1.588.437 1.003.815 2.03 1.229 3.04.109.266.258.514.385.772.126.261.247.523.37.786l.184-.047c-.002-.249.031-.503-.012-.745-.26-1.461-.54-2.919-.802-4.38a27.534 27.534 0 01-.274-1.856c-.033-.305.086-.546.486-.555l1.705 6.268c.329-.217.377-.524.383-.874.008-.568.015-1.124.237-1.683a8.982 8.982 0 00.538-2.027c.087-.611-.007-1.245.378-1.8.077-.112.064-.306.05-.458-.07-.726.103-1.385.47-2.015.304-.523.463-1.074.412-1.71-.044-.557.093-1.127.16-1.768-.484-.317-.175-.914-.22-1.485-.687.22-.904.714-1.036 1.284-.183.786-.375 1.57-.574 2.352-.086.338-.252.624-.593.748-.489-.203-.434-.586-.361-.943.116-.568.272-1.128.416-1.715-.793-.212-1.18.413-1.877.527.53 1.03.882 2.028.112 3.126zM39.01 48.37l-.05.23c.302.124.595.286.908.366.406.102.826.153 1.243.206 1.611.202 3.042.972 4.578 1.417.2.057.4.143.578.251 1.21.736 2.425 1.461 3.614 2.226 1.744 1.119 3.468 2.267 5.2 3.405.785.513 1.562 1.038 2.354 1.539.28.177.598.297 1.047.516-.357-.957-.64-1.76-.96-2.552-.262-.651-.595-1.274-.845-1.929-.298-.777-.522-1.582-.822-2.358-.094-.25-.285-.526-.511-.65-.593-.329-1.075-.748-1.43-1.315-.233-.37-.463-.741-.715-1.144-.975.123-1.958.233-2.935.378-.217.032-.415.192-.618.29.202.828 1.046 1.308 1.022 2.208-.414.103-.609-.128-.809-.376-.394-.487-.796-.97-1.202-1.447a1.023 1.023 0 00-.904-.379c-.678.048-1.366.142-2.036.078-.673-.064-1.443.08-1.96-.561-.579.129-.575.123-1.125-.11a1.877 1.877 0 00-.592-.163c-.864-.065-1.731-.107-2.597-.152-.144-.007-.289.017-.433.026zm17.463-3.198c.166-.335.108-.76-.05-1.193-.08-.217-.116-.45-.175-.675-.185-.728-.367-1.456-.56-2.181-.113-.428-.332-.848-.355-1.278-.075-1.472-.846-2.669-1.532-3.887-.377-.667-.932-1.234-1.393-1.857-.088-.12-.115-.288-.158-.437a48.104 48.104 0 01-1.255-5.623c-.194-1.189-.37-2.352-.977-3.418-.307-.54-.552-1.118-.807-1.686-.349-.776-.8-1.513-.863-2.395-.098-1.399-.677-2.674-1.088-3.991-.403-1.292-.87-2.573-1.15-3.89-.207-.982-.17-2.018-.228-3.029-.04-.672.011-1.356-.103-2.014-.121-.704-.39-1.382-1.049-1.802-.594.392-.71.895-.635 1.526.126 1.06.186 2.127.26 3.192.015.185-.035.375-.055.563-.076.014-.154.026-.231.039-.338-1.055-.48-2.177-.948-3.25l-1.261.271c.136.41.28.719.34 1.043.235 1.258.539 2.494.977 3.7.106.292.174.605.216.913.02.149-.062.31-.097.465l-.162.027c-.095-.165-.217-.32-.28-.496-.339-.953-.619-1.927-1.008-2.858-.294-.71-.423-1.496-.923-2.114-.07-.086-.238-.093-.447-.167.058.255.082.406.128.55.391 1.213.796 2.422 1.174 3.637.1.318.07.677.184.986.415 1.124.858 2.237 1.305 3.347.129.32.204.628.086.995-.381-.044-.518-.329-.625-.567-.524-1.182-1.047-2.367-1.514-3.571-.376-.97-.642-1.98-1.012-2.952-.23-.607-.555-1.178-.848-1.76-.183-.363-.434-.608-.887-.683-.52-.086-.885-.384-.972-.98-.067-.473-.264-.927-.438-1.504-.177.434-.313.792-.47 1.142-.4.908-.29 1.843-.009 2.727.342 1.075 1.072 1.946 1.774 2.826.502.63.984 1.303 1.32 2.028.47 1.013.8 2.091 1.18 3.144.462 1.275.871 2.571 1.39 3.823.382.93.928 1.792 1.357 2.704.497 1.06 1 2.107 1.969 2.845.101.078.173.197.253.3.511.658.966 1.367 1.541 1.963 1.048 1.087 1.303 2.473 1.623 3.84.07.296.006.621.066.92.08.404.227.794.331 1.194.059.225.06.47.14.688.327.874.677 1.74 1.012 2.61.15.39.248.8.431 1.172.591 1.193 1.19 2.384 1.827 3.552a8.91 8.91 0 001.089 1.61c.173.197.347.345.408.614.029.132.15.245.23.368l1.954-1.066zm39.402 106.84c-.233.075-.455.102-.627.208-1.01.616-2.145.492-3.224.46-1.746-.051-3.329.32-4.767 1.293-.507.342-1.098.588-1.424 1.152-.026.044-.066.104-.107.111-.738.12-1.168.81-1.892.983-.338.08-.649.315-.95.513-1.361.888-2.85 1.51-4.358 2.098-.387.152-.734.406-1.11.594-.23.117-.483.191-.72.298-.317.142-.705.099-.946.463-.105.157-.419.221-.646.25-.864.105-1.73.179-2.596.265-.365.035-.731.087-1.099.108-.547.033-1.095.041-1.643.068-.409.02-.818.035-1.225.084-1.032.125-2.024-.072-3.028-.286-.844-.179-1.716-.23-2.573-.355-.435-.063-.862-.175-1.295-.25-1.176-.2-2.358-.373-3.53-.59-1.102-.204-2.198-.446-3.293-.683-.204-.044-.396-.139-.591-.218-.799-.325-1.597-.651-2.393-.98-1.085-.45-2.174-.892-3.25-1.36a90.96 90.96 0 01-3.281-1.488c-.469-.225-.888-.55-1.337-.816-.174-.102-.36-.212-.554-.247a5.23 5.23 0 01-2.52-1.188c-.154-.132-.362-.204-.544-.307-.425-.24-.924-.346-1.186-.854-.101-.191-.38-.441-.742-.268-.116.056-.322.021-.445-.048-.893-.492-1.77-1.01-2.659-1.51-.337-.188-.729-.298-1.03-.528a31.738 31.738 0 01-2.065-1.697 56.63 56.63 0 01-2.272-2.171c-.931-.935-1.828-1.903-2.758-2.842-.524-.527-1.103-1.003-1.626-1.532-.91-.92-1.787-1.869-2.693-2.79-.723-.737-1.472-1.448-2.201-2.177-.39-.389-.76-.795-1.147-1.185-.425-.424-.868-.831-1.29-1.257a9.693 9.693 0 01-.791-.863c-.809-1.041-1.693-2.01-2.7-2.866-.12-.102-.23-.22-.322-.346-.456-.626-.898-1.264-1.36-1.886-.123-.166-.299-.29-.447-.438-.223-.22-.491-.412-.654-.67-.53-.842-1.173-1.58-1.882-2.28-.379-.373-.629-.877-.921-1.333-.338-.525-.654-1.064-.987-1.592-.75-1.185-1.542-2.347-2.243-3.56-.307-.533-.429-1.17-.643-1.756-.062-.169-.111-.368-.231-.487-.433-.426-.66-.93-.734-1.523-.014-.109-.134-.205-.205-.306-.1-.147-.267-.286-.29-.444-.183-1.31-.904-2.427-1.303-3.654-.23-.707-.282-1.471-.401-2.21-.097-.59-.129-1.192-.27-1.77-.198-.807-.484-1.594-.709-2.395-.082-.292-.104-.602-.144-.904-.013-.101.022-.21.003-.308-.159-.883-.333-1.763-.489-2.646C.377 98.312.04 97.56.21 96.722c.058-.284-.139-.608-.16-.917a23.378 23.378 0 01-.04-1.629c0-1.475-.039-2.952.033-4.423.049-1.03.09-2.074.511-3.062.136-.318.09-.718.103-1.08.036-1.109.032-2.22.103-3.326.029-.46.224-.905.317-1.363.113-.55.199-1.107.294-1.661.013-.077-.006-.163.024-.23.372-.87.188-1.799.321-2.69.123-.817.338-1.624.553-2.424a77.86 77.86 0 011.052-3.638c.225-.7.24-1.486.86-2.045.17-.154.25-.475.257-.721.012-.437.204-.796.514-1.016.715-.509 1.063-1.257 1.499-1.96.215-.346.513-.643.772-.964.065-.08.151-.16.177-.255.248-.906.917-1.569 1.397-2.338.342-.55.803-1.029 1.222-1.53.365-.436.782-.835 1.107-1.298.23-.327.502-.41.87-.349.288-.83.819-1.409 1.533-1.863.592-.375 1.133-.83 1.691-1.256.078-.06.162-.154.18-.244.095-.456.44-.459.783-.428.364-.738.836-1.299 1.568-1.705 1.091-.606 2.113-1.335 3.156-2.025.171-.113.287-.304.443-.442.486-.435.974-.867 1.47-1.288.402-.342.787-.713 1.232-.987.689-.425 1.413-.797 2.141-1.154.588-.288 1.215-.455 1.861-.6.654-.148 1.25-.534 1.883-.785.204-.08.503-.16.663-.073.566.312 1.128.175 1.693.087.95-.15 1.847-.198 2.67.49.488.406 1.155.412 1.797.377.356-.02.718.053 1.076.093.073.009.155.095.214.077.972-.275 1.907.193 2.87.137.245-.014.496.172.75.193 1.162.1 2.319.278 3.496.087.418-.067.878.012 1.3.106.36.079.69.21 1.072.082.161-.053.358.006.54.01.223.005.447.003.67.008.387.007.775.033 1.16.019.285-.01.582-.03.846-.121.443-.153.865-.368 1.387-.598-.304-.46-.596-.879-.863-1.313-.218-.354-.417-.72-.604-1.092-.64-1.28-1.326-2.543-1.889-3.858-.46-1.073-.76-2.213-1.146-3.318-.247-.713-.57-1.404-.764-2.131-.173-.648-.133-1.356-.337-1.991a5.605 5.605 0 00-.895-1.7c-.763-.982-1.616-1.898-2.432-2.842-.084-.1-.186-.19-.244-.303-.814-1.599-1.69-3.171-2.408-4.811-.574-1.31-.908-2.72-1.428-4.055-.727-1.866-1.368-3.776-2.786-5.306-.562-.606-.98-1.349-1.427-2.052-.46-.72-.474-1.513-.331-2.334.127-.736.172-1.476.177-2.23.01-1.087.415-2.162 1.23-2.863.575-.495 1.316-.897 2.117-1.147.57-.177 1.03-.688 1.553-1.027.282-.182.588-.33.897-.467.43-.19.878-.348 1.312-.534.707-.303 1.449-.222 2.185-.202a.476.476 0 01.284.124c.98.959 2.08 1.788 2.344 3.305.175 1 .354 2.022.768 2.992.247.578.24 1.277.279 1.926.06 1.039.054 2.081.092 3.122.01.278.062.558.116.832.131.663.257 1.33.424 1.984.07.271.254.51.363.774.505 1.224 1.108 2.412 1.385 3.72.082.382.173.761.233 1.146.196 1.222.832 2.286 1.266 3.42.306.802.733 1.56 1.003 2.371.27.81.441 1.656.606 2.495.25 1.274.431 2.562.7 3.831.076.364.333.697.537 1.026.412.665.849 1.315 1.264 1.978.123.196.194.424.315.625.692 1.15 1.034 2.442 1.473 3.69.318.904.532 1.843.788 2.748.475.063.713-.116.84-.431.178-.443.526-.667.925-.903a4.97 4.97 0 001.197-1.003c.77-.878 1.491-1.8 2.219-2.713.21-.263.36-.571.567-.837.24-.304.504-.591.77-.875.412-.438.837-.865 1.251-1.3.485-.509.894-1.123 1.46-1.51 1.016-.693 1.583-1.812 2.598-2.49.183-.122.27-.38.408-.571.107-.146.207-.385.342-.408.623-.112.78-.642 1.077-1.058.494-.692 1.192-1.185 1.936-1.534 1.46-.684 2.994-1.195 4.531-1.695.82-.267 1.619-.611 2.405-.967 1.021-.463 2.117-.53 3.2-.682.362-.05.717-.166 1.078-.23.171-.03.45-.082.514.002.257.332.565.222.867.173 1.184-.192 2.326.036 3.495.204 1.015.146 2.041.282 3.031.504 1.09.245 2.173.154 3.255.238.817.063 1.538.263 2.152.817.148.135.367.267.556.27.663.01 1.19.288 1.706.663.189.137.491.111.715.217.362.17.745.338 1.043.595.595.51 1.133 1.082 2.007 1.091.13.001.353.13.375.234.158.708.798.873 1.317 1.076.758.296 1.27.815 1.694 1.443.227.336.482.564.848.759.448.24.816.627 1.21.961.236.2.451.423.68.63.057.051.151.068.196.125.606.774 1.205 1.552 1.806 2.33.063.082.096.222.176.254.96.378 1.384 1.317 2.071 1.975.629.603 1.226 1.263 1.58 2.118.22.532.733.939 1.052 1.44.585.923 1.122 1.875 1.68 2.814.09.154.192.3.278.456.216.387.703.637.593 1.195-.015.073.152.183.238.272.45.467.96.896 1.007 1.615.005.084.089.185.165.236.434.293.682.716.846 1.189.323.925.913 1.756.986 2.768.005.074.02.173.07.215.718.602.788 1.505 1.1 2.295.39.992.815 1.97 1.196 2.964.86 2.24 1.76 4.467 2.216 6.835.045.23.068.47.144.691.681 2.012.982 4.112 1.374 6.184.464 2.454.744 4.943 1.068 7.422.17 1.292.304 2.59.384 3.89.096 1.558.15 3.12.163 4.679.023 2.622.008 5.245-.004 7.866-.012 2.602-.012 5.205-.073 7.806a58.704 58.704 0 01-.292 4.75c-.156 1.468-.429 2.926-.682 4.384a60.116 60.116 0 01-.622 3.056c-.167.728-.398 1.44-.587 2.163-.14.528-.324 1.055-.375 1.592-.122 1.284-.727 2.421-1.038 3.645-.323 1.268-.942 2.419-1.399 3.633-.373.994-.63 2.038-1.064 3.006-.532 1.194-.872 2.482-1.727 3.53-.22.27-.27.67-.44.988-.445.823-.912 1.636-1.372 2.45-.399.705-.71 1.481-1.226 2.088-.7.825-1.108 1.872-2.046 2.529-.428.3-.737.784-1.053 1.218-.3.41-.698.677-1.088.984-.689.542-1.451.958-2.18 1.425-.277.177-.634.23-.913.405-.366.228-.683.533-1.038.78a7.16 7.16 0 01-.993.6c-.42.2-.873.326-1.3.514-.864.38-1.72.779-2.58 1.17-.45.207-.894.427-1.352.616-1.305.542-2.62 1.062-3.92 1.615-.255.108-.492.3-.683.504-.555.595-1.352.735-2.025 1.106-.126.07-.265.117-.395.183-.411.215-.807.466-1.234.643-.808.335-.816.317-1.38-.4zm12.574-109.36c-.573.098-.884-.44-1.247-.897l-.856-1.079c-.063-.08-.186-.148-.193-.23-.063-.704-.656-.972-1.053-1.4-.204-.221-.434-.423-.602-.67-.101-.15-.109-.37-.162-.57.561-.266.93-.086 1.256.305.664.803 1.327 1.605 2.002 2.398.443.521.912 1.017 1.355 1.54.358.425.694.872 1.037 1.312.765.98 1.531 1.958 2.29 2.944.138.181.351.396.342.583-.033.59.404.856.701 1.195.678.774 1.193 1.652 1.617 2.585.314.693.532 1.434.828 2.137.308.732.69 1.43.98 2.168a90.241 90.241 0 011.476 3.979c.556 1.632 1.065 3.282 1.58 4.93.27.872.521 1.75.75 2.635.047.183-.016.412-.077.604-.09.285-.435.341-.573.074-.197-.382-.39-.795-.453-1.214-.093-.633-.346-1.165-.636-1.714a12.09 12.09 0 01-1.114-3.118c-.108-.506-.15-1.032-.307-1.52-.168-.531-.432-1.032-.659-1.542-.073-.166-.202-.313-.24-.484-.142-.636-.44-1.199-.734-1.765-.082-.16-.18-.33-.194-.503-.06-.7-.483-1.218-.776-1.81-.43-.872-.793-1.782-1.141-2.694-.242-.63-.54-1.205-1.049-1.64-.315-.272-.49-.623-.688-.99a50.519 50.519 0 00-1.846-3.102c-.27-.424-.659-.765-.94-1.181-.248-.365-.421-.783-.674-1.266zM62.602 79.71c-.347-.141-.515-.186-.656-.273-.78-.48-1.55-.976-2.334-1.453a.96.96 0 00-.438-.11c-.777-.037-1.557.156-2.335-.178-.327-.14-.807-.11-1.151.02-.79.301-1.56.051-2.335.058-.993.008-2.007-.136-2.93.4a.326.326 0 01-.148.05c-1.085.004-1.937.711-2.925.978-1.063.287-1.736 1.124-2.626 1.643-.11.065-.199.172-.287.271-.46.515-.94 1.015-1.371 1.555-.53.665-.999 1.375-1.351 2.156-.066.145-.114.31-.216.423-.83.927-1.097 2.1-1.497 3.233a81.205 81.205 0 00-.543 1.617 3.572 3.572 0 00-.18 1.228c.01.522-.117 1.045-.139 1.57-.049 1.16-.09 2.32-.091 3.48 0 .503-.132 1.048.248 1.495-.14 1.013.224 1.972.356 2.951.192 1.407.582 2.77 1.248 4.047.221.426.262.948.371 1.429.057.255.083.518.13.822l-.487.212c-.053-.097-.12-.164-.12-.231-.004-.345.02-.688.01-1.032-.005-.21 0-.449-.097-.62-.264-.47-.58-.91-.876-1.359-.418-.637-.792-1.246-.553-2.102.106-.38-.107-.872-.242-1.29-.132-.406-.247-.756-.108-1.219.117-.387.018-.868-.076-1.286-.133-.59-.354-1.157-.526-1.738-.035-.119-.058-.272-.013-.379.37-.887-.155-1.8.096-2.688-.372-.96.03-1.872.193-2.792.08-.46.318-.891.446-1.345.084-.3.132-.62.135-.931.006-.656.402-1.137.68-1.67.403-.77.82-1.532 1.23-2.297.05-.094.083-.199.147-.282.398-.52.96-.981 1.163-1.569.239-.691.732-1.069 1.183-1.533.344-.357.664-.738 1.015-1.088.222-.22.459-.44.727-.594 1.2-.684 2.365-1.44 3.741-1.77.571-.138 1.047-.552 1.671-.635.618-.083 1.216-.276 1.852-.168.138.024.292-.078.442-.112.124-.03.277-.102.375-.058.514.23 1.01.257 1.513-.023.057-.032.165-.019.228.014.86.462 1.795.228 2.697.3.733.061 1.518-.02 2.188.22.816.293 1.576.803 2.27 1.338.228.175.175.72.296 1.315zm3.478-28.326c.048-.302.072-.485.108-.666.055-.278.223-.58.16-.826-.226-.892.15-1.697.276-2.537.027-.174.098-.377.04-.523-.202-.5-.003-.916.191-1.35.582-1.308 1.171-2.611 1.721-3.93.197-.474.236-1.012.44-1.481.257-.594.557-1.186.934-1.711a48.081 48.081 0 012.174-2.774c.228-.273.566-.469.877-.66.974-.597 1.987-1.13 2.916-1.802.163-.118.395-.142.591-.22.466-.181.935-.357 1.393-.56.43-.19.425-.203.893.156.093-.081.195-.161.288-.25.093-.087.178-.183.27-.277.372.067.657.225.638.593-.016.332-.306.452-.619.505-.18.032-.36.087-.526.162-.98.442-2.012.804-2.912 1.369-.577.362-1.261.61-1.713 1.181-.148.188-.431.286-.671.386-.476.2-.882.477-1.13.932-.455.832-.97 1.613-1.676 2.267-.141.13-.186.364-.271.552-.542 1.184-.963 2.443-1.662 3.529-.49.76-.741 1.574-1.05 2.375-.324.843-.475 1.752-.7 2.633-.102.402-.209.803-.293 1.207-.046.22-.047.449-.07.674-.037.378-.036.775-.617 1.046zM4.255 101.624c-.133-.186-.262-.3-.315-.448a3.932 3.932 0 01-.168-2.018 3.116 3.116 0 00-.059-1.403c-.216-.765-.31-1.56-.168-2.384.139-.798.161-1.621.261-2.43.05-.387.163-.764.242-1.146.032-.152.083-.31.074-.46-.052-.791-.132-1.58-.175-2.373-.017-.313.024-.635.067-.946.052-.366.217-.734.185-1.084-.062-.69.133-1.31.247-1.958.068-.383.057-.783.088-1.174.06-.767.14-1.532.187-2.3a7.641 7.641 0 01.395-1.999c.255-.758.315-1.6.421-2.413.028-.214-.087-.452-.144-.718.123-.164.283-.332.388-.535.089-.172.181-.4.153-.578-.112-.667.039-1.2.506-1.643.098-.093.135-.267.265-.536.101.325.272.586.213.738-.18.47.259.991-.126 1.423-.033.037-.02.165.012.225.29.536.016 1.036-.088 1.535-.15.722-.347 1.43-.525 2.143-.012.051-.008.114-.03.156-.45.817-.45 1.732-.467 2.643-.001.028.002.058-.01.08-.396.801-.217 1.746-.454 2.537-.214.713-.118 1.385-.222 2.064a125.98 125.98 0 00-.43 3.151c-.042.341-.023.691-.054 1.034-.144 1.635-.318 3.267-.433 4.904-.043.604.064 1.219.067 1.829.003.523.176 1.041-.047 1.58-.08.195.01.55.126.763.246.447.117.933.193 1.393.012.075-.082.17-.175.348zm7.436-35.397c-.056-.194-.115-.28-.093-.336.383-.984.818-1.937 1.526-2.737.448-.507.849-1.059 1.298-1.563.398-.446.821-.872 1.26-1.277.421-.389.878-.735 1.317-1.103.481-.403.99-.728 1.588-.964 1.153-.457 2.263-1.024 3.389-1.552 1.099-.515 2.19-1.048 3.292-1.556.86-.397 1.76-.394 2.669-.213.219.043.444.055.66.11.135.034.257.122.385.184-.078.154-.12.35-.241.45-.104.083-.294.065-.448.076-.566.043-1.137.056-1.7.128-.928.12-1.773.422-2.623.886-1.798.984-3.686 1.796-5.537 2.68-.14.067-.287.127-.41.22-.789.595-1.628 1.137-2.336 1.82-.61.589-1.068 1.342-1.595 2.023-.61.788-1.211 1.583-1.838 2.357-.125.156-.346.23-.563.367zm68.537 60.497c-.077-.024-.154-.05-.23-.073-.91.815-1.353 1.846-1.313 3.133.45-.691.914-1.334 1.298-2.024.166-.295.168-.688.245-1.036zm-9.504 6.313c.257.112.415.167.559.248.61.348 1.202.76 1.947.695.23-.02.468-.057.679-.144 1.221-.516 2.196-1.39 2.994-2.433.354-.461.48-1.114.692-1.688.378-1.027.697-2.08 1.125-3.086.411-.964.803-1.126 1.811-.979l.596.091c.155 1.283-.476 2.238-1.064 3.218-.495.82-.93 1.677-1.408 2.508-.453.793-1.582 1.636-2.443 1.883a.743.743 0 00-.348.257c-.763.98-1.77 1.215-2.93 1.106-.55-.05-1.09-.084-1.566-.4-.384-.255-.704-.557-.644-1.276zm-49.857-10.882c-.563.109-.715-.202-.894-.408a78.335 78.335 0 01-1.978-2.348c-.533-.661-1.031-1.349-1.547-2.022-.075-.099-.164-.187-.248-.276-.585-.625-1.244-1.202-1.743-1.884-1.077-1.474-2.071-3.002-3.102-4.506-.239-.35-.548-.668-.721-1.044-.49-1.058-1.284-1.956-1.737-3.026-.161-.38-.196-.808-.311-1.208-.089-.309-.181-.622-.327-.907-.236-.462-.127-.925-.056-1.386.02-.12.175-.22.305-.374.094.146.204.243.216.348.113.999.471 1.918.917 2.823.371.758.653 1.557 1 2.326.556 1.23 1.361 2.326 2.151 3.423.934 1.297 1.915 2.562 2.898 3.825.586.75 1.236 1.457 1.818 2.212.331.428.577.918.875 1.371.122.185.281.349.422.523.661.812 1.32 1.624 2.062 2.538zm4.824 5.732c.15.17.34.318.445.514.495.925 1.252 1.64 1.873 2.462.624.826 1.423 1.535 1.94 2.42.892 1.522 2.146 2.718 3.243 4.053.474.578 1.076 1.044 1.585 1.594.617.663 1.184 1.375 1.797 2.041.364.397.775.747 1.163 1.12.175.167.347.337.52.506l-.082.133c-.117-.017-.259.001-.346-.06-1.112-.799-2.126-1.708-2.997-2.78-.095-.117-.19-.241-.306-.336a7.176 7.176 0 01-1.619-1.82c-.227-.37-.613-.634-.9-.97a242.444 242.444 0 01-2.657-3.168c-.163-.199-.239-.472-.403-.67-.453-.547-.942-1.065-1.396-1.612-.262-.316-.48-.669-.725-1-.338-.458-.67-.92-1.03-1.362a1.204 1.204 0 01-.276-.983l.17-.082zm34.541 22.77c-.986.101-1.97.105-2.952-.113-.707-.157-1.42-.286-2.129-.438-.335-.072-.71-.045-.957-.37-.051-.068-.187-.093-.287-.105-.872-.102-1.574-.576-2.303-1.002-.247-.144-.525-.232-.786-.353-.295-.135-.601-.254-.876-.423-.887-.546-1.786-1.079-2.633-1.681-.546-.387-1-.884-1.596-1.236-.425-.25-.616-.71-.43-.943.172-.216.626-.147 1 .243 1.306 1.368 2.966 2.258 4.519 3.281 1.622 1.068 3.438 1.762 5.331 2.231.57.14 1.12.308 1.734.325.807.02 1.61.249 2.416.387l-.05.196zm-2.267-83.288c-.508-.012-.81-.161-1.04-.478a4.597 4.597 0 00-1.352-1.245c-.462-.282-.854-.714-1.264-1.098-.457-.427-.788-1.047-1.438-1.174-.662-.777-1.56-1.156-2.342-1.73-.661-.486-1.434-.776-2.143-1.18a4.685 4.685 0 01-.803-.61c-.06-.054-.069-.269-.022-.354.046-.08.206-.144.294-.118.272.078.55.169.797.315.603.355 1.19.746 1.783 1.12.468.296.952.561 1.402.888.747.541 1.51 1.067 2.199 1.694 1.203 1.096 2.356 2.261 3.525 3.406.127.125.216.298.404.564zm-44.813 39.964c.1.126.231.243.302.389.285.589.527 1.198.83 1.776.362.688.759 1.36 1.163 2.025.453.744 1.025 1.434 1.377 2.22.447 1 1.17 1.827 1.666 2.793.33.642.779 1.227 1.167 1.842.059.093.075.21.004.374-.278-.37-.552-.744-.835-1.111-.37-.478-.773-.933-1.111-1.431-.368-.54-.654-1.13-1.016-1.674a288.403 288.403 0 00-3.116-4.602c-.393-.568-.698-1.156-.81-1.838-.055-.327-.026-.593.379-.763zm99.283-55.95c-.628-.436-.787-1.084-1.125-1.588-.524-.776-.994-1.59-1.499-2.38a13.029 13.029 0 00-.787-1.122c-.9-1.125-1.82-2.232-2.718-3.357a7.772 7.772 0 01-.765-1.139c-.076-.141-.054-.468.047-.553.143-.12.433-.178.6-.107.215.09.396.312.545.514.338.456.649.933.968 1.403.946 1.394 1.943 2.754 2.821 4.191.71 1.165 1.282 2.42 1.903 3.64.053.104.009.26.01.498zm-45.196 8.05c-.022.115-.02.24-.072.343-.506.964-.721 2.007-.973 3.044-.272 1.118-.633 2.219-.861 3.344-.244 1.2-.39 2.418-.558 3.63-.051.371-.064.743-.468.944-.303.15-.588-.016-.54-.332.233-1.568.301-3.16.894-4.671.247-.63.32-1.315.544-1.955a95.756 95.756 0 011.403-3.739c.098-.246.334-.445.505-.665l.126.057zM10.434 74.22c-.119.727-.193 1.358-.328 1.97-.239 1.089-.574 2.153-.765 3.253-.332 1.911-.595 3.84-.866 5.765-.066.472-.05.96-.079 1.572-.341-.38-.287-.735-.262-1.069.071-.938.19-1.872.226-2.812.05-1.345.28-2.632.702-3.88.06-.175.05-.386.057-.582.005-.152-.04-.312-.016-.459.155-1.058.314-2.116.49-3.169.07-.415.342-.554.84-.59zm39.416 68.774c.214-.38.417-.296.582-.08.586.762 1.3 1.307 2.068 1.766.372.222.742.448 1.122.648 1.12.59 2.214 1.285 3.377 1.716.886.327 1.732.875 2.697.909.152.005.3.174.587.35-.593.27-.986.077-1.374-.038-.73-.218-1.472-.398-2.173-.705-1.006-.436-2.064-.719-2.985-1.42a2.739 2.739 0 00-.99-.486c-.79-.187-1.39-.69-1.908-1.383-.157-.21-.372-.36-.535-.565-.165-.206-.298-.448-.468-.712zm-24.476-10.643l-.693.103c-.402-.504-.893-1.049-1.28-1.655-.12-.189-.242-.294-.398-.434-.555-.504-1.058-1.061-1.566-1.611a.554.554 0 01-.136-.381c.063-.737-.463-1.133-.932-1.575-.26-.244-.487-.52-.716-.792a15.325 15.325 0 01-.73-.912c-.142-.196-.24-.42-.356-.633l-.018.023c.713.043 1 .654 1.43 1.042.535.483.975 1.062 1.433 1.617.208.252.347.554.543.814.23.304.442.654.748.87.68.478 1.179 1.083 1.639 1.747.27.393.653.716.996 1.06.244.246.194.487.018.737l.018-.02zM71.876 40.1c-.06.197-.078.429-.188.585-.61.865-.917 1.884-1.211 2.89-.387 1.32-.688 2.67-.994 4.014-.254 1.11-.458 2.233-.694 3.349-.033.16-.125.308-.324.446-.023-.158-.085-.323-.061-.471.184-1.145.357-2.293.588-3.429.322-1.578.673-3.15 1.044-4.717.227-.96.653-1.822 1.308-2.531.106-.116.26-.182.393-.27l.14.134zM52.168 141.743c.266-.077.431-.188.54-.144 1.122.443 2.234.915 3.35 1.374.146.06.3.108.454.134a15.38 15.38 0 013.631 1.053c.442.19.856.449 1.3.686-.08.1-.117.174-.136.168-.95-.258-1.894-.545-2.848-.781-.884-.218-1.788-.348-2.668-.58-.74-.197-1.449-.537-2.192-.718-.653-.158-.896-.734-1.43-1.192zm-16.265-4.728c-.106-.004-.236.024-.272-.015-.508-.565-.998-1.142-1.507-1.706-.244-.27-.491-.547-.785-.772-.983-.751-1.667-1.71-2.42-2.622-.285-.343-.626-.649-.916-.988-.342-.403-.687-.81-.967-1.248-.09-.14-.064-.456.055-.554.215-.176.464-.045.586.183.508.947 1.47 1.57 2.175 2.375.961 1.098 1.9 2.213 2.816 3.34.458.564.846 1.17 1.257 1.764.036.053-.01.15-.022.243zM9.293 86.752c-.006-.172-.025-.346-.016-.516.06-1.167.124-2.332.193-3.498.01-.174.066-.343.087-.516.088-.753.182-1.505.253-2.26.135-1.428.32-2.841.846-4.134.218-.537.346-.554.937-.333-.04.106-.062.225-.118.304-.37.512-.584 1.111-.697 1.791-.249 1.485-.495 2.973-.787 4.445-.295 1.489-.416 3-.518 4.522-.004.077-.054.148-.081.223l-.1-.028zm99.525-36.51c-.372-.369-.719-.673-1.022-1.018-.854-.97-1.682-1.963-2.532-2.936-.486-.555-1.014-1.073-1.486-1.638-.247-.294-.415-.655-.601-.959.402-.464.743-.326.938-.024.555.858 1.574 1.346 1.896 2.388.04.132.179.252.3.338 1.208.842 1.931 2.064 2.61 3.318.043.078.053.18.052.27 0 .05-.056.1-.155.26zM93.903 33.616l-.08.638c-1.835-.383-3.522-.837-4.558-2.265.166-.002.316-.04.424 0 .186.065.356.167.513.273.43.296.837.534 1.495.46.31-.034.675.254 1.015.396l1.19.498zM36.119 55.95c.625.178 1.163.375 1.724.48.851.158 1.595.548 2.463.695.571.096 1.083.474 1.429 1.109-.365-.044-.635-.041-.873-.112-1.171-.344-2.339-.7-3.497-1.071a7.673 7.673 0 01-1.137-.474c-.385-.198-.35-.44-.109-.627zM15.071 67.37c-.02-.948.578-1.226 1.042-1.454.525-.259.837-.663 1.208-1.049.294-.305.606-.599.945-.854a81.404 81.404 0 012.496-1.808 3.336 3.336 0 011.265-.544c-.075.12-.124.276-.23.36-.492.39-1.001.762-1.504 1.14-1.109.83-2.282 1.568-3.23 2.61-.524.575-1.225.994-1.992 1.599zm5.796-2.213c-.59.302-1.067.576-1.576.798-.885.385-1.474.984-1.9 1.72-.111.191-.241.374-.372.555-.156.218-.353.37-.789.224.045-.159.049-.346.145-.487.738-1.076 1.609-2.057 2.942-2.664.44-.2.922-.29 1.55-.146zm75.354-30.745c.456-.248.87-.2 1.23.146.487.468 1.047.75 1.642.977.176.066.339.216.475.367.21.233.171.345-.142.638-.412-.29-.808-.58-1.212-.851-.095-.065-.253-.141-.325-.095-.438.281-.774-.02-1.147-.194-.4-.186-.522-.514-.52-.988zM9.25 68.51c-.304.844-.618 1.685-.908 2.532-.168.493-.366.99-.074 1.52-.319.386-.62.759-1.312.31.164-.68.14-1.521.564-2.092.513-.695.826-1.492 1.418-2.134.067-.074.222-.082.336-.12l-.024-.016zm44.994 54.808c-.066-.093-.153-.18-.195-.28-.088-.21-.261-.279-.507-.374-.803-.31-1.208-.904-1.374-1.63.29.503 1.232.351 1.396.994.012.047.32.042.464.059l.459 1.052-.243.18zm17.632-53.531c-.064.07-.113.175-.194.204-.946.35-1.626 1.013-2.348 1.63-.256.218-.529.385-.899.284-.146-.362.178-.57.372-.651 1.053-.443 1.703-1.538 2.982-1.603l.087.136zm-5.925 13.567c-1.062-.671-1.185-1.567-.375-2.284.584.719.215 1.535.375 2.284zM18.549 125.58c-.696-.355-1.546-.559-1.956-1.189-.2-.308-.374-.592-.362-1.072.548.68 1.087 1.164 1.775 1.573.263.156.351.468.519.71l.024-.022zM9.37 68.51c-.026-.052-.08-.106-.072-.154.097-.597.184-1.197.319-1.79.061-.267.262-.464.792-.245l-1.067 2.175.028.015zm32.806 40.047c.354.25.728.419.444.836-.076.11-.419.186-.508.115-.347-.273-.206-.593.064-.951zm52.899-74.069c.64-.077.92.153 1.131.672-.563.086-.867-.118-1.131-.672zm-23.304 97.396c-.69.357-.69.357-.951-.245l.951.245zm28.46-95.095c.14.147.27.222.287.315.019.1-.072.217-.116.327-.125-.082-.277-.144-.362-.256-.032-.041.095-.2.19-.386zM72.736 68.91l-.378.484-.182-.14.381-.483c.06.047.12.092.179.14zM50.743 35.397c-.645-1.611-1.228-3.075-1.817-4.536-.417-1.036-.84-2.068-1.265-3.101-.393-.957-.795-1.91-1.184-2.867-.06-.15-.13-.334-.097-.475.04-.166.16-.379.295-.429.122-.046.327.068.457.169.092.07.143.23.176.36.343 1.367.998 2.591 1.544 3.868.391.914.809 1.814 1.024 2.82.175.823.599 1.582.862 2.388.147.454.198.945.27 1.425.01.069-.107.16-.265.378zm-.893-5.71c-.502-.309-.607-.75-.738-1.136-.353-1.03-.669-2.079-.997-3.121-.171-.544-.344-1.089-.504-1.638-.048-.158-.103-.347-.07-.495.037-.163.145-.351.266-.425.163-.1.303.022.367.247.047.16.13.305.173.465.452 1.636.907 3.27 1.342 4.913.088.33.096.692.16 1.19z" fill="#000"/><path d="M53.875 96.987l-.115-.02-.107.341.083.028c.045-.116.092-.233.14-.35m-.126.814c-.658.69-1.216 4.551-.823 5.3.056-.96.04-1.842.176-2.703.138-.877.425-1.733.647-2.597m2.678 3.383l-.175-.069-1.126 4.207c.732-.638.98-1.328.951-2.11a5.045 5.045 0 01.35-2.028m-1.936 7.273c-.887.112-1.537-.286-2.084-.87a.61.61 0 01-.149-.436c.06-.513-.213-.874-.49-1.287-.273-.406-.375-.923-.49-1.406-.405-1.712-.307-3.44-.017-5.15.197-1.159.53-2.3.838-3.438.095-.349.308-.67.474-1 .5-.993.966-2.002 1.522-2.967.245-.425.662-.77 1.03-1.126.348-.341.771-.62 1.095-.978.56-.617 1.188-1.094 2.065-1.255.203-.037.376-.217.566-.326.34-.195.715-.415 1.099-.218.407.208.354.638.284.994-.218 1.102-.404 2.217-.728 3.294a36.406 36.406 0 00-1.17 5.449c-.22 1.549-.157 3.13-.303 4.69-.189 1.979-.61 3.888-2.244 5.368a2.67 2.67 0 01-1.298.662M86.163 103.812l.19-.103c-.067-.292-.168-.565-.61-.652l.42.755m2.698 3.372c.21-.285.247-.493.028-.76-.434-.527-.767-1.158-1.557-1.416.142.907.652 1.623 1.529 2.176m-2.958 1.957l-.557-.804c-.636.098-1.137-.18-1.57-.64-.599-.634-1.284-1.202-1.808-1.888-.463-.608-.756-1.34-1.128-2.015-.317-.573-.687-1.107-1.246-1.488-.273-.187-.741-1.301-.667-1.675.079-.403.218-.795.343-1.238-.12-.357-.285-.772-.398-1.201-.095-.357-.034-.718.307-.936.333-.212.714-.284 1.088-.071.397.226.81.433 1.174.702.765.567 1.497 1.177 2.254 1.754.358.273.754.497 1.116.766.503.371.996.755 1.481 1.146.335.269.62.608.982.831 1.07.661 1.755 1.636 2.426 2.64.632.946.9 1.958.605 3.052-.125.467-.405.901-.648 1.331-.062.11-.257.222-.377.209-.65-.069-1.313.097-1.96-.179-.4-.172-.87-.188-1.417-.296M82.956 89.638c-.002-.119.03-.256-.012-.354-.2-.457-.505-.771-.943-1.032-1.45-.864-2.506-2.335-4.048-3.08-.103-.05-.158-.201-.253-.283-.13-.109-.264-.227-.415-.284a5.436 5.436 0 00-.86-.243c-.47-.093-.93-.377-1.573-.126.287.26.483.492.724.648 1.044.676 2.1 1.335 3.155 1.992.517.322 1.017.698 1.569.93.988.417 1.816 1.048 2.656 1.832M78.5 91.616l-.354.337c-.131-.35-.24-.641-.342-.92-1.411-.33-2.503-1.164-3.466-2.232-.26-.288-.512-.59-.804-.836-.55-.46-.907-1.057-1.19-1.72-.061-.144-.106-.314-.206-.42-.29-.303-.303-.638-.215-1.031.124-.558.21-1.127.322-1.688.11-.553.467-.819.964-.853 1.328-.092 2.62-.065 3.906.502 1.16.512 2.351.953 3.367 1.737 1.25.964 2.659 1.745 3.575 3.134.788 1.194.688 2.457.135 3.72-.053.12-.127.254-.226.318-1.237.772-2.545 1.073-3.943.596-.497-.17-.972-.408-1.523-.644M65.32 117.047l.126-.055c-.065-.102-.13-.204-.193-.306l-.123.055c.063.102.128.204.19.306m1.613-11.997c.21.453.439.845.576 1.258.767 2.315 1.234 4.678 1.706 7.046.231 1.165.21 2.326.338 3.484.035.314-.16.65-.271.97-.128.37-.247.746-.428 1.098-.108.211-.284.486-.507.552-1.034.311-2.084.707-3.196.174-.122-.059-.274-.083-.416-.106-.61-.098-.903-.471-.953-.928a2.97 2.97 0 00-.459-1.314c-.193-.308-.194-.7-.282-1.056-.104-.427-.157-.868-.325-1.275-.287-.694.048-1.339.127-2.004.017-.142.126-.283.113-.42-.14-1.644.452-3.186.957-4.732.153-.47.342-1.076 1.232-1.072.147 0 .354-.303.43-.495.28-.7.335-.771 1.358-1.18" fill="#FFF"/></g></svg>