<?xml version="1.0" encoding="UTF-8" standalone="no" ?>
<!DOCTYPE svg PUBLIC "-//W3C//DTD SVG 1.1//EN" "http://www.w3.org/Graphics/SVG/1.1/DTD/svg11.dtd">
<svg xmlns="http://www.w3.org/2000/svg" xmlns:xlink="http://www.w3.org/1999/xlink" version="1.1" width="250" height="310" viewBox="0 0 250 310" xml:space="preserve">
<desc>Created with Fabric.js 5.2.4</desc>
<defs>
</defs>
<g transform="matrix(1 0 0 1 125 155)" id="d124209e-838e-4680-8950-64ad022a8e5a"  >
<rect style="stroke: none; stroke-width: 1; stroke-dasharray: none; stroke-linecap: butt; stroke-dashoffset: 0; stroke-linejoin: miter; stroke-miterlimit: 4; fill: rgb(255,255,255); fill-rule: nonzero; opacity: 1; visibility: hidden;" vector-effect="non-scaling-stroke"  x="-125" y="-155" rx="0" ry="0" width="250" height="310" />
</g>
<g transform="matrix(Infinity NaN NaN Infinity 0 0)" id="d04b921b-0e7f-48f6-ae85-84945b40a4dd"  >
</g>
<g transform="matrix(0.96 0 0 0.96 125 155)"  >
<g style=""   >
		<g transform="matrix(1 0 0 1 -0.14 -0.04)" id="bird-wht"  >
<path style="stroke: none; stroke-width: 1; stroke-dasharray: none; stroke-linecap: butt; stroke-dashoffset: 0; stroke-linejoin: miter; stroke-miterlimit: 4; fill: rgb(255,255,255); fill-rule: nonzero; opacity: 1;" vector-effect="non-scaling-stroke"  transform=" translate(-121.86, -152.96)" d="M 223.283967 105.257303 C 222.643967 104.667303 221.983967 104.077303 221.283967 103.507303 C 214.993967 70.3873028 199.223967 38.9073028 171.803967 19.5073028 C 153.713967 6.74730276 132.423967 -0.912697242 110.243967 0.0873027582 C 89.0239671 1.01730276 69.4239671 10.6373028 54.7239671 26.2773028 C 51.6188725 29.5941131 48.7988894 33.1667608 46.2939671 36.9573028 C 33.9939671 46.2573028 24.9439671 58.7873028 18.4639671 73.3873028 C 10.8339671 90.5673028 7.08396712 109.587303 4.05396712 128.117303 C 0.903202757 147.416311 -0.415999656 166.969971 0.113967125 186.517303 C 0.653967125 206.347303 2.83396712 226.427303 11.2039671 244.517303 C 19.4739671 262.417303 34.2039671 275.067303 51.3139671 283.577303 C 67.7339671 291.777303 85.2339671 299.977303 103.183967 303.797303 C 122.602974 308.120114 142.912093 305.773908 160.833967 297.137303 C 178.013967 288.977303 192.263967 275.687303 203.773967 260.417303 C 214.993967 245.527303 223.093967 228.277303 229.893967 210.857303 C 236.693967 193.437303 243.613967 174.397303 243.723967 155.267303 C 243.823967 136.477303 237.053967 118.007303 223.283967 105.257303 Z" stroke-linecap="round" />
</g>
		<g transform="matrix(1 0 0 1 7.07 12.66)" id="Group"  >
<path style="stroke: none; stroke-width: 1; stroke-dasharray: none; stroke-linecap: butt; stroke-dashoffset: 0; stroke-linejoin: miter; stroke-miterlimit: 4; fill: rgb(255,255,255); fill-rule: evenodd; opacity: 1;" vector-effect="non-scaling-stroke"  transform=" translate(-129.07, -165.66)" d="M 98.28 234.37 C 98.12 234.37 98.1 234.3 98.28 234.2 L 98.4 234.13 C 98.76 233.35 99.11 232.57 99.47 231.77 C 97.6173719 232.367423 95.7171463 232.805679 93.79 233.08 C 92.6227543 233.321075 91.4313634 233.425112 90.24 233.39 L 92.6 231 C 92.6 231 91.66 232.56 86.3 232.5 C 80.94 232.44 62.97 223.2 40.52 201.5 C 18.07 179.8 8.64 155.17 6.84 132.41 C 5.54 116 12.58 90.5 12.58 90.5 C 10.5270236 91.396247 8.63255273 92.6187041 6.97 94.12 C 3.97 96.74 0.48 98.12 1.17 97.55 C 1.86 96.98 5.34 91.88 4.78 92.31 C 4.22 92.74 1.04 94 1.91 92.94 C 2.78 91.88 7.59 78.65 10.71 70.94 C 13.83 63.23 15.95 58.71 14.57 59.94 C 13.19 61.17 9.71 63.43 11.21 61.81 C 12.71 60.19 17.82 50 18.16 49 C 18.5 48 21.16 34.66 38.37 22.93 C 50.6446015 14.3041868 64.7372514 8.61443763 79.56 6.3 C 89.67 4.56 93.28 4.56 93.28 4.56 L 92.04 1.5 C 92.04 1.5 94.66 2.56 106.04 5.93 C 117.42 9.3 120.04 13.12 120.04 12.5 C 119.552124 10.6746645 118.961176 8.87845032 118.27 7.12 C 118.236863 7.06753295 118.252533 6.99813708 118.305 6.965 C 118.357467 6.93186292 118.426863 6.94753295 118.46 7 C 120.53 9.51 129.53 20.47 131.46 23.45 C 132.601339 25.1956608 133.604397 27.0279145 134.46 28.93 C 134.46 28.93 144.19 26.25 151.92 26.31 C 159.65 26.37 163.61 29 164.52 30.15 C 165.43 31.3 165.24 31.24 165.24 31.24 L 164.08 31.58 C 161.953102 33.7542765 159.553065 35.6433811 156.94 37.2 C 152.64 39.75 135.33 46.37 135.33 46.37 C 135.33 46.37 132.49 69 126.54 79 C 126.54 79 145.61 95.8 159.08 113.51 C 172.55 131.22 175.67 136.84 178.79 141.83 C 181.91 146.82 194.38 163.28 200.12 185.24 C 205.86 207.2 207.86 208.69 207.86 208.69 C 207.86 208.69 238.98 244.61 246.71 255.34 C 254.44 266.07 258.31 276.55 256.71 276.55 C 255.11 276.55 247.71 273.18 246.11 272.99 C 244.51 272.8 243.3 272.99 237 268.69 C 232.642308 265.567371 228.59081 262.038215 224.9 258.15 C 224.9 258.15 224.84 264.07 222.97 267.5 C 221.1 270.93 215.86 269.94 211.87 266.26 C 207.88 262.58 188.54 231.33 182.81 225.34 C 177.08 219.35 175.95 218.85 175.95 218.85 C 175.95 218.85 166.65 221.72 167.65 221.97 C 168.65 222.22 175.01 223.41 173.39 223.97 C 172.39 224.31 168.23 225.68 163.77 226.82 C 161.195972 231.878545 158.265237 236.747508 155 241.39 C 149.76 248.75 139.29 272.08 139.16 273.2 C 139.03 274.32 141.66 275.57 144.65 278.07 C 146.65 279.74 147.15 280.91 146.92 281.92 C 148.186556 282.969405 149.129681 284.356354 149.64 285.92 C 151.14 290.53 148.89 292.65 148.39 293.65 C 147.89 294.65 148.64 290.28 146.77 286.65 C 146.212816 285.473603 145.35361 284.46602 144.28 283.73 C 142.05138 283.427771 139.843766 282.986916 137.67 282.41 C 136.426499 282.279452 135.362682 281.459346 134.92 280.29 C 134.92 280.29 131.92 281.91 129.81 283.04 C 127.7 284.17 127.69 284.41 123.32 288.53 C 118.95 292.65 118.46 291.53 117.46 292.64 C 116.705976 293.519163 115.998347 294.437078 115.34 295.39 C 115.34 295.39 114.21 295.64 114.09 298.39 C 113.97 301.14 116.9 307.75 116.9 307.75 C 116.9 307.75 114.9 308.06 112.84 305.56 C 111.617661 304.100872 110.724051 302.39551 110.22 300.56 C 109.540423 302.396388 109.060981 304.300744 108.79 306.24 C 108.73 308.11 109.41 308.42 108.04 310.6 C 106.67 312.78 105.73 313.16 105.73 313.16 C 105.73 313.16 104.49 314.78 104.8 319.21 C 105.11 323.64 108.91 329.81 108.91 329.81 C 108.91 329.81 108.48 329.88 106.36 328.75 C 104.24 327.62 102.36 326.32 101.36 321.27 C 100.827727 317.922691 100.847996 314.510749 101.42 311.17 C 100.98943 310.448924 100.732652 309.637506 100.67 308.8 C 100.557697 307.793066 100.848954 306.782659 101.48 305.99 C 102.23 304.87 105.48 290.34 106.97 288.46 C 108.46 286.58 116.45 280.67 116.45 280.67 C 116.45 280.67 111.77 280.29 108.72 279.86 C 107.034705 279.526994 105.292041 279.633758 103.66 280.17 C 102.54 280.42 102.23 281.42 100.23 281.73 C 98.23 282.04 98.55 281.35 97.55 282.91 C 96.55 284.47 96.24 289.4 96.43 289.84 C 96.62 290.28 93.56 285.53 94.62 281.73 C 95.68 277.93 98.18 275.87 98.99 275.62 C 100.142705 275.184541 101.351467 274.915179 102.58 274.82 C 102.382437 274.037136 102.097306 273.279022 101.73 272.56 C 101.172275 271.381248 100.313357 270.370553 99.24 269.63 C 97.13 269.53 93.97 268.54 92.63 268.32 C 91.3882863 268.184998 90.3265348 267.366484 89.88 266.2 C 89.88 266.2 86.88 267.82 84.77 268.94 C 82.66 270.06 82.65 270.31 78.28 274.43 C 73.91 278.55 73.42 277.43 72.42 278.55 C 71.6672307 279.426714 70.9596458 280.341234 70.3 281.29 C 70.3 281.29 69.17 281.54 69.05 284.29 C 68.93 287.04 71.86 293.65 71.86 293.65 C 71.86 293.65 69.86 293.96 67.8 291.47 C 66.5797425 290.00948 65.6863812 288.304592 65.18 286.47 C 64.4999979 288.302821 64.0205346 290.20391 63.75 292.14 C 63.69 294.01 64.37 294.33 63 296.51 C 61.63 298.69 60.69 299.07 60.69 299.07 C 60.69 299.07 59.45 300.69 59.76 305.12 C 60.07 309.55 63.87 315.72 63.87 315.72 C 63.87 315.72 63.44 315.78 61.32 314.66 C 59.2 313.54 57.32 312.23 56.32 307.17 C 55.7877271 303.822691 55.8079961 300.410749 56.38 297.07 C 55.9477315 296.349689 55.690823 295.537858 55.63 294.7 C 55.518804 293.693161 55.8099408 292.683168 56.44 291.89 C 57.19 290.77 60.44 276.24 61.93 274.37 C 63.42 272.5 71.41 266.57 71.41 266.57 C 71.41 266.57 66.73 266.2 63.68 265.76 C 61.9947049 265.426994 60.2520408 265.533758 58.62 266.07 C 57.5 266.32 57.19 267.32 55.19 267.63 C 53.19 267.94 53.51 267.26 52.51 268.82 C 51.51 270.38 51.2 275.3 51.39 275.74 C 51.58 276.18 48.52 271.44 49.58 267.63 C 50.64 263.82 53.14 261.77 53.95 261.52 C 54.76 261.27 57.13 260.34 59.12 260.9 C 61.11 261.46 68.46 261.74 68.46 261.74 C 68.46 261.74 74.76 261.87 76.01 261.37 C 78.1017866 260.309334 79.8392471 258.662221 81.01 256.63 C 82.76 253.88 86.75 252.39 91.24 247.4 C 92.8 245.66 95.42 240.48 98.24 234.4 L 98.28 234.37 Z M 151.86 228.69 C 149.11 228.94 148.48 229.08 148.48 229.08 C 149.033619 229.908377 149.756074 230.610385 150.6 231.14 L 150.79 231.24 C 151.17 230.35 151.52 229.5 151.86 228.69 Z M 150.32 232.36 C 146.52 233.13 137.32 235.56 131.77 235.26 C 128.989644 235.196436 126.216714 234.94587 123.47 234.51 C 123.217795 235.73447 122.775797 236.912008 122.16 238 C 121.609508 239.079489 120.794052 240.001607 119.79 240.68 C 119.79 240.68 119.23 234.13 118.92 234.38 C 116.916448 235.635531 114.725655 236.563832 112.43 237.13 C 108.81 238.06 106.88 238 107.19 237.63 L 111.5 232.51 C 109.832641 233.562812 108.038274 234.399512 106.16 235 L 105.4 235.15 C 100.23 244.88 94.3 258.25 94.2 259.15 C 94.08 260.27 96.7 261.52 99.69 264.01 C 101.69 265.69 102.19 266.86 101.96 267.86 C 103.224523 268.911252 104.167216 270.297565 104.68 271.86 C 105.054563 272.94252 105.224124 274.08536 105.18 275.23 C 107.9 275.67 113.58 275.89 113.58 275.89 C 113.58 275.89 119.88 276.01 121.13 275.51 C 123.226557 274.456114 124.965763 272.807346 126.13 270.77 C 127.88 268.03 131.87 266.53 136.36 261.54 C 139.21 258.3 145.72 243.3 150.32 232.36 L 150.32 232.36 Z" stroke-linecap="round" />
</g>
		<g transform="matrix(1 0 0 1 7.1 12.39)" id="Group"  >
<path style="stroke: none; stroke-width: 1; stroke-dasharray: none; stroke-linecap: butt; stroke-dashoffset: 0; stroke-linejoin: miter; stroke-miterlimit: 4; fill: rgb(0,0,0); fill-rule: nonzero; opacity: 1;" vector-effect="non-scaling-stroke"  transform=" translate(-129.1, -165.39)" d="M 97.41 234.86 C 97.5539797 235.115027 97.8025174 235.29412 98.09 235.35 L 98.01 235.35 C 97.8725733 235.316954 97.741039 235.262991 97.62 235.19 C 97.2571617 234.965797 97.076463 234.536136 97.17 234.12 C 97.1903498 234.01475 97.2274905 233.913458 97.28 233.82 C 97.3553525 233.684281 97.4574024 233.565223 97.58 233.47 C 97.69 233.39 97.79 233.34 97.79 233.33 L 97.84 233.33 L 97.48 233.74 L 98.55 231.39 L 99.77 232.74 C 98.2319841 233.23468 96.6615619 233.622274 95.07 233.9 C 94.26 234.04 93.47 234.14 92.68 234.23 L 91.48 234.36 L 90.86 234.36 L 90.16 234.36 C 90.0713139 234.350068 89.9840702 234.329935 89.9 234.3 L 88.44 233.82 L 89.57 232.7 L 91.94 230.34 L 98.68 223.63 L 93.46 231.52 C 93.382794 231.634017 93.2957982 231.741089 93.2 231.84 L 93 232.02 C 92.8721958 232.120993 92.7386379 232.214484 92.6 232.3 C 92.3505378 232.452953 92.0897829 232.586673 91.82 232.7 C 91.3188553 232.899055 90.7998272 233.04974 90.27 233.15 C 89.2815193 233.344425 88.2773508 233.448189 87.27 233.46 C 86.7561812 233.487386 86.2409602 233.470658 85.73 233.41 C 85.2088231 233.366662 84.6930764 233.27289 84.19 233.13 C 83.6961573 233.029226 83.2112506 232.88877 82.74 232.71 C 82.27 232.55 81.74 232.42 81.34 232.22 C 77.7508711 230.738412 74.2921188 228.95886 71 226.9 C 67.7 224.9 64.52 222.72 61.43 220.43 C 58.34 218.14 55.32 215.76 52.35 213.33 L 47.97 209.58 L 43.69 205.72 C 42.3 204.39 40.89 203.1 39.52 201.72 C 38.15 200.34 36.79 199 35.47 197.6 C 30.1809711 191.978785 25.4644028 185.845236 21.39 179.29 C 13.1586393 166.154591 7.97500283 151.341761 6.22 135.94 C 5.7516126 132.092165 5.61777794 128.21096 5.82 124.34 C 6.00658192 120.486216 6.39041802 116.644518 6.97 112.83 C 8.08943106 105.217749 9.6419502 97.6755105 11.62 90.24 L 12.93 91.44 C 11.3857813 92.130992 9.93715874 93.0183154 8.62 94.08 C 8.28 94.35 7.96 94.63 7.62 94.91 C 7.28 95.19 6.9 95.52 6.53 95.81 C 5.78419787 96.3777418 5.00623654 96.9019475 4.2 97.38 C 3.8 97.63 3.39 97.85 2.96 98.07 C 2.50093562 98.3123464 2.02264393 98.5163729 1.53 98.68 L 1.35 98.68 L 1.2 98.68 C 1.06080812 98.7012732 0.919191879 98.7012732 0.78 98.68 C 0.495484686 98.5887596 0.25976715 98.3866706 0.126145471 98.1194273 C -0.00747620819 97.8521839 -0.0277169062 97.5423565 0.07 97.26 C 0.120481571 97.1221988 0.19877075 96.9962553 0.3 96.89 L 0.48 96.71 L 0.59 96.59 L 0.97 96.12 C 1.23 95.78 1.49 95.4466667 1.75 95.12 C 2.26 94.4 2.75 93.67 3.23 92.94 L 3.57 92.39 L 3.72 92.13 C 3.72 92.13 3.83 91.9 3.72 92.07 C 3.65595905 92.2785272 3.65595905 92.5014728 3.72 92.71 C 4.62 93.93 5.56 93.14 5.21 93.32 C 5.48 93.15 5.28 93.32 5.27 93.32 L 5.16 93.39 L 4.79 93.58 L 4.11 93.89 C 3.64298549 94.0892617 3.16162345 94.2530585 2.67 94.38 C 2.50486038 94.4154635 2.33796057 94.4421675 2.17 94.46 C 2.03036563 94.4743091 1.88963437 94.4743091 1.75 94.46 C 1.60320601 94.4369432 1.46126927 94.389631 1.33 94.32 C 1.07320098 94.1834495 0.869146414 93.9653222 0.75 93.7 C 0.691374314 93.5606736 0.660791216 93.4111562 0.66 93.26 C 0.650113689 93.1535624 0.650113689 93.0464376 0.66 92.94 C 0.723708249 92.7027833 0.836091314 92.4814227 0.99 92.29 C 1.08 92.16 1.05 92.17 1.09 92.12 C 1.24 91.84 1.44 91.41 1.6 91.02 L 2.16 89.8 C 2.83 88.15 3.47 86.48 4.1 84.8 L 7.85 74.73 C 9.11 71.37 10.45 68.01 11.79 64.73 L 12.79 62.25 L 13.24 61 C 13.38 60.6 13.53 60.17 13.59 59.9 C 13.59 59.9 13.59 59.73 13.59 60.03 C 13.6125314 60.2078682 13.6739892 60.3785843 13.77 60.53 C 13.8944188 60.7227575 14.0622279 60.8837173 14.26 61 C 14.435928 61.0855294 14.6254418 61.1396762 14.82 61.16 C 14.959536 61.1761188 15.100464 61.1761188 15.24 61.16 L 15.37 61.11 L 15.51 61.05 L 15.13 61.38 C 14.75 61.7 14.38 61.99 13.99 62.27 C 13.6 62.55 13.22 62.82 12.81 63.08 L 12.16 63.47 C 12.0276244 63.5480789 11.8907152 63.6182031 11.75 63.68 L 11.43 63.8 C 11.3231722 63.8363629 11.2123907 63.8598621 11.1 63.87 C 10.984155 63.8895814 10.865845 63.8895814 10.75 63.87 C 10.4552126 63.8550602 10.1737701 63.7424832 9.95 63.55 C 9.63392572 63.3077149 9.43141742 62.9460929 9.39 62.55 C 9.37076539 62.357896 9.39118724 62.1638885 9.45 61.98 C 9.47559208 61.8873192 9.50904679 61.7969915 9.55 61.71 L 9.62 61.6 C 9.72 61.42 9.76 61.38 9.82 61.28 L 10.12 60.94 C 10.22 60.79 10.29 60.73 10.41 60.54 C 10.53 60.35 10.86 59.86 11.08 59.54 C 11.52 58.79 11.95 58.03 12.37 57.25 C 13.21 55.69 14.0233333 54.1133333 14.81 52.52 L 15.99 50 L 16.55 48.82 C 16.6227392 48.667302 16.6861881 48.5103495 16.74 48.35 L 16.9 47.77 C 17.4224389 45.9619329 18.0913182 44.199436 18.9 42.5 C 22.1154286 35.789749 26.7851714 29.8799794 32.57 25.2 C 35.412742 22.868802 38.4206125 20.7465823 41.57 18.85 C 44.6566943 16.9175814 47.8445855 15.1517234 51.12 13.56 C 57.6578562 10.3429645 64.566308 7.941631 71.69 6.41 C 75.24 5.63 78.81 5 82.38 4.56 C 85.980347 4.01181476 89.6100678 3.67789381 93.25 3.56 L 93.25 3.56 L 92.36 4.94 L 91.16 1.89 L 91.16 1.89 L 90.35 0 L 92.42 0.57 L 99.99 2.65 C 102.53 3.38 104.99 4.09 107.61 4.88 C 110.205444 5.68747778 112.736013 6.69034519 115.18 7.88 C 116.420155 8.51029105 117.619214 9.2183705 118.77 10 C 119.34 10.38 119.93 10.82 120.44 11.21 L 120.58 11.31 C 120.58 11.31 120.58 11.31 120.58 11.31 L 120.39 11.23 C 120.250804 11.1871026 120.105622 11.1668445 119.96 11.17 C 119.873644 11.1596266 119.786356 11.1596266 119.7 11.17 C 119.523999 11.2056745 119.357213 11.2771544 119.21 11.38 C 119.046605 11.4932794 118.912845 11.644188 118.82 11.82 C 118.778479 11.8942492 118.741738 11.9710719 118.71 12.05 C 118.666565 12.1755786 118.642949 12.3071547 118.64 12.44 L 118.64 12.53 C 118.635321 12.5497264 118.635321 12.5702736 118.64 12.59 L 118.64 12.59 L 118.64 12.44 C 118.58 12.17 118.48 11.86 118.39 11.56 C 118 10.34 117.55 9.1 117.11 7.86 L 117.03 7.63 C 116.9649 7.46779884 116.930973 7.2947751 116.93 7.12 C 116.925557 6.83781176 117.00189 6.56023614 117.15 6.32 C 117.432819 5.85451482 117.94574 5.57891525 118.49 5.6 C 118.781268 5.61370783 119.062446 5.71090526 119.3 5.88 C 119.400151 5.95902235 119.493786 6.04596914 119.58 6.14 L 119.58 6.14 L 119.65 6.23 L 119.81 6.43 L 120.43 7.2 L 121.67 8.75 L 126.57 15 C 128.21 17.09 129.81 19.2 131.37 21.39 C 131.75 21.94 132.15 22.52 132.5 23.11 C 132.85 23.7 133.19 24.27 133.5 24.86 C 134.171575 26.0469107 134.772617 27.2723685 135.3 28.53 L 135.3 28.53 L 134.16 28 C 136.84 27.3 139.5 26.74 142.16 26.28 C 144.87509 25.813604 147.617461 25.5229995 150.37 25.41 C 153.166478 25.2890439 155.966262 25.5548888 158.69 26.2 C 160.077622 26.5411513 161.420212 27.0446225 162.69 27.7 C 163.390053 28.0530991 164.044811 28.4896045 164.64 29 C 164.941797 29.2660889 165.213429 29.5645481 165.45 29.89 L 165.78 30.33 L 165.95 30.59 L 166.05 30.76 C 166.08147 30.8212017 166.108215 30.8847202 166.13 30.95 C 166.161285 31.026244 166.178236 31.1076057 166.18 31.19 C 166.189948 31.266344 166.189948 31.343656 166.18 31.42 C 166.1569 31.5463706 166.112969 31.6680263 166.05 31.78 C 165.937867 31.9783176 165.756139 32.127976 165.54 32.2 C 165.344715 32.2614144 165.135285 32.2614144 164.94 32.2 L 165.5 32.2 L 164.34 32.54 L 164.77 32.28 C 162.807648 34.2816151 160.623553 36.0530471 158.26 37.56 C 157.68 37.93 157.06 38.29 156.43 38.62 C 155.8 38.95 155.19 39.25 154.57 39.54 C 153.32 40.13 152.07 40.68 150.82 41.22 C 145.82 43.39 140.75 45.37 135.69 47.37 L 136.34 46.54 C 135.83 50.54 135.23 54.41 134.5 58.32 C 133.795957 62.2432355 132.86777 66.122923 131.72 69.94 C 131.42 70.94 131.1 71.86 130.72 72.8 C 130.34 73.74 129.94 74.66 129.5 75.57 C 129.06 76.48 128.61 77.39 128.07 78.27 L 127.7 78.94 L 127.51 79.28 L 127.42 79.44 L 127.42 79.53 C 127.42 79.53 127.42 79.53 127.48 79.53 C 127.54 79.53 127.55 79.43 127.58 79.37 C 127.691901 79.1207064 127.661356 78.8305298 127.5 78.61 C 127.41 78.51 127.5 78.61 127.5 78.61 L 127.57 78.67 L 127.84 78.92 L 128.4 79.41 C 131.346667 82.0433333 134.27 84.71 137.17 87.41 C 142.98 92.79 148.65 98.41 153.93 104.32 C 156.58 107.32 159.08 110.41 161.47 113.58 C 163.86 116.75 166.22 119.91 168.54 123.12 C 170.86 126.33 173.13 129.59 175.33 132.91 C 176.416667 134.576667 177.483333 136.243333 178.53 137.91 L 180.08 140.43 C 180.59 141.27 181.08 142.03 181.65 142.86 C 186.178765 149.423953 190.235637 156.301254 193.79 163.44 C 197.302036 170.638209 200.066501 178.177661 202.04 185.94 C 203.013333 189.753333 204.053333 193.536667 205.16 197.29 C 205.72 199.16 206.3 201.03 206.94 202.86 C 207.26 203.77 207.6 204.67 207.94 205.55 C 208.12 205.98 208.3 206.42 208.5 206.82 C 208.58655 207.01498 208.683352 207.205246 208.79 207.39 L 208.93 207.63 L 208.93 207.69 C 208.93 207.69 208.93 207.69 208.93 207.69 C 208.93 207.69 208.93 207.69 208.76 207.54 L 209 207.76 C 215.626667 215.513333 222.2 223.3 228.72 231.12 C 231.98 235.033333 235.223333 238.966667 238.45 242.92 C 241.65 246.92 244.85 250.85 247.88 255.04 C 250.882226 259.242648 253.499485 263.707383 255.7 268.38 C 256.24 269.56 256.76 270.75 257.21 271.99 C 257.44 272.6 257.65 273.23 257.83 273.89 C 257.926846 274.219064 258.006949 274.552825 258.07 274.89 C 258.161563 275.286545 258.201892 275.693195 258.19 276.1 C 258.185724 276.502842 258.048636 276.893015 257.8 277.21 C 257.548017 277.503621 257.186445 277.680792 256.8 277.7 L 256.43 277.7 C 256.053476 277.648873 255.682087 277.565227 255.32 277.45 C 254.66 277.26 254.06 277.04 253.44 276.82 C 252.23 276.38 251.04 275.91 249.85 275.46 C 248.66 275.01 247.46 274.52 246.37 274.21 L 246.05 274.14 L 245.59 274.09 C 245.25357 274.053362 244.919638 273.996593 244.59 273.92 C 243.900327 273.767674 243.229592 273.539624 242.59 273.24 C 240.248177 272.072461 238.010083 270.707525 235.9 269.16 C 231.733886 266.105619 227.857556 262.674498 224.32 258.91 L 226.05 258.24 C 226.009645 260.009147 225.822334 261.77188 225.49 263.51 C 225.330339 264.395115 225.106413 265.267423 224.82 266.12 C 224.675185 266.559535 224.504897 266.990265 224.31 267.41 L 224 268.05 L 223.57 268.71 C 222.911087 269.568237 221.986134 270.183701 220.94 270.46 C 219.959933 270.716383 218.934965 270.750549 217.94 270.56 C 216.106879 270.20734 214.377139 269.445024 212.88 268.33 C 211.428084 267.245774 210.155853 265.939797 209.11 264.46 C 208.11 263.07 207.11 261.67 206.11 260.27 C 204.11 257.45 202.23 254.61 200.32 251.77 C 196.5 246.09 192.72 240.39 188.83 234.77 C 186.83 232 184.9 229.16 182.75 226.66 C 181.67 225.42 180.42 224.2 179.23 223.01 C 178.63 222.41 178.02 221.83 177.4 221.26 C 177.1 220.97 176.79 220.69 176.47 220.43 L 176.01 220.05 L 175.79 219.88 L 175.69 219.81 C 175.69 219.81 175.59 219.75 175.69 219.81 L 176.37 219.81 C 174.37 220.45 172.29 221.1 170.3 221.81 C 169.81 221.99 169.3 222.17 168.86 222.37 L 168.54 222.52 C 168.46 222.52 168.32 222.65 168.43 222.57 L 168.48 222.51 C 168.507253 222.479589 168.530754 222.446016 168.55 222.41 C 168.599921 222.337967 168.634004 222.256169 168.65 222.17 C 168.699751 222.00364 168.699751 221.82636 168.65 221.66 C 168.573937 221.412033 168.395676 221.208306 168.16 221.1 L 168.03 221.05 L 168.21 221.1 L 168.59 221.18 C 169.59 221.41 170.7 221.63 171.77 221.91 C 172.326075 222.044082 172.873704 222.211042 173.41 222.41 C 173.567708 222.462176 173.721441 222.525675 173.87 222.6 L 174.16 222.77 C 174.333952 222.87904 174.48096 223.026048 174.59 223.2 C 174.643414 223.291825 174.686988 223.38903 174.72 223.49 C 174.750758 223.648522 174.750758 223.811478 174.72 223.97 C 174.702504 224.104142 174.650854 224.231544 174.57 224.34 C 174.518591 224.440164 174.447107 224.528669 174.36 224.6 C 174.275634 224.675635 174.181452 224.739544 174.08 224.79 L 173.89 224.88 L 173.47 225.02 C 172.47 225.37 171.41 225.69 170.38 226.02 C 168.31 226.65 166.23 227.25 164.13 227.78 L 164.75 227.28 C 162.282024 232.129736 159.488989 236.807068 156.39 241.28 C 154.863334 243.465414 153.467552 245.739403 152.21 248.09 C 150.92 250.44 149.7 252.84 148.5 255.24 C 146.1 260.06 143.816667 264.933333 141.65 269.86 L 140.86 271.71 C 140.73 272.02 140.6 272.32 140.49 272.63 L 140.31 273.08 C 140.289455 273.163234 140.25925 273.243781 140.22 273.32 C 140.22 273.17 140.22 273.32 140.4 273.51 C 140.59407 273.716898 140.804776 273.907536 141.03 274.08 C 141.52 274.47 142.03 274.86 142.62 275.26 C 143.755636 276.053377 144.847251 276.907974 145.89 277.82 C 146.46265 278.314405 146.967065 278.882712 147.39 279.51 C 147.632921 279.874992 147.815271 280.276837 147.93 280.7 C 148.048563 281.176062 148.048563 281.673938 147.93 282.15 L 147.63 281.22 C 148.491232 281.950018 149.224634 282.818609 149.8 283.79 C 150.360296 284.768644 150.755586 285.832886 150.97 286.94 C 151.216987 288.057411 151.244158 289.212209 151.05 290.34 C 150.825202 291.466341 150.372611 292.534866 149.72 293.48 C 149.58 293.69 149.42 293.93 149.35 294.06 L 149.35 294.15 C 149.311083 294.238725 149.256932 294.319951 149.19 294.39 L 149.12 294.47 C 149.022016 294.564701 148.906535 294.639424 148.78 294.69 L 148.58 294.75 C 148.457396 294.768968 148.332604 294.768968 148.21 294.75 C 148.074542 294.719035 147.947973 294.657462 147.84 294.57 C 147.787608 294.529507 147.737529 294.486105 147.69 294.44 C 147.573568 294.293408 147.49155 294.122536 147.45 293.94 C 147.418826 293.768369 147.402101 293.594426 147.4 293.42 C 147.4 292.88 147.4 292.42 147.31 291.9 C 147.237922 290.940557 147.077238 289.989839 146.83 289.06 C 146.416885 287.262973 145.382827 285.669391 143.91 284.56 L 144.38 284.72 C 142.598131 284.536873 140.835094 284.202331 139.11 283.72 C 138.7 283.61 138.28 283.51 137.89 283.43 L 137.2 283.29 C 136.940387 283.222906 136.686308 283.135984 136.44 283.03 C 135.935377 282.803492 135.47752 282.484688 135.09 282.09 C 134.6773 281.672888 134.365957 281.166528 134.18 280.61 L 135.51 281.17 L 130.01 284.12 C 129.157555 284.582191 128.376186 285.164849 127.69 285.85 L 125.32 288 C 123.820079 289.545251 122.16842 290.935593 120.39 292.15 C 119.90139 292.447865 119.385773 292.698977 118.85 292.9 C 118.492356 293.012682 118.184876 293.245942 117.98 293.56 C 117.33 294.31 116.71 295.15 116.13 295.97 L 115.58 296.34 L 115.68 296.34 L 115.68 296.34 C 115.635741 296.386438 115.59559 296.436626 115.56 296.49 C 115.456739 296.65162 115.375995 296.826565 115.32 297.01 C 115.186841 297.462199 115.109599 297.929011 115.09 298.4 C 115.117149 299.40195 115.285474 300.395063 115.59 301.35 C 116.198871 303.418911 116.940407 305.446444 117.81 307.42 L 118.31 308.57 L 117.12 308.7 C 116.815157 308.747302 116.504843 308.747302 116.2 308.7 C 115.932231 308.66147 115.66803 308.601273 115.41 308.52 C 114.917874 308.362117 114.450069 308.136628 114.02 307.85 C 113.211589 307.307318 112.501448 306.630993 111.92 305.85 C 111.355942 305.113503 110.860539 304.326883 110.44 303.5 C 110.008899 302.656717 109.67348 301.767857 109.44 300.85 L 111.19 300.96 C 110.82 302.02 110.47 303.12 110.19 304.2 C 110.06 304.74 109.94 305.28 109.86 305.8 C 109.794906 306.304576 109.794906 306.815424 109.86 307.32 C 109.973816 308.004494 109.950019 308.704811 109.79 309.38 C 109.584542 310.01553 109.295331 310.620854 108.93 311.18 C 108.600584 311.706968 108.236445 312.211417 107.84 312.69 C 107.629915 312.938827 107.406241 313.175855 107.17 313.4 C 107.043443 313.521072 106.909879 313.634601 106.77 313.74 C 106.592627 313.881274 106.397665 313.998924 106.19 314.09 L 106.57 313.8 C 106.436408 314.035455 106.325894 314.283275 106.24 314.54 C 106.135603 314.850746 106.052084 315.168119 105.99 315.49 C 105.866314 316.149932 105.796086 316.81877 105.78 317.49 C 105.726237 318.87395 105.891612 320.257698 106.27 321.59 C 106.672693 322.960557 107.180878 324.297886 107.79 325.59 C 108.39078 326.893511 109.058332 328.165197 109.79 329.4 L 110.54 330.65 L 109.15 330.77 C 109.057048 330.781927 108.962952 330.781927 108.87 330.77 L 108.76 330.77 L 108.59 330.77 L 108.3 330.68 C 108.133 330.630495 107.969334 330.570373 107.81 330.5 C 107.5 330.38 107.21 330.24 106.92 330.11 C 106.35 329.82 105.81 329.54 105.24 329.21 C 104.047162 328.535584 103.045698 327.568536 102.33 326.4 C 101.664362 325.269909 101.172207 324.046264 100.87 322.77 C 100.563122 321.535262 100.355791 320.277896 100.25 319.01 C 100.076395 316.510815 100.2006 313.999852 100.62 311.53 C 100.9 311.76 100.26 310.9 100.09 310.22 C 99.9823714 309.855547 99.9185878 309.479559 99.9 309.1 C 99.9 308.72 99.9 308.45 99.9 308.1 C 99.9159257 307.712002 99.9866253 307.328204 100.11 306.96 C 100.238758 306.609022 100.406472 306.273593 100.61 305.96 C 100.68 305.82 100.81 305.66 100.85 305.57 C 100.89 305.48 100.85 305.47 100.95 305.3 C 101.05 305.13 101.14 304.78 101.22 304.49 C 102.59 299.87 103.67 295.09 105.22 290.39 C 105.429829 289.770794 105.680376 289.166142 105.97 288.58 C 106.331249 287.971866 106.790812 287.427825 107.33 286.97 C 108.26 286.12 109.2 285.33 110.16 284.56 C 112.07 283.01 114.01 281.56 115.97 280.06 L 116.43 281.65 L 110.55 281.03 C 108.55 280.87 106.69 280.42 105.02 280.84 L 104.34 281.02 L 103.95 281.11 L 103.72 281.18 C 103.338441 281.379862 102.97389 281.610633 102.63 281.87 C 102.143065 282.18869 101.605362 282.422033 101.04 282.56 C 100.506431 282.694616 99.9599844 282.771722 99.41 282.79 C 99.15 282.79 98.81 282.79 98.76 282.79 L 98.84 282.79 L 98.75 282.9 C 98.6151826 283.075341 98.4916021 283.259042 98.38 283.45 C 98.2788717 283.607159 98.1950502 283.774802 98.13 283.95 C 97.8312092 284.80861 97.6266735 285.697167 97.52 286.6 C 97.383329 287.527273 97.3098264 288.462761 97.3 289.4 C 97.3 289.51 97.3 289.61 97.3 289.68 C 97.3 289.75 97.3 289.63 97.3 289.61 C 97.3476736 289.71734 97.3748086 289.832664 97.38 289.95 C 97.14 289.95 97.98 289.9 96.61 290.85 C 95.4 290.56 96.06 290.58 95.87 290.58 L 95.76 290.45 L 95.68 290.34 C 95.5337092 290.110871 95.4001728 289.873844 95.28 289.63 C 95.0358458 289.175107 94.8155474 288.707808 94.62 288.23 C 93.7235052 286.27699 93.4243035 284.102559 93.76 281.98 C 94.2700851 279.910234 95.303066 278.006105 96.76 276.45 C 97.1294497 276.04333 97.541854 275.677866 97.99 275.36 C 98.2619321 275.162922 98.5619529 275.007855 98.88 274.9 L 99.57 274.67 C 100.575603 274.333466 101.621376 274.131709 102.68 274.07 L 101.87 275.16 C 101.463782 273.287904 100.399274 271.623723 98.87 270.47 L 99.31 270.62 C 97.5315476 270.435979 95.7719076 270.101447 94.05 269.62 L 92.82 269.34 L 92.14 269.2 C 91.8836483 269.132873 91.6328949 269.045945 91.39 268.94 C 90.8930584 268.719162 90.4419306 268.407104 90.06 268.02 C 89.6543079 267.606984 89.3467158 267.108001 89.16 266.56 L 90.4 267.08 L 84.89 270.08 C 84.0360124 270.544492 83.2516522 271.126871 82.56 271.81 L 80.3 273.96 C 78.7861686 275.473438 77.1207457 276.827222 75.33 278 C 74.8448667 278.297824 74.3325714 278.548949 73.8 278.75 C 73.4261344 278.862591 73.1039216 279.103366 72.89 279.43 C 72.25 280.19 71.63 281.02 71.05 281.85 L 70.53 282.19 L 70.62 282.19 L 70.62 282.19 C 70.5687663 282.239158 70.5219218 282.292694 70.48 282.35 C 70.3745938 282.514024 70.2937385 282.692579 70.24 282.88 C 70.0971669 283.336788 70.0197316 283.8115 70.01 284.29 C 70.0239139 285.308744 70.1890486 286.319773 70.5 287.29 C 71.1122368 289.365632 71.8571022 291.399816 72.73 293.38 L 73.19 294.44 L 72.09 294.56 C 71.7911177 294.596622 71.4888823 294.596622 71.19 294.56 C 70.9255424 294.521286 70.6646792 294.461087 70.41 294.38 C 69.9262595 294.221296 69.465607 293.999375 69.04 293.72 C 68.2362469 293.17508 67.5297485 292.499005 66.95 291.72 C 66.3905535 290.985845 65.8985551 290.202664 65.48 289.38 C 65.0504335 288.543011 64.7150488 287.66095 64.48 286.75 L 66.1 286.85 C 65.72 287.91 65.38 289.01 65.1 290.1 C 64.9585678 290.629742 64.848378 291.167334 64.77 291.71 C 64.699749 292.217581 64.699749 292.732419 64.77 293.24 C 64.8784503 293.904781 64.8546626 294.584428 64.7 295.24 C 64.470227 295.86761 64.1538308 296.460012 63.76 297 C 63.4304978 297.521267 63.0698425 298.022178 62.68 298.5 C 62.47 298.74 62.25 298.98 62.01 299.21 L 61.62 299.54 C 61.4465897 299.679079 61.2547711 299.793497 61.05 299.88 L 61.41 299.62 C 61.2685854 299.856294 61.1545183 300.107913 61.07 300.37 C 60.960539 300.696987 60.8736679 301.031107 60.81 301.37 C 60.6841442 302.046453 60.6139093 302.732079 60.6 303.42 C 60.5505401 304.810358 60.7158163 306.200027 61.09 307.54 C 61.4976522 308.910262 62.0091331 310.247467 62.62 311.54 C 63.2190188 312.847622 63.8866135 314.122728 64.62 315.36 L 65.32 316.52 L 64.02 316.63 C 63.9337703 316.642308 63.8462297 316.642308 63.76 316.63 L 63.65 316.63 L 63.48 316.63 L 63.2 316.55 C 63.0330004 316.500495 62.8693338 316.440373 62.71 316.37 C 62.41 316.25 62.11 316.12 61.83 315.98 C 61.26 315.7 60.71 315.42 60.15 315.09 C 58.9653195 314.417025 57.9682596 313.457785 57.25 312.3 C 56.5833312 311.175106 56.0942427 309.954071 55.8 308.68 C 55.4866315 307.452965 55.2759045 306.201982 55.17 304.94 C 54.9930928 302.441211 55.1139412 299.93025 55.53 297.46 C 55.8 297.66 55.17 296.81 55 296.13 C 54.8915425 295.769155 54.8277332 295.396374 54.81 295.02 C 54.81 294.64 54.81 294.38 54.81 294.02 C 54.828463 293.634696 54.9025636 293.254088 55.03 292.89 C 55.1511079 292.537585 55.3157126 292.201657 55.52 291.89 C 55.59 291.76 55.72 291.59 55.76 291.5 C 55.8 291.41 55.76 291.4 55.86 291.24 C 55.96 291.08 56.05 290.71 56.13 290.42 C 57.5 285.79 58.57 281.02 60.13 276.32 C 60.342364 275.701751 60.5928442 275.097258 60.88 274.51 C 61.2358169 273.898018 61.6961097 273.353113 62.24 272.9 C 63.17 272.04 64.11 271.25 65.06 270.48 C 66.98 268.93 68.91 267.48 70.87 265.97 L 71.34 267.59 L 65 266.93 L 63.43 266.76 C 62.93 266.69 62.43 266.65 61.94 266.63 C 61.4691668 266.604162 60.9969362 266.624257 60.53 266.69 C 60.0399009 266.767814 59.5555039 266.878056 59.08 267.02 C 58.8843824 267.047399 58.6949461 267.10829 58.52 267.2 C 58.326594 267.300028 58.1425267 267.417162 57.97 267.55 C 57.4814326 267.924528 56.9339584 268.215162 56.35 268.41 C 55.7722333 268.593458 55.1747086 268.707591 54.57 268.75 C 54.28 268.75 53.95 268.75 53.75 268.75 C 53.55 268.75 53.66 268.75 53.75 268.75 C 53.84 268.75 53.81 268.7 53.75 268.75 C 53.6087528 268.925093 53.4785027 269.108779 53.36 269.3 C 53.2520707 269.470463 53.1616128 269.651379 53.09 269.84 C 52.9232349 270.285391 52.7928087 270.743555 52.7 271.21 C 52.5091941 272.201152 52.3789528 273.203008 52.31 274.21 C 52.31 274.47 52.31 274.72 52.31 274.96 L 52.31 275.32 C 52.301154 275.396411 52.301154 275.473589 52.31 275.55 C 52.3153878 275.523605 52.3153878 275.496395 52.31 275.47 C 52.3641402 275.585752 52.3914849 275.712221 52.39 275.84 C 52.86 276.25 49.58 276.97 50.78 276.48 C 50.7383872 276.441106 50.7014694 276.397476 50.67 276.35 L 50.53 276.13 L 50.3 275.75 C 50.17 275.5 50.04 275.25 49.92 275 C 49.4325679 273.989623 49.0537785 272.930354 48.79 271.84 C 48.5002735 270.703872 48.4256566 269.523569 48.57 268.36 C 48.6107174 268.056464 48.6708405 267.755848 48.75 267.46 L 49.01 266.65 C 49.1875502 266.085383 49.4047573 265.534011 49.66 265 C 50.1870541 263.96839 50.8607103 263.018535 51.66 262.18 C 52.0484208 261.736201 52.488166 261.340095 52.97 261 C 53.1145579 260.901226 53.2648192 260.811069 53.42 260.73 L 53.73 260.61 L 53.9 260.55 L 54.67 260.31 C 55.7701757 259.933504 56.9273447 259.750793 58.09 259.77 C 58.4024249 259.781967 58.7134042 259.81875 59.02 259.88 L 59.8 260.06 C 60.27 260.14 60.8 260.22 61.28 260.28 C 63.33 260.5 65.43 260.63 67.52 260.73 C 69.61 260.83 71.7 260.8 73.74 260.73 C 74.25 260.73 74.74 260.66 75.23 260.6 L 75.55 260.54 L 75.76 260.47 C 75.9634865 260.38402 76.160644 260.28377 76.35 260.17 C 77.1679338 259.66556 77.9088858 259.045855 78.55 258.33 C 79.2280355 257.590296 79.8372233 256.790319 80.37 255.94 C 81.0446591 255.006427 81.853367 254.177501 82.77 253.48 C 84.47 252.12 86.16 250.95 87.7 249.58 C 88.47 248.9 89.21 248.19 89.91 247.45 C 90.26 247.07 90.63 246.7 90.91 246.35 C 91.19 246 91.48 245.54 91.75 245.12 C 92.82 243.38 93.75 241.51 94.75 239.64 L 96.12 236.81 L 96.78 235.38 L 96.93 235.07 C 96.9476215 235.034054 96.9808221 235.008231 97.02 235 C 97.1542411 234.966119 97.284859 234.919231 97.41 234.86 Z M 99.15 233.86 C 99.1333968 234.300288 99.0628706 234.736879 98.94 235.16 C 98.8815404 235.382685 98.804607 235.600106 98.71 235.81 L 98.52 236.21 L 97.85 237.64 L 96.46 240.5 C 95.46 242.4 94.55 244.29 93.4 246.14 C 93.11 246.61 92.81 247.07 92.46 247.53 C 92.11 247.99 91.7 248.39 91.34 248.79 C 90.59 249.57 89.81 250.33 88.99 251.03 C 87.37 252.47 85.59 253.71 83.99 254.97 C 83.2319433 255.538542 82.5585425 256.211943 81.99 256.97 C 81.3994661 257.898908 80.7303472 258.775453 79.99 259.59 C 79.2194114 260.442653 78.3303307 261.180186 77.35 261.78 C 77.0849091 261.932565 76.8111065 262.069466 76.53 262.19 C 76.3544649 262.25998 76.1739668 262.316803 75.99 262.36 L 75.53 262.44 C 74.95 262.53 74.41 262.56 73.87 262.6 C 71.7 262.69 69.62 262.71 67.45 262.6 C 65.28 262.49 63.22 262.37 61.08 262.12 C 60.55 262.06 60 261.98 59.44 261.88 L 58.68 261.7 C 58.4688658 261.657991 58.2549783 261.631255 58.04 261.62 C 57.0880955 261.612712 56.1416853 261.764813 55.24 262.07 L 54.51 262.31 L 54.3 262.37 L 54.3 262.37 L 54.07 262.5 C 53.7085681 262.763504 53.3736544 263.061577 53.07 263.39 C 52.4161639 264.098017 51.8672431 264.896141 51.44 265.76 C 51.2152688 266.191082 51.0246847 266.639122 50.87 267.1 L 50.64 267.8 C 50.59 268.01 50.54 268.23 50.51 268.45 C 50.3967204 269.383123 50.4577557 270.329169 50.69 271.24 C 50.9243506 272.199343 51.2595498 273.131197 51.69 274.02 C 51.8 274.25 51.91 274.47 52.03 274.68 L 52.2 274.98 L 52.27 275.09 L 52.27 275.04 C 53.47 274.56 50.22 275.31 50.68 275.69 C 50.6799149 275.803694 50.7037654 275.916132 50.75 276.02 C 50.7128505 275.929985 50.6860129 275.836054 50.67 275.74 C 50.653757 275.557026 50.653757 275.372974 50.67 275.19 C 50.6599987 275.043504 50.6599987 274.896496 50.67 274.75 C 50.67 274.47 50.67 274.2 50.67 273.92 C 50.7394394 272.824859 50.8831027 271.735691 51.1 270.66 C 51.2188813 270.092328 51.3793132 269.534159 51.58 268.99 C 51.7004823 268.690674 51.8477469 268.402839 52.02 268.13 C 52.1780832 267.872962 52.3517408 267.625834 52.54 267.39 C 52.7040227 267.186992 52.9083132 267.020154 53.14 266.9 C 53.3777081 266.789081 53.6377479 266.734336 53.9 266.74 C 54.22 266.74 54.41 266.74 54.65 266.74 C 55.1010201 266.710859 55.5472409 266.630338 55.98 266.5 C 56.3951657 266.358772 56.7838414 266.149225 57.13 265.88 C 57.3781329 265.695508 57.6387577 265.528441 57.91 265.38 C 58.2107075 265.24172 58.5260264 265.137732 58.85 265.07 C 59.3855854 264.914723 59.929864 264.791175 60.48 264.7 C 61.0569682 264.627399 61.6390643 264.603981 62.22 264.63 C 62.79 264.63 63.34 264.71 63.88 264.79 L 65.45 264.95 L 71.69 265.62 L 74 265.86 L 72.16 267.23 C 70.21 268.68 68.28 270.16 66.4 271.68 C 65.46 272.44 64.53 273.22 63.66 274.01 C 63.2660729 274.336121 62.9282617 274.724604 62.66 275.16 C 62.4105315 275.669143 62.1934336 276.193518 62.01 276.73 C 60.46 281.27 59.38 286.03 58.01 290.73 C 57.92 291.03 57.81 291.34 57.7 291.65 C 57.6334643 291.848553 57.5463226 292.039595 57.44 292.22 C 57.3676483 292.354554 57.2875123 292.484775 57.2 292.61 C 56.9247675 292.989311 56.7681691 293.441706 56.75 293.91 C 56.75 294.16 56.75 294.5 56.75 294.74 C 56.7598248 294.970968 56.8001751 295.19962 56.87 295.42 C 56.9403238 295.657018 57.0376276 295.885179 57.16 296.1 C 57.2553129 296.263861 57.3388567 296.434291 57.41 296.61 C 57.4540619 296.715041 57.4810685 296.826443 57.49 296.94 C 57.5031313 297.032871 57.5031313 297.127129 57.49 297.22 L 57.49 297.49 C 57.0869302 299.833802 56.9660692 302.217449 57.13 304.59 C 57.2488322 306.898202 57.8663289 309.153259 58.94 311.2 C 59.5152012 312.125227 60.3127508 312.891837 61.26 313.43 C 61.75 313.71 62.26 313.99 62.81 314.25 C 63.07 314.38 63.34 314.5 63.59 314.6 L 63.97 314.74 L 64.13 314.79 L 64.04 314.79 L 63.44 316.07 C 62.6619814 314.77742 61.9575281 313.441964 61.33 312.07 C 60.6884204 310.69533 60.1502611 309.274723 59.72 307.82 C 59.2906969 306.319202 59.101691 304.759903 59.16 303.2 C 59.0990142 302.467935 59.0990142 301.732065 59.16 301 C 59.238624 300.600587 59.3421596 300.206484 59.47 299.82 C 59.6092106 299.379917 59.8112999 298.962266 60.07 298.58 L 60.42 298.32 C 60.37 298.32 60.53 298.25 60.59 298.2 L 60.86 297.97 C 61.0459717 297.79548 61.2197153 297.608372 61.38 297.41 C 61.7465344 296.996167 62.0808448 296.554878 62.38 296.09 C 62.6596973 295.6753 62.8817296 295.224507 63.04 294.75 C 63.1364962 294.284953 63.1364962 293.805047 63.04 293.34 C 62.9602043 292.699141 62.9602043 292.050859 63.04 291.41 C 63.1295119 290.803542 63.25304 290.202594 63.41 289.61 C 63.7 288.45 64.05 287.34 64.41 286.21 L 65.33 283.6 L 66.03 286.31 C 66.2410806 287.081758 66.5326821 287.829196 66.9 288.54 C 67.2748358 289.270402 67.7131918 289.966417 68.21 290.62 C 68.67409 291.245073 69.2383718 291.789081 69.88 292.23 C 70.1899856 292.432173 70.5265291 292.590349 70.88 292.7 C 71.1706226 292.793344 71.4748419 292.837287 71.78 292.83 L 71.16 294 C 70.2535085 291.948046 69.4786071 289.840448 68.84 287.69 C 68.4852889 286.5465 68.2999886 285.35721 68.29 284.16 C 68.31263 283.53577 68.4168481 282.917185 68.6 282.32 C 68.7042527 281.966207 68.8591942 281.629378 69.06 281.32 C 69.1729025 281.147034 69.3073107 280.989105 69.46 280.85 C 69.5477897 280.772898 69.6414012 280.70269 69.74 280.64 C 69.8779578 280.548998 70.0300064 280.481421 70.19 280.44 L 69.68 280.79 C 70.3 279.91 70.92 279.07 71.68 278.23 C 71.8767642 277.978607 72.1015492 277.750467 72.35 277.55 C 72.6213864 277.349537 72.9214183 277.191093 73.24 277.08 C 73.6872038 276.914594 74.1161428 276.703475 74.52 276.45 C 76.1845553 275.301403 77.7320152 273.991757 79.14 272.54 L 81.42 270.37 C 82.2137251 269.583644 83.112206 268.910624 84.09 268.37 L 89.6 265.37 L 90.51 264.88 L 90.84 265.88 C 90.9486833 266.151078 91.1082167 266.398863 91.31 266.61 C 91.5401696 266.838909 91.8116226 267.02214 92.11 267.15 C 92.2655117 267.21862 92.4259643 267.275447 92.59 267.32 L 93.18 267.44 C 93.63 267.53 94.05 267.64 94.48 267.74 C 96.0932325 268.207547 97.7420924 268.542001 99.41 268.74 L 99.65 268.74 L 99.85 268.87 C 100.824868 269.533466 101.641008 270.404243 102.24 271.42 C 102.829958 272.392348 103.271488 273.447302 103.55 274.55 L 103.82 275.6 L 102.74 275.6 C 101.839723 275.653716 100.951252 275.832083 100.1 276.13 L 99.4 276.35 C 99.2570628 276.41491 99.1199023 276.491854 98.99 276.58 C 98.6278068 276.831292 98.2926776 277.119503 97.99 277.44 C 96.7752645 278.777259 95.9126455 280.395958 95.48 282.15 C 95.2246536 283.924594 95.4922386 285.735136 96.25 287.36 C 96.43 287.79 96.63 288.21 96.84 288.62 C 96.9357802 288.81268 97.0426253 288.999659 97.16 289.18 L 97.16 289.18 L 97.16 289.13 C 96.97 289.13 97.64 289.13 96.43 288.87 C 95.08 289.82 95.92 289.73 95.67 289.77 C 95.6742049 289.870306 95.6979845 289.968821 95.74 290.06 C 95.6838073 289.922962 95.650042 289.777771 95.64 289.63 C 95.6308699 289.480139 95.6308699 289.329861 95.64 289.18 C 95.6447264 288.155865 95.7215833 287.133335 95.87 286.12 C 95.9918591 285.07998 96.2300152 284.056915 96.58 283.07 C 96.6890139 282.788657 96.8228764 282.517585 96.98 282.26 C 97.12 282.05 97.26 281.84 97.44 281.59 C 97.5575651 281.432547 97.6954256 281.291324 97.85 281.17 C 98.0642178 280.9954 98.3250223 280.887601 98.6 280.86 C 98.8730683 280.842978 99.1469317 280.842978 99.42 280.86 C 100.246808 280.853359 101.057299 280.629181 101.77 280.21 C 102.202517 279.873903 102.672274 279.588694 103.17 279.36 C 103.323561 279.300746 103.480504 279.250658 103.64 279.21 L 103.97 279.13 L 104.7 278.94 C 106.9 278.41 108.97 278.94 110.85 279.09 L 116.65 279.7 L 118.91 279.94 L 117.1 281.29 C 115.16 282.74 113.23 284.22 111.35 285.74 C 110.42 286.5 109.48 287.28 108.62 288.08 C 108.229863 288.409984 107.892613 288.797821 107.62 289.23 C 107.376476 289.740513 107.162784 290.264727 106.98 290.8 C 105.44 295.34 104.36 300.09 102.98 304.8 C 102.89 305.1 102.78 305.41 102.67 305.72 C 102.601634 305.921028 102.514587 306.115209 102.41 306.3 C 102.337838 306.431451 102.257688 306.558355 102.17 306.68 C 101.901974 307.06231 101.749266 307.513494 101.73 307.98 C 101.715067 308.253129 101.715067 308.526871 101.73 308.8 C 101.736463 309.030531 101.773452 309.259189 101.84 309.48 C 101.914214 309.714008 102.014863 309.938793 102.14 310.15 C 102.2 310.29 102.27 310.38 102.39 310.66 C 102.429474 310.769933 102.456314 310.884 102.47 311 C 102.483286 311.09621 102.483286 311.19379 102.47 311.29 L 102.47 311.56 C 102.070401 313.900853 101.952896 316.281172 102.12 318.65 C 102.239893 320.949758 102.861059 323.19551 103.94 325.23 C 104.500075 326.155234 105.293158 326.917283 106.24 327.44 C 106.73 327.73 107.24 328.01 107.79 328.26 C 108.05 328.39 108.31 328.51 108.57 328.61 C 108.687172 328.663635 108.807377 328.710381 108.93 328.75 L 109.09 328.75 L 109.09 328.75 C 109.09 328.75 109.09 328.75 109.09 328.75 C 109.09 328.75 109.09 328.75 108.93 328.75 L 108.29 330.12 C 107.514901 328.824076 106.807291 327.488962 106.17 326.12 C 105.520804 324.743964 104.979184 323.319703 104.55 321.86 C 104.12548 320.354821 103.936576 318.792986 103.99 317.23 C 104.006042 316.441448 104.086308 315.655515 104.23 314.88 C 104.308568 314.476306 104.4155 314.078653 104.55 313.69 C 104.690976 313.24749 104.892918 312.826779 105.15 312.44 L 105.53 312.15 C 105.47 312.15 105.63 312.09 105.69 312.04 C 105.75 311.99 105.86 311.9 105.95 311.81 C 106.135758 311.638825 106.309502 311.455057 106.47 311.26 C 106.813649 310.845904 107.127757 310.408158 107.41 309.95 C 107.684392 309.540857 107.902986 309.096943 108.06 308.63 C 108.157778 308.171825 108.157778 307.698175 108.06 307.24 C 107.97514 306.59277 107.97514 305.93723 108.06 305.29 C 108.149512 304.683542 108.27304 304.082594 108.43 303.49 C 108.73 302.33 109.08 301.21 109.43 300.08 L 110.43 297.25 L 111.18 300.19 C 111.392839 300.957965 111.684385 301.701907 112.05 302.41 C 112.421083 303.136238 112.859683 303.825945 113.36 304.47 C 113.81102 305.090492 114.365845 305.628402 115 306.06 C 115.309204 306.263571 115.645952 306.421842 116 306.53 C 116.156417 306.580844 116.317052 306.617656 116.48 306.64 C 116.609892 306.647484 116.740108 306.647484 116.87 306.64 L 116.17 307.92 C 115.263466 305.861232 114.488573 303.746978 113.85 301.59 C 113.486188 300.441487 113.297405 299.244735 113.29 298.04 C 113.312213 297.408397 113.419858 296.782712 113.61 296.18 C 113.710562 295.824834 113.86575 295.487469 114.07 295.18 C 114.186743 295.004001 114.324416 294.842822 114.48 294.7 C 114.570453 294.618817 114.667448 294.545234 114.77 294.48 C 114.913951 294.377903 115.07732 294.306429 115.25 294.27 L 114.69 294.64 C 115.31 293.76 115.94 292.92 116.69 292.08 C 116.894011 291.825402 117.125402 291.594011 117.38 291.39 C 117.65811 291.186171 117.964737 291.024434 118.29 290.91 C 118.731049 290.741789 119.156091 290.534288 119.56 290.29 C 121.217745 289.136538 122.761433 287.82725 124.17 286.38 L 126.44 284.21 C 127.236631 283.422705 128.138547 282.749633 129.12 282.21 L 134.64 279.21 L 135.64 278.68 L 135.99 279.77 C 136.104493 280.026661 136.259842 280.263061 136.45 280.47 C 136.674024 280.694548 136.938732 280.874414 137.23 281 C 137.378915 281.065276 137.53272 281.118773 137.69 281.16 L 138.28 281.28 C 138.74 281.37 139.16 281.47 139.59 281.58 C 141.197902 282.03054 142.840087 282.348275 144.5 282.53 L 144.77 282.53 L 144.98 282.67 C 145.937472 283.319574 146.742651 284.169105 147.34 285.16 C 147.919769 286.092486 148.364204 287.102566 148.66 288.16 C 148.936845 289.204653 149.117598 290.272431 149.2 291.35 C 149.2 291.88 149.27 292.42 149.29 292.9 L 149.29 293.14 C 149.29 293.09 149.29 293.14 149.12 292.82 C 148.9171 292.578466 148.600439 292.46401 148.29 292.52 L 148.12 292.52 C 148.005225 292.56128 147.902249 292.629931 147.82 292.72 L 147.82 292.72 L 147.77 292.8 L 147.77 292.72 C 147.94 292.4 148.08 292.22 148.22 292 C 148.64401 291.39119 148.961839 290.714959 149.16 290 C 149.302809 289.10963 149.275663 288.200266 149.08 287.32 C 148.749728 285.492272 147.786824 283.839051 146.36 282.65 L 145.87 282.25 L 146.05 281.72 C 146.27 281.08 145.49 280.03 144.55 279.21 C 143.558403 278.35125 142.523731 277.543538 141.45 276.79 C 140.9 276.39 140.35 276.01 139.78 275.55 C 139.473583 275.312643 139.186053 275.05186 138.92 274.77 C 138.491769 274.345143 138.256777 273.763084 138.27 273.16 C 138.317452 272.915072 138.38433 272.674311 138.47 272.44 L 138.66 271.95 C 138.78 271.62 138.91 271.3 139.04 270.95 L 139.84 269.07 C 142.02 264.07 144.32 259.21 146.72 254.36 C 147.94 251.93 149.16 249.52 150.47 247.14 C 151.753918 244.722331 153.183205 242.38471 154.75 240.14 C 157.791521 235.735289 160.534337 231.131634 162.96 226.36 L 163.16 225.97 L 163.59 225.86 C 165.65 225.33 167.7 224.74 169.74 224.12 C 170.74 223.8 171.74 223.48 172.74 223.12 L 173.08 223 L 173.08 223 C 173.035686 223.019548 172.995088 223.046614 172.96 223.08 C 172.900758 223.131653 172.850123 223.192415 172.81 223.26 C 172.76153 223.351768 172.724584 223.449172 172.7 223.55 C 172.678914 223.672432 172.678914 223.797568 172.7 223.92 C 172.721879 223.993208 172.752076 224.063668 172.79 224.13 C 172.91 224.3 172.94 224.29 172.93 224.29 L 172.86 224.29 L 172.58 224.17 C 172.15 224.01 171.64 223.87 171.14 223.74 C 170.14 223.48 169.09 223.26 168.04 223.03 L 167.63 222.94 L 167.42 222.89 L 167.19 222.82 C 166.732056 222.619143 166.492877 222.110889 166.63 221.63 C 166.654983 221.529196 166.699117 221.434136 166.76 221.35 L 166.86 221.2 L 166.95 221.12 C 167.121968 220.968175 167.313712 220.840346 167.52 220.74 L 167.93 220.55 C 168.46 220.33 168.93 220.14 169.49 219.95 C 171.54 219.21 173.58 218.55 175.65 217.95 L 176.02 217.83 L 176.33 217.99 C 176.427488 218.035709 176.521126 218.089217 176.61 218.15 L 176.77 218.26 L 177.06 218.48 L 177.58 218.91 C 177.93 219.2 178.25 219.49 178.58 219.79 C 179.22 220.38 179.85 220.98 180.46 221.58 C 181.69 222.82 182.89 223.98 184.06 225.32 C 186.37 228 188.3 230.81 190.29 233.61 C 194.21 239.24 198 244.94 201.82 250.61 C 203.72 253.45 205.643333 256.27 207.59 259.07 C 208.57 260.47 209.57 261.846667 210.59 263.2 C 211.513852 264.522294 212.641126 265.690068 213.93 266.66 C 215.187054 267.592269 216.635113 268.234333 218.17 268.54 C 219.504131 268.905417 220.93009 268.483054 221.85 267.45 L 222.16 267 L 222.41 266.48 C 222.575625 266.125861 222.719232 265.761835 222.84 265.39 C 223.092721 264.617686 223.293174 263.829237 223.44 263.03 C 223.747592 261.410349 223.921511 259.768151 223.96 258.12 L 224.03 255.72 L 225.7 257.45 C 229.157927 261.09338 232.943901 264.410709 237.01 267.36 C 239.015357 268.812721 241.139535 270.093918 243.36 271.19 C 243.870849 271.43079 244.407715 271.611982 244.96 271.73 C 245.233852 271.787502 245.511075 271.827582 245.79 271.85 L 246.28 271.9 C 246.48 271.9 246.73 271.98 246.89 272.03 C 248.26 272.41 249.4 272.88 250.61 273.32 C 251.82 273.76 252.99 274.23 254.17 274.65 C 254.75 274.86 255.35 275.07 255.91 275.23 C 256.155607 275.304551 256.406252 275.361364 256.66 275.4 L 256.77 275.4 C 256.526837 275.395882 256.295004 275.502599 256.14 275.69 C 255.93 275.96 256.02 275.97 256 275.9 C 255.971302 275.382698 255.873776 274.87153 255.71 274.38 C 255.55 273.81 255.35 273.23 255.14 272.66 C 254.71 271.5 254.2 270.36 253.68 269.23 C 251.506522 264.699761 248.932975 260.372588 245.99 256.3 C 242.99 252.3 239.75 248.3 236.52 244.41 C 233.29 240.52 229.99 236.62 226.69 232.75 C 220.083333 225.01 213.416667 217.31 206.69 209.65 L 206.93 209.87 C 206.821751 209.785916 206.721341 209.692199 206.63 209.59 C 206.63 209.52 206.53 209.47 206.51 209.43 L 206.34 209.2 L 206.1 208.8 C 205.96 208.55 205.82 208.3 205.71 208.06 C 205.46 207.57 205.26 207.06 205.06 206.63 C 204.67 205.68 204.3 204.74 203.96 203.79 C 203.28 201.9 202.67 200.01 202.07 198.11 C 200.903333 194.31 199.81 190.5 198.79 186.68 C 196.799349 179.154633 194.034598 171.85569 190.54 164.9 C 187.01955 157.921899 183.009527 151.201769 178.54 144.79 C 178 143.98 177.42 143.11 176.9 142.27 L 175.33 139.75 C 174.296667 138.083333 173.243333 136.44 172.17 134.82 C 170.01 131.56 167.74 128.36 165.43 125.19 C 163.12 122.02 160.76 118.86 158.43 115.74 C 157.23 114.16 156.03 112.65 154.83 111.11 C 153.63 109.57 152.38 108.11 151.12 106.57 C 146.126667 100.57 140.9 94.7233333 135.44 89.03 C 132.7 86.1966667 129.896667 83.4366667 127.03 80.75 L 126.49 80.25 L 126.16 80 L 126.16 80 L 126 79.85 C 125.757563 79.5755091 125.635119 79.2153788 125.66 78.85 C 125.668029 78.734047 125.691572 78.6196944 125.73 78.51 L 125.73 78.43 L 125.81 78.27 L 125.98 77.96 L 126.3 77.32 C 126.713636 76.4569033 127.080826 75.5723073 127.4 74.67 C 127.73 73.77 127.99 72.83 128.32 71.93 C 128.65 71.03 128.91 70.09 129.21 69.17 C 131.480241 61.6823471 133.181747 54.0339299 134.3 46.29 L 134.39 45.67 L 134.95 45.46 C 140.03 43.56 145.063333 41.56 150.05 39.46 C 151.29 38.92 152.53 38.39 153.74 37.81 C 154.36 37.54 154.95 37.24 155.54 36.94 C 156.13 36.64 156.67 36.32 157.23 35.94 C 159.461163 34.5325283 161.5245 32.8751489 163.38 31 L 163.57 30.81 L 163.8 30.74 L 164.96 30.4 L 165.52 30.4 C 165.328666 30.3352283 165.121334 30.3352283 164.93 30.4 C 164.715829 30.465462 164.536147 30.6128017 164.43 30.81 C 164.36141 30.9111196 164.320078 31.028229 164.31 31.15 C 164.295134 31.2192107 164.295134 31.2907893 164.31 31.36 C 164.300794 31.4196468 164.300794 31.4803532 164.31 31.54 L 164.31 31.61 L 164.31 31.61 L 164.2 31.44 L 163.92 31.06 C 163.759938 30.836833 163.575462 30.6322325 163.37 30.45 C 162.902441 30.0655637 162.396423 29.7304521 161.86 29.45 C 160.734799 28.8276906 159.539795 28.3409611 158.3 28 C 155.745018 27.3821192 153.116453 27.1229648 150.49 27.23 C 147.826782 27.3535166 145.174472 27.6508158 142.55 28.12 C 139.91 28.58 137.27 29.12 134.7 29.84 L 133.92 30.05 L 133.56 29.28 L 133.56 29.28 C 133.001766 28.1255645 132.384277 27.0007327 131.71 25.91 C 131.37 25.36 131.03 24.81 130.71 24.27 C 130.39 23.73 129.99 23.27 129.6 22.72 C 128.01 20.65 126.33 18.61 124.67 16.56 L 119.67 10.46 L 118.3 9 L 117.66 8.24 L 117.5 8.05 L 117.42 7.96 L 117.42 7.96 C 117.486966 8.03993695 117.564317 8.11056253 117.65 8.17 C 117.853751 8.32020824 118.097192 8.40715146 118.35 8.42 C 118.810304 8.44047005 119.244546 8.20605616 119.48 7.81 C 119.602984 7.6043942 119.668594 7.36957613 119.67 7.13 C 119.660179 6.99793379 119.636721 6.86723801 119.6 6.74 L 119.68 6.97 C 120.15 8.22 120.6 9.47 121.03 10.76 C 121.13 11.09 121.24 11.41 121.34 11.76 C 121.34 11.85 121.34 11.96 121.41 12.08 L 121.41 12.18 L 121.41 12.36 C 121.41 12.43 121.41 12.45 121.41 12.57 C 121.399412 12.7265011 121.369174 12.8810482 121.32 13.03 C 121.297239 13.1219136 121.260116 13.2096596 121.21 13.29 C 121.105947 13.4699167 120.962322 13.6238005 120.79 13.74 C 120.635057 13.8549777 120.45802 13.9366871 120.27 13.98 C 120.176762 13.9859726 120.083238 13.9859726 119.99 13.98 C 119.820863 13.9804064 119.652522 13.9568387 119.49 13.91 L 119.2 13.78 L 118.97 13.65 L 118.71 13.46 C 118.16 13.05 117.71 12.7 117.16 12.35 C 116.098739 11.663649 114.996703 11.0425015 113.86 10.49 C 111.541035 9.37891349 109.140748 8.44621155 106.68 7.7 C 104.2 6.95 101.62 6.17 99.12 5.32 C 96.62 4.47 94.12 3.57 91.62 2.43 L 92.93 1.13 L 92.93 1.13 L 94.17 4.13 L 94.7 5.43 L 93.24 5.51 L 93.24 5.51 C 89.82 5.78 86.24 6.38 82.75 7 C 79.26 7.62 75.75 8.32 72.32 9.17 C 65.46415 10.8629548 58.8194203 13.3182512 52.51 16.49 C 49.3487524 18.0614318 46.268224 19.7902657 43.28 21.67 C 40.2869833 23.5081102 37.4144655 25.5355734 34.68 27.74 C 29.2406874 32.0850498 24.8345524 37.5841796 21.78 43.84 C 21.0521826 45.3903015 20.4372505 46.99113 19.94 48.63 L 19.73 49.34 C 19.64 49.63 19.49 49.91 19.41 50.11 L 18.8 51.35 L 17.57 53.77 C 16.73 55.37 15.88 56.97 14.99 58.55 C 14.55 59.34 14.08 60.13 13.6 60.93 C 13.35 61.32 13.1 61.72 12.8 62.14 C 12.6362477 62.370066 12.4592836 62.5904364 12.27 62.8 L 12.16 63 L 12.16 63 L 12.16 63 C 12.1892869 62.9390218 12.2127251 62.8754037 12.23 62.81 C 12.2752865 62.6508653 12.2922114 62.4850018 12.28 62.32 C 12.2460862 61.9286352 12.054832 61.5677781 11.75 61.32 C 11.5472196 61.1487717 11.2948506 61.0471231 11.03 61.03 L 10.76 61.03 L 10.59 61.03 L 10.59 61.03 L 10.78 60.94 L 11.28 60.65 C 11.63 60.43 11.98 60.2 12.28 59.95 C 12.58 59.7 12.96 59.46 13.28 59.2 L 13.56 59 L 13.7 58.87 C 13.7915021 58.7931316 13.8884192 58.7229502 13.99 58.66 L 14.08 58.6 L 14.27 58.5 L 14.48 58.43 C 14.6424877 58.3838969 14.8112179 58.3636492 14.98 58.37 C 15.2041673 58.3810326 15.4229461 58.4425642 15.62 58.55 C 15.8305857 58.6589412 16.0148702 58.8125116 16.16 59 C 16.2788529 59.2021163 16.3538126 59.4269952 16.38 59.66 C 16.4113454 59.9280499 16.3909774 60.1996243 16.32 60.46 C 16.2012545 60.9830365 16.0475766 61.4975235 15.86 62 L 15.35 63.28 L 14.3 65.78 C 12.9 69.09 11.52 72.37 10.2 75.7 L 6.2 85.7 C 5.54 87.37 4.89 89.04 4.2 90.7 L 3.66 91.96 C 3.46817395 92.4150482 3.25117175 92.8590681 3.01 93.29 L 2.75 93.69 L 2.75 93.69 C 2.78608556 93.6357733 2.80996887 93.574359 2.82 93.51 C 2.82951681 93.4336287 2.82951681 93.3563713 2.82 93.28 C 2.81818294 93.1557977 2.7909573 93.0332823 2.74 92.92 C 2.65168415 92.7010249 2.48873397 92.5203627 2.28 92.41 C 2.19872494 92.3662411 2.11093504 92.3358523 2.02 92.32 L 1.99 92.32 L 2.16 92.32 C 2.53597568 92.2305709 2.90389967 92.1101594 3.26 91.96 C 3.45 91.88 3.64 91.8 3.81 91.71 L 4.04 91.59 L 4.11 91.59 L 4.31 91.47 C 3.99 91.62 4.95 90.82 5.88 92.07 C 5.94671916 92.3053631 5.94671916 92.5546369 5.88 92.79 C 5.81335535 92.9772663 5.72967133 93.1580238 5.63 93.33 L 5.44 93.65 L 5.06 94.24 C 4.55 95.01 4.06 95.75 3.5 96.49 C 3.23 96.86 2.95 97.23 2.66 97.59 C 2.52 97.78 2.37 97.96 2.19 98.16 C 2.08725772 98.2927933 1.96984703 98.4135586 1.84 98.52 L 1.9 98.46 C 1.976568 98.3726649 2.03442497 98.2705644 2.07 98.16 C 2.1644859 97.889603 2.14552186 97.5924775 2.01742649 97.3362868 C 1.88933113 97.080096 1.66300912 96.8866495 1.39 96.8 C 1.28103136 96.7786975 1.16896864 96.7786975 1.06 96.8 L 0.98 96.8 C 1.32235226 96.6747512 1.65636412 96.527786 1.98 96.36 C 2.36 96.17 2.73 95.97 3.1 95.75 C 3.84012544 95.3219822 4.55467079 94.8511837 5.24 94.34 C 5.58 94.08 5.91 93.81 6.24 93.54 C 6.57 93.27 6.96 92.93 7.33 92.65 C 8.81460379 91.4726326 10.4488649 90.4974563 12.19 89.75 L 14.04 88.97 L 13.51 90.97 C 11.5520762 98.3246888 10.0063371 105.782964 8.88 113.31 C 7.82 120.64 7.16 128.22 8.16 135.73 C 9.0122767 143.267333 10.6889756 150.688403 13.16 157.86 C 15.6717858 165.01943 18.95087 171.88606 22.94 178.34 C 26.9432179 184.782718 31.5759183 190.812263 36.77 196.34 C 38.07 197.72 39.43 199.05 40.77 200.41 C 42.11 201.77 43.53 203.03 44.91 204.35 L 49.16 208.23 L 53.45 212 C 59.2577229 216.913867 65.4249342 221.386348 71.9 225.38 C 75.1043417 227.367664 78.46942 229.083653 81.96 230.51 C 82.39 230.7 82.83 230.81 83.27 230.96 C 83.6933041 231.118748 84.127838 231.245766 84.57 231.34 L 85.22 231.49 C 85.4281722 231.527575 85.638657 231.550962 85.85 231.56 C 86.2878693 231.613026 86.729374 231.62975 87.17 231.61 C 88.0700275 231.590842 88.9667076 231.493813 89.85 231.32 C 90.2596371 231.239353 90.6612379 231.122219 91.05 230.97 C 91.2192794 230.898874 91.3830604 230.815312 91.54 230.72 C 91.6086375 230.680997 91.6724149 230.634003 91.73 230.58 L 91.79 230.53 C 91.79 230.53 91.84 230.47 91.79 230.53 L 93.3 231.71 L 90.94 234.09 L 90.61 232.49 C 90.37 232.42 90.45 232.49 90.42 232.49 L 90.78 232.49 L 91.34 232.49 L 92.48 232.37 C 93.25 232.28 94.01 232.18 94.75 232.05 C 96.2469552 231.777002 97.7236759 231.40281 99.17 230.93 L 101.3 230.25 L 100.39 232.25 L 99.32 234.61 L 99.2 234.89 L 98.96 235.03 L 98.81 235.12 C 98.75 235.12 98.81 235.12 98.81 235.12 C 98.8976612 235.046551 98.9720736 234.958609 99.03 234.86 C 99.2022592 234.608176 99.2501306 234.291488 99.16 234 C 99.0955314 233.78072 98.9578913 233.590141 98.77 233.46 C 98.6865525 233.401942 98.590651 233.364267 98.49 233.35 L 98.49 233.35 C 98.7813544 233.417582 99.0271632 233.612028 99.16 233.88 L 99.15 233.86 Z" stroke-linecap="round" />
</g>
		<g transform="matrix(1 0 0 1 27.9 76.77)" id="Group"  >
<path style="stroke: none; stroke-width: 1; stroke-dasharray: none; stroke-linecap: butt; stroke-dashoffset: 0; stroke-linejoin: miter; stroke-miterlimit: 4; fill: rgb(0,0,0); fill-rule: nonzero; opacity: 1;" vector-effect="non-scaling-stroke"  transform=" translate(-149.9, -229.77)" d="M 151.05 229.28 C 150.843166 229.317238 150.643848 229.388182 150.46 229.49 C 150.330326 229.552102 150.206495 229.625732 150.09 229.71 C 149.911012 229.86884 149.761983 230.058513 149.65 230.27 C 149.58 230.38 149.53 230.48 149.5 230.53 C 149.47 230.58 149.44 230.62 149.44 230.53 C 149.44 230.44 149.44 230.23 149.44 230.07 C 149.44 229.91 149.44 229.98 149.44 230 L 149.38 230.34 C 149.38 230.47 149.38 230.5 149.38 230.49 C 149.38 230.48 149.38 230.49 149.38 230.49 C 149.322713 230.319926 149.249033 230.155821 149.16 230 C 149.128565 229.948693 149.069514 229.921136 149.01 229.93 C 148.952954 229.95108 148.903978 229.989561 148.87 230.04 C 148.849415 230.101661 148.849415 230.168339 148.87 230.23 C 148.875885 230.269784 148.875885 230.310216 148.87 230.35 C 148.87 230.35 148.87 230.43 148.87 230.28 L 149.62 228.4 C 149.5 228.49 149.38 228.58 149.47 228.54 L 149.61 228.54 L 150 228.35 C 150.095287 228.299098 150.195894 228.258855 150.3 228.23 C 150.3 228.23 150.3 228.23 150.36 228.29 C 150.41397 228.401807 150.434791 228.526732 150.42 228.65 C 150.371746 228.961476 150.371746 229.278524 150.42 229.59 C 150.516755 229.794415 150.652652 229.977876 150.82 230.13 C 150.966292 230.292612 151.142931 230.425091 151.34 230.52 L 150.19 230.95 C 150.35 230.65 150.51 230.37 150.68 230.1 L 151.05 229.28 Z M 152.67 228.1 L 152.14 229.87 C 151.96 230.45 151.76 231.01 151.57 231.56 L 151.31 232.32 L 150.42 231.99 C 150.123715 231.870618 149.83632 231.730262 149.56 231.57 C 149.27 231.41 149.05 231.2 148.76 231.07 C 148.387962 230.969577 148.010738 230.889459 147.63 230.83 C 147.468218 230.778347 147.320898 230.68927 147.2 230.57 C 147.2 230.57 147.13 230.57 147.13 230.46 C 147.176586 230.358695 147.237178 230.264439 147.31 230.18 L 147.59 229.83 L 147.67 229.71 C 147.74 229.64 147.6 229.71 147.46 229.71 L 148.21 227.84 C 148.21 227.68 148.21 227.76 148.27 227.76 C 148.33 227.76 148.33 227.82 148.36 227.86 C 148.39 227.9 148.49 228.03 148.53 228.03 C 148.62202 228.068102 148.720415 228.088459 148.82 228.09 C 148.920747 228.080779 149.015645 228.038602 149.09 227.97 C 149.18 227.87 149.28 227.62 149.39 227.51 C 149.5 227.4 149.44 227.46 149.47 227.46 C 149.5 227.46 149.52 227.46 149.54 227.59 L 149.54 227.92 C 149.54 227.92 149.6 227.92 149.63 227.84 C 149.740576 227.659054 149.871421 227.491304 150.02 227.34 C 150.104176 227.229972 150.251136 227.18915 150.38 227.24 C 150.489699 227.280128 150.584104 227.353554 150.65 227.45 C 150.8 227.65 150.88 227.88 151.05 227.92 C 151.207509 227.969375 151.367786 228.009445 151.53 228.04 C 151.904457 228.120001 152.289214 228.140251 152.67 228.1 Z" stroke-linecap="round" />
</g>
		<g transform="matrix(1 0 0 1 0 99.87)" id="Group"  >
<path style="stroke: none; stroke-width: 1; stroke-dasharray: none; stroke-linecap: butt; stroke-dashoffset: 0; stroke-linejoin: miter; stroke-miterlimit: 4; fill: rgb(0,0,0); fill-rule: nonzero; opacity: 1;" vector-effect="non-scaling-stroke"  transform=" translate(-122, -252.87)" d="M 149.55 233 C 149.513007 233.137123 149.538638 233.283589 149.62 233.4 C 149.62 233.5 149.82 233.48 149.7 233.5 L 148.87 233.66 L 147.21 234.01 L 143.87 234.69 C 141.64 235.15 139.4 235.57 137.11 235.85 C 135.97 236 134.82 236.13 133.65 236.18 C 133.07 236.18 132.48 236.18 131.88 236.18 L 130.17 236.1 C 129.03 236.04 127.89 235.98 126.75 235.89 L 125.04 235.75 C 124.44 235.75 123.94 235.66 123.21 235.54 L 124.53 234.67 C 124.423655 235.348413 124.263141 236.017218 124.05 236.67 C 123.857933 237.309366 123.620669 237.934274 123.34 238.54 C 123.044803 239.188088 122.679275 239.801772 122.25 240.37 C 122.023219 240.663966 121.779471 240.944444 121.52 241.21 C 121.218296 241.513963 120.882777 241.782378 120.52 242.01 L 118.61 243.29 L 118.2 240.8 C 118.03 239.8 117.9 238.7 117.76 237.66 L 117.56 236.12 L 117.46 235.39 L 117.46 235.08 C 117.46 235.08 117.46 235 117.46 235.08 C 117.46 235.16 117.46 235.08 117.46 235.08 C 117.477224 235.129479 117.500751 235.176533 117.53 235.22 L 117.61 235.35 C 117.704172 235.47769 117.815178 235.592059 117.94 235.69 L 118.14 235.81 L 118.34 235.9 C 118.455529 235.947727 118.576407 235.981305 118.7 236 C 118.977391 236.036735 119.259567 236.002323 119.52 235.9 C 119.661323 235.834139 119.795383 235.753703 119.92 235.66 L 119.74 235.78 L 119.63 235.85 L 119.41 235.97 L 119 236.17 C 118.733333 236.29 118.463333 236.4 118.19 236.5 C 117.65 236.7 117.11 236.87 116.56 237.03 C 116.01 237.19 115.48 237.34 114.93 237.46 C 114.368581 237.52871 113.832766 237.734793 113.37 238.06 C 113.134773 238.241987 112.883778 238.402624 112.62 238.54 C 112.365012 238.652631 112.095872 238.730009 111.82 238.77 C 111.273071 238.887361 110.718234 238.964236 110.16 239 C 109.580395 239.030254 108.999605 239.030254 108.42 239 C 108.084814 238.988943 107.750738 238.955536 107.42 238.9 L 107.07 238.81 C 106.98137 238.786004 106.894498 238.755933 106.81 238.72 C 106.723128 238.676149 106.639573 238.626015 106.56 238.57 C 106.467015 238.493161 106.383135 238.405926 106.31 238.31 C 106.167532 238.10109 106.094093 237.852796 106.1 237.6 C 106.110653 237.357164 106.202168 237.124856 106.36 236.94 L 106.36 236.94 L 106.36 236.94 L 106.5 236.8 C 107.966667 235.24 109.363333 233.62 110.69 231.94 L 111.9 233.34 C 110.9 233.99 109.9 234.5 108.9 235.1 C 108.395267 235.434024 107.867248 235.731453 107.32 235.99 C 107.017614 236.126465 106.702841 236.233622 106.38 236.31 C 106.079941 236.369458 105.769511 236.348763 105.48 236.25 L 106.22 235.7 C 105.89 235.97 105.85 236.41 105.68 236.77 C 105.51 237.13 105.43 237.54 105.34 237.94 C 105.14 238.74 104.95 239.54 104.7 240.31 C 104.415752 241.058195 104.081669 241.786494 103.7 242.49 L 102.63 244.63 L 98.25 253.19 C 97.53 254.62 96.81 256.05 96.13 257.49 L 95.63 258.56 L 95.4 259.07 C 95.3781883 259.132042 95.3514358 259.192235 95.32 259.25 C 95.32 259.25 95.32 259.31 95.32 259.25 C 95.32 259.19 95.32 259.11 95.32 259.17 C 95.3880364 259.2701 95.4650189 259.363818 95.55 259.45 C 95.799958 259.701139 96.0636991 259.938172 96.34 260.16 C 97.55 261.16 98.92 262.09 100.17 263.16 C 100.864134 263.703813 101.497776 264.320692 102.06 265 C 102.369871 265.399773 102.616109 265.845026 102.79 266.32 C 102.98036 266.880511 103.011515 267.48284 102.88 268.06 L 102.56 267.06 C 103.745362 268.057926 104.677476 269.322448 105.28 270.75 C 105.561347 271.454947 105.775628 272.184841 105.92 272.93 C 106.069358 273.690328 106.123107 274.466341 106.08 275.24 L 105.29 274.24 C 108.03 274.64 110.98 274.8 113.78 274.93 C 115.21 274.93 116.64 274.93 118.06 274.93 C 118.77 274.93 119.48 274.87 120.14 274.79 L 120.6 274.71 C 120.717002 274.685827 120.831012 274.648942 120.94 274.6 C 121.226051 274.464246 121.503266 274.310608 121.77 274.14 C 122.877443 273.367915 123.853277 272.42247 124.66 271.34 C 125.08 270.8 125.41 270.22 125.93 269.55 C 126.4291 268.96049 126.981432 268.4182 127.58 267.93 C 128.73 266.93 129.9 266.14 131.02 265.26 C 132.136743 264.392599 133.205018 263.464536 134.22 262.48 C 134.72 261.99 135.22 261.48 135.68 260.96 C 135.89 260.7 136.09 260.46 136.29 260.18 L 136.86 259.32 C 137.593333 258.12 138.283333 256.88 138.93 255.6 C 140.24 253.06 141.47 250.46 142.64 247.84 C 143.81 245.22 144.96 242.57 146.09 239.92 L 147.77 235.92 L 148.57 233.92 C 148.71 233.6 149.08 233.45 149.55 233 Z M 151.1 231.73 C 151.020818 232.759815 150.784761 233.771487 150.4 234.73 L 149.51 236.73 L 147.77 240.73 C 146.6 243.37 145.42 246.01 144.2 248.63 C 142.98 251.25 141.74 253.87 140.41 256.45 C 139.74 257.74 139.03 259.02 138.26 260.28 L 137.63 261.22 C 137.41 261.53 137.15 261.85 136.9 262.15 C 136.4 262.69 135.9 263.23 135.37 263.74 C 134.311102 264.764505 133.196047 265.729328 132.03 266.63 C 130.89 267.53 129.69 268.37 128.63 269.26 C 128.10772 269.677677 127.628655 270.146691 127.2 270.66 C 126.82 271.12 126.43 271.8 125.97 272.4 C 125.068661 273.649438 123.963177 274.738019 122.7 275.62 C 122.365384 275.851397 122.010619 276.052208 121.64 276.22 C 121.426126 276.324285 121.201446 276.404768 120.97 276.46 L 120.37 276.56 C 119.626845 276.657726 118.879224 276.717803 118.13 276.74 C 116.66 276.8 115.21 276.81 113.76 276.8 C 110.76 276.69 107.97 276.57 105 276.18 L 104.16 276 L 104.16 275.13 C 104.190538 273.880496 103.951799 272.639055 103.46 271.49 C 102.966045 270.346402 102.204701 269.338137 101.24 268.55 L 100.77 268.15 L 100.92 267.58 C 100.978675 267.058159 100.794326 266.538294 100.42 266.17 C 99.9658049 265.599914 99.4416892 265.089237 98.86 264.65 C 97.64 263.65 96.35 262.81 94.97 261.87 C 94.63 261.62 94.28 261.36 93.91 261.03 C 93.7063637 260.839318 93.5190433 260.631927 93.35 260.41 C 93.0914263 260.060399 92.9387051 259.643886 92.91 259.21 C 92.8994557 259.000215 92.9265496 258.790237 92.99 258.59 C 93.04 258.37 93.07 258.3 93.1 258.19 L 93.31 257.58 L 93.72 256.41 C 94.2933333 254.876667 94.8766667 253.363333 95.47 251.87 C 96.67 248.87 97.9 245.87 99.28 242.94 L 100.28 240.75 C 100.607592 240.008087 100.992072 239.29262 101.43 238.61 C 101.89 237.93 102.43 237.31 102.98 236.67 C 103.26 236.36 103.51 236.03 103.76 235.67 C 104.01 235.31 104.3 235.04 104.34 234.6 L 104.34 234.6 L 105.07 234.06 C 105.284029 233.868056 105.541366 233.73081 105.82 233.66 L 106.49 233.5 C 106.98 233.4 107.49 233.26 108.01 233.1 C 109.011836 232.698247 109.981351 232.220176 110.91 231.67 L 115.91 228.93 L 112.16 233.07 C 110.73 234.65 109.38 236.31 108.09 238.02 L 107.98 238.18 L 107.98 238.18 L 107.98 238.18 C 108.024498 238.136244 108.061642 238.085592 108.09 238.03 C 108.244554 237.706433 108.21403 237.324881 108.01 237.03 C 107.960296 236.957651 107.899559 236.89354 107.83 236.84 C 107.781425 236.794506 107.723364 236.760352 107.66 236.74 C 107.66 236.74 107.66 236.74 107.6 236.74 C 107.54 236.74 107.6 236.74 107.6 236.74 C 107.6 236.74 108 236.69 108.22 236.65 C 108.68 236.55 109.17 236.43 109.65 236.28 C 110.13 236.13 110.65 236.01 111.12 235.88 C 111.625014 235.723977 112.160393 235.693089 112.68 235.79 C 113.205619 235.838855 113.731977 235.704616 114.17 235.41 C 114.63 235.18 115.08 234.94 115.52 234.67 C 115.96 234.4 116.38 234.12 116.79 233.83 L 117.4 233.41 L 117.68 233.2 L 117.79 233.1 L 117.79 233.1 L 117.79 233.1 C 117.923273 233.003175 118.067628 232.922605 118.22 232.86 C 118.485159 232.749003 118.775201 232.711021 119.06 232.75 C 119.189768 232.770181 119.317108 232.803691 119.44 232.85 L 119.64 232.94 L 119.86 233.08 C 119.997404 233.188964 120.118617 233.316911 120.22 233.46 L 120.3 233.58 L 120.3 233.58 C 120.340716 233.654664 120.377434 233.731439 120.41 233.81 L 120.46 233.93 C 120.52 234.1 120.54 234.17 120.57 234.28 L 120.69 234.76 L 120.84 235.62 C 120.92 236.17 120.97 236.71 121.02 237.26 C 121.12 238.34 121.19 239.41 121.21 240.5 L 118.89 239.28 C 119.065966 239.198135 119.230655 239.093944 119.38 238.97 C 119.576114 238.817789 119.763103 238.654173 119.94 238.48 C 120.312974 238.111137 120.647986 237.705772 120.94 237.27 C 121.243213 236.802515 121.513854 236.314693 121.75 235.81 C 121.984182 235.323202 122.168456 234.813936 122.3 234.29 L 122.61 233.15 L 123.61 233.42 C 123.99 233.52 124.61 233.61 125.15 233.69 C 125.69 233.77 126.25 233.83 126.81 233.89 C 127.92 234 129.04 234.09 130.17 234.17 L 131.85 234.28 C 132.38 234.28 132.92 234.28 133.47 234.28 C 134.573692 234.256002 135.675289 234.172548 136.77 234.03 C 138.98 233.75 141.19 233.33 143.39 232.87 C 144.49 232.63 145.58 232.36 146.68 232.1 L 148.34 231.71 L 149.17 231.5 C 149.464481 231.429668 149.768185 231.406046 150.07 231.43 C 150.42751 231.466432 150.776 231.564551 151.1 231.72 L 151.1 231.73 Z" stroke-linecap="round" />
</g>
		<g transform="matrix(1 0 0 1 -13.38 -120.97)" id="bird"  >
<path style="stroke: none; stroke-width: 1; stroke-dasharray: none; stroke-linecap: butt; stroke-dashoffset: 0; stroke-linejoin: miter; stroke-miterlimit: 4; fill: rgb(0,0,0); fill-rule: nonzero; opacity: 1;" vector-effect="non-scaling-stroke"  transform=" translate(-108.62, -32.03)" d="M 113.26 29.6 C 113.184346 29.3278334 113.039673 29.0798227 112.84 28.88 C 112.610092 28.5234724 112.29357 28.2310336 111.92 28.03 C 111.503633 27.8112641 111.059615 27.6498029 110.6 27.55 L 110.38 27.55 L 110.19 27.47 C 109.6197 27.3199887 109.0203 27.3199887 108.45 27.47 L 108.06 27.64 C 107.972094 27.6541899 107.885234 27.6742345 107.8 27.7 C 107.46 27.82 107.13 27.97 106.8 28.12 L 106.53 28.26 C 105.727188 28.7368543 105.043288 29.3899786 104.53 30.17 C 104.29159 30.5663744 104.100294 30.9892395 103.96 31.43 C 103.817944 31.8869719 103.740527 32.361573 103.73 32.84 C 103.710485 33.2773518 103.807091 33.7120758 104.01 34.1 C 104.080165 34.3086195 104.177682 34.507015 104.3 34.69 C 104.453005 35.0855036 104.684293 35.4460412 104.98 35.75 L 105.64 36.26 C 106.138987 36.5569197 106.709359 36.7124758 107.29 36.71 C 107.66 36.71 108.02 36.62 108.39 36.57 L 108.66 36.52 C 108.834672 36.4784549 109.005335 36.4215674 109.17 36.35 C 109.595279 36.1948784 110.006734 36.0042041 110.4 35.78 C 110.777821 35.5391455 111.135643 35.2682709 111.47 34.97 C 111.612079 34.8563526 111.742701 34.7290799 111.86 34.59 C 112.151947 34.2529518 112.419302 33.8953647 112.66 33.52 C 112.875813 33.1322337 113.059751 32.7275681 113.21 32.31 C 113.280228 32.1345535 113.337058 31.9540365 113.38 31.77 L 113.5 30.9 C 113.533798 30.4532018 113.451104 30.0052778 113.26 29.6 L 113.26 29.6 Z" stroke-linecap="round" />
</g>
		<g transform="matrix(1 0 0 1 19.73 -2.49)" id="bird"  >
<path style="stroke: none; stroke-width: 1; stroke-dasharray: none; stroke-linecap: butt; stroke-dashoffset: 0; stroke-linejoin: miter; stroke-miterlimit: 4; fill: rgb(0,0,0); fill-rule: nonzero; opacity: 1;" vector-effect="non-scaling-stroke"  transform=" translate(-141.73, -150.51)" d="M 183.04 220.08 C 172.3 212.02 154.04 195.69 142.29 189.16 C 141.915604 188.941922 141.440647 189.008003 141.14 189.32 C 131.74 182.14 126.14 174.05 119.23 164.32 C 112.52 154.84 107.5 144.02 105.75 132.47 C 104.15 121.9 104.75 109.04 108.54 99.01 C 111.69 90.59 118.54 80.01 129.54 82.01 L 125.54 79.01 C 101.54 85.01 99.12 107.9 100.2 127.1 C 101.6 152.01 117.8 173.16 136.57 188.27 C 148.08 197.53 167.76 214.14 180.41 221.7 C 180.798211 221.953463 181.315976 221.866444 181.6 221.5 L 182.03 221.82 C 183.06 222.58 184.06 220.84 183.04 220.08 Z" stroke-linecap="round" />
</g>
		<g transform="matrix(1 0 0 1 34.88 47.23)" id="bird"  >
<path style="stroke: none; stroke-width: 1; stroke-dasharray: none; stroke-linecap: butt; stroke-dashoffset: 0; stroke-linejoin: miter; stroke-miterlimit: 4; fill: rgb(0,0,0); fill-rule: nonzero; opacity: 1;" vector-effect="non-scaling-stroke"  transform=" translate(-156.88, -200.23)" d="M 154.88 198.94 C 156.213333 199.786667 157.546667 200.646667 158.88 201.52 C 157.56 200.67 156.21 199.81 154.88 198.94 Z" stroke-linecap="round" />
</g>
		<g transform="matrix(1 0 0 1 12.53 -17.26)" id="bird"  >
<path style="stroke: none; stroke-width: 1; stroke-dasharray: none; stroke-linecap: butt; stroke-dashoffset: 0; stroke-linejoin: miter; stroke-miterlimit: 4; fill: rgb(0,0,0); fill-rule: nonzero; opacity: 1;" vector-effect="non-scaling-stroke"  transform=" translate(-134.53, -135.74)" d="M 145.36 122 C 145.488211 129.677356 140.409837 136.470452 133.01 138.52 C 132.936349 138.545051 132.865872 138.578612 132.8 138.62 C 133.154915 136.783658 133.154915 134.896342 132.8 133.06 C 132.54 131.8 130.61 132.33 130.87 133.59 C 131.977372 139.934759 128.410758 146.168982 122.38 148.43 C 121.17 148.85 121.69 150.78 122.91 150.36 C 127.586366 148.657991 131.15387 144.803745 132.49 140.01 C 132.700931 140.387666 133.144409 140.570031 133.56 140.45 C 141.814323 138.1449 147.48063 130.569293 147.36 122 C 147.32 120.76 145.32 120.76 145.36 122 Z" stroke-linecap="round" />
</g>
		<g transform="matrix(1 0 0 1 31.77 -23.46)" id="bird"  >
<path style="stroke: none; stroke-width: 1; stroke-dasharray: none; stroke-linecap: butt; stroke-dashoffset: 0; stroke-linejoin: miter; stroke-miterlimit: 4; fill: rgb(0,0,0); fill-rule: nonzero; opacity: 1;" vector-effect="non-scaling-stroke"  transform=" translate(-153.77, -129.54)" d="M 162.29 119.08 C 160.710545 128.718619 153.513679 136.474848 144.02 138.77 C 142.76 139.05 143.3 140.98 144.55 140.7 C 154.728406 138.226163 162.460493 129.935888 164.22 119.61 C 164.41 118.35 162.49 117.81 162.29 119.08 Z" stroke-linecap="round" />
</g>
		<g transform="matrix(1 0 0 1 -89.53 5.95)" id="bird"  >
<path style="stroke: none; stroke-width: 1; stroke-dasharray: none; stroke-linecap: butt; stroke-dashoffset: 0; stroke-linejoin: miter; stroke-miterlimit: 4; fill: rgb(0,0,0); fill-rule: nonzero; opacity: 1;" vector-effect="non-scaling-stroke"  transform=" translate(-32.47, -158.95)" d="M 34.99 160.77 L 31.67 156.12 C 31.536372 155.890256 31.3167828 155.723158 31.0597298 155.655611 C 30.8026768 155.588065 30.5293087 155.625626 30.3 155.76 C 30.0702558 155.893628 29.9031582 156.113217 29.8356114 156.37027 C 29.7680647 156.627323 29.8056261 156.900691 29.94 157.13 L 33.26 161.78 C 33.393628 162.009744 33.6132172 162.176842 33.8702702 162.244389 C 34.1273232 162.311935 34.4006913 162.274374 34.63 162.14 C 34.8597442 162.006372 35.0268418 161.786783 35.0943886 161.52973 C 35.1619353 161.272677 35.1243739 160.999309 34.99 160.77 L 34.99 160.77 Z" stroke-linecap="round" />
</g>
		<g transform="matrix(1 0 0 1 -77.17 3.92)" id="bird"  >
<path style="stroke: none; stroke-width: 1; stroke-dasharray: none; stroke-linecap: butt; stroke-dashoffset: 0; stroke-linejoin: miter; stroke-miterlimit: 4; fill: rgb(0,0,0); fill-rule: nonzero; opacity: 1;" vector-effect="non-scaling-stroke"  transform=" translate(-44.83, -156.92)" d="M 53.47 169.87 C 45.1005544 163.181811 39.5127514 153.624102 37.79 143.05 C 37.58 141.78 35.66 142.32 35.86 143.58 C 37.6544891 154.496896 43.4249714 164.363708 52.06 171.28 C 53.05 172.07 54.48 170.67 53.47 169.87 Z" stroke-linecap="round" />
</g>
		<g transform="matrix(1 0 0 1 -52.81 9.56)" id="bird"  >
<path style="stroke: none; stroke-width: 1; stroke-dasharray: none; stroke-linecap: butt; stroke-dashoffset: 0; stroke-linejoin: miter; stroke-miterlimit: 4; fill: rgb(0,0,0); fill-rule: nonzero; opacity: 1;" vector-effect="non-scaling-stroke"  transform=" translate(-69.19, -162.56)" d="M 82.84 186 C 75.35 186 68.53 182 63.84 176.36 C 58.46 169.93 56.36 161.47 56.55 153.21 C 56.7094866 148.164243 57.5607638 143.164252 59.08 138.35 C 59.46 137.12 57.53 136.59 57.15 137.82 C 54.43 146.73 53.47 156.47 56.02 165.53 C 58.1578449 173.437973 63.2568793 180.219975 70.26 184.47 C 74.0685518 186.735717 78.408704 187.953581 82.84 188 C 83.3922847 188 83.84 187.552285 83.84 187 C 83.84 186.447715 83.3922847 186 82.84 186 Z" stroke-linecap="round" />
</g>
		<g transform="matrix(1 0 0 1 -100.03 -70.46)" id="bird"  >
<path style="stroke: none; stroke-width: 1; stroke-dasharray: none; stroke-linecap: butt; stroke-dashoffset: 0; stroke-linejoin: miter; stroke-miterlimit: 4; fill: rgb(0,0,0); fill-rule: nonzero; opacity: 1;" vector-effect="non-scaling-stroke"  transform=" translate(-21.97, -82.54)" d="M 11.1 92.47 C 18.9567795 87.7630786 26.1218736 81.9879252 32.39 75.31 C 32.8551495 74.7788994 33.138885 74.1133469 33.2 73.41 C 33.2 73.16 33.2 72.18 32.69 72.68 C 26.509611 79.29029 19.4422825 85.0114607 11.69 89.68 C 11.1845074 90.0871645 10.8579857 90.6756213 10.78 91.32 C 10.78 91.45 10.59 92.79 11.06 92.51 L 11.1 92.47 Z" stroke-linecap="round" />
</g>
		<g transform="matrix(1 0 0 1 23.54 -116.5)" id="bird"  >
<path style="stroke: none; stroke-width: 1; stroke-dasharray: none; stroke-linecap: butt; stroke-dashoffset: 0; stroke-linejoin: miter; stroke-miterlimit: 4; fill: rgb(0,0,0); fill-rule: nonzero; opacity: 1;" vector-effect="non-scaling-stroke"  transform=" translate(-145.54, -36.5)" d="M 133.54 29 C 133.54 29 126.29 38.58 126.54 43 C 126.6 44 134.54 46.5 134.54 46.5 L 141.61 44.11 L 156.54 38 L 164.54 31.5 L 164.54 30.5 L 160.78 27.32 C 160.78 27.32 150.54 26.5 151.54 26.5 C 152.54 26.5 144.8 26.92 144.8 26.92 L 133.54 29 Z" stroke-linecap="round" />
</g>
		<g transform="matrix(1 0 0 1 26.87 -122.32)" id="bird"  >
<path style="stroke: none; stroke-width: 1; stroke-dasharray: none; stroke-linecap: butt; stroke-dashoffset: 0; stroke-linejoin: miter; stroke-miterlimit: 4; fill: rgb(255,255,255); fill-rule: nonzero; opacity: 1;" vector-effect="non-scaling-stroke"  transform=" translate(-148.87, -30.68)" d="M 151.5 30.08 C 151.429888 29.8239583 151.260844 29.6063021 151.030123 29.4749974 C 150.799402 29.3436928 150.52594 29.3095164 150.27 29.38 L 146.94 30.05 C 146.683958 30.1201124 146.466302 30.2891555 146.334997 30.5198766 C 146.203693 30.7505976 146.169516 31.0240602 146.24 31.28 C 146.390403 31.8091793 146.940001 32.1174905 147.47 31.97 L 150.8 31.31 C 151.056042 31.2398876 151.273698 31.0708445 151.405003 30.8401234 C 151.536307 30.6094024 151.570484 30.3359398 151.5 30.08 Z" stroke-linecap="round" />
</g>
		<g transform="matrix(1 0 0 1 -12.24 -121.51)" id="bird"  >
<path style="stroke: none; stroke-width: 1; stroke-dasharray: none; stroke-linecap: butt; stroke-dashoffset: 0; stroke-linejoin: miter; stroke-miterlimit: 4; fill: rgb(0,0,0); fill-rule: nonzero; opacity: 1;" vector-effect="non-scaling-stroke"  transform=" translate(-109.76, -31.49)" d="M 109.37 30 L 109.53 32.66 C 109.526171 32.9044782 109.646676 33.1341921 109.85 33.27 C 110.05 33.37 110.16 33.15 110.15 32.98 L 109.99 30.31 C 109.998171 30.0671969 109.876188 29.8384782 109.67 29.71 C 109.47 29.61 109.36 29.83 109.37 30 L 109.37 30 Z" stroke-linecap="round" />
</g>
		<g transform="matrix(1 0 0 1 -12.7 -122.37)" id="bird"  >
<path style="stroke: none; stroke-width: 1; stroke-dasharray: none; stroke-linecap: butt; stroke-dashoffset: 0; stroke-linejoin: miter; stroke-miterlimit: 4; fill: rgb(255,255,255); fill-rule: nonzero; opacity: 1;" vector-effect="non-scaling-stroke"  transform=" translate(-109.3, -30.63)" d="M 109.03 29.2 C 107.75 29.2 108.48 32.06 109.56 32.06 C 110.84 32.06 110.16 29.2 109.03 29.2 Z" stroke-linecap="round" />
</g>
</g>
</g>
</svg>