<svg version="1.1" id="Слой_1" xmlns="http://www.w3.org/2000/svg" xmlns:xlink="http://www.w3.org/1999/xlink" x="0" y="0" viewBox="0 0 929.6 552.8" xml:space="preserve"><style>.st0{fill-rule:evenodd;clip-rule:evenodd}.st13{fill:#fff}.st16{fill:#1a1919}.st29{fill:#006e58}</style><g id="Слой_2_1_"><g id="picture"><path class="st0" d="M727.9 220.4c1.1-11.3-.7-22.7-5-33.2-3.1-24-20-43.9-43.2-50.8-30.2-9-53.4 8.9-77.7 23.9-5.6 3.4-11.4 6.7-17.2 9.6-5.2 2.6-11 3.6-16.5 5.8-11.7 4.7-23.5 9.1-35.1 14.2-29.7 13.2-59.6 27.6-86 46.7-23.5 17-44.7 38.7-55.5 66-3.9 10.2-6.5 20.9-7.7 31.8-2.4 20.1-3.7 39.1-3 59.4.4 12.1 0 24.6 2.8 36.4 4.2 17.4 17 30.3 31.5 40 33.6 22.5 70.7 35.1 111 33.5 40.7-1.7 84.8-14.9 112.6-45.3 14-15.3 27.7-34.3 39.2-51.4s15.5-35.3 17-56.1c.9-13.2-.1-26.8 3.2-39.7 3.3-13.2 12.7-21.9 19.6-33.1 10.2-16.8 11.4-38.1 10-57.7zm-12.4-36.3c-.1.5-.1 1 .2 1.4.2.4.4.7.5 1.1 2.1 7.7 2.6 15.8 1.3 23.7-1.4 8.6-5 16.1-9.8 23-.2 0-.4.1-.6.3-12.2 11.1-22.8 23.7-36.2 33.5-14.6 10.7-31.1 17.4-49.2 18.7-17.8 1.4-34.4-2.5-51.4-7-13.3-3.5-26.5-6.4-39.9-3.5 18.1-22.5 54.9-14 73.7-35.5 1.7 2.9 4.2 5.4 6.3 8.1 3.1 4.2 23.2 15.2 34.5 11.2 19.5-2.3 39.2-19.3 44.2-37.6 2.7-10.1 0-21.7-7.9-28.8-2.1-1.9-4.6-3.4-7.2-4.6 9.7-9.4 15-25.6 11.1-38.9 14.4 7 25.4 19.6 30.4 34.9zM552.7 381.7c-.1.1 0 .2.1.1m-95.5 46.9c5.8-.9 11.5-2.2 17.2-3.8 8 1.4 15.8 3.4 23.5 6 11.7 4.1 23.9 12 36.5 15-24.2 1.3-48.4-3.2-70.5-13.2-7.3-3.3-14.4-7.2-21.1-11.7 1 0 2.2.1 2.2.1 2.3 0 4.7.4 7 .7 4.7.5 9.3 1 14 1.7 1.8.2 3.5.5 5.3.8-4.8.7-9.5 1.8-14.2 2.9-1 .2-.8 1.6.1 1.5zm59.9 6.8c-7.7-3.4-15.2-6.8-23.3-9.3-17.8-5.4-36.8-7.6-55.4-8.6h-.4c-3.3-2.4-6.5-5-9.5-7.8 2.2.1 4.5 0 6.7-.3 0 .1.1.1.2.1l.1-.1c2.7-.3 5.5-.8 8.2-.9 3.2-.2 6.4-.2 9.7-.1-1.1 1.1-2.1 2.3-3.2 3.5-.1.1 0 .2.1.1 1.5-1.2 3-2.4 4.6-3.6 3.8.2 7.7.6 11.5 1.2 15.1 2.2 29.3 8 43.3 13.9 17.4 7.4 36 15.6 55.1 17.3-6.2 1.7-12.4 3-18.8 3.8-10-2.3-19.4-4.9-28.9-9.2zM451 404.8c3-.8 6-1.5 9.1-2.3l-3 2.7c-2-.2-4.1-.3-6.1-.4zm16.3 1.5l1.3-.3-.6.4-.7-.1zm31.3 8.9c-9.4-3.8-19.2-6.7-29.2-8.5l1.5-1.1c2.6-.6 5.2-1.1 7.8-1.6-1.1.8-2.1 1.7-3.1 2.6-.6.6.2 1.7.8 1.1 1.7-1.6 3.5-3 5.5-4.3 4.5-.9 8.9-1.8 13.4-2.6.1 0 .2-.2.2-.3 0-.1-.1-.2-.2-.2-3.7.4-7.3 1-11 1.5 1.9-1.2 3.9-2.4 5.9-3.5.4-.2.2-.9-.3-.7-3.1 1.3-6 2.9-8.7 4.8-2.5.5-5.1.9-7.6 1.5 5.7-4.3 11.4-8.6 16.9-13.2.1-.1.1-.2 0-.3-.1-.1-.2-.1-.3 0-6.5 4.5-12.7 9.2-18.9 14-2.5.5-5 1.1-7.5 1.7-.5-.1-1-.1-1.5-.2l-3-.3c1.5-1.3 3-2.5 4.5-3.8 5.3-1.4 10.5-2.9 15.7-4.4.2-.1.1-.4-.1-.4-4.6 1.1-9.2 2.1-13.9 3.2 3.8-3.3 7.6-6.5 11.5-9.6.1-.1.1-.2 0-.3-.1-.1-.2-.1-.2 0-4.9 3.4-9.9 7-14.5 10.8L447 405c-1.9 0-3.9.1-5.8.3 3.8-3.4 7.5-6.9 11.3-10.2 5.7-4.9 11.6-9.5 17.4-14.3.2-.2.2-.4 0-.6-.1-.2-.4-.2-.5-.1-11 7.2-21.1 15.7-30 25.4-4.1.4-8.2 1.6-11.9 3.5l-3-3c4.7-4.9 9.7-9.4 14.8-13.8.2-.2 0-.5-.2-.3-5.4 4.1-10.4 8.7-15.2 13.5-11.5-11.7-20.2-25.9-23.7-42.1 8.1-3.8 16.7-6.4 25.5-7.6-7.3 5.2-15.4 11.8-20 19.5-.1.2.2.4.3.2 3.4-2.6 6.3-6.1 9.4-9.1 3.8-3.7 7.8-7.3 11.7-10.8 35.1-4.2 69.5 13.3 101.5 29.5 27.2 13.8 72.1 36.8 101.1 15.7-14.3 16.7-32.6 29.4-53.2 36.9-28 .4-52.2-12.4-77.9-22.4zm105-114.8c-21.2-1.1-40.4-11.9-61.4-13.2-12.9-.8-26.9 2.5-35.4 12.9-5.3 6.5-7.3 14.8-10.2 22.5-4.8 12.6-13.3 21.3-26.9 23.7-.4.1-.7.5-.6.9.1.4.4.6.8.6.3 0 .5-.1.8-.1.7.5 1.5 1 1.6 1 9 2.8 17.9 2.7 26.8 7.1s16.9 10.4 25 16.2c14.2 10.4 30.2 18.1 47.3 22.5 16.2 4.3 39.1 9 56.7 3.1-17.5 12-41.4 7.7-60.5 1.1-22.4-7.7-43-19.8-64.4-29.9-30.8-14.4-72.1-26.3-103.5-7.2-.6-2.8-1-5.7-1.2-8.5-.1-1.1-.1-2.2-.2-3.3.2.2.6.4.9.4 1.8 0 3.7 0 5.5-.1.1.1.2.1.3 0l.1-.1c18.6-.3 37.9-2.3 55.1-9.4 18.9-7.8 30.4-22.4 40-39.9 11.6-21.1 21.6-41.9 45.7-50.8 18.2-6.7 37.7-8.3 55-17 .6 1.8 1.4 3.5 2.3 5.2-21.8 20.9-60.3 12.3-78 38.6-.6.7-.4 1.7.3 2.3.4.3 1 .4 1.6.2 19.3-5.8 38.2 1.9 56.8 6.4 16 3.8 32.8 5 49.1 1.9 18-3.4 34.5-12.8 48.9-24.7-5.6 6.5-10.2 13.8-13.7 21.6-.2 0-.4.1-.6.2-19.4 11.5-41.6 16.9-64 15.8zm-196.2 46.9l-8.5.5c-.2 0-.5.1-.6.2v-.3c.2-1.8-.2-4.8.2-6.8.9-4.9 14.1 1.2 8.9 6.4zm210-139c-3.1 1.5-6.1 3.2-8.9 5.2.7-1.6 1.5-3.1 2.5-4.5 3.6-2 7.2-4.1 10.7-6.3 0 .1.1.1.2.1 6.2-1.9 12.4-5.6 17.9-9 .3-.2 0-.6-.3-.5-4.7 1.8-9.3 4-13.7 6.5 0-.2-.2-.4-.5-.4h-.1c-4 1.6-7.8 3.6-11.3 6 1.5-1.6 3.2-3.1 5-4.4 4-1.9 8-4 11.9-6.1a83.4 83.4 0 0120.9-4.2c7.2-.5 15.1.2 21.2 3.8-4.2 1.5-8.4 3.2-12.7 4.4-2.6-.1-5.2.1-7.8.6 1-.6 2-1.2 2.9-1.9.2-.1.2-.3.1-.5-.1-.1-.3-.2-.4-.1-6.5 2.5-13.2 5.1-19.4 8.2-.4.2-.6.6-.4 1 .2.4.6.6 1 .4l.8-.2c-1.1.8-2.3 1.6-3.3 2.5l-9.2 4c-.3.1-.4.4-.3.7.1.3.4.4.7.3 2-.6 4.1-1.4 6-2.3-4.7 4.6-8.1 10.3-9.9 16.6-4.1 1.6-8.1 3.5-11.9 5.6-.4-.9-.8-1.7-1.1-2.6 1.4-.7 2.8-1.5 4.1-2.2 2.5-1.3 4.9-2.8 7.3-4.3.3-.2 0-.7-.3-.6-2.9 1.2-5.6 2.6-8.3 4.2-1 .6-2.1 1.1-3.1 1.7-.3-.8-.5-1.7-.7-2.6 2.7-1.9 5.5-3.6 8.2-5.4.2-.2 0-.6-.2-.4-2.8 1.3-5.6 2.9-8.2 4.7-.3-1.8-.3-3.7-.1-5.6h.1c3.3-1.6 6.4-3.7 9-6.3.3-.4-.2-.8-.5-.6-2.8 1.6-5.6 3.4-8.3 5.1.2-1 .5-2 .8-3 3.6-2 7-4.2 10.3-6.7.1-.4-.2-1.1-.7-.9zm59.6-10.5c1.5 1.5 2.8 3.3 3.7 5.2 2 4.2 2.9 8.8 2.6 13.4-2.3-6.2-6.9-11.4-12.7-14.5l-.1-.1c2.2-1 4.4-2.1 6.4-3.5.2-.1.3-.3.1-.5zm-57 35.9c-1.5.9-3 1.8-4.5 2.9-1.1.8-2.3 1.6-3.4 2.5-1-1.4-2-2.9-2.8-4.5 3.9-1.6 7.7-3.5 11.4-5.5-.4 1.4-.6 3-.7 4.6zm-3.5 4.1c1.2-.8 2.3-1.6 3.5-2.6 0 .8 0 1.6.1 2.4-2.2 1-4.2 2.2-6.1 3.5-.3-.4-.6-.8-.9-1.1 1.1-.6 2.2-1.4 3.4-2.2zm3.7 1.4c.1.7.2 1.3.3 2 .3 1.5.8 2.9 1.3 4.3-.7.5-1.4 1.1-2.1 1.5-1.6-1.3-3.1-2.7-4.5-4.2 1.8-1 3.5-2.3 5-3.6zm2.1 7.3c.6 1.4 1.3 2.6 2.1 3.9-1.2-.8-2.4-1.6-3.5-2.5.5-.4 1-.9 1.4-1.4zm3.1-10.5c0-9.3 5.2-18.1 12.5-23.6 7.6-5.6 18.6-9.7 27.9-6.2 9.5 3.6 17 16.2 13.3 26.4-3.7 10-20 17.7-29.6 19.9-6.6 1.5-12.5 4-18.1-1.3-4-3.7-5.9-9.9-6-15.2zm51-38.4c-2.7.9-5.3 2-7.8 3.4-1.3-.5-2.6-1-4-1.3 3.4-.9 6.6-2.4 9.5-4.2.9.6 1.8 1.4 2.6 2.1-.1-.1-.1-.1-.3 0zm5.5-49.8c1.4 6.3 2.6 12.2 1.4 19-1.4 7.9-5.1 14.8-9.9 21.1-3.9-1.5-8-2.4-12.2-2.6 12.2-8.9 18.6-26 11.6-40.2 3 .6 6.1 1.5 9.1 2.7zm-169.6 65.8c-.1 0-.1.2 0 .2m90.4-44.1c3.5-2.3 6.8-4.6 10.2-6.9 10.3-7.1 19.6-11.8 33.9-17.3 4.2-1.6 8.9-1.8 13.6-1.8 3 0 5.9.2 8.9.6 4.1 9.9 5.8 19.6.4 29.7-2.5 4.6-6.2 8.4-10.8 11-3.1-.1-6.2 0-9.3.3-21.3 2-50 11.8-50.5 37.5 0 2.5.3 5.1 1 7.5-17.7 9-38 10.5-56.6 17.3s-30.2 19-39.1 36.4c-10.6 21-19.1 41.6-41.6 52.3-17 8.1-35.7 9.6-54.2 10.7 4.3-3.8-5.8-9.9-6.2-20.2-.3-8.3 8.8-20.6 12.8-27.1 9.2-14.9 18.9-29.6 30.6-42.6 25.8-28.7 61.2-41.8 95.9-56.1M391.4 319.8c7.6-29.1 27.5-52.8 50.8-71.1 26.8-21.1 58-36.4 89-50.3 15.2-6.9 30.8-12.6 46.2-19-45.8 24.2-99 35.7-134.7 75.4-12.6 14-22.8 30-32.6 46-8.9 14.5-16 29.4-16.1 46.7-.1 35.2 23.9 64.1 53 81.2 21.4 12.5 45.5 19.8 70.3 21.2 12.4.8 24.9.1 37.1-2.1 5.9-1 11.8-2.5 17.5-4.3 22.9-7.5 43.8-20 60-38.2 24.3-27.3 29.8-60 36.1-94.7 3.8-20.9 12-37.4 25.9-53.3 10.8-12.3 22.5-24.1 27.2-40.3.9-3.2 1.6-6.4 2-9.7.5 3.1.7 6.2.8 9.4-.2.3-.3.7-.3 1.1v5.9c-.2 1.4-.3 2.8-.6 4.3-2.6 15.4-11.1 26.8-20.7 38.7-19.1 23.7-20 50.7-25 79.5-10.6 61.1-62.2 102-121.5 111.9-53 8.8-112.9-4.7-150.7-44.5-4.9-5.1-9.9-10.7-13.1-17.1-4-8-4.2-17.4-4.6-26.1-.9-16.9-.3-34.1 4-50.6zm-3.1 111.4c0-.2-.1-.3-.1-.5.3.7.7 1.4 1 2.1-.3-.6-.6-1.1-.9-1.6zM533.6 500c-4 .2-8 .3-12 .3 3.2-1.6 6.4-3.3 9.6-4.9 4.5-.2 9-.7 13.4-1.3a104 104 0 01-10.5 5.4c-.3.1-.5.3-.5.5zm-18.2-11.8c-1.3 0-2.6-.1-3.8-.2-2.9-.2-5.7-.5-8.5-.8 2.1-1 4.1-2 6.1-3.1 4.4.4 8.9.6 13.3.6-2.4 1.3-4.7 2.5-7.1 3.5zm9.7-3.5c2.9 0 5.8-.1 8.7-.3l-8.3 3.9h-6.8c2.2-1.1 4.3-2.2 6.4-3.6zm-21.9-3.3v-.4c-.1-.7-.8-1.2-1.5-1.1-.4.1-.8.3-1 .7 0 .2-.1.3-.1.5-2.6-.3-5.2-.7-7.7-1.1 2.1-1.1 4.1-2.2 6.1-3.4 6 .8 12 1.3 18.1 1.6-2.4 1.3-4.9 2.7-7.3 3.9-2.2-.2-4.4-.4-6.6-.7zm-2.6 1.7c.4.6 1.2.8 1.8.4.1 0 .1-.1.2-.1 1.2.1 2.4.3 3.7.5l-6.3 3c-5.3-.7-10.6-1.6-15.8-2.6 2-.9 4-1.9 6-2.9 3.4.7 6.9 1.3 10.4 1.7zm-3.8 5.2c-2.5 1.1-5 2.1-7.5 3.1-4.8-.8-9.6-1.9-14.3-3.1 2.2-.9 4.4-1.9 6.5-2.9 5 1.2 10.1 2.1 15.3 2.9zm3 .4c3.9.5 7.8 1 11.7 1.2-2.9 1.2-5.7 2.3-8.7 3.3-3.6-.3-7.2-.8-10.7-1.3 2.6-1 5.2-2 7.7-3.2zm15.1 1.5c2.1.1 4.2.2 6.3.2-2.6 1.2-5.2 2.4-7.9 3.5-2.3-.1-4.7-.2-7-.4 3-1 5.9-2.1 8.6-3.3zm10.9.2c4.2-.1 8.3-.2 12.5-.6-2.5 1.3-4.9 2.5-7.4 3.8-4.4.3-8.8.4-13.2.4 2.8-1.2 5.5-2.4 8.1-3.6zm25.9-.4l-2.5 1.4-1.8.3c-4 .6-8 1.1-12.1 1.5 2.4-1.3 4.7-2.5 7.1-3.9 7-.8 13.9-2 20.7-3.7-1.9 1.2-3.8 2.3-5.8 3.4-.8-.1-1.6.4-1.9 1.2-1 .2-1.9.5-2.9.7.2-.3.1-.6-.1-.8-.3-.2-.5-.2-.7-.1zm145.2-185.7c.3-1 .6-1.9 1-2.9.1-.4-.4-.6-.6-.3-3.8 8.8-6.8 18-9 27.3-2.1 9-4.4 19.2-3.7 28.5 0 .7 1 .6 1.2 0 1.8-9 2.1-18.3 4-27.4.9-4.4 2-8.8 3.2-13.1-.6 3-1.1 6-1.4 9.1-2.1 20.5-.2 40.2-8.9 59.5-8.2 18.2-21.2 34.5-33.2 50.4-11.5 15.2-24 29.9-39.6 41-16.6 11.8-36.4 18-56.3 21.4-5.1.9-10.2 1.5-15.3 1.9 3.8-1.7 7.5-3.8 10.9-6.2 2.1-.3 4.2-.7 6.3-1.2.3.4.8.7 1.3.8.9.2 1.7-.3 2.1-1.1l1.3-.7c7-1.6 13.9-3.8 20.6-6.5.1.4.5.7.9.6h.1c.5-.1 1-.3 1.5-.4.9-.1 1.5-1 1.4-1.8 1.3-.6 2.7-1.2 4-1.9.3-.1.4-.4.3-.7-.1-.3-.4-.4-.7-.3-1.6.6-3.1 1.1-4.6 1.6-.7-.2-1.4 0-1.8.6-4.7 1.6-9.3 3.1-14 4.5 2.2-1.2 4.3-2.4 6.5-3.6.5-.3.9-.8.8-1.4 1.2-.4 2.5-.8 3.7-1.2.4-.1.1-.6-.2-.5-1.2.3-2.5.6-3.7 1-.5-1-1.8-1.5-2.8-1 0 0-.1 0-.1.1-1.5.9-3 1.8-4.6 2.7-6.8 1.5-13.7 2.8-20.6 3.7 1.2-.7 2.3-1.4 3.5-2.1.3-.2 0-.6-.3-.5-2.2 1-4.3 2-6.4 3-4.4.5-8.9.9-13.3 1.1 2.5-1.3 5-2.6 7.5-4.1 1-.1 2-.2 3.1-.3.3.7 1 1.1 1.8 1 .3 0 .6 0 .9-.1.7-.1 1.2-.6 1.4-1.3 8-1 16-2.6 23.8-4.8.2-.1.2-.5-.1-.4-8.1 1.5-16.3 2.7-24.6 3.5-.3-.2-.6-.3-.9-.4-.3-.1-.5-.1-.8-.1 0-.2-.1-.4-.4-.5h-.2c-1 .5-2 .9-3 1.4-3.5.3-7 .4-10.5.5l3.6-2.7c.1-.1.1-.2 0-.3-.1-.1-.2-.1-.2 0-1.8 1.1-3.6 2.1-5.4 3.1h-3.9c-.8 0-1.7 0-2.5-.1 1.7-.4 1.9-3.2-.1-3.5-1-.1-1.9.6-2 1.6-.1.9.4 1.7 1.3 1.9l-6.6-.3c2.2-1.3 4.4-2.6 6.6-4.1 3 .1 6 .2 9.1.2 11.5 0 25.9.9 35.9-5.7.2-.1 0-.4-.2-.3-5.3 2.8-11.1 3.1-17 3.5-6.6.4-13.2.7-19.9.7-1.8 0-3.6 0-5.4-.1.8-.5 1.6-1.1 2.3-1.6.2-.2 0-.5-.3-.4-1.1.7-2.3 1.3-3.4 2-6.4-.2-12.7-.7-19-1.4 0-.2-.2-.4-.5-.3l-.4.2c-4.9-.5-9.7-1-14.6-1.6-.2 0-.4.1-.4.3 0 .2.1.4.3.4 3.9.9 7.9 1.6 11.9 2.2l-6.5 3.3c-5.5-.9-10.9-2-16.4-3.2-.5-.1-.7.6-.2.8 4.5 1.5 9.2 2.7 14 3.8-2 1-3.9 2-5.9 2.9l-3.5-.7c-12-2.4-24.1-4.6-35.8-8.1-.3-.1-.5.3-.2.4 11.1 3.8 22.5 6.4 34 8.9l2.9.6c-2 1-4.1 1.9-6.2 2.9-17.2-4.7-33.8-11.5-49.3-20.4-.1-.1-.3 0-.4.1s0 .3.1.4c14.3 9.7 30.1 16.8 46.7 21.2l-2.1.9c-.1.1-.2.3-.1.4.1.1.2.2.3.1l2.9-1.2c4.6 1.2 9.3 2.2 13.9 3.1-.5.2-.9.4-1.4.5-.8.3-.3 1.5.5 1.3 1.2-.4 2.5-.9 3.7-1.3 3.3.5 6.5 1 9.8 1.4l-.7.2c-.8.2-.3 1.4.5 1.2 1.3-.3 2.5-.7 3.8-1 .9.1 1.8.2 2.7.2 2.2.2 4.5.3 6.8.4.1.4.5.7 1 .6h.1l1.1-.5c4.4.1 8.9.1 13.4 0l-6.1 3.3c-.4.2-.5.7-.3 1.1.1.1.1.2.2.3-28.6-.2-56.8-6.8-82.5-19.3-17.9-8.7-38.3-21-46.8-39.9 3.7 5.6 8.3 10.5 13.7 14.6.5.4 1.4-.3.9-.9-3.9-4.9-8.4-9.4-12.1-14.5l-.1-.2c1.8 2.4 3.9 4.7 6.3 6.6.2.2.5.1.7-.1.1-.2.1-.4 0-.5-2.2-2.8-4.4-5.7-6.5-8.6 2.7 3.2 5.6 6.1 8.9 8.7.4.3 1-.2.6-.6-6-6.1-11.5-12.7-16.4-19.7-.7-5.8-1.2-11.6-1.3-17.4 3.5 12.1 9.9 24.5 20.2 31.1.5.3 1.2-.2.8-.8-4.4-5.7-9.5-10.7-13.2-17-3.5-5.7-6.1-11.9-7.9-18.4 6 12 14.1 23.1 24.9 31.1.4.3 1.1-.2.7-.6-9.8-10.4-18.9-20.9-25.8-33.4l-.6-10.2c.9 3.5 2.3 6.8 4 9.9 12.7 22.6 37.8 41.4 61.1 51.5 25.5 11.1 52.9 16.6 80.7 15.3 59.7-2.8 118.1-30.2 143-86.4 3.5-8 3.5-20.5 5.4-29-.4 5.9-.5 11.7-.3 17.6 0 .2.2.3.4.3s.3-.2.3-.3c2.3-16.5 2-33.1 6.2-49.4 3.9-15.1 10.8-28.9 21.5-40.4.3-.3-.2-.8-.5-.5-9.2 8.3-15.4 19-19.6 30.5 3.4-14.4 8.4-28.1 18.2-40.3 6.9-8.6 13.3-17 17.4-26.7-.2 5.8-1 11.6-2.2 17.4-2.7 4.6-6.3 8.6-10.6 11.7-.4.3 0 1.1.5.8 3.4-1.8 6.4-4.3 8.8-7.4-1.6 5.6-4.1 11-7.3 15.9-4.2 7-14.9 22.1-15.5 23.5zM484.4 346s21 4 35 17 39 24.8 48 28c16 5.7 54 8 64 1s29.2-71.9 29.2-71.9l6.8-30.1s-32.6 12.5-44 14c-15 2-34-1.2-45-4-13.4-3.4-37-14.1-56-6-21 9-22 46-38 52z"/><defs><path id="SVGID_1_" d="M313.8 444.9c-.3.2-.5.6-.5 1-.1 1.6.4 3.1 1.3 4.5l.1.1.2.4c.3.3.7.5 1.1.6.5.1.8-.4.8-.8 1.9-1.6-1.1-6.9-3-5.8"/></defs><clipPath id="SVGID_2_"><use xlink:href="#SVGID_1_" overflow="visible"/></clipPath><g clip-path="url(#SVGID_2_)"><defs><path id="SVGID_3_" d="M-364.8-91.2h1573.3v708.9H-364.8z"/></defs><clipPath id="SVGID_4_"><use xlink:href="#SVGID_3_" overflow="visible"/></clipPath><g clip-path="url(#SVGID_4_)"><path transform="scale(1.00004) rotate(-86 315.333 448.093)" fill="#b2ccbb" d="M306.6 440.5H324v15.2h-17.4z"/></g></g><defs><path id="SVGID_5_" d="M313.8 444.9c-.3.2-.5.6-.5 1-.1 1.6.4 3.1 1.3 4.5l.1.1.2.4c.3.3.7.5 1.1.6.5.1.8-.4.8-.8 1.9-1.6-1.1-6.9-3-5.8"/></defs><clipPath id="SVGID_6_"><use xlink:href="#SVGID_5_" overflow="visible"/></clipPath><g clip-path="url(#SVGID_6_)"><defs><path id="SVGID_7_" d="M-364.8-91.2h1573.3v708.9H-364.8z"/></defs><clipPath id="SVGID_8_"><use xlink:href="#SVGID_7_" overflow="visible"/></clipPath><g clip-path="url(#SVGID_8_)"><path transform="scale(1.00004) rotate(-86 315.333 448.093)" fill="#046351" d="M306.6 440.5H324v15.2h-17.4z"/></g></g><defs><path id="SVGID_9_" d="M275.1 462.4l3.4 11.5s18.5 13.2 37 8.6 31-9.7 36.3-15.9 6.4-8.6 6.4-8.6l-3-7.7s-16.9-4-32.8 2.5-47.3 9.6-47.3 9.6"/></defs><clipPath id="SVGID_10_"><use xlink:href="#SVGID_9_" overflow="visible"/></clipPath><g clip-path="url(#SVGID_10_)"><defs><path id="SVGID_11_" d="M-364.8-91.2h1573.3v708.9H-364.8z"/></defs><clipPath id="SVGID_12_"><use xlink:href="#SVGID_11_" overflow="visible"/></clipPath><g clip-path="url(#SVGID_12_)"><path transform="scale(1.00004) rotate(-86 316.296 465.596)" d="M292.4 418.9h47.8v93.5h-47.8z"/></g></g><defs><path id="SVGID_13_" d="M289.6 447.5c21.2-8.5 41.3-9.6 51.2-6.7 5.8 1.6 11 5.1 14.6 9.9 0 0-9 19.4-33.9 23.4s-47.4-8.6-47.6-11.5 8.9-12.4 15.7-15.1"/></defs><clipPath id="SVGID_14_"><use xlink:href="#SVGID_13_" overflow="visible"/></clipPath><g clip-path="url(#SVGID_14_)"><defs><path id="SVGID_15_" d="M-364.8-91.2h1573.3v708.9H-364.8z"/></defs><clipPath id="SVGID_16_"><use xlink:href="#SVGID_15_" overflow="visible"/></clipPath><g clip-path="url(#SVGID_16_)"><path transform="matrix(.06976 -.9976 .9976 .06976 -162.88 738.9)" d="M290.8 411.1h47.8v91.3h-47.8z"/></g></g><defs><path id="SVGID_17_" d="M294.1 448.7c18.3-7.5 35.7-8.5 44.3-6 5.1 1.5 9.5 4.5 12.7 8.7-6 11.1-16.8 18.8-29.3 20.7-21.5 3.6-41-7.6-41.2-10.1s7.6-10.9 13.5-13.3"/></defs><clipPath id="SVGID_18_"><use xlink:href="#SVGID_17_" overflow="visible"/></clipPath><g clip-path="url(#SVGID_18_)"><defs><path id="SVGID_19_" d="M-364.8-91.2h1573.3v708.9H-364.8z"/></defs><clipPath id="SVGID_20_"><use xlink:href="#SVGID_19_" overflow="visible"/></clipPath><g clip-path="url(#SVGID_20_)"><path transform="scale(1.00004) rotate(-86 315.825 456.84)" class="st13" d="M294.1 416.6h43.5v80.5h-43.5z"/></g></g><defs><path id="SVGID_21_" d="M307.1 453.3c-1.4-1.8-3.9-2.1-5.7-.8l-.2.2c-.4.4-.5 1.1-.2 1.6 1 1.7 3.1 2.3 4.8 1.3.2-.1.4-.3.6-.4l.3-.1c.6-.4.8-1.2.4-1.8"/></defs><clipPath id="SVGID_22_"><use xlink:href="#SVGID_21_" overflow="visible"/></clipPath><g clip-path="url(#SVGID_22_)"><defs><path id="SVGID_23_" d="M-364.8-91.2h1573.3v708.9H-364.8z"/></defs><clipPath id="SVGID_24_"><use xlink:href="#SVGID_23_" overflow="visible"/></clipPath><g clip-path="url(#SVGID_24_)"><path transform="rotate(-85.996 305.239 453.25) scale(1.00004)" class="st16" d="M297.6 444.5h15.3v17.4h-15.3z"/></g></g><g><defs><path id="SVGID_25_" d="M302 460.3h-.2l-.5-.1c-2.3.2-4.1 1.4-4.5 3.2-.1.6.5.9 1.2.9 2 0 5-.9 5.5-2.6.2-.7-.4-1.5-1.5-1.4"/></defs><clipPath id="SVGID_26_"><use xlink:href="#SVGID_25_" overflow="visible"/></clipPath><g clip-path="url(#SVGID_26_)"><defs><path id="SVGID_27_" d="M-364.8-91.2h1573.3v708.9H-364.8z"/></defs><clipPath id="SVGID_28_"><use xlink:href="#SVGID_27_" overflow="visible"/></clipPath><g clip-path="url(#SVGID_28_)"><path transform="rotate(-85.996 301.389 461.712) scale(1.00004)" class="st16" d="M293.8 453h15.3v17.4h-15.3z"/></g></g></g><g><defs><path id="SVGID_29_" d="M313.2 462.2c-.4-.1-.8 0-1.1.2-.6 0-1 .4-1 1v.1l-.1.4c-.2 1.2 0 2.5.4 3.7.3.4.7.7 1.2.8.5.5 1.4.5 1.9 0l.1-.1c.1-.1.2-.3.2-.5.4-.8.5-1.7.1-2.5v-.7c0-1.1-.7-2.1-1.7-2.4"/></defs><clipPath id="SVGID_30_"><use xlink:href="#SVGID_29_" overflow="visible"/></clipPath><g clip-path="url(#SVGID_30_)"><defs><path id="SVGID_31_" d="M-364.8-91.2h1573.3v708.9H-364.8z"/></defs><clipPath id="SVGID_32_"><use xlink:href="#SVGID_31_" overflow="visible"/></clipPath><g clip-path="url(#SVGID_32_)"><path transform="scale(1.00004) rotate(-86 313.04 465.362)" class="st16" d="M304.4 457.8h17.4V473h-17.4z"/></g></g></g><g><defs><path id="SVGID_33_" d="M327.6 460c-1.3-.7-2.8-1.3-4.3-1.5-.9-.2-1.5.8-.9 1.3l.2.2c.1 1.1.9 2.1 1.9 2.7 1.1.6 2.4.6 3.5 0 1.1-.9.7-2-.4-2.7"/></defs><clipPath id="SVGID_34_"><use xlink:href="#SVGID_33_" overflow="visible"/></clipPath><g clip-path="url(#SVGID_34_)"><defs><path id="SVGID_35_" d="M-364.8-91.2h1573.3v708.9H-364.8z"/></defs><clipPath id="SVGID_36_"><use xlink:href="#SVGID_35_" overflow="visible"/></clipPath><g clip-path="url(#SVGID_36_)"><path transform="scale(1.00004) rotate(-86 325.359 460.793)" class="st16" d="M317.8 452.1H333v17.4h-15.2z"/></g></g></g><g><defs><path id="SVGID_37_" d="M328.5 450.1c-1.5 0-3 .5-4.1 1.5-.2.1-.3.4-.3.6-.3.2-.4.7-.2 1 .8 1 2.1 1.4 3.3.9 1.2-.3 2.3-1.1 3-2.1.5-1.2-.6-1.8-1.7-1.9"/></defs><clipPath id="SVGID_38_"><use xlink:href="#SVGID_37_" overflow="visible"/></clipPath><g clip-path="url(#SVGID_38_)"><defs><path id="SVGID_39_" d="M-364.8-91.2h1573.3v708.9H-364.8z"/></defs><clipPath id="SVGID_40_"><use xlink:href="#SVGID_39_" overflow="visible"/></clipPath><g clip-path="url(#SVGID_40_)"><path transform="scale(1.00004) rotate(-86 327.039 452.176)" class="st16" d="M319.4 443.5h15.2v17.4h-15.2z"/></g></g></g><g><defs><path id="SVGID_41_" d="M313.8 444.9c-.3.2-.5.6-.5 1-.1 1.6.4 3.1 1.3 4.5l.1.1.2.4c.3.3.7.5 1.1.6.5.1.8-.4.8-.8 1.9-1.6-1.1-6.9-3-5.8"/></defs><clipPath id="SVGID_42_"><use xlink:href="#SVGID_41_" overflow="visible"/></clipPath><g clip-path="url(#SVGID_42_)"><defs><path id="SVGID_43_" d="M-364.8-91.2h1573.3v708.9H-364.8z"/></defs><clipPath id="SVGID_44_"><use xlink:href="#SVGID_43_" overflow="visible"/></clipPath><g clip-path="url(#SVGID_44_)"><path transform="scale(1.00004) rotate(-86 315.333 448.093)" class="st16" d="M306.6 440.5H324v15.2h-17.4z"/></g></g></g><g><defs><path id="SVGID_45_" d="M260.6 244l.3-.2-.1.6-.2-.4"/></defs><clipPath id="SVGID_46_"><use xlink:href="#SVGID_45_" overflow="visible"/></clipPath><g clip-path="url(#SVGID_46_)"><defs><path id="SVGID_47_" d="M-320-91.7h1573.3v708.9H-320z"/></defs><clipPath id="SVGID_48_"><use xlink:href="#SVGID_47_" overflow="visible"/></clipPath><g clip-path="url(#SVGID_48_)"><path transform="matrix(.06976 -.9976 .9976 .06976 -.915 487.165)" class="st29" d="M255 238.5h11.4v11.2H255z"/></g></g></g><g><defs><path id="SVGID_49_" d="M252.4 378.7l-.9 12.5s12.6 11.2 29 13.9 34 5.3 41.8 2.9 16.1-11.5 16.1-11.5l-.6-9.7-85.4-8.1"/></defs><clipPath id="SVGID_50_"><use xlink:href="#SVGID_49_" overflow="visible"/></clipPath><g clip-path="url(#SVGID_50_)"><defs><path id="SVGID_51_" d="M-305.6-96.8h1573.3v708.9H-305.6z"/></defs><clipPath id="SVGID_52_"><use xlink:href="#SVGID_51_" overflow="visible"/></clipPath><g clip-path="url(#SVGID_52_)"><path transform="scale(1.00004) rotate(-86 294.838 394.76)" d="M276.4 345.8h37v97.9h-37z"/></g></g><defs><path id="SVGID_53_" d="M325 377.2c-5.3-2.8-28.3-10-49.9-7.5-22 2.6-23.8 9.5-23.8 9.5s-.4 5.6 12.2 11.2c12.6 5.7 29.9 10.9 48.3 10.6s26-12.5 26.2-14.1c.3-3.7-13-9.7-13-9.7"/></defs><clipPath id="SVGID_54_"><use xlink:href="#SVGID_53_" overflow="visible"/></clipPath><g clip-path="url(#SVGID_54_)"><defs><path id="SVGID_55_" d="M-305.6-96.8h1573.3v708.9H-305.6z"/></defs><clipPath id="SVGID_56_"><use xlink:href="#SVGID_55_" overflow="visible"/></clipPath><g clip-path="url(#SVGID_56_)"><path transform="scale(1.00004) rotate(-86 294.434 384.928)" d="M273.8 336h41.3v97.9h-41.3z"/></g></g><defs><path id="SVGID_57_" d="M321.5 378.4c-4.5-2.4-24.1-8.5-42.4-6.4-18.7 2.2-20.2 8.2-20.2 8.2s-.3 4.8 10.3 9.6 25.4 9.3 41.1 9 22.1-10.7 22.3-12.1c.2-3.2-11.1-8.3-11.1-8.3"/></defs><clipPath id="SVGID_58_"><use xlink:href="#SVGID_57_" overflow="visible"/></clipPath><g clip-path="url(#SVGID_58_)"><defs><path id="SVGID_59_" d="M-305.6-96.8h1573.3v708.9H-305.6z"/></defs><clipPath id="SVGID_60_"><use xlink:href="#SVGID_59_" overflow="visible"/></clipPath><g clip-path="url(#SVGID_60_)"><path transform="scale(1.00004) rotate(-86 295.52 385.001)" class="st13" d="M277 342.6h37v84.8h-37z"/></g></g><g><defs><path id="SVGID_61_" d="M283.4 375.1c-.3.3-.4.8-.2 1.3.5 1.8 1.6 3.3 3.1 4.3l.2.1.4.3c.5.2 1 .3 1.5.1.5-.2.9-.7.7-1.3 1.7-2.6-3.8-7-5.7-4.8"/></defs><clipPath id="SVGID_62_"><use xlink:href="#SVGID_61_" overflow="visible"/></clipPath><g clip-path="url(#SVGID_62_)"><defs><path id="SVGID_63_" d="M-305.6-96.8h1573.3v708.9H-305.6z"/></defs><clipPath id="SVGID_64_"><use xlink:href="#SVGID_63_" overflow="visible"/></clipPath><g clip-path="url(#SVGID_64_)"><path transform="scale(1.00004) rotate(-86 286.223 377.813)" d="M277.5 369.1h17.4v17.4h-17.4z"/></g></g></g><g><defs><path id="SVGID_65_" d="M301.4 377.2c-.1-.2-.2-.5-.4-.6-.2-.7-.7-1.2-1.5-.9-.5.2-1 .7-1.2 1.2l-.3.4c-.9 1.3-1.4 3.4-.8 4.3.8 1.1 2.3-.2 2.9-.9s1.7-2.3 1.3-3.5"/></defs><clipPath id="SVGID_66_"><use xlink:href="#SVGID_65_" overflow="visible"/></clipPath><g clip-path="url(#SVGID_66_)"><defs><path id="SVGID_67_" d="M-305.6-96.8h1573.3v708.9H-305.6z"/></defs><clipPath id="SVGID_68_"><use xlink:href="#SVGID_67_" overflow="visible"/></clipPath><g clip-path="url(#SVGID_68_)"><path transform="scale(1.00004) rotate(-86 299.228 378.727)" d="M290.5 371.1h17.4v15.2h-17.4z"/></g></g></g><g><defs><path id="SVGID_69_" d="M311.7 384.6c-.3-1-1.1-1.7-2.2-1.8-.6 0-1.2.2-1.6.7-.3.2-.4.5-.4.8 0 .2 0 .4.1.6 0 .3 0 .5.1.7.3.6.8 1 1.4 1.2.5.2 1.1.3 1.6.1 1-.3 1.4-1.4 1-2.3 0-.1 0-.1 0 0"/></defs><clipPath id="SVGID_70_"><use xlink:href="#SVGID_69_" overflow="visible"/></clipPath><g clip-path="url(#SVGID_70_)"><defs><path id="SVGID_71_" d="M-305.6-96.8h1573.3v708.9H-305.6z"/></defs><clipPath id="SVGID_72_"><use xlink:href="#SVGID_71_" overflow="visible"/></clipPath><g clip-path="url(#SVGID_72_)"><path transform="matrix(.06976 -.9976 .9976 .06976 -95.87 667.028)" d="M302.1 377.3h15.2v15.2h-15.2z"/></g></g></g><g><defs><path id="SVGID_73_" d="M298.2 392.4c0-.2.1-.4.1-.6.1-.5-.1-.9-.4-1-.1-.5-.4-.9-.7-1.3-.2-.1-.4.1-.5.3-.5 1.4-.7 2.9-.7 4.4 0 .3 0 .5.2.7.1.2.1.5.3.7.1.2.2.3.3.3.2.1.6.1.7-.1.2 0 .3-.3.4-.5.1-.2.1-.5.1-.7.2-.8.2-1.5.2-2.2"/></defs><clipPath id="SVGID_74_"><use xlink:href="#SVGID_73_" overflow="visible"/></clipPath><g clip-path="url(#SVGID_74_)"><defs><path id="SVGID_75_" d="M-305.6-96.8h1573.3v708.9H-305.6z"/></defs><clipPath id="SVGID_76_"><use xlink:href="#SVGID_75_" overflow="visible"/></clipPath><g clip-path="url(#SVGID_76_)"><path transform="scale(1.00004) rotate(-86 297.164 392.75)" d="M288.5 386.2h17.4v13h-17.4z"/></g></g></g><g><defs><path id="SVGID_77_" d="M291.1 388c-.7-.2-1.5 0-2 .5-.5.2-.9.5-1.3.8-.2.2-.4.5-.6.8-.6.4-1 .8-1.3 1.4l-.1.4c-.2.1-.3.2-.4.4-.2.4-.2.8 0 1.1.3.6 1 .9 1.6.7l.3.1c1.1 0 2.1-.5 2.8-1.4.8-.9 3.1-4 1-4.8"/></defs><clipPath id="SVGID_78_"><use xlink:href="#SVGID_77_" overflow="visible"/></clipPath><g clip-path="url(#SVGID_78_)"><defs><path id="SVGID_79_" d="M-305.6-96.8h1573.3v708.9H-305.6z"/></defs><clipPath id="SVGID_80_"><use xlink:href="#SVGID_79_" overflow="visible"/></clipPath><g clip-path="url(#SVGID_80_)"><path transform="scale(1.00004) rotate(-86 288.564 391.061)" d="M279.9 382.4h17.4v17.4h-17.4z"/></g></g></g><g><defs><path id="SVGID_81_" d="M281.4 383c-.5-.1-1.1-.1-1.6.2-1-.1-2.9.5-2.8 2.2 0 .6.4 1.1 1 1.3l.1.1c1 .7 2.5 0 3.5-.1 1-.2 1.8-1 2-2 .3-1.7-1.1-1.8-2.2-1.7"/></defs><clipPath id="SVGID_82_"><use xlink:href="#SVGID_81_" overflow="visible"/></clipPath><g clip-path="url(#SVGID_82_)"><defs><path id="SVGID_83_" d="M-305.6-96.8h1573.3v708.9H-305.6z"/></defs><clipPath id="SVGID_84_"><use xlink:href="#SVGID_83_" overflow="visible"/></clipPath><g clip-path="url(#SVGID_84_)"><path transform="scale(1.00004) rotate(-86 280.26 385.03)" d="M272.7 376.3h15.2v17.4h-15.2z"/></g></g></g></g><g><defs><path id="SVGID_85_" d="M826.3 279.7l.5-.3-.2.3h-.3"/></defs><clipPath id="SVGID_86_"><use xlink:href="#SVGID_85_" overflow="visible"/></clipPath><g clip-path="url(#SVGID_86_)"><defs><path id="SVGID_87_" d="M-320-91.7h1573.3v708.9H-320z"/></defs><clipPath id="SVGID_88_"><use xlink:href="#SVGID_87_" overflow="visible"/></clipPath><g clip-path="url(#SVGID_88_)"><path class="st29" d="M820.8 274h11.3v11.2h-11.3z"/></g></g></g><g><defs><path id="SVGID_89_" d="M794.8 238.8c-.5-.8-1.1-1.5-1.7-2.2.5.7 1.1 1.4 1.7 2.2"/></defs><clipPath id="SVGID_90_"><use xlink:href="#SVGID_89_" overflow="visible"/></clipPath><g clip-path="url(#SVGID_90_)"><defs><path id="SVGID_91_" d="M-320-91.7h1573.3v708.9H-320z"/></defs><clipPath id="SVGID_92_"><use xlink:href="#SVGID_91_" overflow="visible"/></clipPath><g clip-path="url(#SVGID_92_)"><path fill="#a1b7b5" d="M787.6 231.2h12.6v13.1h-12.6z"/></g></g></g><path class="st0" d="M890.2 185.5c-5.8.9-11.5 2.9-16.7 5.7-2.5 1.4-4.9 2.9-7.3 4.6-1.7 1.2-2.9 2.5-5.2 2.6-2.9.2-2.7-.3-4.1-2.7-2.3-3.9-3.6-8-7.7-10.4-4.1-2.4-9.4-2.3-13.9-.4-11.5 4.9-12.8 18.2-12 29.1.5 6.9 2.8 17.1-2.4 22.7-5 5.4-12.5-1.8-18.6-1.9-1.1 0-2.2.1-3.3.2 2.9 6 5.2 12.3 7 18.7l4 29.7c.5 10.4-1 20.8-4.3 30.7-.7 3-1.6 5.9-2.6 8.8l1.8.1c3.1.6 6.2 1.3 9.3 1.8 2.4 1 4.9 1.5 7.5 1.6 14.3.3 24.6-11 29.6-23.4 1.7-4.1 2-6.6 7-7.2 4-.5 8 .3 12-.5 5.8-1 11.1-3.8 14.4-8.8 6.4-9.8.6-17.9-7.6-22.7 14.9-16 43.2-17.4 51-40.6 7.8-23.1-16.9-40.9-37.9-37.7z"/><g><defs><path id="SVGID_93_" d="M890.2 185.5c-5.8.9-11.5 2.9-16.7 5.7-2.5 1.4-4.9 2.9-7.3 4.6-1.7 1.2-2.9 2.5-5.2 2.6-2.9.2-2.7-.3-4.1-2.7-2.3-3.9-3.6-8-7.7-10.4-4.1-2.4-9.4-2.3-13.9-.4-11.5 4.9-12.8 18.2-12 29.1.5 6.9 2.8 17.1-2.4 22.7-5 5.4-12.5-1.8-18.6-1.9-1.1 0-2.2.1-3.3.2 2.9 6 5.2 12.3 7 18.7l4 29.7c.5 10.4-1 20.8-4.3 30.7-.7 3-1.6 5.9-2.6 8.8l1.8.1c3.1.6 6.2 1.3 9.3 1.8 2.4 1 4.9 1.5 7.5 1.6 14.3.3 24.6-11 29.6-23.4 1.7-4.1 2-6.6 7-7.2 4-.5 8 .3 12-.5 5.8-1 11.1-3.8 14.4-8.8 6.4-9.8.6-17.9-7.6-22.7 14.9-16 43.2-17.4 51-40.6 7.8-23.1-16.9-40.9-37.9-37.7z"/></defs><clipPath id="SVGID_94_"><use xlink:href="#SVGID_93_" overflow="visible"/></clipPath><g clip-path="url(#SVGID_94_)"><path class="st13" d="M812.9 286.4c3.3-3.6 6.5-7.4 9.4-11.4 3.2-4 6.3-8 9.5-11.9 6.4-7.8 13-15.4 20.1-22.6 13.3-13.4 28.3-25.2 45.4-33.2 4.7-2.2 9.6-4.1 14.5-5.6 5-1.5 10.1-2.4 15.1-3.6.7-.2.1-1.9-.5-1.8-4.6.4-9.2 1.3-13.6 2.7-4.4 1.3-8.7 2.8-12.9 4.6-8.5 3.7-16.6 8.2-24.2 13.6-16.3 11.4-30.1 25.9-42.8 41.2-3.6 4.4-7.2 8.9-10.6 13.5-3.6 4.5-6.9 9.1-10 14 .1.2.4.7.6.5z"/></g></g><path d="M499.4 544.9c-28.5 0-58.7-1.4-89.6-4.2-61.8-5.5-118.7-16.2-145-27-62.6-25.9-107.9-82-134.9-124.4-29.1-46-43.7-86.3-43.9-86.7l-.3-.7h.8l708.3 47.8-.3.6c-.2.4-17.2 41.9-48.6 85.4-18.5 25.6-38.2 46.8-58.8 63.1-25.7 20.4-52.5 33.2-79.9 37.9-31 5.5-67.8 8.2-107.8 8.2zM87.3 303c2.1 5.6 16.6 43.3 43.6 85.8 26.9 42.3 72 98.1 134.4 124 26.1 10.8 82.9 21.4 144.6 26.9 74 6.7 144.1 5.3 197.2-3.9 27.2-4.7 54-17.4 79.5-37.7 20.4-16.3 40.1-37.4 58.6-62.9 19-26.4 35.2-54.8 48.3-84.6L87.3 303z"/><g><defs><path id="SVGID_95_" d="M317.1 298.1c-56.3-3.9-144.6-10.3-265-19 .2.5.4 1.1.7 1.8.8 2.1 1.8 4.6 2.9 7.4 3.3 8 7.2 16.9 11.8 26.6 13.6 28.5 29.6 55.8 47.9 81.5 37.2 51.8 80.6 90.9 130.4 111.6 28 11.7 89.9 23.5 157.8 29.8 78.3 7.2 153.6 2.5 213.8-7.7 52.4-8.9 101-39.4 142.4-91.9 18-22.9 28.3-43.2 41.6-68.1 4.7-8.7 6.6-17.7 10-25 1.2-2.6 1.2-4 2-6 .3-.6-1.2-.5-1-1-222-15.3-380.2-32-495.3-40zm506.5 33.8h.8l-.3.7-.3.6c-.2.5-.5 1.1-.8 1.8-.9 2-1.9 4.3-3.1 6.9-3.4 7.4-7.4 15.6-12.1 24.5-13.6 25.8-29.4 50.4-47.2 73.5-41.6 53.2-88.9 88.4-141.7 97.5-60.2 10.4-137.2 11.2-215.6 3.9-68-6.3-130-18.2-158.1-30-50-21-93.5-60.6-130.8-113.1-18.4-26.1-34.4-53.7-48-82.5-4.6-9.8-8.5-18.8-11.8-26.9-1.1-2.8-2.1-5.4-2.9-7.5-.3-.8-.5-1.4-.7-2-.1-.3-.2-.6-.2-.7l-.3-.8.8.1c120.8 8.7 217 14.5 273.4 18.5 115.2 8.1 276.5 20.3 498.9 35.5z"/></defs><clipPath id="SVGID_96_"><use xlink:href="#SVGID_95_" overflow="visible"/></clipPath><g clip-path="url(#SVGID_96_)"><defs><path id="SVGID_97_" d="M-320-91.7h1573.3v708.9H-320z"/></defs><clipPath id="SVGID_98_"><use xlink:href="#SVGID_97_" overflow="visible"/></clipPath><g clip-path="url(#SVGID_98_)"><path transform="matrix(.06976 -.9976 .9976 .06976 -23.409 822.1)" d="M304.1 30.3h250.1v786.6H304.1z"/></g></g></g><g><path class="st0" d="M658.3 473.7c-4.4-1.9 13.3-24.1 17.4-38.5s12.7-38.3 7.2-52.2c-5.5-13.9-20-18-21-41.6s13.6-123.3 65.8-134.9c52.2-11.6 77.8 25 83.4 43.7s-1.4 75.6-19.7 95.2c-18.3 19.6-65.5 35.8-74.8 40.9-9.9 5.7-17.9 14.3-22.8 24.5-4.2 9.7-25.6 67.2-35.5 62.9"/><defs><path id="SVGID_99_" d="M658.3 473.7c-4.4-1.9 13.3-24.1 17.4-38.5s12.7-38.3 7.2-52.2c-5.5-13.9-20-18-21-41.6s13.6-123.3 65.8-134.9c52.2-11.6 77.8 25 83.4 43.7s-1.4 75.6-19.7 95.2c-18.3 19.6-65.5 35.8-74.8 40.9-9.9 5.7-17.9 14.3-22.8 24.5-4.2 9.7-25.6 67.2-35.5 62.9"/></defs><clipPath id="SVGID_100_"><use xlink:href="#SVGID_99_" overflow="visible"/></clipPath><g clip-path="url(#SVGID_100_)"><path d="M-310-94.7h1573.3v708.9H-310z"/><defs><path id="SVGID_101_" d="M-310-94.7h1573.3v708.9H-310z"/></defs><clipPath id="SVGID_102_"><use xlink:href="#SVGID_101_" overflow="visible"/></clipPath><g clip-path="url(#SVGID_102_)"><path d="M652.2 198.8h166.3v280.5H652.2z"/></g></g><path class="st13" d="M769.2 210c-2.7 2.3-5.2 4.8-7.5 7.5-2.4 2.6-4.6 5.4-6.9 8.1-4.6 5.6-9.1 11.3-13.5 17-8.7 11.3-16.8 23-24.1 35.2-14.3 24.1-24.6 51.7-25.7 79.9-.6 15.7.5 30.4 5.9 45.2.2.6 2.2-1.5 2-2-4.2-12.2-6-25.1-5.3-38 .6-13.7 3-27.2 7-40.2 8.3-26.9 23.2-51.3 39.8-73.8 4.7-6.4 9.6-12.6 14.5-18.9 2.4-3.1 4.9-6.1 7.2-9.2 2.5-3.2 4.9-6.5 6.9-10 .4-.2.1-1-.3-.8z"/><path class="st13" d="M724.5 210.3c-1 2.1-1.7 4.3-2.1 6.6-.6 2.5-1 4.9-1.4 7.4-.8 4.9-1.3 9.9-1.6 14.8-.3 5-.4 10-.3 15.1.1 2.6.2 5.1.3 7.7.1 2.5.3 5.1.7 7.6.1.6.5 1.6 1.2 1.7.7.1.9-.5.9-1.1-.1-2.5-.5-5.1-.6-7.6-.2-2.4-.3-4.8-.3-7.2-.1-5-.1-9.9.2-14.8.3-5 .8-10 1.5-14.9s1.9-9.9 2-14.8c0-.3-.3-.8-.5-.5zM711 295.1c3.5-.1 7-.4 10.4-1.1 3.4-.5 6.7-1 10.1-1.5 6.4-1 12.8-2.2 19.1-3.9 12.4-3.1 24.3-8.1 35.2-14.8 6.8-4.4 13.2-9.6 19-15.3.2-.2-.1-1-.4-.7-10.4 9-22.1 16.5-34.7 22.1-11.6 5-23.9 8-36.3 10.2l-11.1 1.8c-1.9.3-3.8.6-5.8.9-2 .2-4 .6-6 1.1-.3.1.1 1.2.5 1.2zM692.4 359.7c7.1 1.7 14.3 2.5 21.6 2.5 7.4.1 14.7-.4 22-1.5 14.7-2.2 29-6.6 42.4-13 7.3-3.6 14.3-7.8 20.8-12.7.3-.2-.1-1.2-.5-.9-5.9 4.2-12.2 7.9-18.7 11-19.8 9.9-41.6 15.2-63.7 15.5-8-.1-16.1-.7-24-1.8-.5 0-.2.9.1.9z"/></g><g><defs><path id="SVGID_103_" d="M142.5 72.6C118.2 44.6 92.9 6.4 53.7.5 23.1-4.1 11 22.1 8.2 46 6.8 58.6 7 72.2 13.4 85.7c11 23.2 32.6 32.8 38.3 58.7 2.7 12.1 1.8 17.7 12.2 29 6.9 7.5 12.9 9.1 16.1 18.5 2.7 8.1-2.2 9.7-.8 16.7 2.3 11 7.9 19.3 19.7 25.1 6.9 3.4 12.2 3.1 19.2 4.6 4.5.9 9 2.1 13.4 3.5 2.1 0 4.2.6 6.1 1.6l.3.2c39.6 9.8 39.5 50.1 50.9 81.9 7.3 20.4 16.1 39.9 23 60.5 4.2 12.6 10 22.6 17.7 31.2 4.9-.3 9.4-2.7 12.4-6.6l-.1-.1c-5.9-7.4-10.7-15.5-14.4-24.2-10.6-16.7-17.4-36.4-21.4-54.7-4.5-20.2-11-39.7-15.9-59.8-2.8-11.4-4.1-23.4-.9-34.3.1-1.1.4-2.1.8-3.1 1-2.4 2.1-4.8 3.4-7 .1-.4.2-.9.3-1.3 4.5-17.6 20.4-29.2 21.4-48.7.6-11.9-4.7-12.3-8.6-22.1-5.1-12.8 5.1-24.7.9-38.7-11.1-36.6-46.5-22.9-64.9-44"/></defs><clipPath id="SVGID_104_"><use xlink:href="#SVGID_103_" overflow="visible"/></clipPath><g clip-path="url(#SVGID_104_)"><defs><path id="SVGID_105_" d="M-320-91.7h1573.3v708.9H-320z"/></defs><clipPath id="SVGID_106_"><use xlink:href="#SVGID_105_" overflow="visible"/></clipPath><g clip-path="url(#SVGID_106_)"><path transform="scale(1.00004) rotate(-86 126.48 207.632)" d="M-80.6 72.8h414.3v269.6H-80.6z"/></g></g></g><g><defs><path id="SVGID_107_" d="M166.4 399.4c.1 2.3-.5 4.5-1.7 6.5-.3.5-.5.9-.6 1.5 3.6 2.8 8 4.2 12.6 4 5.4-9.9 10.6-19.8 15.4-30 8.8-16 15.6-33.1 20.2-50.8 2.9-10.7 4.9-21.5 5.9-32.5l.9-1.2c5-8.2 8-16.3 15.6-22.5 2-1.6 4.1-3.2 6.2-4.8 3.8-2.1 7.6-4.2 11.3-6.5 3.3-1.1 6.4-2.8 9.2-5.1 15.2-12.5 15.6-33.5 9.8-50.9-1.9-5.7-3.8-8.6.9-13.8 3.7-4.1 8.5-6.9 12.1-11.3 5.1-6.3 8.1-13.9 7.1-22-2.1-16-15.4-19.1-28.3-16.8 1.1-30 29.3-56.9 16.6-88s-54.4-27.4-73.5-5.2c-5.2 6.2-9.4 13.3-12.2 20.9-1.4 3.7-2.5 7.4-3.5 11.3-.7 2.8-.8 5.2-3 7.4-2.8 2.8-3.1 2.1-6.7.9-5.8-2-10.9-5.1-17.3-3.9-6.6 1.2-11.9 6.1-14.8 12-7.6 15.4 2.9 30.4 13.6 41 6.7 6.7 18.2 15.2 17.9 25.8-.3 10.1-14.7 9.3-21.1 14.7-15.4 12.8-5.2 33.3 3.3 46.6 2.6 4.2 5.4 8.3 8.4 12.2.8 1.8 1.6 3.6 2.7 5.3 5 8.3 12.4 14.8 18 22.7 5.8 8.5 9.9 18 12 28.1.1.5.3 1 .5 1.5.9 19-4.1 36.6-11.3 54.3-3.5 8.5-7.2 16.9-11.2 25.2-4.5 8.2-9.5 16-15 23.4"/></defs><clipPath id="SVGID_108_"><use xlink:href="#SVGID_107_" overflow="visible"/></clipPath><g clip-path="url(#SVGID_108_)"><defs><path id="SVGID_109_" d="M-320-91.7h1573.3v708.9H-320z"/></defs><clipPath id="SVGID_110_"><use xlink:href="#SVGID_109_" overflow="visible"/></clipPath><g clip-path="url(#SVGID_110_)"><path transform="scale(1.00004) rotate(-86 212.69 222.176)" d="M15.9 142.3h393.6v159.8H15.9z"/></g></g></g><path class="st13" d="M251 35.6c-3.3 3.6-6.5 7.4-9.3 11.5-2.7 4-5.2 8.1-7.3 12.4-4.4 8.8-8.1 17.9-10.8 27.4-5.7 19.3-8.4 39.4-9.5 59.5-1.2 20.9-.7 41.8-.4 62.7.3 22 .4 44.1-2 66.1-2.3 21.8-5.2 44.2-13.9 64.4-1.1 2.5-2.2 4.9-3.4 7.3-.1.3.3 1.1.5.7 5.3-9.2 7.7-19.8 10.8-30 3.2-10.2 5.5-20.7 7-31.2 3.2-21.7 3.6-43.7 3.4-65.6-.2-21-1.1-42-.4-63 .7-20.3 2.6-40.6 7.5-60.4C227.9 78 236 59.5 247.3 43c1.4-2.1 2.8-4.2 4.3-6.2.2-.4-.2-1.6-.6-1.2zM186.1 89.9c.2 13.5-12.1 22.2-20.3 31.1-4.2 4.5-7.7 9.5-9.1 15.6-1.3 5.5-.8 11.4 2.4 16.2 3 4.4 7.9 6.5 11.9 9.7 2.1 1.5 3.6 3.6 4.4 6 .8 3.2-.2 6.7-1.5 9.6-2.7 5.8-7.8 10.1-10.8 15.7-2.4 4.6-3.8 9.7-4.1 14.8-.7 11.2 3.6 23.1 12.2 30.4.4.3.4-.5.1-.7-8-7.2-12.3-17.6-11.6-28.4.2-5.2 1.8-10.2 4.4-14.7 3.3-5.4 8.1-9.8 11-15.5 2.6-5.1 3-11.3-.2-16.2-2.8-4.2-7.8-6.4-11.6-9.6-2-1.5-3.6-3.6-4.5-5.9-.8-2.6-1-5.3-.6-7.9.9-6.1 4.4-11.3 8.4-15.8 8.7-9.7 22.1-19.5 20.2-34.3 0-.3-.7-.9-.7-.1zM31.2 3.6C30 18.6 33 33.9 37.7 48c4.9 14.7 11.8 28.6 19.6 41.9 8 13.8 17 27 26 40.2 10 14.8 20 29.7 30 44.5s20 29.6 29.9 44.2c1.2 1.8 2.5 3.6 3.8 5.4 1 1.3 1.6-.6 1-1.5-9.5-14.8-19.6-29.3-29.4-43.9s-19.6-29-29.4-43.6c-9-13.3-18.1-26.6-26.5-40.4-8-13-15.4-26.5-20.9-40.8-5.4-14.1-8.9-28.8-9.2-43.9 0-1.9-.1-3.8-.1-5.7-.1-.5-1.2-1.9-1.3-.8z"/><path class="st13" d="M215.4 251.8c6.2-9.6 13.3-18.5 21.2-26.8 8-8.3 16.5-16 25.4-23.2 5-4.1 10-8 15.2-11.9.5-.4 0-1.2-.5-.9-9.2 6.9-18.2 14-26.7 21.7-8.7 7.7-16.8 16.1-24.2 25-4 4.9-7.8 10.1-11.2 15.5-.5.6.4 1.1.8.6zM178 188.5c10.2 5.9 19.6 13 28.1 21.1 2.5 2.4 5 4.8 7.4 7.2.2.2.5.2.7 0 .2-.2.2-.5 0-.7-8.4-8.4-17.1-16.4-27-23-2.9-1.9-5.8-3.7-8.8-5.4-.3-.1-.5 0-.7.2 0 .3.1.5.3.6zM214.3 164.8c1.2-1.5 2.2-3.2 3.1-4.9 1.1-1.8 2.2-3.5 3.3-5.3 2.4-3.6 4.9-7.1 7.6-10.6 5.2-6.6 10.9-12.8 17.1-18.4 3.5-3.2 7.1-6.2 10.9-9.1.1-.1 0-.3-.1-.3-13.9 9.5-25.8 21.7-35.1 35.7-1.3 1.9-2.5 3.8-3.6 5.7-1.4 2.1-2.5 4.3-3.4 6.6-.1.2 0 .7.2.6z"/></g></g></svg>