<svg width="176" height="246" fill="none" xmlns="http://www.w3.org/2000/svg"><g fill-rule="evenodd" clip-rule="evenodd"><path d="M147.196 183.941c1.404.897 2.786 1.779 4.094 2.699 1.828 1.278 3.746 2.387 5.606 3.462 2.433 1.407 4.765 2.755 6.664 4.348 5.28 4.51 10.23 12.12 6 16.51 5.92 8.88 6.32 16.67 4.5 24 5.67 6.97-4.4 14.24-9.58 8.89a35.918 35.918 0 01-18.58-9.12c-.496-.47-.939-1.167-1.392-1.88-.589-.926-1.195-1.88-1.958-2.4-.986-.669-2.317-.844-3.651-1.02-1.358-.179-2.72-.359-3.729-1.06-6.051-4.182-7.486-12.844-8.619-19.681-.244-1.468-.473-2.852-.731-4.089-.182-.873-.362-1.752-.543-2.634-.832-4.061-1.68-8.195-2.797-12.146-2.93-10.26-8.45-20.17-15.69-31.05-2.582-3.872-5.176-8.162-7.87-12.616-3.99-6.602-8.199-13.563-12.91-20.054-3.686-5.046-7.667-10.031-11.634-14.998-1.866-2.337-3.729-4.669-5.556-7.002-.723-.91-1.36-1.889-1.977-2.838-.97-1.492-1.892-2.908-3.023-3.862-1.612-1.36-3.633-2.362-5.67-3.371-1.377-.682-2.76-1.367-4.03-2.169-.949-.6-1.923-1.194-2.903-1.793-2.274-1.388-4.58-2.797-6.677-4.327-12.06-8.78-23.4-27.18-32.76-43.18A182.196 182.196 0 010 18.9c.119-.182.259-.414.414-.67.678-1.123 1.641-2.719 2.366-2.67.25-.26.41-.08.57.12 2.931 4.363 5.956 9.103 9.027 13.913C15.225 34.056 18.113 38.58 21 42.92c.927 1.394 1.84 2.797 2.747 4.191 4.962 7.628 9.764 15.01 15.953 19.39-.481-3.699-2.854-6.982-5.285-10.347A94.859 94.859 0 0132.2 53c-2.738-4.123-5.49-8.435-8.3-12.833-3.11-4.873-6.29-9.851-9.59-14.797a106.098 106.098 0 00-2.192-3.133c-2.25-3.136-4.435-6.18-5.188-9.447.71-.88 2.84-3.01 4.16-2.77 1.026-.239 2.505 1.736 3.456 3.005.125.166.24.32.344.455 4.284 5.572 8.38 11.912 12.482 18.262C33.907 41.86 40.46 52.002 47.82 59.11c.45-1.79-.93-4.7-2-6.7-3.963-7.59-9.644-15.568-15.27-23.468-2.763-3.881-5.513-7.744-8.04-11.532-.374-.56-.869-1.23-1.414-1.967-2.884-3.904-7.17-9.704-2.276-11.083 3.017-.847 10.113 10.305 14.107 16.582.719 1.13 1.337 2.102 1.813 2.818.893 1.34 1.761 2.65 2.61 3.933C44.187 38.017 49.784 46.469 56.9 52.5c1.223-2.033-.314-4.565-1.838-7.077-.32-.527-.639-1.053-.932-1.573-5.06-9.17-10.64-17.07-18.23-27.36-.753-1.014-1.895-2.295-3.148-3.7C28.733 8.283 23.584 2.507 26.55.22c2.253-1.747 10.114 7.517 13.525 11.537.298.352.562.663.785.923 11.58 13.56 23.62 28.09 30.7 44.56.367.86.743 1.695 1.11 2.508 1.066 2.37 2.046 4.546 2.47 6.572.306 1.46.185 3.045.06 4.683-.107 1.414-.218 2.868-.06 4.317.205 1.974.733 3.891 1.248 5.757.787 2.86 1.542 5.599 1.052 8.243 10.1 20.04 22.46 39.22 36.46 59.22 8.1 11.46 16.44 21.85 25.28 29.67 2.499 2.209 5.298 3.996 8.016 5.731zM27.94 2.291c-.26-.35-.63.02-.12.57l.24.349c5.11 5.86 11.83 14.1 18.23 22.86 3.5 4.77 6.92 9.82 9.69 14.54l.174.295c2.414 4.1 9.727 16.523 5.826 19.215-2.89 1.97-7.1-2.82-9.81-6.47-5.665-7.636-10.862-15.528-15.93-23.224-5.32-8.077-10.497-15.938-15.92-23.056-1.21 1.171-.129 2.448.7 3.426.226.266.433.51.57.724 3.196 4.942 7.084 10.789 11.004 16.684 6.14 9.231 12.357 18.58 16.116 24.756.401.66.98 1.471 1.618 2.367 2.673 3.75 6.403 8.985 2.642 10.793-2.21 1.066-6.305-3.68-9.075-6.89l-.035-.04c-5.373-6.192-10.718-14.053-15.722-21.413-3.312-4.872-6.475-9.524-9.398-13.327-1.177-1.491-2.228-3.28-3.241-5.003-1.568-2.669-3.046-5.182-4.759-6.197.92 3.025 3.452 6.448 6.069 9.986 1.847 2.498 3.736 5.052 5.131 7.564 2.303 4.157 5.112 8.273 8.053 12.583 2.486 3.643 5.067 7.424 7.517 11.487.235.39.533.868.874 1.417C41.287 60.95 47.32 70.647 44.09 73c-3.517 2.563-9.54-5.678-12.474-9.691L31.39 63C21.1 48.94 11.81 34.37 3.81 20.86 10 32.76 21.53 54.28 32.43 68.34c3.33 4.28 7.09 9 10.27 11.66 3.65 3 12.3 7.35 16.51 6 3.25-1.09 10.79-8.25 12.25-11.68 1.97-4.66.02-10.31-2.54-14.31-.019.774.155 1.589.33 2.405.383 1.802.769 3.609-.91 4.985-.149.516.445.775 1.017 1.025.85.37 1.651.72-.087 1.855-1.312-.016-1.28-1.164-1.256-2.023.007-.248.013-.471-.014-.637-.26-1.42-.417-2.704-.57-3.954-.284-2.316-.553-4.515-1.43-7.236-.904-2.843-2.414-5.494-3.928-8.154-1.5-2.635-3.006-5.279-3.932-8.126-.182-.572-.127-.81-.08-1.013.049-.207.088-.376-.15-.827-2.512-4.84-6.394-9.066-10.276-13.29-1.403-1.527-2.806-3.054-4.144-4.61-2.254-2.62-4.46-5.293-6.63-7.923-2.685-3.252-5.316-6.44-7.92-9.387-.41.19-.7-.3-1-.81zm40.84 68.8c.8 3.96-4.36 11.91-10.27 13.85-3.901 1.267-7.365-.916-10.645-2.982-.78-.493-1.551-.978-2.315-1.409 1.201-.06 2.576.459 4.075 1.025 2.457.928 5.248 1.983 8.155.815 4.652-1.849 7.33-5.846 9.752-9.463.42-.628.834-1.245 1.248-1.837z" fill="#000"/><path d="M74.09 95.56c.26-.26.42-.08.58.11.91 1.37 2 4.08 3.23 6.35 1.23 2.27 3.9 5.06 2.76 7.16-3.2-3.47-6.33-7.34-9.46-11.2.88.09 2.43-1.51 2.89-2.42zM81.71 111.48l.69-.46c2 .23 2.79 2.65 3.69 4 6.85 10.57 14.38 23.7 22 35.32a273.89 273.89 0 0026.54 33.82c9.47 10.34 19.75 18.41 26.77 31.17 2.41 4.36 6.07 12.18 2.08 15.12-3.99 2.94-9.31-2-11.89-5.09-7.27-8.58-11.82-19-16.84-28.27a893.107 893.107 0 00-52.35-84.56l-.69-1.05zm51.11 80.46c5.89 8.62 11.72 21.77 18.35 29.78 1.76 2.14 4 4.43 6.58 4.62-10.79-8.87-14.83-24-24.7-35.55-.25-.22-.55-.21-.92.11l.69 1.04zM161 226.69a2.708 2.708 0 00-1.5 1.5l1.5-1.5z" fill="#fff"/><path d="M117.94 171.86c7.13 9.87 12.88 21.8 18 33 .58 1.27 1.59 3.22 2.07 4.62.26.73 1.84 3-.34 3.23-1.18 1.13-1.35-2.2-2-3.7a381.893 381.893 0 00-17.73-37.15zM129.48 205.68c.34-.22.55.24.8.46 1 6.52 2.7 13.15 8.77 19.16-7.05-3.12-8.95-13.97-9.57-19.62zM137.32 214.45c1.23-.19 1.76.76 2.54-.69.93 1.59 1.23 3 2.65 4.73-1.19.16-1.55-.07-2.3 1a26.518 26.518 0 01-2.89-5.04zM163.75 199.34c2.38 1.78 4.78 6.14 4 8.3-2.16-1.74-2.07-5.64-4-8.3zM141.25 221.84a1.23 1.23 0 011.15.23 1.16 1.16 0 00.58-1.39c1-.26 1.43 1.85 2.19 2.55-.35-.07-2.18.28-1.73 1.15-.96.25-1.44-1.85-2.19-2.54zM143.78 225.65c.82-.1 1.52.38 2.54-.7l.92 1.39c-.75-.18-2.05.59-1.49 1.5-.88.37-1.28-1.61-1.97-2.19zM148.4 228.07c.79-.45 1.33.38 1.85 1.27-.85-.2-2 .87-1.28 1.85-.9.55-1.46-.7-2.07-1.62 1-.41 1.52-.35 1.5-1.5zM170.56 240.31c.46.59.06 1 .57 1.61-.77.89-1.15-.22-1.85.24a2.07 2.07 0 011.28-1.85zM56.55 90.24c3.62-1.42 7.69 4.69 11.77 2.66 4.75-2.36 3.36-8.94 4.51-13.5.78.93.82 3.43.69 5.54-.17 2.69-.4 7.85-4.63 9.57-4.23 1.72-8.12-3.11-12.34-4.27z" fill="#fff"/><path d="M155.78 233.15c2.08.45-1.48 3 .81 3.46 1.88 1.33 1.9-1.31 2.43-1.61.92-.52 1.12.17 2.77-.35-.42 1-1.3 1.94-.35 3.23a3.873 3.873 0 002.54.81c.92-.83 1.43-3.29-.46-3.69 1-1.7 4.15-3 3.69-5 .85.19 1.3 2.35 3 1.5 1.51-.7 1-1.8.58-2.89a2.062 2.062 0 00-3.23-.35c.57-5.28-3.51-11.5-6.69-17.54-1.07-1.18 1.73-.64 1-2.19-1.08-1.88-1.91.67-2.77.34-10.16-15.8-24-25.65-34.85-40.29-8.75-11.74-16.82-22.78-25.35-36.58-1.32-1.45-.49-2 .35-.23l2.08 3.12 3.92 5.88c6 7.67 10.07 14.44 15.92 22.4 13.83 18.91 30.88 29.54 44.54 48.83.92 1.55-1.93.18-2.19 2 .83 1.32.27 1.25 1.39 2.08 1.91.67 1.28-2.51 2.19-2 2.42 4.63 5.31 9.84 5.19 14.54-.06 2.32-1.45 7.61-3 9-5.17 4.65-15 .19-19.39-5.08 1.74.46 1.48-2.21 2.77-1.84.59 1.42-1.87 2.23.11 3.92 1.41 1.57 2.65-1.99 3-1.47zm12.59-11.89a1.483 1.483 0 00-2-2.19c-1 .71.84 3.55 2 2.19zm-.7 3.47c.37 1.17 1.09.57 1.51 1.5 1.72-.75 2-1.8.92-3.12a2.64 2.64 0 00-2.43 1.62zm-.11 12.58c2.28-1.14 2.587-2.68.92-4.62-3.1-.69-3.89 3.31-.92 4.62zM150.37 189.75c3.42 1.4 6.65 3.74 9.92 5.89-2.29-.64-6.98-1.54-9.92-5.89zM157.06 196.79c1.16-.76 4.19 2.06 5.66 4.73-2.23.13-3.62-3.91-5.66-4.73z" fill="#fff"/><path d="M104.29 147.83a1.297 1.297 0 00-.55-.05 144.879 144.879 0 00-5.53-13.4c-6-6.46-11.82-13.47-16-21.07-.49-.89-1-1.8-1.4-2.71a13.86 13.86 0 000 1.45l-.09-.1a36.558 36.558 0 01-1.83-4.5.518.518 0 10-1 .27l.27 1-2-2.48-.15-.22a1.44 1.44 0 00-.41-1l-.3-.33c-.18-.37-.37-.73-.54-1.11a.39.39 0 00-.54-.21l-.5-1.16c-.16-.37-.64-.28-.84 0-.38-.22-.85-.22-1.23 0-.4-.61-.81-1.21-1.25-1.79L69 98.09a.51.51 0 00-.55-.2c-.21-.24-.41-.49-.62-.72a.48.48 0 00-.64 0l-.11-.21c-.26-.58-1.12-.08-.86.51A19.772 19.772 0 0071 104c.042.264.153.512.32.72l4 5 3.68 5.51a.53.53 0 00.67.15l8.22 10.45c.361.403.93.549 1.44.37l.66.92a1.52 1.52 0 001.49.64 141.77 141.77 0 0110 22.67 1.582 1.582 0 002.54.64c.1.1.21.19.3.3.103.151.196.308.28.47.05.17.1.34.14.51.04.17 0 .23 0 .34a1.51 1.51 0 001.5 1.5 1.53 1.53 0 001.5-1.5 5.002 5.002 0 00-3.45-4.86zM118.36 168.71a5.227 5.227 0 00-.37-1.09 3.994 3.994 0 00-.41-.73 1.593 1.593 0 00-.9-.69 1.539 1.539 0 00-1.15.15c-.338.2-.585.522-.69.9a1.45 1.45 0 00.15 1.15c.125.191.236.392.33.6.07.184.12.375.15.57.02.22.02.44 0 .66-.097.389-.043.799.15 1.15a1.5 1.5 0 002.74-.36 5.724 5.724 0 000-2.31zM139.71 223.91l-3.09-2.78a1.552 1.552 0 00-.43-.27c-.11-.12-.2-.24-.3-.36a1.548 1.548 0 00.93-2.19 34 34 0 01-3.41-13.71 1.51 1.51 0 00-2.95-.4c-.08.32-.14.65-.21 1a1.594 1.594 0 00-1 1 9.49 9.49 0 00.07 6.52 19.519 19.519 0 008.58 13.6 1.51 1.51 0 001.81-2.41zM162.8 201.44a9.192 9.192 0 00-1.9-3 1.41 1.41 0 00-.34-1.54l-1.68-1.45a1.52 1.52 0 00-2-.12 1.661 1.661 0 00-.48.65l-.19.05a1.5 1.5 0 000 2.89l.38.12.19.07c.207.089.407.193.6.31.22.13.44.28.65.43a.268.268 0 01.08.07l.3.26c.193.18.377.37.55.57.09.1.34.47.07.07.06.1.14.19.21.29.07.1.28.45.41.68.13.23.11.24.17.35a.472.472 0 000 .13c.112.372.358.689.69.89.348.201.76.259 1.15.16a1.522 1.522 0 001.14-1.88z" fill="#000"/></g></svg>