<?xml version="1.0" encoding="UTF-8" standalone="no" ?>
<!DOCTYPE svg PUBLIC "-//W3C//DTD SVG 1.1//EN" "http://www.w3.org/Graphics/SVG/1.1/DTD/svg11.dtd">
<svg xmlns="http://www.w3.org/2000/svg" xmlns:xlink="http://www.w3.org/1999/xlink" version="1.1" width="530" height="330" viewBox="0 0 530 330" xml:space="preserve">
<desc>Created with Fabric.js 5.2.4</desc>
<defs>
</defs>
<rect x="0" y="0" width="100%" height="100%" fill="transparent"></rect>
<g transform="matrix(1 0 0 1 265 165)" id="09cf27ab-279e-4221-9308-760f587a19b2"  >
<rect style="stroke: none; stroke-width: 1; stroke-dasharray: none; stroke-linecap: butt; stroke-dashoffset: 0; stroke-linejoin: miter; stroke-miterlimit: 4; fill: rgb(255,255,255); fill-rule: nonzero; opacity: 1; visibility: hidden;" vector-effect="non-scaling-stroke"  x="-265" y="-165" rx="0" ry="0" width="530" height="330" />
</g>
<g transform="matrix(Infinity NaN NaN Infinity 0 0)" id="6d5e7946-850e-4575-b1e4-cd0110875acc"  >
</g>
<g transform="matrix(0.93 0 0 0.99 263.63 167.06)"  >
<g style=""   >
		<g transform="matrix(1 0 0 1 1.9 -2.91)"  >
<path style="stroke: none; stroke-width: 1; stroke-dasharray: none; stroke-linecap: butt; stroke-dashoffset: 0; stroke-linejoin: miter; stroke-miterlimit: 4; fill: rgb(0,0,0); fill-rule: evenodd; opacity: 1;" vector-effect="non-scaling-stroke"  transform=" translate(-281.9, -162.59)" d="M 57.8303 2.38135 C 57.4886 31.4961 34.0162 55.0149 5.01545 55.2968 L 4.7452 270.671 C 33.9417 271.011 57.4847 294.873 57.4486 324.255 C 57.4486 324.35 57.4407 324.452 57.4407 324.546 L 505.96 324.933 C 505.96 324.83 505.952 324.736 505.952 324.642 C 505.988 295.259 529.594 271.434 558.783 271.152 L 559.053 55.7773 C 530.052 55.4377 506.635 31.8823 506.365 2.76768 C 500.037 -2.68841 57.8303 2.38135 57.8303 2.38135 Z" stroke-linecap="round" />
</g>
		<g transform="matrix(1 0 0 1 0.75 -2.68)"  >
<path style="stroke: rgb(255,255,255); stroke-width: 1.539; stroke-dasharray: none; stroke-linecap: butt; stroke-dashoffset: 0; stroke-linejoin: miter; stroke-miterlimit: 4; fill: rgb(0,0,0); fill-rule: evenodd; opacity: 1;" vector-effect="non-scaling-stroke"  transform=" translate(-280.75, -162.82)" d="M 62.685 9.17865 C 62.4174 36.9485 39.6633 59.3294 11.4863 59.5338 L 11.7 264.964 C 40.0686 265.353 62.9961 288.166 63.0259 316.192 C 63.0261 316.282 63.0187 316.379 63.0189 316.469 L 498.808 317.834 C 498.808 317.736 498.8 317.646 498.8 317.556 C 498.77 289.531 521.653 266.857 550.013 266.653 L 549.799 61.2228 C 521.621 60.8345 498.816 38.3145 498.489 10.5435 C 492.328 5.3252 62.685 9.17865 62.685 9.17865 Z" stroke-linecap="round" />
</g>
		<g transform="matrix(1 0 0 1 0.21 -1.5)"  >
<path style="stroke: none; stroke-width: 1; stroke-dasharray: none; stroke-linecap: butt; stroke-dashoffset: 0; stroke-linejoin: miter; stroke-miterlimit: 4; fill: rgb(255,255,255); fill-rule: evenodd; opacity: 1;" vector-effect="non-scaling-stroke"  transform=" translate(-280.21, -164)" d="M 69.7989 306.6 L 490.178 306.848 C 497.546 282.106 516.479 262.868 540.987 255.219 L 541.267 72.1797 C 517.182 64.5792 498.425 45.658 490.919 21.4145 L 69.9312 21.1582 C 62.3476 45.4013 43.5347 64.3011 19.4271 71.8773 L 19.1472 254.908 C 43.6404 262.589 62.5167 281.849 69.7989 306.6 Z" stroke-linecap="round" />
</g>
		<g transform="matrix(1 0 0 1 -268.34 153.37)"  >
<path style="stroke: none; stroke-width: 1; stroke-dasharray: none; stroke-linecap: butt; stroke-dashoffset: 0; stroke-linejoin: miter; stroke-miterlimit: 4; fill: rgb(0,0,0); fill-rule: evenodd; opacity: 1;" vector-effect="non-scaling-stroke"  transform=" translate(-11.66, -318.87)" d="M 7.94122 325.707 C 5.73103 325.812 3.99978 323.963 4.27396 321.763 C 4.76922 317.789 5.95755 312.255 8.74216 312.043 C 13.1034 311.712 20.2652 318.375 18.9076 322.275 C 18.0331 324.788 12.0725 325.511 7.94122 325.707 Z" stroke-linecap="round" />
</g>
		<g transform="matrix(1 0 0 1 267.26 -151.13)"  >
<path style="stroke: none; stroke-width: 1; stroke-dasharray: none; stroke-linecap: butt; stroke-dashoffset: 0; stroke-linejoin: miter; stroke-miterlimit: 4; fill: rgb(0,0,0); fill-rule: evenodd; opacity: 1;" vector-effect="non-scaling-stroke"  transform=" translate(-547.26, -14.37)" d="M 551.436 7.71128 C 553.641 7.87738 555.133 9.92158 554.594 12.0706 C 553.621 15.9546 551.769 21.3056 548.979 21.1751 C 544.61 20.9709 538.31 13.4813 540.132 9.77597 C 541.305 7.38844 547.312 7.40062 551.436 7.71128 Z" stroke-linecap="round" />
</g>
		<g transform="matrix(1 0 0 1 269.13 150.46)"  >
<path style="stroke: none; stroke-width: 1; stroke-dasharray: none; stroke-linecap: butt; stroke-dashoffset: 0; stroke-linejoin: miter; stroke-miterlimit: 4; fill: rgb(0,0,0); fill-rule: evenodd; opacity: 1;" vector-effect="non-scaling-stroke"  transform=" translate(-549.13, -315.96)" d="M 545.184 322.755 C 542.973 322.732 541.351 320.788 541.751 318.608 C 542.472 314.669 543.975 309.21 546.768 309.16 C 551.141 309.081 557.91 316.147 556.331 319.963 C 555.314 322.421 549.32 322.798 545.184 322.755 Z" stroke-linecap="round" />
</g>
		<g transform="matrix(1 0 0 1 -262.02 -146.18)"  >
<path style="stroke: none; stroke-width: 1; stroke-dasharray: none; stroke-linecap: butt; stroke-dashoffset: 0; stroke-linejoin: miter; stroke-miterlimit: 4; fill: rgb(0,0,0); fill-rule: evenodd; opacity: 1;" vector-effect="non-scaling-stroke"  transform=" translate(-17.98, -19.32)" d="M 11.5032 16.4331 C 11.1362 14.3012 12.6776 12.3818 14.8357 12.3164 C 18.622 12.2016 23.9019 12.5188 24.4231 15.1174 C 25.2441 19.2106 19.8221 27.0036 15.9999 26.2939 C 13.5473 25.8385 12.1731 20.3255 11.5032 16.4331 Z" stroke-linecap="round" />
</g>
</g>
</g>
</svg>