<?xml version="1.0" encoding="UTF-8" standalone="no" ?>
<!DOCTYPE svg PUBLIC "-//W3C//DTD SVG 1.1//EN" "http://www.w3.org/Graphics/SVG/1.1/DTD/svg11.dtd">
<svg xmlns="http://www.w3.org/2000/svg" xmlns:xlink="http://www.w3.org/1999/xlink" version="1.1" width="600" height="419" viewBox="0 0 600 419" xml:space="preserve">
<desc>Created with Fabric.js 5.2.4</desc>
<defs>
</defs>
<g transform="matrix(Infinity NaN NaN Infinity 0 0)" id="3da16e0a-7fed-4f01-a8b3-4b864eed0fd7"  >
</g>
<g transform="matrix(1 0 0 1 300 209.5)" id="46b7726d-d884-4bd8-9ecb-17be9a985795"  >
<rect style="stroke: none; stroke-width: 1; stroke-dasharray: none; stroke-linecap: butt; stroke-dashoffset: 0; stroke-linejoin: miter; stroke-miterlimit: 4; fill: rgb(255,255,255); fill-rule: nonzero; opacity: 1; visibility: hidden;" vector-effect="non-scaling-stroke"  x="-300" y="-209.5" rx="0" ry="0" width="600" height="419" />
</g>
<g transform="matrix(0.86 0 0 0.95 300 209.5)"  >
<g style=""   >
		<g transform="matrix(1 0 0 1 -0.5 27.86)"  >
<path style="stroke: none; stroke-width: 1; stroke-dasharray: none; stroke-linecap: butt; stroke-dashoffset: 0; stroke-linejoin: miter; stroke-miterlimit: 4; fill: rgb(0,0,0); fill-rule: evenodd; opacity: 1;" vector-effect="non-scaling-stroke"  transform=" translate(-337.5, -237.37)" d="M 337.565 62.3338 C 337.565 62.3338 360.831 97.0499 407.292 103.997 C 433.961 107.985 524.804 109.351 572.432 109.798 C 606.831 110.116 634.507 131.955 634.497 158.787 C 634.49 177.21 634.484 195.183 634.481 201.207 C 634.477 212.605 645.599 228.679 664.341 237.366 C 645.592 246.054 634.459 262.127 634.454 273.522 C 634.452 279.546 634.445 297.522 634.438 315.942 C 634.428 342.778 606.735 364.613 572.336 364.931 C 524.708 365.373 433.864 366.748 407.192 370.735 C 360.725 377.683 337.433 412.399 337.433 412.399 C 337.433 412.399 314.167 377.683 267.705 370.736 C 241.032 366.748 150.198 365.374 102.566 364.931 C 68.1671 364.613 40.4903 342.778 40.5004 315.942 C 40.5073 297.523 40.514 279.546 40.5163 273.522 C 40.5206 262.128 29.3987 246.054 10.657 237.367 C 29.4052 228.679 40.5392 212.606 40.5434 201.207 C 40.5457 195.183 40.5524 177.211 40.5593 158.787 C 40.5694 131.955 68.2626 110.116 102.661 109.798 C 150.294 109.351 241.13 107.985 267.806 103.997 C 314.272 97.0499 337.565 62.3338 337.565 62.3338" stroke-linecap="round" />
</g>
		<g transform="matrix(1 0 0 1 -0.22 27.86)"  >
<path style="stroke: none; stroke-width: 1; stroke-dasharray: none; stroke-linecap: butt; stroke-dashoffset: 0; stroke-linejoin: miter; stroke-miterlimit: 4; fill: rgb(0,0,0); fill-rule: evenodd; opacity: 1;" vector-effect="non-scaling-stroke"  transform=" translate(-337.78, -237.37)" d="M 337.845 56.1834 C 337.845 56.1834 361.885 92.1196 409.891 99.3112 C 437.447 103.439 531.31 104.853 580.522 105.315 C 616.064 105.644 644.661 128.251 644.651 156.026 C 644.644 175.097 644.637 193.701 644.634 199.937 C 644.63 211.736 656.121 228.374 675.486 237.367 C 656.115 246.36 644.611 262.998 644.606 274.793 C 644.604 281.029 644.597 299.637 644.59 318.704 C 644.579 346.483 615.965 369.086 580.423 369.415 C 531.21 369.873 437.346 371.296 409.788 375.424 C 361.776 382.615 337.71 418.551 337.71 418.551 C 337.71 418.551 313.67 382.615 265.664 375.424 C 238.104 371.296 144.25 369.873 95.033 369.415 C 59.4909 369.086 30.8939 346.484 30.9043 318.704 C 30.9115 299.638 30.9185 281.029 30.9208 274.794 C 30.9252 262.999 19.4335 246.36 0.0687466 237.368 C 19.4403 228.375 30.9445 211.736 30.9489 199.937 C 30.9512 193.702 30.9582 175.098 30.9654 156.026 C 30.9758 128.252 59.5897 105.645 95.1321 105.316 C 144.349 104.853 238.204 103.439 265.767 99.3113 C 313.779 92.1196 337.845 56.1834 337.845 56.1834" stroke-linecap="round" />
</g>
		<g transform="matrix(1 0 0 1 -0.5 27.87)"  >
<path style="stroke: rgb(255,255,255); stroke-width: 1.54; stroke-dasharray: none; stroke-linecap: butt; stroke-dashoffset: 0; stroke-linejoin: miter; stroke-miterlimit: 4; fill: none; fill-rule: evenodd; opacity: 1;" vector-effect="non-scaling-stroke"  transform=" translate(-337.5, -237.37)" d="M 407.443 106.6 C 434.009 110.51 524.504 111.85 571.95 112.288 C 606.217 112.6 633.787 134.017 633.778 160.331 C 633.771 178.398 633.764 196.024 633.762 201.931 C 633.758 213.11 645.672 228.873 664.342 237.392 C 645.666 245.912 633.74 261.675 633.735 272.849 C 633.733 278.757 633.727 296.386 633.72 314.45 C 633.71 340.768 606.123 362.181 571.856 362.493 C 524.41 362.927 433.914 364.275 407.345 368.185 C 361.056 374.999 337.853 409.044 337.853 409.044 C 337.853 409.044 314.676 374.999 268.392 368.185 C 241.821 364.275 151.335 362.927 103.885 362.493 C 69.6184 362.181 42.0476 340.768 42.0574 314.45 C 42.0642 296.387 42.0708 278.757 42.073 272.85 C 42.0772 261.675 29.3282 245.912 10.6582 237.393 C 29.3346 228.873 42.0955 213.11 42.0997 201.931 C 42.1019 196.024 42.1085 178.399 42.1153 160.331 C 42.1251 134.017 69.7121 112.6 103.979 112.288 C 151.43 111.85 241.917 110.51 268.49 106.6 C 314.779 99.7864 337.982 65.7409 337.982 65.7409 C 337.982 64.1515 361.159 99.7864 407.443 106.6 Z" stroke-linecap="round" />
</g>
		<g transform="matrix(1 0 0 1 -0.78 27.87)"  >
<path style="stroke: none; stroke-width: 1; stroke-dasharray: none; stroke-linecap: butt; stroke-dashoffset: 0; stroke-linejoin: miter; stroke-miterlimit: 4; fill: rgb(163,205,255); fill-rule: evenodd; opacity: 1;" vector-effect="non-scaling-stroke"  transform=" translate(-337.22, -237.37)" d="M 337.162 395.064 L 336.399 394.746 C 323.513 381.558 301.357 364.824 269 359.982 C 241.9 355.932 152.892 354.53 102.248 354.057 C 73.9681 353.795 50.964 336.72 50.9718 315.996 L 50.9877 273.544 C 50.9922 261.694 43.7654 248.472 31.6535 238.182 L 31.2768 237.361 L 31.6541 236.54 C 43.7737 226.251 51.0104 213.029 51.0149 201.174 L 51.0308 158.722 C 51.0386 138.002 74.0555 120.927 102.336 120.665 C 153.001 120.188 242.032 118.786 269.092 114.736 C 301.453 109.898 323.617 93.1679 336.517 79.9762 C 336.92 79.5677 337.64 79.5677 338.042 79.9762 C 350.933 93.1679 373.085 109.903 405.441 114.736 C 432.495 118.786 521.529 120.188 572.194 120.665 C 600.474 120.927 623.478 138.002 623.47 158.722 L 623.454 201.174 C 623.45 213.028 630.676 226.25 642.784 236.54 L 643.165 237.361 L 642.783 238.182 C 630.668 248.472 623.431 261.693 623.427 273.544 L 623.411 315.995 C 623.403 336.72 600.39 353.795 572.106 354.057 C 521.458 354.53 432.444 355.932 405.349 359.982 C 372.989 364.824 350.825 381.558 337.924 394.746 L 337.162 395.064 L 337.162 395.064 Z" stroke-linecap="round" />
</g>
		<g transform="matrix(1 0 0 1 80.85 -162.13)"  >
<path style="stroke: none; stroke-width: 1; stroke-dasharray: none; stroke-linecap: butt; stroke-dashoffset: 0; stroke-linejoin: miter; stroke-miterlimit: 4; fill: rgb(0,0,0); fill-rule: evenodd; opacity: 1;" vector-effect="non-scaling-stroke"  transform=" translate(-418.85, -47.36)" d="M 440.142 14.3372 C 441.654 11.429 443.374 9.24366 445.44 7.77075 C 447.434 6.36827 449.409 5.74716 451.521 5.91763 C 453.562 6.00254 455.456 6.8844 457.255 8.61125 C 459.119 10.4117 460.689 12.994 461.885 16.4215 C 462.539 18.2818 463.56 19.2864 464.73 19.6568 C 466.036 20.0254 467.261 19.8284 468.328 19.128 C 469.318 18.4961 470.066 17.4345 470.575 15.948 C 471.011 14.5269 470.754 12.9592 469.799 11.2365 C 468.134 8.23104 466.239 6.07589 464.138 4.4848 C 462.106 2.96734 459.945 1.94525 457.647 1.56423 C 455.434 1.11632 453.309 1.09152 451.122 1.63742 C 449.081 2.18321 447.147 3.01668 445.534 4.20799 C 443.84 5.473 442.56 6.87986 441.514 8.72329 C 440.552 10.4947 440.067 12.3392 440.142 14.3372 Z M 456.15 43.0493 C 455.736 43.4184 455.762 43.9979 456.202 44.4945 C 456.657 45.2933 457.231 45.3837 457.645 45.0146 L 457.921 44.7686 C 458.492 44.5758 458.338 44.1105 457.873 43.3205 C 457.419 42.8079 456.993 42.5926 456.426 42.8033 L 456.15 43.0493 Z M 436.79 86.283 C 441.001 82.698 444.25 78.8052 446.485 74.5331 C 448.646 70.3349 449.744 65.3898 449.87 59.6362 C 449.866 56.7571 449.731 53.7349 449.379 50.7732 C 449.023 47.8183 448.612 44.7886 448.192 41.7553 C 447.853 38.6534 447.518 35.5516 447.318 32.4542 C 447.122 29.3536 447.204 26.2604 447.504 23.1032 C 446.591 26.0335 446.087 29.1145 446.13 32.3559 C 446.175 35.594 446.28 38.9069 446.658 42.3695 C 446.97 45.7639 447.265 49.2865 447.563 52.8228 C 447.785 56.4244 447.648 60.0922 447.228 63.7558 C 446.736 67.4883 445.753 71.1317 444.201 74.921 C 442.644 78.7016 440.109 82.4636 436.79 86.283 Z M 456.428 74.3471 C 457.437 73.8051 458.467 72.8095 459.468 71.1243 C 460.471 69.443 461.477 67.6101 462.708 65.562 C 463.861 63.5903 465.161 61.6259 466.52 59.741 C 467.883 57.8527 469.493 56.4364 471.286 55.5587 C 469.676 55.6879 468.255 56.0527 466.948 57.0329 C 465.713 57.9399 464.605 59.0101 463.63 60.2384 C 462.72 61.5501 461.742 62.9279 461.028 64.4757 C 460.244 65.9414 459.605 67.4162 458.973 68.7452 C 458.481 70.0793 457.923 71.3298 457.52 72.294 C 457.108 73.4038 456.723 74.0622 456.428 74.3471 Z M 444.295 85.1811 C 447.504 82.8642 450.094 79.8181 452.132 76.122 C 454.166 72.4293 455.596 68.5053 456.496 64.4413 C 457.449 60.4428 457.854 56.4422 457.71 52.4327 C 457.622 48.4955 457.138 45.0474 456.106 42.2398 C 456.445 47.1179 456.412 51.553 455.994 55.6983 C 455.572 59.8453 454.907 63.7044 453.854 67.2669 C 452.801 70.831 451.44 74.0366 449.893 77.0232 C 448.285 79.9391 446.41 82.7066 444.295 85.1811 Z M 442.592 25.8408 C 442.935 23.1982 443.624 20.4854 444.881 17.7855 C 446.138 15.0856 447.569 12.7425 449.361 10.9835 C 451.011 9.2174 452.804 8.09895 454.665 7.69352 C 456.525 7.28808 458.272 8.02417 459.9 9.90511 C 456.531 12.7242 454.367 16.1288 453.32 20.1927 C 452.217 24.1809 452.465 28.6238 454.208 33.508 C 455.095 31.6616 456.172 30.0359 457.284 28.7616 C 458.533 27.4891 459.741 26.6454 461.04 26.234 C 462.265 25.8931 463.508 26.055 464.701 26.7868 C 465.887 27.5186 467.002 28.9666 467.82 31.1891 C 466.302 31.6742 465.068 32.8003 464.1 34.7205 C 463.133 36.6374 462.357 38.7749 461.893 41.2727 C 461.429 43.7672 461.154 46.484 461.157 49.2063 C 461.158 51.9184 461.392 54.4275 461.736 56.5787 C 462.808 54.3039 464.255 52.4652 466.206 51.2024 C 468.076 50.0134 470.027 49.3929 472.05 49.4939 C 474.151 49.5228 476.037 50.2676 477.909 51.7925 C 479.724 53.2501 481.184 55.4166 482.203 58.5055 C 479.668 58.6155 477.372 59.1564 475.437 60.2712 C 473.425 61.4633 471.539 62.7934 469.542 64.4831 C 467.691 66.1732 465.685 68.0042 463.663 69.9832 C 461.644 71.9588 459.277 73.8547 456.507 75.6054 C 458.003 76.0603 459.469 76.796 460.702 77.7413 C 462.001 78.7626 463.092 79.7043 463.957 80.8627 C 464.82 82.0193 465.327 83.2443 465.55 84.4603 C 465.838 85.7505 465.723 86.892 465.111 88.1016 C 463.83 86.9409 462.223 86.2016 460.42 86.0355 C 458.556 85.7935 456.441 85.9092 454.237 86.2333 C 451.956 86.6364 449.597 87.1014 447.071 87.8554 C 444.602 88.6801 441.999 89.5012 439.33 90.2499 C 436.724 91.0761 434.137 91.7526 431.482 92.3618 C 428.896 93.0434 426.331 93.4375 423.874 93.4736 C 420.147 93.6353 415.871 93.0059 411.043 91.5801 C 406.217 90.1526 401.292 88.2997 396.194 86.0866 C 391.1 83.8667 386.156 81.5075 381.242 78.8642 C 376.465 76.2245 372.101 73.7335 368.259 71.5343 C 364.438 69.1922 361.334 67.3625 359.038 65.8233 C 356.744 64.2944 355.495 63.4902 355.495 63.4902 C 355.495 63.4902 358.676 62.0854 361.067 62.8855 C 363.458 63.6856 365.735 65.7578 372.491 69.7822 C 379.246 73.8065 392.491 79.0439 402.783 70.2233 C 404.174 68.9528 404.781 67.1026 404.546 64.5918 C 407.512 66.4212 409.484 68.3802 410.462 70.4685 C 411.503 72.6293 411.718 74.6373 411.188 76.4171 C 410.714 78.2691 409.575 79.8276 407.848 81.0219 C 406.035 82.2814 403.805 82.8981 401.206 82.9306 C 402.795 83.1688 404.786 83.5573 407.324 84.0896 C 409.798 84.5529 412.427 84.8752 415.205 85.0548 C 417.931 85.1655 420.678 84.9903 423.319 84.524 C 425.953 84.0577 428.309 82.9503 430.225 81.3276 C 431.6 80.2051 432.599 78.6414 433.287 76.7207 C 433.895 74.8688 434.303 72.9443 434.299 70.8676 C 434.289 68.939 433.928 66.9256 433.281 65.0598 C 432.63 63.1906 431.594 61.6738 430.313 60.5131 C 428.966 59.2766 427.282 58.6078 425.341 58.4414 C 423.395 58.2699 421.025 58.8813 418.362 60.2757 C 417.647 58.3323 417.407 56.6136 417.628 55.1158 C 417.846 53.6111 418.46 52.4083 419.464 51.492 C 420.39 50.6461 421.577 49.9452 423.166 49.5412 C 424.671 49.2041 426.271 49.2959 428.063 49.605 C 429.847 49.9141 431.593 50.6535 433.45 51.6807 C 435.297 52.8526 437.032 54.379 438.582 56.3287 C 439.025 53.3348 438.836 50.3987 438.098 47.3137 C 437.344 44.3664 436.302 41.5617 434.935 39.1834 C 433.567 36.8052 432.012 34.8486 430.216 33.2533 C 428.402 31.7957 426.515 31.0525 424.759 31.1034 C 425.493 28.754 426.69 27.2663 428.07 26.7844 C 429.467 26.1596 430.922 26.2512 432.393 26.992 C 433.869 27.5795 435.233 28.6732 436.547 30.1904 C 437.803 31.6421 438.775 33.0847 439.313 34.6679 L 442.592 25.8408 Z M 431.41 86.1882 C 435.389 83.6934 438.404 81.0463 440.599 78.0894 C 442.795 75.1343 444.32 71.8819 445.096 68.4005 C 446.007 64.9175 446.102 61.1388 445.665 57.0508 C 445.229 52.9716 444.326 48.6639 443.088 44.1348 C 443.502 49.1617 443.826 53.6051 443.935 57.4682 C 444.106 61.3999 443.899 64.8928 443.151 68.0834 C 442.475 71.3496 441.183 74.3869 439.345 77.2691 C 437.506 80.1583 434.886 83.1057 431.41 86.1882 L 431.41 86.1882 Z" stroke-linecap="round" />
</g>
		<g transform="matrix(1 0 0 1 -82.18 -162.31)"  >
<path style="stroke: none; stroke-width: 1; stroke-dasharray: none; stroke-linecap: butt; stroke-dashoffset: 0; stroke-linejoin: miter; stroke-miterlimit: 4; fill: rgb(0,0,0); fill-rule: evenodd; opacity: 1;" vector-effect="non-scaling-stroke"  transform=" translate(-255.82, -47.19)" d="M 234.141 14.569 C 233.247 11.6216 232.002 9.39057 230.272 7.86188 C 228.598 6.40553 226.786 5.73047 224.677 5.8425 C 222.656 5.87103 220.617 6.6999 218.5 8.37568 C 216.305 10.1232 214.239 12.66 212.369 16.0517 C 211.349 17.8923 210.143 18.868 208.919 19.2058 C 207.562 19.538 206.399 19.3075 205.494 18.5781 C 204.65 17.9195 204.13 16.8381 203.933 15.3388 C 203.793 13.9069 204.364 12.3476 205.651 10.6526 C 207.896 7.69562 210.194 5.59457 212.58 4.06274 C 214.883 2.60262 217.212 1.641 219.546 1.3237 C 221.81 0.937231 223.901 0.971089 225.938 1.57687 C 227.831 2.17851 229.561 3.06465 230.903 4.29947 C 232.31 5.6102 233.281 7.05119 233.934 8.92195 C 234.519 10.7185 234.62 12.5747 234.141 14.569 Z M 218.823 42.8798 C 219.15 43.2609 219.008 43.8409 218.481 44.3265 C 217.878 45.1145 217.303 45.1894 216.976 44.8082 L 216.758 44.5541 C 216.244 44.3453 216.487 43.8832 217.097 43.1043 C 217.642 42.6031 218.098 42.399 218.605 42.6257 L 218.823 42.8798 Z M 231.596 86.0957 C 228.073 82.4095 225.587 78.4439 224.205 74.1292 C 222.882 69.89 222.788 64.9372 223.844 59.2069 C 224.44 56.3414 225.198 53.3369 226.163 50.3989 C 227.13 47.4677 228.169 44.4636 229.218 41.4562 C 230.198 38.3782 231.174 35.3001 232.013 32.2228 C 232.849 29.1421 233.402 26.061 233.747 22.9101 C 234.069 25.8523 233.945 28.9331 233.236 32.1582 C 232.524 35.3799 231.737 38.6745 230.643 42.1104 C 229.629 45.4803 228.606 48.9782 227.579 52.4897 C 226.613 56.0683 225.998 59.7229 225.67 63.3813 C 225.4 67.1101 225.645 70.7641 226.436 74.5791 C 227.233 78.3857 229.024 82.2011 231.596 86.0957 Z M 217.05 74.1666 C 216.03 73.6052 215.084 72.5979 214.322 70.9145 C 213.555 69.2347 212.82 67.4061 211.876 65.3597 C 211.004 63.3905 209.965 61.4243 208.842 59.5344 C 207.715 57.641 206.207 56.2039 204.376 55.29 C 206.164 55.4637 207.687 55.8631 208.948 56.8633 C 210.143 57.7897 211.16 58.8725 211.993 60.1066 C 212.734 61.4208 213.538 62.8019 214.007 64.342 C 214.573 65.8038 214.972 67.2702 215.396 68.5932 C 215.662 69.9172 216.019 71.1611 216.264 72.1193 C 216.487 73.2208 216.779 73.8783 217.05 74.1666 Z M 226.272 84.9977 C 223.434 82.6075 221.388 79.5109 220.048 75.7849 C 218.712 72.0623 218.048 68.1272 217.961 64.0682 C 217.806 60.0726 218.219 56.0905 219.2 52.1149 C 220.109 48.2096 221.325 44.8009 222.976 42.0435 C 221.613 46.8756 220.726 51.2785 220.296 55.4046 C 219.872 59.5326 219.758 63.3816 220.107 66.9472 C 220.456 70.5146 221.197 73.7346 222.178 76.7426 C 223.235 79.6822 224.599 82.4819 226.272 84.9977 Z M 239.055 25.3873 C 239.253 22.747 239.113 20.027 238.398 17.3041 C 237.683 14.5811 236.719 12.2084 235.27 10.4071 C 233.966 8.60274 232.384 7.43911 230.587 6.98341 C 228.791 6.52771 226.876 7.21162 224.844 9.03857 C 227.668 11.9393 229.155 15.3893 229.378 19.4643 C 229.673 23.4655 228.509 27.8815 225.745 32.695 C 225.229 30.8321 224.474 29.1835 223.613 27.8837 C 222.613 26.5821 221.566 25.7083 220.338 25.2624 C 219.17 24.8887 217.881 25.0151 216.526 25.7103 C 215.177 26.4056 213.753 27.8159 212.47 30.0055 C 213.904 30.5309 214.919 31.6865 215.502 33.6252 C 216.085 35.5606 216.43 37.7102 216.386 40.2099 C 216.342 42.7061 216.062 45.4184 215.499 48.1285 C 214.941 50.8284 214.19 53.3197 213.4 55.4516 C 212.784 53.157 211.701 51.286 209.989 49.9743 C 208.344 48.7383 206.5 48.066 204.436 48.1099 C 202.307 48.0799 200.249 48.7685 198.044 50.2342 C 195.912 51.6345 193.991 53.7504 192.328 56.797 C 194.865 56.9774 197.074 57.5801 198.8 58.744 C 200.588 59.9871 202.22 61.3641 203.89 63.1021 C 205.413 64.8364 207.063 66.7154 208.7 68.7421 C 210.333 70.7654 212.336 72.7191 214.774 74.5394 C 213.169 74.9505 211.537 75.6418 210.097 76.5484 C 208.575 77.5287 207.279 78.4357 206.168 79.5647 C 205.058 80.692 204.294 81.8973 203.819 83.1016 C 203.263 84.3779 203.144 85.5175 203.514 86.7388 C 205.047 85.6192 206.822 84.9282 208.678 84.8133 C 210.611 84.6246 212.724 84.799 214.884 85.1833 C 217.105 85.6484 219.393 86.1774 221.79 86.9988 C 224.115 87.8888 226.576 88.7791 229.119 89.5992 C 231.582 90.4946 234.056 91.2405 236.614 91.9213 C 239.086 92.6723 241.596 93.1363 244.071 93.241 C 247.803 93.5064 252.253 92.9995 257.423 91.7152 C 262.592 90.4292 267.948 88.7224 273.553 86.6619 C 279.155 84.5946 284.635 82.3843 290.143 79.8904 C 295.51 77.3963 300.431 75.0386 304.764 72.9568 C 309.106 70.7321 312.618 68.9976 315.254 67.5295 C 317.886 66.0717 319.313 65.306 319.313 65.306 C 319.313 65.306 316.387 63.8184 313.807 64.5481 C 311.228 65.2777 308.501 67.2769 300.85 71.0941 C 293.198 74.9112 278.741 79.7545 270.156 70.6853 C 269.011 69.3816 268.778 67.5227 269.531 65.0296 C 266.159 66.7679 263.764 68.6628 262.347 70.7145 C 260.851 72.8364 260.222 74.8295 260.392 76.6161 C 260.49 78.4731 261.32 80.0564 262.82 81.2937 C 264.392 82.5984 266.519 83.2748 269.138 83.3798 C 267.484 83.5724 265.392 83.9035 262.719 84.3624 C 260.124 84.7543 257.402 85.0016 254.559 85.1026 C 251.782 85.1365 249.042 84.8852 246.47 84.3471 C 243.905 83.8091 241.753 82.6408 240.151 80.9718 C 238.992 79.8158 238.303 78.2311 238.004 76.2998 C 237.769 74.4391 237.753 72.5118 238.183 70.4445 C 238.59 68.5249 239.368 66.5306 240.405 64.6913 C 241.446 62.8486 242.805 61.3677 244.338 60.248 C 245.952 59.0547 247.792 58.4361 249.787 58.3248 C 251.787 58.2085 254.056 58.8835 256.46 60.3462 C 257.581 58.4315 258.177 56.7272 258.262 55.2299 C 258.351 53.7259 257.977 52.5113 257.152 51.571 C 256.389 50.703 255.334 49.972 253.812 49.5253 C 252.361 49.1476 250.726 49.1942 248.852 49.4518 C 246.986 49.7095 245.07 50.3968 242.983 51.3674 C 240.877 52.4823 238.81 53.9533 236.844 55.8509 C 237.011 52.858 237.805 49.9404 239.184 46.8898 C 240.552 43.9768 242.181 41.2138 244.051 38.8845 C 245.921 36.5553 247.894 34.651 250.036 33.113 C 252.168 31.7127 254.228 31.0257 255.991 31.1255 C 255.732 28.7661 254.829 27.2515 253.534 26.7332 C 252.25 26.0721 250.761 26.1225 249.123 26.8188 C 247.511 27.3624 245.908 28.413 244.27 29.8867 C 242.702 31.2966 241.424 32.7056 240.555 34.2666 L 239.055 25.3873 Z M 239.288 86.0165 C 235.698 83.4276 233.135 80.7147 231.484 77.7174 C 229.83 74.7219 228.931 71.4502 228.852 67.9723 C 228.635 64.4891 229.32 60.7352 230.62 56.6894 C 231.916 52.6523 233.742 48.4015 235.96 43.9404 C 234.49 48.919 233.233 53.3208 232.319 57.1526 C 231.327 61.0507 230.816 64.524 230.926 67.7125 C 230.946 70.9739 231.649 74.0255 232.949 76.9385 C 234.247 79.8585 236.339 82.8583 239.288 86.0165 L 239.288 86.0165 Z" stroke-linecap="round" />
</g>
</g>
</g>
</svg>