<?xml version="1.0" encoding="UTF-8" standalone="no" ?>
<!DOCTYPE svg PUBLIC "-//W3C//DTD SVG 1.1//EN" "http://www.w3.org/Graphics/SVG/1.1/DTD/svg11.dtd">
<svg xmlns="http://www.w3.org/2000/svg" xmlns:xlink="http://www.w3.org/1999/xlink" version="1.1" width="522" height="439" viewBox="0 0 522 439" xml:space="preserve">
<desc>Created with Fabric.js 5.2.4</desc>
<defs>
</defs>
<g transform="matrix(1 0 0 1 261 219.5)" id="73add8ac-bb0e-4227-86d8-6516ba8bdaf9"  >
<rect style="stroke: none; stroke-width: 1; stroke-dasharray: none; stroke-linecap: butt; stroke-dashoffset: 0; stroke-linejoin: miter; stroke-miterlimit: 4; fill: rgb(255,255,255); fill-rule: nonzero; opacity: 1; visibility: hidden;" vector-effect="non-scaling-stroke"  x="-261" y="-219.5" rx="0" ry="0" width="522" height="439" />
</g>
<g transform="matrix(Infinity NaN NaN Infinity 0 0)" id="6c13ff29-d5af-44bf-90ba-2623b133afa9"  >
</g>
<g transform="matrix(0.98 0 0 0.98 260.5 220.2)"  >
<g style=""   >
		<g transform="matrix(1 0 0 1 238.35 52.95)"  >
<path style="stroke: rgb(0,0,0); stroke-width: 1.62; stroke-dasharray: none; stroke-linecap: butt; stroke-dashoffset: 0; stroke-linejoin: miter; stroke-miterlimit: 4; fill: rgb(0,0,0); fill-rule: evenodd; opacity: 1;" vector-effect="non-scaling-stroke"  transform=" translate(-499.35, -272.45)" d="M 477.888 235.416 C 477.888 106.798 480.145 107.457 480.145 236.404 C 480.145 286.022 480.145 385.258 480.145 385.258 C 480.145 391.439 483.503 397.167 489.127 400.58 C 494.487 403.832 500.846 404.37 506.575 402.055 C 507.558 401.656 508.504 401.186 509.386 400.652 C 510.34 400.076 518.707 394.733 518.558 385.987 C 518.475 380.348 515.176 373.739 509.032 372.019 C 505.032 370.899 498.337 371.543 496.171 375.664 C 494.929 378.025 495.665 380.66 496.214 382.019 C 496.429 382.561 496.136 383.162 495.551 383.364 C 494.968 383.567 494.318 383.292 494.1 382.751 C 493.422 381.076 492.532 377.811 494.142 374.748 C 496.712 369.859 504.212 368.486 509.684 370.018 C 516.866 372.027 520.72 379.559 520.815 385.959 C 520.947 395.808 511.678 401.763 510.619 402.403 C 509.633 403 508.575 403.528 507.477 403.971 C 501.038 406.574 493.899 405.975 487.891 402.33 C 481.628 398.53 477.888 392.148 477.888 385.258 C 477.888 385.258 477.888 285.363 477.888 235.416 Z" stroke-linecap="round" />
</g>
		<g transform="matrix(1 0 0 1 -238.4 53.7)"  >
<path style="stroke: rgb(0,0,0); stroke-width: 1.62; stroke-dasharray: none; stroke-linecap: butt; stroke-dashoffset: 0; stroke-linejoin: miter; stroke-miterlimit: 4; fill: rgb(0,0,0); fill-rule: evenodd; opacity: 1;" vector-effect="non-scaling-stroke"  transform=" translate(-22.6, -273.2)" d="M 44.069 236.166 C 44.069 107.548 41.812 108.207 41.812 237.154 C 41.812 286.772 41.812 386.008 41.812 386.008 C 41.812 392.189 38.4543 397.917 32.8301 401.33 C 27.4703 404.582 21.1112 405.12 15.3824 402.805 C 14.399 402.406 13.4529 401.936 12.5708 401.402 C 11.6172 400.826 3.24966 395.483 3.39898 386.737 C 3.48218 381.098 6.78121 374.489 12.9249 372.769 C 16.9247 371.649 23.6198 372.293 25.7861 376.414 C 27.0277 378.775 26.2917 381.41 25.7435 382.769 C 25.528 383.311 25.8213 383.912 26.4058 384.114 C 26.9893 384.317 27.6389 384.042 27.8575 383.501 C 28.5348 381.826 29.4254 378.561 27.8148 375.498 C 25.2454 370.609 17.7449 369.236 12.2732 370.768 C 5.09063 372.777 1.23696 380.309 1.14203 386.709 C 1.00977 396.558 10.2786 402.513 11.3378 403.153 C 12.3244 403.75 13.3825 404.278 14.48 404.721 C 20.9192 407.324 28.058 406.725 34.0663 403.08 C 40.3294 399.28 44.069 392.898 44.069 386.008 C 44.069 386.008 44.069 286.113 44.069 236.166 Z" stroke-linecap="round" />
</g>
		<g transform="matrix(1 0 0 1 238.41 -22.25)"  >
<path style="stroke: none; stroke-width: 1; stroke-dasharray: none; stroke-linecap: butt; stroke-dashoffset: 0; stroke-linejoin: miter; stroke-miterlimit: 4; fill: rgb(0,0,0); fill-rule: evenodd; opacity: 1;" vector-effect="non-scaling-stroke"  transform=" translate(-499.41, -197.25)" d="M 477.945 357.655 L 477.945 56.1242 C 477.945 49.2327 481.684 42.8484 487.947 39.0467 C 493.956 35.4003 501.095 34.8011 507.534 37.4044 C 508.631 37.8494 509.689 38.3764 510.676 38.9736 C 511.736 39.6133 521.002 45.5566 520.872 55.4232 C 520.777 61.8263 516.923 69.3595 509.74 71.3696 C 504.269 72.9021 496.768 71.5298 494.199 66.6385 C 492.588 63.5714 493.481 60.3066 494.156 58.6327 C 494.375 58.0908 495.024 57.816 495.608 58.0186 C 496.192 58.2223 496.485 58.8235 496.27 59.3653 C 495.721 60.7248 494.985 63.3598 496.228 65.7219 C 498.394 69.844 505.089 70.4886 509.089 69.3674 C 515.232 67.648 518.532 61.0353 518.615 55.3945 C 518.781 46.6096 510.396 41.301 509.443 40.7256 C 508.561 40.1917 507.615 39.7201 506.631 39.3216 C 500.903 37.006 494.543 37.5438 489.184 40.7968 C 483.559 44.2109 480.202 49.9416 480.202 56.1242 L 480.202 357.655 C 480.202 358.232 479.696 358.701 479.073 358.701 C 478.45 358.701 477.945 358.232 477.945 357.655" stroke-linecap="round" />
</g>
		<g transform="matrix(1 0 0 1 238.41 -22.25)"  >
<path style="stroke: rgb(0,0,0); stroke-width: 1.62; stroke-dasharray: none; stroke-linecap: butt; stroke-dashoffset: 0; stroke-linejoin: miter; stroke-miterlimit: 4; fill: none; fill-rule: nonzero; opacity: 1;" vector-effect="non-scaling-stroke"  transform=" translate(-499.41, -197.25)" d="M 477.945 357.655 L 477.945 56.1242 C 477.945 49.2327 481.684 42.8484 487.947 39.0467 C 493.956 35.4003 501.095 34.8011 507.534 37.4044 C 508.631 37.8494 509.689 38.3764 510.676 38.9736 C 511.736 39.6133 521.002 45.5566 520.872 55.4232 C 520.777 61.8263 516.923 69.3595 509.74 71.3696 C 504.269 72.9021 496.768 71.5298 494.199 66.6385 C 492.588 63.5714 493.481 60.3066 494.156 58.6327 C 494.375 58.0908 495.024 57.816 495.608 58.0186 C 496.192 58.2223 496.485 58.8235 496.27 59.3653 C 495.721 60.7248 494.985 63.3598 496.228 65.7219 C 498.394 69.844 505.089 70.4886 509.089 69.3674 C 515.232 67.648 518.532 61.0353 518.615 55.3945 C 518.781 46.6096 510.396 41.301 509.443 40.7256 C 508.561 40.1917 507.615 39.7201 506.631 39.3216 C 500.903 37.006 494.543 37.5438 489.184 40.7968 C 483.559 44.2109 480.202 49.9416 480.202 56.1242 L 480.202 357.655 C 480.202 358.232 479.696 358.701 479.073 358.701 C 478.45 358.701 477.945 358.232 477.945 357.655" stroke-linecap="round" />
</g>
		<g transform="matrix(1 0 0 1 -238.54 -60.69)"  >
<path style="stroke: rgb(0,0,0); stroke-width: 1.62; stroke-dasharray: none; stroke-linecap: butt; stroke-dashoffset: 0; stroke-linejoin: miter; stroke-miterlimit: 4; fill: rgb(0,0,0); fill-rule: evenodd; opacity: 1;" vector-effect="non-scaling-stroke"  transform=" translate(-22.46, -158.81)" d="M 11.1981 37.3421 C 12.1795 36.7457 13.2463 36.2184 14.3345 35.7761 C 20.778 33.1753 27.9149 33.7737 33.9317 37.4152 C 40.1939 41.2107 43.9277 47.5874 43.9277 54.4695 C 43.9277 54.4695 43.9277 173.869 43.9277 233.568 C 43.9277 300.053 41.6768 300.053 41.6768 233.568 C 41.6768 173.869 41.6768 54.4695 41.6768 54.4695 C 41.6768 48.2943 38.3163 42.5724 32.6942 39.1629 C 27.3282 35.9143 20.97 35.3772 15.2413 37.6897 C 14.2598 38.0866 13.3103 38.5576 12.4249 39.0918 C 11.4861 39.6625 3.25035 44.8789 3.25035 53.5384 C 3.25035 53.6056 3.25035 53.6727 3.25035 53.7408 C 3.3357 59.3739 6.63213 65.9767 12.7876 67.6947 C 16.7881 68.8135 23.477 68.1697 25.6426 64.0542 C 26.8908 61.6923 26.1547 59.0629 25.6 57.7072 C 25.3866 57.1641 25.6853 56.5638 26.2614 56.3624 C 26.8481 56.16 27.4989 56.4325 27.7229 56.9726 C 28.395 58.6433 29.2911 61.9046 27.6803 64.9695 C 25.1092 69.8522 17.6096 71.2247 12.1369 69.6952 C 4.94657 67.6859 1.0954 60.1619 0.999386 53.7695 C 0.999386 53.6915 0.999386 53.6144 0.999386 53.5374 C 0.999386 43.778 10.1419 37.976 11.1981 37.3421 Z" stroke-linecap="round" />
</g>
		<g transform="matrix(1 0 0 1 83.54 -198.67)"  >
<path style="stroke: none; stroke-width: 1; stroke-dasharray: none; stroke-linecap: butt; stroke-dashoffset: 0; stroke-linejoin: miter; stroke-miterlimit: 4; fill: rgb(0,0,0); fill-rule: evenodd; opacity: 1;" vector-effect="non-scaling-stroke"  transform=" translate(-344.54, -20.83)" d="M 201.177 39.6113 C 201.177 39.0359 201.671 38.5689 202.281 38.5689 L 466.312 38.5689 C 472.884 38.5689 478.974 35.4673 482.605 30.2719 C 486.064 25.3229 486.632 19.4478 484.172 14.1549 C 483.749 13.2465 483.248 12.3726 482.68 11.5577 C 482.068 10.6779 476.425 2.9662 467.086 3.0864 C 461.09 3.16227 454.063 6.20872 452.233 11.8849 C 451.041 15.5816 451.728 21.7641 456.109 23.7672 C 458.617 24.9131 461.419 24.2332 462.865 23.7268 C 463.44 23.5258 464.081 23.7997 464.297 24.3386 C 464.51 24.8805 464.219 25.4786 463.644 25.6806 C 461.864 26.3033 458.39 27.127 455.135 25.6402 C 449.936 23.2637 448.477 16.3363 450.105 11.2829 C 452.244 4.64707 460.251 1.08828 467.057 1.00158 C 477.582 0.866595 483.861 9.4404 484.542 10.4188 C 485.177 11.3311 485.738 12.3075 486.21 13.3214 C 488.975 19.2724 488.337 25.8668 484.464 31.4139 C 480.422 37.1994 473.637 40.6537 466.312 40.6537 L 202.281 40.6537 C 201.671 40.6537 201.177 40.1867 201.177 39.6113" stroke-linecap="round" />
</g>
		<g transform="matrix(1 0 0 1 83.54 -198.67)"  >
<path style="stroke: rgb(0,0,0); stroke-width: 1.62; stroke-dasharray: none; stroke-linecap: butt; stroke-dashoffset: 0; stroke-linejoin: miter; stroke-miterlimit: 4; fill: none; fill-rule: nonzero; opacity: 1;" vector-effect="non-scaling-stroke"  transform=" translate(-344.54, -20.83)" d="M 201.177 39.6113 C 201.177 39.0359 201.671 38.5689 202.281 38.5689 L 466.312 38.5689 C 472.884 38.5689 478.974 35.4673 482.605 30.2719 C 486.064 25.3229 486.632 19.4478 484.172 14.1549 C 483.749 13.2465 483.248 12.3726 482.68 11.5577 C 482.068 10.6779 476.425 2.9662 467.086 3.0864 C 461.09 3.16227 454.063 6.20872 452.233 11.8849 C 451.041 15.5816 451.728 21.7641 456.109 23.7672 C 458.617 24.9131 461.419 24.2332 462.865 23.7268 C 463.44 23.5258 464.081 23.7997 464.297 24.3386 C 464.51 24.8805 464.219 25.4786 463.644 25.6806 C 461.864 26.3033 458.39 27.127 455.135 25.6402 C 449.936 23.2637 448.477 16.3363 450.105 11.2829 C 452.244 4.64707 460.251 1.08828 467.057 1.00158 C 477.582 0.866595 483.861 9.4404 484.542 10.4188 C 485.177 11.3311 485.738 12.3075 486.21 13.3214 C 488.975 19.2724 488.337 25.8668 484.464 31.4139 C 480.422 37.1994 473.637 40.6537 466.312 40.6537 L 202.281 40.6537 C 201.671 40.6537 201.177 40.1867 201.177 39.6113" stroke-linecap="round" />
</g>
		<g transform="matrix(1 0 0 1 -56.32 -198.65)"  >
<path style="stroke: none; stroke-width: 1; stroke-dasharray: none; stroke-linecap: butt; stroke-dashoffset: 0; stroke-linejoin: miter; stroke-miterlimit: 4; fill: rgb(0,0,0); fill-rule: evenodd; opacity: 1;" vector-effect="non-scaling-stroke"  transform=" translate(-204.68, -20.85)" d="M 32.1544 20.8821 C 32.1544 18.3391 32.725 15.7892 33.8661 13.3468 C 34.3415 12.3339 34.9015 11.3575 35.546 10.4432 C 36.2222 9.46678 42.5193 0.891985 53.1166 1.02697 C 59.9631 1.11367 68.0141 4.67246 70.1589 11.3082 C 71.8071 16.3646 70.3279 23.2911 65.1085 25.6656 C 61.8332 27.1533 58.336 26.3287 56.5504 25.706 C 55.9693 25.504 55.6734 24.9069 55.8953 24.364 C 56.1066 23.8251 56.7511 23.5512 57.3322 23.7522 C 58.7903 24.2586 61.6007 24.9384 64.1259 23.7926 C 68.5318 21.7905 69.2079 15.607 68.0246 11.9102 C 66.1862 6.23411 59.1178 3.18766 53.0849 3.1118 C 43.6815 2.99159 38.0289 10.7023 37.4161 11.5821 C 36.8456 12.3999 36.3384 13.2729 35.9158 14.1803 C 33.4329 19.4732 34.014 25.3463 37.4901 30.2963 C 41.1352 35.4926 47.2632 38.5943 53.8667 38.5943 L 376.083 38.5943 C 376.7 38.5943 377.201 39.0613 377.201 39.6367 C 377.201 40.2121 376.7 40.6791 376.083 40.6791 L 53.8667 40.6791 C 46.5025 40.6791 39.6877 37.2238 35.62 31.4383 C 33.3272 28.1682 32.1544 24.5325 32.1544 20.8821" stroke-linecap="round" />
</g>
		<g transform="matrix(1 0 0 1 -56.32 -198.65)"  >
<path style="stroke: rgb(0,0,0); stroke-width: 1.62; stroke-dasharray: none; stroke-linecap: butt; stroke-dashoffset: 0; stroke-linejoin: miter; stroke-miterlimit: 4; fill: none; fill-rule: nonzero; opacity: 1;" vector-effect="non-scaling-stroke"  transform=" translate(-204.68, -20.85)" d="M 32.1544 20.8821 C 32.1544 18.3391 32.725 15.7892 33.8661 13.3468 C 34.3415 12.3339 34.9015 11.3575 35.546 10.4432 C 36.2222 9.46678 42.5193 0.891985 53.1166 1.02697 C 59.9631 1.11367 68.0141 4.67246 70.1589 11.3082 C 71.8071 16.3646 70.3279 23.2911 65.1085 25.6656 C 61.8332 27.1533 58.336 26.3287 56.5504 25.706 C 55.9693 25.504 55.6734 24.9069 55.8953 24.364 C 56.1066 23.8251 56.7511 23.5512 57.3322 23.7522 C 58.7903 24.2586 61.6007 24.9384 64.1259 23.7926 C 68.5318 21.7905 69.2079 15.607 68.0246 11.9102 C 66.1862 6.23411 59.1178 3.18766 53.0849 3.1118 C 43.6815 2.99159 38.0289 10.7023 37.4161 11.5821 C 36.8456 12.3999 36.3384 13.2729 35.9158 14.1803 C 33.4329 19.4732 34.014 25.3463 37.4901 30.2963 C 41.1352 35.4926 47.2632 38.5943 53.8667 38.5943 L 376.083 38.5943 C 376.7 38.5943 377.201 39.0613 377.201 39.6367 C 377.201 40.2121 376.7 40.6791 376.083 40.6791 L 53.8667 40.6791 C 46.5025 40.6791 39.6877 37.2238 35.62 31.4383 C 33.3272 28.1682 32.1544 24.5325 32.1544 20.8821" stroke-linecap="round" />
</g>
		<g transform="matrix(1 0 0 1 -84.03 197.5)"  >
<path style="stroke: none; stroke-width: 1; stroke-dasharray: none; stroke-linecap: butt; stroke-dashoffset: 0; stroke-linejoin: miter; stroke-miterlimit: 4; fill: rgb(0,0,0); fill-rule: evenodd; opacity: 1;" vector-effect="non-scaling-stroke"  transform=" translate(-176.97, -417)" d="M 32.7995 416.974 C 32.7995 413.323 33.9727 409.69 36.2662 406.418 C 40.3354 400.632 47.1526 397.178 54.5193 397.178 L 320.03 397.178 C 320.649 397.178 321.148 397.645 321.148 398.22 C 321.148 398.796 320.649 399.263 320.03 399.263 L 54.5193 399.263 C 47.9135 399.263 41.7834 402.364 38.137 407.56 C 34.6597 412.511 34.0784 418.387 36.5622 423.676 C 36.9849 424.583 37.4923 425.456 38.063 426.273 C 38.676 427.155 44.3306 434.864 53.7372 434.745 C 59.7722 434.668 66.8431 431.622 68.6821 425.946 C 69.8764 422.249 69.1894 416.066 64.782 414.064 C 62.256 412.918 59.4446 413.598 57.986 414.104 C 57.4047 414.305 56.76 414.032 56.5486 413.492 C 56.3372 412.949 56.6226 412.353 57.2039 412.151 C 58.9901 411.528 62.4885 410.703 65.765 412.191 C 70.9862 414.565 72.4553 421.494 70.8171 426.548 C 68.6715 433.183 60.6178 436.742 53.7689 436.83 C 43.1679 436.964 36.8687 428.39 36.1923 427.412 C 35.5475 426.5 34.9874 425.522 34.5117 424.51 C 33.3703 422.068 32.7995 419.517 32.7995 416.974" stroke-linecap="round" />
</g>
		<g transform="matrix(1 0 0 1 -84.03 197.5)"  >
<path style="stroke: rgb(0,0,0); stroke-width: 1.62; stroke-dasharray: none; stroke-linecap: butt; stroke-dashoffset: 0; stroke-linejoin: miter; stroke-miterlimit: 4; fill: none; fill-rule: nonzero; opacity: 1;" vector-effect="non-scaling-stroke"  transform=" translate(-176.97, -417)" d="M 32.7995 416.974 C 32.7995 413.323 33.9727 409.69 36.2662 406.418 C 40.3354 400.632 47.1526 397.178 54.5193 397.178 L 320.03 397.178 C 320.649 397.178 321.148 397.645 321.148 398.22 C 321.148 398.796 320.649 399.263 320.03 399.263 L 54.5193 399.263 C 47.9135 399.263 41.7834 402.364 38.137 407.56 C 34.6597 412.511 34.0784 418.387 36.5622 423.676 C 36.9849 424.583 37.4923 425.456 38.063 426.273 C 38.676 427.155 44.3306 434.864 53.7372 434.745 C 59.7722 434.668 66.8431 431.622 68.6821 425.946 C 69.8764 422.249 69.1894 416.066 64.782 414.064 C 62.256 412.918 59.4446 413.598 57.986 414.104 C 57.4047 414.305 56.76 414.032 56.5486 413.492 C 56.3372 412.949 56.6226 412.353 57.2039 412.151 C 58.9901 411.528 62.4885 410.703 65.765 412.191 C 70.9862 414.565 72.4553 421.494 70.8171 426.548 C 68.6715 433.183 60.6178 436.742 53.7689 436.83 C 43.1679 436.964 36.8687 428.39 36.1923 427.412 C 35.5475 426.5 34.9874 425.522 34.5117 424.51 C 33.3703 422.068 32.7995 419.517 32.7995 416.974" stroke-linecap="round" />
</g>
		<g transform="matrix(1 0 0 1 55.89 197.88)"  >
<path style="stroke: none; stroke-width: 1; stroke-dasharray: none; stroke-linecap: butt; stroke-dashoffset: 0; stroke-linejoin: miter; stroke-miterlimit: 4; fill: rgb(0,0,0); fill-rule: evenodd; opacity: 1;" vector-effect="non-scaling-stroke"  transform=" translate(-316.89, -417.38)" d="M 144.775 398.595 C 144.775 398.02 145.27 397.553 145.892 397.553 L 467.352 397.553 C 474.699 397.553 481.503 401.007 485.557 406.792 C 489.446 412.344 490.083 418.937 487.308 424.885 C 486.835 425.899 486.272 426.876 485.635 427.788 C 484.952 428.765 478.656 437.339 468.099 437.205 C 461.273 437.117 453.243 433.558 451.098 426.923 C 449.467 421.863 450.929 414.939 456.143 412.566 C 459.407 411.079 462.891 411.903 464.677 412.526 C 465.252 412.728 465.544 413.325 465.331 413.867 C 465.115 414.407 464.472 414.68 463.896 414.479 C 462.445 413.973 459.635 413.293 457.12 414.439 C 452.722 416.441 452.035 422.628 453.232 426.321 C 455.068 431.997 462.115 435.043 468.129 435.12 C 477.494 435.239 483.154 427.528 483.768 426.649 C 484.338 425.833 484.84 424.959 485.264 424.051 C 487.735 418.76 487.159 412.885 483.692 407.934 C 480.052 402.739 473.943 399.638 467.352 399.638 L 145.892 399.638 C 145.27 399.638 144.775 399.171 144.775 398.595" stroke-linecap="round" />
</g>
		<g transform="matrix(1 0 0 1 55.89 197.88)"  >
<path style="stroke: rgb(0,0,0); stroke-width: 1.62; stroke-dasharray: none; stroke-linecap: butt; stroke-dashoffset: 0; stroke-linejoin: miter; stroke-miterlimit: 4; fill: none; fill-rule: nonzero; opacity: 1;" vector-effect="non-scaling-stroke"  transform=" translate(-316.89, -417.38)" d="M 144.775 398.595 C 144.775 398.02 145.27 397.553 145.892 397.553 L 467.352 397.553 C 474.699 397.553 481.503 401.007 485.557 406.792 C 489.446 412.344 490.083 418.937 487.308 424.885 C 486.835 425.899 486.272 426.876 485.635 427.788 C 484.952 428.765 478.656 437.339 468.099 437.205 C 461.273 437.117 453.243 433.558 451.098 426.923 C 449.467 421.863 450.929 414.939 456.143 412.566 C 459.407 411.079 462.891 411.903 464.677 412.526 C 465.252 412.728 465.544 413.325 465.331 413.867 C 465.115 414.407 464.472 414.68 463.896 414.479 C 462.445 413.973 459.635 413.293 457.12 414.439 C 452.722 416.441 452.035 422.628 453.232 426.321 C 455.068 431.997 462.115 435.043 468.129 435.12 C 477.494 435.239 483.154 427.528 483.768 426.649 C 484.338 425.833 484.84 424.959 485.264 424.051 C 487.735 418.76 487.159 412.885 483.692 407.934 C 480.052 402.739 473.943 399.638 467.352 399.638 L 145.892 399.638 C 145.27 399.638 144.775 399.171 144.775 398.595" stroke-linecap="round" />
</g>
		<g transform="matrix(1 0 0 1 1.47 -0.01)"  >
<path style="stroke: none; stroke-width: 1; stroke-dasharray: none; stroke-linecap: butt; stroke-dashoffset: 0; stroke-linejoin: miter; stroke-miterlimit: 4; fill: rgb(0,0,0); fill-rule: evenodd; opacity: 1;" vector-effect="non-scaling-stroke"  transform=" translate(-262.47, -219.49)" d="M 91.1265 71.1067 L 97.3877 359.725 L 432.876 365.977 L 426.614 77.3579 L 91.1265 71.1067 Z M 55.8289 39.6437 L 63.4691 391.779 L 469.121 399.338 L 461.48 47.2031 L 55.8289 39.6437 Z" stroke-linecap="round" />
</g>
		<g transform="matrix(1 0 0 1 1.42 -0.41)"  >
<path style="stroke: rgb(255,255,255); stroke-width: 0.81; stroke-dasharray: none; stroke-linecap: butt; stroke-dashoffset: 0; stroke-linejoin: miter; stroke-miterlimit: 4; fill: none; fill-rule: evenodd; opacity: 1;" vector-effect="non-scaling-stroke"  transform=" translate(-262.42, -219.09)" d="M 73.4568 65.1973 L 73.4568 372.985 L 451.381 372.985 L 451.381 65.1973 L 73.4568 65.1973 Z" stroke-linecap="round" />
</g>
		<g transform="matrix(1 0 0 1 1.3 -0.4)"  >
<rect style="stroke: none; stroke-width: 1; stroke-dasharray: none; stroke-linecap: butt; stroke-dashoffset: 0; stroke-linejoin: miter; stroke-miterlimit: 4; fill: rgb(255,255,255); fill-rule: nonzero; opacity: 1;" vector-effect="non-scaling-stroke"  x="-174" y="-150" rx="0" ry="0" width="348" height="300" />
</g>
</g>
</g>
</svg>