<svg width="268" height="509" fill="none" xmlns="http://www.w3.org/2000/svg"><path d="M242.084 97.887a5.6 5.6 0 00-2.352-4.452c.955-.038.432-.643-.01-1.09-.847-.851-.927-2.086-1.22-3.195a2.843 2.843 0 01.369-2.454c.51-.74 2.311-.318 3.208-.63.891-.308 1.085-.679 2.002-.643a5.146 5.146 0 002.855-.729 7.941 7.941 0 003.267-5.134 7.17 7.17 0 00-2.641-7.686 8.65 8.65 0 01-2.522-1.513 5.776 5.776 0 01-1.389-3.768 4.512 4.512 0 01.369-1.484c.473-1.057.946-.575 1.93-.654.308-.019 3.27-.609 2.973-1.136-.163-.294-2.093-.204-2.463-.253a8.4 8.4 0 004.743-8.598c1.396 2.321-.632 4.548-1.349 6.745-.409 1.232 1.27-.303 1.215-.243a9.705 9.705 0 002.403-3.328c1.724-5.175-6.217-7.186-9.648-8.465.705-.158-.277-.65.745-.575.283.022 1.473 1.027 1.598.74.464-1.094-.931-2.397-.506-3.617.496-1.438 2.626-1.3 3.753-1.71a7.15 7.15 0 003.874-4.23 7.139 7.139 0 00-.491-5.714 8.888 8.888 0 00-2.98-4.14 31.755 31.755 0 00-6.258-2.677c-4.823-1.816-9.664-3.562-14.43-5.527-4.663-1.927-9.31-3.894-14.012-5.722-4.595-1.788-9.044-3.96-13.809-5.292-.431-.123-2.73-1.01-2.994-.442-.298.646-1.081.659-1.905 1.107a7.705 7.705 0 00-3.565 4.06 6.59 6.59 0 00.056 4.905c.2.432 2.935 3.794 3.141 2.574.44.306-.059 1.3-.218 1.705-.571 1.46-.749-.059-1.356.614-.109.34.047.62.458.847a5.013 5.013 0 01-1.584 1.154 3.991 3.991 0 01-3.464-.048 7.618 7.618 0 00-6.81.16 6.216 6.216 0 00-3.358 5.914c.141 1.242.816 2.302.916 3.499a4.04 4.04 0 002.041 2.794c1.158.773 1.673 1.243.881 2.7a7.436 7.436 0 01-2.626 2.523 13.374 13.374 0 00-8.041-1.49 6.69 6.69 0 00-3.438 11.295c-1.113-.66.23.529.342.657.65.787 1.392 1.493 2.21 2.105a8.274 8.274 0 01.707 4.193c-.256 1.617-1.095 1.642-2.561 1.454a32.199 32.199 0 01-3.426-.68c-1.762-.44-1.44-.228-2.624.275a8.063 8.063 0 00-4.239 4.907 9.752 9.752 0 00-.262 6.189 9.778 9.778 0 003.517 5.106 21.713 21.713 0 002.828 1.977c1.122.66 1.898.485 1.548 1.754-.645 2.326-1.192 4.831-4.039 5.234a.373.373 0 00-.044-.459c-.654-.21-1.531 2.546-1.601 2.867a9.102 9.102 0 00.314 4.425 15.098 15.098 0 005.544 7.826 41.03 41.03 0 008.369 4.399c1.397.601 2.793 1.193 4.151 1.864.952.462 1.934.386 1.464 1.536-.32-.056-.538 1.331-.581 1.441-5.874 14.569-11.721 29.425-17.485 44.15a52778.846 52778.846 0 00-36.713 94.082C102.546 312.43 78 374.907 54.096 437.615a2722.62 2722.62 0 00-8.861 23.601 1319.266 1319.266 0 01-4.178 11.173c-.707 1.861-1.423 3.715-2.137 5.571-.438 1.119-1.253 1.908-1.124 3.208.456 4.863 6.139 8.911 10.529 9.772a9.91 9.91 0 007.122-1.478c1.288 1.177 3.455-6.049 3.829-7.019 12.058-31.175 23.76-62.485 35.581-93.756 23.773-62.871 47.223-125.861 70.791-188.81 7.183-19.185 14.368-38.364 21.432-57.591 3.13-8.527 6.756-17.233 9.233-25.813 1.067-.531 3.584.818 4.958 1.257a79.867 79.867 0 007.012 1.883c1.01.219 12.34 2.17 12.421 1.432.024-.204-1.153-.304-1.267-.32.701-.345 2.074.189 2.972-.157a4.935 4.935 0 002.389-2.419 7.295 7.295 0 00.538-6.35c.132.029.923-3.959 1.362-4.666.986-1.582 1.784-.764 3.344-.246a14.338 14.338 0 004.924 1.094c2.142-.107 3.363-2.151 4.769-3.467a.29.29 0 00.087-.236.283.283 0 00-.133-.213 4.409 4.409 0 001.738-1.621 7.79 7.79 0 00.657-4.557zm-1.096-26.73a8.631 8.631 0 01-3.942 7.319 13.312 13.312 0 01-3.981 1.913 4.614 4.614 0 01-4.027-.46 9.323 9.323 0 008.494-7.043A9.86 9.86 0 01232.478 78a9.89 9.89 0 01-7.189.33 8.881 8.881 0 005.906-1.407c.413-.269 4.208-4.036 3.318-4.385-.036-.014-1.474 2.13-1.696 2.355a8.283 8.283 0 01-2.743 1.81 11.266 11.266 0 01-7.175.653c4.491-.598 10.406-4.816 8.905-10.008 3.069 1.25 6.095 2.616 9.184 3.81zm5.28 1.77c1.922 5.333-3.578 12.702-9.314 10.617a8.624 8.624 0 004.589-2.63 8.607 8.607 0 002.187-4.813 8.123 8.123 0 01-4.498 5.444 8.157 8.157 0 01-7.07-.12c4.648-.22 10.644-5.018 9.136-10.15 1.633.618 3.286 1.188 4.97 1.651zm-7.872 19.616c-.409.036.155.273 0 0-.054.003.028.04 0 0zm10.12-13.841a6.716 6.716 0 01-7.464 5.908c4.578-.872 7.039-7.643 5.368-11.644 1.551.425 1.849.843 2.05 2.472.142 1.082.158 2.178.046 3.264zm-1.668-26.675c1.511.387 2.92 1.099 4.127 2.086a9.795 9.795 0 01-1.822 5.66 6.584 6.584 0 01-3.56 2.27 6.6 6.6 0 01-4.211-.358c4.152-.726 5.299-4.487 6.098-8.05-.836 3.742-4.477 8.817-8.97 6.863a8.843 8.843 0 003.64-2.757c.28-.374 2.35-4.535 1.833-4.66a25.308 25.308 0 01-2.782 4.585 8.16 8.16 0 01-2.699 1.755c-1.457.563-2.087.145-3.455-.415 3.886-1.218 5.001-5.922 4.966-9.512 2.268.858 4.552 1.693 6.835 2.533zM199.535 11.35a146.69 146.69 0 0017.507 7.18c6.216 2.48 12.323 5.198 18.642 7.419 5.305 1.867 11.512 3.308 15.329 7.588a6.02 6.02 0 01.579 6.232 6.206 6.206 0 01-2.253 2.628 2.547 2.547 0 01-3.059.38c3.228-1.405 4.656-8.396 1.845-10.766 1.327 1.118.691 4.805.333 6.34a5.995 5.995 0 01-1.712 3.267c-1.234 1.053-2.206.488-3.539-.027a4.549 4.549 0 002.3-3.226c.087-.361.562-3.95.102-3.941a38.67 38.67 0 01-1.407 5.235c-1.349 2.13-3.038 1.14-4.899.426a5.586 5.586 0 004.088-3.268c.23-.597.526-6.39-.268-6.258.055-.008-.241 4.846-.371 5.347a5.557 5.557 0 01-4.023 3.538c-1.594.468-4.4-1.269-5.946-1.86-2.347-.906-4.69-1.816-7.03-2.727a6.176 6.176 0 004.938-2.114c.353-.407 3.359-5.864 2.07-6.019 0 0-.548 2.337-.631 2.563a7.093 7.093 0 01-2.275 3.216 9.693 9.693 0 01-3.039 1.507 3.423 3.423 0 01-3.338-.044 7.899 7.899 0 004.547-5.344 9.903 9.903 0 01-2.712 3.357 4.5 4.5 0 01-5.376.585c-4.563-1.864-9.016-4.001-13.59-5.848-2.972-1.202-9.192-2.663-10.272-6.122a6.017 6.017 0 01.501-4.16c.15-.341 2.073-3.38 2.073-3.38-.417-.41-2.932 3.287-3.123 3.717a5.356 5.356 0 00.102 5.18c-1.587-.462-1.378-4.54-1.021-5.706a7.717 7.717 0 014.928-4.895zm-18.247 20.775a6.983 6.983 0 015.163-5.103 60.123 60.123 0 008.921 4.437c6.547 3.107 13.136 6.07 19.899 8.693 6.899 2.669 13.845 5.206 20.755 7.831 1.261.48 2.529.96 3.791 1.437a13.844 13.844 0 01-1.111 4.872 6.668 6.668 0 01-3.123 3.415 4.104 4.104 0 01-3.986-.028 7.188 7.188 0 003.024-2.771c.148-.242 1.314-3.872.656-3.669-.073.67-.207 1.333-.401 1.98a7.687 7.687 0 01-1.668 2.163 8.386 8.386 0 01-2.264 1.522c-.951.44-1.731-.138-2.67-.506a6.57 6.57 0 003.688-3.804c.17-.354 1.679-4.6 1.221-4.64a33.622 33.622 0 01-2.773 5.647 8.021 8.021 0 01-2.706 2.072c-1.073.488-2.481-.464-3.538-.883a9.714 9.714 0 003.802-2.415c.319-.344 2.17-4.58 1.362-4.538a14.947 14.947 0 01-2.006 3.74 15.776 15.776 0 01-4.888 2.51 356.385 356.385 0 01-14.265-6.12c-4.577-2.084-9.169-4.067-13.893-5.78a6.288 6.288 0 01-4.513-3.247 21.803 21.803 0 01-.833-5.078 12.95 12.95 0 00-.194 3.09 5.384 5.384 0 001.584 3.77 5.42 5.42 0 01-3.575-2.908 25.28 25.28 0 01-.821-5.3c-.833-.214.042 5.404.252 5.899a5.695 5.695 0 01-2.84-4.577c.254-1.82.789-3.588 1.586-5.242-.709-.693-2.234 4.413-2.242 4.898a6.013 6.013 0 002.315 5.188 4.341 4.341 0 01-2.97-2.35 12.135 12.135 0 01-.739-4.205zm-12.169 17.097a6.135 6.135 0 014.731-4.924c2.973-.752 6.2 1.816 8.889 2.952 6.586 2.786 13.425 4.937 19.962 7.9 6.811 3.08 13.529 6.245 20.514 8.92.893.34 1.785.683 2.683 1.018a5.312 5.312 0 01-.534 1.882 7.388 7.388 0 01-2.731 2.786c-.718.447-7.151 2.351-7.171 2.476-.187 1.528 6.174-.776 6.665-1.085a7.438 7.438 0 003.924-6c1.841.697 3.691 1.37 5.511 2.105a6.664 6.664 0 01-2.084 5.395 10.992 10.992 0 01-10.892 3.023 9.726 9.726 0 005.478-1.886 9.7 9.7 0 003.428-4.664 10.826 10.826 0 01-4.523 4.395 10.858 10.858 0 01-6.21 1.135 49.43 49.43 0 01-8.418-2.764c-3.027-1.085-6.05-2.172-9.052-3.334-6.067-2.34-11.934-5.027-17.798-7.826a12.147 12.147 0 01-5.667-4.6 34.457 34.457 0 01-1.289-7.187 18.912 18.912 0 00-.241 3.891 7.958 7.958 0 001.634 5.198 8.01 8.01 0 01-3.476-5.548 9.161 9.161 0 01-.086-3.507c.395-1.161.878-2.29 1.445-3.378-.584-.583-2.144 4.433-2.19 4.858a10.306 10.306 0 001.26 6.144 8.627 8.627 0 01-3.762-7.375zm46.349 70.71c-.506-.103-1.019-.219-1.524-.328 4.326-.394 7.414-6.118 6.67-10.09 1.595.851 1.813.826 1.35 2.668a16.009 16.009 0 01-1.738 4.116 8.232 8.232 0 01-4.758 3.634zm-5.112-1.263a4.17 4.17 0 01-1.282-.266 8.805 8.805 0 003.899-4.432 20.223 20.223 0 001.733-5.326 36.693 36.693 0 01-3.244 6.456 8.704 8.704 0 01-2.659 2.13 3.647 3.647 0 01-3.483.115 15.387 15.387 0 004.983-3.693 13.95 13.95 0 002.405-7.314 41.88 41.88 0 016.755 2.562c1.566.824.46 3.49-.176 4.882-.928 2.032-4.17 6.181-6.936 5.442a7.334 7.334 0 004.6-4.562c.205-.424 2.068-5.77 1.399-5.854a33.872 33.872 0 01-2.358 5.524 9.059 9.059 0 01-5.636 4.336zm-43.832-30.98c-.153.142-.052.105 0 0zm-3.203 1.624a4.583 4.583 0 012.345-.384 10.411 10.411 0 00-1.346 6.028 13.942 13.942 0 01-.999-5.644zm6.965 12.426l-.582-.39c.595-.06-.646-1.268-.736-1.41a6.811 6.811 0 01-1.036-3.007c.103-2.005.343-4 .72-5.972-.416-.17-1.29 4.568-1.315 5.033a6.113 6.113 0 001.976 5.1 5.767 5.767 0 01-2.897-4.121c-.008-2.401.241-4.796.743-7.143-1.036-.409-1.395 7.205-1.236 7.97a8.827 8.827 0 01-.836-6.33c.196-1.059.328-2.647 1.595-2.393 1.568.379 3.088.934 4.531 1.655 5.876 2.668 12.14 4.27 18.167 6.542 2.992 1.125 5.957 2.327 8.932 3.511 1.488.593 2.976 1.19 4.463 1.789.89.355 1.779.717 2.674 1.076 1.001.402 1.989.24 1.489 1.446a18.888 18.888 0 01-4.402 6.742 12.832 12.832 0 01-2.924 2.058c-1.964 1.001-2.858.58-4.854-.212a11.057 11.057 0 006.739-3.135c.475-.47 4.426-5.881 3.889-6.179a46.824 46.824 0 01-5.593 6.674 9.478 9.478 0 01-8.41 1.235 11.893 11.893 0 005.629-2.235c.504-.301 4.252-3.114 3.904-3.69a32.729 32.729 0 01-5.979 3.959 16.593 16.593 0 01-3.769 1.346c-1.33.296-2.357-.525-3.557-1.097a192.951 192.951 0 01-17.325-8.822zm20.323 22.317c-1.275 3.881-2.708 7.694-4.119 11.518.697-2.326 1.393-4.65 2.105-6.973.376-1.226 1.125-5.732 2.366-5.674-.113.383-.235.758-.352 1.129zm-.622-2.333c.064-.214.125-.428.189-.645.11.49.046.707-.189.645zm-8.11-4.319a57.42 57.42 0 006.028 2.974c-.437 1.281-1.828.221-2.894-.132a35.47 35.47 0 00-3.606-1.031c.182-.597.334-1.2.472-1.811zm7.879 1.19c-.69-.287-1.095-.139-.932-.959.608.198 1.221.386 1.83.561a75.915 75.915 0 01-.522 1.866c-1.447-.335-1.839-.159-1.49-1.595.094.033 1.498.285 1.114.127zm2.381-3.192c.034-.126 1.08.304 1.193.345a9.911 9.911 0 01-1.193-.345zm.783 1.365c-2.194-.325-.521 1.357 0 0-.362-.056-.082.21 0 0zm-1.082-1.538c-.509-.189-.064.195 0 0zm-.39 1.243c-.067.197-.129.396-.193.596-.254-.079-.087-.671.193-.596zm-.483.503c-.907-.291-1.945-.272-1.868-1.284.841.348 2.118.274 1.868 1.284zm.447 1.436l.856.197c-.308.964-.08 1.837-1.267 1.634.141-.61.278-1.219.411-1.831zm1.568.309c.45.058.904.063 1.354.017-.467 1.327-.311 1.701-1.799 1.655a77.84 77.84 0 00.445-1.672zm.573 2.606c-.258.996-.464.793-1.474.709.294-1.009.525-.644 1.474-.709zm1.344-4.043a4.956 4.956 0 01-1.602.183c.319-1.298 1.487.082 1.713-.784.167-.626-1.41-.509-1.341-.833a34.34 34.34 0 001.649.474c-.146.316-.287.638-.419.96zm-3.507-2.105c-.489-.148-2.246-.447-2.27-.983.295.115 2.322.76 2.27.983zm-2.329-1.007c.009.444-2.062-.69-2.432-.878-.838-.42-3.611-1.473-3.309-2.453a13.116 13.116 0 005.741 3.331zm-1.893.582c.804.449 1.895.511 1.758 1.516-.628-.235-5.323-2.521-5.679-2.071-.322.402 2.168 1.986 2.459 2.148.812.452 3.084.859 2.864 1.767a21.385 21.385 0 01-4.132-1.888c-.711-.482-1.336-1.085-2.001-1.622.144-.765.303-1.519.48-2.271 1.36.903 2.78 1.712 4.251 2.421zm1.326 3.668c-.098.37-.202.736-.312 1.102a30.697 30.697 0 01-3.619-1.299 48.931 48.931 0 00-1.738-.775c-1.225-.502-.839-.503-.611-1.664a22.303 22.303 0 006.28 2.636zm-.418 2.024c.581.217 1.174.401 1.776.55-.342 1.119-1.075.453-2.016.17.077-.238.16-.478.24-.72zm2.704.741c.228.029.448.064.67.096.037.683-.24.871-.836.563.059-.22.113-.443.166-.659zm2.322 1.348c-4.17 8.791-7.176 18.318-10.629 27.42 1.5-4.747 3.082-9.463 4.825-14.121.912-2.45 1.86-4.885 2.716-7.352.422-1.23.838-2.468 1.232-3.705.192-.626.381-1.248.574-1.874a3.489 3.489 0 001.282-.368zm-2.872-9.077a32.193 32.193 0 01-6.932-2.929c-.067.186-.142.377-.209.562.129.08.194.009.195-.222-.041.14-.091.278-.148.413-.827-.556-.985-.402-.59-1.447a249.442 249.442 0 007.684 3.623zm-7.458-1.236a11.518 11.518 0 00-.49 2.248 7.581 7.581 0 00-1.181-.787c.282-.742.556-1.482.831-2.233.259.279.54.537.84.772zm-1.972 2.28c.366.441.786.835 1.249 1.173-.129.669.05 1.456-.742 1.275.891.205-2.191 7.182-2.523 8.031-1.563 3.978-3.12 7.957-4.673 11.938a9249.667 9249.667 0 00-9.041 23.311c-6.056 15.641-12.115 31.279-18.177 46.913-12.1 31.233-24.192 62.479-36.276 93.737a86021.74 86021.74 0 00-36.171 93.584 28834.663 28834.663 0 01-18.068 46.695c-2.988 7.689-6.029 15.365-8.853 23.123-1.336 3.669-2.673 7.342-4.17 10.956a111.61 111.61 0 01-2.365 5.321c-.76 1.579 1.195 2.128 2.549 3.066a20.273 20.273 0 006.106 3.157c-.441 1.167-6.347-2.396-7.44-3.289a7.79 7.79 0 01-2.31-2.644c-.719-1.513.228-2.851.789-4.271 3.03-7.715 6.094-15.407 9.155-23.117 6.165-15.522 12.235-31.084 18.304-46.64 12.221-31.341 24.39-62.706 36.506-94.095 24.219-62.591 48.566-125.138 72.278-187.93 1.299-3.428 2.589-6.859 3.873-10.294zM54.311 486.384c-.595.054-1.194.061-1.79.021.514-1.267.835-.81 2.058-.764-.084.246-.175.493-.268.743zm-1.98.006a14.2 14.2 0 01-2.326-.381c.555-1.4 1.332-.657 2.66-.511-.11.296-.222.598-.334.892zm-1.796.605c1.75.49 3.599.517 5.363.08a3.211 3.211 0 01-3.232 2.289c.373-.123 3.05-1.398 2.766-1.889-.16-.272-2.263.984-2.526 1.1a5.178 5.178 0 01-3.933.058c.4-.991 1.368-.323 2.318-.188a.326.326 0 00.15-.028.335.335 0 00.198-.379c-.077-.442-1.771-.715-2.103-.831.07-.569.407-.646.999-.212zm-9.799-3.86a16.545 16.545 0 008.438 4.89c-.857 2.249-7.61-3.673-8.438-4.89zm-1.784-2.92c.353-.033.156.72.227 1.061a6.364 6.364 0 01-.227-1.061zm17.352 5.812c-.62.166-1.25.282-1.888.349.406-1.083 1.034-.635 2.053-.797-.054.153-.108.303-.165.448zM136.67 271.04c-23.683 62.825-47.091 125.762-70.545 188.677-1.627 4.372-3.268 8.742-4.888 13.113-.8 2.15-1.594 4.305-2.396 6.456a428.873 428.873 0 01-1.377 3.682c-.62 1.655-.664 1.969-2.492 2.111 6.321-14.686 11.564-29.923 17.184-44.891a31563.825 31563.825 0 0117.683-46.943 46833.19 46833.19 0 0035.45-94.473c2.79-7.45 33.399-88.073 32.582-88.392.503.196-64.562 171.862-70.451 187.502l-16.651 44.229c-2.825 7.534-5.644 15.067-8.458 22.601a9361.84 9361.84 0 00-4.195 11.277c-.67 1.813-1.335 3.639-2.001 5.464-.335.908-.663 1.819-.994 2.726-.463 1.263-.82.983-2.07.912 12.432-30.913 23.726-62.3 35.408-93.502a42578.728 42578.728 0 0035.229-94.355c3.668-9.861 44.087-117.282 43.59-117.476-.311-.122-64.841 171.798-70.692 187.478-7.534 20.204-15.065 40.416-22.595 60.636a24681.39 24681.39 0 00-11.247 30.291c-1.83 4.945-3.634 9.903-5.454 14.856-.915 2.484-1.822 4.954-2.739 7.431-.458 1.233-.916 2.47-1.386 3.706-.513 1.376-1.36.887-2.665.61 24.627-62.303 47.496-125.332 70.852-188.108 3.63-9.772 43.623-116.462 43.222-116.62-.202-.078-64.91 171.824-70.778 187.497-7.56 20.198-15.148 40.388-22.658 60.611-3.737 10.072-7.486 20.153-11.127 30.259-1.816 5.027-3.627 10.052-5.433 15.073-.913 2.506-1.831 5.01-2.754 7.512-.472 1.26-.932 2.506-1.41 3.757a17.388 17.388 0 00-2.396-.625c-.122.333 2.03.896 2.271.959-.506 1.351-.872.81-2.073.374a24.3 24.3 0 01-2.533-1.099 47.584 47.584 0 01-4.768-2.805c1.774-3.595 3.09-7.395 4.513-11.135 2.921-7.678 6.017-15.305 9.01-22.954a29491.352 29491.352 0 0018.238-46.666 36047.533 36047.533 0 0036.427-93.833 67629.276 67629.276 0 0036.387-94.18 245171.1 245171.1 0 0118.112-47.005c3.012-7.834 6.029-15.669 9.051-23.504 2.912-7.563 6.237-15.119 8.684-22.848a24.7 24.7 0 005.887 2.807c-3.48 8.982-6.856 17.987-10.453 26.931-.986 2.452-11.169 27.735-9.866 28.256-.301-.122 10.021-26.555 11.013-29.057 1.942-4.86 3.917-9.705 5.639-14.647.843-2.414 1.569-4.865 2.384-7.293.364-1.111.787-2.205 1.191-3.305.468-1.254 1.028-.635 2.183-.404-2.995 9.194-7.092 18.02-10.596 27.025-3.52 9.051-6.81 18.616-10.343 27.405 3.67-9.165 7.371-18.318 10.993-27.505 1.815-4.609 3.636-9.217 5.489-13.809.478-1.179 4.698-13.068 4.887-13.04a347.994 347.994 0 01-13.425 39.347c-1.35 3.448-15.921 40.51-15.478 40.684.662.259 20.455-51.296 22.102-56.151-2.897 10.432-6.966 20.421-10.804 30.542a19875.37 19875.37 0 00-11.734 30.953 71072.486 71072.486 0 00-23.736 62.875zm62.251-155.788a13.162 13.162 0 008.618-10.756 75.956 75.956 0 004.97 1.781 18.77 18.77 0 01-3.593 7.343c-1.474 1.459-3.953 3.636-6.003 2.983a9.486 9.486 0 004.262-4.06c.286-.457 2.854-5.433 2.381-5.618.04.015-3.082 5.295-3.514 5.809a11.964 11.964 0 01-2.574 2.367c-1.783 1.214-2.589.848-4.547.151zm18.478 5.079c-.104-.019-.205-.042-.309-.061a.693.693 0 01.92-.102l-.611.163zm6.528-3.482a3.916 3.916 0 01-2.89 2.637c.443-.466 3.292-6.16 2.331-6.123a29.573 29.573 0 01-1.805 3.839c-.813 1.241-1.553 2.535-3.193 2.445a10.49 10.49 0 004-9.236c2.75 1.315 2.497 3.7 1.557 6.438zm9.953-10.682a7.844 7.844 0 004.152-4.556c.172-.441 1.27-5.772.391-5.645.053-.011-.115 2.78-.175 3.067a8.986 8.986 0 01-1.857 3.851 9.595 9.595 0 01-2.771 2.299c-1.561.855-2.51.241-4.134-.284a6.997 6.997 0 003.872-2.995c.27-.419 2.214-5.14 1.565-5.209.045.011-.948 2.91-1.082 3.184a10.19 10.19 0 01-2.502 3.214c-2.062 1.757-4.364 1.004-6.63.283a7.72 7.72 0 006.703-2.941c.498-.603 3.229-7.174 1.974-7.315a24.353 24.353 0 01-2.954 6.931 7.951 7.951 0 01-3.409 2.305c-.529.173-3.423.645-3.35.691-.392-.127-.79-.25-1.181-.375 4.798-.101 6.353-5.405 8.364-8.474a21.4 21.4 0 01-5.353 6.22 8.634 8.634 0 01-3.812 1.462 8.463 8.463 0 01-4.013-.78 8.227 8.227 0 005.793-2.368c.416-.387 4.128-5.243 3.438-5.51 0 0-1.841 2.79-2.083 3.067a12.32 12.32 0 01-3.708 2.837 18.417 18.417 0 01-4.026 1.415c-1.381.326-3.911-1.046-5.443-1.632 4.802-.208 8.2-5.19 9.203-9.452a21.709 21.709 0 01-1.982 2.857 19.017 19.017 0 01-2.453 2.983c-1.647 1.588-4.806 3.616-7.139 2.696.616-.237 6.332-4.136 5.249-4.935-.075-.056-2.382 2.447-2.68 2.676-1.198.954-3.116 2.045-4.588 1.45a13.827 13.827 0 007.613-9.07 20.45 20.45 0 01-3.64 5.42 13.909 13.909 0 01-2.726 2.43 2.75 2.75 0 01-3.333.366 5.314 5.314 0 003.003-1.557c.217-.217 2.013-3.148 1.369-3.198-.455.87-.97 1.707-1.542 2.506a6.838 6.838 0 01-3.812 1.71c-1.169.149-3.381-1.297-4.51-1.778-1.822-.767-3.652-1.536-5.482-2.297-7.311-3.056-14.654-6.052-22.051-8.875-4.734-1.807-11.757-7.364-10.988-13.193a8.748 8.748 0 014.214-6.406 49.434 49.434 0 009.806 5.265 1139.735 1139.735 0 0042.875 17.814c3.284 1.285 6.564 2.583 9.861 3.837 3.128 1.19 6.451 1.96 9.503 3.33a3.837 3.837 0 012.827 3.22 7.723 7.723 0 01-.474 4.822c-1.262 2.571-2.583 5.116-5.892 4.637z" fill="#000"/><path d="M243.755 44.863c-.015 1.727-1.281 4.171-2.318 4.162-.625-.005 1.46-1.861 1.474-3.589-.252-1.77-23.552-10.277-23.426-10.25 2.864.598 25.447 6.244 24.27 9.677zM242.748 67.12c-.198 1.413-1.743 2.521-2.591 2.403-1.171-.163 1.377-1.938 1.574-3.352.198-1.414-.054-3.377.052-3.363.512.072 1.162 2.897.965 4.311zM236.721 90.543c-.606 2.482-3.557 4.176-5.046 3.813-2.055-.5 2.801-3.203 3.407-5.685.606-2.482.511-6.023.696-5.977.899.219 1.548 5.366.943 7.849zM222.242 111.276c-1.621 2.496-4.143 3.003-6.093 1.736-1.177-.764 3.827-1.111 5.449-3.607 1.622-2.496 1.358-5.426 1.6-5.268 1.177.765.666 4.643-.956 7.139z" fill="#fff"/><path d="M182.459 109.478l3.88 1.391-39.636 101.9-38.725 102.191-65.141 172.795-3.99-5.838.034-1.644L182.46 109.478z" fill="#000"/></svg>