<svg width="134" height="132" fill="none" xmlns="http://www.w3.org/2000/svg"><path fill-rule="evenodd" clip-rule="evenodd" d="M37.021 93.481c-.012.004-.04.028-.056.04.052-.02.092-.052.056-.04z" fill="#181918"/><path fill-rule="evenodd" clip-rule="evenodd" d="M44.306 81.394a26.073 26.073 0 01-4.577-5.126c-1.255-1.848-2.204-3.815-2.798-5.779-.613-1.956-.863-3.904-.788-5.692a13.822 13.822 0 011.012-4.74c.557-1.33 1.2-2.425 1.835-3.237.291-.425.609-.764.874-1.066.254-.305.5-.54.699-.73.396-.384.605-.589.605-.589l-.568.623c-.187.2-.419.45-.654.77-.24.318-.534.664-.807 1.096-.59.831-1.173 1.938-1.655 3.26a14.354 14.354 0 00-.811 4.627c-.026 1.725.27 3.596.912 5.47.624 1.877 1.606 3.74 2.824 5.525a25.24 25.24 0 004.473 4.922c1.73 1.468 3.691 2.723 5.802 3.62a23.337 23.337 0 006.617 1.752c1.129.123 2.253.149 3.367.112 1.106-.064 2.2-.19 3.258-.41 2.107-.447 4.095-1.181 5.829-2.124 1.745-.965 3.243-2.12 4.528-3.297 1.274-1.18 2.328-2.392 3.094-3.577.762-1.184 1.233-2.34 1.408-3.338.146-.998.086-1.81-.044-2.34-.15-.525-.228-.808-.228-.808s.097.28.28.797c.157.526.287 1.342.175 2.377-.134 1.032-.564 2.243-1.292 3.495-.725 1.252-1.749 2.545-3.027 3.782-1.274 1.233-2.787 2.466-4.547 3.505a20.704 20.704 0 01-6.008 2.329c-1.095.238-2.23.38-3.385.458a25.044 25.044 0 01-3.501-.082 24.315 24.315 0 01-6.897-1.762c-2.205-.965-4.226-2.287-6.005-3.823zm-9.875 26.259c.082.179.097.369.105.533.03.164-.03.316-.049.439-.01.131-.074.231-.112.31-.086.164-.138.242-.138.242s-.023-.105-.049-.268c-.01-.082-.022-.179-.063-.284-.041-.104-.049-.219-.12-.327-.06-.112-.116-.224-.202-.325-.067-.115-.19-.197-.28-.298-.116-.082-.228-.175-.362-.238-.127-.078-.273-.119-.411-.179-.146-.033-.292-.082-.441-.089-.146-.026-.288-.015-.433-.015-.131.033-.28.03-.4.082-.131.033-.243.093-.351.152-.124.049-.187.127-.284.187-.09.052-.161.141-.22.205-.117.126-.195.193-.195.193s.004-.1.026-.275c.015-.086.015-.187.078-.31.06-.111.109-.283.225-.394.104-.131.22-.28.392-.377.157-.126.351-.205.557-.275.209-.041.433-.108.657-.086.228-.008.452.052.673.104.213.086.43.164.613.302.198.112.34.294.49.447.126.179.242.35.294.544zm19.93-80.158c-.314.626-.71 1.32-1.203 2.03a21.859 21.859 0 01-1.723 2.206 25.68 25.68 0 01-2.204 2.22c-.822.709-1.681 1.435-2.634 2.065a23.192 23.192 0 01-2.997 1.758c-1.046.518-2.16.913-3.284 1.204a9.683 9.683 0 01-3.419.28c-1.124-.109-2.204-.478-3.056-1.089-.837-.622-1.483-1.386-1.887-2.172a8.797 8.797 0 01-.833-2.235c-.105-.336-.142-.667-.19-.969-.046-.298-.087-.574-.124-.823l-.078-1.569.257 1.55c.06.239.127.503.198.794.075.287.142.6.273.92a9.44 9.44 0 00.964 2.056c.116.168.232.343.355.518.12.18.288.32.43.485.28.339.661.588 1.027.864.774.503 1.73.764 2.735.846 1.009.074 2.074-.056 3.124-.34 1.05-.282 2.1-.662 3.093-1.17 2.022-.96 3.875-2.264 5.5-3.602.796-.693 1.562-1.367 2.231-2.071.68-.69 1.274-1.386 1.8-2.046.524-.667.972-1.3 1.338-1.881.355-.589.658-1.114.852-1.569.217-.447.355-.812.441-1.065.094-.25.142-.384.142-.384s-.03.138-.093.399a6.758 6.758 0 01-.322 1.121c-.149.48-.407 1.036-.713 1.67zM26.32 76.235c-.09.2-.213.439-.389.689-.168.257-.351.558-.609.838-.123.145-.25.298-.385.454l-.47.436c-.31.317-.707.567-1.103.846-.422.235-.848.51-1.33.678-.463.212-.971.34-1.468.477-.508.093-1.017.183-1.525.201-.254.03-.504.03-.755.015-.246-.011-.493-.007-.732-.033-.474-.056-.934-.112-1.36-.228a7.838 7.838 0 01-1.177-.35c-.362-.112-.676-.276-.952-.406a5.017 5.017 0 01-.695-.373c-.374-.227-.58-.365-.58-.365s.24.067.658.194c.205.07.46.145.747.212.292.068.605.16.968.217.359.07.743.137 1.154.178.408.067.841.06 1.286.093.444-.007.908-.003 1.367-.06.467-.029.927-.122 1.386-.215.456-.12.92-.22 1.342-.403.44-.152.844-.357 1.244-.547.37-.239.766-.421 1.084-.678.164-.123.325-.239.482-.35.145-.127.287-.25.422-.37.284-.227.504-.473.713-.685.213-.209.389-.398.52-.57l.44-.518s-.097.224-.283.622zm-11.792-8.108c-.486.526-.9 1.088-1.267 1.621-.717 1.077-1.304 2.008-1.722 2.645-.422.641-.691.988-.691.988l.53-1.077c.351-.678.78-1.68 1.424-2.84.325-.577.698-1.195 1.199-1.802.493-.593 1.128-1.211 2.003-1.54.874-.334 1.909-.267 2.772.08.87.342 1.64.86 2.343 1.426.358.29.661.57 1.009.92.298.317.597.615.87 1.017.56.746.938 1.58 1.102 2.456.172.864.112 1.758-.172 2.522a4.75 4.75 0 01-1.296 1.837c-.28.2-.538.413-.818.555-.284.123-.535.283-.804.354-.261.078-.5.167-.728.22l-.636.111c-.38.075-.69.045-.892.064l-.314.01.306-.063c.202-.048.5-.078.863-.19l.598-.182c.213-.075.43-.19.665-.294a5.745 5.745 0 001.39-.984c.422-.45.78-1.01.994-1.662.198-.659.194-1.397.03-2.127-.071-.369-.236-.719-.385-1.077-.202-.331-.378-.696-.628-.994-.205-.313-.523-.626-.822-.94-.273-.264-.613-.57-.934-.826-.646-.537-1.341-1.01-2.07-1.308-.732-.287-1.483-.376-2.163-.145-.676.23-1.267.704-1.756 1.225zm20.83-43.486a35.057 35.057 0 011.748-1.814 18.785 18.785 0 012.16-1.844c.803-.574 1.67-1.144 2.634-1.569.96-.432 2-.767 3.086-.901a7.644 7.644 0 013.244.313c.254.1.504.204.754.305.243.112.464.257.695.387l.172.101c.041.023.03.011.112.067l.071.06.292.227c.194.13.388.332.575.537.743.797 1.12 1.765 1.274 2.686.157.924.108 1.8.004 2.582-.24 1.568-.706 2.79-1.028 3.636-.336.842-.56 1.304-.56 1.304s.138-.496.385-1.364c.243-.864.534-2.123.661-3.632.045-.753.026-1.573-.157-2.388-.175-.813-.572-1.625-1.17-2.236-.616-.633-1.475-1.103-2.364-1.408a6.803 6.803 0 00-2.851-.239c-1.947.224-3.789 1.152-5.347 2.21a21.39 21.39 0 00-2.167 1.684 63.39 63.39 0 00-1.835 1.673c-1.105 1.065-2.006 1.99-2.47 2.75-.224.372-.358.718-.25.93.112.202.284.22.27.228.007-.015-.15.007-.315-.201-.149-.228-.063-.637.135-1.047.411-.827 1.2-1.882 2.242-3.037zm6.688 33.777c.134-.145.303-.32.497-.525.194-.212.426-.443.714-.67.28-.24.59-.504.93-.79.355-.261.758-.526 1.18-.82.419-.306.923-.53 1.424-.82.508-.283 1.095-.465 1.681-.719 1.207-.398 2.556-.76 4.02-.864.733-.097 1.484-.067 2.257-.075.385.011.77.06 1.162.093l.59.056.591.1c1.58.236 3.176.701 4.734 1.305.389.16.781.31 1.166.477.385.182.77.365 1.154.551.393.175.744.388 1.114.585.355.201.75.395 1.102.64.714.474 1.442.921 2.081 1.491.688.514 1.263 1.148 1.853 1.755 1.103 1.289 1.992 2.738 2.522 4.273.505 1.539.71 3.104.654 4.572-.078 1.464-.317 2.835-.698 4.046-.183.607-.36 1.188-.598 1.714-.22.532-.43 1.035-.677 1.486-.444.924-.915 1.684-1.296 2.31-.374.63-.74 1.073-.957 1.4l-.347.493s.105-.183.303-.518c.19-.343.508-.824.844-1.472.34-.644.755-1.42 1.136-2.358.213-.458.385-.965.568-1.502.086-.268.198-.532.28-.82l.232-.875c.329-1.188.5-2.518.523-3.915 0-1.401-.266-2.858-.748-4.285-.523-1.423-1.39-2.738-2.42-3.945-.565-.567-1.107-1.16-1.76-1.64-.61-.536-1.312-.961-1.992-1.404-.332-.239-.691-.414-1.061-.626-.366-.198-.729-.421-1.095-.585l-1.095-.533c-.37-.164-.75-.31-1.124-.466-1.502-.585-3.023-1.088-4.54-1.333-1.51-.272-3-.403-4.405-.306-1.412.041-2.72.343-3.904.678-1.17.395-2.212.846-3.09 1.334-.434.26-.845.5-1.211.734l-.968.715a7.38 7.38 0 00-.75.615c-.214.19-.393.35-.539.477l-.452.398s.146-.149.415-.432zm-6.004-44.734c-.161.272-.367.559-.59.88-.247.297-.498.636-.804.957-.306.32-.62.674-.983.987a15.98 15.98 0 01-1.124.976c-.389.328-.815.615-1.226.928-.852.574-1.719 1.129-2.59 1.557-.421.235-.855.418-1.262.593-.4.182-.807.301-1.17.436-.373.111-.72.2-1.027.268-.314.052-.587.093-.81.12-.457.006-.707 0-.707 0s.243-.068.673-.183c.205-.079.452-.172.74-.284l.926-.424c.329-.183.695-.354 1.069-.57a29.1 29.1 0 001.162-.682c.407-.231.803-.51 1.221-.768.415-.26.822-.555 1.233-.834.404-.294.822-.566 1.207-.876.389-.298.781-.58 1.14-.879.366-.29.706-.589 1.035-.864.321-.28.609-.563.889-.813.25-.271.504-.51.706-.733.183-.235.366-.429.5-.604l.397-.581-.228.663c-.09.201-.22.447-.377.73zM17.827 42.502a5.942 5.942 0 01-.912.947c-.328.264-.657.48-.96.625a3.76 3.76 0 01-.755.291c-.19.052-.302.07-.302.07s.074-.089.205-.23c.127-.134.306-.332.527-.566.213-.228.448-.5.702-.787.243-.29.494-.603.74-.92.24-.324.479-.648.691-.961.206-.32.404-.622.568-.89l.4-.66c.101-.164.164-.257.164-.257s.012.112.02.305c.003.187-.012.481-.08.805a4.851 4.851 0 01-.343 1.092 5.887 5.887 0 01-.665 1.136zm-2.014-4.214c-.269.213-.527.451-.8.686-.268.235-.53.484-.777.741-.25.254-.497.514-.706.786-.213.276-.422.54-.583.824-.164.28-.295.559-.392.83a3.669 3.669 0 00-.172.802c-.011.253 0 .492.034.708.04.212.09.398.145.551.045.153.109.268.139.35l.052.127-.097-.097c-.056-.067-.168-.149-.258-.294a2.411 2.411 0 01-.325-.53c-.1-.22-.19-.487-.232-.793a3.102 3.102 0 01.03-.995c.064-.342.168-.708.34-1.043.31-.697.815-1.319 1.349-1.885a11.549 11.549 0 011.76-1.434c.598-.4 1.188-.72 1.711-.954 1.043-.48 1.805-.615 1.805-.615s-.635.425-1.532 1.08c-.445.332-.96.723-1.49 1.155zm109.475 53.676c1.352-3.077 2.238-6.237 3.269-9.418.329-1.014.826-1.93 1.297-2.858.597-.108 1.102-.54 1.143-1.352.138-2.783 1.741-5.026 1.988-7.712.198-2.191-1.588-3.99-1.383-6.077.112-1.14-.788-1.807-1.681-1.848.179-1.166.441-2.16.265-3.591a62.945 62.945 0 00-2.141-10.373 44.68 44.68 0 00-.493-1.576c.807-.287 1.457-1.11 1.113-2.153-.721-2.206-1.307-4.441-2.54-6.43-.796-1.282-1.599-2.549-2.377-3.834a5 5 0 00-.224-.652c-.194-.444-.467-.846-.769-1.226-.098-.127-.206-.235-.311-.347-.157-.275-.317-.551-.47-.834-.411-.764-1.177-1.006-1.869-.91a9.41 9.41 0 01-1.169-.86c-.968-.86-1.681-2.217-2.503-3.226a62.672 62.672 0 00-6.774-7.116 62.787 62.787 0 00-3.348-2.787c.097-.51-.056-1.058-.605-1.475-2.044-1.558-4.088-3.111-6.135-4.669-.71-.54-1.484-.406-2.03.026-.705-.257-1.415-.51-2.121-.763l.112.096a61.466 61.466 0 00-2.881-1.352 63.788 63.788 0 00-17.677-4.836c-.022-.026-.045-.048-.067-.074-.1-.12-.206-.243-.31-.362.063-.473-.116-.968-.661-1.33-4.04-2.675-9.764-1.356-14.068.067-.889.295-1.162 1.05-1.012 1.755A63.683 63.683 0 0042.465 8.33c-1.402.589-2.754 1.3-4.122 1.938a1.704 1.704 0 00-.758-.13c-5.96.271-11.908 4.876-15.38 9.485-.417.555-.425 1.151-.2 1.643-1.5 2.101-2.911 4.27-4.54 6.27-3.412 4.192-6.192 8.692-8.37 13.651a63.425 63.425 0 00-3.635 10.83c-.755-.003-1.555.407-1.805 1.32C2.437 57.758-.078 63.052 1.51 67.62c.972 2.79 1.779 4.422 1.66 7.507-.075 1.915.055 3.42 1.199 5.015.287.398.65.596 1.023.655 3.255 14.013 11.247 26.795 23.02 35.845.729 3.059 3.83 4.057 6.3 5.868 2.802 2.053 5.148 4.18 8.866 3.711.463-.06.803-.265 1.035-.544a63.311 63.311 0 0026.73 4.024c.164.104.35.19.571.238 3.404.756 6.468.872 9.756-.443 1.961-.787 3.826-1.837 5.653-2.947a63.77 63.77 0 0018.618-9.888c3.893-.969 7.088-2.929 9.845-5.932 1.999-2.175 4.163-4.891 3.262-7.712a63.635 63.635 0 006.24-11.054z" fill="#000"/><path d="M44.306 81.394l.131-.15v-.001l-.13.151zM36.931 70.49l.191-.058v-.001l-.191.06zm-.788-5.692l.2.008v-.001l-.2-.007zm1.012-4.74l-.184-.077-.001.002.185.076zm1.835-3.237l.157.123.008-.01-.165-.113zm.874-1.066l.15.133.004-.005-.154-.128zm.699-.73l.138.145v-.001l-.138-.144zm.605-.589l.147.136-.287-.278.14.142zm-.568.623l.146.136.002-.002-.148-.134zm-.654.77l.16.121.001-.002-.16-.118zm-.807 1.096l.163.116.006-.009-.169-.107zm-1.655 3.26l-.188-.068.188.068zm-.811 4.627l.2.003-.2-.002zm.912 5.47l.19-.063-.001-.002-.19.065zm2.824 5.525l-.165.113.165-.113zm4.473 4.922l.13-.153h-.001l-.13.153zm5.802 3.62l.08-.183h-.001l-.079.184zm6.617 1.752l-.022.199.022-.199zm3.367.112l.007.2h.004l-.011-.2zm3.258-.41l.04.196h.001l-.041-.196zm5.829-2.124l.095.176h.001l-.096-.176zm4.528-3.297l.135.148.001-.001-.136-.147zm3.094-3.577l.168.109-.168-.109zm1.408-3.338l.197.035.001-.006-.198-.029zm-.044-2.34l.194-.047-.002-.007-.193.054zm-.228-.808l.188-.066-.381.12.193-.054zm.28.797l.192-.057-.004-.01-.188.067zm.175 2.377l.199.026v-.004l-.199-.022zm-1.292 3.495l-.173-.1.173.1zm-3.027 3.782l.14.143-.14-.143zm-4.547 3.505l.1.174.002-.001-.102-.173zm-6.008 2.329l-.042-.196.042.196zm-3.385.458l.008.2h.005l-.013-.2zm-3.501-.082l-.02.2.02-.2zm-6.897-1.762l-.08.183.002.001.078-.184zm-15.88 22.436l-.193.052.005.016.006.016.182-.084zm.105.533l-.2.009v.013l.003.014.197-.036zm-.049.439l-.198-.03-.001.013.2.017zm-.112.31l.177.093.004-.007-.18-.086zm-.138.242l-.196.042.1.462.262-.393-.166-.111zm-.049-.268l-.198.027v.004l.198-.031zm-.183-.611l-.176.094.004.008.005.007.167-.109zm-.202-.325l-.172.101.009.016.011.013.152-.13zm-.28-.298l.15-.133-.016-.017-.018-.013-.116.163zm-.362-.238l-.105.17.01.006.01.005.085-.181zm-.411-.179l.08-.184-.018-.007-.017-.004-.045.195zm-.441-.089l-.035.197.012.002h.013l.01-.199zm-.433-.015v-.2h-.026l-.024.006.05.194zm-.4.082l.05.193.015-.004.015-.006-.08-.183zm-.351.152l.073.187.012-.005.011-.006-.096-.176zm-.284.187l.1.173.004-.003-.104-.17zm-.22.205l-.146-.138-.002.003.147.135zm-.195.193l-.2-.007-.017.456.347-.297-.13-.152zm.026-.275l-.197-.035-.001.009.198.026zm.078-.31l-.176-.094-.001.003.177.091zm.225-.394l.139.143.009-.008.008-.01-.156-.125zm.392-.377l.098.174.015-.008.013-.01-.126-.156zm.557-.275l-.039-.197-.013.003-.013.004.065.19zm.657-.086l-.02.199.014.001h.013l-.007-.2zm.673.104l.075-.185-.015-.006-.014-.003-.046.194zm.613.302l-.12.16.01.008.011.006.099-.174zm.49.447l.162-.116-.009-.013-.011-.011-.143.14zM54.36 27.495l.179.09v-.003l-.18-.087zm-2.926 4.236l-.148-.134-.003.003.151.131zm-2.204 2.22l.13.152.004-.003-.134-.148zm-2.634 2.065l-.11-.167-.004.002.114.165zM43.6 37.774l-.088-.18v.001l.088.18zm-3.284 1.204l-.05-.194h-.001l.051.194zm-3.419.28l.02-.2-.02.2zm-3.056-1.089l-.12.16.003.003.117-.163zm-1.887-2.172l.178-.091-.002-.005-.176.096zm-.833-2.235l.195-.046-.002-.007-.002-.007-.191.06zm-.19-.969l-.198.03v.002l.197-.032zm-.124-.823l-.2.01v.01l.002.01.198-.03zm-.078-1.569l.197-.032-.397.043.2-.01zm.257 1.55l-.197.033.001.008.002.008.194-.049zm.198.794l-.194.047v.003l.194-.05zm.273.92l.19-.064-.005-.012-.185.076zm.964 2.056l-.17.108.006.006.164-.114zm.355.518l.166-.11-.002-.005-.164.115zm.43.485l.154-.128-.003-.003-.151.13zm1.027.864l-.12.16.011.008.11-.168zm2.735.846l-.016.2h.002l.014-.2zm6.217-1.51l-.085-.18-.005.003.09.178zm5.5-3.602l.127.155.005-.004-.132-.15zm2.231-2.071l-.142-.14-.003.002.145.138zm1.8-2.046l.157.125.001-.001-.157-.124zm1.338-1.881l.17.106.002-.003-.172-.103zm.852-1.569l-.18-.087-.004.009.184.078zm.441-1.065l-.187-.07-.002.005.19.065zm.142-.384l.196.042-.384-.11.188.068zm-.093.399l-.195-.048v.006l.195.042zm-.322 1.121l-.186-.073-.005.014.191.06zM26.32 76.234l-.181-.084-.002.003.183.081zm-.389.69l-.164-.116-.003.006.167.11zm-.609.838l-.147-.136-.006.006.153.13zm-.385.454l.136.147.008-.007.008-.01-.152-.13zm-.47.436l-.137-.146-.006.007.142.14zm-1.103.846l.097.175.01-.005.009-.007-.116-.163zm-1.33.678l-.066-.189-.009.003-.008.004.083.182zm-1.468.477l.036.197.008-.002.01-.002-.054-.193zm-1.525.201l-.007-.2h-.008l-.008.002.023.198zm-.755.015l.012-.2h-.002l-.01.2zm-.732-.033l-.023.198h.002l.021-.198zm-1.36-.228l.053-.193-.014-.003-.039.196zm-1.177-.35l.07-.188-.01-.003-.06.191zm-.952-.406l.085-.18-.006-.004-.08.184zm-.695-.373l.106-.169-.003-.001-.104.17zm-.58-.365l.054-.192-.165.359.111-.167zm.658.194l.065-.19-.007-.001-.058.191zm.747.212l-.045.195.045-.195zm.968.217l.039-.197-.009-.001-.03.198zm1.154.178l.033-.197-.013-.002-.02.2zm1.286.093l-.015.2h.019l-.004-.2zm1.367-.06l-.012-.199-.012.001.024.199zm1.386-.215l.04.196.011-.003-.05-.193zm1.342-.403l-.066-.189-.007.003-.007.003.08.183zm1.244-.547l.086.18.012-.005.01-.007-.108-.168zm1.084-.678l-.12-.16-.006.004.126.156zm.482-.35l.116.162.007-.005.008-.007-.131-.15zm.422-.37l-.125-.156-.008.007.133.15zm.713-.685l-.14-.143-.002.003.142.14zm.52-.57L26.01 76l-.006.009.159.121zm.44-.518l.184.08-.335-.21.152.13zm-12.075-7.485l-.146-.136h-.001l.147.136zm-1.267 1.621l-.165-.113-.001.002.166.111zm-1.722 2.645l.167.11-.167-.11zm-.691.988l-.18-.09.337.212-.158-.122zm.53-1.077l-.178-.092-.002.004.18.088zm1.424-2.84l-.175-.097.175.098zM14 67.663l-.154-.128.154.128zm2.003-1.54l.07.188h.001l-.071-.187zm2.772.08l-.075.185h.002l.073-.186zm2.343 1.426l.126-.155-.126.155zm1.009.92l.145-.137-.004-.004-.141.141zm.87 1.017l-.166.113.006.008.16-.12zm1.102 2.456l-.196.037v.002l.196-.04zm-.172 2.522l.187.072v-.002l-.187-.07zm-1.296 1.837l.116.162.009-.006.007-.006-.132-.15zm-.818.555l.08.184.01-.006-.09-.178zm-.804.354l-.05-.194-.007.002.057.192zm-.728.22l.035.197.01-.002-.045-.195zm-.636.111l-.034-.197-.004.001.038.196zm-.892.064l.007.2.01-.001-.017-.2zm-.314.01l-.042-.195.049.396-.007-.2zm.306-.063l.04.197.007-.002-.047-.194zm.863-.19l.06.192-.06-.191zm.598-.182l.058.192.008-.003-.066-.189zm.665-.294l.081.183.007-.004-.088-.18zm1.39-.984l.137.146.009-.01-.146-.136zm.994-1.662l.19.063.001-.005-.191-.058zm.03-2.127l-.197.038.002.006.195-.044zm-.385-1.077l.184-.077-.005-.014-.008-.013-.171.104zm-.628-.994l-.167.11.006.01.008.008.153-.128zm-.822-.94l.145-.138-.006-.005-.139.144zm-.934-.826l-.128.153.003.003.125-.156zm-2.07-1.308l.076-.185-.003-.001-.073.186zm-2.163-.145l-.064-.19.064.19zm19.074-42.26l.148.133-.148-.134zm1.748-1.815l.14.144.002-.002-.142-.142zm2.16-1.844l-.116-.163-.002.001.118.162zm2.634-1.569l.08.183h.002l-.082-.183zm3.086-.901l-.023-.199h-.001l.024.199zm3.244.313l.073-.187-.011-.003-.063.19zm.754.305l.084-.182-.01-.004-.074.186zm.695.387l.101-.172-.003-.002-.098.174zm.172.101l-.101.173.005.003.096-.176zm.112.067l.129-.153-.008-.007-.008-.005-.113.165zm.071.06l-.128.153.005.005.123-.158zm.292.227l-.123.158.005.004.006.004.112-.166zm.575.537l-.148.134.002.002.146-.136zm1.274 2.686l-.197.033.197-.033zm.004 2.582l.198.03v-.004l-.198-.026zm-1.028 3.636l.186.074.001-.003-.187-.071zm-.56 1.304l-.193-.054.373.141-.18-.087zm.385-1.364l.192.055-.192-.055zm.661-3.632l.2.017v-.005l-.2-.012zm-.157-2.388l-.195.042v.001l.195-.043zm-1.17-2.236l-.143.14.144-.14zm-2.364-1.408l.065-.19-.006-.001-.06.19zm-2.851-.239l.023.2.001-.001-.024-.198zm-5.347 2.21l-.112-.166-.002.001.114.165zm-2.167 1.684l.132.15.002-.001-.134-.15zm-1.835 1.673l-.138-.145.138.145zm-2.47 2.75l-.17-.105v.001l.17.103zm-.25.93l-.178.091.004.007.174-.097zm.27.228l-.18-.09-.268.537.537-.268-.09-.18zm-.315-.201l-.167.11.005.007.005.007.157-.124zm.135-1.047l-.18-.09v.003l.18.087zm8.93 30.74l.145.138.002-.002-.147-.136zm.497-.525l.145.138.002-.003-.147-.135zm.714-.67l.123.156.006-.004-.13-.153zm.93-.79l-.119-.162-.01.009.129.152zm1.18-.82l.115.164.003-.003-.117-.161zm1.424-.82l-.097-.175-.003.002.1.173zm1.681-.719l-.062-.19-.009.003-.008.004.08.183zm4.02-.864l.015.2.012-.002-.026-.198zm2.257-.075l.006-.2h-.008l.002.2zm1.162.093l.02-.199h-.002l-.018.2zm.59.056l.034-.197-.007-.001h-.007l-.02.198zm.591.1l-.033.198h.004l.03-.197zm4.734 1.305l.076-.185-.004-.002-.072.187zm1.166.477l.086-.181-.006-.003-.08.184zm1.154.551l-.087.18.006.003.081-.183zm1.114.585l.098-.174-.004-.002-.094.176zm1.102.64l-.115.165.004.003.111-.167zm2.081 1.491l-.133.15.006.005.007.005.12-.16zm1.853 1.755l.153-.13-.01-.01-.143.14zm2.522 4.273l.19-.062v-.003l-.19.065zm.654 4.572l.2.01v-.003l-.2-.007zm-.698 4.046l-.191-.06v.002l.19.058zm-.598 1.714l-.182-.083-.003.006.185.077zm-.677 1.486l-.175-.096-.005.01.18.086zm-1.296 2.31l-.17-.104-.002.002.172.102zm-.957 1.4l.163.117.004-.006-.167-.11zm-.347.493l-.174-.1.338.214-.164-.114zm.303-.518l.172.102.002-.005-.174-.097zm.844-1.472l-.177-.093v.001l.177.092zm1.136-2.358L71 76.049l-.004.01.186.075zm.568-1.502l.19.065v-.004l-.19-.06zm.28-.82l.192.056.002-.005-.194-.05zm.232-.875l-.193-.053v.002l.193.051zm.523-3.915l.2.003v-.004h-.2zm-.748-4.285l.19-.064-.002-.005-.188.069zm-2.42-3.945l.151-.13-.005-.006-.005-.006-.142.142zm-1.76-1.64l-.133.15.007.006.007.005.118-.16zm-1.992-1.404l-.117.162.008.005.11-.167zm-1.061-.626l.1-.174-.005-.002-.095.176zm-1.095-.585l-.087.18.005.002.082-.182zm-1.095-.533l.088-.18-.006-.003-.082.183zm-1.124-.466l.077-.184-.005-.002-.072.186zm-4.54-1.333l-.035.196.003.001.032-.197zm-4.405-.306l.006.2h.008l-.014-.2zm-3.904.678l-.055-.193-.01.004.065.19zm-3.09 1.334l-.098-.175-.006.004.104.17zm-1.211.734l-.108-.169-.011.008.119.16zm-.968.715l.115.164.004-.003-.119-.16zm-.75.615l.132.15.002-.002-.135-.148zm-.539.477l-.131-.151h-.001l.132.15zm-.452.398l-.143-.14.275.29-.132-.15zm-5.59-45.166l.173.102.003-.005-.175-.097zm-.59.88l.154.127.006-.006.004-.007-.164-.115zm-1.786 1.944l-.13-.151-.006.005.136.146zm-1.124.976l-.123-.158-.006.005.129.153zm-1.226.928l.112.166.01-.007-.122-.159zm-2.59 1.557l-.088-.18-.008.005.097.175zm-1.262.593l-.08-.184-.003.002.083.182zm-1.17.436l.058.192.012-.005-.07-.187zm-1.027.268l.033.197.01-.002-.043-.195zm-.81.12l.003.2.01-.001.01-.001-.024-.199zm-.707 0l-.053-.194.047.393.006-.2zm.673-.183l.052.193.01-.003.009-.003-.071-.188zm.74-.284l.072.187.01-.005-.083-.182zm.926-.424l.084.181.006-.003.007-.003-.097-.175zm1.069-.57l-.098-.175-.003.002.1.173zm1.162-.682l-.1-.174-.006.004.106.17zm1.221-.768l.105.17h.002l-.107-.17zm1.233-.834l.113.165.005-.004-.118-.161zm1.207-.876l-.122-.159-.003.003.125.156zm1.14-.879l-.125-.157-.003.003.128.154zm1.035-.864l.128.153.003-.002-.131-.151zm.889-.813l.133.15.007-.007.007-.007-.147-.136zm.706-.733l.149.133.004-.005.005-.005-.158-.123zm.5-.604l.16.122.006-.01-.165-.112zm.397-.581l.189.065-.355-.178.166.113zm-.228.663l.183.081.003-.008.003-.008-.189-.065zM17.827 42.502l.158.122.002-.002-.16-.12zm-.912.947l.126.155.002-.001-.128-.154zm-.96.625l-.087-.18-.004.002.091.178zm-.755.291l-.05-.194-.002.001.052.193zm-.302.07l-.154-.127-.346.414.532-.089-.032-.197zm.205-.23l-.145-.138-.002.002.147.136zm.527-.566l.146.136-.146-.136zm.702-.787l.15.133.004-.004-.154-.129zm.74-.92l.158.123.003-.004-.16-.119zm.691-.961l.166.113.003-.005-.169-.108zm.568-.89l.17.104.002-.001-.172-.103zm.4-.66l-.17-.105v.001l.17.104zm.164-.257l.2-.02-.055-.546-.31.453.165.113zm.02.305l.2-.004v-.003l-.2.007zm-.08.805l-.195-.04-.001.007.197.033zm-.343 1.092l.183.08-.183-.08zm-2.679-3.078l.124.158.002-.002-.126-.156zm-.8.686l-.13-.152-.001.001.132.151zm-.777.741l.143.141.002-.002-.145-.139zm-.706.786l.158.123-.158-.123zm-.583.824l.173.101.001-.002-.174-.1zm-.392.83l-.188-.067v.001l.188.067zm-.172.802l-.198-.024-.001.008v.007l.2.009zm.034.708l-.198.03.001.008.197-.038zm.145.551l.193-.056-.005-.013-.188.069zm.139.35l-.188.069.003.007.185-.076zm.052.127l-.141.142.325-.22-.184.078zm-.097-.097l-.154.128.006.007.007.007.14-.142zm-.258-.294l.17-.105-.006-.011-.008-.01-.156.126zm-.325-.53l.182-.082-.182.083zm-.232-.793l-.198.022v.005l.198-.027zm.03-.995l.196.042v-.005l-.196-.037zm.34-1.043l.178.091.005-.01-.183-.08zm1.349-1.885l-.14-.143-.005.006.145.137zm1.76-1.434l.11.167v-.001l-.11-.166zm1.711-.954l.082.182h.002l-.084-.182zm1.805-.615l.11.166-.145-.363.035.197zm-1.532 1.08l-.118-.16h-.002l.12.16zm107.984 54.831l.183.08-.183-.08zm3.269-9.418l-.19-.062.19.062zm1.297-2.858l-.036-.197-.098.018-.045.089.179.09zm1.143-1.352l.2.01-.2-.01zm1.988-7.712l.199.018-.199-.018zm-1.383-6.077l.199.02-.199-.02zm-1.681-1.848l-.198-.03-.034.22.223.01.009-.2zm.265-3.591l-.198.023.198-.023zm-2.141-10.373l-.192.056v.001l.192-.057zm-.493-1.576l-.067-.188-.184.065.061.186.19-.063zm1.113-2.153l-.19.062.19-.062zm-2.54-6.43l.17-.106-.17.105zm-2.377-3.834l-.192.055.008.026.013.022.171-.103zm-.224-.652l-.183.08.183-.08zm-.769-1.226l-.159.122.002.003.157-.125zm-.311-.347l-.173.1.011.02.016.017.146-.137zm-.47-.834l-.176.095.176-.095zm-1.869-.91l-.108.169.063.04.073-.01-.028-.198zm-1.169-.86l-.133.15.133-.15zm-2.503-3.226l-.156.126h.001l.155-.126zm-6.774-7.116l.133-.15-.133.15zm-3.348-2.787l-.197-.037-.022.12.096.075.123-.158zm-.605-1.475l-.122.159h.001l.121-.16zm-6.135-4.669l-.122.16.122-.16zm-2.03.026l-.068.188.105.039.088-.07-.124-.157zm-2.121-.763l.067-.189-.198.34.13-.151zm.112.096l-.09.18.22-.33-.13.15zM92.65 8.647l-.08.183.08-.183zM74.974 3.811l-.151.13.05.06.077.009.024-.199zm-.067-.074l-.153.129.001.001.152-.13zm-.31-.362l-.198-.026-.012.09.06.068.15-.132zm-.661-1.33l.11-.167-.11.167zm-14.068.067l-.063-.19.063.19zm-1.012 1.755v.2h.247l-.052-.242-.195.042zm-.064.007l.027.199.006-.001-.033-.198zM42.464 8.33l.078.185-.078-.185zm-4.12 1.938l-.079.184.082.034.08-.037-.084-.181zm-.76-.13l.01.2.001-.001-.01-.2zm-15.378 9.485l.16.12-.16-.12zm-.202 1.643l.163.116.067-.094-.048-.105-.182.083zm-4.54 6.27l-.155-.126.155.126zM9.096 41.187l.183.08-.183-.08zM5.46 52.017l-.001.2.158.001.037-.154-.194-.046zm-1.805 1.32l.193.053-.193-.054zM1.51 67.62l-.189.065.19-.065zm1.66 7.507l.2.008-.2-.008zm1.199 5.015l-.163.116.163-.116zm1.023.655l.195-.045-.03-.13-.133-.022-.032.197zm23.02 35.845l.195-.046-.017-.069-.056-.044-.122.159zm6.3 5.868l-.119.161.118-.161zm8.866 3.711l.025.198-.025-.198zm1.035-.544l.07-.187-.133-.051-.091.11.154.128zm26.73 4.024l.107-.169-.056-.035-.065.004.014.2zm.571.238l.044-.195-.044.195zm9.756-.443l.074.185-.074-.185zm5.653-2.947l-.063-.19-.022.007-.019.012.104.171zm18.618-9.888l-.048-.194-.041.01-.033.025.122.159zm9.845-5.932l-.147-.135.147.135zm3.262-7.712l-.163-.115-.058.081.031.095.19-.061zM44.436 81.243a25.873 25.873 0 01-4.541-5.087l-.331.224a26.274 26.274 0 004.612 5.166l.26-.303zm-4.541-5.087c-1.245-1.833-2.185-3.782-2.773-5.725l-.383.116c.6 1.984 1.559 3.97 2.825 5.833l.33-.224zm-2.773-5.726c-.606-1.935-.853-3.86-.78-5.625l-.4-.017c-.075 1.813.179 3.784.798 5.761l.382-.12zm-.78-5.626c.063-1.763.457-3.353.998-4.67l-.37-.152a14.021 14.021 0 00-1.027 4.808l.4.014zm.998-4.67c.55-1.316 1.185-2.395 1.807-3.19l-.315-.247c-.648.828-1.299 1.94-1.861 3.283l.369.155zm1.814-3.2c.283-.413.59-.74.86-1.047l-.3-.265c-.26.297-.59.647-.89 1.085l.33.226zm.864-1.052c.246-.295.484-.523.683-.713l-.277-.29c-.197.19-.452.432-.714.748l.308.255zm.684-.714l.451-.439.116-.112.029-.029.007-.007.002-.002-.14-.144-.14-.142-.002.002-.007.007a11.404 11.404 0 01-.144.14l-.45.438.278.288zm.466-.733l-.148-.135v.001l-.002.002-.007.008-.027.03-.109.118-.423.464.296.27a506.088 506.088 0 01.53-.582l.028-.03.007-.008.002-.002-.147-.136zm-.715.487c-.187.2-.425.458-.668.789l.322.236c.228-.31.453-.552.64-.753l-.294-.272zm-.667.786c-.23.306-.538.668-.816 1.11l.338.213c.267-.423.55-.753.798-1.082l-.32-.24zm-.81 1.1c-.602.848-1.193 1.97-1.68 3.308l.376.137c.477-1.309 1.052-2.399 1.63-3.213l-.326-.232zm-1.68 3.309c-.482 1.347-.8 2.94-.823 4.692l.4.005c.022-1.706.332-3.257.8-4.562l-.378-.135zm-.823 4.691c-.026 1.75.273 3.643.922 5.538l.379-.13c-.636-1.854-.927-3.701-.901-5.401l-.4-.007zm.922 5.536c.631 1.9 1.623 3.779 2.85 5.575l.33-.226c-1.21-1.773-2.184-3.619-2.8-5.475l-.38.126zm2.85 5.576a25.435 25.435 0 004.508 4.96l.258-.305a25.034 25.034 0 01-4.437-4.883l-.33.228zm4.507 4.96c1.744 1.48 3.722 2.746 5.854 3.653l.157-.368c-2.091-.89-4.036-2.134-5.752-3.59l-.259.305zm5.853 3.653c2.137.92 4.398 1.51 6.674 1.766l.045-.398a23.138 23.138 0 01-6.56-1.736l-.159.368zm6.675 1.766c1.14.124 2.273.15 3.395.113l-.014-.4c-1.106.037-2.22.01-3.338-.11l-.043.397zm3.4.112a22.509 22.509 0 003.287-.413l-.082-.392c-1.045.218-2.13.343-3.229.406l.023.4zm3.287-.413c2.126-.451 4.132-1.192 5.883-2.144l-.191-.351c-1.716.933-3.685 1.66-5.775 2.103l.083.392zm5.884-2.145c1.762-.974 3.273-2.139 4.567-3.324l-.27-.295c-1.276 1.169-2.762 2.314-4.49 3.27l.193.35zm4.568-3.325c1.283-1.19 2.349-2.413 3.126-3.615l-.336-.217c-.755 1.167-1.797 2.366-3.062 3.538l.272.294zm3.126-3.615c.773-1.202 1.256-2.382 1.437-3.412l-.394-.07c-.17.967-.628 2.097-1.38 3.265l.337.217zm1.438-3.418c.149-1.02.09-1.858-.048-2.416l-.389.096c.124.5.184 1.285.041 2.262l.396.058zm-.05-2.423a213.84 213.84 0 01-.17-.6l-.043-.155-.011-.04-.003-.01v-.002l-.193.053-.193.053v.004l.004.01.01.04.044.154.17.602.385-.11zm-.42-.754l-.19.066.002.003.003.01.014.039a148.624 148.624 0 00.262.746l.377-.133-.208-.593-.054-.152-.013-.039-.003-.01a.09.09 0 00-.001-.002l-.19.065zm.088.855c.15.5.278 1.29.169 2.298l.397.043c.115-1.063-.018-1.906-.183-2.456l-.383.115zm.17 2.293c-.131 1-.55 2.186-1.268 3.42l.346.202c.738-1.27 1.179-2.506 1.318-3.57l-.397-.052zm-1.269 3.42c-.714 1.234-1.725 2.513-2.992 3.739l.278.287c1.29-1.248 2.325-2.555 3.06-3.825l-.346-.2zm-2.992 3.739c-1.265 1.225-2.766 2.447-4.51 3.477l.204.345c1.776-1.05 3.301-2.293 4.584-3.535l-.278-.287zM70.002 84.1a20.499 20.499 0 01-5.95 2.306l.084.392a20.903 20.903 0 006.066-2.352l-.2-.346zm-5.95 2.306a23.159 23.159 0 01-3.357.455l.027.399a23.565 23.565 0 003.415-.463l-.085-.39zm-3.352.454c-1.147.048-2.31.034-3.472-.08l-.04.397c1.185.117 2.367.132 3.53.083l-.018-.4zm-3.471-.08a24.118 24.118 0 01-6.84-1.748l-.156.368a24.519 24.519 0 006.954 1.777l.042-.398zm-6.838-1.747c-2.184-.956-4.189-2.268-5.954-3.79l-.261.302c1.792 1.546 3.83 2.88 6.054 3.854l.16-.366zm-16.142 22.703c.065.14.08.296.087.458l.4-.018a1.605 1.605 0 00-.123-.608l-.364.168zm.09.485c.009.048.006.1-.006.163l-.021.099a1.55 1.55 0 00-.023.111l.396.06a1.31 1.31 0 01.017-.083c.007-.033.017-.073.025-.115a.845.845 0 00.006-.307l-.394.072zm-.051.386c-.007.084-.044.137-.093.24l.36.173c.026-.053.116-.201.132-.378l-.399-.035zm-.09.234a3.574 3.574 0 01-.096.173l-.025.04a.167.167 0 00-.005.009l-.001.002.166.111.166.111v-.001l.002-.001.002-.004.009-.013.03-.05c.025-.043.062-.106.106-.192l-.354-.185zm.039.335l.195-.042v-.001-.003l-.003-.013-.01-.051a6.571 6.571 0 01-.033-.19l-.395.063a7.433 7.433 0 00.046.258l.003.015.001.004v.002l.196-.042zm.15-.296c-.011-.077-.025-.198-.076-.329l-.372.147c.03.078.04.15.051.237l.396-.055zm-.076-.329c-.016-.04-.022-.073-.042-.144a.775.775 0 00-.097-.22l-.334.219c.02.029.032.063.046.111.011.039.03.117.055.181l.372-.147zm-.13-.349c-.055-.104-.122-.239-.225-.36l-.305.26c.07.081.114.17.178.289l.353-.189zm-.205-.33a.909.909 0 00-.167-.2c-.06-.056-.1-.089-.136-.131l-.299.266c.053.059.12.118.16.156a.535.535 0 01.097.11l.345-.201zm-.337-.361c-.1-.07-.237-.183-.393-.256l-.17.362c.113.053.2.127.332.221l.23-.327zm-.373-.245a1.432 1.432 0 00-.233-.113c-.08-.031-.138-.051-.204-.08l-.158.368c.072.031.155.061.215.085.066.026.121.05.17.08l.21-.34zm-.471-.204c-.12-.028-.303-.085-.476-.094l-.02.399c.126.007.235.046.406.085l.09-.39zm-.45-.091c-.17-.03-.344-.018-.47-.018v.4c.167 0 .276-.01.399.012l.07-.394zm-.52-.012c-.05.013-.103.019-.182.03a.98.98 0 00-.247.062l.16.367a.565.565 0 01.144-.033c.058-.009.146-.018.225-.039l-.1-.387zm-.399.082c-.158.04-.29.112-.398.171l.193.351c.109-.06.2-.108.305-.135l-.1-.387zm-.374.16a.82.82 0 00-.2.116c-.055.042-.079.063-.116.086l.21.341c.06-.037.116-.084.148-.108a.402.402 0 01.104-.062l-.146-.373zm-.312.2c-.122.071-.224.196-.265.24l.29.275c.078-.083.12-.136.176-.169l-.2-.346zm-.267.243a2.73 2.73 0 01-.167.167l-.008.008-.002.001v0l.13.152.13.152.002-.001a.655.655 0 01.016-.015l.044-.04c.037-.036.089-.087.15-.154l-.295-.27zm-.047.328l.2.008v-.003-.012a2.913 2.913 0 01.024-.243l-.396-.051a4.34 4.34 0 00-.028.287v.007l.2.007zm.223-.241c.02-.117.014-.165.06-.252l-.356-.183c-.082.159-.089.312-.098.366l.394.069zm.058-.249c.019-.036.036-.074.05-.107l.045-.098a.49.49 0 01.092-.141l-.278-.287a.867.867 0 00-.175.254l-.05.111a1.062 1.062 0 01-.037.079l.353.189zm.204-.364c.11-.137.202-.253.334-.328l-.196-.348c-.212.119-.35.301-.45.425l.312.251zm.362-.346c.127-.103.293-.172.496-.242l-.13-.379c-.208.072-.431.159-.618.31l.252.311zm.47-.235c.236-.047.413-.102.599-.083l.04-.398c-.264-.026-.535.053-.717.088l.077.393zm.625-.082c.195-.007.389.044.62.099l.092-.389c-.21-.05-.465-.119-.725-.11l.013.4zm.591.09c.225.09.41.158.567.276l.24-.32c-.209-.157-.456-.246-.657-.327l-.15.371zm.59.29c.164.093.273.238.444.413l.286-.28c-.127-.13-.303-.351-.534-.481l-.197.348zm.424.389c.129.181.223.326.265.48l.386-.104c-.063-.233-.2-.432-.325-.608l-.326.232zm20.21-79.82c-.311.62-.703 1.304-1.19 2.007l.33.228c.498-.72.9-1.422 1.217-2.055l-.358-.18zm-1.19 2.007c-.49.707-1.049 1.456-1.706 2.185l.297.268a22.054 22.054 0 001.738-2.225l-.329-.228zM51.284 31.6a25.488 25.488 0 01-2.187 2.203l.268.296a25.903 25.903 0 002.222-2.238l-.303-.261zM49.1 33.8c-.822.707-1.672 1.426-2.614 2.048l.221.334c.965-.638 1.832-1.372 2.654-2.08l-.26-.303zm-2.617 2.05a22.997 22.997 0 01-2.97 1.744l.175.359a23.39 23.39 0 003.023-1.774l-.228-.329zm-2.971 1.744a16.81 16.81 0 01-3.246 1.19l.1.386a17.22 17.22 0 003.323-1.217l-.178-.359zm-3.247 1.19a9.483 9.483 0 01-3.348.273l-.04.398a9.885 9.885 0 003.49-.285l-.102-.387zm-3.349.273c-1.095-.105-2.14-.464-2.958-1.051l-.234.325c.885.635 2 1.013 3.154 1.124l.038-.398zm-2.956-1.05c-.814-.605-1.44-1.345-1.828-2.102l-.356.183c.419.815 1.086 1.602 1.946 2.24l.238-.32zm-1.83-2.107a8.594 8.594 0 01-.814-2.185l-.39.091c.164.698.416 1.487.853 2.286l.35-.192zm-.818-2.199c-.1-.317-.134-.627-.184-.94l-.395.063c.046.29.087.643.197.996l.382-.119zm-.184-.939l-.123-.823-.396.06.123.823.396-.06zm-.121-.803l-.058-1.16-.015-.304-.004-.079-.001-.02v-.005-.001l-.2.01-.2.01v.007l.001.02.004.078.016.305.057 1.158.4-.019zm-.279-1.559l-.197.033v.002l.001.005a1.709 1.709 0 00.016.096l.05.302.191 1.145.395-.066a3704.342 3704.342 0 01-.257-1.543v-.005l-.001-.001-.197.032zM30.793 32c.06.239.127.502.198.792l.389-.095-.199-.795-.388.098zm.199.795c.072.277.144.609.28.945l.371-.15c-.124-.305-.187-.599-.264-.896l-.387.101zm.276.933c.221.66.534 1.387.985 2.1l.338-.214a9.24 9.24 0 01-.943-2.012l-.38.126zm.99 2.107c.111.162.233.345.355.52l.328-.23c-.124-.176-.234-.344-.354-.517l-.33.227zm.353.515c.07.105.151.195.228.275.08.084.15.153.216.23l.303-.262c-.075-.087-.16-.172-.23-.244a1.672 1.672 0 01-.185-.22l-.332.221zm.442.501c.3.363.71.633 1.06.897l.241-.32c-.381-.287-.733-.516-.993-.832l-.308.255zm1.072.905c.81.526 1.8.793 2.828.877l.032-.399c-.983-.08-1.904-.334-2.642-.814l-.218.336zm2.83.877c1.035.077 2.123-.057 3.19-.345l-.104-.386c-1.033.278-2.075.405-3.057.332l-.03.4zm3.19-.345c1.06-.286 2.124-.67 3.132-1.185l-.181-.356c-.98.499-2.016.874-3.055 1.155l.104.386zm3.127-1.182c2.041-.971 3.909-2.286 5.541-3.63l-.254-.308c-1.617 1.331-3.457 2.624-5.458 3.576l.171.361zm5.546-3.633c.795-.692 1.568-1.373 2.244-2.085l-.29-.275c-.661.696-1.42 1.365-2.217 2.058l.263.302zm2.241-2.082a26.134 26.134 0 001.815-2.06l-.312-.25a25.763 25.763 0 01-1.787 2.03l.284.28zm1.816-2.062c.527-.672.98-1.31 1.35-1.899l-.339-.213a22.453 22.453 0 01-1.325 1.865l.314.247zm1.352-1.902c.354-.588.664-1.124.864-1.593l-.368-.157c-.188.44-.483.954-.839 1.544l.343.206zm.86-1.584c.221-.456.363-.829.45-1.089l-.378-.129a9.081 9.081 0 01-.432 1.043l.36.175zm.449-1.083a73.1 73.1 0 00.106-.287l.027-.073.007-.02.002-.004v-.001l-.188-.069-.188-.068v.001l-.002.005-.007.018-.026.073-.106.285.375.14zm-.046-.454l-.195-.042v.001l-.002.005-.004.018a15.958 15.958 0 01-.086.37l.388.094a23.68 23.68 0 00.089-.377l.004-.02.001-.005v-.001l-.195-.043zm-.289.357a6.571 6.571 0 01-.312 1.09l.373.146c.19-.486.274-.887.33-1.153l-.39-.083zm-.317 1.104c-.144.464-.395 1.006-.702 1.641l.36.174c.306-.631.57-1.2.725-1.697l-.383-.118zM26.137 76.153a3.873 3.873 0 01-.37.656l.328.23c.184-.263.314-.513.407-.723l-.365-.163zm-.373.661c-.173.264-.345.548-.589.812l.294.272c.272-.295.466-.615.63-.865l-.335-.219zm-.595.819c-.125.147-.25.297-.384.453l.304.26c.135-.156.264-.312.386-.455l-.306-.259zm-.367.437l-.472.436.272.293.47-.436-.27-.293zm-.479.443c-.293.3-.665.533-1.074.822l.23.327c.384-.27.803-.536 1.13-.87l-.286-.28zm-1.056.81c-.438.244-.838.504-1.299.664l.132.378c.503-.175.955-.466 1.361-.692l-.194-.35zm-1.316.671c-.445.204-.934.326-1.439.466l.107.386c.489-.136 1.017-.267 1.498-.488l-.166-.364zm-1.421.462c-.51.094-1.004.18-1.496.198l.015.4c.524-.02 1.046-.111 1.553-.204l-.072-.394zm-1.512.2c-.24.028-.477.028-.72.013l-.023.4c.258.015.52.016.79-.016l-.047-.397zm-.722.013c-.264-.012-.488-.007-.72-.032l-.044.397c.247.027.516.025.745.035l.019-.4zm-.718-.032c-.477-.056-.922-.11-1.331-.222l-.105.386c.442.12.917.178 1.389.233l.047-.397zm-1.345-.225a7.63 7.63 0 01-1.147-.342l-.138.376c.358.131.762.27 1.207.359l.078-.393zm-1.157-.345c-.345-.106-.64-.261-.926-.396l-.17.362c.267.126.598.3.978.416l.118-.382zm-.932-.398a4.815 4.815 0 01-.668-.359l-.213.339c.188.118.425.258.722.387l.159-.368zm-.67-.36a21.673 21.673 0 01-.536-.337l-.027-.018-.007-.004-.002-.002-.112.166-.111.166v.001l.003.001a.368.368 0 00.007.005l.03.02a15.752 15.752 0 00.547.343l.207-.341zm-.684-.195l-.054.193h.003l.008.003.032.01a35.011 35.011 0 01.611.18l.116-.383c-.21-.064-.375-.113-.488-.145-.056-.017-.1-.03-.129-.037l-.033-.01a.193.193 0 01-.01-.003h-.001l-.055.192zm.593.383c.212.073.473.15.767.218l.09-.39a7.496 7.496 0 01-.727-.206l-.13.378zm.767.218c.276.064.61.162.982.22l.061-.396c-.353-.055-.646-.143-.953-.213l-.09.39zm.974.218c.362.071.754.14 1.174.181l.04-.398c-.403-.04-.78-.105-1.136-.176l-.078.393zm1.161.18c.417.068.885.064 1.303.095l.03-.399c-.472-.035-.87-.025-1.268-.091l-.065.395zm1.321.096c.438-.008.915-.004 1.388-.062l-.048-.397c-.446.055-.895.051-1.347.059l.007.4zm1.377-.06c.483-.031.956-.127 1.413-.22l-.08-.392c-.461.093-.907.183-1.358.212l.025.4zm1.424-.223c.444-.116.93-.222 1.37-.412l-.159-.367c-.403.174-.845.27-1.312.392l.101.387zm1.356-.407c.454-.157.871-.369 1.265-.556l-.172-.36c-.406.192-.796.39-1.224.538l.131.378zm1.287-.568c.18-.116.363-.217.554-.327.187-.109.376-.225.547-.364l-.251-.31a3.909 3.909 0 01-.497.328c-.18.104-.38.214-.57.337l.217.336zm1.095-.686c.163-.122.322-.236.479-.348l-.232-.325c-.158.112-.32.228-.486.353l.24.32zm.494-.36c.145-.126.288-.25.423-.37l-.265-.299-.42.368.262.301zm.416-.363c.296-.237.53-.497.73-.701l-.284-.281c-.217.22-.424.452-.696.67l.25.312zm.728-.699c.216-.212.4-.41.539-.592l-.318-.242c-.123.16-.29.343-.5.548l.28.286zm.532-.584a91.26 91.26 0 01.41-.482l.023-.026.005-.006.002-.002-.151-.13-.152-.131-.002.002-.005.006-.023.026-.086.1a92.58 92.58 0 00-.326.385l.305.258zm.289-.647l-.184-.08v.003a.248.248 0 01-.004.007l-.013.03-.054.12c-.047.105-.117.26-.21.458l.362.17a33.76 33.76 0 00.285-.625v-.002l.001-.001-.183-.08zm-12.223-7.62a14.478 14.478 0 00-1.285 1.643l.33.226c.364-.529.772-1.083 1.249-1.598l-.294-.271zm-1.286 1.645c-.717 1.076-1.31 2.016-1.724 2.647l.335.22c.423-.644 1.003-1.567 1.722-2.645l-.333-.222zm-1.723 2.646a21.416 21.416 0 01-.682.974l.158.124.157.122.002-.001a.183.183 0 01.012-.016 12.176 12.176 0 00.178-.242c.122-.169.296-.418.509-.74l-.334-.22zm-.524 1.098l.179.088.002-.004.007-.014.026-.053.104-.21.392-.796-.36-.176-.39.795-.104.209a9.76 9.76 0 00-.027.053l-.006.014-.002.003v.001l.178.09zm.708-.985c.363-.702.776-1.672 1.42-2.834l-.35-.194c-.64 1.155-1.086 2.19-1.426 2.844l.356.184zm1.42-2.833c.323-.574.69-1.18 1.18-1.774l-.31-.255c-.511.621-.892 1.252-1.219 1.833l.349.196zm1.179-1.773c.484-.582 1.092-1.17 1.919-1.48l-.14-.374c-.923.345-1.585.995-2.087 1.598l.308.256zm1.92-1.48c.82-.315 1.802-.254 2.627.077l.148-.371c-.901-.362-1.989-.436-2.918-.08l.143.374zm2.628.077c.844.333 1.596.837 2.29 1.397l.251-.312c-.71-.573-1.498-1.104-2.395-1.457l-.146.372zm2.29 1.397c.352.285.649.559.992.905l.284-.281c-.351-.355-.659-.64-1.024-.935l-.252.31zm.989.902c.304.321.589.606.85.992l.332-.225c-.284-.419-.597-.73-.891-1.042l-.291.275zm.856 1a5.699 5.699 0 011.066 2.372l.393-.074a6.097 6.097 0 00-1.14-2.539l-.319.24zm1.066 2.374c.165.831.107 1.687-.163 2.413l.375.14c.298-.802.359-1.734.18-2.631l-.392.078zm-.162 2.41a4.548 4.548 0 01-1.242 1.76l.264.3a4.949 4.949 0 001.35-1.915l-.372-.144zm-1.227 1.747c-.296.213-.53.407-.792.54l.18.356c.3-.15.58-.38.846-.57l-.234-.326zm-.78.534c-.148.064-.293.14-.416.2a1.982 1.982 0 01-.36.144l.102.387c.154-.04.299-.105.433-.17.14-.07.262-.135.4-.194l-.16-.367zm-.782.346c-.28.084-.495.166-.716.217l.09.39c.234-.054.498-.151.74-.224l-.114-.383zm-.706.215l-.635.111.07.394.635-.111-.07-.394zm-.639.112a2.892 2.892 0 01-.48.05c-.135.003-.284 0-.393.01l.037.399c.093-.009.2-.005.366-.01a3.28 3.28 0 00.547-.056l-.077-.393zm-.862.06a87.362 87.362 0 01-.293.01h-.015l-.004.001h-.001l.007.2.007.2h.02l.06-.003.234-.008-.015-.4zm-.306.21l.041.197h.002l.003-.002.014-.003a17.19 17.19 0 01.286-.058l-.08-.392-.23.047-.058.012-.015.003-.004.001h-.001l.042.196zm.353.132c.095-.023.207-.04.362-.07.148-.027.322-.064.513-.123l-.118-.383a4.241 4.241 0 01-.47.114c-.135.025-.274.047-.38.073l.093.389zm.876-.194l.596-.182-.116-.382c-.22.066-.42.126-.6.183l.12.381zm.604-.184c.222-.078.464-.205.68-.3l-.162-.366c-.255.113-.446.217-.65.288l.132.378zm.687-.303a5.944 5.944 0 001.439-1.018l-.274-.292c-.436.41-.894.733-1.34.95l.175.36zm1.448-1.027a4.67 4.67 0 001.038-1.736l-.38-.125a4.269 4.269 0 01-.95 1.587l.292.274zm1.04-1.741c.21-.699.203-1.472.033-2.229l-.39.088c.158.704.16 1.406-.027 2.026l.383.115zm.034-2.223c-.076-.395-.252-.77-.397-1.116l-.369.154c.155.37.307.695.373 1.038l.393-.076zm-.41-1.143c-.188-.308-.383-.706-.646-1.019l-.306.257c.238.283.394.615.61.97l.342-.208zm-.632-1c-.218-.333-.554-.663-.844-.967l-.29.276c.308.322.607.617.8.91l.334-.22zm-.85-.973a13.879 13.879 0 00-.948-.84l-.25.313c.316.252.65.553.92.814l.278-.287zm-.945-.837c-.655-.544-1.368-1.03-2.122-1.34l-.151.371c.702.287 1.38.747 2.017 1.276l.256-.307zm-2.125-1.34c-.76-.298-1.562-.4-2.3-.149l.128.379c.621-.211 1.322-.134 2.026.142l.146-.372zm-2.3-.149c-.72.246-1.337.745-1.838 1.278l.292.274c.478-.51 1.042-.957 1.675-1.173l-.13-.379zm19.287-41.937a34.843 34.843 0 011.738-1.804l-.277-.288c-.65.626-1.233 1.24-1.759 1.825l.297.267zm1.74-1.806a18.583 18.583 0 012.137-1.825l-.236-.323c-.8.584-1.552 1.235-2.183 1.864l.283.284zm2.135-1.824c.8-.57 1.654-1.131 2.599-1.548l-.162-.366c-.982.433-1.862 1.013-2.67 1.589l.233.325zm2.6-1.548c.947-.427 1.966-.755 3.029-.886l-.05-.397c-1.11.137-2.17.48-3.143.918l.164.365zm3.028-.886a7.446 7.446 0 013.157.305l.125-.38a7.845 7.845 0 00-3.329-.322l.047.397zm3.146.3c.255.101.499.203.754.306l.149-.372c-.246-.098-.502-.205-.756-.305l-.147.372zm.745.302c.233.107.432.24.68.38l.196-.349c-.215-.12-.457-.279-.71-.395l-.166.364zm.677.378l.172.1.202-.345-.172-.1-.202.345zm.177.104a.662.662 0 00.03.015l.01.005a.87.87 0 01.056.037l.225-.331a1.2 1.2 0 00-.087-.056l-.026-.013a.269.269 0 01-.016-.009l-.192.352zm.08.044l.07.06.258-.306-.071-.06-.257.306zm.076.065l.292.227.246-.316-.292-.227-.246.316zm.303.235c.172.115.352.3.54.505l.295-.27c-.186-.203-.395-.421-.612-.567l-.223.332zm.54.507c.712.762 1.076 1.691 1.224 2.583l.394-.066c-.158-.95-.548-1.957-1.325-2.79l-.292.273zm1.224 2.583c.152.897.106 1.75.003 2.522l.396.053c.106-.793.157-1.69-.005-2.642l-.394.067zm.003 2.518c-.236 1.546-.696 2.751-1.017 3.596l.374.142c.322-.847.796-2.086 1.039-3.677l-.396-.06zm-1.015 3.593a27.57 27.57 0 01-.553 1.286l-.002.004.18.088.18.087v-.002l.003-.004.008-.017a10.898 10.898 0 00.146-.32c.099-.222.24-.55.41-.974l-.372-.148zm-.375 1.378l.192.054v-.002l.002-.004.005-.017.019-.068a190.368 190.368 0 01.36-1.272l-.386-.11a383.43 383.43 0 00-.36 1.274l-.018.068-.005.017a.055.055 0 00-.002.006l.193.054zm.577-1.31c.245-.872.54-2.145.668-3.67l-.398-.033a19.346 19.346 0 01-.655 3.595l.385.108zm.669-3.674c.045-.764.027-1.604-.162-2.444l-.39.087c.178.792.197 1.591.152 2.333l.4.024zm-.161-2.443c-.183-.843-.595-1.691-1.222-2.333l-.286.28c.568.58.948 1.357 1.117 2.138l.39-.085zm-1.222-2.332c-.645-.663-1.535-1.146-2.443-1.458l-.13.378c.87.299 1.698.755 2.286 1.359l.287-.28zm-2.449-1.46a7 7 0 00-2.935-.246l.05.397a6.601 6.601 0 012.766.23l.12-.381zm-2.933-.246c-1.992.229-3.866 1.176-5.436 2.242l.224.331c1.546-1.05 3.357-1.957 5.258-2.176l-.046-.397zm-5.438 2.243a21.584 21.584 0 00-2.187 1.7l.267.298a21.2 21.2 0 012.148-1.669l-.227-.329zm-2.185 1.699a63.52 63.52 0 00-1.84 1.678l.276.29c.554-.53 1.175-1.091 1.828-1.668l-.264-.3zm-1.841 1.679c-1.102 1.061-2.023 2.003-2.502 2.79l.341.207c.448-.734 1.328-1.64 2.438-2.71l-.277-.287zm-2.503 2.79a2.628 2.628 0 00-.27.571c-.053.178-.076.38.013.555l.357-.182c-.02-.038-.03-.115.013-.257.041-.137.122-.3.23-.48l-.343-.207zm-.253 1.132a.668.668 0 00.353.307c.015.005.009.003.004 0a.162.162 0 01-.02-.01.2.2 0 01-.078-.246c.03-.068.085-.095.095-.1l.179.358a.201.201 0 00.015-.352l-.023-.012a.487.487 0 00-.031-.013.27.27 0 01-.145-.127l-.35.195zm.622.22a.202.202 0 00-.045-.24c-.036-.033-.074-.044-.078-.045-.017-.006-.039-.01-.039-.01a.225.225 0 01-.038-.01.32.32 0 01-.135-.11l-.315.248a.717.717 0 00.308.236.627.627 0 00.101.029c.017.003.007.001-.002-.002 0 0-.036-.01-.07-.04a.198.198 0 01-.044-.236l.357.18zm-.325-.401c-.036-.054-.057-.154-.033-.315.024-.157.087-.342.18-.535l-.36-.174a2.346 2.346 0 00-.215.649c-.031.203-.02.421.093.595l.335-.22zm.146-.848c.399-.803 1.173-1.841 2.211-2.992l-.297-.268c-1.046 1.16-1.849 2.23-2.272 3.082l.358.178zm8.898 30.787c.133-.144.3-.317.495-.523l-.29-.276c-.193.204-.363.38-.499.527l.294.272zm.497-.526c.19-.207.414-.43.69-.649l-.248-.314a6.202 6.202 0 00-.737.693l.295.27zm.696-.653c.28-.239.59-.503.93-.79l-.258-.305c-.34.287-.651.552-.931.79l.26.305zm.92-.781c.352-.26.747-.518 1.176-.817l-.229-.328c-.415.29-.828.56-1.185.822l.237.323zm1.18-.82a5.77 5.77 0 01.658-.4c.235-.128.494-.26.747-.408l-.2-.346c-.247.144-.491.268-.738.402a6.151 6.151 0 00-.703.43l.235.322zm1.402-.806c.243-.135.507-.248.788-.36.278-.11.579-.222.876-.35l-.159-.367c-.29.125-.575.23-.865.346a7.097 7.097 0 00-.834.381l.194.35zm1.647-.704c1.2-.396 2.53-.752 3.972-.855l-.029-.399c-1.488.106-2.854.473-4.068.874l.125.38zm3.984-.856c.716-.095 1.445-.065 2.232-.073l-.003-.4c-.76.008-1.533-.023-2.281.076l.052.397zm2.225-.073c.377.011.747.058 1.15.093l.035-.399c-.382-.033-.782-.082-1.174-.094l-.011.4zm1.149.093l.59.055.038-.398-.59-.056-.038.398zm.575.053l.59.101.068-.394-.59-.1-.068.393zm.595.102c1.562.232 3.143.693 4.69 1.292l.145-.373c-1.568-.607-3.178-1.078-4.777-1.315l-.058.396zm4.687 1.29c.396.164.779.31 1.162.476l.16-.367c-.387-.168-.789-.321-1.17-.478l-.152.37zm1.156.474c.385.182.77.364 1.153.55l.175-.36c-.386-.187-.772-.37-1.156-.552l-.172.361zm1.159.553c.384.171.718.375 1.1.578l.189-.352c-.358-.191-.725-.413-1.126-.591l-.163.365zm1.096.576c.37.21.745.392 1.086.63l.23-.327c-.362-.253-.778-.458-1.119-.65l-.197.347zm1.09.634c.722.478 1.434.915 2.059 1.472l.266-.298c-.652-.582-1.398-1.04-2.103-1.508l-.222.334zm2.072 1.483c.672.502 1.233 1.12 1.83 1.734l.287-.279c-.584-.6-1.174-1.249-1.877-1.775l-.24.32zm1.821 1.725c1.09 1.274 1.965 2.702 2.485 4.209l.378-.131c-.54-1.563-1.443-3.034-2.559-4.338l-.304.26zm2.484 4.206c.497 1.516.7 3.057.644 4.501l.4.015a13.344 13.344 0 00-.664-4.641l-.38.125zm.644 4.498c-.077 1.45-.314 2.804-.69 3.997l.382.12c.387-1.229.629-2.617.708-4.096l-.4-.021zm-.69 3.999c-.184.61-.356 1.178-.588 1.689l.364.165c.245-.54.425-1.134.607-1.739l-.383-.115zm-.591 1.695c-.221.535-.427 1.028-.667 1.467l.35.192c.254-.462.467-.975.686-1.506l-.37-.153zm-.672 1.476c-.44.914-.905 1.666-1.287 2.293l.342.208c.38-.624.856-1.393 1.306-2.327l-.36-.174zm-1.288 2.295c-.183.308-.364.57-.528.8-.16.223-.312.425-.423.593l.333.22c.106-.16.246-.344.415-.58.167-.234.356-.507.547-.829l-.344-.204zm-.948 1.387l-.26.367c-.029.041-.05.073-.066.094l-.016.024-.005.006v.002h-.001l.164.115.164.114.001-.002.004-.006.017-.023.066-.094.258-.365-.326-.232zm-.184.608l.174.1v-.001-.002l.004-.006.015-.025a48.315 48.315 0 01.282-.483l-.345-.203a61.447 61.447 0 00-.284.486l-.014.026-.004.006-.001.002.173.1zm.477-.421c.177-.319.513-.832.847-1.477l-.355-.184c-.338.652-.637 1.1-.841 1.467l.35.194zm.847-1.476c.34-.643.759-1.426 1.144-2.376l-.37-.15c-.377.928-.787 1.694-1.128 2.34l.354.186zm1.14-2.367c.219-.47.394-.987.576-1.521l-.378-.13c-.185.54-.353 1.036-.56 1.483l.362.168zm.577-1.525c.042-.13.09-.257.14-.395.049-.136.1-.28.142-.43l-.384-.11c-.04.136-.086.269-.135.404-.048.133-.1.27-.144.41l.381.121zm.284-.83c.074-.287.152-.575.231-.875l-.387-.102c-.078.296-.157.59-.231.876l.386.101zm.23-.873c.335-1.207.508-2.554.53-3.965l-.4-.007c-.021 1.384-.192 2.697-.515 3.866l.385.106zm.53-3.968c0-1.426-.27-2.905-.757-4.349l-.379.128c.476 1.41.737 2.844.737 4.22h.4zm-.759-4.354c-.534-1.452-1.415-2.788-2.457-4.006l-.304.26c1.022 1.195 1.873 2.49 2.386 3.884l.375-.138zm-2.467-4.018c-.556-.558-1.113-1.166-1.783-1.659l-.237.322c.638.47 1.164 1.045 1.737 1.62l.283-.283zm-1.77-1.648c-.622-.549-1.342-.984-2.014-1.422l-.218.335c.688.449 1.373.863 1.968 1.387l.265-.3zm-2.006-1.417c-.344-.246-.724-.433-1.079-.637l-.199.347c.386.221.723.384 1.045.615l.233-.325zm-1.083-.64c-.352-.189-.733-.423-1.108-.59l-.163.364c.357.16.7.373 1.081.579l.19-.352zm-1.102-.588l-1.095-.533-.175.36 1.095.533.175-.36zm-1.101-.536c-.371-.164-.765-.315-1.129-.467l-.154.369c.383.16.752.3 1.12.464l.163-.366zm-1.134-.469c-1.507-.587-3.042-1.096-4.58-1.345l-.064.395c1.497.242 3.002.74 4.5 1.323l.144-.373zm-4.576-1.344c-1.52-.274-3.029-.407-4.455-.309l.028.4c1.383-.096 2.857.032 4.356.302l.07-.393zm-4.447-.309c-1.436.042-2.763.349-3.953.686l.109.385c1.178-.334 2.468-.63 3.856-.671l-.012-.4zm-3.962.689c-1.18.398-2.233.853-3.124 1.348l.195.35c.865-.481 1.896-.928 3.056-1.32l-.127-.378zm-3.13 1.352c-.429.258-.846.5-1.215.736l.216.337c.363-.233.768-.468 1.206-.73l-.207-.343zm-1.226.744c-.353.262-.674.497-.968.715l.238.322c.289-.214.619-.456.968-.716l-.238-.32zm-.963.712c-.31.217-.561.44-.771.63l.269.297c.208-.19.443-.398.73-.599l-.228-.328zm-.77.63c-.213.19-.392.35-.536.475l.263.302c.146-.128.327-.29.54-.479l-.267-.298zm-.537.476l-.337.297-.086.076-.022.019a.34.34 0 00-.005.005H41.5v.001l.131.15.132.15h.002l.005-.006.022-.019.087-.076.337-.297-.265-.3zm-.32.548l.143.14.002-.002.005-.005.02-.02.08-.084.31-.323-.29-.275a63.573 63.573 0 01-.386.402l-.02.02-.005.006-.002.001.143.14zM35.87 13.582c-.155.264-.355.543-.582.867l.328.23c.222-.318.433-.613.599-.893l-.345-.204zm-.572.854c-.256.31-.494.633-.794.947l.29.276c.312-.327.575-.681.812-.968l-.308-.255zm-.794.947c-.313.327-.616.67-.968.974l.261.303c.372-.322.697-.688.996-1l-.289-.277zm-.974.979c-.354.33-.719.66-1.11.964l.244.316c.407-.315.783-.655 1.139-.988l-.273-.292zm-1.117.97c-.385.324-.793.598-1.218.92l.242.32c.398-.303.841-.604 1.234-.935l-.258-.306zm-1.209.914c-.85.573-1.708 1.122-2.566 1.544l.177.359c.884-.435 1.76-.996 2.613-1.571l-.224-.332zm-2.574 1.549c-.412.228-.835.407-1.245.583l.158.367c.405-.174.848-.36 1.281-.6l-.194-.35zm-1.25.585c-.39.179-.774.29-1.155.43l.139.375c.344-.127.775-.255 1.183-.441l-.166-.364zm-1.143.426c-.369.11-.712.199-1.013.264l.086.391c.311-.068.664-.159 1.042-.272l-.115-.383zm-1.003.263c-.312.052-.582.092-.8.117l.045.398c.23-.027.506-.069.82-.12l-.065-.395zm-.781.116a21.825 21.825 0 01-.653.001h-.042-.002l-.006.2-.006.199h.013l.035.001.139.002c.12 0 .299 0 .529-.003l-.007-.4zm-.703.2l.053.193h.003l.008-.003.034-.01.13-.035.497-.134-.104-.387a128.7 128.7 0 00-.498.135l-.131.036-.034.01-.008.002h-.002-.001l.053.193zm.744.005c.205-.079.452-.172.74-.284l-.144-.373c-.287.111-.533.204-.739.283l.143.374zm.752-.289l.927-.425-.168-.363-.926.425.167.363zm.94-.431c.161-.09.331-.177.512-.27.18-.093.369-.192.56-.302l-.2-.346c-.183.105-.364.2-.543.293-.178.091-.355.182-.523.275l.194.35zm1.07-.57c.375-.21.77-.44 1.17-.687l-.212-.34c-.393.244-.782.47-1.154.677l.195.35zm1.162-.683c.408-.231.828-.525 1.228-.771l-.21-.341c-.436.268-.808.533-1.215.764l.197.348zm1.23-.772c.418-.264.835-.564 1.239-.839l-.225-.33c-.418.283-.816.572-1.227.83l.213.339zm1.244-.843c.391-.285.826-.569 1.215-.88l-.251-.313c-.381.306-.783.567-1.2.87l.236.323zm1.21-.878c.383-.293.784-.583 1.147-.884l-.256-.308c-.355.295-.738.572-1.133.875l.243.317zm1.143-.881c.369-.293.715-.596 1.04-.868l-.258-.307c-.333.28-.667.573-1.03.861l.248.314zm1.042-.87c.163-.143.318-.285.465-.422.148-.138.288-.27.426-.392l-.266-.299c-.142.127-.286.262-.433.398-.146.137-.297.275-.455.413l.263.302zm.905-.828c.122-.133.246-.258.367-.38.119-.121.236-.24.34-.355l-.296-.268c-.098.107-.208.22-.329.342-.12.121-.248.251-.376.39l.294.27zm.717-.747c.088-.113.177-.217.262-.316.085-.099.168-.196.24-.288l-.318-.244c-.063.082-.139.17-.225.271-.085.1-.18.21-.274.331l.315.246zm.508-.613l.293-.43.077-.113.02-.029.005-.007v-.002h.001l-.165-.113-.166-.113-.001.003-.005.007a4.632 4.632 0 00-.02.029l-.076.112-.293.43.33.226zm.23-.694l-.188-.065-.001.002-.003.009-.011.033-.045.128-.168.491.378.13.169-.49.044-.13.011-.032.003-.008v-.002-.001h.001l-.19-.065zm-.41.582a9.911 9.911 0 01-.37.714l.35.194c.158-.283.292-.536.386-.746l-.366-.162zM17.67 42.38a5.742 5.742 0 01-.881.914l.255.309c.337-.278.66-.613.942-.979l-.316-.244zm-.88.913c-.32.258-.635.464-.92.601l.173.36c.32-.153.661-.378.999-.65l-.251-.311zm-.925.603c-.284.145-.54.23-.714.275l.1.388a3.96 3.96 0 00.796-.306l-.182-.357zm-.716.276a4.023 4.023 0 01-.267.064l-.013.002h-.003l.033.198.033.197h.002l.005-.001.018-.003a3.33 3.33 0 00.297-.071l-.105-.386zm-.25.264l.153.128.003-.003a1.228 1.228 0 01.048-.056l.148-.165-.294-.27a9.124 9.124 0 00-.197.22l-.01.013a.11.11 0 01-.004.003v.001l.153.129zm.35-.094c.125-.131.313-.338.528-.567l-.292-.273c-.226.24-.397.429-.526.565l.29.275zm.528-.567c.215-.23.454-.506.706-.79l-.3-.265c-.256.29-.488.557-.698.782l.292.273zm.71-.794c.245-.293.496-.608.744-.926l-.316-.246c-.245.316-.494.627-.735.915l.307.257zm.747-.93c.239-.324.48-.65.696-.968l-.33-.225c-.211.31-.448.63-.688.955l.322.238zm.699-.972c.204-.318.404-.623.57-.894l-.341-.209c-.163.266-.359.564-.566.887l.337.216zm.57-.895l.4-.66-.342-.207-.4.66.343.207zm.4-.658c.049-.08.09-.143.117-.186l.031-.048a1.61 1.61 0 01.008-.012l.002-.003-.165-.113-.165-.113v.002l-.003.004a2.247 2.247 0 00-.044.065l-.122.194.34.21zm-.007-.362l-.198.02v.004a.743.743 0 01.006.07c.003.05.008.125.011.22l.4-.016a7.59 7.59 0 00-.019-.311v-.005-.001l-.2.019zm-.18.31c.003.173-.011.452-.075.76l.392.08c.07-.34.086-.65.082-.849l-.4.008zm-.076.767a4.654 4.654 0 01-.33 1.045l.366.16c.173-.398.299-.786.358-1.138l-.394-.067zm-.33 1.045c-.162.369-.382.747-.643 1.097l.321.239c.278-.373.514-.778.688-1.176l-.366-.16zm-2.62-3.154c-.273.215-.54.462-.806.69l.26.304c.281-.242.53-.471.794-.68l-.248-.314zm-.807.691c-.274.239-.54.493-.79.754l.289.277c.242-.253.5-.498.764-.73l-.263-.3zm-.788.752a8.848 8.848 0 00-.722.805l.317.243c.201-.261.44-.515.69-.767l-.285-.281zm-.722.804c-.21.272-.43.549-.599.847l.348.198c.152-.268.351-.52.567-.8l-.316-.245zm-.597.845c-.17.29-.307.58-.408.864l.376.135c.093-.26.218-.527.377-.797l-.345-.203zm-.409.865a3.868 3.868 0 00-.181.844l.397.047c.029-.247.072-.502.162-.758l-.378-.133zm-.183.859c-.011.264 0 .516.036.747l.395-.061a3.41 3.41 0 01-.031-.668l-.4-.018zm.037.755c.043.218.094.416.155.582l.375-.138a3.44 3.44 0 01-.137-.52l-.393.076zm.15.57c.026.087.057.162.084.224.03.068.046.104.059.138l.376-.137c-.018-.049-.047-.111-.068-.16a1.53 1.53 0 01-.067-.178l-.383.112zm.146.37l.039.094.01.024.003.007v.002l.185-.077.184-.077v-.002l-.003-.006-.01-.024-.038-.094-.37.152zm.237.05l.141-.142-.001-.001-.005-.005a2.575 2.575 0 01-.09-.09l-.283.283.072.072.018.018.005.005.001.001.142-.141zm.056-.225a.95.95 0 00-.064-.069l-.063-.061a.802.802 0 01-.114-.141l-.34.21c.056.09.117.159.169.211.062.063.083.08.105.106l.307-.256zm-.255-.292c-.1-.123-.206-.28-.299-.486l-.364.165c.109.241.234.427.351.572l.312-.251zm-.3-.487a2.602 2.602 0 01-.214-.737l-.397.054c.044.328.14.615.248.85l.364-.167zm-.214-.732a2.903 2.903 0 01.027-.93l-.391-.085a3.3 3.3 0 00-.034 1.059l.398-.044zm.028-.936c.061-.33.16-.676.321-.989l-.356-.182a4.028 4.028 0 00-.358 1.098l.393.073zm.326-.998c.296-.666.782-1.269 1.312-1.83l-.291-.274c-.54.571-1.063 1.213-1.386 1.94l.365.163zm1.306-1.825a11.349 11.349 0 011.73-1.409l-.22-.335c-.617.403-1.226.904-1.79 1.46l.28.285zm1.73-1.41c.59-.393 1.17-.708 1.683-.938l-.164-.365c-.533.24-1.133.566-1.74.97l.222.333zm1.685-.939a9.228 9.228 0 011.265-.477 6.487 6.487 0 01.46-.116l.024-.005h.005l.001-.001-.034-.197-.035-.197H18.8h-.002l-.008.002-.028.006a6.87 6.87 0 00-.493.124c-.33.096-.79.253-1.322.498l.168.363zm1.72-.796l-.11-.166h-.001l-.001.001-.006.004-.022.015-.085.057-.318.22c-.272.188-.656.46-1.106.788l.236.323a55.637 55.637 0 011.413-1l.084-.057.02-.014a.375.375 0 01.006-.003l.002-.001-.111-.167zm-1.65.92c-.446.333-.964.726-1.498 1.16l.252.31c.528-.429 1.04-.818 1.484-1.15l-.239-.32zM125.47 92.045c1.358-3.09 2.248-6.266 3.276-9.438l-.38-.123c-1.035 3.192-1.915 6.335-3.262 9.4l.366.16zm3.276-9.438c.323-.994.81-1.894 1.285-2.828l-.357-.181c-.467.92-.973 1.854-1.308 2.886l.38.123zm1.142-2.722c.335-.06.652-.214.892-.473.241-.262.393-.619.416-1.066l-.4-.02c-.018.364-.139.63-.31.814a1.182 1.182 0 01-.669.351l.071.394zm1.308-1.54c.067-1.357.492-2.588.941-3.834.447-1.238.92-2.496 1.046-3.87l-.399-.036c-.12 1.313-.572 2.52-1.023 3.77-.448 1.243-.894 2.526-.965 3.95l.4.02zm1.987-7.703c.104-1.151-.315-2.193-.708-3.17-.4-.995-.772-1.92-.675-2.905l-.398-.04c-.108 1.1.31 2.119.702 3.094.399.991.774 1.945.68 2.985l.399.036zm-1.383-6.075c.062-.632-.158-1.143-.523-1.5a2.084 2.084 0 00-1.348-.568l-.018.4c.402.018.803.178 1.087.455.28.273.454.665.404 1.173l.398.04zm-1.682-1.837c.176-1.149.446-2.181.266-3.647l-.397.049c.171 1.395-.083 2.353-.265 3.537l.396.06zm.266-3.646a63.24 63.24 0 00-2.148-10.406l-.384.114a62.753 62.753 0 012.135 10.34l.397-.048zm-2.148-10.404a45.541 45.541 0 00-.495-1.583l-.38.125c.172.52.339 1.043.491 1.569l.384-.111zm-.618-1.332c.88-.313 1.623-1.231 1.236-2.405l-.38.125c.301.913-.256 1.642-.99 1.903l.134.377zm1.237-2.404c-.716-2.19-1.312-4.458-2.561-6.474l-.34.21c1.216 1.964 1.794 4.166 2.52 6.388l.381-.124zm-2.561-6.474c-.798-1.284-1.599-2.548-2.375-3.832l-.343.207c.778 1.287 1.583 2.556 2.378 3.836l.34-.211zm-2.354-3.784a5.437 5.437 0 00-.234-.677l-.366.161c.088.2.152.408.215.627l.385-.11zm-.234-.677c-.203-.465-.488-.882-.796-1.27l-.313.25c.297.372.558.76.743 1.18l.366-.16zm-.794-1.267c-.105-.137-.224-.256-.323-.361l-.292.273c.111.118.209.215.298.332l.317-.244zm-.295-.323c-.158-.279-.317-.55-.468-.831l-.352.19c.154.286.317.565.473.838l.347-.197zm-.468-.83c-.459-.854-1.317-1.12-2.072-1.013l.055.396c.628-.088 1.302.131 1.665.806l.352-.19zm-1.936-.983a9.114 9.114 0 01-1.145-.842l-.266.299c.385.342.792.62 1.194.879l.217-.336zm-1.145-.842c-.465-.414-.875-.952-1.276-1.523-.396-.564-.788-1.168-1.205-1.68l-.31.252c.405.498.78 1.076 1.188 1.658.403.574.835 1.145 1.337 1.592l.266-.3zm-2.481-3.203a62.783 62.783 0 00-6.796-7.14l-.267.299a62.379 62.379 0 016.752 7.093l.311-.252zm-6.796-7.14a62.507 62.507 0 00-3.358-2.795l-.246.316a62.3 62.3 0 013.337 2.777l.267-.297zm-3.285-2.6c.111-.582-.069-1.207-.68-1.672l-.242.319c.487.37.613.84.529 1.279l.393.074zm-.68-1.672c-2.044-1.557-4.088-3.11-6.135-4.668l-.242.319c2.047 1.557 4.091 3.11 6.134 4.668l.243-.319zm-6.135-4.668c-.795-.605-1.67-.45-2.274.029l.248.313c.487-.386 1.159-.5 1.783-.024l.243-.318zm-2.082-.003c-.707-.257-1.417-.51-2.123-.764l-.135.377c.707.253 1.416.506 2.121.763l.137-.376zm-2.321-.424l.112.097.261-.303-.112-.097-.261.303zm.332-.234c-.951-.474-1.911-.93-2.89-1.356l-.16.366c.971.423 1.925.876 2.871 1.348l.179-.358zm-2.89-1.356a63.988 63.988 0 00-17.732-4.851l-.05.397a63.587 63.587 0 0117.622 4.82l.16-.366zM75.126 3.68a1.508 1.508 0 00-.067-.075l-.304.261.039.043.029.031.303-.26zm-.066-.074c-.101-.119-.207-.243-.313-.364l-.3.264c.103.118.207.24.307.359l.306-.259zm-.265-.205c.074-.551-.141-1.12-.749-1.524l-.22.334c.482.32.626.741.573 1.137l.396.053zm-.749-1.524c-2.07-1.37-4.56-1.71-7.059-1.536-2.498.175-5.024.867-7.182 1.58l.126.38c2.147-.71 4.635-1.39 7.084-1.56 2.45-.172 4.84.166 6.81 1.47l.221-.334zm-14.24.044c-.49.163-.825.458-1.012.823a1.751 1.751 0 00-.134 1.164l.391-.084a1.352 1.352 0 01.1-.898c.134-.263.381-.493.78-.625l-.126-.38zm-.95 1.745c-.039 0-.08.007-.097.01l.066.395a.794.794 0 01.026-.004l.005-.001v-.4zm-.09.01a63.885 63.885 0 00-16.38 4.47l.156.368A63.483 63.483 0 0158.82 4.073l-.053-.397zm-16.38 4.469c-1.404.59-2.773 1.31-4.127 1.94l.169.363c1.38-.643 2.716-1.347 4.114-1.934l-.155-.369zm-3.965 1.938a1.902 1.902 0 00-.847-.146l.021.399c.253-.013.477.033.67.115l.156-.368zm-.845-.146c-6.045.275-12.042 4.934-15.53 9.565l.32.24c3.454-4.586 9.354-9.138 15.228-9.406l-.018-.4zm-15.53 9.565c-.465.617-.476 1.292-.224 1.846l.364-.166c-.196-.43-.192-.947.18-1.44l-.32-.24zm-.205 1.647c-1.505 2.11-2.908 4.266-4.532 6.26l.31.253c1.635-2.008 3.056-4.189 4.548-6.281l-.326-.232zm-4.532 6.26c-3.422 4.205-6.211 8.72-8.397 13.697l.366.16c2.171-4.941 4.941-9.427 8.342-13.605l-.31-.252zM8.912 41.106a63.622 63.622 0 00-3.647 10.865l.39.093a63.223 63.223 0 013.623-10.796l-.366-.162zM5.461 51.819c-.823-.005-1.72.446-1.999 1.466l.386.105c.22-.806.924-1.175 1.61-1.171l.003-.4zm-1.999 1.465c-.303 1.1-.687 2.255-1.07 3.447-.382 1.19-.763 2.416-1.056 3.648-.586 2.46-.827 4.971-.015 7.308l.378-.131c-.775-2.23-.553-4.651.026-7.085.29-1.215.666-2.428 1.048-3.617.381-1.187.769-2.353 1.075-3.463l-.386-.107zm-2.14 14.403c.976 2.806 1.765 4.396 1.647 7.434l.4.016c.122-3.132-.704-4.805-1.67-7.581l-.378.131zm1.647 7.434c-.075 1.93.055 3.49 1.237 5.14l.325-.234c-1.104-1.54-1.236-2.991-1.162-4.89l-.4-.016zm1.237 5.14c.32.441.729.668 1.155.736l.063-.395c-.321-.051-.637-.22-.893-.575l-.325.234zm.992.584C8.462 94.9 16.479 107.723 28.29 116.802l.244-.318c-11.736-9.02-19.703-21.763-22.947-35.73l-.39.09zm23.02 35.845c.38 1.595 1.379 2.645 2.573 3.518.595.435 1.245.829 1.893 1.224.65.397 1.3.794 1.91 1.241l.236-.322c-.626-.459-1.29-.865-1.938-1.26-.651-.397-1.286-.783-1.865-1.206-1.156-.845-2.072-1.823-2.42-3.287l-.39.092zm6.375 5.983c2.777 2.034 5.196 4.23 9.01 3.748l-.05-.397c-3.621.458-5.895-1.602-8.723-3.673l-.237.322zm9.01 3.748c.512-.066.899-.295 1.164-.615l-.308-.255c-.199.24-.492.42-.907.473l.051.397zm.939-.555a63.5 63.5 0 0026.814 4.036l-.027-.399a63.09 63.09 0 01-26.645-4.011l-.142.374zm26.693 4.005c.181.115.39.211.636.265l.086-.39a1.584 1.584 0 01-.507-.212l-.215.337zm.636.265c3.427.762 6.535.883 9.873-.453l-.148-.371c-3.238 1.295-6.258 1.185-9.638.434l-.087.39zm9.873-.453c1.977-.792 3.853-1.85 5.683-2.961l-.208-.342c-1.824 1.108-3.678 2.152-5.624 2.932l.15.371zm5.642-2.943a63.92 63.92 0 0018.677-9.919l-.244-.317a63.552 63.552 0 01-18.56 9.857l.127.379zm18.603-9.883c3.934-.979 7.162-2.96 9.945-5.99l-.295-.271c-2.733 2.976-5.893 4.914-9.746 5.873l.096.388zm9.945-5.99c1-1.09 2.057-2.329 2.748-3.658.692-1.331 1.029-2.772.557-4.251l-.381.122c.428 1.342.133 2.669-.531 3.945-.665 1.278-1.69 2.485-2.688 3.571l.295.271zm3.278-7.733a63.894 63.894 0 006.259-11.088l-.366-.161a63.502 63.502 0 01-6.22 11.019l.327.23z" fill="#FFFFFE"/><path fill-rule="evenodd" clip-rule="evenodd" d="M69.667 16.427c.376-.45.811-1.05 1.11-1.841.063-.201.155-.398.17-.628.018-.11.033-.222.051-.336.008-.115-.01-.23-.01-.349.01-.238-.093-.463-.152-.693-.122-.21-.214-.44-.391-.607-.63-.76-1.648-1.128-2.689-1.33-1.058-.196-2.201-.184-3.36-.004-1.154.185-2.327.53-3.44 1.055-1.107.537-2.176 1.238-2.999 2.207-.21.238-.42.475-.586.75-.196.259-.34.534-.48.808-.154.247-.258.616-.387.928-.103.262-.188.623-.284.93-.144.636-.247 1.285-.214 1.892.022.61.229 1.16.612 1.53.38.381.911.582 1.446.68a6.184 6.184 0 001.627.05c1.073-.086 2.083-.357 2.998-.64a18.552 18.552 0 002.449-.985c.712-.34 1.313-.693 1.8-.996.486-.304.848-.583 1.091-.771.24-.202.37-.308.37-.308s.117-.12.338-.34c.23-.214.557-.542.93-1.002z" fill="#181918"/><path fill-rule="evenodd" clip-rule="evenodd" d="M93.056 13.65C82.19 8.98 70.46 8.398 59.338 11.17c2.383.59 4.751 1.308 7.066 2.3 25.036 10.762 35.361 41.79 23.063 69.304C77.837 108.796 50.149 122.323 26 114.62c4.634 4.88 10.205 8.919 16.7 11.709 28.309 12.167 62.53-3.191 76.437-34.307 13.906-31.116 2.229-66.205-26.08-78.372z" fill="#FFFFFE"/><path d="M93.056 13.65C82.19 8.98 70.46 8.398 59.338 11.17c2.383.59 4.751 1.308 7.066 2.3 25.036 10.762 35.361 41.79 23.063 69.304C77.837 108.796 50.149 122.323 26 114.62c4.634 4.88 10.205 8.919 16.7 11.709 28.309 12.167 62.53-3.191 76.437-34.307 13.906-31.116 2.229-66.205-26.08-78.372" stroke="#979797"/></svg>