<svg width="384" height="1164" fill="none" xmlns="http://www.w3.org/2000/svg"><path fill-rule="evenodd" clip-rule="evenodd" d="M289.004 251.143c-.002.005.002.008.002.008l.005.002-.007-.01zM196.534 184.374c-.005-.003-.005-.003-.008.002l.008-.002zM200.117 184.684s-.003.004-.008.002l.008-.002zM212.528 166.778s.002-.005-.002-.007l.002.007zM288.761 213.155c-.004-.003-.004-.003-.012-.001l.012.001zM206.365 205.587l.504-.739-.878.548.374.191z" fill="#fff"/><path fill-rule="evenodd" clip-rule="evenodd" d="M153.813 253.539c-1.058-.749-1.891-1.664-2.408-2.908-.612-1.461-.985-2.947-.921-4.547.042-.896.168-1.764.52-2.593.668-1.572 1.082-3.253 1.989-4.606.766-1.739 1.864-3.148 2.911-4.583.189-.261.49-.479.785-.63.53-.283 1.101.029 1.209.616.073.409.071.8-.069 1.212-.747 2.127-1.463 4.263-2.205 6.394a35.52 35.52 0 01-.629 1.732c-.842 2.079-.73 4.133.071 6.159.223.569.519 1.105.761 1.663.253.605.152 1.191-.221 1.744-.382.569-1.239.749-1.793.347m114.603-16.737c-.757 1.142-1.561 2.238-2.313 3.382-.458.692-1.043 1.262-1.648 1.816-.904.835-1.942.874-3.025.532a2.917 2.917 0 01-.733-.338c-2.179-1.335-4.188-2.891-5.847-4.871a1.921 1.921 0 01-.333-.506c-.341-.846-1.106-1.138-1.87-1.401-.229-.075-.543-.025-.784.063-.869.328-1.235 1.073-1.017 1.969.232.937.626 1.818 1.256 2.524 1.413 1.61 2.73 3.325 4.385 4.722.462.389.87.842 1.287 1.279.228.242.419.514.627.768-.107.141-.172.269-.279.355-1.617 1.243-3.286 2.41-5.168 3.237-2.059.913-4.162 1.663-6.295 2.334-1.186.37-2.4.424-3.611.402-1.952-.027-3.902-.047-5.844-.343-1.257-.192-2.538-.27-3.813-.373-3.234-.254-6.379-.932-9.481-1.819-1.089-.316-2.115-.867-3.144-1.356a26.81 26.81 0 01-4.961-3.082c-1.339-1.039-2.517-2.242-3.332-3.743a12.426 12.426 0 00-1.207-1.862c-.671-.847-1.236-1.765-1.587-2.812-.088-.255-.164-.519-.305-.752-.831-1.333-1.221-2.856-1.728-4.327-1.057-3.081-1.822-6.252-2.559-9.423a9.89 9.89 0 01-.199-1.209c-.234-2.312-.342-4.622-.181-6.936.068-1.016.257-2.034.501-3.024.397-1.661.892-3.294 1.32-4.946.192-.736.485-1.421.816-2.099 1.143-2.353 2.718-4.423 4.223-6.536 1.044-1.471 2.467-2.568 3.906-3.586 1.672-1.173 3.416-2.239 5.268-3.117a16.169 16.169 0 013.854-1.266c2.061-.393 4.125-.763 6.181-1.187 1.6-.327 3.212-.458 4.826-.595a5.975 5.975 0 011.809.116c1.436.325 2.9.58 4.338.9 1.509.334 2.965.866 4.442 1.331.508.161 1.024.305 1.532.466.383.117.762.255 1.133.409.316.125.605.329.921.413 1.809.473 3.22 1.619 4.681 2.693.921.673 1.82 1.376 2.753 2.026 1.495 1.05 2.807 2.292 3.99 3.68a49.64 49.64 0 002.585 2.837c1.762 1.767 3.36 3.66 4.86 5.664a13.719 13.719 0 012.256 4.505c.445 1.565.883 3.133 1.409 4.677.321.955.505 1.973.666 2.98.097.596.073 1.221.019 1.824a86.077 86.077 0 01-.472 4.068 12.005 12.005 0 01-.672 2.573c-.577 1.534-1.122 3.085-1.937 4.519-.473.831-.97 1.642-1.499 2.445m-75.913-23.358c-.405.354-.841.699-1.316.969-1.407.804-2.83 1.599-4.275 2.34-.907.47-1.855.842-2.789 1.242-.996.424-1.997.846-3.007 1.242-1.256.495-2.523.97-3.791 1.445-1.094.41-2.232.481-3.377.563a2.515 2.515 0 01-1.237-.259c-.658-.321-.936-1.044-.706-1.62.151-.379.374-.735.728-.961.969-.62 1.927-1.26 3.051-1.591 1.682-.502 3.306-1.209 5.051-1.49.266-.039.523-.132.768-.239 2.3-1.014 4.586-2.028 6.878-3.053.991-.441 1.97-.902 3.062-1.032.495-.063.928.039 1.329.327.242.173.401.618.341.902-.113.483-.347.902-.71 1.215m81.47 104.704c.417-.86.848-1.733 1.145-2.633.485-1.434 1.123-2.797 1.795-4.143.635-1.288 1.284-2.576 1.903-3.872.323-.676.627-1.369.9-2.07.728-1.843 1.434-3.697 2.154-5.551.982-2.547 1.986-5.097 2.946-7.656.39-1.027.568-2.093.329-3.209-.277-1.332-.34-2.695-.359-4.064-.016-.947-.128-1.901-.191-2.851-.032-.338-.069-.679-.072-1.017-.042-3.321-.917-6.443-2.057-9.511-.591-1.584-1.19-3.164-1.571-4.829a27.7 27.7 0 00-2.363-6.486 23.027 23.027 0 01-1.212-2.79c-.9-2.574-1.549-5.217-1.399-7.992.215-4.157.173-8.319.239-12.474.043-2.606.325-5.173 1.03-7.686.447-1.58.933-3.154 1.366-4.734.493-1.795 1.223-3.475 2.103-5.107.98-1.813 1.924-3.637 2.85-5.47.644-1.29 1.527-2.431 2.318-3.625.15-.225.361-.405.552-.601.302-.316.672-.478 1.094-.466.806.032 1.613.101 2.424.135 1.597.078 3.077-.373 4.453-1.185.949-.553 1.831-1.196 2.559-2.031.8-.923 1.581-1.877 2.373-2.812a13.96 13.96 0 001.897-2.922c.303-.609.623-1.223 1.041-1.767.979-1.246 1.709-2.639 2.451-4.026.32-.601.632-1.213 1.033-1.765 1.208-1.682 2.068-3.549 2.942-5.402.567-1.21.635-2.514.358-3.818-.404-1.866-1.858-3.188-3.833-3.298a4.91 4.91 0 00-3.082.826c-2.531 1.674-4.687 3.7-6.207 6.407-1.073 1.913-2.488 3.587-4.159 5.034-2.093 1.806-4.416 1.912-6.832.989-.873-.326-1.641-.872-2.381-1.487-1.753-1.467-3.678-2.707-5.523-4.047-1.595-1.156-3.284-2.101-5.032-2.97-3.195-1.586-6.396-3.161-9.591-4.747a15.47 15.47 0 00-2.056-.83 55.008 55.008 0 01-4.143-1.572c-1.417-.624-2.797-1.334-4.171-2.041-.714-.364-1.43-.764-2.07-1.244a15.9 15.9 0 00-2.407-1.479c-3.321-1.643-6.46-3.599-9.673-5.44-.287-.167-.549-.384-.819-.585-.49-.348-.985-.698-1.47-1.057-.709-.509-1.442-.987-2.104-1.549-.809-.685-1.24-1.591-1.185-2.691.013-.274.032-.545.064-.815.363-3.22.597-3.942 2.185-6.755.136-.239.277-.475.421-.703.848-1.333 1.501-2.766 2.159-4.196.59-1.255.859-2.596 1.106-3.934.287-1.529-.236-2.818-1.281-3.897-.188-.194-.442-.316-.626-.508-.927-1.005-2.105-1.367-3.433-1.462-1.264-.083-2.252.38-3.063 1.312-.31.36-.562.771-.789 1.188-.911 1.694-1.834 3.367-2.688 5.083-.649 1.302-1.337 2.583-2.303 3.639-1.353 1.469-2.351 3.167-3.447 4.808a25.108 25.108 0 00-2.892 5.869c-.571 1.657-.711 3.337-.406 5.041.267 1.474.551 2.957 1.146 4.325.827 1.92.99 3.944 1.013 5.994.014 1.254-.291 2.43-.885 3.543-.609 1.153-1.177 2.322-1.766 3.479-1.088 2.135-2.204 4.243-3.641 6.18-3.09 4.163-7.76 7.718-11.856 10.92-4.342 3.393-9.214 5.954-14.599 7.246-3.65.879-7.115 1.118-10.599 2.705-3.895 1.771-7.734 4.095-11.934 5.241-3.147.855-7.589.463-8.216 4.354.24-.278.551-.406.906-.358.265.03.531.102.779.193.368.132.72.297 1.077.451.151.007.296-.003.453.021.676.092 1.079.431 1.292.854.32.184.649.352.956.564.668.467 1.362.855 2.098 1.202 1.575.754 3.136 1.535 4.712 2.303.543.27 1.084.532 1.651.757.94.374 1.821.837 2.681 1.381.853.532 1.742 1.02 2.659 1.439 2.998 1.38 5.877 2.98 8.779 4.535.95.506 1.852 1.091 2.936 1.321.38.082.731.331 1.079.529.984.578 1.97 1.165 2.948 1.754.284.173.61.318.838.561.711.754 1.637 1.156 2.535 1.613 2.696 1.367 5.394 2.742 8.096 4.111.897.458 1.789.926 2.562 1.6.05.04.106.082.159.116 2.4 1.23 4.478 2.969 6.904 4.162 2.899 1.422 5.759 2.921 8.634 4.392.655.341 1.321.674 1.948 1.056 2.942 1.766 5.873 3.553 8.801 5.332.459.283.882.625 1.336.905.68.431 1.362.87 2.076 1.247 2.849 1.508 5.72 2.985 8.568 4.506 1.782.943 3.478 2.038 5.409 2.686.695.235 1.333.637 2.002.95 1.224.561 2.457 1.105 3.673 1.668 1.339.626 2.683 1.255 4.007 1.909.421.207.808.482 1.175.767.963.757 2.019 1.316 3.175 1.736 1.071.378 2.117.848 3.177 1.276.622.254 1.23.522 1.895.664.522.119 1.021.353 1.495.594a448.794 448.794 0 016.298 3.202c.714.363 1.407.78 2.101 1.196.919.553 1.839 1.12 2.852 1.502.823.315 1.538.826 2.24 1.352.459.353.604 1.597.034 2.028-.096.077-.239.152-.351.137-.193-.008-.408-.04-.578-.134-1.7-.95-3.391-1.917-5.125-2.8-1.9-1.151-3.786-2.315-5.701-3.437-1.337-.78-2.714-1.482-4.074-2.217a1.498 1.498 0 00-.38-.137c-1.762-.456-3.376-1.272-4.999-2.084-1.321-.66-2.711-1.186-4.097-1.689a28.042 28.042 0 01-3.495-1.563c-2.784-1.496-5.677-2.767-8.574-4.026-1.292-.567-2.512-1.287-3.752-1.968-.998-.55-1.982-1.142-2.968-1.715a97.38 97.38 0 01-1.73-1.029c-1.034-.632-2.073-1.252-3.104-1.889-.975-.595-1.933-1.224-2.911-1.813-2.309-1.38-4.63-2.738-7.07-3.876-1.158-.54-2.321-1.07-3.466-1.633a148.164 148.164 0 01-3.953-2.014c-.714-.378-1.439-.747-2.099-1.202-1.222-.84-2.524-1.552-3.842-2.217-1.857-.946-3.719-1.895-5.573-2.847-1.017-.525-2.01-1.073-2.914-1.793-.526-.415-1.134-.724-1.73-1.028-2.869-1.483-5.751-2.938-8.62-4.42-1.014-.517-2.063-.968-2.888-1.815-.273-.279-.686-.42-1.031-.624-.872-.507-1.736-1.017-2.608-1.525a6.945 6.945 0 00-.725-.355c-3.102-1.3-6.031-2.968-9.033-4.477-.301-.153-.605-.315-.85-.538-1.387-1.232-3.024-1.975-4.775-2.51a10.285 10.285 0 01-1.682-.682c-2.877-1.451-5.74-2.917-8.614-4.375-.219.141-.46.256-.738.304-2.167.367-5.161 1.006-7.645 2.186-1.54 1.107-2.983 2.354-4.228 3.723-.031.033-.068.022-.099.055-.156.418-.316.841-.539 1.224-.487.817-.985 1.657-1.608 2.369-1.426 1.627-2.328 3.536-3.238 5.447-.559 1.179-1.093 2.365-1.66 3.533-.573 1.165-1.137 2.342-1.766 3.479-.869 1.568-1.031 3.25-.986 4.969.017.751.253 1.474.702 2.095.471.646.928 1.307 1.551 1.848.76.66 1.477 1.376 1.946 2.302.243.46.202.789-.267.978-.886.347-1.45.984-1.83 1.827-.165.379-.374.735-.522 1.122-.361.887-.602 1.815-.642 2.776-.018.558.048 1.118.412 1.548.78.923 1.512 1.898 2.531 2.586 1.114.749 2.191 1.557 3.39 2.182 1.435.739 2.86 1.499 4.278 2.271.834.446 1.693.856 2.458 1.393 2.445 1.708 5.181 2.857 7.79 4.256.424.23.885.318 1.366.283.873-.06 1.755-.108 2.628-.196a3.194 3.194 0 002.116-1.093c.798-.89 1.347-1.899 1.712-3.016.263-.805.249-1.618-.199-2.364-.1-.177-.216-.349-.268-.55-.027-.098.027-.274.103-.354.079-.086.256-.171.345-.14.561.209 1.13.429 1.674.685 4.143 1.957 8.035 4.368 11.969 6.708 2.538 1.511 4.924 3.294 7.518 4.721.176.096.346.218.499.345.773.66 1.665 1.142 2.562 1.6 2.035 1.051 4.042 2.143 5.992 3.347.229.144.46.283.7.405l12.722 6.609c.357.182.713.392 1.104.479 1.129.266 2.132.82 3.158 1.314 1.938.953 3.861 1.919 5.794 2.868.546.265 1.104.493 1.662.735.429.191.876.348 1.288.572 3.615 1.934 7.233 3.875 10.851 5.816.061.032.106.082.164.119.195.128.249.505.077.719-.172.213-.336.452-.552.587-.408.248-.848.423-1.277.632-1.257.62-2.209 1.564-2.914 2.782-.322.564-.41 1.122-.367 1.767.103 1.426.593 2.642 1.604 3.634.242.228.442.512.703.715 1.252 1.017 2.262 2.33 3.768 3.013 1.101 1.023 2.445 1.652 3.749 2.345.535.286 1.051.612 1.569.918.694.417 1.379.85 2.081 1.236 1.544.828 3.088 1.643 4.65 2.439 1.254.639 2.455 1.398 3.885 1.636.196.03.382.146.552.24.678.38 1.391.428 2.152.381 1.556-.09 2.886-.771 4.081-1.683 1.602-1.229 2.516-2.858 2.318-4.963-.021-.207.011-.407.015-.608.007-.249.384-.478.609-.369 1.088.526 2.184 1.035 3.262 1.592 1.26.656 2.586.645 3.944.461.263-.034.53-.13.771-.245 1.176-.599 2.18-1.383 2.789-2.607.698-1.41 1.443-2.803 2.134-4.216" fill="#000"/><path fill-rule="evenodd" clip-rule="evenodd" d="M158.599 136.261c.746-.71 1.493-1.435 2.261-2.12 1.492-1.336 3.071-2.543 4.88-3.405.736-.348 1.432-.808 2.154-1.183 1.277-.667 2.55-1.329 3.843-1.959 1.332-.653 2.727-.77 4.147-.458.855.188 1.403.716 1.739 1.524.48 1.144-.264 2.698-1.371 3.062-1.097.355-2.199.721-3.311 1.039-2.114.609-4.013 1.717-5.895 2.832-.872.519-1.63 1.252-2.412 1.923-1.248 1.078-2.474 2.181-3.508 3.496-1.198 1.528-2.332 3.082-3.184 4.837a12.883 12.883 0 00-1.137 3.535c-.453 2.644-.207 5.206.629 7.707.261.777.662 1.485 1.109 2.158a666.024 666.024 0 001.991 3.047c.293.454.608.877 1.051 1.216.865.66 1.389 1.621 1.952 2.546.216.343-.104.917-.514.899-.394-.023-.783-.123-1.006-.165-.324-.187-.516-.263-.671-.385-.911-.804-1.908-1.468-2.967-2.05-.782-.426-1.303-1.173-1.793-1.884-.992-1.454-1.996-2.886-3.123-4.226-.295-.355-.526-.792-.7-1.22a17.102 17.102 0 01-1.111-4.978 6.81 6.81 0 01.049-1.236c.199-1.789.576-3.517 1.299-5.195.768-1.783 1.626-3.52 2.486-5.249.78-1.586 1.855-2.915 3.113-4.108zM313.13 204.39c.21-.233.486-.227.751-.156.91.244 1.474.836 1.75 1.763.662 2.185.486 4.327-.443 6.424-.837 1.904-1.968 3.629-3.315 5.216-2.188 2.568-4.247 5.251-5.853 8.25a3.398 3.398 0 01-.907 1.11c-.139.107-.248.115-.322-.001-.041-.056-.082-.112-.092-.174-.018-.13-.041-.276-.017-.406.181-.877.396-1.752.547-2.624.121-.704.405-1.317.798-1.895.538-.796 1.06-1.614 1.645-2.378 1.056-1.374 1.852-2.909 2.645-4.438.974-1.883 1.355-3.892 1.446-5.963.034-.754.041-1.509.09-2.263.025-.405.108-.816.161-1.193.394-.444.748-.865 1.116-1.272zm-6.054 32.071c.516.085.864.39 1.048.852.246.628.494 1.265.645 1.93.296 1.298.924 2.383 1.772 3.367.569.665 1.074 1.376 1.626 2.047a12.22 12.22 0 003.01 2.624c1.989 1.226 4.018 2.387 5.859 3.849.475.384.897.804 1.195 1.331.068.113-.069.341-.119.549-1.363-.369-2.545-.971-3.718-1.618-2.063-1.136-3.85-2.635-5.64-4.156-1.746-1.484-3.104-3.317-4.401-5.202-.266-.384-.481-.812-.685-1.235-.59-1.228-.759-2.596-1.128-3.903-.069-.248.252-.481.536-.435zm-208.893-81.26s-.003-.008-.002-.022c.092-2.623.483-6.517 1.052-9.089.463-2.101 1.051-4.146 2.178-6.015.145-.23.268-.486.38-.733.345-.774.879-1.408 1.459-1.998.817-.837 1.674-1.64 2.525-2.446.853-.797 1.748-1.552 2.747-2.169 1.464-.884 2.93-1.772 4.426-2.611a23.374 23.374 0 019.476-2.933c.671-.055 1.345-.158 2.014-.235 2.695-.312 5.374-.371 8.058.055 1.591.251 3.168.516 4.735.897 2.477.611 4.888 1.393 7.151 2.588 1.368.718 2.767 1.36 4.29 1.704.259.054.503.179.756.272.15.063.257.386.149.516-.924 1.101-1.813 2.256-2.79 3.309-1.189 1.264-2.301 2.595-3.136 4.11-1.264 2.302-2.453 4.65-3.647 6.994-.312.613-.6 1.26-.768 1.918-.723 2.819-1.346 5.632-1.098 8.562.089 1.101.212 2.176.452 3.24.166.744.501 1.403.912 2.037a19.405 19.405 0 007.552 6.781c3.634 1.851 7.268 3.731 10.914 5.574.835.419 1.707.792 2.591 1.073 1.538.479 3.094.882 4.649 1.285a442.77 442.77 0 008 1.994 17.1 17.1 0 002.58.408c.937.081 1.882.052 2.831.068.801.019 1.628-.041 2.417.085 1.728.271 3.484.281 5.227.397.734.041 1.491.037 2.21.191 2.4.487 4.817.379 7.241.163.869-.075 1.74-.289 2.587-.538 1.715-.5 3.012-1.673 3.911-3.177 1.932-3.243 3.311-6.705 3.584-10.504.191-2.693.861-5.298 1.484-7.919.354-1.477.889-2.911 1.918-4.094.839-.96 1.773-1.71 3.111-1.743 1.081-.023 2.154-.128 3.233-.215 1.756-.154 3.5-.477 5.131-1.182 1.466-.641 2.721-1.581 3.458-3.111.714-1.498 1.507-2.957 2.183-4.475.589-1.336 1.362-2.564 2.176-3.764.304-.461.656-.891.961-1.352.365-.564.879-.862 1.493-.995.672-.154 1.311-.161 1.981.074.951.329 1.908.618 2.83 1.017.93.41 1.8.896 2.409 1.759a3.8 3.8 0 00.686.725c1.091.931 1.313 2.156 1.077 3.523a11.6 11.6 0 01-.464 1.803c-.435 1.238-.953 2.447-1.635 3.579a39.217 39.217 0 00-1.576 2.929c-.519 1.06-.285 2.356.618 2.957 1.005.661 1.831 1.563 2.947 2.075.541.241 1.013.644 1.529.963.731.458 1.468.933 2.23 1.342 1.237.673 2.494 1.306 3.753 1.934 3.948 1.976 7.81 4.149 11.97 5.681 2.525 1.244 5.229 2.083 7.719 3.409.291.155.605.294.934.362.54.106.995.366 1.452.648.975.596 1.965 1.15 2.951 1.723.696.405 1.389.8 2.079 1.215 1.327.783 2.658 1.56 3.971 2.357 1.726 1.028 3.43 2.087 4.985 3.368 1.396 1.158 2.89 2.174 4.525 2.971 1.021.507 2.056.97 3.098 1.423.302.133.639.213.968.239 1.42.121 2.659-.253 3.627-1.453.914-1.135 2.028-2.047 3.278-2.798.94-.556 1.907-1.083 2.814-1.697 1.175-.796 2.477-1.117 3.826-1.322.408-.061.807-.021 1.176.16.361.17.724.348 1.074.54 1.07.588 1.712 1.481 1.858 2.731.052.473.085.957.129 1.433.152 1.897-.181 3.689-1.161 5.365-.631 1.073-1.267 2.144-1.876 3.229-.946 1.692-1.875 3.393-2.81 5.091-.509.93-.726 1.932-.756 2.979-.039 1.035-.044 2.06.167 3.073.097.468.172.938.227 1.419.068.552.014 1.098-.222 1.615-.707 1.58-1.459 3.152-2.474 4.554-1.211 1.678-2.643 3.186-4.051 4.7-.232.25-.508.463-.784.662-2.044 1.501-3.522 3.468-4.673 5.714-.453.888-.699 1.825-.678 2.785.021 1.646.019 3.296.369 4.912.488 2.224 1.271 4.309 2.397 6.256.74 1.291 1.553 2.534 2.262 3.844 1.064 1.973 2.415 3.723 3.876 5.396 1.995 2.27 3.999 4.537 5.777 6.987a43.765 43.765 0 004.304 5.062c1.183 1.19 2.38 2.352 3.599 3.512.927.869 1.917 1.656 3.065 2.241 1.071.546 2.124 1.139 3.069 1.904a6.38 6.38 0 001.011.65c2.069 1.11 4.124 2.235 6.207 3.304 1.67.851 3.374 1.634 5.062 2.451 1.576.761 3.242 1.263 4.94 1.633.719.153 1.464.2 2.198.199 1.592-.011 3.067-.477 4.381-1.465.769-.578 1.531-1.168 2.29-1.765 1.142-.898 2.105-1.966 2.975-3.137 1.54-2.063 2.756-4.311 3.758-6.676a67.5 67.5 0 001.282-3.285c.979-2.73 2.075-5.415 2.77-8.248a59.176 59.176 0 001.298-6.895c.175-1.441.314-2.879.539-4.308.31-1.981.456-3.967.353-5.96-.102-2.049-.017-4.123-.547-6.129-.154-.588-.199-1.213-.25-1.827-.21-2.494-.887-4.828-1.97-7.051a70.186 70.186 0 01-2.794-6.545 16.604 16.604 0 00-1.816-3.623c-1.227-1.858-2.445-3.718-3.729-5.533-1.127-1.602-2.336-3.124-3.505-4.683-1.705-2.264-3.475-4.455-5.683-6.238-.152-.127-.273-.288-.416-.432-2.405-2.358-5-4.452-7.91-6.134-.233-.132-.471-.268-.67-.44-1.194-.977-2.556-1.706-3.758-2.68-1.398-1.137-2.915-2.123-4.237-3.37a4.78 4.78 0 00-.616-.505c-1.772-1.2-3.37-2.659-5.267-3.668a2.144 2.144 0 01-.489-.355c-.579-.579-1.286-.946-1.985-1.344a1551.729 1551.729 0 01-6.585-3.865 6.48 6.48 0 01-.504-.328c-2.066-1.499-4.147-2.956-6.402-4.14-.474-.249-.911-.571-1.357-.862-2.196-1.423-4.541-2.583-6.837-3.823-.707-.382-1.437-.718-2.13-1.114-1.228-.689-2.419-1.452-3.659-2.105a1367.104 1367.104 0 00-11.955-6.191c-.768-.398-1.553-.833-2.385-1.052-1.119-.287-2.143-.773-3.144-1.304-3.73-1.979-7.684-3.477-11.481-5.312a7.59 7.59 0 00-.936-.371c-1.218-.394-2.373-.925-3.516-1.48-.902-.438-1.829-.825-2.737-1.253-1.035-.477-2.048-1-3.086-1.459-1.23-.548-2.297-1.376-3.464-2.034-1.569-.898-3.127-1.819-4.69-2.715-.635-.373-1.292-.701-2.004-.922a10.04 10.04 0 01-1.67-.674c-1.187-.619-2.354-1.277-3.53-1.919-4.251-2.3-8.608-4.322-13.367-5.38-.543-.114-1.063-.301-1.591-.471l-9.06-2.052c-.618-.131-1.219-.296-1.829-.43-5.824-1.31-11.693-2.424-17.653-3.017l-9.649-.773c-2.347-.056-4.632.395-6.896 1.026-1.639.46-3.225 1.104-4.697 1.99-.937.578-1.844 1.192-2.754 1.798a31.006 31.006 0 00-2.961 2.245 93.285 93.285 0 00-4.591 4.155 1.765 1.765 0 01-1.082.518c-1.831.193-3.639.093-5.377-.488-.695-.24-1.338-.625-2.024-.882-.742-.286-1.524-.479-2.275-.763-1.564-.591-3.088-1.304-4.684-1.792-3.004-.921-5.987-1.938-9.171-2.137-.131-.003-.262-.048-.398-.068a13.614 13.614 0 00-3.416-.182c-1.548.117-3.092.294-4.64.411-2.918.213-5.744.905-8.511 1.917-.965.358-1.878.807-2.748 1.362-3.123 2-6.212 4.044-9.129 6.354-1.569 1.255-2.98 2.695-4.041 4.393-1.58 2.524-2.98 5.146-3.698 8.08-.755 3.072-1.36 6.701-1.401 9.896l.554.133 4.532 1.268z" fill="#000"/><path fill-rule="evenodd" clip-rule="evenodd" d="M211.48 202.389c.615 2.181 1.706 3.979 3.709 4.846l.694.353c1.686.88 3.389.744 5.085-.014a4.124 4.124 0 001.715-1.415c.971-1.38 1.594-2.867 1.513-4.586-.028-.471-.003-.949.006-1.423.003-.047.059-.117.104-.136.059-.019.146-.024.202.005.115.065.238.128.33.224 1.047 1.152 2.385 1.693 3.91 1.88 1.46.175 2.817-.179 4.137-.778a4.382 4.382 0 001.739-1.396c.934-1.237 1.417-2.641 1.524-4.18.113-1.48-.485-2.628-1.531-3.603-1.227-1.131-2.741-1.684-4.293-2.166a1.411 1.411 0 00-.4-.043c-1.526-.033-2.942.257-4.16 1.321-.734.638-1.355 1.346-1.849 2.176-.615 1.027-.953 2.119-.769 3.322.043.275.097.541.107.813-.001.112-.094.24-.165.337-.023.031-.149.029-.194-.007-1.25-.933-2.7-1.517-4.059-2.251a3.62 3.62 0 00-2.351-.405c-1.468.228-2.701.878-3.559 2.161-.541.799-.936 1.671-1.304 2.558a3.559 3.559 0 00-.141 2.407M258.54 218.005c.298 1.301 1.007 2.344 1.951 3.165.988.844 2.059 1.553 3.367 1.928 1.515.425 2.855.136 4.149-.773 1.278-.889 2.136-2.118 2.699-3.57.323-.836.459-1.731.51-2.621a3.25 3.25 0 00-.174-1.195 32.14 32.14 0 00-.973-2.412c-.508-1.131-1.293-1.985-2.512-2.521-.792-.574-1.851-.716-2.87-.909-.916-.169-1.84.013-2.703.475-.973.518-1.837 1.199-2.531 2.065-1.134 1.409-1.743 2.979-1.285 4.795.139.518.25 1.049.372 1.573M236.838 197.178c.031.871.225 1.684.641 2.424 1.087 1.937 2.653 3.308 4.632 4.16.882.383 1.859.479 2.822.159.796-.271 1.607-.543 2.344-.963 1.8-1.031 2.901-2.664 3.009-4.737.13-2.686-.814-4.848-3.681-6.293-.619-.382-1.785-.635-3.052-.663-1.272-.031-2.469.289-3.642.785-.798.33-1.46.893-1.894 1.69-.315.576-.599 1.16-.88 1.754-.259.537-.32 1.115-.299 1.684M216.081 220.151c.65-.247 1.164-.72 1.565-1.301.238-.343.434-.714.643-1.071.871-1.489.994-3.047.421-4.587a9.755 9.755 0 00-1.989-3.262 4.575 4.575 0 00-1.459-1.036c-1.529-.679-3.092-.783-4.716-.219-1.426.494-2.522 1.355-3.138 2.797-.084.192-.18.379-.269.569-.649 1.396-.665 2.801-.222 4.225a7.729 7.729 0 001.829 3.123c.956.965 2.125 1.582 3.578 1.559 1.302-.029 2.544-.338 3.757-.797M237.785 244.914c-.347-1.31-1.119-2.307-1.936-3.268-1.044-1.212-2.483-1.703-3.972-1.948-1.576-.259-3.085.309-4.303 1.645-.585.639-1.099 1.381-1.545 2.136a8.332 8.332 0 00-.894 2.008c-.484 1.672-.144 3.182.856 4.334 1.509 1.728 3.535 2.39 5.839 2.318 1.686-.048 3.171-.704 4.422-2.091.342-.377.71-.726 1.018-1.143.544-.72.884-1.521.793-2.437-.032-.273-.027-.55-.036-.826-.082-.239-.17-.48-.242-.728" fill="#000"/><path fill-rule="evenodd" clip-rule="evenodd" d="M237.98 247.066c-.032-.223-.038-.45-.055-.677.017.227.023.454.055.677" fill="#fff"/><path fill-rule="evenodd" clip-rule="evenodd" d="M237.944 246.714c.005.014.009.029.019.046l-.021-.065c.002.007.004.014.002.019" fill="#fff"/><path fill-rule="evenodd" clip-rule="evenodd" d="M219.92 225.974c-.224-1.038-.712-1.916-1.4-2.692-.651-.751-1.46-1.235-2.413-1.367-2.035-.271-4.046-.176-5.999.772-2.036.999-2.918 2.717-3.241 4.857-.02.134-.002.28.02.415.189 1.425.747 2.662 1.767 3.615.737.694 1.537 1.29 2.473 1.73 1.098.524 2.21.592 3.368.279 2.172-.591 3.773-1.978 4.908-3.957.739-1.162.787-2.387.517-3.652M246.801 238.456c-1.226-.106-2.442-.122-3.692.287-1.281.416-2.255 1.194-2.967 2.427-1.202 2.082-1.229 2.121-1.681 4.761-.008.057-.039.118-.058.169.152.131.245.308.358.472.313.435.556.925.825 1.39.43.731.974 1.321 1.708 1.703.712.37 1.454.695 2.178 1.056 1.369.682 2.768.532 4.181-.183a7.884 7.884 0 003.327-3.106c.857-1.433 1.164-2.849.835-4.414-.289-1.407-.951-2.484-2.111-3.175-.691-.412-1.42-.776-2.144-1.137-.234-.12-.495-.23-.759-.25" fill="#000"/><path fill-rule="evenodd" clip-rule="evenodd" d="M237.942 246.695l.021.065c0-.012.005-.022.01-.031-.012-.013-.017-.027-.031-.034" fill="#fff"/><path fill-rule="evenodd" clip-rule="evenodd" d="M226.28 235.686c-.266-.583-.667-1.045-1.177-1.434-.94-.737-2.043-1.125-3.109-1.615-.95-.446-1.893-.426-2.838-.004-.786.351-1.564.743-2.269 1.249-1.151.825-2.038 1.913-2.281 3.383a9.646 9.646 0 00.003 3.256 5.5 5.5 0 001.265 2.64c.564.651 1.274 1.044 1.73 1.284.528.268.769.406 1.022.52 1.694.788 3.362.636 4.986-.51a9.466 9.466 0 002.205-2.115 5.586 5.586 0 001.01-2.422 7.133 7.133 0 00-.547-4.232M248.699 205.251c.208 1.531.749 2.918 1.898 3.951.519.474 1.128.829 1.63 1.189.614.245 1.127.484 1.658.658.678.219 1.382.287 2.091.111 2.12-.509 3.752-1.729 4.886-3.621.255-.429.45-.941.497-1.425.096-.854.136-1.729.054-2.583-.104-1.172-.589-2.218-1.441-3.01-1.157-1.089-2.567-1.725-4.107-2.063a2.38 2.38 0 00-1.052-.021c-2.004.441-3.765 1.334-4.974 3.128-.663.982-.93 2.115-1.156 3.253-.028.142-.006.288.016.433" fill="#000"/><path fill-rule="evenodd" clip-rule="evenodd" d="M233.211 233.721l-.018.034.705.36c2.15 1.159 4.491 1.455 6.934 1.228.335-.037.666-.091.989-.185 1.437-.416 2.813-1.022 4.178-1.647.121-.061.228-.164.343-.242.462-.325.434-1.107-.046-1.395-.235-.134-.489-.242-.758-.134-.564.229-1.129.472-1.672.755-1.622.832-3.316 1.211-5.081 1.123-.395-.022-.792-.095-1.191-.083-1.032.041-1.98-.248-2.848-.733-2.02-1.115-3.96-2.348-5.641-3.966-.244-.224-.459-.477-.686-.708-1.676-1.737-2.876-3.827-4.045-5.937a4.585 4.585 0 01-.533-2.777c.113-1.034.246-2.079.715-3.039.401-.815.795-1.641 1.251-2.428.952-1.639 2.06-3.178 3.387-4.527 1.336-1.365 2.855-2.414 4.743-2.701.464-.073.926-.196 1.38-.331.192-.053.364-.159.538-.257.056-.029.113-.115.111-.166.002-.057-.054-.135-.104-.16-.235-.12-.46-.285-.708-.311-1.205-.176-2.406-.063-3.542.492-1.672.821-3.22 1.834-4.387 3.393-.757 1.014-1.525 2.008-2.247 3.033-1.092 1.562-1.913 3.254-2.414 5.102-.619 2.297-.283 4.393.827 6.336.459.816.996 1.585 1.506 2.368.546.846 1.186 1.603 1.883 2.317 1.19 1.245 2.505 2.353 3.769 3.507.501.449 1.005.85 1.599 1.145.358.175.713.356 1.063.534" fill="#fff"/><path fill-rule="evenodd" clip-rule="evenodd" d="M233.156 221.242c.458.455.982.823 1.569 1.069 1.351.627 2.673.931 3.935.955 2.333.052 4.368-2.22 2.859-4.745a5.747 5.747 0 00-.503-.673c-1.118-1.337-3.94-2.505-6.012-1.866a4.583 4.583 0 00-2.281 1.535c-.497.608-.434 1.339-.369 2.092.053.646.335 1.167.802 1.633" fill="#000"/><path fill-rule="evenodd" clip-rule="evenodd" d="M247.594 210.362c.947.927 1.957 1.808 2.642 2.99 1.986 3.433 2.36 7.195 1.275 11.23-.201.731-.499 1.433-.737 2.145-.065.192-.082.395-.105.595-.031.281.272.619.574.674.22.048.39-.091.486-.254.269-.476.505-.978.753-1.465l.047.024c.27-.632.573-1.254.806-1.905.188-.511.358-1.052.408-1.578.148-1.625.216-3.249-.114-4.829-.796-3.814-1.033-4.45-3.716-7.307-.895-.95-1.948-1.592-3.12-2.077-.182-.071-.457.043-.468.206-.013.128-.037.306.027.374.402.403.832.777 1.242 1.177" fill="#fff"/><path d="M97.094 144.389c-5 14.995-3.407 36.41 7.999 60.977 11.406 24.567 38.305 40.949 58.95 53.781 75.963 47.216 164.335 64.39 252.978 63.086 16.645-.244 41.367-1.25 57.995-5.591 13.726-3.583 32.146-16.323 42.08-23.824 53-40.023 72.09-81.106 59.76-148.341-2.859-15.587-9.468-30.293-15.54-44.931C518.36-4.016 340.055-14.55 193.24 19.202 108.753 38.627 19.035 109.731 6.358 198.897c-49.242 346.34 334.687 604.708 353.029 619.461 67.288 54.122 127.079 108.935 190.647 168.097C603.817 1036.51 655.195 1093.01 680 1163" stroke="#000" stroke-width="3"/></svg>