<svg xmlns="http://www.w3.org/2000/svg" width="241.23" height="522.89"><path d="M236.78 166.66c-4-4.69-7.76-9.58-11.77-14.26a670.06 670.06 0 00-51.22-53.35c-2.41-2.26-4.88-4.47-7.21-6.61 0-7.17-.05-14 0-20.83.14-16.16.43-33.92.55-50.08a1.86 1.86 0 000-.33 1.41 1.41 0 00-.38-1.31 62.94 62.94 0 00-80.85-9.24 42.79 42.79 0 00-4.24 3.09c-1 .77-1.91 1.56-2.84 2.39a1.43 1.43 0 00-.42.65c-.8.84-1.59 1.72-2.35 2.66-.2 1.83-.61 4.1-.67 6.39q-.61 24.74-1.08 49.48c-.1 5.16 0 10.32 0 15.35-.6.87-1.2 1.73-1.79 2.6-.89.82-1.71 1.58-2.5 2.37-12.75 12.69-25.77 25.13-38.14 38.18-9.5 10-18 21-27.32 31.2-3.75 4.08-4.91 8.2-4.46 13.56 1.41 16.59 2.33 33.23 3.62 49.83.86 11.13 1.91 22.24 3.08 33.33q2.66 25.33 5.6 50.64c2 17.53 4.06 35.07 6.43 52.56 2.69 19.79 5.65 39.55 8.7 59.3 2.77 17.93 5.79 35.82 8.76 53.72 1.53 9.27 3.19 18.52 5 29a70 70 0 007.91 4.81 66.28 66.28 0 0011.27 4 237.86 237.86 0 0050.37 7c20.24.77 40.25-1.3 60.11-5 5.89-1.1 11.76-2.39 17.52-4 4.66-1.3 9-3.48 11-6.44 14.65-81.8 26.53-162.55 34.16-243.65l-.8-.68c0-.68.1-1.37.16-2.05a5.65 5.65 0 00.47-1.86c.68-4.59 1.51-9.18 2-13.8 1.09-11.1 2-22.23 3-33.34q1.32-14.93 2.69-29.84c.49-5.74-.54-10.94-4.36-15.44zM113.64 3.42a59.78 59.78 0 0134.88 6.38c2.56 1.34 7.76 5.28 10.22 7-16.85-2.36-60.48-3-74.69-1.12a60.42 60.42 0 0129.59-12.26zm12.68 83.32h-1a4.9 4.9 0 01-2.61 1.26 96.9 96.9 0 01-38.35-.44 5.51 5.51 0 01-4-5.22c-.53-17.88-3.54-60.41.76-60.82.5-.05 22.52-1.29 35.84-1.26q.39 12.79.49 25.59t-.09 25.69q-.1 7.24-.31 14.47a.5.5 0 001 0q.36-12.84.42-25.69t-.16-25.7q-.14-7.17-.35-14.35c2.41 0 4.49.08 6 .21a3.16 3.16 0 000 .7Q125 51.11 126.1 81a5.62 5.62 0 01.16 4.29zm-110.65 87.5l-10.51-1.42c-.74-1.94.23-3.13 1.14-4.26 4.16-5.2 8.23-10.48 12.58-15.51 14-16.17 28.76-31.52 44.22-46.22l-29.53 42.69zm166.07 3.56c-2.15-3.1-4.46-6.35-6.6-9.72-2.5-3.94-4.83-8-7.08-12.07s-4.17-8.06-6.25-12.09l-1 .43a26.81 26.81 0 001.12 4c3.77 8.53 7.63 17 11.43 25.52.59 1.3 1.13 2.63 1.76 4.19q-65.82 2.55-131.7.38l-14.17-2c3.24-7.94 9-13.74 11.33-21.34-3.63 2.44-5.09 6.37-7.16 9.87s-4.25 7.13-6.55 11l-2.78-.46 49.07-70.93c4-3.87 7.34-8.33 11.11-12.42 15.17-1.27 30 1.43 45.33 2.81 2.67 4 5.45 8.27 8.22 12.49-.85-4.15-3.53-7.33-5.66-11.29 2.9-1 5.4-.33 8.3 0q24.76 35.67 49.7 71.57a3.76 3.76 0 00.54.12l6.29 9.19c-5.09.29-10.17.54-15.25.75zm48.13-3.56a6.46 6.46 0 00-.7-1.28 456.81 456.81 0 00-39.45-47.42l-13.44-17.38a20.71 20.71 0 01-1.23-2.36 34.46 34.46 0 013.19 2.32 653.19 653.19 0 0151.61 55c2.41 2.9 5 5.76 6.22 9.45a31.78 31.78 0 01-6.2 1.67z" fill="#fff" data-name="Слой 2"/></svg>