<svg width="1920" height="1986" fill="none" xmlns="http://www.w3.org/2000/svg"><path d="M830 1609c-48.119-1.35-94.019-5.47-106-5-22.955.91-38.876 2.36-51 8-.819.38-2 2-2 2h2s16-12 77-7c7.336.6 19.814 1.33 33 2 14.913.75 31.217 1.44 51 2 99.463 2.83 95.503.8-4-2z" fill="#000"/><path fill-rule="evenodd" clip-rule="evenodd" d="M916 1654c6 0 144-11 144-11l-31-99-137 7-50 74s68 29 74 29z" fill="#fff"/><path d="M1960.18 314.395c-32.08-161.976-108.89-141.389-158.39-161.976a442.007 442.007 0 00-95.86-27.656c-33.5-5.689-66.81-6.999-100.71-6.839-8.28 0-16.56 0-24.83-.26-1.58-.06-3.15-.14-4.72-.22-16.3-3.2-32.19-8.199-47.65-16.848-146.37-82.108-236.5-96.156-300.66-63.16-1.19.61 61.15 39.994 79.2 56.991 18.04 16.998 38.1 39.235 45.11 53.992 2.37 5 1.65 13.608-3.45 16.608-4.48 2.61-.61 1.32-3.01-3.659-12.19-25.677-28.96-48.493-50.92-66.69-32.85-27.197-61.92-60.242-134.1-77.24C1088.01.441 995.132-13.047 910.571 28.437c-84.56 41.484-88.761 40.794-104.48 70.73a137.05 137.05 0 00-3.288 6.669 332.874 332.874 0 00-87.849-20.997c-62.946-6.55-127.577 3.61-188.469 19.517-25.654 6.709-54.435 19.997-67.628 43.733-65.06-2.803-91.638-76.659-264.068-53.662-122.817 16.38-200.044 77.515-199.24 162.44.37 39.13 3.37 797.133 3.37 797.133s-16.323 84.41 1 135C17.242 1239.58 107 1319 246 1287s121-53 162-40c-35 19-67 50-50 110s155 74 155 74 164 15 300-36 204-94 204-94 14.63 28.65 39 40c24.37 11.35 91.92 21 91.92 21s36.53 48.29 79 56c42.46 7.71 83.25-9.13 114-23 20.05-9.02 21.25-22.6 36.86-38.05 4.06 1.69 8.13 3.36 12.2 5a344.501 344.501 0 0084.98 32.59c49.12 11.62 104.54 14.06 149.83-11.75 1.35-.77 2.68-1.57 4.01-2.39 16.28-.58 32.48-1.92 48.61-4l1-.13c4.01 0 8.02-.16 12.03-.46 10.75-.89 22.43-1.87 32.76-5.35 11.78-4 23.33-9.69 31.97-18.86 4.4-4.64 7.99-9.98 10.63-15.8a70.13 70.13 0 0013.29-22.75c13.27-37.33-12.34-74.71-44.29-92.07-5.61-3-11.4-5.9-17.29-8.56a287.268 287.268 0 00-31.79-20.66c-10.93-6.08-19.2-16.08-30.8-20.76-25.2-19.57-41.24-37.8-41.24-37.8 21.11 11 41.29 22.07 48.4 27.69 10.5 8.24 22.58 14.35 35.09 19.24 4.78 1.84 9.71 3.34 14.33 5.39 16.69 7.4 34.37 9.57 52.29 10.6 3.18.1 6.37-.08 9.52-.55 25.35-3.49 50.21-9.87 74.1-18.99 19.41-7.54 35.99-19.29 52.42-31.5 1.01-.77 1.92-1.68 2.87-2.46l.72-.6c.36 1.17 15.5-3.02 20.5-53.02l.56-520.871c-7.37 3.439-15.04 5.529-32.61 11.208-10.94 3.6-21.84 7.209-32.9 10.459-7.93 2.319-13.42 6.999-16.56 14.578-.76 1.829-1.72 3.489-2.34 5.289-3.01 9.338-30.8 34.365-39.1 40.484-19.05 13.998-38 28.166-57.49 41.534-24.35 16.788-51.32 28.546-79.19 38.345-2.4.799-8.5-.29-7.02-1.33 10.45-7.489 22-12.998 33.35-18.838 12.52-6.429 25.5-12.118 37.25-19.797 21.87-14.368 43.1-29.695 64.38-44.993 9.36-6.679 17.32-15.088 24.54-24.107a51.808 51.808 0 009.45-16.467c.24-.75-.76-2.57-1.67-3a10.992 10.992 0 00-5.49-1.06c-12.76 1.15-25.38 2.52-38.15 3.74-16.57 1.549-33.18 1.149-49.8.49-5.01-.2-10.1-1.23-15.16-1.94-.67-.1-1.25-.3-1.92-.4-2.88-.62-5.84-3.73-4.71-4.999 1.13-1.27 2.72-2.92 4.28-3.12 9.5-1 19.05-1.52 28.62-2.37 22.27-1.889 44.53-3.769 66.83-5.999 7.64-.729 15.2-2.154 22.58-4.259 23.28-6.859 46.34-14.398 69.63-21.267a110.28 110.28 0 0023.19-9.789v-71.149h4.01s63.78-3 31.7-164.977z" fill="#000"/><path d="M1866.52 597.794c-3.45-5.88-10.62-7.23-16.42-4.3a177.096 177.096 0 01-24.06 10c-1.19-.055-2.38.039-3.54.28l-40 8.37c-4.3.875-7.6 4.342-8.25 8.68a11.83 11.83 0 00-2.73 11.11c.13.458.28.909.46 1.35a12.417 12.417 0 001.31 11.28 72.853 72.853 0 00-17.93 12.82c-10 2.977-19.51 7.404-28.22 13.14a12.44 12.44 0 00-4.36 5.08 79.929 79.929 0 00-7.82 5.56 145.368 145.368 0 00-38.65 17.74 13.441 13.441 0 00-4 4 368.56 368.56 0 00-27.26 9.87c-6.25 2.56-8.76 7.64-8.35 12.42a11.624 11.624 0 00-4.13 4.7l-18 4.26c-15 3.56-8.67 26.7 6.38 23.14l52.77-12.51a223.017 223.017 0 0036-8.54c7.91-2.6 9.81-10.19 7.51-16.06a113.983 113.983 0 0030.4-10.21 10.312 10.312 0 004.44-4.56 82.552 82.552 0 0022.47-7.12c3.3-1.58 5.31-5.2 5.79-8.88 1.7-.63 3.39-1.3 5.07-2 4.39-1.91 6.14-6.25 5.82-10.59a45.566 45.566 0 005-3.42c4.11-3.25 4.51-8.07 2.77-12.22 2.52-.388 5.07-.585 7.63-.59 4.87 0 10.65-3.69 11.58-8.81 1-5.59 4-10.46 8.74-12.28 5.82-2.23 9.88-7.65 8.55-14a205.484 205.484 0 0026.64-11.18c5.92-3.03 7.51-11.18 4.39-16.53zM1812.66 303c-4-1.66-7.97-3.327-11.91-5l-.27-.11 12.18 5.11z" fill="#000"/><path d="M1810.69 231.57a1.001 1.001 0 000-2 1.001 1.001 0 000 2z" fill="#fff"/><path fill-rule="evenodd" clip-rule="evenodd" d="M86.242 567.119c5.516-1.398 11.308-2.038 16.906-.69 5.084 1.21 10.774 3.986 13.04 8.945a1.87 1.87 0 01-.98 2.453c.478.294.706.866.562 1.408-.996 5.037-5.488 8.809-9.887 10.989a28.415 28.415 0 01-15.855 2.483c-8.425-.915-15.957-4.478-23.487-8.039l-.908-.429-1.575-.477a2.196 2.196 0 01-1.125-.787 131.613 131.613 0 00-5.13-2.266c-1.574.534-3.507 1.154-4.747.152a.25.25 0 01-.087-.247 2.647 2.647 0 01.94-1.45.391.391 0 01.341-.669c.057.013.115.028.173.043.105.027.212.055.318.073a31.06 31.06 0 014.67-1.897c2.13-.875 4.283-1.688 6.437-2.501.905-.341 1.81-.683 2.714-1.029a160.24 160.24 0 0117.68-6.065zm22.412 6.83c.061-.047.124-.09.189-.129l-.018-.009a13.508 13.508 0 00-1.78-1.154 22.177 22.177 0 00-7.58-2.325c-5.166-.656-10.482.417-15.426 1.86-3.507 1.02-6.982 2.204-10.442 3.384-1.936.659-3.867 1.317-5.797 1.944-.792.263-1.588.513-2.384.763l-1.194.377c1.284.542 2.59 1.04 3.902 1.484 13.712 2.385 29.665 4.116 40.53-6.195zM1417.07 348.453c-.32 5.681.16 11.489 2.55 16.727 2.16 4.76 5.97 9.816 11.27 11.094 1.01.217 2-.423 2.22-1.43.38.413.99.528 1.49.283 4.76-1.939 7.6-7.068 8.9-11.802a28.346 28.346 0 00-.59-16.038c-2.5-8.095-7.44-14.809-12.37-21.522-.2-.269-.39-.539-.59-.808l-.77-1.456a2.227 2.227 0 00-.99-.954 144.216 144.216 0 01-3.2-4.604c.22-1.647.46-3.662-.76-4.688a.25.25 0 00-.26-.039c-.53.25-.97.673-1.24 1.201a.39.39 0 00-.47.008.38.38 0 00-.12.454c.02.053.05.107.07.161.05.098.1.197.13.299a31.94 31.94 0 00-.97 4.946 223.22 223.22 0 00-1.22 6.796c-.17.953-.33 1.907-.5 2.86a160.305 160.305 0 00-2.58 18.512zm10.98 20.698l-.09.209-.01-.015c-.53-.47-1.02-.981-1.47-1.528a22.192 22.192 0 01-3.73-6.997c-1.63-4.945-1.59-10.369-1.12-15.497.34-3.637.84-7.274 1.33-10.896.28-2.026.56-4.048.81-6.062.1-.827.2-1.657.29-2.486.05-.414.09-.829.14-1.243a53.185 53.185 0 012.2 3.547c4.96 13.005 9.7 28.334 1.65 40.968zM1800.75 374.555c-3.76 2.484-7.21 5.53-9.38 9.515-1.98 3.612-3.36 8.406-1.62 12.354a1.494 1.494 0 001.97.724c-.08.435.14.871.54 1.074 3.51 2.083 8.13 1.453 11.75.035a22.364 22.364 0 009.89-7.954c3.93-5.408 5.81-11.694 7.7-17.979.08-.253.15-.505.23-.758l.55-1.172c.16-.335.21-.711.13-1.074.44-1.409.89-2.813 1.38-4.198 1.15-.637 2.55-1.438 2.61-2.693 0-.075-.03-.145-.1-.182a2.13 2.13 0 00-1.36-.217.3.3 0 00-.23-.293.304.304 0 00-.34.138.699.699 0 00-.07.124c-.04.076-.08.152-.13.224a24.99 24.99 0 00-3.6 1.726c-1.65.782-3.27 1.61-4.9 2.439-.68.348-1.36.697-2.05 1.042a126.908 126.908 0 00-12.97 7.125zm-8.67 16.291c-.06.011-.12.025-.18.043v-.015c.05-.564.13-1.124.27-1.674a17.491 17.491 0 012.68-5.739c2.38-3.413 5.89-5.989 9.41-8.145 2.5-1.531 5.08-2.955 7.65-4.373 1.44-.794 2.88-1.585 4.29-2.393.58-.328 1.16-.666 1.74-1.003.29-.169.58-.338.87-.505a47.595 47.595 0 01-1.21 3.108c-5.94 9.405-13.49 19.787-25.52 20.696zM1663.49 708.852c-3.93-4.109-8.51-7.721-13.97-9.544-4.95-1.668-11.25-2.33-15.8.675a1.87 1.87 0 00-.46 2.599 1.276 1.276 0 00-1.23.897c-1.82 4.799-.01 10.378 2.56 14.559a28.41 28.41 0 0012.13 10.507c7.63 3.688 15.91 4.659 24.18 5.629l1 .117 1.59.43c.45.123.93.099 1.37-.071 1.86.233 3.71.486 5.55.797 1.05 1.287 2.36 2.837 3.94 2.644.1-.011.18-.074.21-.163.18-.563.17-1.172-.03-1.729a.38.38 0 00.31-.349.38.38 0 00-.24-.398c-.06-.019-.12-.037-.17-.055a3.313 3.313 0 01-.31-.107 30.253 30.253 0 00-2.96-4.083c-1.34-1.871-2.73-3.701-4.13-5.533-.59-.769-1.17-1.538-1.76-2.31a159.13 159.13 0 00-11.78-14.512zm-22.62-6.085a8.727 8.727 0 00-.09-.209l.02.001c.7-.067 1.41-.079 2.12-.035 2.65.216 5.25.909 7.66 2.046 4.73 2.18 8.67 5.908 12.09 9.751 2.44 2.723 4.76 5.569 7.07 8.403 1.29 1.585 2.58 3.167 3.88 4.721.53.642 1.08 1.276 1.62 1.911l.81.952a57.404 57.404 0 01-4.09-.81c-12.9-5.244-27.34-12.229-31.09-26.731zM1568.96 428.784c-2.74 4.988-6.22 9.66-11.02 12.835-4.36 2.893-10.27 5.161-15.44 3.436a1.865 1.865 0 01-1.12-2.389 1.282 1.282 0 01-1.42-.55c-3-4.163-2.7-10.021-1.29-14.725a28.375 28.375 0 019-13.289c6.41-5.537 14.15-8.616 21.89-11.695.31-.124.63-.247.94-.371l1.42-.826c.4-.237.88-.337 1.34-.287 1.74-.705 3.46-1.43 5.16-2.207.68-1.515 1.55-3.351 3.12-3.574a.24.24 0 01.24.104c.33.496.48 1.087.42 1.678.18-.013.34.092.4.255.06.164 0 .347-.14.449l-.15.097c-.09.059-.18.118-.27.184a30.58 30.58 0 01-1.8 4.709c-.81 2.154-1.68 4.283-2.56 6.413-.37.895-.73 1.79-1.1 2.687-2.2 5.832-4.75 11.53-7.62 17.066zm-20.28 11.734l-.03.225.02-.007c.69-.117 1.38-.289 2.05-.515a22.093 22.093 0 006.87-3.958c4.01-3.33 6.85-7.95 9.16-12.55 1.65-3.26 3.15-6.609 4.65-9.944.84-1.866 1.67-3.727 2.53-5.566.35-.759.71-1.511 1.07-2.264l.54-1.13a57.61 57.61 0 00-3.75 1.842c-11.09 8.402-23.24 18.888-23.11 33.867zM1620.63 504.81l-.58.531c-.44.429-.76.968-.92 1.559-.76.848-1.64 1.662-2.41 2.373-.45.416-.86.796-1.19 1.126a204.222 204.222 0 01-3.75 3.755c-20.93 12.812-43.14 21.262-67.59 26.172a2.258 2.258 0 01-.02-.259 11.12 11.12 0 010-1.825c-.9-5.107 1.87-10.563 5.38-14.759a40.98 40.98 0 0117.83-11.608c10.39-3.648 21.4-4.577 32.43-5.307h.18c1.05-.048 2.13-.143 3.23-.239l.1-.009 1.67-.332c.37-.066.75-.066 1.11 0a59.383 59.383 0 0014.08-3.93c.53-.233.78.282.78.746a.79.79 0 010 .481c-.02.045-.05.09-.07.133-.05.07-.09.137-.09.198-.01.412-.1.818-.27 1.194h.1zm-75.96 37.229a5 5 0 00.77 1.145c.22.216.47.41.73.581.16.204.36.378.58.514 6.1 3.615 15 3.117 21.96 1.442a53.384 53.384 0 0020.27-10.364c5.07-4.137 9.93-8.509 14.58-13.102-18.18 10.225-38.5 17.187-58.89 19.784z" fill="#fff"/><path d="M1620.05 505.341l-.34-.37-.01.006v.007l.35.357zm.58-.531l.34.37.95-.87h-1.29v.5zm-1.5 2.09l.37.333.08-.088.03-.114-.48-.131zm-2.41 2.373l.34.367-.34-.367zm-1.19 1.126l-.35-.351-.01.003.36.348zm-3.75 3.755l.26.427.05-.03.04-.039-.35-.358zm-67.59 26.172l-.5.046.05.553.55-.109-.1-.49zm-.02-.259l.5-.02v-.022l-.5.042zm0-1.825l.5.042.01-.065-.02-.063-.49.086zm5.38-14.759l-.37-.333-.01.006v.006l.38.321zm17.83-11.608l.15.475.01-.003-.16-.472zm32.43-5.307v-.5h-.02l-.01.001.03.499zm.18 0v.5h.02l-.02-.5zm3.23-.239l-.04-.498.04.498zm.1-.009l.05.498.02-.003.03-.005-.1-.49zm1.67-.332l-.09-.493-.01.002.1.491zm1.11 0l-.08.492.08.014.08-.012-.08-.494zm14.08-3.93l.19.461.01-.003-.2-.458zm.78.746h-.5v.076l.03.072.47-.148zm0 .481l.46.197.01-.024.01-.025-.48-.148zm-.07.133l.41.274h.01l-.42-.274zm-.09.198l.5.011v-.011h-.5zm-.27 1.194l-.46-.203-.31.703h.77v-.5zm-75.86 37.229l-.07-.496-.69.088.31.627.45-.219zm.77 1.145l-.37.334.01.015.01.013.35-.362zm.73.581l.39-.312-.05-.063-.07-.044-.27.419zm.58.514l-.26.427.01.003.25-.43zm21.96 1.442l.12.487.01-.003-.13-.484zm20.27-10.364l-.32-.387v.001l.32.386zm14.58-13.102l.35.356-.59-.791.24.435zm16.82-16.544l.59-.531-.68-.739-.58.53.67.74zm-.77 1.32c.14-.505.41-.965.79-1.332l-.7-.715c-.5.491-.87 1.107-1.05 1.785l.96.262zm-2.55 2.609c.77-.707 1.67-1.538 2.44-2.407l-.74-.666c-.74.826-1.6 1.625-2.38 2.339l.68.734zm-1.17 1.11c.31-.32.72-.691 1.17-1.11l-.68-.734c-.45.412-.87.801-1.2 1.142l.71.702zm-3.76 3.762c1.27-1.243 2.53-2.494 3.76-3.765l-.72-.696a183.407 183.407 0 01-3.74 3.746l.7.715zm-.61-.784c-20.88 12.779-43.03 21.208-67.43 26.108l.2.98c24.5-4.921 46.77-13.391 67.75-26.235l-.52-.853zm-67.85 26.358c.01.096.01.191.02.286l1-.092c-.01-.078-.02-.155-.02-.233l-1 .039zm0-1.885a12.14 12.14 0 000 1.907l1-.083c-.05-.579-.05-1.162 0-1.741l-1-.083zm5.5-15.039c-3.55 4.232-6.43 9.838-5.49 15.167l.98-.173c-.86-4.886 1.79-10.192 5.28-14.352l-.77-.642zm18.05-11.762a41.47 41.47 0 00-18.04 11.75l.74.667a40.5 40.5 0 0117.61-11.467l-.31-.95zm32.56-5.331c-11.03.73-22.1 1.66-32.57 5.334l.33.944c10.32-3.623 21.27-4.55 32.3-5.28l-.06-.998zm.21-.001h-.18v1h.18v-1zm3.19-.237c-1.1.096-2.17.19-3.21.238l.04.999c1.07-.049 2.16-.145 3.25-.241l-.08-.996zm.1-.01l-.1.01.08.996.11-.009-.09-.997zm1.61-.324l-1.66.332.19.981 1.67-.332-.2-.981zm1.3-.001a3.678 3.678 0 00-1.29 0l.18.984c.31-.055.63-.055.94 0l.17-.984zm13.8-3.9a58.753 58.753 0 01-13.96 3.897l.15.989a59.841 59.841 0 0014.19-3.963l-.38-.923zm1.47 1.208c0-.3-.07-.674-.3-.951a.926.926 0 00-.52-.329 1.054 1.054 0 00-.66.075l.4.917c.06-.025.06-.011.03-.018-.02-.007-.03-.021-.02-.012.01.014.03.049.05.112.01.061.02.133.02.206h1zm-.02.629c.08-.253.08-.524 0-.778l-.95.297c.01.06.01.124 0 .184l.95.297zm-.13.259c.02-.036.07-.118.11-.21l-.92-.395c.01-.005.01-.003 0 .009a.19.19 0 00-.03.049l.84.547zm-.01-.076c0 .045-.01.079-.02.098 0 .019-.01.03-.01.031 0 .001 0-.002.01-.013.01-.01.01-.022.02-.04l-.83-.547c-.02.029-.06.088-.09.151a.726.726 0 00-.08.32h1zm-.31 1.398c.19-.437.3-.909.31-1.387l-1-.021a2.66 2.66 0 01-.23 1.001l.92.407zm-.36-.704h-.1v1h.1v-1zm-76.41 37.948c.22.454.5.878.85 1.26l.74-.668a4.441 4.441 0 01-.69-1.03l-.9.438zm.87 1.288c.25.237.52.45.81.637l.54-.837a5.322 5.322 0 01-.66-.524l-.69.724zm.69.53c.2.25.44.463.71.63l.52-.854a1.854 1.854 0 01-.45-.399l-.78.623zm.72.633c6.27 3.719 15.33 3.181 22.33 1.499l-.24-.973c-6.93 1.668-15.66 2.125-21.58-1.386l-.51.86zm22.34 1.496a53.993 53.993 0 0020.46-10.462l-.64-.772a52.865 52.865 0 01-20.08 10.267l.26.967zm20.46-10.461a207.14 207.14 0 0014.61-13.133l-.7-.711a206.304 206.304 0 01-14.55 13.07l.64.774zm-44.57 6.791c20.46-2.605 40.84-9.589 59.08-19.844l-.49-.871c-18.13 10.195-38.39 17.135-58.72 19.723l.13.992z" fill="#979797"/><path fill-rule="evenodd" clip-rule="evenodd" d="M1656.92 1053.17l-.36-.32c-.24-.3-.56-.54-.93-.67l-.28-.25c-3.66-6.74-6.27-13.72-8.81-21.18l-.24-.69c-2.66-7.77-5.61-16.38-11.44-22.36.3-.02.59-.02.89.01 3.06-.6 6.4.98 8.97 3.02 3.29 2.82 5.78 6.45 7.22 10.54 2.39 6.19 3.03 12.8 3.63 19.41l.02.11c.06.7.12 1.35.2 2.03l.22 1.03c.05.22.06.45.04.67.5 2.9 1.36 5.72 2.57 8.4.15.32-.16.53-.44.48-.1.02-.2.01-.3-.03l-.19-.09c-.25 0-.5-.05-.73-.16l-.04.05zm-23.63-45.04c-.18.11-.35.24-.5.39-.14.13-.26.27-.38.42-.12.09-.23.21-.31.35-2.1 3.7-1.68 8.99-.57 13.18a31.95 31.95 0 006.53 12.03c3.14 3.64 6.48 7.11 10.02 10.36.56.55 1.11 1.09 1.67 1.63.32.32.65.64.97.95-1.66-3.76-2.98-7.72-4.25-11.54-.29-.86-.58-1.71-.86-2.55-3.12-9.22-6.7-17.37-12.32-25.22zM1358.11 440.151c.09 1.269.16 2.539.22 3.81.67 12.584.18 25.202-1.47 37.695-1.55 11.649-3.93 23.411-7.9 34.518.18.093.37.18.56.26 1.02.528 2.2.675 3.32.418.3-.09.59-.21.86-.357.26-.046.5-.133.73-.26 6.06-3.516 9.92-11.428 11.86-18.334 2.12-7.632 1.9-15.33.75-22.62-1.14-7.193-3.08-14.154-5-21.035l-.6-2.14c-.24-.878-.48-1.761-.72-2.647-.84-3.102-1.69-6.24-2.61-9.308zm-10.21 75.381c-4.87-1.693-8.3-6.739-10.25-11.814-2.46-6.394-2.69-13.725-1.48-21.06 1.78-10.826 6.34-20.782 11.03-30.706.01-.06.03-.119.06-.176.52-.97.98-1.997 1.42-3.024.07-.185.13-.372.19-.56.12-.367.24-.737.37-1.104.11-.353.28-.685.51-.984a58.54 58.54 0 003.36-14.113c.06-.574.67-.616 1.03-.321.16.056.3.16.4.299l.17.326c.26.151.49.336.69.551.38 3 .74 6.004.95 9.031.45 6.274.61 12.511.46 18.773a201.144 201.144 0 01-4.46 37.484c-1.27 5.857-2.85 11.629-4.45 17.398zM236.66 1173.55c1.451-5.5 3.699-10.88 7.593-15.12 3.523-3.86 8.71-7.49 14.145-7.07a1.874 1.874 0 011.67 2.05c.489-.28 1.1-.2 1.504.19 3.923 3.31 5.044 9.07 4.819 13.97a28.423 28.423 0 01-5.516 15.07c-4.885 6.93-11.652 11.79-18.418 16.65-.272.19-.543.39-.815.58l-1.181 1.15a2.15 2.15 0 01-1.233.6 144.777 144.777 0 00-4.47 3.39c-.296 1.64-.69 3.63-2.168 4.23a.246.246 0 01-.258-.05c-.434-.4-.72-.94-.813-1.52a.391.391 0 01-.444-.16.393.393 0 01.025-.47c.039-.04.08-.08.121-.13.075-.07.151-.15.218-.24.066-1.68.268-3.35.605-5 .267-2.29.6-4.57.933-6.85.14-.95.28-1.91.415-2.87.73-6.19 1.821-12.34 3.268-18.4zm16.839-16.29a2.233 2.233 0 01-.021-.23l-.016.01c-.65.28-1.276.62-1.873 1a22.247 22.247 0 00-5.708 5.5c-3.079 4.2-4.717 9.37-5.852 14.4-.808 3.56-1.457 7.17-2.103 10.77-.362 2.01-.723 4.02-1.11 6.01-.154.82-.321 1.64-.488 2.46-.084.41-.167.81-.249 1.22a58.079 58.079 0 003.189-2.69c8.733-10.84 17.981-23.95 14.231-38.45zM101.728 721.568c3.572 2.742 7.576 5.015 12.051 5.771 4.061.698 9.041.437 12.208-2.489a1.5 1.5 0 00.043-2.101c.437-.067.778-.415.84-.857.826-3.999-1.273-8.161-3.794-11.128a22.413 22.413 0 00-10.739-6.758c-6.392-1.953-12.95-1.691-19.508-1.428l-.79.031-1.289-.141a1.712 1.712 0 00-1.058.226c-1.473.047-2.948.078-4.418.061-.977-.881-2.188-1.937-3.396-1.589a.196.196 0 00-.14.153c-.073.466.01.943.238 1.356a.31.31 0 00.042.595l.138.023c.084.013.17.026.253.046a24.565 24.565 0 002.805 2.843 185.43 185.43 0 003.9 3.837c.552.532 1.103 1.065 1.652 1.6 3.46 3.528 7.12 6.85 10.962 9.949zm18.711 2.575c.03.053.063.105.099.155l-.016.001c-.548.142-1.106.241-1.669.294a17.542 17.542 0 01-6.3-.667c-4.003-1.143-7.579-3.619-10.765-6.251-2.262-1.864-4.448-3.84-6.626-5.808-1.218-1.101-2.434-2.2-3.658-3.275-.5-.444-1.008-.882-1.515-1.319-.254-.218-.508-.437-.76-.656 1.112.003 2.228.046 3.331.131 10.828 2.558 23.101 6.31 27.879 17.395zM119.535 965.078l.435-.203a2.11 2.11 0 011.084-.373c.115-.05.23-.103.345-.157 5.47-5.374 10.001-11.284 14.619-17.679l.427-.589c4.813-6.651 10.151-14.027 17.477-18.037a5.171 5.171 0 00-.853-.248c-2.751-1.476-6.408-.94-9.465.265a24.57 24.57 0 00-9.979 7.963c-4.098 5.221-6.645 11.352-9.149 17.507l-.056.092a47.246 47.246 0 01-.785 1.889l-.509.921a2.156 2.156 0 00-.236.629 35.197 35.197 0 01-4.905 7.275c-.24.266-.007.554.274.589a.494.494 0 00.294.062l.216-.035c.237.076.489.098.736.065l.03.064zm35.762-36.164c.14.156.263.329.367.515.092.163.171.332.236.507.093.128.16.273.199.426.924 4.159-1.022 9.094-3.311 12.776a31.993 31.993 0 01-9.76 9.594 125.188 125.188 0 01-12.61 6.984c-.693.354-1.384.711-2.073 1.067l-1.212.626c2.69-3.114 5.109-6.513 7.445-9.795.525-.738 1.047-1.471 1.566-2.193 5.681-7.896 11.481-14.645 19.153-20.507zM1251.83 1327.13l.62-.5a3.52 3.52 0 011.68-.66c.96-.61 1.9-1.36 2.72-2.01.48-.38.92-.72 1.3-.99 1.44-1.02 2.87-2.07 4.3-3.12 15.92-18.67 27.74-39.29 36.42-62.67l-.25-.06c-.6-.14-1.2-.24-1.81-.28-4.9-1.69-10.72.19-15.41 3a40.996 40.996 0 00-14.26 15.79c-5.23 9.7-7.87 20.43-10.31 31.21l-.03.18c-.21 1.03-.48 2.08-.74 3.15l-.03.1-.59 1.59a3.2 3.2 0 00-.17 1.1 59.39 59.39 0 01-6.08 13.29c-.32.49.15.82.61.89.15.07.31.1.47.08l.15-.06c.07-.03.15-.07.21-.06.41.06.82.03 1.22-.07l-.02.1zm48.66-69.21c.37.27.71.58 1.01.94.18.26.33.53.46.82.17.19.31.41.41.65 2.62 6.59.74 15.3-2.01 21.91a53.462 53.462 0 01-13.4 18.41 209.97 209.97 0 01-15.23 12.35c12.95-16.36 23-35.34 28.76-55.08zM483.363 1310.99l.42-.23c.303-.24.669-.4 1.055-.45l.334-.18c5.082-5.74 9.189-11.95 13.35-18.65.128-.21.256-.42.384-.62 4.338-6.97 9.148-14.7 16.177-19.21a5.172 5.172 0 00-.868-.19c-2.848-1.28-6.458-.49-9.424.92a24.54 24.54 0 00-9.399 8.64c-3.724 5.5-5.837 11.79-7.905 18.1l-.05.1a47.95 47.95 0 01-.652 1.94l-.443.95c-.097.21-.162.42-.192.65a35.336 35.336 0 01-4.385 7.6c-.221.28.032.55.315.57.092.04.196.05.297.04l.213-.05c.242.06.495.06.739.01l.034.06zm33.153-38.57c.15.15.285.31.401.49.103.16.194.32.272.49.101.12.178.26.228.41 1.212 4.08-.386 9.14-2.412 12.98a32.083 32.083 0 01-9.067 10.25 125.91 125.91 0 01-12.092 7.84c-.667.41-1.331.81-1.994 1.21-.388.24-.776.48-1.165.71 2.466-3.29 4.642-6.85 6.743-10.29.473-.77.942-1.54 1.41-2.3 5.116-8.27 10.431-15.41 17.676-21.79zM371.343 1161.17c.067-1.27.12-2.54.161-3.81.447-12.6-.267-25.2-2.134-37.67-1.753-11.62-4.332-23.33-8.498-34.37.18-.1.364-.19.55-.27a4.901 4.901 0 013.318-.48c.3.09.592.2.869.35.255.04.501.12.727.24 6.119 3.41 10.125 11.26 12.179 18.13 2.259 7.59 2.174 15.29 1.144 22.6-1.011 7.21-2.832 14.21-4.632 21.12-.186.72-.373 1.43-.558 2.15-.226.88-.45 1.77-.675 2.66-.789 3.12-1.586 6.27-2.451 9.35zm-11.524-75.19c-4.839 1.78-8.18 6.88-10.042 11.99-2.348 6.44-2.448 13.77-1.113 21.08 1.975 10.8 6.708 20.67 11.571 30.51.012.06.031.12.057.18.542.96 1.022 1.98 1.479 3 .066.18.13.37.195.55.127.37.254.73.388 1.1.121.35.299.68.525.97a58.666 58.666 0 013.614 14.06c.067.57.679.6 1.035.3a.83.83 0 00.391-.31l.168-.33c.253-.15.482-.34.68-.56.325-3 .63-6.01.793-9.04.339-6.29.386-12.52.129-18.78a200.55 200.55 0 00-5.118-37.4c-1.366-5.84-3.045-11.58-4.752-17.32z" fill="#fff"/><path d="M1834.59 836.351c-5.03 1.345-9.99 3.057-14.92 4.898l-5.81 2.667c-4.52 2.09-20.64 7.952-21.47 8.276-16.49 6.471-32.03 8.487-49.35 10.417-3.74.416-7.48.719-11.23.908l-.37-1.152a420.375 420.375 0 0028.71-29.443 433.88 433.88 0 0026.99-33.798c10.05-15.548 18.14-32.735 27.88-48.526.2-.832.37-1.672.51-2.54-.84-.068-1.64.438-2.06 1.309-10.34 18.64-21.79 36.337-34.26 52.956-4.5 5.997-9.12 11.84-13.87 17.53a.395.395 0 00-.13.127c-.17.229-.36.439-.53.668-.61.744-1.25 1.468-1.87 2.212-.87.906-1.77 1.749-2.72 2.525-.12.1-.19.264-.19.441a.338.338 0 00-.51.026c-3.9 4.97-8.17 9.491-12.77 13.507a1.43 1.43 0 00-.48.306c-10.4 9.751-22.17 17.179-34.8 21.941-1.69.551-3.45.845-5.22.874-3.3.364-6.7.632-10.06.848-8.07 2.025-52.07 9.098-54.76 10.561-8.45 4.568-16.87 9.436-25.56 13.356-6.33 2.825-13.06 4.449-19.26 7.739-14.09 7.427-21.99 17.855-33.95 29.497 10.87 1.432 16.72 2.127 16.72 2.127 1.04-.935 2.34-.463 3.42-1.35 10.44-8.619 22.3-14.978 34.06-20.561l7.15-3.379a710.541 710.541 0 0131.29 7.372 683.109 683.109 0 0140.76 12.034 730.247 730.247 0 0122.78 7.949c.99.368 29.89 11.05 44.73 13.567 13.31 2.307 26.89 1.735 39.63-3.239 2.02-.786.95-4.595-1.08-3.808-22.98 8.975-47.72 2.681-70.13-6.879-22.68-9.667-44.13-23.373-67.26-31.393a118.978 118.978 0 00-19.02-5.012c2.61-.967 5.22-1.886 7.86-2.705 23.49-7.239 52.96-12.589 77.19-11.826 10.3.332 47.91-5.034 65.59-16.455 9.63-6.253 19.47-12.036 30.1-15.687 1.78-.624 29.77-13.677 41.81-15.83 2.59-.466 9.86-2.86 9.63-4.21-13.94 5.588-28.86 7.351-43.17 11.155z" fill="#fff"/><path d="M1518.13 935.711a153.212 153.212 0 0129.21-7.44 157.059 157.059 0 0130.4-1.61c10.12.447 20.19 1.854 30.05 4.2a156.81 156.81 0 0128.79 9.86 147.588 147.588 0 0126.07 15.18c1 .73 2 1.46 3 2.2.22.17.53-.22.3-.39a140.5 140.5 0 00-25.8-15.93 157.917 157.917 0 00-28.46-10.5 161.219 161.219 0 00-30.08-4.92 156.598 156.598 0 00-30.38.89 146.213 146.213 0 00-29.64 6.91c-1.17.4-2.33.83-3.49 1.27-.17.06-.1.33.07.27l-.04.01zM1195.57 1242.71c37.99-25.01 79.86-40.25 122.98-44.74 20.88-2.27 41.89-1.86 62.7 1.23 17.84 2.72 35.65 8 52.01 17.1 15.98 8.93 30.59 21.87 40.89 39.3 1.28 2.16 2.49 4.39 3.63 6.68.09.13.25.16.37.08.12-.09.17-.27.12-.42-9.22-18.21-22.82-32.33-38.35-42.29-15.91-10.2-33.5-16.28-51.23-19.71-20.33-4-41.16-4.7-61.69-3.23-43.43 3.12-85.85 17.14-124.54 41.14a314.5 314.5 0 00-7.09 4.54c-.08.05-.11.18-.06.27.04.1.15.13.23.08l.03-.03z" fill="#fff" stroke="#fff"/><path fill-rule="evenodd" clip-rule="evenodd" d="M1926.54 442.575a2.004 2.004 0 011.52-.209c.52.135.96.469 1.22.929.49.946.19 2.11-.71 2.69l-13.24 10.2-41.09 31.65a197.255 197.255 0 01-28.91 69.44 49.72 49.72 0 01-1.35 16.12c6.26-.144 37.13-5.931 44.41-8.426.05-.041.11-.083.16-.124 4.09-3.09 8.07 3.86 4 6.91a249.25 249.25 0 01-43.47 26.15C1823.73 609.806 1715 634 1704 631s-7.93-24.045-7.93-24.045c-.73-.783 2.93-8.955 10.93-11.955s89.9 4.245 89.9 4.245a4.057 4.057 0 011.91 0l3.26-.74c-1.54-1.37-2.06-3.7 0-5.37a180.433 180.433 0 0035.21-38.35 4.033 4.033 0 011.69-2.49 189.365 189.365 0 0026.51-61.78c.02-.21.07-.415.15-.61a178.887 178.887 0 002.39-67.88c-.81-5.05 6.9-7.2 7.71-2.13a185.873 185.873 0 011.91 43.89c-.47 6.11-1.25 12.22-2.3 18.22l4.36-3.36 46.84-36.07zm-61.63 134.74c3.14-1.216 14.74-7.127 20.86-10.456-16.12 11.268-28.76 13.557-20.86 10.456zm-146.54 42.74l.91 1h.04l.09-.278c.04-.155.09-.308.12-.452l-.36-.082c-.27-.06-.53-.119-.8-.188zM1866.83 994.388h-.48a2.116 2.116 0 00-1.14.12c-.12.004-.25.005-.38.004-7.23-2.559-13.83-6-20.72-9.844l-.63-.354c-7.18-3.994-15.13-8.423-23.47-8.96.21-.214.43-.41.67-.586 1.87-2.5 5.41-3.56 8.69-3.76 4.33-.111 8.61.924 12.41 3 5.92 3 10.82 7.48 15.69 12l.09.06c.51.48.99.93 1.51 1.38l.85.62c.19.131.35.289.48.47a35.342 35.342 0 007.52 4.52c.33.14.24.5 0 .65a.475.475 0 01-.24.18l-.21.06c-.18.169-.4.295-.64.37v.07zm-47.69-17.662c-.06.201-.1.41-.12.622a5.23 5.23 0 000 .56c-.03.155-.03.315 0 .47.92 4.16 4.77 7.81 8.4 10.18a31.988 31.988 0 0012.9 4.57c4.77.61 9.57.944 14.38 1 .78.028 1.56.06 2.33.091.46.019.91.038 1.36.055-3.75-1.685-7.38-3.743-10.88-5.73-.79-.447-1.57-.891-2.35-1.326-8.48-4.756-16.59-8.421-26.02-10.492zM192.803 372.867l.388.283c.272.279.616.477.993.573.104.07.207.144.309.22 4.345 6.319 7.665 12.985 10.978 20.143l.306.66c3.456 7.447 7.288 15.706 13.714 21.039-.292.053-.587.08-.884.082-2.983.923-6.47-.3-9.241-2.066a24.577 24.577 0 01-8.276-9.722c-3.026-5.907-4.357-12.411-5.64-18.93l-.038-.102a47.965 47.965 0 00-.41-2.004l-.324-1.001a2.194 2.194 0 01-.112-.662 35.122 35.122 0 00-3.427-8.077c-.184-.307.1-.546.382-.526a.488.488 0 01.3-.005l.206.075c.247-.029.498-.002.735.077l.041-.057zm28.205 42.324a2.86 2.86 0 00.458-.436c.121-.142.231-.294.329-.453.116-.108.209-.237.277-.38 1.701-3.906.731-9.122-.812-13.173a32 32 0 00-7.751-11.28 124.874 124.874 0 00-11.045-9.261c-.614-.48-1.223-.962-1.832-1.444l-1.07-.845c2.046 3.569 3.772 7.368 5.439 11.035.375.825.747 1.644 1.119 2.451 4.07 8.836 8.475 16.567 14.888 23.786z" fill="#fff"/><path d="M418.912 470.08c8.291-10.717 17.392-20.114 27.201-28.083 9.788-8.003 20.219-14.613 31.182-19.759a141.519 141.519 0 0133.984-11.007c11.811-2.23 23.956-2.942 36.311-2.127 12.317.814 24.804 3.202 37.322 7.138 1.62.516 3.248 1.063 4.861 1.629.273.088.335-.492.058-.595-12.588-4.372-25.17-7.177-37.603-8.383-12.384-1.216-24.58-.895-36.459.958-23.9 3.682-46.297 13.412-66.275 28.792-9.92 7.661-19.145 16.768-27.568 27.215a776.795 776.795 0 00-3.149 4.065c-.077.101.076.286.147.202l-.012-.045z" fill="#fff" stroke="#fff" stroke-width="2"/><path d="M297.7 556.62c6.091-11.772 13.21-22.499 21.275-32.058 8.039-9.585 16.956-18.021 26.657-25.218a149.933 149.933 0 0130.971-17.719c11.055-4.68 22.711-8.024 34.849-10 12.101-1.968 24.654-2.513 37.519-1.63 1.666.121 3.346.267 5.014.436.281.022.235-.53-.052-.565-13.013-1.271-25.734-1.091-38.02.538-12.238 1.61-24.015 4.603-35.204 8.948-22.521 8.698-42.482 22.672-59.064 41.352-8.23 9.298-15.521 19.783-21.79 31.334a712.471 712.471 0 00-2.315 4.466c-.056.111.127.248.18.155l-.02-.039z" fill="#fff" stroke="#fff" stroke-width="2"/><path d="M78.382 464.166c5.478.353 10.936.982 16.351 1.883l6.538 1.535c5.097 1.232 22.896 3.852 23.816 4.005 18.294 3.221 34.649 1.916 52.806.155 3.909-.383 7.805-.882 11.687-1.497l.113-1.296a457.356 457.356 0 01-35.916-24.708c-4.928-3.761-19.725-5.871-32.797-17.622-18.87-16.972-26.014-34-33.976-42.556-4.093-9.162 5.465 4.75 6.15 5.56 9.737 11.531 11.16 13.617 24.434 26.642 14.102 13.838 28.744 15.054 35.403 20.397 7.404 5.932 10.496 8.176 16.104 11.387.199.033.39.104.563.21a109.297 109.297 0 0040.43 15.481c1.485.241 5.182.049 5.544-.198 3.509-.352 7.003-.797 10.487-1.308 8.708.362 85.32 1.797 99.524 8.264 15.602 7.101 35.813 3.657 50.641 13.328-7.902 1.252-21.26 6.405-25.935 15.245-11.441-8.313-20.597-7.346-33.84-10.62-2.686-.667-5.374-1.331-8.064-1.993-10.22 4.624-30.929 5.579-40.959 10.716-13.189 6.76-14.334 20.627-27.158 28.274-7.234 4.314-13.471 4.125-20.589 8.7-.475.299-12.152 4.175-18.186 7.238-6.033 3.063-8.657 7.204-15.964 10.157-13.117 5.286-35.577 10.319-49.721 7.875-2.235-.394 8.042-1.614 10.287-1.63 21.94-.211 30.845-8.468 51.65-23.436 10.527-7.576 28.477-7.856 37.753-16.858 9.275-9.002 16.028-22.574 26.99-29.334 5.899-3.654 15.333-4.237 21.659-6.782-2.882-.448-5.769-.841-8.652-1.125-25.634-2.487-56.988-1.648-81.599 4.46-10.453 2.6-50.168 5.226-70.768-2.953-11.295-4.473-24.393-6.743-36.082-8.304-1.97-.266-19.992-3.398-32.582-7.516-25.059-8.248-18.618-11.315-18.706-12.776 4.995.888 4.516.012 11.82 2.738 15.29 5.689 20.26 7.665 30.744 8.262z" fill="#fff"/><path d="M105.202 1091.98c8.797-9.5 18.614-17.74 29.225-24.53 10.529-6.82 21.753-12.19 33.43-16.01 11.937-3.89 24.265-6.07 36.69-6.49 12.951-.4 25.894 1.06 38.511 4.36 12.566 3.28 24.7 8.38 36.097 15.15 1.411.85 2.822 1.72 4.233 2.62.452.3.875-.5.41-.79-11.296-7.26-23.394-12.84-35.985-16.59-12.543-3.73-25.461-5.65-38.44-5.7-12.591-.05-25.136 1.72-37.325 5.26-11.875 3.47-23.328 8.55-34.107 15.12-10.729 6.55-20.684 14.57-29.634 23.88a148.176 148.176 0 00-3.288 3.5.179.179 0 00.019.19.13.13 0 00.164.03v0z" fill="#fff" stroke="#fff" stroke-width="2"/><path fill-rule="evenodd" clip-rule="evenodd" d="M1619.45 1310.14c-1.16-.52-2.32-1.05-3.47-1.59a205.606 205.606 0 01-32.59-19c-9.56-6.84-18.83-14.46-26.77-23.18-.17.12-.33.24-.49.37-.95.65-1.63 1.63-1.93 2.74-.06.3-.09.62-.09.93-.08.24-.12.5-.11.76.26 7 5.43 14.13 10.62 19.08 5.74 5.46 12.64 8.88 19.62 11.28 6.89 2.37 13.94 3.92 20.92 5.46a762.31 762.31 0 014.85 1.08c3.13.72 6.3 1.44 9.44 2.07zm-61.76-44.41c3.78-3.5 9.84-4.16 15.24-3.5 6.8.83 13.38 4.07 19.29 8.58 8.72 6.66 15.37 15.36 21.93 24.16a.8.8 0 01.13.13c.61.92 1.3 1.81 2 2.68.14.14.27.28.41.42.27.28.54.56.8.85.26.27.47.57.63.91 3.22 3.64 6.87 6.86 10.88 9.6.48.32.23.88-.2 1.06a.82.82 0 01-.45.21h-.37c-.25.15-.52.27-.81.35-2.83-1.08-5.65-2.17-8.42-3.4-5.75-2.55-11.33-5.34-16.79-8.41a200.239 200.239 0 01-31-21.54c-4.58-3.87-8.93-7.97-13.27-12.1z" fill="#fff"/><path d="M78.222 1189.06c-.144.21-.274.42-.413.64l.099.01c-.062.38-.05.76.032 1.14l-.073.35a.732.732 0 00.064.47c.036.44.5.87.941.45a62.018 62.018 0 0112.304-7.67c.368-.06.726-.18 1.06-.34.501-.29 1.029-.54 1.555-.81 1.03-.43 2.077-.84 3.135-1.21.057-.03.112-.06.164-.09 10.252-3.87 20.444-7.84 29.342-14.24 6.03-4.34 11.071-9.63 13.918-15.72 2.259-4.82 3.489-10.61 1.335-15.01a8.354 8.354 0 00-.428-1.68 4.393 4.393 0 00-1.981-2.47 4.3 4.3 0 00-.852-.31 2.14 2.14 0 00-.681-.3c-6.661-1.54-14.92 1.48-21.14 5.04-6.859 3.96-12.173 9.48-16.552 15.33-4.56 6.4-8.764 13.05-12.59 19.92-2.075 3.5-4.193 7.04-6.185 10.56-.608 1.07-1.714 2.66-2.515 4.23-.02.61-.206 1.2-.539 1.71z" fill="#fff"/><path d="M142 1137.1s-12.477 4.83-31 21c-9.369 8.18-32 34-32 34" stroke="#000" stroke-width="2"/><path fill-rule="evenodd" clip-rule="evenodd" d="M846.54 392.015c2.949 4.866 5.255 10.218 5.602 15.965.33 5.217-.661 11.47-4.741 15.086a1.87 1.87 0 01-2.632-.22 1.27 1.27 0 01-1.183.949c-5.108.521-10.028-2.672-13.399-6.242a28.42 28.42 0 01-7.01-14.436c-1.588-8.324-.384-16.569.821-24.812l.144-.993-.004-1.645c-.002-.47.147-.928.423-1.307.256-1.853.492-3.711.668-5.568-.971-1.35-2.129-3.016-1.533-4.495a.25.25 0 01.21-.156 2.651 2.651 0 011.663.476.39.39 0 01.738.13l.01.178c.005.109.009.219.023.326a30.908 30.908 0 013.179 3.911c1.46 1.781 2.867 3.602 4.274 5.425.591.765 1.183 1.531 1.778 2.293a160.223 160.223 0 0110.969 15.135zm.021 23.43c.062.044.122.092.178.143l.004-.02c.247-.663.442-1.346.583-2.04.479-2.621.481-5.307.007-7.929-.883-5.131-3.463-9.902-6.289-14.208-2-3.055-4.149-6.032-6.288-8.996-1.197-1.659-2.391-3.313-3.555-4.975-.482-.681-.955-1.369-1.427-2.057l-.709-1.031a57.163 57.163 0 00-.278 4.165c1.729 13.81 4.737 29.572 17.774 36.948zM724.062 1316.57c1.925-5.36 4.633-10.52 8.881-14.41 3.847-3.53 9.33-6.7 14.708-5.81a1.88 1.88 0 011.485 2.19c.511-.23 1.113-.1 1.482.32 3.619 3.64 4.234 9.48 3.582 14.34a28.438 28.438 0 01-6.808 14.54c-5.47 6.47-12.635 10.72-19.799 14.97l-.862.51-1.277 1.04c-.363.3-.812.47-1.281.5-1.602.96-3.194 1.95-4.748 2.98-.438 1.61-1.004 3.55-2.528 4.02-.09.03-.188 0-.254-.06a2.65 2.65 0 01-.676-1.6.378.378 0 01-.429-.19.382.382 0 01.065-.46l.132-.12c.082-.07.164-.15.239-.22.212-1.67.559-3.32 1.039-4.94.465-2.25.995-4.49 1.526-6.73.223-.94.445-1.88.664-2.83 1.266-6.1 2.889-12.13 4.859-18.04zm18.194-14.77a2.018 2.018 0 01-.001-.22l-.017.01c-.672.22-1.324.5-1.952.83a21.986 21.986 0 00-6.167 4.98c-3.432 3.92-5.515 8.92-7.084 13.83-1.115 3.48-2.076 7.02-3.034 10.55-.535 1.97-1.07 3.94-1.629 5.89-.226.8-.463 1.6-.701 2.4l-.355 1.2a55.804 55.804 0 003.412-2.4c9.645-10.04 20.001-22.29 17.528-37.07z" fill="#fff"/><path fill-rule="evenodd" clip-rule="evenodd" d="M1772.24 1872.65c7.46 45.99 15.11 93.15 51.76 113.35H95c-4.24 0-3.846-.24-.6-2.21 8.234-5 34.819-21.14 50.6-72.79 22-72 69-193 182-193 57.215 0 83.642-5.49 107.11-10.36 22.881-4.75 42.948-8.92 85.994-6.84 8.681.42 18.193-.79 27.842-2.02 16.877-2.15 34.173-4.35 48.173 2.02 13.887 6.31 1.377 8.12-16.898 10.77-10.682 1.55-23.334 3.38-33.834 6.56-3.41 1.03-6.84 2.07-10.239 3.1-20.891 6.32-40.604 12.28-47.051 14.8-11.582 4.52-19.003 22.16-9.001 29.8 11.499 4.9 21.395 2.86 31.635.74 3.076-.64 6.182-1.28 9.373-1.74 7.925-1.16 15.245-3.27 22.537-5.37 8.261-2.38 16.486-4.75 25.517-5.72 12.002-3.97 63.012 7.22 73.534 11.36a186.867 186.867 0 0033.317 9.88c1.84.35 6.011 1.04 6.011 1.04 2.887.46 5.8.75 8.722.85 39.772-.88 58.577-8.82 75.385-15.91 4.513-1.91 8.881-3.75 13.473-5.38 4.547-1.63 20.576-5.26 34.332-8.38 7.211-1.63 13.798-3.12 17.778-4.11 13.233-3.29 43.139-9.17 54.511-1.35.153.1.382.63.744 1.47 1.634 3.77 5.981 13.81 18.26 19.54 7.311 3.43 13.006-1.39 19.459-6.85 2.948-2.49 6.055-5.12 9.547-7.16 14.393-8.38 34.797-11.45 72.019-3 21.74 4.95 28.52 5.18 47.42 5.82 2.31.08 4.81.16 7.54.26 13.19.49 31.59-2.3 49.21-4.98 18.45-2.8 36.03-5.47 45.86-4.1 34.68 4.85 70.01 16.71 100.02 34.02 13.7 4.06 21.19 4.36 28.79 4.66 7.37.3 14.85.6 28.22 4.34 25 7 82.97 14.3 121.98-6.71 24.99-13.47 4.51-15.05-24.81-17.33-16.44-1.27-35.66-2.76-51.21-6.69-23.25-5.86-38.41-20.19-46.1-27.47-1.64-1.55-2.94-2.78-3.91-3.54-8.2-6.41-23.96-8.77-37.87-10.86-6.6-.99-12.79-1.92-17.56-3.19-9.29-2.48 75.54-16.76 105.44.04 21.56 12.12 52.18 24.27 76.02 32.02 9.61 1.38 19.88 1.08 30.11.78 8.46-.24 16.89-.49 24.9.22 15.71.57 32.07-2.39 49.97-5.64 20.02-3.62 41.95-7.6 67.05-7.37 11.41-3.07 87.68 1.98 133.68 48.98 20.44 20.88 26.28 56.89 32.24 93.65zm-132.1-5.59l1.13-.06c.01-.06.01-.12.01-.18.01-.06.01-.11.01-.18-.41-.2-.82-.42-1.21-.67l-1.22 1 1.28.09z" fill="#000"/><path d="M922.956 1512h118.004v-52.38L841.956 1455v38.51l81 18.49z" fill="#fff"/><path d="M802.956 1736.06s14.637-23.09 13.875-35.75c-.761-12.65 13.094-23.64 28.503-31.89 15.408-8.25 45.473-30.8 45.473-45.63 0-14.83 13.865-25.85 26.198-35.75 12.332-9.9 16.951-17.04 16.951-17.04s-28.502 40.14-28.502 47.84c0 7.7 3.837 13.75-1.543 22.54s-26.208 42.34-17.733 54.43c8.476 12.1 36.998 38.5 23.113 57.19 0 0 0-11.54-8.466-18.69-8.465-7.15-26.208-12.1-45.463-7.7-19.255 4.4-37.759 6.61-52.406 10.45z" fill="#000"/><path d="M939.98 1590s-16.546 22.7-17.917 32.74c-1.371 10.03 2.753 28.01-7.577 43.81-10.329 15.8-13.092 24.82-4.144 36.97 8.949 12.15 13.783 31.15 13.783 31.15s34.452-4.25 56.513 1.05c22.062 5.3 30.322 5.28 30.322 5.28s-31.033-8.97-34.456-21.64c-3.423-12.67 2.062-43.3 1.371-55.97-.69-12.68-12.401-45.41-17.226-48.57-4.824-3.17-11.751-16.37-20.669-24.82zM893.236 1374.67c-.419-1.27-1.243-2.43-2.39-3.37-.59-.38-1.81-.39-3.54-.08-5.67.99-10.77 3.8-15.41 6.26a7.2 7.2 0 01-2.07.69l-.07.05c-10.92 8.54-25.54 12.54-39.34 17.64-7.84 27.48 11.51 58.14 16.31 79.89 5.16 23.32 9 27.98-5.15 56.91-14.15 28.92-20.61 41.04-14.17 72.76 6.44 31.71-16.75 33.58-45.09 53.17-28.34 19.59-29.67 50.31-29.67 50.31-7.73 24.25-104.36 12.13-139.15 11.22-34.79-.9-59.26 2.8-81.16 19.59s-46.38 19.59-46.38 19.59 15.46 5.61 70.86-14.92c55.4-20.54 95.71 28.05 180.75 4.75s61.46-46.73 74.35-65.39c12.89-18.66 25.76-15.86 41.23-34.51 15.47-18.65 18-32.65 42.51-55.04 24.51-22.39 10-93.49-21.9-119.43-17-13.81 1.42-62.42 19.48-100.09z" fill="#000"/><path fill-rule="evenodd" clip-rule="evenodd" d="M1653.02 1715.66c-14.05-3.23-50.66-1.69-90.01-.04-24.44 1.02-49.94 2.09-71.75 2.09-56.94 0-70.4-6.74-110.76-28.45-28.66-15.42-66.19-14.24-103.72-13.06-15.34.49-30.67.97-45.4.32-34.43-1.52-46.44-4.42-61.27-8-7.03-1.7-14.7-3.55-25.7-5.48-34.18-6-56.99-66.25-57.98-90.97-.63-15.49-6.16-29.22-12.24-44.31-3.63-8.98-7.44-18.46-10.54-29.08-5.24-18 11.07-41.4 26.12-62.99 8.74-12.54 17.05-24.46 20.47-34.36 2.55-7.37 8.84-14.19 16.36-20.25 2.35-2.71 4.5-5.53 6.42-8.44.04-.05.11-.18.21-.34.06-.1.12-.21.19-.32-.1-.07-.2-.15-.29-.22-.26-.21-.52-.41-.79-.58-.83-.58-1.69-1.16-2.56-1.71l-.3-.19a2.15 2.15 0 01-.79-.25c-1.01-.4-2.49-1.26-3.62-1.91-.61-.36-1.11-.65-1.38-.78-2.12-.93-4.3-1.8-6.52-2.6-.99-.36-1.99-.69-2.99-1.02-1.33-.19-2.75-.65-4.12-1.1-.85-.27-1.69-.54-2.48-.74-1.81-.45-3.64-.87-5.47-1.27C1084 1363 1037 1343 1024 1325c-11.1-15.37-65.395 15.73-82.119 25.31-2.863 1.64-4.625 2.65-4.881 2.69-2.636.39-5.882 2.25-9.105 4.1-3.059 1.76-6.098 3.5-8.574 3.96a111.6 111.6 0 01-8.117 14c-23.619 42.35-19.729 69.21-17.655 83.53l.051.35c1.122 7.76 5.635 13.73 12.191 22.41 5.474 7.25 12.371 16.38 19.908 30.01 16.565 29.96 13.456 60.66 13.456 60.66l13.455-19.47c11.598-16.77-.625-52.99-10.849-83.28h-.001c-1.646-4.88-3.24-9.6-4.675-14.07-2.999-9.4-1.779-18.05 1.91-26.42-.709 10.78 10.327 37.58 20.088 61.29 7.026 17.05 13.391 32.51 14.24 39.23 1.118 8.91-2.599 18.9-6.415 29.16-3.248 8.74-6.567 17.66-7.04 26.27-.592 10.76 5.988 19.79 13.274 29.78 5.393 7.4 11.174 15.32 14.716 24.88 4.122 11.12 2.388 19.66.586 28.55-1.84 9.07-3.752 18.49.414 31.37 8.247 25.49 48.662 55.41 118.032 39.69 69.37-15.72 146.95 19.47 146.95 19.47 16.1 7.23 31.02 9.08 45.39 10.85 12.41 1.53 24.4 3.02 36.39 7.87 25.88 10.48 127.35-3.74 82.82-5.99-2.13-.11-4.2-.2-6.22-.27-6.16-.23-11.84-.32-17.18-.41-29.51-.48-48.6-.8-81.15-22.53-35.82-23.92-91.2-28.39-158.18-33.8-8.52-.68-17.22-1.39-26.1-2.15-28.28-2.4-49.87-8.13-65.54-15.74 8.41-4.97 19.07-6.82 29.29-5.09 2.35.57 4.67 1.2 6.94 1.93.29.1.59.18.9.24 5.54 2 12 3.94 19.38 5.93 27.92 7.46 60.8 4.63 97.63 1.47 26-2.24 53.98-4.64 83.54-3.71 57.48 1.81 88.15 17.67 109.8 28.87 5.26 2.72 9.98 5.17 14.43 7.07 22.77 9.73 108.71 0 137.69-4.49 28.98-4.49 92.27-5.98 92.27-5.98s19.85-1.64-2.92-6.88zm-593.06-71.76c-.09 0-.18.03-.27.06-.03.01-.05.02-.08.03-.01 0-.03.01-.04.01-.19-.22-.38-.43-.58-.62 0-.13 0-.25-.03-.38.29.34.63.65 1 .9zm-6 45.51l-1-.14.62.46.38-.32z" fill="#000"/><path d="M1274.07 423.599a131.678 131.678 0 0119.15-13.79 143.54 143.54 0 0166.87-20.21c15.27-.67 30.55 1.261 45.18 5.71a140.457 140.457 0 0140 19.62 133.485 133.485 0 0131.56 31.33c1.06 1.49 2.26 2.85 3.31 4.35 1.27 1.82 4.24.17 3-1.76-1-1.62-2-3.32-3.08-4.86-1.08-1.54-2.39-3.16-3.63-4.71a144.894 144.894 0 00-7.48-8.54 149.444 149.444 0 00-17.14-15.35 143.82 143.82 0 00-40.28-21.79 134.633 134.633 0 00-45.91-7.49 140.81 140.81 0 00-46.89 8.7c-14.83 5.5-29.27 13.44-41.13 24-1.46 1.3-3 2.57-4.4 3.89-.59.53.28 1.39.87.87v.03z" fill="#fff" stroke="#fff" stroke-width="2"/><path d="M1432.1 402.979c20.16-17.24 42.79-31.49 67.73-40.7a204.544 204.544 0 0177-12.79c26.09.87 51.76 6.8 75.6 17.46a199.247 199.247 0 0163.5 44.48c17.24 18.23 32 43 29.82 69a58.068 58.068 0 01-1.65 9.44c-.22.779.24 1.585 1.02 1.8.78.215 1.58-.241 1.8-1.02 7.36-26.22-4.66-52.67-20.9-72.91a173.64 173.64 0 00-28.84-27.93 207.38 207.38 0 00-109.63-43.12 199.55 199.55 0 00-79.49 9.49c-12.72 4.213-25 9.634-36.67 16.19-11.57 6.51-23.1 14.11-32.73 23.31-2.36 2.25-4.75 4.47-7 6.82a.354.354 0 00.5.5l-.06-.02z" fill="#fff" stroke="#fff" stroke-width="2"/><path d="M1688 1778c27.8-23.98 30.79-59.04 31-95M1690.11 1770.69c33.96-14.13 47.63-46.49 58.92-80.56" stroke="#000" stroke-width="2"/><path d="M243.323 1758.83c16.052-35.61 3.178-70.74-12.776-105.48" stroke="#000" stroke-width="2" stroke-linecap="round"/><path fill-rule="evenodd" clip-rule="evenodd" d="M177.834 1676.05c.562-3.76 37.13 29.12 44.835 38.66 7.704 9.53 9.939 22.18 16.084 29.87 6.146 7.68 17.254 11.8 17.254 11.8s-16.476 6.11-29.608-1.37c-13.132-7.49-20.595-4.41-22.936-24.34-2.341-19.93-26.19-50.85-25.629-54.62z" fill="#000"/><path d="M240.226 1757.88c-10.191-8.45-16.56-12.67-25.461-27.11-7.704-12.5-14.536-33.14-31.382-45.7" stroke="#fff" stroke-width="2" stroke-linecap="round"/><path fill-rule="evenodd" clip-rule="evenodd" d="M286.556 1636.21c-2.124-3.16-21.588 41.93-24.573 53.78-2.985 11.86.373 24.22-1.976 33.75-2.349 9.53-10.767 17.93-10.767 17.93s17.711-1.42 26.549-13.71c8.838-12.29 16.991-12.66 10.62-31.64-6.372-18.98 2.271-56.95.147-60.11z" fill="#000"/><path d="M264.345 1736.38c5.727-11.93 9.762-18.42 11.748-35.21 1.719-14.53-.839-36.04 9.231-54.48" stroke="#fff" stroke-width="2" stroke-linecap="round"/><path d="M963 1338c33.587-15.18 45.49-30.49 65-50 28.76-28.76 42.54-50.47 47.93-64.64l-1.86-.72c-5.27 13.83-22.21 35.08-50.78 63.65-19.84 19.85-45.626 37.33-80.29 52.71-15.19 6.74 4.01 6.23 20-1z" fill="#fff"/><path fill-rule="evenodd" clip-rule="evenodd" d="M698.844 1533.24a5.08 5.08 0 00-2.417-.8c-.28-.01-.558-.05-.831-.11a7.372 7.372 0 00-2.199-.06c-.48.04-.676.24-.676.7-.003.12.003.24.015.37a5.3 5.3 0 01-.621 2.97 25.815 25.815 0 01-3.268 5.03c-.301.34-.61.67-.926.99a.96.96 0 01-.328.15s-.07.01-.11-.03c-.043-.01-.078-.03-.096-.07-.017-.04-.014-.09.009-.12.071-.19.161-.37.268-.54.208-.33.421-.65.633-.97.284-.43.568-.86.839-1.3.692-1.1 1.364-2.23 2.029-3.36.337-.53.548-1.12.617-1.74.061-.57.07-1.14.079-1.72.006-.2-.017-.41-.068-.6-.243-1.38-.7-2.7-1.356-3.93a11.729 11.729 0 00-2.027-3.06 6.105 6.105 0 01-.235-.26c-.224-.25-.451-.51-.679-.73a16.753 16.753 0 00-5.234-3.79 4.981 4.981 0 00-.924-.33c-.551-.13-1.115-.24-1.684-.33a7.09 7.09 0 00-1.952-.03.684.684 0 00-.588.39c-.048.06-.091.13-.129.21a10.432 10.432 0 01-2.714 3.13c-.154.12-.308.25-.463.38h-.001c-.253.21-.508.43-.766.63-.389.3-.914.68-1.393 1.03l-.095.07c-.299.21-.558.38-.81.53-.173.11-.343.21-.52.33-1.358 1-2.899 1.71-4.533 2.11a.793.793 0 00-.616.67c-.08.39-.166.77-.252 1.15h-.001c-.167.74-.333 1.48-.458 2.23a21.23 21.23 0 01-1.474 4.68c-.25.56-.56 1.09-.922 1.59-.733.99-1.586 1.88-2.54 2.65-.627.53-1.222 1.05-1.789 1.68-.823.85-1.667 1.68-2.527 2.5-.739.68-1.553 1.28-2.428 1.77a.603.603 0 01-.577.11.192.192 0 01-.107-.17.637.637 0 01.158-.32l1.233-1.19c1.156-1.1 2.302-2.21 3.389-3.41.639-.7 1.322-1.37 2.047-1.98.376-.32.731-.65 1.081-1.02a9.271 9.271 0 001.841-2.45 16.05 16.05 0 001.243-3.49c.237-.97.436-1.94.635-2.92v-.01h.001l.213-1.04a.446.446 0 00-.044-.22c-.017-.09-.202-.13-.321-.07-1.703.78-3.418 1.55-5.16 2.26a24.834 24.834 0 01-5.091 1.32.5.5 0 01-.243 0 .436.436 0 01-.177-.12c-.062-.07.015-.25.112-.3l.458-.18c2.94-.88 5.79-2.03 8.512-3.44a21.804 21.804 0 013.971-1.59 9.556 9.556 0 002.06-.78 32.407 32.407 0 006.244-4.31 6.177 6.177 0 002.09-2.67c.053-.11.113-.22.181-.32a8.053 8.053 0 001.03-3.87c-.012-.94-.034-1.88-.079-2.83a11.33 11.33 0 00-.106-1.46c-.155-.96-.331-1.93-.507-2.89h-.001v-.01l-.097-.53-.036-.2a4.172 4.172 0 00-.617-1.59c-.197-.29-.368-.58-.539-.88-.075-.13-.149-.26-.226-.38a9.233 9.233 0 00-2.203-2.46c-.422-.3-.912-.48-1.424-.53a8.351 8.351 0 00-1.224-.09c-.847 0-.876.08-1.158.8l-.005.01a6.835 6.835 0 01-3.263 3.52.68.68 0 01-.344.06c-.093.02-.135-.07-.122-.17.055-.2.175-.37.341-.49.157-.15.315-.31.473-.46.316-.3.632-.6.938-.91a5.557 5.557 0 001.384-2.43c.089-.26.106-.55.051-.82a7.5 7.5 0 00-.636-1.85c-.335-.6-.68-1.21-1.025-1.82a8.617 8.617 0 00-2.202-2.45.859.859 0 00-.21-.12.51.51 0 00-.562.11l-.436.43c-.46.47-1.005.85-1.605 1.12-1.5.66-3.088 1.1-4.715 1.3-.201.01-.403-.01-.6-.05a.33.33 0 01-.198-.14.216.216 0 01.087-.18c.384-.24.803-.42 1.243-.52 1.145-.31 2.271-.69 3.372-1.12.346-.13.679-.28.996-.46a3.145 3.145 0 001.466-1.59c.123-.35.259-.69.395-1.03.136-.35.272-.69.396-1.03.048-.14.097-.28.145-.41l.004-.01.003-.01c.194-.55.39-1.11.62-1.65a17.087 17.087 0 001.328-4.96c.128-1.18.087-2.37-.122-3.54a1.89 1.89 0 00-.829-1.31c-.49-.31-.987-.62-1.489-.86a2.31 2.31 0 00-1.059-.28h-.122c-.447-.01-.9-.01-1.349-.03-1.389-.03-2.778.11-4.136.4-.721.15-1.409.43-2.027.83-.987.66-1.894 1.44-2.704 2.31a3.298 3.298 0 00-1.03 2.03c-.028.16-.064.32-.109.48-.25 1.29-.723 2.52-1.398 3.65-.189.29-.357.6-.523.9-.109.2-.217.4-.33.59-.25.42-.393.63-.579.91l-.087.12a.438.438 0 01-.201.13s-.103-.03-.097-.04c.011-.15.041-.3.09-.45.126-.35.259-.69.392-1.03.178-.46.355-.92.516-1.39.109-.32.191-.65.273-.98.076-.3.152-.61.25-.91.414-1.41.741-2.85.979-4.3.122-.61.144-1.23.064-1.84-.172-1.18-.339-2.37-.5-3.53a4.23 4.23 0 00-.417-1.27 2.23 2.23 0 00-1.886-1.36c-.931-.13-1.873-.15-2.809-.07a9.209 9.209 0 00-4.698 1.92c-.12.11-.25.21-.389.29a.25.25 0 01-.223-.02.238.238 0 01-.102-.19c.239-1.08.321-2.19.243-3.29a2.412 2.412 0 00-.163-.84 4.04 4.04 0 00-1.391-1.82 7.25 7.25 0 00-3.024-1.56 9.881 9.881 0 00-5.799-.06c-.261.08-.51.2-.742.35-.91.55-1.736 1.23-2.451 2.02-.202.23-.409.46-.616.69-.208.22-.415.45-.617.68-.255.26-.49.55-.702.85-.375.65-.795 1.27-1.258 1.87a.387.387 0 00.048.45c.023.02.045.05.066.07.036.04.07.07.106.11.505.42.851 1.01.979 1.66.109.56.219 1.12.375 1.67.128.73.107 1.48-.06 2.2a.74.74 0 01-.12.22s-.065.07-.083.07a.423.423 0 01-.211-.09.399.399 0 01-.101-.22c-.104-.78-.32-1.53-.535-2.27-.125-.43-.25-.86-.352-1.3a3.28 3.28 0 00-.157-.47 1.676 1.676 0 00-1.14-1.03c-.472-.14-.955-.24-1.435-.34a23.975 23.975 0 00-5.34-.58c-.78.01-1.558.07-2.331.18-.371.07-.753.11-1.136.16-.269.03-.538.07-.805.11-.281.04-.559.1-.827.2a10.15 10.15 0 00-3.887 2.26c-.05.05-.103.09-.157.13-.043.04-.087.07-.13.11a13.598 13.598 0 00-3.3 4.07c-.467.87-.854 1.78-1.158 2.71-.287.91-.573 1.82-.858 2.74-.214.68-.428 1.37-.643 2.05-.282.99-.473 1.99-.572 3.01-.04.41-.055.82-.046 1.23.007.33.129.65.345.9.273.31.526.63.756.97.802 1.29 1.4 2.69 1.774 4.17.17.62.279 1.27.389 1.91.055.33.11.65.173.98.093.69.084 1.38-.026 2.07a.248.248 0 01-.06.11.368.368 0 01-.092.07.16.16 0 01-.118.01.132.132 0 01-.069-.1l-.116-.59-.539-2.78a6.966 6.966 0 00-.567-1.74l-.237-.52h-.001c-.253-.54-.492-1.06-.763-1.59-.257-.51-.546-.99-.866-1.46a6.26 6.26 0 00-.803-.92 1.227 1.227 0 00-.883-.37 18.01 18.01 0 00-2.078.02c-.759.08-1.512.22-2.26.36h-.001c-.136.03-.272.05-.409.08-.486.07-.95.25-1.355.53-.335.24-.682.46-1.039.66a11.709 11.709 0 00-2.764 2.2c-.353.39-.71.77-1.065 1.15h-.001c-.544.58-1.086 1.15-1.61 1.76-.525.59-.966 1.21-1.411 1.85-.119.17-.238.34-.36.5-.14.2-.258.42-.354.64-.332.71-.599 1.44-.797 2.19-.053.24-.103.48-.154.71-.112.53-.224 1.05-.351 1.57a15.012 15.012 0 00-.177 4.76c.026.42.237.8.575 1.04.373.25.719.54 1.033.86.629.7 1.171 1.47 1.615 2.3.424.85.742 1.74.946 2.66.205.79.31 1.61.31 2.43.008.04.017.09-.025.12-.017.01-.034.04-.052.06-.027.04-.055.09-.088.09a.216.216 0 01-.198-.09c-.285-.85-.573-1.7-.83-2.57a13.124 13.124 0 00-2.054-4.02 4.715 4.715 0 00-2.449-1.76c-.532-.17-1.063-.35-1.594-.53-.436-.15-.873-.3-1.309-.44a5.448 5.448 0 00-1.187-.31 13.93 13.93 0 01-2.026-.42 5.198 5.198 0 00-.96-.15 7.029 7.029 0 00-3.006.51c-1.069.41-2.102.9-3.09 1.48-.575.31-1.124.67-1.641 1.07a9.237 9.237 0 00-3.301 4.48 4.427 4.427 0 00-.223 1.94c.122.96.264 1.94.437 2.91a3.453 3.453 0 001.84 2.47c.361.19.773.28 1.183.25.853-.07 1.708-.1 2.563-.07.776.04 1.554-.04 2.306-.23.2-.05.404-.07.61-.07.072.01.135.05.169.12.038.07.039.15.004.23a.953.953 0 01-.562.44c-.611.23-1.267.33-1.921.29-.812-.07-1.627-.09-2.441-.05a.845.845 0 00-.431.19c-.15.14-.278.3-.379.47-.239.39-.521.74-.84 1.06a11.47 11.47 0 00-2.714 4.75c-.389 1.34-.71 2.7-.961 4.07-.256 1.45-.242 2.94.043 4.39.072.48.218.95.434 1.4a4.029 4.029 0 002.346 1.85c.383.15.797.21 1.207.16a6.135 6.135 0 002.019-.49c.26-.11.533-.19.811-.24.08 0 .157.03.212.09.042.07.058.15.046.23a.532.532 0 01-.105.22c-.265.36-.655.62-1.097.73-.782.23-1.594.35-2.41.35-.46-.03-.649.21-.819.58a10.278 10.278 0 00-.685 4.82c.039.65.114 1.3.225 1.95.113.79.249 1.57.391 2.3.19 1.27.829 2.43 1.801 3.27.874.74 1.788 1.43 2.737 2.07.966.62 2.014 1.1 3.114 1.43.352.1.714.16 1.08.18 1.144.08 2.293.06 3.435-.05.569-.07 1.132-.18 1.687-.32.114-.04.221-.09.317-.16a.313.313 0 00.126-.2.31.31 0 00-.055-.23l-.472-.39-.183-.14h-.001c-.361-.27-.731-.55-1.081-.82a.605.605 0 01-.256-.53.603.603 0 01.142-.31.255.255 0 01.166-.07.25.25 0 01.166.07c.433.4.9.74 1.367 1.09.224.16.448.33.667.5a7.422 7.422 0 004.305 1.59c.504.03 1.013.03 1.521.02h.679c.861.02 1.721-.05 2.568-.21l.485-.09c.042-.01.091 0 .141 0 .032.01.064.01.096.01.158.04.288.15.351.31a.36.36 0 01-.224.39c-.154.05-.314.08-.476.09a26.78 26.78 0 01-5.141.19 5.012 5.012 0 01-1.09-.15 24.31 24.31 0 01-2.114-.62c-.343-.15-.74-.11-1.052.1a4.99 4.99 0 01-2.539.81c-1.463.15-2.939.13-4.397-.07a.551.551 0 00-.506.28l-.099.24-.06.14c-.185.44-.371.88-.564 1.32-.342.79-.609 1.61-.796 2.45-.067.27-.11.55-.129.83a6.28 6.28 0 001.238 4.04 8.931 8.931 0 003.465 2.86 14.55 14.55 0 006.134 1.54c.695.04 1.393.01 2.083-.08.281-.05.566-.06.85-.04a.91.91 0 00.663-.26l.448-.39c.342-.3.682-.6 1.016-.92a24.222 24.222 0 015.097-3.37.853.853 0 01.351-.07c.035 0 .067.02.083.05.023.03.031.08.023.12-.408.45-.848.88-1.317 1.27-.606.6-1.275 1.14-1.996 1.61-.55.35-1.065.76-1.539 1.21l-.238.22c-.343.31-.688.62-1.027.95-.188.15-.357.33-.503.53-.399.57-.8 1.14-1.247 1.67-.141.2-.251.42-.327.66-.55 1.46-.837 3-.847 4.56-.051 1.1.055 2.21.315 3.29.076.36.212.71.402 1.02a25.373 25.373 0 002.337 3.15c.208.23.44.44.667.65l.003.01.073.06.057.06a8.847 8.847 0 002.271 1.43c.342.15.684.31 1.025.46h.001c.405.18.81.35 1.211.54a25.28 25.28 0 005.035 1.93c.119.03.236.06.352.1.396.11.744.35.984.69.148.2.283.4.404.62a14.868 14.868 0 002.576 3.41c.614.61 1.131 1.3 1.534 2.06a12.898 12.898 0 003.181 3.86 6.96 6.96 0 002.435 1.4l.268.08c1 .32 2.002.65 3.019.9 1.719.53 3.509.8 5.309.8.496-.01.987.1 1.437.31.108.04.216.09.323.14l.561.24c.559.14 1.029.52 1.295 1.03.685.82 1.265 1.72 1.727 2.68.119.24.253.47.402.69l-.637.29c-2.075.93-4.149 1.87-6.234 2.67a38.096 38.096 0 00-7.549.18 59.35 59.35 0 00-8.091 2.1c-.473-.01-.938.12-1.327.39l-.615.17a34.684 34.684 0 01-9.681 1.01c-3.364-.01-7.024.05-10.462 1.08a40.254 40.254 0 00-9.53 4.29c-1.729 1.05-3.413 2.19-5.096 3.32-3.219 2.18-6.433 4.36-9.945 5.88L550 1640c.604-.22 1.198-.45 1.784-.71l3.056-1.2c2.889-1.14 5.665-2.59 8.414-4.03h.001c1.499-.79 2.99-1.57 4.488-2.29a39.66 39.66 0 019.227-3.56c3.155-.77 6.355-.65 9.786-.46 2.985.24 5.988.13 8.946-.34l1.069-.21.562-.11.313-.06.062-.01c6.598 1.43 13.008-.4 19.088-2.97 1.475-.62 2.935-1.29 4.394-1.95 4.121-1.88 8.24-3.75 12.715-4.62 2.119-.42 4.293-.5 6.437-.23 2.475.68 4.843 1.71 7.036 3.05.075.07-.236-.75-.54-1.56-.293-.78-.581-1.54-.513-1.48.487.45.814 1.05.93 1.7l.257 1.32c.044.23.062.47.08.7.006.08.012.15.02.23.545.45 1.068.92 1.565 1.43l.051.05.294.1a22.3 22.3 0 011.624-.28c-.016-.08-.017-.17-.018-.25-.001-.05-.001-.11-.005-.16l-.016-.42c-.014-.39-.028-.79-.069-1.18-.188-1.76-.467-3.49-.765-5.23-.058-.3-.116-.6-.134-.9a31.06 31.06 0 0115.325-.07c1.694.39 3.326 1.05 5.021 1.73 1.445.58 2.935 1.18 4.548 1.64 2.687.87 5.45.64 8.001.43a56.74 56.74 0 012.479-.16 8.765 8.765 0 014.539.8c1.154.57 2.051 1.64 2.986 2.75.161.19.324.39.489.58a12.253 12.253 0 009.111 4.43 12.375 12.375 0 01-8.281-5.08c-.19-.25-.378-.52-.569-.79-.798-1.13-1.649-2.34-2.981-3.17a10.366 10.366 0 00-5.265-1.41c-1.028-.04-2.027-.01-2.999.01-2.414.06-4.662.11-6.765-.72-1.308-.45-2.619-1.06-3.968-1.69-1.743-.81-3.55-1.64-5.502-2.22a32.066 32.066 0 00-16.692-.71c-.015-.7.028-1.4.078-2.09.03-.37.095-.73.195-1.09.16-.53.336-1.07.509-1.6l.242-.74a4.316 4.316 0 012.22-2.34c.407-.17.798-.32 1.185-.48.326-.13.649-.26.979-.4.875-.34 1.698-.8 2.447-1.37a25.271 25.271 0 013.483-2.3c.643-.34 1.268-.7 1.898-1.06l.14-.08a17.49 17.49 0 003.27-2.36 26.195 26.195 0 002.86-3.21c.271-.4.621-.74 1.027-1.01.386-.24.682-.6.845-1.03.427-.94.563-1.99.389-3l-.187-.96c-.09-.4-.09-.82-.002-1.22.024-.12.049-.23.074-.34.069-.32.138-.63.195-.99.173-.72.215-1.46.124-2.19-.055-.33.019-.66.208-.94.331-.51.621-1.06.868-1.62.151-.33.324-.66.515-.97a42.383 42.383 0 002.331-4.19c.338-.55.601-1.15.781-1.77.105-.44.271-.86.495-1.25.299-.54.57-1.09.813-1.65.188-.41.34-.84.486-1.25a8.57 8.57 0 00.23-3.41 5.182 5.182 0 00-.075-.49c-.037-.2-.073-.4-.08-.6a23.62 23.62 0 00-1.504-6.31c-.297-.98-.693-1.93-1.18-2.82a1.474 1.474 0 01-.068-.36c-.019-.09.182-.23.261-.19a.87.87 0 01.221.09c.619.6 1.129 1.3 1.506 2.08.429.92.788 1.88 1.075 2.86.427 1.54.732 3.11.912 4.69.023.2.027.41.012.61-.008.31.02.61.048.92.035.38.069.77.032 1.16.024.12.104.22.215.27.218.1.451.18.69.21 1.141.1 2.289.09 3.428-.04.203-.02.405-.06.601-.11a12.594 12.594 0 004.024-2.52c.251-.28.495-.57.738-.86.207-.24.413-.48.624-.72a13.388 13.388 0 002.46-4.77c.079-.24.146-.48.213-.72v-.01h.001c.084-.3.169-.61.278-.91.144-.38.209-.79.189-1.19l-.007-.39v-.01c-.009-.6-.019-1.2-.057-1.81a12.77 12.77 0 00-.451-2.53 7.771 7.771 0 00-.169-.65c-.05-.18-.1-.35-.143-.54a.788.788 0 01.027-.36.473.473 0 01.133-.19c.063-.05.276.01.338.08.509.64.87 1.39 1.058 2.18.271 1.12.377 2.27.314 3.41-.025.41-.026.83-.003 1.24.016.34.296.61.639.62.204.01.407-.01.607-.05.693-.17 1.362-.43 2.032-.68.249-.09.497-.19.747-.28.426-.15.797-.43 1.068-.8.401-.52.766-1.06 1.093-1.63.544-.96.993-1.98 1.34-3.03.365-1.04.656-2.11.87-3.19.35-2.56.323-5.16-.08-7.71a4.44 4.44 0 00-.808-2.03 5.87 5.87 0 00-2.639-2.49zm-53.855-27.45a.368.368 0 01.166-.15.177.177 0 01.123-.02c1.716 0 3.428-.34 5.002-1.02.484-.19.948-.39 1.408-.61a9.696 9.696 0 002.809-1.91c.083-.08.173-.16.263-.25.064-.05.129-.11.191-.17a.3.3 0 01.345-.07c.101.03.128.17.059.3a4.693 4.693 0 01-1.454 1.65 21.876 21.876 0 01-3.884 1.94c-.607.2-1.227.37-1.856.5-.763.14-1.273.24-1.788.27-.471.08-.952 0-1.334-.25-.049-.06-.054-.15-.012-.23l-.038.02zm-41.342 98.08a5.68 5.68 0 01-.092-2.06 2.59 2.59 0 00-.045-.39 3.737 3.737 0 00-.21-.48c-.116-.21-.235-.4-.354-.6-.12-.2-.239-.39-.355-.59a.597.597 0 00-.575-.31c-.575.01-1.151.02-1.729.06-.062 0-.126.06-.171.11a.114.114 0 00.022.11c.15.22.319.43.507.63.511.47.947 1.01 1.292 1.62.341.6.743 1.17 1.2 1.69.108.11.225.21.351.3.015 0 .068 0 .097-.01a.327.327 0 00.062-.08zm17.76-92.31a.196.196 0 01.237-.05c.066-.01.179.05.215.11.474.68 1.282 1.08 2.152 1.08.883.12 1.786.1 2.668-.07l3.645-.71a5.326 5.326 0 012.027-.09s.094.05.089.07a.605.605 0 01-.05.22.218.218 0 01-.093.09l-.236.1-2.477.65c-1.41.34-2.848.56-4.295.64-.81.02-1.616-.07-2.393-.27a3.204 3.204 0 01-1.222-.61 1.144 1.144 0 01-.419-.72.568.568 0 01.152-.44zm-8.678 97.34c1.025.05 2.045.18 3.049.38.096.03.259-.13.233-.23l-.164-.59a2.95 2.95 0 00-1.253-1.74c-.262-.16-.519-.34-.777-.51-.386-.27-.772-.53-1.172-.77-.842-.51-1.67-.98-2.575-1.43a6.835 6.835 0 01-2.62-2.34 4.385 4.385 0 00-1.591-1.5.486.486 0 00-.452-.06.74.74 0 00.003.23c.242.69.335 1.43.274 2.16-.005.2.015.41.06.6.038.5.13.97.224 1.45.034.2.11.39.222.56.294.4.593.8.892 1.2.335.44.671.89 1.001 1.35.194.25.469.44.781.52 1.254.39 2.552.63 3.865.72zm3.6-6.67c-.023.25-.053.51-.091.76a2.14 2.14 0 01-.145.38 4.547 4.547 0 01-.407-.37c-.448-.5-.949-.92-1.488-1.26a3.474 3.474 0 01-.887-.82 6.102 6.102 0 00-1.881-1.75 3.39 3.39 0 01-.619-.57c-.092-.09-.079-.4.049-.45l.714-.3c.974-.33 1.921-.75 2.83-1.26.163-.1.369-.04.492.14a4.8 4.8 0 01.757 1.65c.037.14.072.28.107.42.103.41.207.83.346 1.24.238.7.324 1.45.251 2.18l-.028.01zm-15.473-61.77c1.208-.14 2.398-.37 3.596-.6a6.66 6.66 0 001.783-.61c.252-.1.496-.23.729-.37a1.84 1.84 0 012.058-.1c.136.06.277.11.418.16h.001c.124.05.248.09.371.14.714.3 1.46.5 2.221.62l.971.15h.001c.836.12 1.673.25 2.519.32.763.1 1.536.08 2.294-.04.158-.04.32-.05.482-.04a18.43 18.43 0 002.773-.3c1.813-.24 3.548-.88 5.08-1.88.16-.12.308-.26.443-.4a.255.255 0 00.004-.23c-.026-.05-.125-.11-.195-.09a.459.459 0 00-.231.04l-.594.21h-.001c-.451.15-.903.31-1.346.49-.643.25-1.309.43-1.987.55-1.469.29-2.957.43-4.444.57-.967.11-1.943.1-2.909-.02-.156-.02-.312-.05-.467-.07h-.001c-.444-.07-.888-.13-1.335-.17a16.027 16.027 0 01-3.412-.84 1.804 1.804 0 01-.208-.13.245.245 0 01-.064-.32c.047-.05.092-.09.138-.13.068-.07.137-.14.216-.2a17.28 17.28 0 003.704-4.01c.21-.25.352-.56.413-.89l-.023-.11a.573.573 0 00-.22-.07.896.896 0 00-.488.34c-.788.82-1.575 1.63-2.351 2.47-.908.99-1.967 1.82-3.138 2.47-.638.35-1.285.69-1.937 1-.365.18-.747.32-1.139.42-1.651.41-3.333.69-5.03.82a5.62 5.62 0 01-2.633-.3c-.006 0-.009 0-.011.01h-.002c-.005.02-.01.03-.103.01-.134-.03-.321.16-.293.31.024.25.177.47.401.58.391.22.834.33 1.281.31.889.04 1.779.01 2.665-.07zm21.757 69.02a1.78 1.78 0 00-.058.97c.113.58.168 1.17.223 1.76.051.55.102 1.1.2 1.64a.21.21 0 01-.096.18.272.272 0 01-.212-.07c-.155-.22-.311-.43-.465-.63l-.001-.01c-.357-.48-.708-.95-1.041-1.45a4.684 4.684 0 01-.489-1.12c-.124-.43-.226-.87-.304-1.31-.124-.69-.312-1.36-.562-2.01a4.705 4.705 0 01-.297-2.41c.122-1.35.358-2.68.706-3.98a6.55 6.55 0 00-.197-4.02c-.128-.4-.268-.8-.409-1.2-.144-.41-.288-.82-.419-1.24-.129-.41-.239-.83-.349-1.25v-.01c-.055-.21-.109-.42-.167-.63a1 1 0 01.083-.71c.087-.19.183-.37.289-.54.558-.87.981-1.82 1.254-2.81.39-1.33.804-2.67 1.246-3.99.491-1.48.682-3.04.56-4.59-.016-.22-.035-.43-.055-.65-.044-.48-.087-.96-.095-1.44-.055-.98-.047-1.95.022-2.93.016-.16.051-.32.103-.48-.008-.04.059-.08.12-.11l.027-.02c.013-.01.026-.01.038-.02a.144.144 0 01.126-.03c.043.02.078.05.091.09.106.17.191.35.253.54.219.88.423 1.75.626 2.63l-.04.01c.038.27.079.54.12.82.069.45.138.91.191 1.37.116 1.22.056 2.45-.176 3.66l-.072.47c.018.1.165.21.267.19l.119-.02h.001c.453-.2.907-.4 1.348-.63a6.605 6.605 0 001.621-1.12 18.3 18.3 0 001.629-1.85 29.506 29.506 0 002.393-3.75c.544-1.01.99-2.07 1.331-3.16.355-1.15.632-2.3.909-3.45.067-.27.133-.55.2-.82.156-.64.33-1.27.52-1.89.056-.16.147-.3.265-.41 0 0 .175-.04.212.03.171.29.236.62.185.95a20.309 20.309 0 01-.837 4.82c-.105.27-.194.54-.269.82a12.51 12.51 0 01-1.338 3.43 24.025 24.025 0 01-4.134 5.82 7.862 7.862 0 01-2.318 1.64l-2.256 1.07c-.269.12-.473.34-.562.62l-.105.28c-.289.78-.58 1.57-.838 2.39-.332 1.1-.81 2.15-1.421 3.13-.3.45-.358 1.02-.156 1.52.025.13.085.24.145.36.055.11.11.21.136.32.103.49.422.91.87 1.14.221.11.398.29.503.52.277.6.727 1.1 1.292 1.45.051.03.102.07.152.1.05.04.101.08.152.11.352.22.579.59.614 1l.33 1.7c.151.72.125 1.47-.078 2.18-.094.35-.156.72-.182 1.09-.08 1.18-.317 2.35-.705 3.47-.141.41-.265.83-.387 1.25h-.001c-.122.41-.244.82-.381 1.22zm2.231 6.21c5.254-1.99 10.599-3.34 16.174-2.36l.005.02c.19-.08.418-.18.634-.26-.207-.25-.419-.49-.637-.73a4.938 4.938 0 01-1-1.62 9.03 9.03 0 00-.522-1.19 5.039 5.039 0 00-.823-1.18c-.241-.27-.459-.56-.676-.85-.096-.13-.192-.26-.29-.38a3.06 3.06 0 01-.598-1.55 6.131 6.131 0 01-.031-.33 4.056 4.056 0 00-.055-.49 61.753 61.753 0 00-.233-1.84c-.069-.49-.138-.98-.18-1.48a10.192 10.192 0 00-.923-3.43c-.185-.4-.3-.44-.794-.34l-2.706.48-.009-.05-.167.02c-.168.03-.336.05-.505.08h-.002c-.639.09-1.28.18-1.925.26-.422.04-.908.06-1.291.07h-.081c-.394.02-.543.14-.594.47-.114.79-.08 1.58.1 2.35l.136.69c.121.55.144 1.11.067 1.67-.035.3-.078.6-.121.9l-.073.52a6.533 6.533 0 01-.807 2.52c-.32.56-.648 1.13-.997 1.67a5.551 5.551 0 00-.958 2.55l-.011.1c-.016.16-.033.33-.063.49a7.74 7.74 0 00-.093 2.97l.049.25zm25.61-32.07a16.601 16.601 0 01-3.497 5.64c-.651.72-1.247 1.48-1.781 2.29a.392.392 0 00.009.46c.081.08.161.16.242.25.234.25.472.5.731.69.192.15.411.25.642.3.222.06.449.11.677.16.166.03.332.07.497.11.154.04.306.09.455.15.143.07.232.23.227.39l-.524 3.52a6.58 6.58 0 01-.602 1.86c-.182.4-.352.8-.523 1.21h-.001l-.298.7a9.282 9.282 0 00-.666 3.39c-.015.8-.049 1.6-.083 2.39-.048 1.13-.095 2.24-.087 3.35.002.28-.013.55-.045.83l-.628.22a1.926 1.926 0 01-.413-.3 2.471 2.471 0 01-.382-.46c-.413-.62-.87-1.2-1.366-1.75a2.025 2.025 0 01-.296-.38 17.853 17.853 0 00-1.706-2.41 3.26 3.26 0 01-.817-2.13 4.07 4.07 0 00-.08-.61 4.34 4.34 0 01-.041-1.35c.036-.3.051-.59.067-.89l.026-.46c.106-1.68-.113-3.38-.646-4.99a.637.637 0 01-.053-.49c.049-.16.161-.3.311-.37l.202-.14a15.87 15.87 0 003.345-3.1c.195-.25.415-.48.657-.68.365-.32.675-.69.919-1.12.38-.58.8-1.13 1.258-1.65a16.307 16.307 0 002.401-3.48c.092-.18.183-.36.291-.54.627-.94 1.163-1.95 1.602-3a1.1 1.1 0 01.204-.3c.06-.03.129-.04.198-.03 0 0 .067.06.073.09.004.91-.164 1.81-.494 2.66l-.005-.03zm18.103-5.13c.375-.39.649-.86.799-1.37l.005.02c.027-.08.045-.16.053-.24.013-.1-.144-.23-.24-.21-.261.1-.522.21-.783.32-.355.14-.711.29-1.065.42a6.76 6.76 0 01-1.08.31c-.29.07-.592.01-.838-.15a1.084 1.084 0 01-.475-.69l-.117-.6-.211-1.09-.21-1.08a4.242 4.242 0 00-.792-1.9 14.94 14.94 0 01-.924-1.44 51.692 51.692 0 00-1.551-2.51c-.153-.24-.306-.48-.457-.72a8.351 8.351 0 00-1.413-1.7c-.374-.32-.764-.63-1.17-.91a.99.99 0 00-.334-.15.277.277 0 00-.215.05.207.207 0 00-.04.21c.166.28.348.55.545.81.578.69 1.111 1.42 1.597 2.18.272.45.542.89.812 1.34.405.68.81 1.35 1.223 2.02.153.25.317.49.481.73.134.2.269.4.397.6.198.26.356.54.47.85.235.87.407 1.75.514 2.64.075.87.073 1.75.071 2.63-.001.26-.002.53 0 .8a7.7 7.7 0 01-.092 1.1 14.07 14.07 0 01-1.64 4.62 24.3 24.3 0 01-3.872 5.13c-.375.39-.791.74-1.242 1.05-.841.61-1.746 1.13-2.7 1.55a.76.76 0 00-.513.63l-.058.35c-.154.94-.307 1.87-.539 2.79-.011.11.011.23.065.33.031.08.273.05.438-.08.165-.13.33-.26.506-.38.448-.3.89-.6 1.333-.91.951-.65 1.901-1.31 2.911-1.92a54.875 54.875 0 003.02-1.98c.514-.36.988-.77 1.416-1.23.395-.41.76-.84 1.128-1.28.271-.32.545-.64.833-.96.41-.47.688-1.03.806-1.64a8.76 8.76 0 01.946-2.66c.209-.4.321-.85.326-1.3.004-.37.029-.73.075-1.1a4.64 4.64 0 011.276-2.75c.182-.17.354-.35.525-.53z" fill="#000"/><path d="M497 1660s-48.207-7.62-70-13c-78.438-19.36-135.74-35.24-179-40-82.92-9.12-245 0-245 0" stroke="#000" stroke-linecap="round"/><path fill-rule="evenodd" clip-rule="evenodd" d="M1631.59 1529.6c.11.35.24.68.4 1.01.53 1.03.74 2.19.6 3.34-.13 2.47-.64 4.9-1.52 7.22-1.18 3.3-2.75 6.44-4.67 9.37-1.02 1.67-1.9 3.41-2.64 5.22-.13.32-.22.65-.28.99-.33 1.45-.56 2.93-.7 4.41-.18 2.52-.71 5-1.57 7.37-.32.88-.87 1.65-1.58 2.25-.6.52-1.24 1-1.89 1.48l-.17.14c-.3.2-.61.38-.94.52-.28.12-.57.22-.86.31a9.918 9.918 0 01-5.91.67 9.3 9.3 0 01-5.91-2.78l-.41-.41c-.22 0-.42.12-.51.32-.06.09-.13.19-.19.29-.32.51-.64 1.02-.94 1.55-.82 1.37-1.77 2.65-2.84 3.83-.75.92-1.74 1.61-2.85 1.99-.22.07-.43.14-.65.22-.32.1-.64.21-.96.31-1.13.36-2.2.88-3.19 1.54-.34.23-.64.51-.88.85-.64.8-1.34 1.57-2.08 2.29-.78.75-1.67 1.36-2.65 1.82-.51.25-1.03.46-1.57.64-.77.27-1.59.41-2.41.4-.84-.03-1.67-.03-2.5-.03-.92 0-1.84 0-2.76-.04-.41.01-.82 0-1.22-.04-1.95-.21-3.91-.16-5.83.16-.21.03-.41.04-.62.04-1.8-.02-3.6.14-5.37.47-.5.07-1 .23-1.45.47-.84.38-1.64.87-2.36 1.44-.91.75-1.94 1.32-3.06 1.67-.6.18-1.16.46-1.65.83-.26.19-.51.38-.76.56h-.01c-.82.6-1.63 1.2-2.42 1.86a12.092 12.092 0 00-3.34 4.39c-.61 1.41-1.35 2.77-2.21 4.05-.19.31-.37.64-.55.96l-.51.9c-.22.4-.47.79-.75 1.16-.64.81-1.2 1.67-1.68 2.59-.24.45-.55.87-.92 1.23-1.63 1.64-3.53 3-5.61 4.01-.32.15-.63.29-.94.43-.16.07-.31.14-.47.21-1.41.62-2.75 1.42-3.96 2.38-.37.25-.7.49-1.03.74a9.153 9.153 0 00-2.57 2.83c-.14.24-.28.45-.44.68 3.29.36 6.58.7 9.88.91 3.66.26 29.29 6.38 29.29 6.38-2 1-5.04 2.22-6 2-22-5-45.33-8.28-63.65-7.83-6.01.14-17.07 3.86-26.69 7.09-4.39 1.48-8.49 2.85-11.66 3.74-2 .56-6.29 2.22-10.42 3.81-3.46 1.34-6.8 2.63-8.58 3.19-4.73 1.49-4.78.85-4.82.36-.02-.16-.03-.3-.18-.36.24-.11.97-.4 2.04-.82 3.77-1.5 11.74-4.67 16.96-7.18.9-.43 4.76-2.57 7.66-4.17h.01c1.81-1 3.24-1.79 3.33-1.83 4.66-1.79 6.52-2.47 11.37-3.68.37-6.24 2.95-12.15 7.28-16.67l-.48-.35a4.56 4.56 0 00-1.97-.91c-.33-.07-2.19-1.28-3.86-2.36-1.19-.78-2.29-1.5-2.66-1.69l-1.25-.6-.99-.48-.38-.25c-.58-.24-1.14-.55-1.66-.91-.6-.65-.97-1.49-1.03-2.38l.26-7.24c0-.57-.04-1.14-.11-1.7-.05-.2-.14-.38-.26-.55a.294.294 0 00-.26-.01.8.8 0 00-.24.38c-.26 1.47-.43 2.95-.5 4.44-.03.78-.07 1.56-.12 2.35-.04.71-.09 1.41-.11 2.12-.03.72-.16 1.43-.39 2.11-.13.34-.26.68-.38 1.02-.39 1.06-.78 2.12-1.25 3.14-.45.93-1.07 1.76-1.84 2.45-1.21 1.12-2.6 2.05-4.1 2.76-.36.18-.75.33-1.14.45-.24.08-.48.15-.73.22-.3.09-.59.18-.89.29-1.76.6-3.62.81-5.47.61l-.38-.04c-1.05-.1-2.1-.2-3.16-.23-1.43-.1-2.86-.33-4.25-.69-.24-.07-.5-.12-.75-.15-.62-.08-1.22-.25-1.79-.49-.17-.07-.33-.14-.5-.21-.21-.1-.42-.19-.64-.26a21.74 21.74 0 01-6.2-3.68 8.04 8.04 0 01-2.55-3.46c-.04-1.98-.12-4.1-.34-6.2.04-.14.09-.28.14-.41l.14-.33c.3-.74.61-1.5.95-2.23.4-.78.91-1.5 1.52-2.13.25-.33.61-.55 1.02-.62.37-.06.72-.21 1.02-.44l1.82-1.19c.9-.59 1.89-1.02 2.93-1.28.52-.12 1.03-.26 1.55-.39.88-.22 1.76-.45 2.65-.62.85-.17 1.72-.27 2.59-.37a114.771 114.771 0 002.9-.38c.31-.04.61-.09.92-.13.21-.03.39-.16.48-.34-.29-.3-.7-.46-1.11-.43-.87-.07-1.74-.08-2.61-.04-2.52.23-5.01.67-7.44 1.33-1.08.22-2.11.64-3.04 1.24-.66.4-1.36.72-2.1.93-.54.18-1.12.2-1.67.05a8.562 8.562 0 01-5.54-4.12 5.82 5.82 0 01-.81-3.24l.07-2c.02-1.34.2-2.68.56-3.98.21-.9.65-1.74 1.28-2.42a3 3 0 011.97-1.08c1.58-.18 3.13-.58 4.6-1.2.39-.16.82-.14 1.19.04 2.23.85 4.58 1.34 6.96 1.45l2.77.1c2.47.02 4.93-.28 7.32-.89.86-.2 1.67-.56 2.39-1.06.16-.12.29-.27.4-.44a.28.28 0 00.01-.28c-.04-.08-.16-.16-.24-.16-.4.05-.8.13-1.2.24-1.43.39-2.89.71-4.36.96-1.21.2-2.45.29-3.69.27-1.95.03-3.91-.08-5.85-.35-.7-.11-1.4-.26-2.09-.41-.21-.04-.42-.09-.62-.13-.08-.02-.21-.14-.2-.2.01-.14.07-.28.18-.37.17-.11.36-.2.55-.27l2.28-1.24c.63-.35 1.21-.79 1.72-1.3.1-.11.18-.24.25-.38 0-.01.01-.02.02-.04.02-.03.04-.07-.01-.11a.758.758 0 00-.26-.12c-.24.07-.48.15-.71.26-.4.2-.8.4-1.2.61-1.03.51-2.05 1.03-3.07 1.55-1.57.73-3.2 1.34-4.87 1.83-1.08.34-2.21.5-3.34.5-1.7-.02-3.4-.13-5.08-.35-1.73-.26-3.44-.63-5.12-1.12-1.44-.42-2.7-1.3-3.59-2.51-.37-.43-.71-.92-1.04-1.39l-.07-.1c-.5-.72-.87-1.52-1.09-2.37-1.1-3.94-.34-8.16 2.05-11.47 4.42-6.46 16.23-16.79 23.72-9.52 1.47 1.37 2.68 3 3.57 4.81.49 1.02.79 2.12.88 3.25.07.61.17 1.22.3 1.82.01.05.06.08.12.13.03.02.06.04.09.07.1.08.28-.01.37-.17.05-.09.1-.18.14-.27.05-.15.09-.3.12-.45.17-.81.17-1.64 0-2.45a9.95 9.95 0 00-.51-1.85c-.22-.53-.03-.76.59-.74l3.86.13c.46.03.92.13 1.35.3 1.26.45 2.45 1.09 3.51 1.9.3.2.6.39.91.56.05.02.13-.01.21-.03l.09-.03c.1-.03.2-.26.11-.4-.13-.27-.28-.53-.46-.78-.54-.63-1.2-1.16-1.95-1.52-.29-.16-.62-.31-.96-.46-.15-.06-.3-.13-.44-.19a7.46 7.46 0 00-2.98-.68c-1.33-.09-2.67-.09-4-.02-.47.07-.92-.16-1.15-.58-.58-.85-1.22-1.65-1.92-2.41-.34-.38-.7-.74-1.08-1.09-.62-.6-1.26-1.17-1.89-1.73-.13-.12-.27-.24-.4-.36l-.71-.6c-.39-.34-.72-.54-.99-.71-.63-.39-.96-.6-1.21-1.89-.15-1.25.07-2.52.63-3.65 1.19-2.3 2.95-4.25 5.1-5.69l.43-.31c1.47-1.08 3.05-2.25 4.7-3.3.99-.37 1.98-.67 2.89-.9 1.41-.36 2.96-.54 4.53-.72 2.64-.31 5.34-.62 7.57-1.8 1.16.14 2.28.5 3.31 1.05l1.19.69c1.34.8 2.43 1.94 3.19 3.29.26.45.46.92.61 1.42.34 1.12.66 2.26.94 3.41.08.4.13.81.13 1.22 0 .57.09 1.13.25 1.68.04.08.12.15.21.17.1 0 .2-.04.27-.11.49-.97.66-2.07.51-3.14-.24-1.53-.67-3.02-1.27-4.44-.49-1.14-1.36-1.93-2.21-2.7-.72-.65-1.42-1.29-1.85-2.11-1.14-2.13.05-5.49 1.25-7.25 7.76-11.39 15.84-11.39 21.97-11.4.64 0 1.26 0 1.85-.01 2.47-.06 4.33.73 6.37 1.59.75.32 1.53.65 2.37.95.16.06.35.12.53.18.16.04.31.09.46.14.74.24 1.55.2 2.27-.1.09-.03.17-.14.24-.23.02-.04.05-.06.07-.09.08-.1.02-.39-.1-.39-.13-.07-.28-.12-.42-.15-1.94-.27-3.81-.88-5.55-1.79-.82-.41-1.65-.84-2.46-1.28a6.24 6.24 0 01-1.19-.71c-.5-.38-.77-1-.68-1.62.07-.84.46-1.62 1.08-2.2.52-.46 1.02-.89 1.55-1.31.49-.39.99-.77 1.5-1.15.59-.46 1.18-.91 1.74-1.35l2.38-1.78a22.54 22.54 0 015.63-3.14c.71-.23 1.44-.39 2.19-.46.13-.05.27-.05.41-.04.11 0 .22 0 .33-.03 2.81-.38 5.68-.13 8.38.75l.78.36c.63.28 1.25.57 1.85.89.41.23.77.53 1.06.89.47.55.9 1.13 1.3 1.72.33.47.5 1.03.49 1.6.04.93-.15 1.86-.54 2.7-.79 1.67-1.74 3.27-2.83 4.76a50.804 50.804 0 01-5.12 5.75c-.47.47-.96.93-1.44 1.38-.61.58-1.21 1.15-1.79 1.72-.66.59-1.26 1.24-1.8 1.94-.01.03.01.08.03.13.03.05.05.1.05.13.03.05.07.07.12.08h.15c.05-.02.11-.05.16-.07.18-.09.36-.18.53-.28 1.36-.83 2.63-1.79 3.8-2.87 1.03-.98 2.07-1.97 3.1-3 1.53-1.62 2.93-3.34 4.19-5.17.43-.68.83-1.38 1.18-2.1.23-.41.43-.83.61-1.26a4.767 4.767 0 012.37-2.92c.49-.34.97-.68 1.44-1.02 1.22-.87 2.42-1.72 3.69-2.5 2.23-1.36 4.55-2.58 6.95-3.64 1.14-.53 2.34-.9 3.58-1.1.28-.04.55-.13.82-.21.17-.06.35-.11.52-.15.84-.26 1.73-.31 2.59-.15.4.11.81.13 1.22.14.57.05 1.13.19 1.65.41.4.16.82.29 1.23.42l.08.02c.78.24 1.52.61 2.19 1.08.27.2.54.4.81.59.28.2.55.39.82.59.6.41 1.03 1.03 1.21 1.73.07.31.16.6.27.89.48 1.36.73 2.79.74 4.23.04 1.07.08 2.15.04 3.24.01.57-.07 1.13-.23 1.67-.29 1.04-.64 2.06-1.06 3.05a19.235 19.235 0 01-4.61 6.5c-2.68 2.48-5.49 4.81-8.43 7l-.46.39c-.14.11-.19.38-.08.39.09.02.19.03.29.01.15-.04.29-.09.43-.16 3.64-1.93 6.97-4.4 9.88-7.32 1.88-1.9 3.33-4.2 4.24-6.71.02-.06.05-.13.08-.19.06-.13.12-.26.12-.39.34-1.19.96-2.29 1.8-3.2 1.56-1.9 3.41-3.54 5.49-4.87.7-.43 1.39-.89 2.05-1.39 1.8-1.29 3.83-2.21 5.98-2.73 3.06-.75 6.24-.88 9.34-.37 1.53.23 3.03.58 4.51 1.02.84.25 1.66.55 2.46.89.99.46 1.83 1.18 2.43 2.09.33.45.63.93.93 1.4h.01c.08.14.16.27.25.4s.16.26.21.41c.45 1.2.69 2.48.72 3.76-.01 1.09-.17 2.16-.49 3.2-.12.42-.32.81-.59 1.16-.7.88-1.4 1.77-2.15 2.62-.63.68-1.37 1.25-2.18 1.69-.68.38-1.36.75-2.04 1.13-1.02.56-2.04 1.13-3.06 1.69-.55.3-1.11.54-1.7.73-1.72.56-3.43 1.09-5.15 1.62-.25.07-.49.14-.74.22-.5.14-.99.29-1.48.45-.11.04-.21.2-.28.32-.06.12.22.31.46.32h.16l.42-.03c.27-.01.54-.03.81-.08 1.31-.2 2.62-.49 3.9-.86.61-.17 1.2-.36 1.81-.55.37-.11.74-.23 1.12-.35.15-.03.31-.02.45.02.07.02.19.14.18.2-.06.52-.22 1.01-.46 1.47-.4.84-.91 1.62-1.52 2.32-1.4 1.57-2.81 3.13-4.28 4.64-.59.59-1.24 1.11-1.89 1.62-.23.19-.47.38-.7.57-.82.63-1.59 1.32-2.3 2.06-.1.12-.16.26-.19.41-.01.06.08.2.15.2.1.04.21.05.31.01.19-.07.37-.16.54-.27 2.05-1.2 3.92-2.67 5.57-4.37.95-.98 1.87-2.03 2.78-3.08l1.03-1.18c.53-.63.99-1.31 1.36-2.05.4-.66.67-1.39.78-2.15.01-.08.02-.15.04-.22.02-.08.04-.16.04-.24.11-.62.5-1.15 1.06-1.44.8-.44 1.6-.91 2.4-1.38 1.74-.8 3.26-2 4.46-3.5.24-.25.49-.5.75-.74.23-.21.46-.43.68-.66 1.25-1.21 2.85-2 4.58-2.23 1.06-.2 2.16-.21 3.22-.02.44.08.88.14 1.32.2.63.08 1.26.16 1.88.31 1.8.45 3.52 1.19 5.08 2.18.26.16.51.32.77.47.53.33 1.07.65 1.57 1.02 2.29 1.76 4.34 3.81 6.09 6.1 1.18 1.48 2.3 3.03 3.33 4.64.8 1.27 1.43 2.63 1.86 4.07.39 1.17.7 2.37.93 3.58.17 1.33.12 2.68-.14 4a8.79 8.79 0 01-1.02 2.06c-.67 1.04-1.5 1.96-2.45 2.75-1.16.95-2.36 1.84-3.61 2.67-.56.38-1.13.76-1.69 1.14-.38.25-.76.5-1.13.76-.12.09-.21.22-.25.36-.02.05.08.22.13.22.19.03.4.02.59-.04 1.64-.6 3.2-1.41 4.63-2.41.64-.44 1.26-.92 1.85-1.4 2.2-1.67 3.73-4.06 4.33-6.74l.06-.15c.09-.18.3-.28.5-.24.15.05.3.09.46.14.33.11.67.21.99.35.61.26 1.2.55 1.79.85l.12.06.18.09c.09.04.18.09.26.15a9.27 9.27 0 012.8 3.23zm-133.36 63.97c-.15.44-.31.87-.48 1.31a7.897 7.897 0 01-2.67 3.55c-.21.17-.41.33-.61.49h-.01c-.4.32-.79.63-1.17.97-.95.8-1.63 1.87-1.97 3.07-.16.59-.38 1.17-.64 1.73a2.4 2.4 0 011.67.06c.59.18 1.21.29 1.82.32l.55.06c.48.06.96.12 1.45.14.66.07 1.33.07 2-.01.53-.08 1.05-.11 1.57-.14l.08-.01.15-.01c.07 0 .14-.01.21-.01.15-.01.3 0 .45.01.4.06.81.1 1.22.1.6-.01 1.1-.47 1.15-1.06.03-.16.03-.31.02-.46a3.8 3.8 0 00-.39-1.32c-.41-.85-.87-1.64-1.34-2.43-.44-.75-.88-1.5-1.26-2.29-.54-.99-1.01-2.01-1.42-3.05l-.38-1.02zm-21.12-9.21c-.47.08-.94.14-1.41.17-.14-.03-.28-.08-.41-.14a.463.463 0 01-.17-.24c0-.09.04-.18.12-.23.18-.1.38-.16.59-.17.61-.03 1.23-.13 1.82-.31.93-.27 1.88-.52 2.83-.75 2.35-.59 4.48-1.85 6.13-3.63.15-.16.31-.32.47-.47.35-.34.7-.68 1.01-1.08.09-.06.14-.17.13-.28a.328.328 0 00-.22-.14c-.16-.03-.31-.03-.46-.02-.17.04-.34.08-.51.11-.69.15-1.37.3-2.05.47-.7.16-1.42.23-2.14.22-.21-.02-.4-.07-.59-.14-.12-.01-.25-.28-.2-.37l.03-.06h.01c.04-.07.08-.15.15-.17.19-.07.39-.12.6-.13.68-.05 1.35-.16 2.01-.33.54-.15 1.09-.26 1.63-.38.41-.08.82-.17 1.22-.26.6-.15 1.19-.32 1.77-.52a7.51 7.51 0 003.3-2.21c.37-.42.75-.84 1.15-1.25a.73.73 0 01.41-.12c.1.01.16.27.09.41 0 .04 0 .09-.01.14-.7 1.49-1.88 2.7-3.35 3.45-.33.18-.67.34-1.02.48-.48.17-.89.51-1.13.96-1.01 1.6-2.31 2.99-3.84 4.1-1.25.9-2.67 1.57-4.16 1.96l-.18.05c-1.22.31-2.4.61-3.59.88h-.03zm3.33 15.22c.57.32 1.16.62 1.76.89h.03c.81.37 1.53.91 2.11 1.58.06.06.12.12.18.17.09.08.19.17.27.26.13.17.29.32.46.46.34-.38.68-.76 1.04-1.12.63-.6 1.29-1.19 1.97-1.72.86-.66 1.54-1.52 1.98-2.51.82-1.78 1.42-3.64 1.79-5.56.01-.07.03-.14.05-.22.05-.18.1-.37.1-.56-.74.66-1.52 1.3-2.32 1.92a41.039 41.039 0 01-6.55 4.06c-.71.41-1.5.68-2.32.78-.26.04-.51.1-.76.19a.69.69 0 00-.26.99c.14.15.3.28.47.39zm22.97 18.81c-.51.05-1.02.13-1.52.26-1.82 0-3.64.05-5.48.19-5.71.38-11.38 1.19-16.97 2.4.19-.9.4-1.8.63-2.68.88-2.18 1.96-4.27 3.22-6.25.19-.18.38-.35.57-.53h.01c.24-.22.48-.44.72-.67l3.53-2.26c.14-.09.28-.17.44-.25.52.11 1.06.22 1.6.29 1.01.14 2.05.17 3.08.2.2.01.41.01.61.02 1.7-.07 3.39.09 5.05.47l.31.01c.5.11 1.03.08 1.52-.09.79-.3 1.69-.11 2.3.47.52.44 1.02.93 1.51 1.41l.17.17c.13.16.23.33.31.52.53 1.12.8 2.35.76 3.59-.04.82-.02 1.64.05 2.46 0 .09-.01.18 0 .27-.81-.07-1.61-.07-2.42 0zm2.35-25.22c.34-1.02.75-2.01 1.23-2.96v.02c.07-.16.15-.32.22-.47.42-.87.83-1.74 1.22-2.67.37-.79.81-1.55 1.31-2.26 1.27-1.81 2.75-3.47 4.4-4.95.77-.62 1.22-1.55 1.22-2.54l.01-.31c.08-1.8.3-3.58.55-5.37.14-1.49.44-2.95.89-4.37.06-.25.11-.51.14-.76l.09-.47c.08-.4.15-.8.25-1.19.09-.35.19-.69.29-1.03.14-.5.29-.99.4-1.5.18-.69.41-1.38.67-2.04.51-1.3 1.13-2.54 1.86-3.72.63-1.06 1.17-2.17 1.61-3.33.08-.23.17-.45.27-.67l.03-.08c.01-.02.02-.04.02-.06l.03-.06c.05-.12.13-.27.2-.41.15-.34.49-.55.85-.54 2.02-.02 4-.49 5.81-1.36.42-.18.85-.38 1.27-.58 1.1-.55 2.08-1.33 2.88-2.27.1-.12.19-.25.26-.4.04-.08.05-.18.01-.27-.08-.04-.18-.05-.26 0-.38.25-.76.52-1.12.81-.65.59-1.37 1.1-2.13 1.53-1.11.55-2.26 1.01-3.43 1.38-.84.26-1.71.4-2.59.39-.15-.01-.3-.05-.45-.09a.412.412 0 01-.2-.38c.03-.11.07-.22.11-.34.03-.08.06-.15.09-.23.32-1 .63-1.99.94-2.97.03-.2.04-.4.02-.6a.2.2 0 00-.08-.12l-.28-.01c-.21.22-.39.46-.54.73-.12.24-.25.49-.38.73-.77 1.49-1.54 2.99-2.18 4.54-.53 1.32-1.12 2.63-1.72 3.94a16.412 16.412 0 01-5.23 6.36c-1.04.77-2.17 1.4-3.37 1.88-.96.41-1.98.65-3.02.69-1.75.05-3.49-.01-5.23-.18a.663.663 0 01-.62-.59c-.15-1.28-.44-2.53-.87-3.74-.26-.89-.55-1.78-.83-2.66-.19-.59-.38-1.17-.57-1.76a6.6 6.6 0 00-1.14-2.24c-.03.19-.04.38-.02.56.23 1.28.55 2.54.95 3.77.54 1.5.98 3.03 1.31 4.59.42 1.91.57 3.87.43 5.83-.07.73-.12 1.47-.17 2.22-.03.59-.07 1.18-.12 1.77-.05 1.08-.21 2.15-.47 3.19-.17.62-.31 1.24-.46 1.86-.09.38-.18.75-.27 1.12-.05.25-.12.49-.22.72-.04.1-.05.21-.01.31.3.52.46 1.1.47 1.69.64 1.17 1.1 2.42 1.38 3.72.12.61.34 1.19.66 1.73.7 1.31 1.32 2.67 1.86 4.06.42.98.74 2 .96 3.04.04.18.11.34.4.35.05-.11.1-.23.15-.34.09-.21.18-.42.26-.64zm62.62-20.75c-.13.55-.42 1.05-.83 1.44l-.08.08c-.73.76-1.45 1.5-2.2 2.24-.29.29-.61.54-.96.75-.62.38-1.25.73-1.88 1.06-1.31.73-2.49 1.67-3.49 2.77-.13.15-.26.3-.38.45-.11.12-.21.25-.32.37-.38.42-.68.9-.88 1.43-.2.59-.51 1.13-.91 1.61-.42.51-.94.94-1.52 1.27-1.18.62-2.37 1.25-3.53 1.88-.76.43-1.52.87-2.26 1.34a6.475 6.475 0 00-2.37 2.58c-.92 1.8-1.86 3.6-2.81 5.4v.01l-.01.02c-.27.51-.54 1.02-.8 1.53-.59 1.21-1.26 2.37-2.01 3.48-.19.27-.36.56-.52.84-.06.11-.13.23-.2.34-.2.35-.31.58-.45.87l-.05.11c-.49.97-1.28 1.76-2.26 2.23-.82.43-1.6.92-2.34 1.48-.3.2-.6.41-.89.62-.41.3-.83.61-1.27.87-.72.5-1.52.85-2.38 1.05a9.12 9.12 0 00-3.94 2c-.5.45-1.05.84-1.63 1.17-.54.3-1.02.7-1.42 1.17-.73.8-1.38 1.65-1.96 2.56-.53.81-1.06 1.61-1.66 2.42v.08c-3.25-.38-6.5-.71-9.76-.96l.1-2.84c.06-1.2-.11-2.4-.51-3.52-.11-.34-.22-.68-.32-1.02-.16-.55-.33-1.1-.53-1.63-.24-.64-.32-1.33-.25-2.01.02-.41.03-.82.12-1.22.1-.51.02-1.04-.22-1.5-.43-.89-.63-1.86-.59-2.84l.02-.47v-.38c-.01-1.19-.01-1.74.11-2.27.11-.46.31-.9.69-1.72.07-.16.15-.33.23-.52.7-1.43 1.33-2.89 1.89-4.39a6.076 6.076 0 012.1-2.98 16.02 16.02 0 003.28-3.45c.22-.3.43-.6.64-.9.38-.54.76-1.07 1.16-1.6.39-.55.82-1.06 1.29-1.55.74-.78 1.39-1.64 1.94-2.57.62-.82.97-1.82.99-2.85.02-.31.07-.61.15-.91.39-1.99.8-4.04 1.21-6.05.09-.48.16-.96.23-1.44.09-.64.18-1.28.32-1.91.56-2.62 1.32-5.2 2.27-7.71.02.05.05.08.07.11.02.04.03.06.03.08.01.06.01.12.01.18.02.82.02.85 1.01 1.29.9.37 1.82.71 2.74 1.03.73.25 1.5.38 2.28.38 2.25.01 4.52.03 6.78.12 1.28.02 2.56-.08 3.83-.29.5-.06 1-.18 1.49-.29.21-.04.41-.09.62-.13 1.11-.23 2.2-.55 3.26-.97.58-.22 1.11-.54 1.57-.95 2.34-1.94 4.36-4.23 6-6.79.48-.79.92-1.61 1.33-2.44.63-1.23 1.32-2.44 2.08-3.61.2-.29.43-.57.68-.82.09-.04.19-.04.28.01.09.03.15.11.17.2.03.15.02.31-.02.45-.04.26-.11.51-.2.75a33.03 33.03 0 01-4.22 7.85c-.34.45-.72.87-1.1 1.29-.11.11-.21.23-.32.35-.14.17-.3.34-.46.5-.03.04-.07.08-.11.12a.12.12 0 01-.05.05c-.58.61-.67.98-.06 1.75.16.2.31.41.43.64a30.66 30.66 0 003.82 5.04c.31.34.71.59 1.15.72.69.17 1.35.43 1.97.77.32.14.65.25.99.32 1.07.37 2.18.6 3.31.71l1.54.05c.52-.01 1.01-.19 1.42-.51.21-.15.41-.31.61-.49 1.22-1.1 2.32-2.33 3.28-3.67.1-.16.21-.31.32-.47l.07-.11c.39-.58.78-1.16 1.14-1.74.06-.11.06-.24 0-.35a.382.382 0 00-.3-.19l-.62-.02c-.41-.01-.82-.03-1.23-.11a.806.806 0 01-.35-.25c-.05-.03-.07-.08-.07-.14 0-.05.03-.1.08-.12.02-.02.04-.04.06-.05.1-.08.2-.17.32-.17.5-.05 1.02-.07 1.53-.06 1.38.04 2.76-.2 4.05-.7.77-.27 1.55-.54 2.33-.8 1.61-.54 3.15-1.26 4.6-2.15.29-.24.64-.39 1.02-.42 0 0 .09 0 .11.08l.01.03c.03.06.03.09-.01.11-.11.17-.23.33-.38.47a13.45 13.45 0 01-3.99 2.29c-1.64.59-3.3 1.15-4.96 1.69-.4.11-.72.4-.88.78-.92 2.07-2.23 3.95-3.86 5.53l-.19.19c-.4.42-.8.84-1.23 1.23a4.7 4.7 0 00-1.44 2.57c-.09.39-.19.79-.3 1.2-.14.52-.27 1.05-.39 1.59v-.02zm45.82-13.35c1.15-.7 2.15-1.62 2.95-2.7v.02c.2-.18.29-.46.23-.73-.04-.17-.25-.2-.67.14-.08.06-.15.12-.23.17-.33.27-.65.52-1.02.78-.11.08-.23.16-.34.25-.35.24-.69.49-1.05.7a34.965 34.965 0 01-8.74 3.79c-.11.07-.27.07-.38.07-.03 0-.05 0-.07.01-.11 0-.3-.22-.25-.32.07-.2.15-.38.24-.56.59-1.06 1.1-2.15 1.52-3.28.16-.44.29-.89.42-1.33.06-.2.11-.39.17-.58.01-.06.01-.11.01-.16.05-.2 0-.41-.12-.57-.1-.09-.36.03-.5.27-.05.09-.1.17-.15.25-.36.63-.72 1.26-1.06 1.9-1.35 2.48-1.73 3.28-2.21 4.01-.46.71-1.02 1.37-2.66 3.46l-.18.24a18.504 18.504 0 01-3.58 3.38 27.69 27.69 0 01-5.5 2.81c-.24.09-.49.16-.74.2-1.42.29-2.87.31-4.29.06-.4-.08-.81-.17-1.22-.18-1.07-.15-2.11-.46-3.09-.92a18.06 18.06 0 01-4.5-2.65.354.354 0 00-.28-.09c-.1 0-.2.05-.26.13-.59.73-.96 1.61-1.09 2.54-.03.41-.09.81-.2 1.21-.27.88-.59 1.76-.92 2.62a7.29 7.29 0 01-1.57 2.45l-2.49 2.74c-.28.34-.55.64-.82.95-.16.18-.33.37-.49.56l-.01.15c-.03.21.47.22 2.21.29l.77.02 3.56-.04v.07h.61c.41 0 .82.01 1.22.06.85.09 1.69.13 2.53.17.6.02 1.19.05 1.79.09.62.04 1.24-.08 1.79-.36.85-.39 1.64-.9 2.34-1.53.3-.28.61-.55.92-.81.31-.27.61-.54.91-.82.87-.81 1.86-1.47 2.93-1.98 1.38-.55 2.67-1.33 3.8-2.3.08-.07.16-.12.25-.17.63-.36 1.18-.84 1.61-1.42.77-.9 1.43-1.88 1.97-2.93.41-.83.93-1.6 1.55-2.29a222.706 222.706 0 012.8-3.08c.33-.4.8-.67 1.31-.77.8-.15 1.61-.31 2.4-.53a30.22 30.22 0 007.87-3.46z" fill="#000"/><path d="M1084 1616c2.46 0 120.54-22.71 185-13 34.68 5.23 69.74 18.1 120 24 20.26 2.38 89-5 89-5M1322 1678c27.96 9.75 129.58-23.87 242-49 60.49-13.52 124.32-25 181-25 162 0 178-2 178-2M562 1634s-47 28-77 27-42-1-88 9-66 32-90 53" stroke="#000"/><defs><clipPath id="clip0"><path fill="#fff" d="M0 0h1920v1986H0z"/></clipPath><clipPath id="clip1"><path fill="#fff" transform="translate(-9)" d="M0 0h1980v1986H0z"/></clipPath></defs></svg>