<svg width="413" height="173" xmlns="http://www.w3.org/2000/svg"><g fill="#000" fill-rule="nonzero"><path d="M354.105 80.897l2.552-.876c.366-.124.72-.255 1.082-.397l3.648-1.46c2.574-.997 5.154-1.977 7.722-2.964 1.154-.446 2.297-.898 3.435-1.369.556-.227 1.125-.447 1.676-.692.552-.244 1.37-.594 2.063-.88l3.483-1.536c1.269-.546 2.521-1.116 3.791-1.691l1.206-.567 2.424-1.155c1.046-.492 2.052-1.02 3.104-1.523l7.528-3.741a633.172 633.172 0 007.235-3.667.443.443 0 00.171-.604l-.068-.038a.338.338 0 00-.162-.164.442.442 0 00-.46-.002l-2.635 1.35-3.707 1.888-3.95 1.977-6.929 3.463-1.164.545-2.418 1.144c-1.087.514-2.184.991-3.276 1.487l-1.845.807-1.518.647-3.604 1.542.112-.042-1.38.56c-2.423.992-4.86 1.902-7.298 2.842-1.284.493-2.562.975-3.8 1.493-1.24.519-2.415.924-3.627 1.367-.361.142-.716.273-1.082.397-.851.302-1.688.552-2.552.877-1.14.394-2.286.771-3.4 1.091l-3.342 1.123-3.693 1.3-3.331 1.129-1.9.583-1.993.62-1.042.271-2.975.836-2.828.812a.455.455 0 00-.221-.271.442.442 0 00-.33-.049l-5.542 1.391-4.09.916-3.934.795c-.505.107-1.027.19-1.543.29l-2.657.477c-.552.11-1.102.192-1.648.291l-2.03.363-4.032.651-2.052.35-2.21.262.09.05c-1.837.232-3.668.451-5.51.636-1.269.144-2.537.26-3.815.34-1.278.08-2.518.092-3.939.241l-4.273.443c-1.368.135-2.74.251-4.112.34-1.372.087-2.727.065-4.095.065l-4.26.019c-1.33.037-2.633.028-3.939.078l-1.038.05c-.338.02-.693.017-1.03.009-.665.018-1.446-.073-2.098-.077-1.305-.114-2.555-.137-4.016-.129-1.461.008-2.962-.02-4.371.136a.455.455 0 00-.326.132.547.547 0 00-.17.307c0 .172.096.33.25.407l-5.332.02-5.904-.075-.32-.013-1.638-.075-1.138-.066-1.433-.095-1.635-.162-1.414-.13-1.593-.183c-.967-.105-1.941-.199-2.914-.321l-1.39-.175-1.632-.191a.39.39 0 00-.326.132.443.443 0 00-.177.318.468.468 0 00.47.468.429.429 0 00.317.474l2.032.382 1.102.21a.455.455 0 00-.183.062.716.716 0 00-.334.335.481.481 0 00.187.655l.16.088c.357.079.702.18 1.06.231l1.094.145 1.234.134 1.797.163c.818.08 1.646.168 2.464.22l4.157.251c1.666.105 3.322.175 4.982.263a.482.482 0 00.447-.511.468.468 0 00-.294-.595l-.581-.025a.742.742 0 00.082-.148.442.442 0 00-.234-.382.623.623 0 00-.194-.107l-1.058-.022-1.044-.073-.772-.056-1.87-.113-1.298-.125-1.506-.15c1.957.043 3.898.072 5.822.087l6.33.029c2.587-.054 5.12.04 7.686.08a.508.508 0 00.498-.498.507.507 0 00-.255-.424.39.39 0 00-.216-.12l-4.025-.06.735-.038c1.31-.003 2.655-.016 3.999 0l1.116.023 1.173.056 1.911.092a25.03 25.03 0 001.997-.009l2.081-.081 3.913-.033 4.272-.012c1.328-.008 2.644-.023 3.982-.158 2.75-.216 5.482-.532 8.218-.801 1.385-.14 2.804-.26 4.148-.378 1.344-.118 2.693-.219 4.032-.383l2-.23c.71-.128 1.573-.155 2.258-.237l2.278-.33 2.097-.324 1.648-.292a.48.48 0 00.569.315l3.615-.57 3.27-.537 2.952-.55c1.973-.395 3.91-.808 5.86-1.215.928-.17 1.882-.445 2.786-.628.406-.088.822-.17 1.223-.275l1.307-.347c.97-.22 1.767-.507 2.737-.728.97-.222 1.916-.56 2.864-.823l2.734-.776a.377.377 0 00.073.19c.081.089.189.149.307.17a.468.468 0 00.29-.122.547.547 0 01.191-.102c.533-.21 1.065-.392 1.609-.596l1.654-.571c.32-.12.644-.223.957-.332l1.296-.353 1.226-.362.749-.225a.35.35 0 00.33.049l1.397-.564a.417.417 0 00.215-.387l1.642-.577c2.28-.655 4.552-1.375 6.766-2.097zM232.663 96.192l.383.034-.125-.07-.258.036zM243.5 99.998l.069.038z"/><path d="M245.706 100.819a23.002 23.002 0 001.77-.298l1.692-.372 3.82-.858 1.405-.307c.62-.102 1.237-.222 1.853-.341l2.395-.458c.962-.181 1.912-.339 2.879-.502a.664.664 0 00.33-.248.69.69 0 00.053-.417.533.533 0 00-.247-.33.494.494 0 00-.406-.047 139.9 139.9 0 00-2.868.508l-2.41.434-1.849.359c-.446.08-.893.19-1.345.28l-3.831.852-1.686.36c-.552.11-1.102.192-1.642.28l-2.097.325c-1.03.143-2.04.357-3.046.588a.534.534 0 00-.328.592.546.546 0 00.62.463c.98-.186 1.984-.388 2.998-.555l.978-.128-.147.023 1.109-.203zM290.217 60.956l-.007.01.012.007zM211.681 96.612a.507.507 0 00-.255-.424l-.193-.107a32.06 32.06 0 01-3.66-.155c-1.013-.13-2-.334-2.98-.55-.738-.171-1.475-.342-2.206-.553l-2.189-.663c-.637-.19-1.256-.414-1.882-.627l-.98-.35-.261-.145-1.492-.634a8.157 8.157 0 01-1.243-.6l-1.58-.875a.507.507 0 00-.348-.044.482.482 0 00-.328.592c.027.12.106.224.215.282l1.512.839c.41.227.819.453 1.26.623.44.17.894.318 1.303.545.18.114.365.217.557.308l.341.19 1.956.682 1.073.342c.73.24 1.47.458 2.196.652.725.193 1.474.37 2.2.535.726.164 1.459.318 2.2.43.742.113 1.491.186 2.242.217l2.193.04c.26-.01.467-.22.474-.48l-.125-.07z"/><path d="M411.337 64.689a.546.546 0 00-.265-.326.598.598 0 00-.41-.064l-.401.105a.52.52 0 00-.359-.05l-1.45.283-.61.137-3.856 1.002c-.724.18-1.447.358-2.16.573l-7.347 2.072c1.9-.747 3.631-1.617 5.452-2.408.694-.315 1.415-.703 2.052-1.02l2.013-.952.523-.246 1.006-.528a.456.456 0 00.16-.61l-.05.09-.193-.106a.442.442 0 00-.431-.001l-1.131.593-.933.45-2.461 1.194c-1.028.487-2.02.963-3.11 1.4-1.09.438-2.136.959-3.21 1.42l-3.782 1.622-3.164 1.311c-.608.184-1.25.378-1.819.599l-3.624 1.175a288.43 288.43 0 01-3.774 1.285c-.715.243-1.42.522-2.134.766-2.122.772-4.25 1.527-6.367 2.317-.444.156-.864.324-1.314.492l-3.083 1.058-.578.185-1.506.49a7.803 7.803 0 01-.705.174c-.335.007-.666.07-.98.185a.781.781 0 00-.511.654l-4.4 1.742a.43.43 0 00-.202.097l-.937.269c-.942.251-1.847.463-2.804.796-.957.332-1.768.507-2.724.81l-3.204 1.036-2.982.98-1.463.469c-.378.118-.75.254-1.14.365l-3.234.93-1.095.285-1.893.439c-.924.246-1.859.457-2.812.702l-5.576 1.372-2.863.66c-.959.227-1.904.432-2.875.682l-6.156 1.453-6.177 1.515-2.827.65c-.447.109-.904.183-1.345.28-.44.099-.963.21-1.456.294-.898.172-1.795.344-2.692.487l-3.096.545c-.517.1-1.032.172-1.537.278l-1.655.303c-1.015.196-2.006.376-3.035.624l-1.186.235-1.374.28c-.938.164-1.871.346-2.815.492l-3.13.497-3.136.538-2.61.472-3.277.549-2.65.436-1.458.218-1.604.211.129-.017-2.91.395-2.822.265-2.87.299c-.883.09-1.747.147-2.634.191-1.96.104-3.916.12-5.872.137-.908.003-1.815-.024-2.735-.028l-.621-.032-.615-.043-1.31-.131c-.45-.072-.903-.114-1.37-.21l-1.486-.242-1.351-.244c-.37-.056-.745-.13-1.114-.216l-1.395-.326-.563-.164-.695-.221-1.225-.471-1.28-.532-3.725-1.647-8.175-4.532.08.044 1.001.124 1.513.14.476.025 1.064.04c.113.062.284.023.435.018l.752-.015 1.677-.023.438-.04 1.046-.09.905-.078.226.022.449-.005c.279.006.548-.023.822-.035l.09.05.223-.025.147-.023.068.038.21-.032.833-.134.338-.02 1.598-.201.96-.123c.602-.067 1.212-.176 1.822-.284.61-.108 1.642-.28 2.395-.487.754-.207 1.6-.392 2.396-.621 1.384-.378 2.78-.78 4.177-1.18a.702.702 0 00.633.841c2.744.228 5.5.265 8.249.11 4.592 0 13.532-.28 17.987-1.694.36-.087.726-.147 1.096-.18a8.79 8.79 0 012.658-.64c3.278-.98 6.838-.27 10.164-.316a51.512 51.512 0 0111.912.711l.088-.159a.533.533 0 00-.054-.357.455.455 0 00-.178-.188l-.091-.05-.596-.078a.404.404 0 00.12-.217.533.533 0 00-.262-.412.286.286 0 00-.182-.101l-3 .345-1.977-.322-1.25-.187c-.147-.082-.358-.05-.525-.098l-2.064-.46-.182-.1c.569.047 1.148.1 1.718.119.697.022 1.396.007 2.091-.046a.48.48 0 00.307.17c.555-.035 1.103-.058 1.64-.117l.937-.106.128-.018.434-.057 1.283-.197 1.409-.29c.952-.216 1.87-.45 2.825-.725.47-.126.925-.275 1.398-.43l.518-.159.583-.138c.429-.104.647-.177.884-.254 1.743-.417 3.51-.73 5.29-.936l.824-.093.596-.057 1.028-.084.102.056c.373.012.745-.005 1.114-.052a.469.469 0 00.303-.546l.107-.06a.48.48 0 00-.21-.264.559.559 0 00-.181-.101l1.027.078 1.178.073.842.035 1.75.034.983.023.308.008 2.485-.111c.245-.013.512-.013.764-.038l.8-.077 1.48-.147.778-.252a39.411 39.411 0 012.223-.256c.433-.057.848-.11 1.265-.191.4-.055.79-.163 1.16-.324l.257-.14a.482.482 0 00.17-.174l.038-.068a.495.495 0 00.095-.17l.153-.035.577-.156.906-.242 2.089-.523c1.389-.36 2.768-.757 4.14-1.141l.566-.163.49-.16 2.568-.852 2.315-.77 1.023-.37 2.73-.986 1.125-.419.431-.162 4.595-1.96.938-.433 2.014-.951 3.157-1.405 4.344-1.831c1.564-.621 3.104-1.255 4.644-1.889l3.15-1.23 3.819-1.527c.615-.225 1.213-.473 1.862-.679l2.35-.78 1.62-.59c.58-.214 1.164-.41 1.745-.654l2.252-.924.771-.346 1.164-.545.78-.386.832-.431a23.033 23.033 0 002.134-1.168.456.456 0 00.204-.556l.553-.274 3.199-1.56.927-.467 1.815-.913c.267-.135.524-.275.78-.416.59-.342 1.193-.677 1.795-1.013.132-.076.331-.114.394-.228l.437-.279a73.81 73.81 0 011.653-1.077c.347-.224.684-.484 1.02-.714l1.116-.78a99.188 99.188 0 002.817-2.053.39.39 0 00.044-.616l-.113-.063a.442.442 0 00-.194-.107.533.533 0 00-.32.12 3.32 3.32 0 01-.33.249c-.828.582-1.645 1.17-2.455 1.748l-1.188.83c-.312.213-.63.439-.953.646l-1.677 1.094c-.05.091-.192.132-.3.191l-.542.31-1.778 1.007c-.262.152-.524.275-.78.416-.886.446-1.779.903-2.677 1.343l-3.151 1.556c-.244.118-.482.253-.715.377l-1.845.97-1.62.829c-.773.404-1.53.832-2.288 1.26a.443.443 0 00-.151.273 72.65 72.65 0 01-2.305.94c-.775.299-2.053.78-3.076 1.151l-2.35.81c-.669.24-1.32.503-1.983.76a96.647 96.647 0 00-3.826 1.54l-3.126 1.242-4.52 1.853a37.86 37.86 0 00-1.317.58l-2.705 1.178c-1.038.45-2.014.951-3.103 1.389l-2.63 1.176-1.002.44-4.2 1.734-4.04 1.36c-.355.131-.704.28-1.064.393l-2.244.75-2.61.873-.55.187-.488.13c-1.373.385-2.747.8-4.13 1.148-.73.19-1.464.364-2.183.56l-1.13.296-.447.11c-.159.045-.312.08-.477.137a1.028 1.028 0 00-.273.116c-.071.047-.14.099-.204.155a.39.39 0 00-.164.296l-.459.103-.879.137-1.59.19-1.054.13-2.822.265-.45.033-1.306.05-1.359.065c-.155.015-.31.018-.466.01a121.09 121.09 0 01-5.81-.245l.299-.028.716-.14.482-.119.67-.163 1.102-.298.806-.222 2.01-.567c.353-.102.702-.221 1.05-.34l2.808-.883c2.204-.758 4.413-1.526 6.64-2.271.383-.13.774-.27 1.169-.393l1.11-.396.184-.062a.469.469 0 00.475.725l1.557-.476 1.7-.546c.66-.2 1.32-.398 1.976-.615.247-.071.479-.167.726-.238l.91-.328 1.863-.679c.639-.24 1.261-.505 1.9-.746l1.345-.55 2.067-.832 1.552-.628c.656-.246 1.313-.492 1.919-.78.606-.29 1.058-.381 1.597-.603 1.212-.444 2.418-.876 3.619-1.326.39-.141.769-.288 1.153-.418.165-.051.325-.116.48-.195l2.122-.906c.545-.233 1.076-.52 1.611-.788.22-.101.44-.232.655-.351l.334-.172.616-.254.031-.057.438-.173c2.599-1.015 5.215-2.034 7.828-3.1 2.166-.852 4.332-1.72 6.496-2.603 1.944-.826 3.968-1.608 5.97-2.403l8.854-3.29 3.87-1.618 5.529-2.172a.612.612 0 00.282-.215.52.52 0 00.05-.36.559.559 0 00-.209-.264.429.429 0 00-.325-.032c-.834.326-1.68.646-2.521.983-2.729 1.061-5.447 2.158-8.177 3.248l-8 3.197-6.835 2.758c-2.144.864-4.276 1.735-6.425 2.582-1.125.448-2.233.89-3.363 1.32l-3.362 1.32a.286.286 0 00-.273-.018c-.248.071-.484.149-.726.238l-.308.126-.273.117c-.102.05-.196.112-.282.186a.365.365 0 00-.157.285l-1.427.696-.314.139-.836.354-1.28.54c-1.023.37-2.041.759-3.052 1.135-1.012.377-2.36.85-3.53 1.272-.478.167-.94.357-1.414.54-.473.184-1.39.524-2.077.798l-1.563.621c-.515.206-1.037.422-1.563.621l-2.126.86-1.71.644c-.562.21-1.147.406-1.688.552-.561.16-1.114.351-1.654.57a.417.417 0 00-.156-.576.455.455 0 00-.359-.05c-.418.11-.836.22-1.249.349l-1.289.341c-.82.245-1.628.496-2.44.73-.279.099-.556.198-.84.28l-2.084.703-2.482.885c-1.046.358-2.098.727-3.155 1.079l-1.7.545c-.43.133-.844.29-1.286.418-1.014.3-2.034.613-3.064.89l-.142.04a15.749 15.749 0 003.025-1.998l2.495-.908.57-.116c.37-.077.757-.16 1.128-.266l1.06-.276a.469.469 0 00.265-.478c1.888-.724 3.837-1.399 5.8-2.096a.898.898 0 00.574-.768h.401c.227-.008.466-.01.688-.036l.725-.074c.445-.051.873-.126 1.306-.184a32.063 32.063 0 002.423-.456l2.507-.5c.458-.103.928-.2 1.381-.32l1.343-.357c.842-.233 1.768-.508 2.534-.738l1.25-.378.513-.147.59-.18c.207-.078.425-.15.638-.24.214-.09.415-.157.617-.254.202-.096.787-.322 1.173-.48l2.72-1.155 2.44-1.102 5.007-2.223 3.971-1.801 3.518-1.546c.611-.271 1.2-.555 1.81-.797 3.288-1.376 6.583-2.733 9.883-4.102l-.112.041 10.42-4.102 4.843-1.927 2.499-.995.633-.259.841-.337.119-.053.273-.117.063-.114.415-.186a.547.547 0 00.3-.22.69.69 0 00.177-.32.507.507 0 00-.602-.333l-.581.243-.032.057-.314.138a1.496 1.496 0 00-.266.106l-.273.116-.568.22-5.701 2.241-3.435 1.37-6.896 2.707c-1.055.428-2.114.837-3.15 1.23l-6.7 2.757-2.163.899c-.403.163-.8.345-1.21.52l-6.306 2.797-4.571 2.078-4.45 1.996c-.755.34-1.518.646-2.29.992l-2.418 1.01c-.278.1-.544.205-.833.297l-.826.257-1.88.55c-.837.25-1.7.545-2.517.732-.817.186-1.606.404-2.416.55l-2.634.623c-.815.157-1.641.28-2.456.408l-1.246.158-.577.022-.52.024c-.191-.002-.838.012-1.256-.012a36.189 36.189 0 01-1.897-.144 24.994 24.994 0 01-3.736-.955 54.89 54.89 0 01-2.748-.943 4.04 4.04 0 01-.693-.384 4.13 4.13 0 00-.451-.34l-1.24-.687 1.074.209c.525.098 1.044.207 1.571.276l2.066.267c.36.05.7.106 1.06.127l1.963.106.836.046-.13.047-.19.103a.833.833 0 00-.212.166.638.638 0 00-.107.193c-.375-.074-.745-.13-1.114-.216l-.576-.14-.896-.288a.468.468 0 00-.584.33.43.43 0 00.048.369c.08.089.189.149.307.17.179.12.387.19.603.2l.367.115.697.163c.216.12.497.097.75.148l.521.08.296.164c.104.071.214.132.33.183l.45.071.648.092c.764.096 1.541.17 2.303.19a16.72 16.72 0 004.53-.613l.423-.063a49.01 49.01 0 004.563-.967 61.908 61.908 0 004.51-1.353c.733-.248 1.46-.514 2.189-.81.7-.27 1.378-.595 2.026-.974a9.537 9.537 0 001.146-.51c.137-.088.275-.176.401-.27.143-.09.276-.196.398-.314a1.12 1.12 0 00.284-.513c.039-.16.04-.328.003-.489a.598.598 0 00-.38-.388l-.113-.063.788-.456c.675-.414 1.328-.84 2.004-1.255l1.03-.277.07-.125 1.046.015a.508.508 0 00.488-.504.507.507 0 00-.256-.424.701.701 0 00-.204-.113c-.91.031-1.789.035-2.666.01l-2.36-.06c-.933.02-1.846.005-2.747-.033l-3.67-.19-3.03-.192-3.604-.228a.481.481 0 00-.47.499.416.416 0 00.143.332.585.585 0 00.318.177c1.3.095 2.606.18 3.907.246l6.677.369.75.014 2.14.055.587.013c-.824.227-1.638.461-2.467.67l-3.435.834a.48.48 0 00.252.913l2.142-.538 1.836-.47a92.972 92.972 0 01-2.767 1.531c-.202.096-.399.21-.59.313l-1.152.283c-.547.129-1.089.275-1.686.36l-1.904.432c-1.081.234-2.179.444-3.321.629l-3.309.606-3.005.595-1.297.248c-.93-.04-1.866-.067-2.825-.078l-3.922-.166-.347-.043-1.065-.144-1.557-.194-.103-.057a.56.56 0 00.158-.284.52.52 0 00-.053-.387l.038-.068a.403.403 0 00-.216-.12l-.114-.063-5.209-2.188c-1.097-.46-2.195-.92-3.249-1.459a.508.508 0 00-.633.795.377.377 0 00.148.082c1.053.549 2.135 1.04 3.242 1.47l.091.05 1.83.776 2.75 1.153-.919-.167-.824-.175-.439-.094a15.588 15.588 0 01-1.523-.443l-.227-.126a.585.585 0 00-.382-.062.52.52 0 00-.265.21l-1.219-.482-2.425-.988c-.847-.35-1.687-.712-2.534-1.033l-.62-.224-.204-.113-.43-.135a2.924 2.924 0 00-.871-.066 2.86 2.86 0 00-.391.036l-.75.091-1.125.18c-.295-.03-.584-.072-.875-.084a28.449 28.449 0 00-2.433.02c-.811.041-1.32.101-1.98.167 2.407-.51 4.856-.879 7.302-1.189l1.528-.075 1.114-.052.414-.023c.76.05 1.532.105 2.297.201 1.6.207 3.17.607 4.674 1.193.426.206.84.435 1.24.687.41.242.799.518 1.163.824l.35.282a.623.623 0 00.329.183.508.508 0 00.498-.497.533.533 0 00-.142-.332 15.924 15.924 0 00-2.13-1.523l-.613-.34a16.562 16.562 0 00-2.91-.944l.326-.027c.766-.067 1.554-.12 2.268-.23.715-.11 1.443-.242 2.16-.41a25.63 25.63 0 002.144-.597 16.914 16.914 0 001.989-.906c.146-.035.295-.062.445-.08l2.458-.304c.859-.074 1.597-.2 2.45-.264 1.09-.064 2.257-.236 3.359-.295 1.103-.058 2.686-.207 4.035-.307l.947.168 1.364.22.546.303.125.07.209.026-.114-.063.729.106-.114-.063.347.044.278.035.137.076.185.013.637.353c.347.044.696.059 1.038.085l2.124.136 1.666.105c.929.068 1.87.085 2.837.085a.52.52 0 00.511-.52l-.063.114a.52.52 0 00-.384-.54.494.494 0 00-.17-.095l.872.141 1.584.253c1.063.173 2.134.306 3.21.456a.508.508 0 00.59-.342.533.533 0 00-.053-.357.468.468 0 00-.19-.195l-.09-.05c-1.083-.139-2.165-.278-3.24-.457l-1.723-.27-3.69-.558c-.34-.055-.663-.144-.997-.21l-2.169-.46-.317-.07.09.05.756.031.517.034 1.672.094.114.063 2.99.586a.533.533 0 00.339-.05.508.508 0 00.164-.296l.114.063a.455.455 0 00-.211-.504l-.091-.05-.445-.083a.442.442 0 00-.198-.259l-.103-.056c-.346-.073-.71-.14-1.068-.191l.102.057-.805-.104-.068-.038-.446-.054c.851-.31 1.644-.76 2.345-1.333.232-.124.47-.23.697-.373a.716.716 0 00.256-.274c.263-.152.532-.316.805-.461l2.642-1.467.997-.593 2.663-1.023c2.047-.77 4.082-1.545 6.102-2.374.99-.419 1.957-.85 2.99-1.319l1.382-.722c.45-.265.914-.504 1.392-.715a9.455 9.455 0 011.202-.346c.983-.244 1.961-.4 2.967-.632l1.52-.302.804-.164.588-.121c.148-.027.293-.072.43-.133a.964.964 0 00.33-.353.481.481 0 00-.165-.642l-.785-.435a4.079 4.079 0 00-.855-.28l-.482-.149-1.604-.458-.708-.198-1.32-.3a60.713 60.713 0 00-2.777-.648l-3.514-.713-1.345-.254-1.97-.363-2.978-.58c-2.066-.401-4.133-.803-6.189-1.17a.494.494 0 00-.357.056.443.443 0 00-.205.556l-2.712.415-2.018.37c-.55.081-1.096.18-1.648.291l-2.264.411-.694.151c.32-.254.644-.49.969-.727l.265-.21.158-.285.234-.182a.508.508 0 00.272-.222c.583-.435 1.154-.848 1.76-1.3.763-.544 1.728-1.319 2.627-1.921a.508.508 0 00.151-.273l1.573-1.122c.39-.275.792-.543 1.177-.835.294-.21.576-.424.866-.651.63-.468 1.268-.948 1.894-1.434l.038-.068.032-.057c.419-.14.832-.268 1.256-.39l.707-.203 2.079-.559 1.572-.423 1.288-.312 3.334-.785c1.075-.252 2.151-.504 3.232-.738a.508.508 0 00.335-.603.507.507 0 00-.238-.295.559.559 0 00-.37-.056c-1.825.342-3.66.812-5.508 1.276-.994.237-2.234.517-2.959.725-.725.208-1.455.399-2.184.59l-.454.12c.18-.138.35-.282.537-.432l.373-.299 1.223-.274 2.35-.512 1.3-.307.559-.15.737-.232c.354-.101.686-.244 1.034-.364.349-.119.832-.267 1.268-.383.79-.217 1.592-.352 2.402-.498l1.208-.223.935-.211c.17-.04.346-.061.505-.107l1.237-.355.896-.248.353-.102 2.67-.9 1.688-.552 5.908-2.185c.432-.162.858-.342 1.296-.516l3.393-1.348 2.462-1.09.764-.305.693-.285.101-.048.42-.17.039-.067.409-.175a.612.612 0 00.283-.215.508.508 0 00.044-.348.468.468 0 00-.215-.283.377.377 0 00-.348-.044l-.556.227-.038.069-.29.121-.208.079-.237.106-1.02.417-.272.117-5.845 2.34c-1.415.568-2.846 1.084-4.265 1.607l-2.845 1.056c-.62.236-1.252.437-1.85.656l-1.7.546c-.229.066-.46.16-.69.227l-1.496.42-.778.223-.241.06-.494.113a.494.494 0 00-.226-.289.429.429 0 00-.354-.032c-.82.14-1.654.303-2.465.478-1.285.254-2.577.52-3.877.826l-1.673.338-1.023.236 1.14-.93c.61-.51 1.202-1.015 1.805-1.514l1.25-1.048 2.903-2.556c.089-.072.172-.15.25-.234l.836-.786c.303-.278.595-.563.897-.841a1.55 1.55 0 01.316-.301c.5-.527 1-1.053 1.488-1.586.304-.307.615-.626.915-.98l1.573-1.791c.299-.325.582-.675.87-1.006l.835-1.025c.146-.205.308-.398.484-.579l.101-.182 1.097-1.415c.076-.167.192-.312.338-.423l.114-.205c.134-.205.278-.403.433-.593.345-.463.709-.93 1.038-1.418.33-.486.756-1.068 1.062-1.539.305-.47.652-.962.97-1.455l.642-.998.196-.353.716-.971.183-.33c.126-.147.241-.301.346-.463.061-.085.112-.177.152-.273a.495.495 0 00.094-.171l.044-.08a.494.494 0 00-.11-.284l-.307-.17a.481.481 0 00-.447.11c-.12.106-.226.227-.318.359a1.055 1.055 0 00-.139.25l-.548.99c-.114.205-.455.685-.71 1.094l-.184.33-.949.961c-.289.36-.583.704-.858 1.012-.453.523-.881 1-1.354 1.585-.288.332-.599.65-.893.993l-5.388 5.94c-1.587 1.738-3.164 3.483-4.763 5.215a.468.468 0 00.002.64c.061.064.14.108.227.126-.114.141-.25.261-.405.356l-1.892 1.644c-.859.744-1.74 1.475-2.61 2.213-1.256 1.06-2.533 2.077-3.806 3.112l-.66.2c-.631.2-1.268.383-1.91.577l-2.23.698c-.738.23-.998.325-1.51.472-.785.235-1.563.458-2.335.7l-1.28.376-.53.152-4.29 1.118-3.962 1.033-1.226.361-1.126.343-.359.084-1.692.371c-.812.205-1.673.337-2.461.525l-2.237.442-1.343.252-1.286.254c-.817.187-1.617.398-2.42.637-.4.135-.809.28-1.215.398l-1.21.385c-.845.29-1.654.571-2.5.89a58.269 58.269 0 01-4.68 1.498l-2.613.693-1.219.321-.712.186c-.177.05-.366.124-.538.193l-.057-.032-1.104.088-.918.1-1.264.163-1.112.157-.939.164-.41.07-1.451.311c-.758.16-1.523.361-2.27.557l-.383.1a22.378 22.378 0 00-11.158 4.899.547.547 0 00-.3.22l-.082.148a49.385 49.385 0 00-5.18 4.865c.146-.21.306-.41.48-.597.126-.228.481-.626.733-.947.39-.514.78-1.056 1.144-1.554.19-.314.4-.614.632-.899.177-.318.433-.593.644-.893.21-.3.343-.404.503-.613.153-.192.319-.374.495-.544a13.02 13.02 0 011.584-1.517.794.794 0 00.168-.115c.312-.214.606-.423.923-.62l1.142-.72a51.933 51.933 0 011.817-1.105c.335-.202.675-.415 1.033-.603l1.216-.665c.28-.157.559-.285.844-.425l1.012-.51c1.438-.69 2.876-1.381 4.305-2.002l2.226-.879c.303-.144.623-.265.93-.392l.997-.43.372-.135 1.296-.487c.361-.142.745-.271 1.122-.39.644-.222 1.282-.434 1.87-.69l1.336-.508 1.03-.41 2.11-.884 1.114-.454 1.035-.393c.633-.23 1.277-.452 1.87-.69 1.57-.527 3.14-1.055 4.727-1.53a.469.469 0 00.309-.557.507.507 0 00-.221-.272.416.416 0 00-.415-.11l-1.767.507c-1.506.49-3.017.991-4.523 1.51-.367.124-.734.278-1.1.402l-.995.4-2.163.9.044-.08c-.55.215-1.102.46-1.658.658-.555.198-1.266.488-1.881.712l-1.996.679c-.627.218-1.254.465-1.875.701-.278.1-.557.227-.83.344l-1.386.57c-.25.1-.493.218-.748.33-.255.111-.932.42-1.438.69-1.438.69-2.814 1.297-4.222 1.96-.648.31-1.29.638-1.933.966-.119.053-.232.124-.357.189l-.704.383-.84.472a67.985 67.985 0 00-3.958 2.447l-.504.346a7.512 7.512 0 00-1.141.96c-.274.279-.53.553-.793.84a.755.755 0 01-.113.204.455.455 0 00-.18-.025l-3.967.776c-1.069.211-2.075.338-3.155.543-1.08.204-2.132.306-3.252.503l-.773.107c-.48.061-.924.113-1.443.137-.52.025-1.085.053-1.553.121-.469.068-.949.129-1.412.214a18.13 18.13 0 00-2.16.573c-.378.118-.757.265-1.112.396-.355.13-.71.26-1.042.404l-.628.276c-.339.155-.689.303-1.033.47-.137.05-.27.11-.398.18l-.928.468-.56.285c-1.042.567-2.114 1.134-3.096 1.78a.612.612 0 00-.101.181l-.55.32a.572.572 0 00-.278-.005c.417-.244.835-.489 1.29-.773 1.049-.578 2.127-1.156 3.137-1.771 2.14-1.18 4.202-2.432 6.313-3.612.727-.4 1.443-.807 2.159-1.214l1.602-.852a53.81 53.81 0 011.518-.78c.51-.253 1.195-.602 1.813-.885.867-.412 1.763-.822 2.637-1.246.57-.144 1.055-.293 1.62-.455.566-.163 1.593-.486 2.388-.715 3.412-.98 6.834-1.924 10.245-2.875 1.555-.447 3.106-.912 4.65-1.365l1.518-.512.619-.178c.743-.242 1.493-.496 2.249-.732l2.98-.98c.455-.15.911-.33 1.36-.497l5.447-1.994c.218-.073.426-.18.64-.27.474-.213.954-.409 1.472-.672 1.014-.435 1.982-.895 3.047-1.287l4.462-1.99 2.333-.937c.522-.217 1.022-.476 1.506-.653l3.262-1.54 1.045-.491a57.63 57.63 0 001.874-.94.456.456 0 00.166-.622.623.623 0 00-.193-.107.494.494 0 00-.46-.002c-.619.311-1.232.64-1.874.94l-1.027.486-3.176 1.439-1.223.571-.345.166-2.177.95-4.53 1.953-5.015 2.129-1.03.382-5.58 2.024-.508.165-1.476.49-3.217 1.059c-.437.144-.89.265-1.339.403l-3.407.998-1.897.555-2.41.672c-2.462.689-4.923 1.383-7.382 2.082a.43.43 0 00.147-.558l-.038.068a.533.533 0 00-.205-.113.455.455 0 00-.448.004c-.762.381-1.518.78-2.286 1.173-.47.23-.833.43-1.184.608l-.765.2c-.8.212-1.614.445-2.425.62l-2.345.53-2.453.62-1.095.285-1.253.302-1.24.28a.533.533 0 00-.477.003l-.47.26-.154.034-2.732.613-.983.244-1.2.316-1.457.428c-.388.111-.76.247-1.138.365-.72.226-1.435.47-2.167.718-.733.249-1.643.577-2.445.817-.802.24-1.234.402-1.824.61l-3.374.912-1.47.346-.87.202.232-.124 1.529-.64c.372-.136.763-.277 1.13-.43 1.225-.467 2.445-.951 3.658-1.424.876-.348 1.742-.73 2.614-1.095l1.97-.872c.74-.318 1.494-.66 2.248-1a.625.625 0 00.183-.33l.05-.091 3.1-1.168c1.869-.69 3.625-1.472 5.5-2.173 1.002-.412 2.013-.789 3.02-1.183l1.438-.557c.319-.12.632-.23.957-.332l3.026-1.09 1.863-.678.998-.354a227.4 227.4 0 013.302-1.264l1.091-.466 2.075-.874c.343-.136.687-.273 1.025-.428l1.3-.574c.642-.328 1.319-.637 2-.929l.814-.367 2.013-.952.936-.374 1.31-.568 1.496-.659c.367-.153.73-.324 1.085-.484l1.976-.883c.754-.341 1.484-.666 2.245-1.047l1.976-.883c.238-.107.475-.213.707-.337l3.366-1.675c.286-.14.571-.279.851-.436.28-.157.632-.334.959-.495l3.722-1.969.947-.501.638-.375 3.588-2.102 1.302-.767c.764-.44 1.513-.932 2.26-1.395a.482.482 0 00.173-.633.533.533 0 00-.174-.17.429.429 0 00-.448.004c-.747.463-1.49.944-2.253 1.384l-1.201.718-3.54 2.07-.788.455c-.251.158-.524.275-.78.415l-3.722 1.969-1.798.937-3.467 1.723c-.208.108-.422.198-.624.294l-.885.417-.114-.063a.442.442 0 00-.46-.002l-2.745 1.334c-1.814.885-3.615 1.775-5.433 2.642l-1.248.588-1.007.423-1.432.546c-.947.367-1.9.746-2.88 1.066a.612.612 0 00-.283.215.508.508 0 00-.044.348l-1.678.721-3.104 1.255c-1.42.552-2.83 1.11-4.254 1.614l-2.813 1-2.241.691-.981.349-5.708 2.252-3.304 1.322-.899.335-2.053.78c-.877.377-1.654.572-2.52.954-.219.073-.432.163-.645.253l-.16-.089a.442.442 0 00-.46-.002c-.603.365-1.223.706-1.843 1.047l-.508.194a.469.469 0 00-.283.215c-.768.392-1.558.773-2.347 1.124l-1.822.82c-.666.315-1.33.601-2.002.928l-.178.08a396.083 396.083 0 01-6.197 2.278c-1.064.392-2.134.766-3.24 1.18-1.106.413-2.12.713-3.188 1.058-.402.135-.802.24-1.209.357l-1.096.315c-.159.046-.306.098-.46.132-1.07.27-2.14.539-3.217.79l-3.18.751-1.465.363-.872.232-.365.095c-.11.044-.225.08-.342.108-.279-.006-.558-.012-.825-.04l-.779-.016c-.479-.01-.958.012-1.434.067-1.09.092-2.171.253-3.24.481-.522.112-1.029.248-1.529.372l-.235.049a1.444 1.444 0 00-.47.125l-.166.057-.668.24-.207.079c-1.012.376-2.018.77-3.024 1.165-.513.19-1.016.409-1.507.653-.517.263-.924.38-1.387.6-.464.218-.974.441-1.461.677l-1.76.87c-.446.213-.857.446-1.28.673.74-.69 1.49-1.346 2.273-1.983.564-.401 1.15-.76 1.713-1.133.563-.372 1.222-.81 1.895-1.166a.404.404 0 00.133-.24l.928-.333 1.175-.404 1.177-.434c.42-.169.853-.331 1.262-.506l1.186-.532 2.51-1.123c.792-.41 1.53-.64 2.321-1.05.792-.409 1.518-.646 2.29-.992l1.675-.663c.574-.232 1.047-.387 1.763-.66.715-.272 1.448-.52 2.169-.775l1.574-.615c.39-.141.764-.306 1.143-.453 1.62-.59 3.27-1.341 4.905-2.012l-.118.054a28.957 28.957 0 011.906-.759c.29-.121.668-.24.887-.312.218-.072.443-.156.673-.222l5.423-1.74c1.592-.485 3.19-1.087 4.81-1.677l5.252-1.834.981-.349 1.179-.463c.714-.243 1.49-.572 2.232-.89 1.552-.627 3.178-1.362 4.768-2.058l7.018-3.116a.443.443 0 00.177-.32.625.625 0 00-.048-.368.584.584 0 00-.216-.12l-.102-.056a.52.52 0 00-.37.048l-1.994.918-5.612 2.482c-1.473.672-2.91 1.229-4.394 1.894l-1.875.701c-.439.174-.883.359-1.326.515l-3.675 1.266c-1.7.545-3.427 1.195-5.175 1.802-1.75.608-3.512 1.267-5.28 1.775-.761.247-1.523.495-2.279.76l-.768.258c-.183.063-.377.118-.549.187l-1.355.513c-.87.336-1.74.702-2.612 1.067l-2.145.893c-.638.212-1.276.424-1.87.69-.593.266-1.243.5-1.887.724-1.342.49-2.707.969-4.039 1.495-.427.18-.87.336-1.285.522l-1.484.666c-.71.29-1.46.678-2.172.968-1.59.725-3.176 1.467-4.779 2.186l-.929.363c-.29.121-.586.225-.881.33l-2.483.885c-.833.296-1.62.59-2.463.985-.356.16-.69.332-1.034.497l-1.326.65c-.725.341-1.45.683-2.197 1.013a64.055 64.055 0 01-4.45 1.594c-1.458.457-2.987.695-4.485 1.01-.82.14-1.717.417-2.589.648-.863.23-1.712.51-2.544.837-.752.311-1.495.659-2.213.99l-2.418 1.143c-.79.38-1.544.721-2.354 1.136-.809.414-1.498.746-2.296 1.166-.748.467-1.468.977-2.155 1.528-.39.275-.775.568-1.143.855a.87.87 0 00-.318-.177.78.78 0 00-.327.027l-2.626.984c-.556.198-1.09.438-1.609.596l-1.131.325-.39.112-1.036.288c-.407.117-.825.227-1.226.362l-1.844.644c-.873.29-1.71.644-2.582.905-4.32 1.413-4.035 2.479-5.135 2.881l.314-.11c-.475.348-.95.695-1.385 1.078a37.126 37.126 0 00-6.05 7.536 39.474 39.474 0 00-1.827 2.41l-.037.068c-.038.068-.382.34-.575.5l-3.188 2.695c-.302.25-.609.481-.904.72l-1.338 1.073c-.499.363-1.004.737-1.497 1.118-.247.176-.516.34-.762.516s-.401.268-.61.405l-.833.535c-.227.142-.466.278-.704.413-.442.261-.9.498-1.37.729-.47.23-.903.422-1.365.612l-1.381.588-.361.142c-.283.081-.561.18-.838.25-.158.02-.318.03-.478.032l-.627.084-.068-.037-2.979.386a.469.469 0 00-.289.227c-2.008.12-3.935.84-5.53 2.067-.114.07-.226.113-.34.184-.114.07-.526.333-.773.508l-.044.08c-.487.339-.953.706-1.397 1.1l-.649.607a3.906 3.906 0 01-.519.56c-.208.242-.421.466-.646.684-.225.218-.513.415-.778.625l-.882.627-1.1.699c-.455.283-.926.543-1.397.803l-1.325.753c-.263.161-.516.34-.756.533l-.375.328c-.223.189-.447.377-.652.56-.387.322-.783.608-1.143.855s-.528.362-.803.537c-.275.175-.39.274-.593.4l-.932.555a9.05 9.05 0 01-.477.27l-.965.507-.5.259c-1.058.514-2.064 1.042-3.19 1.519-.712.32-4.305 2.404-6.1 3.388l-2.181 1.067a.221.221 0 00-.063.114c-.62.292-1.256.545-1.907.758a42.797 42.797 0 01-3.95 1.976c-1.728.812-3.392 1.75-5.168 2.46l-.038.069-2.107.96-3.199 1.425-1.074.49-1.808.769-1.393.581-1.025.429c-.326.132-.658.275-.995.4-.337.126-39.949 18.44-48.454 22.682a129.255 129.255 0 00-10.12 5.117c-.29.122-.575.261-.854.39l-2.463.984-.974.442-.136.059-3.876 1.63-3.115 1.248c-.859.343-1.723.667-2.586.992a.52.52 0 00-.227.142 1.104 1.104 0 00-.382-.063 1.937 1.937 0 00-.452.092c-.136.058-.284.11-.41.175a1.653 1.653 0 00-.61.539A2.982 2.982 0 00.59 165.95a4.204 4.204 0 00.065 2.699 4.008 4.008 0 00.085 1.535 2.157 2.157 0 001.404 1.597l.102.056c.316.091.648.107.97.047a.714.714 0 00.353.195l.24-.03.006-.012.124-.035.544-.204c.35-.149.706-.308 1.067-.45.71-.29 1.415-.57 2.131-.842.361-.142.723-.284 1.079-.444.13-.047.255-.111.391-.17l.366-.124c.078-.036.152-.08.221-.13.67-.298 1.346-.578 1.989-.906.642-.329 1.472-.672 2.203-1.026a255.285 255.285 0 005.396-2.602l2.797-1.425c.909-.434 1.807-.873 2.7-1.33 1.886-.963 3.738-1.945 5.581-2.857l2.765-1.369c.928-.467 1.851-.952 2.785-1.431a57.211 57.211 0 011.571-.796c.529-.257.975-.47 1.45-.684.474-.213.784-.369 1.175-.538l1.347-.607c.926-.41 1.845-.808 2.775-1.2l2.874-1.188 1.97-.872.943-.415 1.83-.89c.345-.165.684-.32 1.017-.492.934-.479 1.88-.952 2.785-1.432.513-.28 1.048-.55 1.556-.848l.781-.445.239-.135c.123-.063.24-.138.347-.224.071-.041.137-.089.198-.143l.082-.148a.873.873 0 00.126-.228c.233-.15.478-.277.733-.383l.85-.435c.566-.297 1.161-.592 1.738-.882 1.006-.528 2.052-1.02 3.034-1.532.982-.512 1.901-.91 2.853-1.393l2.637-1.217c.843-.395 1.692-.773 2.529-1.157.433-.191.854-.389 1.281-.569a26.712 26.712 0 013.41-1.591c.413-.188.816-.396 1.208-.625.97-.62 2.028-1.092 3.138-1.4l2.307-1.13 2.808-1.42c.946-.472 1.933-.966 2.888-1.374l5.948-2.847c.915-.445 1.82-.925 2.762-1.444l.876-.482c.537-.297 8.41-4.042 9.365-4.613.956-.57 1.843-1.046 2.762-1.578l1.325-.753c.418-.245.931-.555 1.392-.85.198-.143.42-.273.624-.428l.708-.5a139.303 139.303 0 0132.9-14.492.651.651 0 00.379-.415l.148.082c.495.126.996.24 1.51.331 1.097.221 2.2.43 3.317.56.527.068 1.055.108 1.583.148l1.544.082c.28.006.552.024.826.012.274-.012.536 0 .805-.03l.918-.101.72-.092c1.06-.142 2.122-.237 3.207-.424l1.636-.269c.505-.107 1.02-.178 1.52-.303l.506-.135.312-.08.837-.25 1.459-.486c.75-.254 1.515-.455 2.292-.649a.481.481 0 00.442-.127 34.529 34.529 0 012.346-.425c.468-.068.924-.113 1.385-.14.461-.027.937 0 1.397.001l1.028.05 2.316.138c.353.195.743.322 1.116.454l.94.343.672.209c.94.313 1.89.557 2.852.807.518.138 1.047.283 1.589.405l1.809.437 1.517.32c.477.13.893.212 1.326.289l1.738.324c.242.045.486.06.712.082l1.147.13c1.064.173 2.161.23 3.257.318l7.694.546c.26-.01.468-.221.475-.481 0-.128-.05-.25-.137-.344l-.073-.19a.78.78 0 00-.216-.119l-6.74-.389-3.064-.21c-.963-.088-1.877-.208-2.804-.305l-.75-.148c-.515-.092-1.046-.178-1.566-.288l-1.885-.405-1.435-.334-1.4-.345a89.067 89.067 0 01-3.2-.85 30.019 30.019 0 01-2.895-1.026l-.181-.1-2.604-1.042-1.512-.57-.745-.265-.114-.063a.74.74 0 00-.383-.435 223.047 223.047 0 00-6.954-3.275c.505.027.992.06 1.44.084.715.09 1.425.225 2.124.404.202.038.392.098.587.147l.801.191c.205.044.407.1.604.171l.937.267c.478.13.954.29 1.436.44l1.264.402c.613.206 1.256.414 1.835.63a.468.468 0 00.369-.048.586.586 0 00.176-.319.52.52 0 00-.053-.386l.164-.296a.325.325 0 00-.193-.107l-.103-.057c-.646-.254-1.25-.426-1.955-.682-.424-.146-.85-.263-1.27-.392l-1.35-.406-1.012-.293-.5-.143c-.501-.115-1.008-.247-1.515-.35a22.997 22.997 0 00-2.735-.43 24.408 24.408 0 00-1.725-.078 32.609 32.609 0 00-1.584.015l-.438.04-1.188-.54a29.32 29.32 0 006.896-2.545c.97-.026 1.94.015 2.905.123a21.094 21.094 0 017.289 2.94c.17.116.39.13.574.035a88.509 88.509 0 0025.372 9.6 69.587 69.587 0 01-2.421-.404 61.978 61.978 0 01-3.525-.749 111.709 111.709 0 01-3.44-.925 139.87 139.87 0 01-3.46-1.025c-1.155-.357-2.202-.774-3.27-1.233l-.761-.317.068.038-.89-.405L188.7 95.3l-1.604-.994c-1.137-.63-2.236-1.329-3.38-1.948a.507.507 0 00-.74.55c.03.127.11.238.22.308l2.582 1.43 1.463.9 1.648.915c.48.279.977.53 1.487.75 1.107.523 2.25 1.008 3.383 1.458.59.223 1.157.433 1.748.627s1.178.37 1.77.535l3.294.948 1.887.51c.588.147 1.188.272 1.77.401 1.169.251 2.352.476 3.55.674 1.214.197 2.43.335 3.61.513 1.18.178 2.325.203 3.485.31l1.7.124 1.969.095c1.133.048 2.267.066 3.407.074 1.14.007 2.49.04 3.73.029 2.44-.031 4.865-.115 7.306-.175.577-.023 1.172-.05 1.748-.043l1.85.014c1.471.027 2.905.122 4.389.127.059 0 .117-.013.17-.04l2.056.366c.514.092 1.041.16 1.55.235l1.396.163c.898.096 1.798.134 2.7.143.902.01 2.036.028 3.055.013l3.1-.068c.949-.024 1.9-.077 2.846-.148.946-.07 1.964-.19 2.94-.289 1.981-.196 3.968-.374 5.94-.606l1.456-.189c.463-.056.925-.112 1.4-.19l3.245-.493a490.57 490.57 0 005.9-1.044c1.836-.336 3.676-.625 5.522-.926l1.887-.293c.41-.07.833-.163 1.255-.227l1.262-.237 1.79-.362 2.608-.548c.933-.182 1.904-.432 2.81-.54 2.076-.337 4.2-.736 6.306-1.13 1.02-.18 2.018-.37 3.04-.606 1.024-.237 1.962-.401 2.975-.673 1.938-.413 3.893-.936 5.84-1.419l5.576-1.372 5.634-1.34 2.898-.67c1.035-.26 2.08-.483 3.116-.742l3.177-.932 1.23-.315 1.847-.464c.936-.24 1.768-.507 2.77-.785.353-.102.7-.192 1.049-.311a65.135 65.135 0 001.806-.576c.984-.302 1.953-.628 2.94-.96l2.614-.856 1.643-.577.979-.29c.943-.281 1.818-.6 2.823-.83l2.073-.577a.52.52 0 00.406.046l1.07-.403.646-.252.648-.177c.424-.122.832-.268 1.256-.39.897-.276 1.8-.564 2.686-.876.886-.312 1.812-.588 2.675-.912l2.949-1.029c.963-.344 1.875-.701 2.89-1.031a33.604 33.604 0 002.715-1.01l3.115-1.248c.616-.254 1.232-.507 1.887-.724l.656-.217 4.992-1.606c.576-.127 1.16-.324 1.768-.508l8.921-2.687c1.898-.555 3.813-1.085 5.715-1.622l9.766-2.71a.573.573 0 00.379-.682zm-62.061 3.415c.79-.38 1.6-.794 2.391-1.203l1.078-.31.778-.223c.088-.029.179-.048.27-.059a19.337 19.337 0 01-3.078 1.611c-.918.37-1.868.69-2.802 1.006l-.973.309c.75-.388 1.526-.716 2.336-1.13zm-7.375.97l3.129-.63 1.844-.377c-.458.208-.92.398-1.382.588l.095-.037c-1.495.66-2.942 1.152-4.424 1.654a30.56 30.56 0 01-2.924.85c-.584.062-1.168.096-1.751.13-.9.045-1.801.042-2.7-.01-.338-.008-.656-.05-.998-.077l-.4-.028.6-.144c.477-.137.97-.25 1.453-.37l.452-.091.453.013a.507.507 0 00.393-.199c1.999-.469 4.105-.863 6.16-1.272zM243.71 91.71c-.919.235-1.848.463-2.781.645a68.39 68.39 0 01-2.768.49l-.802.105.038-.068a.442.442 0 00-.228-.126l-.102-.057-3.141-.447 7.817-.695a.663.663 0 00.326-.132c.103-.08.169-.2.182-.33a.533.533 0 00-.142-.332l-.398-.22-8.785.858-2.523.208-.543.04-1.982-.339-.16-.088a1.948 1.948 0 00-.34-.19l-1.865-1.033c-.841-.466-1.733-.842-2.619-1.228l-.602-.334a.508.508 0 00.164-.296.52.52 0 00-.043-.352l.08.045-.183-.101 2.28.847.683.244.722.252 1.838.572c.25.06.503-.089.573-.336l-.038.068a.468.468 0 00-.232-.546l-.091-.05-1.672-.525-1.208-.313c-1.01-.35-2-.736-3.008-1.116l-2.687-.999c-2.12-.788-4.24-1.576-6.358-2.393a.429.429 0 00-.368.048.443.443 0 00-.177.319.43.43 0 00.048.369.585.585 0 00.319.176l2.743 1.03 4.795 1.78-.946-.33-.54-.18-1.389-.444-1.44-.456a.468.468 0 00-.262-.145l-.038.068-.92-.272c-.971-.285-1.943-.57-2.915-.827l-3.13-.843-.148-.082 1.03-.276a.755.755 0 00.602-.872c.311-.05.615-.09.92-.159l.803-.106.305-.069.84.228 2.066.565 1.27.39c.762.26 1.53.537 2.28.848l-.115-.063c.777.342 1.573.649 2.37 1.09l2.282 1.057a.559.559 0 00.388.051.52.52 0 00.34-.614l-.07.125a.546.546 0 00-.208-.294l-1.935-.88-1.866-.87c-.625-.347-1.331-.575-2.007-.83a26.123 26.123 0 00-1.94-.658l-1.81-.513 2.95-.79 3.157.069a.534.534 0 00.522-.514.559.559 0 00-.272-.448l-.25-.139a.495.495 0 00.111-.414.494.494 0 00-.226-.29.455.455 0 00-.359-.05l-2.374.663-.732-.019.343-.137.262-.123.265-.21a.534.534 0 00.138-.25.52.52 0 00.05-.36.455.455 0 00-.574-.333c-.122.009-.244.031-.362.067-.136.03-.266.076-.39.112l-.797.287-.456.178-1.212.444-.94.327-1.608.032c.646-.253 1.54-.634 2.287-.935.746-.3 1.246-.559 1.847-.865.601-.307.9-.498 1.325-.754.602-.067 1.197-.095 1.798-.134.198.283.54.426.88.37.417-.082.85-.11 1.276-.156a66.429 66.429 0 0122.71 7.858c.182.1.396.128.597.077a52.367 52.367 0 014.102 4.104.65.65 0 01.015.187l.182.1.08.045.417.454c-1.86.457-3.598.966-5.33 1.435l-.012.023zm-22.86-17.135l.403-.327c.033.078.08.149.137.21a14.603 14.603 0 01-2.513 1.583.794.794 0 00-.168.115l-.068-.038a46.17 46.17 0 001.278-.883c.42-.303.641-.433.943-.683l-.013.023zm33.608-9.979l-.557.495c.056-.078.103-.162.139-.25l.317-.33.1.085zm-31.007 7.672c.553-.541 1.1-1.072 1.657-1.595a1.55 1.55 0 01.412-.367c.053.052.12.09.193.107l-1.652 1.613a.69.69 0 00-.359.218l-1.228 1.223c.112-.254.247-.498.404-.728l.573-.47zm38.8 17.149a.896.896 0 00-.284-.158c-7.26-2.536-11.702-11.44-19.904-11.42l.558-.122 2.228-.505c1.005-.232 2.012-.492 3.023-.735l3.16-.792 3.804-1.045c.404.075.82.157 1.223.26l1.872.592 1.732.603.773.295.88.369c.546.302 1.124.519 1.683.799.558.28 1.228.68 1.88.952.556.264 1.096.563 1.614.895l3.411 1.891c.603.334 1.188.54 1.781.809a66.07 66.07 0 003.613 1.527l.364.201a34.007 34.007 0 01-13.422 5.578l.012.006zm-24.714-13.253l.37-.212c-.458.237-.917.474-1.404.71l.226-.113.808-.385zM232.58 61.75l-.082.148c-.063.114-.403.46-.846 1.018l-.313.243a3.243 3.243 0 01.9-1.196c.143-.07.252-.158.343-.242l-.002.03zm45.997 26.746a.442.442 0 00-.193-.107l-.644.09c-2.169.077-4.327.19-6.492.314l.563-.239c.557-.227 1.142-.423 1.683-.703.263-.12.513-.265.747-.434.06-.054.118-.112.17-.174l4.803-1.8a.443.443 0 00.229-.171l1.43.45c.635.194 1.28.372 1.932.536l.25.138c.14.079.304.106.463.078l1.8.612 1.258.414.442.14 2.414.714c.362.097.737.17 1.095.25a113.067 113.067 0 00-11.949-.137l-.001.03zm37.24-5.109l-.834.058-.683.053-1.566.144c-.79.112-1.604.212-2.344.367.017-.1.001-.203-.045-.293a.403.403 0 00-.216-.12.78.78 0 01-.456-.09l-.228-.125-.434-.048-.33-.183-1.079-.092a.508.508 0 00-.357.859.507.507 0 00.342.189l.892.078.175.008-.624.16c-.453.12-.897.276-1.356.408-.46.132-1.25.35-1.859.458l-2.068.46c-.394.094-.793.17-1.193.247-.399.076-1.103.22-1.654.302l-1.629.258a45.3 45.3 0 01-2.29.218c-.713.051-.993.074-1.522.064-.53-.011-.996-.002-1.472-.027a37.98 37.98 0 01-4.506-.505l-.988-.175-1.708-.218-1.464-.335a.664.664 0 000-.24c.526.07 1.054.11 1.582.149.528.04 1.02.09 1.532.105l2.203.047a75.76 75.76 0 003.26-.008c1.59-.027 3.183-.11 4.765-.23.777-.06 1.553-.121 2.314-.206.78-.092 1.554-.234 2.317-.426a19.51 19.51 0 002.202-.728c.706-.31 1.395-.659 2.064-1.043a.547.547 0 00.24-.432l-.807-.448c-.592.346-1.201.658-1.827.936-.691.274-1.397.509-2.114.703-.687.14-1.39.256-2.086.331-.696.076-1.598.201-2.437.241l-2.507.098-2.61.042c-.756-.003-1.502.03-2.264.01l-1.965-.049-.82-.023c-.18.004-.36-.02-.534-.028l-1.711-.13-1.617-.168a9.8 9.8 0 01-.837-.151l-.176.021-2.337-1.146c.984.128 1.98.234 2.966.334l1.401.153 2.112.158.912.045 2.191.069 1.478.016c.273.017.547.005.815.005l4.36-.009c1.681-.004 3.352-.015 5.018-.044a.495.495 0 00.486-.475.507.507 0 00-.255-.424l-.205-.113c-1.666.028-3.337.04-5.019.044l-4.47.29-.844-.007-1.472-.027-2.202-.076c-.297 0-.599-.02-.9-.038l-2.119-.147-1.327-.126a105.47 105.47 0 01-3.012-.33l-.92-.139a.455.455 0 00-.362.038.443.443 0 00-.177.318l-11.195-5.491-.284-.158-1.802-.88c.593.11 1.193.235 1.8.373.762.182 1.508.422 2.233.718l1.137.63a.533.533 0 00.75-.09.546.546 0 00-.102-.756l-1.33-.738a6.144 6.144 0 00-1.232-.46 24.683 24.683 0 00-2.615-.645l-1.154-.224.324-.102c1.56-.4 3.081-.866 4.588-1.385a3.16 3.16 0 01.41-.07 4.2 4.2 0 00.751-.149.469.469 0 00.28-.29l.645-.224a.885.885 0 00.58-1.047l-.086-.167.476-.108 1.642-.28 1.164-.143 1.017-.091a28.745 28.745 0 011.756-.112c1.018-.007 2.034.06 3.042.198.41.064.81.121 1.207.208l.611.13c.416.082.831.164 1.234.268l2.534.63c1.607.19 3.16.697 4.57 1.492l1.598.574c.568.21 1.116.455 1.677.676l1.691.73.96.413 1.79.873.967.536 3.239 1.691 1.262.7c.253.036.484.164.648.36l1.683.932c1.044.37 2.065.802 3.058 1.293a.831.831 0 01.262.145l1.442.696a.494.494 0 00.341.055.612.612 0 00.283-.215l.076-.137.6.125c.721.146 1.455.27 2.184.377.37.056.764.096 1.175.131-.21.166-.415.052-.674.117l-.001.03zm-20.962-12.512l1.319.73c-.239-.132-.504-.19-.763-.258l-.728-.404a.664.664 0 00.173-.097l-.001.029zm4.706 2.236l1.76.738-1.002-.362-.574-.2a.87.87 0 00-.24-.236l.056.06zm5.627-6.372l1.163-.248c.37-.077.735-.172 1.11-.232.375-.06.904-.183 1.362-.257l1.928.22.884.149c.131.029.269.01.387-.054.103-.08.17-.2.183-.33a.91.91 0 01-.017-.158l.608.218c.261.145.578.216.853.339l2.002.812 4.101 1.664c.467.258.977.437 1.45.684.472.247.784.435 1.136.63.408.246.797.521 1.164.824.239.132.456.357.7.507.183.116.373.221.569.315l.48.177 1.164.422.953.32 1.091.337.707.198.496.126c.564.135 1.148.235 1.715.311l-8.496 2.938c-.633.125-1.272.232-1.917.32-1.39.165-2.79.254-4.19.267-.314.004-.635.02-.943.012l-.75-.014c-1.036-.009-2.06-.011-3.088-.06l-.32-.014-.797-.144-1.153-.252a.455.455 0 00-.534.24l-.296-.03-1.275-.38-1.086-.35-.71-.245c.036-.053.068-.11.094-.17l.887.491c.115.067.25.09.381.063a.586.586 0 00.307-.232.52.52 0 00-.157-.682l-2.041-.983-.455-.252-1.188-.539-1.393-.624-1.779-.733-2.904-1.223c-.364-.201-.961-.384-1.2-.516l-.944-.523.414-.023 1.333.01.756.002.775-.002c.327.013.655-.026.97-.117a.456.456 0 00.084-.846l-.182-.101-.894.084-.768-.009-.687.006-.791-.021-.08-.044a.364.364 0 00-.242-.046l-1.278.08-.54-.017-1.093-.04 1.03-.143c2.143-.3 4.264-.612 6.44-.893a.52.52 0 00.308-.231c1.372-.385 2.76-.717 4.148-1.048l.055.06zm13.336-7.38c-.354.13-.715.273-1.082.397a18.56 18.56 0 01-1.94.576l-.727.132-1.064-.01-.013-.379a.831.831 0 00-.547-.54.429.429 0 00-.182-.236l-.091-.05a1.39 1.39 0 00-.435-.047l-.262.018-.356.025c-.45.034-.9.096-1.345.147l-1.604.212-.369.049h-.402l.763-.276 7.013-2.57a.534.534 0 00.283-.215.417.417 0 00.05-.358.507.507 0 00-.238-.296.364.364 0 00-.324-.031l-4.624 1.692-1.065.392a.533.533 0 00-.029-.27l1.484-.665 2.683-1.22c.374-.165.725-.342 1.087-.513l1.83-.89a.482.482 0 00.14-.547.468.468 0 00-.6-.23l-1.559.774-1.2.584c-.814.367-1.638.728-2.457 1.107-.552.245-1.11.5-1.673.74l.604-.395c.486-.34 1.08-.74 1.487-1.02l1.188-.83c.763-.544 1.52-1.077 2.259-1.633.45-.33.896-.679 1.335-1.016.44-.336.845-.692 1.25-1.047a.43.43 0 00.009-.606l-.069-.038a.455.455 0 00-.515.072 43.254 43.254 0 01-1.893 1.539l.044-.08c-.727.534-1.386 1.106-2.2 1.608l-.436.278c.497-.468.995-.936 1.487-1.422.26-.228.509-.462.757-.696.542-.548 1.095-1.09 1.647-1.63.274-.28.553-.542.816-.828.542-.577 1.09-1.136 1.633-1.713a69.73 69.73 0 012.264-2.315c.17-.174.346-.33.528-.496l.872-.796c.297-.267.852-.733 1.275-1.094.19-.073.378-.118.56-.18.184-.062.777-.194 1.16-.295l.376-.088c.087.13.23.21.387.214 1.113-.023 2.344-.1 3.336-.174.993-.075 1.834-.144 2.746-.234a.48.48 0 00.335.335c.077.057.16.104.25.138.093.02.189.028.284.024.192.002.374-.03.56-.046l.563-.075 1.056-.189.651-.13 1.104-.22.41-.07 3.311-.799.106-.03 1.66-.315 1.996-.381.135-.03.03.107-.445.348-.107.193c-.331.248-.65.503-.963.746l-1.782 1.363c-.234.182-.47.364-.693.553l-2.557 2.093a.364.364 0 00-.205-.113.442.442 0 00-.46-.002 7.809 7.809 0 00-.992.61c-.294.209-.577.424-.86.64-.282.215-.796.659-1.177.998-.382.339-.717.703-1.076 1.055-.358.352-.646.683-.938.968-.291.285-.797.822-1.194 1.242-.396.42-.735.738-1.089 1.107-.353.37-.548.56-.833.833l-1.508 1.38a29.723 29.723 0 01-2.276 1.908c-.175.126-.371.24-.546.367l-.507.165c-.466.143-.933.315-1.383.483l-1.508.548c-.224.083-.443.156-.656.246-.266.06-.506.203-.687.407a.508.508 0 00-.031.191.429.429 0 00-.24.031c-.13.047-.238.106-.356.16l-.588.254-.846.32zm26.428-21.264c.295-.104.592-.237.871-.365l1.963-.86 1.743-.73c.64-.27 1.257-.553 1.932-.804-1.177.835-2.399 1.646-3.564 2.487a.494.494 0 00-.37-.056l-2.042.787-.947.368-.278.099-2.794.831-2.007.376-3.446.425-.556.064.194-.027 1.641-.28c.51-.09 1.022-.207 1.538-.308l.552-.11c.236-.078.484-.149.725-.209l1.09-.303.47-.126 3.285-1.259zm-8.991 21.155c-1.11.07-2.291.218-3.366.306-1.075.089-1.836.202-2.743.31.3-.191.587-.389.881-.598.928-.2 1.873-.375 2.821-.504.949-.129 2.234-.25 3.31-.233a.508.508 0 00-.151.273.494.494 0 00.135.373l-.887.073zm11.164.238l2.18.464c.294.06.594.136.894.184l2.729.44a66.764 66.764 0 00-2.78-.052l-1.626-.098-3.064-.21-.261-.146-.22-.032-.364-.202-.22-.033-.102-.056-.943-.122-.398-.22-.29-.042.114.063-.48-.072-.687-.128a.52.52 0 00-.232-.278.533.533 0 00-.248-.063l-.403.03-.636.049a66.89 66.89 0 01-2.187-.453c.676-.013 1.346-.043 2.027-.037l1.95-.005.536-.001.247.063 1.48.36c.908.294 1.93.46 2.917.664l.067-.067zm19.45-17.738l2.69.509 2.152.434.813.169 3.491.834.386.11 1.04.294.926.26.873.275-.264.048-.669.134c-.857.18-1.686.36-2.601.537a.48.48 0 00-.195-.346l-.387-.214-.242-.045-1.449-.283c-.503-.085-1.005-.17-1.495-.278-.283-.053-.565-.135-.842-.199l-.284-.157-.367-.115-.688-.262-.663-.278-1.75-.97a12.352 12.352 0 00-1.206-.669l.73.212zm-21.002.587c.18-.037.358-.087.53-.152.177-.05.455-.15.696-.21l.8-.21 2.159-.38 2.03-.364a34.069 34.069 0 013.553-.217 35.515 35.515 0 014.51.284c1.676.203 3.32.615 4.895 1.225.731.316 1.437.678 2.155 1.046l.887.491 1.005.439.722.28c.241.107.49.195.745.265.489.142.985.258 1.487.348l1.218.214c-.36.142-.727.267-1.082.397-.354.131-.791.276-1.159.429l-1.298.545c-.889.37-1.771.729-2.65 1.134l-.991.448a.494.494 0 00-.63-.126c-.785.398-1.55.762-2.337 1.189-.787.426-1.522.733-2.282 1.085-1.556.715-3.146 1.44-4.71 2.061l.113-.042a54.838 54.838 0 01-4.005 1.514l-.091-.05.216-.014a.508.508 0 00.492-.486.507.507 0 00-.267-.43.338.338 0 00-.193-.108l-3.28.206-3.434.268c-.74.021-1.509.041-2.216.11l-.432.029-.95.024 1.661-.314.734-.144 3.863-.64 1.495-.258c1.074-.223 2.131-.306 3.252-.503a.43.43 0 00.282-.216.508.508 0 00.046-.376.468.468 0 00-.215-.283.559.559 0 00-.37-.056c-1.39.255-2.767.46-4.127.687l-4.127.688c-.235.049-.475.08-.698.134l-.634.124c.119-.073.233-.154.342-.241a.508.508 0 00.164-.296.416.416 0 00-.002-.239.455.455 0 00-.428-.327 1.52 1.52 0 00-.402 0l-.346.062-.618.178-.739.26-1.158.4-1.824.61-1.894.735-.186-.014a.442.442 0 00-.332.143.378.378 0 00-.057.103l-.692.256-.39.14.34-.183a.794.794 0 00.08-1.353 68.922 68.922 0 012.468-1.608c.336-.23.688-.437 1.035-.661l1.267-.785 1.571-.93a15.52 15.52 0 011.29-.772c.92-.532 1.855-1.04 2.786-1.432a.482.482 0 00.172-.633.377.377 0 00-.182-.1l.226-.114a.495.495 0 00.173-.633.403.403 0 00-.216-.12l-.091-.05a.455.455 0 00-.363.037c-.907.404-1.778.903-2.637 1.38-.859.476-1.37.728-2.127 1.156l-1.347.741-1.69.715c-.938.566-1.86 1.156-2.793 1.74-.932.583-1.748 1.143-2.617 1.718-.144.099-.281.186-.414.29.481-.491.96-.954 1.46-1.48.725-.745 1.45-1.518 2.193-2.267.135-.159.286-.305.45-.435.205-.183.395-.39.612-.568l.651-.531c.163-.133.33-.249.487-.37a6.39 6.39 0 01.469-.336c.059-.033.115-.072.168-.115a.403.403 0 00.112.226.494.494 0 00.692.012c.43-.372.852-.733 1.304-1.092.797-.66 1.582-1.325 2.406-1.954l2.342-1.811c.108.476.548.512.917.463zm8.811-9.219a.143.143 0 00-.05.091c-.678.472-1.362.956-2.035 1.446a.533.533 0 00-.055-.358.403.403 0 00-.216-.12l-.09-.05a.455.455 0 00-.363.037c-.83.373-1.674.768-2.522 1.117l-1.54.634-2.838 1.179-.148.052-1.869.69-.957.332-.39.14-1.768.508-.577.156-.543.176-1.514.29-1.648.292-1.466.259-.84.174-.388.083a.871.871 0 00-.258.065.807.807 0 00-.28.128l-1.496.152-1.414.138c-.52.054-1.036.125-1.598.2l-.72.122-.9.2-.117.025c.308-.261.604-.528.924-.782a.508.508 0 00.189-.342.507.507 0 00-.142-.361l-.114-.063c.178-.08.351-.177.536-.269 1.1-.43 2.23-.831 3.342-1.256 1.112-.425 2.182-.8 3.24-1.18.674-.25 1.344-.52 2.03-.764l2.15-.771c.45-.168.911-.329 1.366-.478l2.63-.804.702-.22.5-.125 2.69-.696 3.274-1.027.323-.073 2.451-.56c1.667-.326 3.227-.727 4.815-1.125l1.768-.508-1.108.873a85.55 85.55 0 00-3.911 1.21l-6.229 2.066-4.604 1.495a.585.585 0 00-.596.19l-1.24.414c-.96.256-1.818.598-2.771.843l-1.945.559a.585.585 0 00-.8.21l-.902.26a.429.429 0 00-.443-.112l-3.09 1.07-1.306.45-.218.073c-.39.14-.786.264-1.182.416a.469.469 0 00-.333.574.48.48 0 00.591.328c.13-.047.271-.088.408-.146a81.407 81.407 0 015.553-1.652l1.362-.391a.585.585 0 00.4-.106l1.502-.431 2.402-.767 2.034-.613.148.082a.598.598 0 00.754-.34c1.192-.381 2.389-.744 3.592-1.119l6.353-1.968 2.082-.646-.577.424zm-69.833 25.455c.694-.716 1.411-1.42 2.078-2.166l1.594-1.75c.11-.163.241-.31.39-.437.09-.16.19-.342.376-.462.38-.473.78-.951 1.16-1.424l.658-.543 1.29-1.04 2.297-1.703a1.6 1.6 0 01.317-.196l.909-.568.974-.605c.138-.087.282-.186.43-.267a34.235 34.235 0 014.11-2.051c1.09-.438 2.205-.787 3.309-1.142 1.103-.355 1.812-.587 2.742-.845a.495.495 0 00.097-.899l1.07-.24c.288-.063.574-.098.856-.15l1.056-.188 1.492-.2.527-.065.567-.057.625-.055.532-.048.293-.046.118-.053c.387-.132.78-.241 1.179-.329l1.37-.355 2.515-.675c.842-.232 1.7-.545 2.513-.779 1.654-.57 3.228-1.186 4.82-1.672.385-.129.768-.258 1.157-.37.39-.112.75-.254 1.122-.36.801-.24 1.608-.463 2.424-.62l2.195-.42c-.604.23-1.224.437-1.85.656l-3.782 1.459c-.648.21-1.282.46-1.9.747a21.51 21.51 0 00-.942.519l-.872.528c-.293.18-.516.368-.78.55-.264.18-.475.346-.71.528l-1.097.88-.488.399c-.334.306-.678.606-1.03.917-.35.311-.368.317-.538.49l-.972.949c-.491.323-.97.652-1.457.992a.443.443 0 00-.176.319.468.468 0 00.043.351 1.172 1.172 0 01-.268.268l-1.016 1.03-.408.413-2.733 2.947a965.33 965.33 0 01-6.353 6.714l-.942.654c-.312.214-.618.445-.924.648-.784.503-1.563 1.023-2.335 1.532l-.765.468-1.877 1.132c-.299.192-.598.383-.902.556-.548.292-1.102.594-1.645.903l-.15.082a36.015 36.015 0 01-5.514 1.689.949.949 0 00-.306-.037l-3.467.489a.378.378 0 00.082-.148.547.547 0 00.063-.382.61.61 0 00-.231-.306.507.507 0 00-.377-.045l-3.648.521-2.643.425c.688-.303 1.381-.589 2.063-.88l2.527-1.099c1.068-.479 2.152-.934 3.199-1.455a.547.547 0 00.183-.33l1.087-.379a.482.482 0 00.315-.569.455.455 0 00-.22-.271.442.442 0 00-.33-.05l-1.524.525-1.61.596c-.502.182-1 .383-1.49.571l-1.231.478-1.598.603-2.163.898a.507.507 0 00-.33-.316.572.572 0 00-.353-.033l1.177-.835c.377-.252.738-.528 1.142-.855l1.712-1.238c.276-.203.541-.413.807-.624a69.52 69.52 0 001.697-1.32 38.446 38.446 0 002.066-1.741 60.921 60.921 0 002.546-2.501.495.495 0 00.004-.652l-.102-.057a.481.481 0 00-.556.064 41.101 41.101 0 01-1.812 1.822c-.37.345-.729.697-1.115 1.018-.386.322-.55.484-.828.717-.278.232-.345.3-.519.426l-2.439 1.906-.216.148 1.659-1.624zm-13.17-8.044c.75-.254 1.564-.621 2.36-.85.394-.123.795-.228 1.206-.327.412-.1.84-.175 1.262-.238l.59-.074c.48-.062.913-.09 1.45-.12a25.21 25.21 0 001.565-.143c1.11-.1 2.178-.281 3.208-.424l1.623-.246 1.508-.28 3.806-.672c-.101.182-.215.387-.389.513-.427.582-.837 1.188-1.27 1.78a7.293 7.293 0 01-.624.86l-.802 1.043c-.756.935-1.51 1.84-2.243 2.788-.734.947-1.505 1.963-2.272 3.025-.32.389-.639.777-.953 1.183-.131.19-.283.366-.453.522l-.543.577a75.99 75.99 0 01-2.231 2.096c-1.03.917-2.107 1.897-3.166 2.842-.399.344-.798.688-1.192 1.05-.187.15-.35.311-.537.46-.663.526-1.315 1.058-1.984 1.594a39.164 39.164 0 01-3.85 2.522c-.692.39-1.37.729-2.109 1.123-.738.394-1.353.618-1.995.917l-.882.359-.698.267a55.053 55.053 0 01-8.369-.026l-.08-.045c-.145-.11-.306-.2-.477-.264l-.514-.092a12.995 12.995 0 00-2.178-.092 11.13 11.13 0 00-2.12.313c-.436.115-.854.226-1.285.359-.754.207-1.509.443-2.258.668.091-.072.178-.148.26-.228.474-.184.946-.339 1.413-.511l.959-.362.33-.114 1.477-.49 4.592-1.502a.483.483 0 00-.257-.93l-3.4 1.09c-.69.228-1.387.466-2.089.687-.278.099-.56.18-.845.29l-.147.052c.472-.422.949-.827 1.41-1.256.694-.448 1.393-.879 2.076-1.333l.216-.148a.703.703 0 00.162-.104l.545-.367c.141-.086.277-.18.408-.28l.8-.584c.173-.126.365-.258.534-.402.41-.338.826-.658 1.231-1.014.405-.356.55-.483.823-.734a6.51 6.51 0 00.776-.864c.09-.134.167-.275.234-.421a.964.964 0 00.132-.239l.006-.28a.468.468 0 00-.227-.393l-.05.09-.114-.062c.377-.386.754-.772 1.143-1.152.591-.61 1.281-1.238 1.834-1.78.553-.541 1.117-1.077 1.664-1.607.188-.178.37-.345.546-.53l.17-.144 2.696-2.076c.044-.08.202-.096.253-.187l2.851-2.034c.955-.676 1.91-1.352 2.896-1.98a.508.508 0 00.221-.399l1.368-.67zm2.02-5.546c1.672-.337 3.252-.8 4.865-1.216l1.505-.355-1.499.746-.548.291-1.22.648c-.834.43-1.634.909-2.457 1.375a.507.507 0 00-.052-.282.78.78 0 00-.216-.12l-.103-.056a.455.455 0 00-.362.037c-.898.44-1.806.844-2.692 1.29l-2.064 1.042-1.832.919-.65.34-3.253 1.766a8.797 8.797 0 00-1.05.58c-.448.3-.871.527-1.3.765l-1.348.741c-.531.316-1.063.631-1.573.988a.417.417 0 00-.17.307.468.468 0 00.043.351c.137.21.409.284.633.173a22.25 22.25 0 011.674-1.036l1.438-.825c.84-.47 1.682-.942 2.534-1.407l1.895-1.032.81-.443.298-.162 3.022-1.51 1.404-.709-.95.56c-1.223.705-2.447 1.41-3.681 2.11-1.235.699-2.278 1.266-3.405 1.906a24.172 24.172 0 00-2.985 2.14c-1.085.885-2.11 1.687-3.153 2.55-.452.36-.899.737-1.346 1.115a13.659 13.659 0 00-2.71 2.826c-.364.468-.71.93-1.067 1.387-.357.457-.505.643-.78.952-.275.308-.57.68-.881.999-.31.319-.611.673-.927.974l-1.088 1.078c-.96.955-1.9 1.818-2.869 2.71-.132.172-.294.319-.478.433-.163.133-.556.466-.822.705-.266.24-.634.527-.942.787-.477.405-.977.798-1.488 1.184a26.031 26.031 0 01-2.587 1.69l-1.766 1.014c-.37.212-.768.393-1.154.58-.636.317-1.273.634-1.914.933a.495.495 0 00-.284.512 38.267 38.267 0 00-4.78-1.162.52.52 0 00.176-.319.494.494 0 00-.25-.435l-.215-.12a41.353 41.353 0 00-1.734-.01l-.307-.17a.872.872 0 00-.026-.49l.153-.034 1.374-.28 2.33-.449a.495.495 0 00.34-.614.494.494 0 00-.223-.214.507.507 0 00-.388-.05l-3.109.567-.146.023c3.205-4.174 9.213-11.258 11.275-13.745a46.57 46.57 0 011.949-1.612c2.253-1.384 6.16-3.444 7.76-4.267.316-.168.127-.228-.443-.246l6.63-1.235.775-.165 2.113-.54 2.091-.447 1.592-.352a30.325 30.325 0 00-2.398 1.645c-.818.618-1.784 1.154-2.686 1.68l-.037.069a.469.469 0 00-.035.68.468.468 0 00.644.178c.81-.577 1.696-1.157 2.398-1.645.702-.49 1.414-.942 2.121-1.413l2.399-1.646 1.712-1.104c.168-.115.347-.224.526-.333a308.47 308.47 0 003.494-2.066l1.45-.847c.496-.305 1.003-.575 1.515-.856l1.504-.327zm-4.768 1.092l.16-.046-2.592 1.539c-.658.409-1.313.76-1.949 1.181-.635.422-1.46.946-2.196 1.416a.546.546 0 00-.219-.33.559.559 0 00-.37-.056l-2.744.606-2.656.581c-.875.185-1.704.394-2.6.537l-3.827.735-2.893.554c.904-.317 1.818-.599 2.682-.924.496-.17.99-.313 1.492-.467a.598.598 0 00.59-.178c.837-.25 1.662-.478 2.509-.692.847-.215 1.6-.393 2.395-.621l.632-.2.188-.045.9-.23.312-.08 3.306-.95 1.768-.508 2.737-.862a.482.482 0 00.3-.355c.201-.067.402-.134.608-.184l1.467-.421zM216.506 59.43l1.963-.86 1.77-.671.196-.114.4-.105c.164-.028.334-.039.487-.073l.458-.103.928-.2a38.947 38.947 0 011.8-.296 14.68 14.68 0 011.233-.135c.19-.027.381-.04.572-.04.228-.008.468-.038.7-.028l.79.021.872.037c.325-.035.644-.108.952-.216l.825-.227c1.042-.27 2.1-.517 3.147-.77 1.046-.253 1.904-.432 2.84-.672l1.964-.488c.483-.12.973-.28 1.468-.422.495-.142.824-.227 1.244-.366l2.041-.654a1.9 1.9 0 00-.203.125c-.409.175-.728.296-1.085.456a6.662 6.662 0 00-.654.321c-.214.12-.392.2-.583.302-.806.411-1.589.866-2.346 1.363a.482.482 0 00-.174.662.494.494 0 00.455.252 25.748 25.748 0 00-2.135 1.33l-.91.597c-.587.389-1.176.836-1.723 1.232l-.038.068-.385.292-.15.11c-.057.103-.187.15-.29.227l-.518.427a8.92 8.92 0 00-1.785 1.986c-.347.626-.762 1.214-1.166 1.808-.145.262-.296.535-.545.77-.556.494-1.102.995-1.613 1.515-1.152 1.087-2.282 2.186-3.345 3.353-.262.286-.536.565-.805.863a43.548 43.548 0 01-1.566 1.512c-.54.49-1.075.892-1.641 1.351l-1.143.855c-.403.297-1.092.763-1.66 1.118-.263.152-.568.354-.903.555l-.158.017a.469.469 0 00-.289.227 11.04 11.04 0 01-.822.437c-.517.263-1.029.515-1.55.732l-1.648.693-4.151 1.671c-.676.28-1.356.543-2.03.794a8.012 8.012 0 01-1.003.307c-.338.096-.681.169-1.028.219l.158-.017-.287.035-2.177.28-1.205.136-.292.017a.857.857 0 00-.643-.476.768.768 0 00-.03-.508l.707-.069.837-.116c.222-.025.434-.086.645-.118l.63-.143.946-.233 1.514-.426c.454-.12.915-.281 1.363-.42l1.121-.36.207-.079c1.427-.295 2.843-.596 4.262-.85.745-.138.769-1.226.177-1.554l-.693-.384a.806.806 0 00-.821.006.468.468 0 00-.16-.193.455.455 0 00-.337-.038l-3.797.871-6.306 1.563-1.288.312.233-.421a79.24 79.24 0 0010.277-8.11.742.742 0 00.058-1.068.494.494 0 00-.081-.417l-.16-.088a.455.455 0 00-.544.07l-.07.125a.859.859 0 00-.363.2 75.167 75.167 0 01-8.073 6.52c.428-.611.862-1.234 1.324-1.826a33.174 33.174 0 011.857-2.169c.27-.326.569-.651.903-.987.335-.335.916-.98 1.34-1.399.09-.111.194-.209.31-.29l.805-.729c.102-.127.227-.235.37-.316l.788-.619c.35-.282.71-.558 1.097-.88.057-.102.17-.144.247-.205a39.634 39.634 0 011.63-.927c.505-.27 1.06-.601 1.603-.881l1.178-.597 3.136-1.609c1.074-.49 2.064-1.042 3.12-1.499a.508.508 0 00.176-.318.599.599 0 00-.042-.38.637.637 0 00-.196-.184l-.102-.056a.559.559 0 00-.38.042c-1.056.456-2.04.997-3.114 1.488l-3.105 1.58c-.327.161-.65.34-.965.507.053-.043.109-.081.168-.115.278-.233.583-.435.877-.644.294-.21.654-.322.991-.448a.833.833 0 00.513-.549.482.482 0 00.172-.633.364.364 0 00-.204-.113.584.584 0 00-.125-.07l2.76-1.386zM183.12 70.054l.671-.46.664-.421c.383-.234.817-.455 1.163-.65.346-.195.703-.384 1.054-.561.768-.393 1.476-.759 2.314-1.143.837-.384 1.74-.806 2.494-1.176.755-.37 1.495-.659 2.273-1.016.361-.142.711-.29 1.101-.431.39-.14.798-.287 1.205-.404.79-.246 1.655-.465 2.495-.64l2.54-.452.64-.136.658-.14 1.296-.383a18.21 18.21 0 002.352-.81c.847-.348 1.642-.576 2.444-.95.499-.23.975-.471 1.45-.684l-.851.703a57.312 57.312 0 00-2.208 2.08c-.717.703-1.482 1.44-2.206 2.183-.725.744-1.432 1.483-2.14 2.25-.335.365-.678.74-.997 1.13-.32.388-.616.788-.929 1.165a39.716 39.716 0 01-2.078 2.33 52.69 52.69 0 01-2.12 2.082c-.717.674-1.548 1.478-2.347 2.195-.8.718-1.528 1.281-2.322 1.882l-.607.452c-.83.612-1.659 1.223-2.487 1.805l-.857.581c-.162.104-.335.202-.503.317l-.49.294-.22.13-.745.405c-.757.4-1.523.763-2.284 1.144-1.01.127-2.028.17-3.044.128a1.599 1.599 0 00-1.15.092l-.038.068-.255-.023 2.068-.862c.896-.41 1.913-.769 2.822-1.202.462-.19.824-.362 1.358-.601.534-.24 1.063-.497 1.582-.79a.456.456 0 00.167-.621l.082-.148a.364.364 0 00-.205-.114.442.442 0 00-.46-.002c-.47.26-.929.497-1.404.71l-1.376.606c-.505.24-1.168.498-1.506.652l-.86.372 2.398-1.646c.916-.579 1.777-1.113 2.741-1.754.965-.64 1.934-1.263 2.866-1.952a.547.547 0 00.17-.307.52.52 0 00-.043-.351.533.533 0 00-.204-.114l-.103-.056a.468.468 0 00-.35.043l-1.212.817c-.794.467-1.542.96-2.285 1.44l-2.398 1.646-6.362 4.076-.502.183c.626-.62 1.245-1.229 1.86-1.855l1.58-1.564c.189-.178.372-.374.555-.57l2.608-3.018c.313-.377.615-.76.928-1.137.313-.377.632-.765.934-1.148.835-1.025 1.584-1.92 2.42-2.944a.547.547 0 00.11-.548l.032-.057 1.29-.773 2.64-1.437 6.116-3.23a.482.482 0 00.172-.634l.068.038a.455.455 0 00-.644-.178c-1.572.824-3.149 1.631-4.715 2.474l-2.803 1.57-1.347.741c-.436.25-.849.512-1.28.779l-.734.44c-.162.104-.318.226-.468.336l-.936.642-.444.319-1.56 1.204c-.367.287-.718.598-1.062.898l-.044.08a9.45 9.45 0 00.052-1.623 1.144 1.144 0 00-.125-.337c.236-.211.494-.41.73-.592l-.051.09c.373-.298.789-.618 1.21-.92l-.012-.007zm-27.97 19.248s3.143-3.286 3.194-3.377c4.837-4.757 19.735-12.863 19.735-12.863l.207-.079a68.005 68.005 0 01-7.906 11.58.768.768 0 00-.152.839.69.69 0 00-.027.342c-.54.515-1.112.999-1.709 1.448l-.175.022a.377.377 0 00-.258.17c-1.688.551-10.676 3.171-11.059 3.271a24.95 24.95 0 001.18-.52l.964-.478c.19-.103.386-.188.57-.279l2.937-1.57c.894-.487 1.767-1.015 2.65-1.508.882-.492 1.956-1.117 2.946-1.669a.495.495 0 00.174-.662.403.403 0 00-.205-.114.48.48 0 00-.47-.008l-1.945 1.094c-.889.504-1.755 1.021-2.638 1.514-.882.492-1.854 1.04-2.795 1.53l-1.358.734-.97.49c-.184.09-.375.193-.57.278l-1.518.647c-.44.202-.896.381-1.358.571l-1.757.677c-.158.017-.239.002-.16-.088l.912-.76c.248.064 1.308-.91 1.56-1.232zm-25.562 16.403a1.403 1.403 0 01-1.365-1.292 2.995 2.995 0 011.227-1.998c.359-.234.733-.444 1.12-.628.48-.216.977-.394 1.484-.532a.637.637 0 00.417.053 69.407 69.407 0 009.328-2.402 67.965 67.965 0 006.49-3.395c-.246.444-.384.933-.596 1.396-.06.096-.114.195-.164.296-.105.164-.2.335-.283.512l-.347.626c-.253.455-.511.922-.838 1.35-.107.194-.221.399-.403.566a.638.638 0 00-.107.193 22.635 22.635 0 01-2.2 1.503l-8.55 2.848-1.224.438-1.249.215a9.802 9.802 0 01-2.74.251zm39.589-5.429l-.702.22c-.254.083-.508.166-.767.23a14.03 14.03 0 01-1.667.326l-1.654.303a27.99 27.99 0 01-1.52.274l-1.69.208-1.4.191c-.21.032-.426.047-.642.06a6.304 6.304 0 01-.74.022l-1.472-.027a36.095 36.095 0 01-2.743-.226c-.91-.103-2.08-.35-3.118-.569a19.467 19.467 0 01-1.503-.372l-.216-.12a25.112 25.112 0 0120.461-.767c-.243.118-.453.12-.627.247zm9.212-1.737l.44.17c-.61-.026-1.213-.063-1.82-.042-.778.016-1.554.083-2.324.2l-.3.056a.884.884 0 00-.343-.666 41.65 41.65 0 00-3.419-1.449.792.792 0 00-.471-.41 33.607 33.607 0 00-6.705-1.633 38.617 38.617 0 00-3.166-.268 6.666 6.666 0 01-1.89-.184l-.397-.22a.703.703 0 00.036-.308c1.053-.13 2.016-.177 3.194-.238s2.461-.123 3.676-.09c.222.027.442.07.658.127l.216.12a.546.546 0 00.315-.138l.044-.08a265.879 265.879 0 019.747 4.51.754.754 0 00.894-.084l.25.139 1.365.488zm57.567 3.941a30.022 30.022 0 00-1.618-.004l-3.665.096c-2.395.056-4.79.142-7.175.1-1.361-.011-2.734-.029-4.077-.073a63.175 63.175 0 01-3.316-.158l-3.694-.307a51.813 51.813 0 01-2.352-.262c.77-.183.953-1.45.018-1.642-1.541-.303-3.044-.675-4.576-1.048 2.112.449 4.256.732 6.412.846l.28.006.603.037 2.153.138.872.037 1.989.031 1.274.007 1.823-.016 1.275-.022.979-.023.437-.01c.154.01.309.001.46-.028a.611.611 0 00.178-.05c.086-.042.168-.09.244-.147a.456.456 0 00.076-.539l-.07.125a.533.533 0 00-.204-.113.623.623 0 00-.193-.107 52.238 52.238 0 00-1.665 0l-1.478-.016-1.087-.023.044-.08a.442.442 0 00-.06-.212.429.429 0 00-.138-.18.701.701 0 00-.205-.114l-.25-.138-.534-.162a.494.494 0 00-.383.1.456.456 0 00-.034.65l-.52.054-2.781-.158-2.27-.142a.884.884 0 00-.369-.487.845.845 0 00-1.159.295c-.55-.053-1.108-.094-1.663-.164l-1.11-.169a38.974 38.974 0 01-4.395-.948c-.73-.211-1.46-.423-2.178-.657l-.871-.304-3.162-1.188-1.187-.539c-.353-.195-.75-.282-1.103-.477l-1.386-.664-.807-.448a1.208 1.208 0 00-.648-.225.482.482 0 00-.4.24.43.43 0 00-.003.46c.065.114.149.216.25.3l.659.366-1.85-.846a59.266 59.266 0 01-5.946-3.296 21.873 21.873 0 01-4.353-2.874c2.216-.286 4.401-.772 6.529-1.454a.807.807 0 00.335-.23c1.334-.154 2.657-.343 3.986-.514.77-.02 1.51-.041 2.334 0 1.59.06 3.174.21 4.748.444.995.135 1.989.3 2.982.493.9.172 1.8.373 2.665.555l1.52.367c.433.105.865.21 1.295.345.431.135 1.04.324 1.562.509l1.237.448.931.412 1.188.54 2.22 1.036 3.41 1.89 1.068.756.495.394.228.126c.217.183.447.35.688.5l6.436 3.568 1.535.85.443.246c.18.115.366.218.557.31l1.376.762 1.337.592c.856.385 1.701.765 2.57 1.127l1.516.617.86.328.505.16-1.647-.005z"/></g></svg>