<svg width="562" height="678" fill="none" xmlns="http://www.w3.org/2000/svg"><path d="M128.668 33.244L131 21l4.668-15.872 63.102 2.774c-.766 3.12-1.294 6.46-1.584 10.018-.266 3.26-.219 8.508-.032 16.104-7.338.423-13.154 6.31-13.154 13.51C184 55.007 190.751 62 198.483 62c.085 0 .171 0 .256-.003L199 62c7.18 0 13-5.82 13-13 0-.24-.006-.48-.019-.718.013-.249.019-.498.019-.749 0-7.007-5.51-12.77-12.57-13.463.054-.85.082-1.686.082-2.51 0-3.1-.659-7.955 0-12.4.437-2.954 1.594-6.66 3.471-11.119L249 9c22.792.722 35.312 1.121 37.562 1.198 33.691 1.147 64.215 2.181 91.573 3.104 1.543 3.476 2.498 6.375 2.865 8.698.566 3.585 0 7.5 0 10v3c-7.732 0-14 6.268-14 14s6.268 14 14 14 14-6.268 14-14c0-6.325-1.965-11.298-7.724-13.035-.853-.257-2.728-.6-4.301-.8A.635.635 0 00383 35c.183-6.675 1-8 1-11 0-3.215-.308-6.725-.923-10.532 20.473.69 39.121 1.316 55.945 1.877 1.613.053 2.611 11.007 1.978 17.655-.173 1.822-.841 3.037-1.394 3.813-.791.499-1.647 1.228-2.606 2.187-2 2-5 6.821-5 12 0 6.627 5.373 12 12 12s12-5.373 12-12c0-3.952-3.713-9.33-7.356-12.468A3.87 3.87 0 00449 38c1.093-1.949 1.486-7.04 2-10 1.185-6.827 1.594-12.204 2.575-12.171C517.267 17.943 551.075 19 555 19c-4.094 58.538-24.332 170.755-26 326-.574 53.391-1.858 118.616 3 233 .285 6.71 0 31 0 43 7 0 30-5 30-5s-20 57-24 60c-2.667 2-34 2-94 0L2.985 663.979C.285 558.375.29 449.382 3 337A7235.935 7235.935 0 0119 0l98.284 4.32c1.611 1.863 3.183 4.423 4.716 7.68 2.434 5.171 3 11.032 3 16 0 1.19-.129 2.555-.387 4.095A13.654 13.654 0 00123 32c-4.349 0-8.531 1.807-11 5-1.764 2.282-2.5 5.393-2.5 8.5 0 7.456 6.044 13.5 13.5 13.5 2.854 0 5.82-.489 8-2 3.516-2.437 5.5-6.898 5.5-11.5 0-5.432-3.208-10.114-7.832-12.256zm68.512 1.818l.002.082c-6.236.98-11.766 6.837-12.16 13.141a12.27 12.27 0 01-.022-.718c0-6.518 5.557-11.877 12.18-12.505zm170.842 14.173A11.95 11.95 0 01368 48.5c0-6.904 5.82-12.5 13-12.5 1.307 0 4.638.517 5.828.862 5.347 1.55 7.172 5.99 7.172 11.638 0 .25-.008.497-.023.743-.229-3.89-2.189-8.006-4.977-10.243-2.226-1.786-4.924-2-8-2-6.923 0-12.582 5.411-12.978 12.235zM286 671c-4 0 245.176 5 250.112 3 3.291-1.333 10.624-19.333 22-54-33.334 10.182-61.688 17.516-85.064 22C437.984 648.727 290 671 286 671z" fill="#fff"/><path d="M284.797 170.536a.859.859 0 00-.082-.246c.036.065.066.132.089.202 0 0-.007.025-.007.044zM244.235 205.411a1.401 1.401 0 01-.416-.07 59.8 59.8 0 01-8.826-.251c-5.252-.585-10.61.918-15.811-.818-.347-.113-.927-.163-1.085.277a.555.555 0 000 .465c12.237.516 24.493.73 36.729 1.34.177 0 .366-.031.574-.038 1.393-.037 2.843.353 4.274-.251a1.198 1.198 0 00-.107-.183c-5.089-.314-10.2-.471-15.332-.471zM210.046 388.86h-.056l.056-.861c.007.308 0 .585 0 .861zM318.298 349.715h.044v.22l-.063-.214.019-.006zM286.19 179.284a.502.502 0 01.095.233 1.75 1.75 0 01-.095-.233zM318.349 345.967c0 .283-.038.566-.051.855v-.818l.051-.037zM346.069 218.31h3.02c-2.03.743-4.231.889-6.342.422 1.122-.026 2.339.729 3.322-.422z" fill="#000"/><path d="M346.069 218.31c-.983 1.151-2.2.396-3.322.422 1.071-.422 2.282.251 3.322-.422zM348.9 212.058a.762.762 0 01.416.944c-1.141.138-.763-.409-.416-.944z" fill="#000"/><path d="M348.131 214.065c-.391-.12-.416-.478-.448-.83-.094-.925.391-1.258 1.217-1.176-.347.534-.725 1.081.416.943-.429.314-.221 1.365-1.185 1.063zM226.129 199.228h-3.638a3.474 3.474 0 012.831-.698c-.221.805.58.415.807.698z" fill="#000"/><path d="M225.322 198.53l.807.698c-.227-.283-1.028.107-.807-.698zM298.988 205.109h2.812c-.712.553-1.62.484-2.427.736.246-.46-.151-.554-.385-.736z" fill="#000"/><path d="M299.373 205.832l-.385-.723c.234.182.631.276.385.723zM299.959 213.442c-.044-.094-.088-.144-.133-.144a2.527 2.527 0 012.661-.076c-.965-.145-1.746.554-2.692.465.151-.075.208-.169.164-.245z" fill="#000"/><path d="M299.959 213.442c.044.088 0 .17-.164.245a.498.498 0 000-.39c.076 0 .12.051.164.145zM302.847 214.838a2.308 2.308 0 012.156-.132c-.587.453-1.185.283-2.156.132zM302.096 199.882a2.452 2.452 0 012.106.076 2.432 2.432 0 01-2.106-.076zM299.385 207.989h.044s-.037-.006-.044 0zM301.138 207.763c-.586.377-1.166.17-1.727.201.491-.597 1.059-.566 1.727-.201zM303.956 205.077h-2.081c.499-.566 1.06-.528 2.081 0zM253.42 429.289c.108.044.221.075.328.113a1.674 1.674 0 01-.328-.113z" fill="#000"/><path d="M314.554 256.544c0-6.353-.776-12.68-.895-19.026-.038-.22-.064-.434-.095-.629a84.223 84.223 0 01-12.697.73c-4.785 0-9.57-.145-14.355-.195-5.441-.057-10.843-.201-16.265-.673-2.85-.252-5.674-.554-8.543-.881-2.868-.327-5.781-.597-8.643-1.044-4.022-.629-8.196-.239-12.098-1.327l-2.162-.056c-.234.937-.448 1.886-.669 2.817.227 3.956.196 7.925.076 11.894v.754a108.05 108.05 0 01-.971 18.611v.44c-.75 12.151-1.481 24.302-1.841 36.479-.359 12.056-.466 24.12-.674 36.176-.423 24.435-.744 48.882-.347 73.316 0 2-3.07 1.994-3.108 0a931.255 931.255 0 01-.202-19.403c-.945.529-1.891-79.875-1.815-85.291.075-5.415 0-10.692-.139-16-.233-10.692-.46-21.308.044-31.975.448-9.321.782-18.755-.309-28.051h-.63a19.865 19.865 0 00-7.427.981c-1.065.396-1.355 1.044-1.059 2.05.575 2.26.829 4.589.757 6.919.069 13.667-.498 27.334.037 40.994.366 9.183.896 18.359 1.104 27.548.264 11.811-.089 23.617-.284 35.428a529.771 529.771 0 00-.044 13.46c-.126 1.553-.24 3.107-.322 4.666-.051.898.09 1.797.416 2.636.271 16.421.915 32.843.681 49.265a40.02 40.02 0 00.297 5.132c.271 2.434.668 4.981.233 7.333-.801 4.252.384 7.447 4.167 9.636a33.577 33.577 0 0010.743 3.824 5.252 5.252 0 001.626.553c.631.101 1.261.183 1.929.252 2.336.265 4.691.318 7.036.157 6.304.189 12.609-.057 18.913.063 3.152.056 6.304.428 9.393.27a74.877 74.877 0 0013.126-1.849c4.691-1.075 9.583-1.082 14.242-2.516a8.086 8.086 0 005.674-5.358c.597-1.679.935-3.44 1.002-5.22.195-6.17.284-12.353.441-18.523.164-6.453.152-12.912.587-19.346.554-8.208 1.374-16.403 1.424-24.636.164-28.962-.246-57.932 1.557-86.875a324.12 324.12 0 00.631-22.699.823.823 0 01-.542-.811zM272.794 233.833c5.169.389 10.339.408 15.521.49 4.741.076 9.456.214 14.216.164 3.585.03 7.167-.204 10.718-.699a4.735 4.735 0 00-1.299-.465 31.977 31.977 0 00-5.252-.434c-.63-.031-1.292-.075-1.941-.113a.78.78 0 01-.423 0l-2.9-.176a2.79 2.79 0 01-1.217.182c-3.24-.044-6.487-.038-9.727-.044a192.703 192.703 0 00-34.17-.629c5.498.661 10.976 1.308 16.474 1.724z" fill="#000"/><path d="M350.583 207.996a9.634 9.634 0 01-1.16-3.334 5.737 5.737 0 00-.889-2.849c-.548-.591-.523-1.384-.725-2.094-.473-1.497-.945-3-1.412-4.497a1.394 1.394 0 01-.359-1.258c-3.153-8.459-5.674-17.145-8.663-25.661-3.517-10.063-5.907-20.441-9.708-30.378a1.81 1.81 0 01-.423-1.648l-.832-2.874a1.317 1.317 0 01-.347-1.258c-.554-3.591-1.79-7.006-2.647-10.528-.467-1.944-1.028-3.868-1.545-5.799-.504-.522-.378-1.176-.378-1.805-.599-.749-.536-1.699-.788-2.554-1.299-.849-2.736-.214-4.092-.396l-.712.101c-.367.321-.87.441-1.343.32-.58.591-1.324.478-2.043.472a1.26 1.26 0 01-1.229.358 2.245 2.245 0 01-1.608.573 3.355 3.355 0 01-1.67.692l-4.104 2.1a.838.838 0 01-.234.151l-1.33.83-4.552 3.535-1.601 1.384a48.697 48.697 0 00-4.829 6.491c-.303.584-.599 1.176-.901 1.767v.144l-.114.101a4.75 4.75 0 01-.788 2.069c-.857 3.315-1.671 6.642-2.597 9.931-.423 1.485-.328 3.095-1.116 4.478a2.618 2.618 0 01-.322 1.673 10.054 10.054 0 01-.529 3.686 7.495 7.495 0 01-.183 2.189 1.19 1.19 0 01-.139.377l-.094 1.969a4.09 4.09 0 01-.303 2.195l.416 11.648a.2.2 0 01.088.201c.217.363.291.793.208 1.208.208 1.301.662 2.566.53 3.918.357.544.482 1.207.347 1.843l.094.39c.327.49.436 1.093.303 1.666 1.122 3.441 1.399 7.114 2.83 10.478.366.856.631 1.768.896 2.661a.822.822 0 01.441.968c-.208.409-.63.208-.965-.05l-1.55-.107c-.896 0-1.803.139-2.655-.302l-3.076-.107c-1.69-.125-3.398.221-5.044-.308H257.84c-1.545.51-3.152.195-4.703.302l-2.049.069c-1.469.529-3.001.258-4.501.34l-1.955.107c-1.09.472-2.244.245-3.373.314l-1.544.095c-.952.459-1.967.283-2.957.314l-1.57.101c-.939.446-1.948.314-2.938.327a60.267 60.267 0 01-9.38 1.295 3.245 3.245 0 01-2.1.34l-1.122.094a2.458 2.458 0 01-1.734.302c-1.399.334-2.83.566-4.192 1.019-2.326.78-1.942 3.051-2.427 4.83-.164 1.686.189 3.403-.309 5.07-.038 1.056-.069 2.113-.107 3.144-.152 1.686.201 3.403-.303 5.063-.038.629-.069 1.29-.107 1.938-.17 2.132.227 4.289-.309 6.396l-.088 4.761v26.774l.113 6.032c.479 1.528.24 3.107.221 4.654-.051 3.711.158 7.428-.069 11.132a5.58 5.58 0 01-.177 2.302l-.069 4.717v3.315c0 9.958-.015 19.912-.044 29.862a9.632 9.632 0 01-.234 3.258v.673l-.038 1.258-.056 6.182v13.183c0 1.258 0 2.471.031 3.711.182.814.197 1.657.044 2.478V349.501c.398.912.253 1.887.259 2.831.038 6.683.061 13.371.069 20.063l.095 3.572c.263.781.347 1.611.246 2.428.033 5.971.052 11.937.056 17.9.03 2.675.063 5.35.101 8.025.511 1.83.158 3.717.315 5.572 0 .629.064 1.296.101 1.95.467 1.522.196 3.101.316 4.648l.094 1.887c.498 1.824.158 3.692.315 5.528l.095 1.95c.46 1.384.214 2.824.328 4.233.075.396.157.792.239 1.188.385.774.189 1.61.246 2.422.139 1.258 1.822 2.113.832 3.61a.68.68 0 01.133.535c.107.427.22.849.328 1.257.397.158.327.504.327.824l2.491 2.906c.907.962 2.402.969 3.24 2.038l1.217.478 7.307 2.044a3.032 3.032 0 011.55.245.678.678 0 01.208.113c.114-.094.208-.075.29.051.84-.092 1.69.035 2.465.371l.404.056c.996.063 2.03-.132 2.982.346a.171.171 0 01.29.044c1.166.082 2.37-.132 3.492.365l2.245.107 1.488.132a5.177 5.177 0 012.011.182 3.587 3.587 0 011.822.076h.826c1.002.038 2.036-.182 2.994.296h8.063a14.604 14.604 0 014.086.056 4.11 4.11 0 012.049 0 5.885 5.885 0 012.458 0 6.802 6.802 0 012.667 0c3.467-.478 6.935-.201 10.434-.339l1.084-.082c.152-.068.314-.11.479-.126a17.048 17.048 0 013.354-.22l.164-.094.183.05c.933-.491 1.942-.315 2.925-.359l.826-.094 1.229.12c.385-.089.511-.724 1.04-.516a3.897 3.897 0 012.232-.352 1.47 1.47 0 011.261.056l1.519-.516a.922.922 0 01.284-.119 4.348 4.348 0 011.891-.252c.719-.364 1.671.397 2.295-.465a2.324 2.324 0 011.803-.384l1.583-.113a.18.18 0 01-.01-.174.184.184 0 01.142-.103 3.83 3.83 0 012.383-.773c.334-.088.712-.088.902-.459l3.549-3.34c.353-.698.593-1.472 1.261-1.95.126-.302.252-.629.384-.893a5.94 5.94 0 01.807-2.56c.807-.673.133-1.622.448-2.39.057-1.037-.114-2.107.359-3.1l-.063-.101.076-.094c0-.824.063-1.648.088-2.472.133-2.616-.277-5.252.315-7.856l.095-2.452c.094-1.956-.246-3.938.328-5.868 0-.516.056-1.032.082-1.548.075-1.698-.215-3.415.315-5.082 0-.779.063-1.559.088-2.339.114-2.944-.246-5.906.328-8.805l.095-9.29v-19.151c0-.73-.145-1.516.321-2.189 0-1.679.032-3.352.044-5.031v-.46-2.056-2.063c.12-3.906-.321-7.824.309-11.711 0-.491.044-.975.063-1.465v-.831c0-.824 0-1.648.032-2.471l.151-2.328a6.118 6.118 0 01.145-2.383c0-.214 0-.428.044-.629.051-.723-.366-1.528.385-2.113l-.322-.78c.095-1.969.183-3.944.278-5.912l-.089-.139.101-.125c.032-.824.063-1.648.088-2.472v-1.68-42.032-52.328V215.782c2.346.434 4.123 1.698 6.116 2.459l12.287 3.717a2.62 2.62 0 011.746.359l.719.094a4.05 4.05 0 012.162.314l1.929.114 3.676-.038c.731-.497 1.784.321 2.414-.591l2.056-1.145 1.26-1.616.095-2.038c-1.015-3.101-1.557-6.409-2.919-9.415zm-11.543-25.624c1.822 4.101 2.351 8.076.164 12.183a9.659 9.659 0 00-.517 1.956c-1.167 4.302-1.507 8.805-3.575 12.887-1.261 2.516-2.635 3.013-5.043 1.723a15.19 15.19 0 01-1.892-1.258 35.198 35.198 0 00-10.994-5.66c-2.1-.629-3.966-1.673-5.044-3.585-1.96-3.547-4.684-6.371-7.672-9.006a9.851 9.851 0 01-1.261-1.346c-.99-1.258-1.261-2.132.492-3.365 6.934-4.931 14.701-8.504 21.63-13.466 2.786-1.987 6.058-3.296 9.147-4.931a84.946 84.946 0 004.565 13.868zm-10.535-31.749c1.261 3.818 2.635 7.604 3.978 11.403.271.774.322 1.258-.712 1.585-8.013 2.654-15.465 6.516-22.696 10.837a30.808 30.808 0 01-8.366 3.622c-1.103.277-1.582-.056-2.03-1.018-1.405-3.013-1.191-6.152-.674-9.258.712-4.258 1.525-8.491 1.475-13.315-.107-1.849-.208-4.208.63-6.428 1.722-4.711 4.735-8.918 5.447-14.032.127-.887.681-.949 1.312-.415 3.259 2.799 7.067 4.9 10.024 8.07a31.37 31.37 0 009.998 7.333 2.644 2.644 0 011.614 1.616zm-3.971-12.578c-1.142-1.045-1.98-1.73-2.718-2.516-2.786-2.956-6.304-4.963-9.412-7.497-.889-.73-1.078-1.227-.107-2.164 2.282-2.195 4.577-4.27 7.893-4.805l4.344 16.982zm-37.02 29.044c-.825-12.063 2.112-23.51 6.185-34.705a23.736 23.736 0 018.107-11.132c5.126-3.824 11.569-4.78 17.022-7.956.353 1.987.675 3.666.939 5.358.082.535.492 1.428-.485 1.466-4.01.132-6.506 2.679-9.022 5.346-.92.975-.87 1.918-.22 2.673a19.462 19.462 0 003.852 3.616c3.31 2.22 6.121 5.032 9.242 7.459 2.389 1.887 3.247 4.403 3.915 7.548-2.181-1.038-4.003-1.944-5.535-3.309-4.338-3.861-8.53-7.887-13.441-11.031-3.058-1.963-3.783-1.692-4.949 1.792a5.665 5.665 0 00-.309.975c-.448 2.698-1.702 5.032-3.152 7.271a17.096 17.096 0 00-2.774 8.918c-.151 6.453-.864 12.862-1.261 19.296-.151 2.604.631 4.988 1.223 7.447.071.465.44.829.908.893a9.132 9.132 0 006.55-.39c2.2-1.044 4.413-2.05 6.582-3.183 6.935-3.616 13.693-7.547 20.987-10.396.631-.239 1.299-.931 1.715.377.309.95.271 1.497-.713 1.938a50.97 50.97 0 00-5.831 2.855c-8.58 5.352-17.104 10.799-25.634 16.233a1.453 1.453 0 00-.813 1.698c.769 3.013 1.721 5.906 4.243 7.988.63.528 1.419.968 1.891 1.962a33.336 33.336 0 00-9.639-.12 1.173 1.173 0 01-1.4-.83c-4.362-9.541-7.458-19.478-8.183-30.057zm17.489 47.617c-.587.453-1.186.283-2.156.132a2.308 2.308 0 012.156-.132zm-2.907-14.824a2.452 2.452 0 012.106.076 2.432 2.432 0 01-2.106-.076zm-76.774-1.352c13.088-1.994 26.302-2.377 39.497-2.83 8.385-.283 16.763.239 25.148.327 1.677 0 2.824.427 3.644 2.214h-1.923c-7.698.169-15.408.05-23.087.717a265.316 265.316 0 01-42.472.27h-3.638a3.474 3.474 0 012.831-.698zm89.705 137.738c-1.022 19.265-1.948 38.523-2.068 57.819-.057 9.334-.177 18.667-.454 27.994a96.551 96.551 0 01-.788 10.919c-.574 4.031-2.238 7.484-6.147 8.667-8.46 2.559-17.154 3.773-25.936 4.402-9.885.679-19.783.107-29.675 0-9.04-.113-17.923-1.107-26.478-4.314-2.459-.925-4.69-2.133-5.92-4.403a16.963 16.963 0 01-2.055-8.132c.038-13.46.021-26.919-.05-40.378-.12-18.334-1.324-36.643-1.135-54.983.076-7.006.271-14.006.378-21.006.296-19.372-.939-38.718-.908-58.083 0-8.856.347-17.711.253-26.567-.095-8.855 0-17.572.157-26.359 0-1.421.315-1.937 1.734-1.075a5.464 5.464 0 002.143.629c9.633 1.094 19.279 1.843 29 1.459 10.22-.396 20.433-.862 30.646-1.327 5.516-.245 11.032-.283 16.542-.742 2.245-.183 4.483-.874 6.847-.315-1.488-.251-1.664 1.371-2.679 1.749a22.775 22.775 0 01-7.143 1.258c-7.496.226-14.954 1.17-22.463.937a11.365 11.365 0 00-3.026.522 1.087 1.087 0 01-1.141 1.428l-.574-.044c.246.251.7.144 1.022.1a85.502 85.502 0 0110.616-.333c1.362 0 2.73-.032 4.085-.157 3.783-.359 7.534-.963 11.304-1.151.209-.032.422-.032.631 0 2.422-.11 4.85.05 7.237.478H301.869c.498-.566 1.066-.529 2.081 0h-2.131c-.712.553-1.62.484-2.427.735-1.463.29-2.925.629-4.413.862a1.313 1.313 0 00-.75.296c.251.403.39.865.403 1.339h.151c1.299-.195.952.988 1.293 1.441-.479.893-3.064-1.114-2.15 1.717a1.985 1.985 0 01-.504.226c-.467.132-1.034.239-.889.874.119.522.699.629 1.16.629 2.042.044 4.091.044 6.134.057a2.528 2.528 0 012.66-.076c-.964-.144-1.746.554-2.692.466-2.799.421-5.598.849-8.397 1.258-.441.063-.864.188-.902.629a.843.843 0 00.896.918c1.084.063 2.181 0 3.265.088 3.316.226 6.664-.27 9.961.415.322.063.763 0 .794.453.032.453-.441.673-.825.679-1.892 0-3.783.667-5.674.371-.719-.113-1.759-.427-1.892.547-.151 1.158 1.085.629 1.658.912.574.283 1.721-.138 1.835.585.32-.093.65-.146.983-.157.365-.015.73.002 1.091.05.241-.236.554-.386.889-.427a2.767 2.767 0 013.02 1.924c2.288.629 9.456 8.46 8.826 10.787v8.497a.697.697 0 00-.158-.076c.032.503.057 1.013.076 1.516l.176-.063v2.591c.133 10.78-.063 21.56.164 32.347.416 19.453.479 39.026-.554 58.573v.025zm-13.87-128.48c-.586.377-1.166.17-1.727.201h-.045c-.762.761-1.582.239-2.389 0H299.423c.479-.622 1.047-.591 1.715-.226l.019.025zm41.609 10.969c-4.628 0-8.978-1.522-13.384-2.623a48.8 48.8 0 01-14.942-6.289c-3.997-2.604-7.565-5.661-7.01-11.321 2.175 2.515 4.507 4.937 7.565 6.421 3.436 1.673 6.645 3.723 9.885 5.717 1.352.92 2.842 1.62 4.413 2.076 4.111 1.019 6.179.346 7.332-2.661a38.25 38.25 0 002.156-8.025 54.37 54.37 0 012.863-11.176c1.664 2.931 1.683 5.811.63 8.862a77.353 77.353 0 00-2.144 8.075c-1.26 5.617.631 8.856 5.964 10.497h3.02a11.33 11.33 0 01-6.367.422l.019.025zm2.862-3.063c-2.774-.529-4.029-2.17-4.022-5.032 0-3.855 1.859-7.214 2.748-11.384l4.565 12.806a.76.76 0 01.416.943c.208 1.082 1.122 1.943 1.04 3.258-1.671-.22-3.24-.321-4.766-.616l.019.025z" fill="#000"/><path d="M323.367 153.227c-2.187-.27-4.47-.629-6.764-.824-2.295-.195-4.634-.195-6.897-.629-1.324-.232-2.724-.05-3.991-.666-.448-.22-.996-.39-.883-.937.145-.68.719-.328 1.16-.271 1.942.258 3.878.554 5.826.73 3.921.352 7.855.572 11.77 1.006.731.082 2.263-.201 2.162.925-.101 1.125-1.481.415-2.383.666zM326.891 159.429c-4.741 1.723-9.456 3.471-14.222 5.188-.41.145-1.022.441-1.261-.157-.24-.597.372-.805.826-.981 3.202-1.229 6.407-2.451 9.614-3.667 1.633-.629 3.278-1.22 4.905-1.817.428.132.996-.076 1.103.408.214.68-.416.805-.965 1.026zM329.28 162.743c-3.347 1.258-6.701 2.516-10.055 3.774-.555.037-1.065.044-1.192-.573-.088-.44.29-.685.7-.849 3.26-1.32 6.513-2.66 9.772-3.968.567-.233 1.261-.459 1.557.346.246.673-.265 1.1-.782 1.27zM306.264 157.718c.851-.189 1.777 0 2.647-.113a23.118 23.118 0 014.275-.34c.441 0 .87.126.908.629.037.503-.429.629-.851.629l-4.294.384c-1.204 0-1.822.05-2.433 0-.826-.088-2.163 0-2.074-1.013.101-1.22 1.172-.031 1.822-.176zM306.755 140.208a.433.433 0 01-.094-.685c.239-.296.466-.422.845-.227 2.219 1.139 4.444 2.258 6.663 3.378-.088.226-.176.452-.258.679-2.642-.415-4.873-1.843-7.156-3.145zM324.867 156.818c-1.469.189-2.944.327-4.551.504a3.23 3.23 0 01-.681 0c-.486-.082-1.299.301-1.381-.409-.107-.9.775-.692 1.324-.755 1.74-.201 3.48-.377 5.22-.572.511-.057 1.223-.39 1.261.427.063.642-.675.736-1.192.805zM320.808 148.95c-1.501-.371-2.995-.761-4.495-1.125a1.302 1.302 0 01-.883-.761c0-.327.133-.629.429-.56 1.834.402 3.656.836 5.472 1.314.139.032.277.459.24.673a.568.568 0 01-.763.459zM307.739 144.774c1.22.561 2.536.883 3.877.95.567.044 1.261.157 1.192.805-.064.786-.839.371-1.495.509-1.26-.314-2.767-.346-4.079-1.107-.334-.188-.901-.509-.523-1.1.284-.453.637-.252 1.028-.057zM308.489 169.328c1.393-.629 2.805-1.258 4.11-1.849.454.138.877 0 .977.459a.698.698 0 01-.51.78 176.66 176.66 0 01-4.092 1.66c-.315.12-.712.151-.882-.22a.628.628 0 01.397-.83zM308.772 165.045a.628.628 0 01-.435.937c-1.324.459-2.635.937-3.946 1.428-.372.138-.668.113-.807-.283-.139-.396.057-.629.422-.774l4.111-1.553a.44.44 0 01.655.245zM303.843 171.573c-.303.787-1.129.799-1.81.938-.359.075-.63-.164-.58-.787.316-.629 1.167-.528 1.797-.786.265-.1.712.321.593.635zM333.271 179.448a5689.842 5689.842 0 01-22.771 12.025c-.46.239-1.04.767-1.431.17-.391-.598.334-.918.725-1.258.218-.158.453-.293.7-.402l22.197-11.774c.416-.22.851-.415 1.293-.629.504.214.882.516.441 1.044a3.897 3.897 0 01-1.154.824zM336.978 188.272c-.448 1.119-1.362 2.019-1.576 3.264.005.089.02.178.044.264-.958.195-1.198 1.044-1.57 1.768-1.361 1.786-2.654 3.635-4.375 5.107-.359.314-.826.949-1.349.295-.385-.478.095-.893.422-1.22a48.742 48.742 0 007.238-10.063c.265-.465.504-.925 1.021-.698.517.226.334.868.145 1.283zM323.739 195.461c-.447.069-.699-.063-.794-.334-.177-.541.195-.899.511-1.258 2.439-2.704 5.39-4.805 8.239-7.025.442-.346 1.022-1 1.539-.295.517.704-.309 1.069-.738 1.415a91.02 91.02 0 00-8.07 6.918 6.337 6.337 0 01-.687.579zM331.254 192.536c-1.456 1.654-2.635 3.604-4.981 5.214.202-.862.183-1.17.328-1.352 2.757-3.459 5.525-6.914 8.303-10.365.29-.359.694-.572 1.028-.189.334.384 0 .755-.252 1.069-1.463 1.887-2.85 3.837-4.426 5.623zM320.587 182.14l-8.624 5.358c-.498.308-.896.283-1.097-.339.065-.417.334-.774.718-.95 2.743-1.742 5.498-3.459 8.247-5.189.447-.283.901-.459 1.197.113.227.428-.056.768-.441 1.007zM332.798 174.926c-2.408 1.371-4.835 2.711-7.256 4.056-.498.277-1.103.988-1.563.271-.385-.629.29-1.113.819-1.422 2.522-1.465 5.044-2.905 7.565-4.345.092-.049.189-.085.29-.107.467-.063.788.05.877.446.119.585-.334.874-.732 1.101z" fill="#000"/><path d="M335.484 192.039a.427.427 0 00-.057-.503c.712 0 1.583 0 1.084 1.038-1.26 2.623-2.616 5.182-4.69 7.264-.296.289-.63.591-1.047.252-.416-.34-.056-.717.177-1.032 1.198-1.629 2.522-3.144 3.285-5.088l.756-1.327c.17-.201.334-.396.492-.604z" fill="#000"/><path d="M335.484 192.039c-.158.208-.322.403-.492.629l.479-.843a1.234 1.234 0 01-.044-.264.427.427 0 01.057.478zM322.415 188.712a452.797 452.797 0 017.88-4.201.958.958 0 01.908.201c.227.434-.157.767-.517.962-2.566 1.378-5.138 2.736-7.716 4.101-.378.201-.763.34-.99-.189a.767.767 0 01.435-.874zM320.215 195.675c.252.04.485.161.662.345.104.09.161.222.154.359a.445.445 0 01-.192.34c-1.141 1.056-2.27 2.125-3.455 3.144-.447.378-.718.044-.781-.459-.064-.503 3.007-3.729 3.612-3.729zM332.256 200.587c.391 0 .757.339.668.591-.441 1.258-.939 2.516-2.105 3.327-.278.189-.498 0-.631-.252-.201-.377 1.639-3.629 2.068-3.666zM317.303 195.008a3.147 3.147 0 012.036-1.887c.517 0 .958.252.832.528a3.678 3.678 0 01-2.232 1.887.476.476 0 01-.636-.528zM324.117 198.454a.475.475 0 01.706.447c-.031 1.101-.895 1.579-1.689 2.025-.379.214-.782 0-.864-.629.33-.845 1-1.513 1.847-1.843zM334.33 182.825c-.403.057-.58-.251-.567-.836.246-.491.441-1.258 1.229-1.51.448-.138.895.302.782.629-.227.742-.498 1.591-1.444 1.717zM313.866 191.895c.379-.076.738.125.675.534a2.904 2.904 0 01-1.532 1.937c-.498-.037-.763-.314-.63-.673.334-.729.535-1.61 1.487-1.798zM325.719 202.36c-.051 1.05-.757 1.692-1.532 2.227a.412.412 0 01-.631-.453c.19-.981.996-1.541 1.57-2.176.435-.107.605.144.593.402zM337.205 184.435a.46.46 0 01-.631-.534c.043-.533.434-.974.959-1.082.428 0 .781.101.731.535a1.346 1.346 0 01-1.059 1.081zM334.236 193.97l-.334-.402c.234-.136.446-.306.63-.504a9.303 9.303 0 00-.296.906z" fill="#000"/><path d="M335.471 191.8a3.198 3.198 0 00-.907 1.258 2.762 2.762 0 01-.631.503c.341-.717.58-1.566 1.538-1.761zM334.992 192.643l-.756 1.327c.093-.307.203-.61.328-.906.152-.13.295-.271.428-.421z" fill="#000"/><path d="M334.992 192.643c-.133.15-.276.291-.429.421a3.2 3.2 0 01.908-1.257l-.479.836zM319.049 131.07a.516.516 0 01-.719.132c-1.425-1.082-2.421-2.516-3.505-3.994.132-.277.195-.629.378-.711a.767.767 0 01.725.113 137.726 137.726 0 013.152 3.717.541.541 0 01-.031.743zM319.282 127.654c-.984-.44-1.356-1.465-1.715-2.452-.139-.365.334-.667.63-.548 1.072.434 1.318 1.573 1.822 2.466.164.314-.233.553-.737.534zM320.7 132.151a.629.629 0 01.543-.735c.718.327.895 1.119 1.298 1.71.227.327-.195.673-.523.629-.851-.151-1.147-.868-1.318-1.604zM344.48 210.323c.524-.629-.145-2.29.782-2.277 1.469 0 .631 1.591.813 2.484.108.598 0 1.396-.775 1.365-.775-.031-.832-.767-.82-1.572z" fill="#000"/><path d="M289.343 327.715a2.047 2.047 0 01.983 3.213.5.5 0 01-.706.145.421.421 0 01-.101-.679 1.5 1.5 0 00.246-.73 1.144 1.144 0 00-.63-.937c-.316-.188-.454.164-.631.296-.176.132-.321.308-.573.239-.145-.038-.158-.157-.158-.283a1.53 1.53 0 011.57-1.264zM258.23 384.011c.256.307.374.705.328 1.101.095.49-.048.996-.384 1.365-.158.132-.347.327-.561.138-.215-.189 0-.339.075-.503a1.35 1.35 0 00-.044-1.491c-.126-.207-.397-.44-.63-.195-.234.246-.435.579-.158.812.277.232.322.327.038.503-.284.176-.542.044-.712-.233a1.557 1.557 0 01.378-1.83 1.306 1.306 0 011.67.333zM267.807 360.388a3.554 3.554 0 00-1.059-2.647 2.91 2.91 0 00-2.623-.887 1.663 1.663 0 00-1.084.874.631.631 0 00-.498.182 2.715 2.715 0 00-.719 2.636c.046.172.111.339.196.496l.031.183c.132.423.378.802.713 1.094l.561.39c.311.161.648.265.996.308.233.069.475.103.718.101l.744-.088a2.956 2.956 0 001.261-.629l.435-.503c.248-.373.379-.811.378-1.258v-.069a1.457 1.457 0 00-.05-.183z" fill="#fff"/><path d="M266.023 358.753a.322.322 0 00-.435-.075.313.313 0 00-.07.434l.082.125v.057c.038.083.07.17.095.258v.509a2.145 2.145 0 01-.038.277v.151a.331.331 0 000 .063c-.032.082-.076.157-.113.239l-.045.056-.094.12a.313.313 0 00.038.44.328.328 0 00.441-.044 2.104 2.104 0 00.139-2.61z" fill="#000"/></svg>