<svg width="550" height="672" fill="none" xmlns="http://www.w3.org/2000/svg"><g clip-path="url(#clip0)"><path d="M112.378 36.586c-.516.329-.987.534-1.378.534-1.449 0-3 1-5 3s-6 5.821-6 11c0 6.627 8.373 15 15 15 6.627 0 13-7.373 13-14 0-5.42-5.394-11.438-7.83-15.736.96-8.212-.534-32.371.83-32.384 16.373-.154 42.803-.374 68.495-.615 1.089-.01 2.099 25.325 2.409 32.702C184.647 36.882 179 43.03 179 50.5c0 8.008 6.492 14.5 14.5 14.5S207 59.008 207 51c0-2.374.505-5.274 0-7-1.197-4.097-4.552-5.64-8.426-7.087-.466-.174-1.942-.445-3.186-.646 1.791-9.348 2.706-32.963 4.426-32.979l166.808-1.566C368.115 3.545 369.575 5.972 371 9c2.434 5.171 3 11.032 3 16 0 2.952-.794 6.98-2.383 12.084-7.312.447-13.105 6.519-13.105 13.944 0 7.715 6.255 13.97 13.971 13.97 2.851 0 5.55.432 7.761-1.035 3.771-2.502 7.244-7.554 7.244-12.418 0-6.431-5.065-12.207-11.22-13.952L380 18l4.838-16.45 47.134-.442c-.876 3.426-1.471 7.493-1.786 12.2-.28 4.189-.213 11.07 0 21.158a26.82 26.82 0 01-.109 2.69c-1.364.414-3.707 1.813-6.711 6.026-1.991 2.802-2.836 6.29-2.368 9.778a14.35 14.35 0 003.017 6.778c2.311 3.014 5.643 5.083 9.324 5.79 3.348.581 6.746-.091 9.54-1.889.698-.459 1.374-.973 2.061-1.46a11.37 11.37 0 001.634-1.424 11.037 11.037 0 002.251-3.637C451.141 51.112 450.092 44.944 445 41c-.75-.575-2.172-1.549-3-2-.51-.293-1.352-.195-1 0 2.937 1.53 5.437 4.708 6.816 7.72 1.15 2.673 1.359 5.626.593 8.363a10.77 10.77 0 01-1.799 3.63c-.258.303-.527.594-.809.874 1.288-2.012 2.135-4.326 2.135-6.594 0-6.89-6.509-12.936-13.398-12.936-6.889 0-12.474 5.585-12.474 12.474 0 1.385.226 2.718.643 3.963a12.429 12.429 0 01-.632-1.608c-.765-2.932-.455-6.002.871-8.644 1.877-3.91 1.409-2.597 5.054-6.242 1-1 3-2 3-2s.027-.07.061-.172c.313-.17.626-.446.939-.828.504-1.619.512-3.29.512-7.067 0-3.779-.659-9.696 0-15.113.436-3.596 1.591-8.18 3.464-13.75l5.993-.056L550 0l-1 672c-220.097-1.514-365.097-4.514-435-9C86.842 661.257-.973 574.371 1 550 8.01 463.396 7.677 281.784 0 5.164 49.116 4.603 85.116 4.214 108 4c1.948-.018 2.804 26.114 4.378 32.586zM4 550c11.3 23.09 25.633 43.09 43 60 17.367 16.91 38.367 33.91 63 51l-5-92c-31 0-74-13-101-19z" fill="#fff"/><path d="M293.73 269.143a3.93 3.93 0 00-1.16-2.904 3.15 3.15 0 00-2.856-.98c-.513.138-.943.49-1.181.966a.687.687 0 00-.543.193 3.022 3.022 0 00-.782 2.897c.054.189.127.371.219.545v.193c.148.464.416.881.776 1.207l.618.428c.337.174.702.288 1.078.338.257.075.523.112.79.11l.803-.103a3.061 3.061 0 001.339-.69l.474-.552c.269-.409.413-.889.412-1.379v-.076c.008-.064.013-.129.013-.193z" fill="#000"/><path d="M291.787 267.349a.348.348 0 00-.473-.082.345.345 0 00-.083.475c.034.042.062.09.096.138v.062c.044.092.081.186.11.283v.483a2.412 2.412 0 01-.041.304.314.314 0 010 .075v.09a.215.215 0 010 .062 1.494 1.494 0 01-.124.262.238.238 0 01-.048.069.874.874 0 01-.103.131.342.342 0 00.048.476.343.343 0 00.474-.041c.66-.794.718-1.929.144-2.787zM300.177 192.644c3.125-.69 6.18 0 9.332.276-.687.966-2.458.31-2.369 1.98H307.36c.234-.28.518-.514.837-.69.591-.352 1.669-.469 1.449-1.38-.172-.689-1.174-.358-1.799-.489h-.549c-1.978-.29-3.983-.249-5.974-.373h-1.497c-.11.359-.295.821.35.676zM327.601 201.549c0 1-1.133.462-1.442 1.055l.879.076c.472-.124.816-.533.858-1.021a.985.985 0 00-.789-1.138 1.984 1.984 0 00-.687.221c.337.365 1.195-.056 1.181.807zM325.795 197.493h.09a.963.963 0 00.041-.255 2.425 2.425 0 00-2.06-1.29l-.508.09c.276.006.544.09.776.241l1.661 1.214zM313.161 203.1c-.061 0-.103.2-.151.311l2.143-.097c.993-.07 1.991-.047 2.98.069a3.176 3.176 0 000-.338 13.558 13.558 0 00-4.972.055zM298.118 302.794a.437.437 0 00-.227-.607c-.302-.131-.577.056-.831.228-.494.338-.851.904-1.373 1.242-.137.213-.268.441-.405.689 1.284.049 1.332-1.745 2.65-1.828-1.126 1.608-1.194 2.159-.686 5.187.59-1.6-.234-3.448.872-4.911zM303.851 194.72a1.655 1.655 0 01-.412-.393s-.192.145-.44.31c.282.045.567.073.852.083z" fill="#000"/><path d="M303.439 194.327c.114.154.253.287.412.393a11.464 11.464 0 012.918.166c-.549-.58-1.256-.262-1.902-.345-.343-.048-.769 0-1.016-.152-.687-.517-.824-.538-1.215.2.123 0 .247 0 .363.048.248-.165.426-.324.44-.31z" fill="#000"/><path d="M303.851 194.72a6.96 6.96 0 01-.852-.083h-.034c.384.097.774.166 1.167.207a1.215 1.215 0 01-.281-.124z" fill="#000"/><path d="M302.999 194.637c-.116 0-.24 0-.363-.048.109 0 .219.048.329.076l.034-.028zM303.851 194.72c.087.063.181.114.281.152.877.086 1.76.086 2.637 0a11.46 11.46 0 00-2.918-.152zM186.727 196.169c.605.051 1.213.062 1.82.034-.666-.014-1.318.014-1.82-.034z" fill="#000"/><path d="M188.547 196.203c-.607.028-1.215.017-1.82-.034.502.048 1.154 0 1.82 0v-.049c0-.048.089-.089.137-.089a6.024 6.024 0 00-2.781.276h2.788c-.103-.021-.137-.062-.144-.104z" fill="#000"/><path d="M188.547 196.189a.94.94 0 01.13 0h-.13z" fill="#000"/><path d="M188.547 196.189h.13a1.06 1.06 0 010-.138c-.048 0-.089 0-.137.09-.048.09.007.035.007.048zM188.547 196.203c0 .042.041.083.137.124a.369.369 0 010-.124.784.784 0 00-.137 0zM306.295 193.934c-.123-.766-.577-.917-1.236-.945.244.491.701.84 1.236.945zM284.035 309.009c.426.138.817.365 1.181-.117a1.073 1.073 0 00-1.181.117zM276.517 434.264a2.307 2.307 0 00-.687.083.193.193 0 000 .034c.224-.064.454-.103.687-.117z" fill="#000"/><path d="M276.517 434.264a3.196 3.196 0 00-.687.117.386.386 0 01-.185.338c.507.002.989-.226 1.311-.62h-1.298c.08.063.138.15.165.248.226-.063.46-.091.694-.083z" fill="#000"/><path d="M275.837 434.381a.193.193 0 010-.034h-.172v.097c.055 0 .11-.042.172-.063z" fill="#000"/><path d="M275.837 434.381c-.062 0-.117.063-.179.09-.062.028 0 .166 0 .248a.386.386 0 00.179-.338zM275.83 434.347a.478.478 0 00-.165-.248v.276l.165-.028zM296.992 454.577a.128.128 0 00-.055 0h-.048l-.048.055.116-.048.035-.007zM297.191 454.46a1.184 1.184 0 01-.11.075l.151-.075h-.041zM261.631 457.874c-.742-.152-1.538-.262-1.374-1.38l-1.236-.496c.426-.394.907-.262 1.374-.18.467.083.81-.365 1.167-.724s1.545 0 1.373-1.028c-.151-.876-1.071-.813-1.771-.951-5.047-.952-10.224-1.118-15.209-2.47-1.05-.282-2.06.587-2.403 1.263-.343.675.893.889 1.428 1.324l1.222.469-.048.214h-1.181c-.144 1.503-1.037 1.434-2.149 1.096a61.918 61.918 0 00-4.051-1.034c-.831-.18-1.696-.159-1.627 1.048.151 2.525.453 2.821 3.145 3.407l3.199.69 4.12-.076c.432-1.993 1.607-.965 2.602-.641.522.303 1.257.034 1.669.627 1.318.042 2.629 0 3.804.842.569.421 1.256-.131 1.895-.214.741-.09 1.455-.248 1.991.462a5.554 5.554 0 001.95 0c.686-.262 1.778-.558 1.799-1.379.048-.966-1.03-.731-1.689-.869zm-7.464-.731a2.223 2.223 0 010-.2h1.724c.003.066.003.133 0 .2h-1.724zm2.953.248a2.29 2.29 0 011.792-.055c-.515.434-1.03.207-1.792.041v.014z" fill="#000"/><path d="M329.057 459.142l-.769-1.552a11.255 11.255 0 00-6.454-3.359c-3.317-.689-6.674-1.248-9.613-3.103l-4.381-2.359c-.281 0-.563.048-.728-.249l-1.922-.827c-4.594-1.221-9.256-2.159-13.733-3.718a2.689 2.689 0 01-1.826-.379c-.302.041-.618.103-.762-.283-.845-.414-.728-1.173-.687-1.911l-1.503-3.269a6.451 6.451 0 01-1.566-2.138 1.86 1.86 0 01-.687-1.531 3.857 3.857 0 01-.274-2.221v-2.214c.123-2.635-.22-5.284.288-7.905a11.58 11.58 0 01.062-3.117v-27.914a13.96 13.96 0 01-.062-3.448 73.611 73.611 0 010-13.195v-12.567c-.501-2.641-.233-5.318-.233-7.973 0-2.476-.254-4.966.226-7.435l.083-1.69a27.2 27.2 0 01.165-3.518c.029-.203.073-.403.13-.6 0-.221.041-.441.055-.69a9.68 9.68 0 01.302-3.041c0-.207 0-.421.055-.628a6.93 6.93 0 01.309-2.676c0-.214.048-.421.069-.635a7.794 7.794 0 01.288-2.759l.055-.579a5.301 5.301 0 01.309-2.338c.055-.69-.172-1.456.295-2.111.151-.503.048-1.083.446-1.517.303-2.373.927-4.594 2.919-6.166l1.469-1.539.275-.331 1.538-1.917a7.586 7.586 0 011.778-2.483c.133-.444.414-.829.796-1.09a3.45 3.45 0 011.085-1.566l.412-.986c-.508-3.028-.439-3.58.687-5.187-1.318.083-1.373 1.876-2.65 1.828-3.839.89-7.615 2.124-11.577 2.414-1.277.097-2.547.193-3.824.242-.646 0-1.305.055-1.429.813-.144.897.605 1.152 1.25 1.27a12.28 12.28 0 002.362.117c.508 0 .803 0 .639.69-.09.372.185.689-.515.834-1.623.247-3.262.36-4.903.338-.556 0-1.373-.241-1.373.69 0 .641.687.69 1.257.786.686.069 1.242-.062 1.695.986.268.614 1.051.738 1.875.828 0-.062-.048-.103 0 0 .462.036.922.107 1.373.214a12.13 12.13 0 01-4.573-.076c-.487-.124-1.064-.172-1.16.49-.069.49.405.69.831.807.995.2 1.991.365 3.117.565-1.105.759-2.348.794-3.467 1.18-.509.172-1.188.158-1.127.924.076.91.852.766 1.374.69a40.208 40.208 0 006.626-1.221c.398-.104.762-.4 1.304-.179a66.47 66.47 0 00-3.708 15.567c-.576 4.697-.178 9.415-.192 14.112-.068 20.623.048 41.239 0 61.862 0 7.035 0 14.07-.343 21.099-.048.945-.254 1.303-1.222 1.227a30.03 30.03 0 01-3.433-.124c-1.291-.255-2.129.318-2.301 1.38-.171 1.062 1.01 1.124 1.799 1.379h1.298a1.684 1.684 0 01-1.311.621c-.982.917-.44 1.214.528 1.124a18.652 18.652 0 003.935-.607c1.091-.331 1.194.145 1.242.973-3.323.648-6.674.393-10.017.434-.605 0-1.532-.344-1.614.69-.075.855.776.731 1.373.855 3.076.69 6.18.228 9.469.359-1.167.938-2.506.973-3.694 1.379-.433.152-.893.27-.831.773.076.641.632.428 1.016.372 1.861-.269 3.783-.344 5.548-.91 1.373-.434 1.765.138 2.177 1.104.188.316.296.673.316 1.041-.337 2.649 1.531 3.387 3.433 4.138a70.796 70.796 0 0010.319 2.911 44.763 44.763 0 0111.096 4.083c3.028 1.601 6.297 2.201 9.613 2.594 1.873.236 3.684.831 5.335 1.752a3.07 3.07 0 011.607 1.883c.686 2.276.59 2.49-1.634 3.352-5.301 2.069-10.89 2.869-16.479 3.6-12.511 1.649-25.103 1.897-37.696 2.2-7.814.193-15.531-.972-23.297-1.531-7.388-.531-14.666-1.917-21.972-3.179a20.739 20.739 0 01-7.134-2.621 2.795 2.795 0 01-1.441-1.608 16.524 16.524 0 014.037-1.593 52.74 52.74 0 0012.737-5.462c5.863-3.656 12.427-5.139 19.108-6.305a41.659 41.659 0 004.601-1.048c1.208-.359 1.496-1.552 1.764-2.593.639-2.477.687-2.477 3.028-2.263 2.342.214 4.614.255 6.921.352.467 0 1.085.076 1.085-.635 0-.71-.597-.427-.975-.51-2.389-.51-4.889-.579-7.127-2.117h4.175c.487 0 1.27.365 1.373-.414.13-.945-.81-.911-1.373-1.042a10.557 10.557 0 00-1.82-.11 1.813 1.813 0 01-1.764-.69c.968 0 1.606-.11 2.183.352h.185c.886-.138 2.369.586 2.52-.6.199-1.538-1.565-.366-2.231-1.035.542-.331 1.126-.103 1.675-.172.549-.069 1.264.186 1.373-.531.145-1.007-.762-.869-1.373-.993-.8.132-1.622.024-2.362-.311 0 .041-.048 0-.082-.034l-.577-.242a8.075 8.075 0 013.275.173.582.582 0 01.234.062c1.036 0 2.06.034 3.103 0 .735 0 1.717 0 1.737-.924.021-.925-.975-.835-1.689-.876l-5.273-.394c-.954-.069-1.222-.407-1.174-1.496.398-8.125.762-16.25.632-24.396-.138-8.629.103-17.243.061-25.886-.041-7.828-.295-15.657-.336-23.451 0-4.4.275-8.794 0-13.208-.419-7.36-1.847-14.526-3.564-21.651-.082-.345-.185-.689-.288-1.09 1.668-.289 3.193.518 4.765.338.803-.096 2.06.525 2.197-.903.11-1.228-1.146-1.055-1.874-1.283a45.923 45.923 0 01-6.338-2.235c2.5.124 5.006.269 7.505.359.536 0 1.415.483 1.524-.414.11-.897-.933-.938-1.469-.993a41.2 41.2 0 01-6.598-1.255l-1.47-.38-1.6-.51a2.297 2.297 0 012.06.179c.618 0 1.271-.103 1.799.366l4.896.496c.48.049 1.03.207 1.215-.441.186-.648-.35-.924-.796-1.014-.824-.172-1.154-.345-1.326-1.38-.171-1.034-1.847-1.379-2.746-1.827-3.721-1.773-7.642-3.145-11.515-4.573a2.067 2.067 0 01-1.098-1.104c-5.775-9.491-11.906-18.74-18.484-27.693a85.242 85.242 0 01-5.829-9.076c-4.985-8.926-11.419-16.864-17.166-25.272-7.512-10.988-14.227-22.458-22.459-33.094a2.203 2.203 0 01-.254-.331c-.124-.144-.234-.296-.35-.448h.082a4.219 4.219 0 01-.282-.697 21.642 21.642 0 01-2.334-3.338.976.976 0 01-.385-.4c-.192-.4-.309-.821-.453-1.214a7.017 7.017 0 00-.178-.31.551.551 0 00-.09-.097c-.37-.4-.435-.998-.157-1.469a.771.771 0 01-.076-.152h.158l.103-.138a1.239 1.239 0 011.737 0l.316.304a1.972 1.972 0 011.057.083l1.751.158c6.866.69 58.576 4.346 65.531 4.828 5.129 0 10.258-.075 15.38-.2 10.561-.248 43.257-.331 43.45-.31.083.005.166.019.247.041 0 0 1.936 0 1.936-.034 0-.035.089-.304.151-.31a13.531 13.531 0 014.971-.056c2.678-.145 5.377.242 8.027-.441.309-.593 1.435-.055 1.442-1.055 0-.863-.845-.442-1.167-.807l-5.39-.476a13.024 13.024 0 014.751-2.759l-1.634-1.187c-2.177.649-4.511.987-5.754 3.318a1.794 1.794 0 01-1.758.731c-12.798-.138-25.583.69-38.382.476-16.822-.234-33.644-.648-50.411-1.814-11.192-.752-22.405-1.014-33.542-2.304l-3.083-.358h-5.348a6.033 6.033 0 012.78-.276c1.58-.207 3.138-.614 4.752-.352a251.1 251.1 0 0127.334-1.462c18.402 0 36.803-.048 55.197 0 8.927.041 17.784.462 26.676.324.391-.738.494-.69 1.215-.2.247.179.687.103 1.016.152.646.083 1.373-.235 1.902.345h.371c-.055-1.656 1.682-.966 2.369-1.945-3.166-.29-6.18-.993-9.332-.276-.645.145-.46-.318-.35-.69-1.126-.248-2.307.076-3.433-.345l-9.022-.096c-3.701-.132-7.422.275-11.116-.269l-3.873-.09h-11.672c-6.125.034-12.25.09-18.374.103-5.397.035-40.202-1.496-62.277 4.077-.892.069-.686 1.379-1.627 1.42-.46.394-.082 1.028-.419 1.456l.062 1.841c.687 1.897 1.881 3.504 2.904 5.215a2.892 2.892 0 011.058 1.738c1.227 1.839 2.458 3.678 3.694 5.518a4.284 4.284 0 011.51 2.145c.391.252.629.685.632 1.152.137.248.275.503.419.751a6.107 6.107 0 011.806 2.911l2.581 4.076c.536.132.646.587.79 1.028a4.873 4.873 0 011.373 2.249l.742 1.117c.577.269.973.82 1.043 1.455.385.614.763 1.235 1.147 1.856.817.496 1.126 1.379 1.511 2.159a4.31 4.31 0 011.16 1.862 6.406 6.406 0 011.435 2.221 15.754 15.754 0 012.211 3.297c.384.247.655.636.755 1.083a6.893 6.893 0 011.772 2.634l1.078 1.483c1.332 1.076 2.149 2.545 3.028 3.966a9.62 9.62 0 011.785 2.559 6.677 6.677 0 011.758 2.642l.686 1.062c.687.248.9.883 1.154 1.476a13.655 13.655 0 012.197 3.304 7.436 7.436 0 011.785 2.973l.687 1.165a5.812 5.812 0 011.531 2.456 4.318 4.318 0 011.099 1.855 31.056 31.056 0 012.945 4.759 16.915 16.915 0 012.204 3.311 9.71 9.71 0 011.834 2.545c.473.428.981.828 1.009 1.552l.721 1.083c.686.248.886.862 1.133 1.455a4.002 4.002 0 011.16 1.794c.343.317.687.634.618 1.172a533.875 533.875 0 001.847 3.29c.63.42 1.04 1.1 1.119 1.855l.687 1.145a2.365 2.365 0 011.147 1.801l4.044 5.586a4.219 4.219 0 011.442 2.07 84.992 84.992 0 006.605 8.118 2.55 2.55 0 011.449 1.8 29.457 29.457 0 014.422 10.243c.351.562.492 1.232.398 1.889l1.071 4.394c.304.427.423.959.329 1.476a.167.167 0 01.042.269c.311.595.431 1.272.343 1.938l.089.09-.055.117c.29.622.385 1.316.275 1.993l.082.987c.481 1.379.213 2.759.282 4.138l.082 2.759c.474 1.628.213 3.29.275 4.939 0 .565.069 1.138.096 1.703.501 1.614.192 3.269.261 4.904.17 2.503.2 5.013.089 7.518a4.56 4.56 0 01.165 1.897c.055.641.103 1.276.103 1.911v47.832c-.103 2.511.288 5.049-.275 7.546l-.082 2.007c-.041 1.159.206 2.345-.275 3.449l-.062.559a5.75 5.75 0 01-.308 2.683l.054.138-.089.117a3.531 3.531 0 01-.323 2.021c-.446.324-.343.841-.439 1.283a2.912 2.912 0 01-1.037 1.862c-.24.593-.453 1.2-1.126 1.455-.13.242-.261.483-.384.725l-1.03 3.096-.46.573c-1.161.586-2.41.221-3.612.379a.156.156 0 01-.124.093.16.16 0 01-.144-.058 6.891 6.891 0 01-2.643.345c-1.05.408-2.149.674-3.268.793a5.488 5.488 0 01-2.218.69c-.907.517-1.883.903-2.898 1.144-.961.525-1.833 1.235-2.973 1.38l-.59.448a3.044 3.044 0 01-1.532.793 17.694 17.694 0 01-4.806 2.421l-1.819 1.145a5.493 5.493 0 01-2.198 1.063l-1.009.434a16.208 16.208 0 01-4.854 1.842c-.282.179-.515.469-.907.379a3.833 3.833 0 01-2.005.69c-1.249.69-2.643 1.131-3.783 2.069a7.081 7.081 0 00-2.06 3.118 1.675 1.675 0 000 2.069c.392.434.316 1 .392 1.517l1.071 1.828c.59.503 1.373.786 1.751 1.51.372.289.783.521 1.222.69 2.012.428 4.01.897 6.015 1.345 1.867.421 3.625 1.38 5.602 1.297a1.996 1.996 0 011.477.317 12.41 12.41 0 003.646.814c.805-.09 1.62.027 2.368.338 2.747.441 5.452 1.097 8.24 1.214a5.646 5.646 0 012.396.269l1.264.076c.865 0 1.757-.159 2.588.255.945.032 1.887.12 2.822.262.184.026.364.074.536.145l.144-.055.123.089c1.168.097 2.369-.151 3.495.338h.522a36.467 36.467 0 014.333.214c.187.027.373.064.556.111h.069a1.764 1.764 0 011.263.041 33.728 33.728 0 014.648.207c.206 0 .406.062.611.11h.062l2.362.09c.9 0 1.82-.138 2.685.262l1.703.097h9.866l1.374-.076c.961-.449 1.991-.228 2.993-.283l1.374-.083c.135-.055.275-.096.418-.124a13.977 13.977 0 012.939-.166l1.264-.089c.755-.428 1.593-.262 2.396-.311.803-.048 1.373-.607 2.197-.386a2.738 2.738 0 011.826-.324l.687-.069c.113-.058.233-.099.357-.124a8.283 8.283 0 012.259-.173l.728-.075c.817-.435 1.703-.235 2.561-.283l.989-.09c.858-.414 1.778-.255 2.671-.317l.13-.097.158.055a3.428 3.428 0 011.909-.324l.123-.096.158.048a3.525 3.525 0 011.895-.372 6.482 6.482 0 012.939-.69l2.857-1.159 2.588-1.497 2.582-2.586c1.243-2.256 1.098-4.663.412-7.091zm-43.841-150.25a1.073 1.073 0 00-1.181.117c.426.138.817.365 1.181-.117zm19.843-115.903c.244.491.701.84 1.236.945-.123-.766-.583-.917-1.236-.945zm17.64 273.671a69.92 69.92 0 01-15.957 3.691c-10.938 1.413-21.904 2.4-32.958 1.848-10.1-.51-20.173-1.179-30.211-2.366a201.39 201.39 0 01-24.437-4.18c-2.445-.6-3.063-1.276-3.674-4.276 5.294 4.718 11.728 4.504 17.729 5.739 9.722 2 19.624 2.538 29.463 3.566 6.427.689 12.894.469 19.349.186 12.888-.559 25.693-1.766 38.327-4.477 1.407-.303 2.781-.751 4.38-1.193-.398 1.145-1.318 1.193-2.011 1.462z" fill="#000"/><path d="M266.41 326.866a.814.814 0 00-.474 1.055c1.023 3.29 1.119 6.725 1.483 10.112.824 7.766 1.476 15.539 1.119 23.382-.336 7.587-.398 15.174-.46 22.761a8.996 8.996 0 001.099 5c.638-1.496 0-2.586 0-3.703-.131-7.215.405-14.416.508-21.624.048-3.172.172-6.352.323-9.525a133.48 133.48 0 00-.934-24.547 3.91 3.91 0 00-1.298-2.759 1.265 1.265 0 00-1.366-.152zM269.108 394.474c-1.161-.048-1.064 1.083-1.154 1.918-.625 5.904-.123 11.829-.357 17.74-.068 1.827.048 3.655-.199 5.483-.089.69-.096 1.835.906 1.91 1.126.083.742-1.034.831-1.676.852-6.476.742-13.015 1.051-19.526v-3.842c-.021-.855.02-1.959-1.078-2.007zM265.304 446.272a58.118 58.118 0 00-3.783-.427c-.563-.049-1.16.131-1.249.8-.09.669.569.607 1.009.724a48.082 48.082 0 0011.109 1.8c3.763.09 7.292-.938 10.767-2.262.515-.193 1.153-.442.878-1.131-.274-.69-.961-.428-1.441-.276a21.3 21.3 0 01-2.788.724 46.678 46.678 0 01-14.502.048zM246.381 460.136c-1.222-.221-2.437-.483-3.659-.731a59.293 59.293 0 01-11.165-2.187c-.686-.193-1.579-.896-1.929.359-.309 1.097.528 1.587 1.373 1.773 5.438 1.179 10.876 2.324 16.479 2.234.281-.979-.282-1.282-1.099-1.448z" fill="#000"/><path d="M265.833 443.976c-.46-.069-1.243-.373-1.311.469-.055.689.741.807 1.208.882a22.63 22.63 0 005.425.504c3.144-.166 6.296-.29 9.441-.531.611-.048 1.716 0 1.586-1.069-.11-.904-1.044-.628-1.662-.621-4.896.083-9.764 1.09-14.687.366zM248.949 460.171c-.906.055-1.373.448-.995 1.379 4.161 1.835 8.624 2.138 13.045 2.573.509.048 1.415.338 1.374-.6 0-.69-.811-.752-1.374-.849a74.627 74.627 0 01-8.349-1.531l-1.799-.317c-.618-.283-1.373-.131-1.902-.655zM258.754 459.929c-2.424.911-4.655-.531-6.996-.545a4.405 4.405 0 00-.625-.296.742.742 0 01-.687-.262c-.165-.056-.329-.118-.501-.166-.955-.579-1.586-.034-2.232.476.344.621 1.071.49 1.6.745.529.255 1.305.076 1.833.51.112.018.222.044.33.076.426 0 .865-.096 1.195.304l7.807 1.22c.322.049.782.256.927-.207.192-.586-.392-.689-.742-.806-.872-.263-1.771-.421-3.165-.738l2.108-.152a.787.787 0 00-.852-.159z" fill="#000"/><path d="M249.938 458.66c.172.048.336.11.501.166a1.173 1.173 0 01-.199-.456c-.995-.324-2.17-1.379-2.602.642a.681.681 0 00.068.124c.646-.51 1.278-1.069 2.232-.476zM257.608 459.626c-.639.082-1.326.634-1.896.213-1.174-.862-2.485-.8-3.803-.841-.254 0-.522.069-.776.09.216.082.424.181.625.296 2.341 0 4.572 1.456 6.996.545a.787.787 0 01.845.159c-.536-.711-1.264-.552-1.991-.462zM251.469 460.467a2.657 2.657 0 00-.329-.076s.075.035.109.069c.073.009.147.012.22.007zM259.633 455.998c.271.091.499.28.639.531.034-.249.061-.49.096-.738a1.027 1.027 0 01-.735.207zM259.633 455.998l-.137-.035c.043.019.09.031.137.035z" fill="#000"/><path d="M259.021 455.998l1.278.558a1.15 1.15 0 00-.638-.531.437.437 0 01-.138-.034l.138.034c.262.029.525-.045.734-.207-.495-.11-.975-.241-1.374.18zM244.953 453.239v.689c.186-.255.481-.131.687-.213-.289-.042-.467-.304-.687-.476z" fill="#000"/><path d="M246.175 453.673l-1.222-.434c.22.207.398.469.742.469-.241.082-.536-.042-.687.214h1.154l.013-.249zM344.431 213.213c-.138.593.226.903.892.917a1.37 1.37 0 001.026-.454c.262-.291.388-.68.347-1.07 0-.566-.048-1.256-.775-1.201-1.01.042-1.291.952-1.49 1.808zM344.108 214.757a1.002 1.002 0 00-.282-.829.994.994 0 00-.824-.288.98.98 0 00-1.091.952c-.062.883.645.848 1.243.896.597.049.954-.062.954-.731zM344.753 220.109a1.693 1.693 0 00-1.414 1.462c-.082.462.11.945.687.814a2.354 2.354 0 001.572-1.483c-.062-.614-.364-.862-.845-.793zM345.413 215.902c-.454.097-.687.387-.598.787.011.705.55 1.288 1.25 1.352.419 0 .632-.338.577-.745a1.662 1.662 0 00-1.229-1.394zM343.648 208.155c0 .545.158.952.776 1.021a1.086 1.086 0 00.995-1.117.91.91 0 00-.851-1.007c-.7-.048-.906.49-.92 1.103zM340.297 208.205c-.364.117-.686.324-.597.752a1.169 1.169 0 001.277 1.021.57.57 0 00.638-.69c-.082-.752-.762-.828-1.318-1.083zM337.104 201.445c-.625.042-.755.462-.741.987.013.524.151.889.686.855.536-.035.687-.566.79-1.035.103-.469-.227-.765-.735-.807zM341.856 203.734c.074-.147.166-.283.274-.407.316-.269.742-.462.55-1.007-.089-.241-.275-.441-.536-.379-.48.117-.975.324-.734.973.24.648-.639.365-.687.786a.944.944 0 011.133.034zM341.856 203.734h-1.119c-.611.29-.811.731-.33 1.269.348.368.908.435 1.332.159.604-.393.831-.917.117-1.428z" fill="#000"/><path d="M341.856 203.734a.944.944 0 00-1.119 0h1.119zM346.868 210.716c.391.055.584-.145.563-.503 0-.221-.062-.49-.384-.525-.323-.034-.557.249-.605.538a.439.439 0 00.426.49z" fill="#000"/><path d="M372.225 193.265c-.686-.69-.556-1.469-.226-2.262-.151-.359-.605-.621-.364-1.111l-1.902-3.621-1.847-1.842-2.218-1.434-1.785-.821h-.069c-.741-.359-1.51-.69-2.204-1.104 0-.041-.069-.068-.082-.117-.46-.621-.186-1.731.055-2.393a14.305 14.305 0 012.149-3.732 22.032 22.032 0 013.824-3.931c.089-.2.179-.393.261-.586.323-.787.803-1.552-.213-2.214a1.808 1.808 0 00-2.602.303c-1.064 1.249-2.06 2.58-3.049 3.869l-4.161 5.291a18.661 18.661 0 00-6.31-4.221l-4.751-.821c-.398.048-.735.386-1.202.11-1.84-1.083-3.975-1.379-5.918-2.214l-.941-.083c-2.334.138-4.38 1.269-6.564 1.932-.281.303-.336.945-.996.689l-1.572 2.187a1.56 1.56 0 01-.728 1.379l-1.483 3.732a5.76 5.76 0 01-1.092 2.841 5.663 5.663 0 00-.727 2.663 3.85 3.85 0 01-.337 1.959c0 .207-.041.413-.068.62-.172 1.704.295 3.449-.344 5.132-.48.135-.99.12-1.462-.041-.9 0-3.083-.338-3.296-.359-1.188-.083-24.416-1.255-24.416-1.255-.687 0 13.272 2.069 12.682 2.393a2.79 2.79 0 00-.838.69.394.394 0 00-.082.034c4.957.69 9.942.945 14.927 1.193.391 0 .789-.041 1.174 0 .171 0 .336-.062.508-.082a2.401 2.401 0 012.06 1.289.766.766 0 01-.035.256c1.6.296 2.122 1.779 3.138 2.814-.636.106-1.278.168-1.922.186.532.098.885.61.789 1.145a1.17 1.17 0 01-.858 1.014h.357a21.795 21.795 0 00-5.788 11.67 54.176 54.176 0 00-.57 6.897c-.041 1.118-.247 1.642-1.517 1.532-1.696-.145-3.434-.104-5.109-.097-.79 0-.941-.221-.941-1.069 0-5.69 1.978-10.863 4.12-15.995a5.934 5.934 0 00.57-2.304 16.652 16.652 0 00-2.987-.075h1.319a41.775 41.775 0 00-2.115 4.428v.062c-1.744 2.662-3.131 10.939-3.2 13.587 0 .187-.055 1.518-.789 1.504-.55 0-19.981.435-25.275.283-2.06-.062-4.12-.104-6.18-.145-8.363-.786-20.248-1.331-31.584-1.683.075 3.187 8.184 55.13 8.301 56.303a1.026 1.026 0 01-.783 1.124 1.369 1.369 0 01-1.668-.324c-.364-.4-13.691-32.1-14.598-34.059-.233-.497-2.499-4.883-3.137-6.704-1.648-3.132-3.537-6.125-5.493-9.077a1.154 1.154 0 01-.598-.531c-.439-.78-.879-1.559-1.304-2.345a227.896 227.896 0 01-3.186-4.877c-6.551-.082-10.89-.069-10.986 0-3.703-.303-7.402-.597-11.096-.883-1.325-.103-4.806-.365-4.188.69 2.018 3.449 6.021 8.891 8.143 12.243 8.171 12.891 16.273 25.81 24.581 38.625 6.104 9.346 11.879 18.94 19.356 27.306 1.298 1.456 2.746 2.815 3.982 4.291.783.91 1.854.834 2.815 1.096 11.22 3.083 22.343 2.497 33.418-.862a8.828 8.828 0 005.672-4.525c4.895-9.835 11.315-18.774 16.478-28.479 3.324-6.29 7.416-12.16 10.986-18.34 3.639-6.331 7.231-12.684 11.124-18.864 1.078-1.724 1.737-3.648 4.504-2.759-15.751 23.713-29.037 49.04-44.095 73.291.501-.331.858-.903 1.373-1.241.254-.173.529-.352.831-.221a.437.437 0 01.227.607c-1.113 1.49-.289 3.304-.865 4.876a.919.919 0 01.267 0 7.504 7.504 0 011.538-2.186 3.323 3.323 0 011.085-1.559c-.041-.524.302-.786.687-1.021l.803-1.117.241-.372c.274-.387.556-.773.837-1.152 0-.69.598-.98.962-1.421l.528-.69c.081-.435.327-.821.687-1.076l1.504-2.283c.068-.752.631-1.214 1.029-1.773l1.058-1.896a3.022 3.022 0 01.803-1.463 12.752 12.752 0 011.779-3.648l.782-1.504a2.07 2.07 0 01.653-1.441c.274-.497.542-1 .81-1.497.09-.706.431-1.355.961-1.828.295-.476.591-.959.893-1.434.08-.443.326-.837.686-1.104a5.357 5.357 0 011.147-1.842 11.262 11.262 0 011.778-2.959 5.052 5.052 0 011.147-1.903 2.83 2.83 0 011.016-1.759c.652-1.097 1.305-2.187 1.95-3.283 2.289-4.281 4.578-8.564 6.866-12.85l.838-1.379a6.854 6.854 0 011.408-2.339c0-.269 0-.538.322-.641l.687-1.145a4.346 4.346 0 011.153-1.786 3.858 3.858 0 011.092-1.607 4.838 4.838 0 011.373-2.07l1.58-2.207a8.411 8.411 0 011.73-2.559l1.964-3c.192-.372.384-.752.583-1.124.168-.658.47-1.273.886-1.807a9.137 9.137 0 012.458-3.697 4.64 4.64 0 011.895-1.187 11.735 11.735 0 002.644-4.062 5.213 5.213 0 011.036-1.876c1.58-1.504 3.557-1.463 5.493-1.642l2.232-.69c.687-.689 1.785-.434 2.424-1.179a1.5 1.5 0 011.236-.621c.467-.117.473-.841 1.05-.807l1.106-.827a2.56 2.56 0 011.119-.994l1.764-1.903c.129-.458.401-.862.776-1.152l2.657-5.753a2.974 2.974 0 01.653-1.593 5.468 5.468 0 01.81-2.448v-5.132a4.657 4.657 0 01-.474-2.145zm-18.95-6.125c.78-.355 1.582-.657 2.403-.903.202-.149.438-.244.686-.276a15.405 15.405 0 01-3.886 1.558l.797-.379zm-20.242-9.546a37.803 37.803 0 017.134 5.96c.088-.002.176-.013.261-.035l.686-.586a.574.574 0 01.303-.138l.267-.324c.055-.062.076-.2.048-.056a.495.495 0 01.186-.31 2.776 2.776 0 00-.501-.621c-1.868-1.848-3.763-3.655-5.603-5.518-.323-.324-1.373-.634-.44-1.324.261-.186.529-.51.824-.69a12.192 12.192 0 002.259 3.339l3.543 4.297c.21.229.501.368.81.386l-.185.186a.618.618 0 01.282.635 1.919 1.919 0 01-.481.731c-.282.338-.577.655-.872.972-.117.125-1.552 1.601-1.881 1.877-.474.406-5.72-4.829-7.903-7.105-.392-.462.803-1.924 1.263-1.676zm-3.104 5.697l.124.083.35.207c.302.166.604.324.913.476 1.49.738 3.015 1.421 4.512 2.145.597.29 1.194.573 1.764.911.323.186.886.496.831.944a.6.6 0 01-.591.587.639.639 0 01-.521-.324l-.117-.076c-.234-.152-.488-.283-.735-.414-1.373-.724-2.794-1.38-4.195-2.014a47.805 47.805 0 01-1.978-.966 6.298 6.298 0 01-1.201-.731c-.522-.469.275-1.255.844-.828zm-2.458 4.67c0-.324.262-.586.584-.586 2.939.372 5.582 1.827 8.493 2.317.742.124.426 1.255-.315 1.131-2.802-.469-5.349-1.91-8.178-2.269a.606.606 0 01-.584-.593zm6.51 39.549c-1.896-.317-2.932-1.924-3.859-4.062 2.492 1.089 4.476 2.193 7.134 1.883-.989 1.276-2.019 2.365-3.275 2.179zm4.579-10.16c0 .918 0 1.835-.034 2.759-.062 2.821-1.641 4.097-4.422 3.525a25.096 25.096 0 01-2.582-.8c-1.023-.338-1.998-1.6-3.055.214-.247.42-1.84.131-2.795 0-3.185-.325-3.282-.366-2.787-3.58a37.137 37.137 0 015.06-13.622c.182-.247.384-.478.604-.69 1.14 3.193 1.992 6.394 3.832 9.16 1.373 2.069 3.234 3.228 5.795 2.965 0-.351.034-.689.048-1.055l-2.17-.903 2.06-1.138c.055.441.103.848.151 1.255.481.565.302 1.221.295 1.91zm-6.715-10.594a.094.094 0 000 .041 7.96 7.96 0 002.142.207l-1.373.318a.307.307 0 00-.199.138l-.22.062a.371.371 0 00-.158.11 5.227 5.227 0 01-.226-.835h-.048v-.055c-.234-.593-.467-1.186-.769-1.972 1.27.358 2.664-.766 3.515.979-.796.497-2.156-.296-2.664.993v.014zm5.747 5.518c.052.345.216.662.467.904-1.147.475-2.108 1.096-3.124 1.213a.785.785 0 01-.467-.103c1.071-.655 2.142-1.338 3.124-2.055v.041zm-7.299-8.773c-.446-.366-.075-.938.337-1.187 1.105-.69 1.51.276 2.142 1.028-.886.365-1.716.786-2.479.159zm19.191 11.346c-.302 1.827-.343 3.621-1.105 5.4-1.689 3.932-4.717 5.863-8.926 6.622.343-.987.686-1.821.927-2.69.24-.869 0-2.069 1.572-1.38.33.152.646-.234.687-.689a.833.833 0 00-.611-1.001c-1.312-.179-1.099-1.103-1.188-2.007-.632-6.207-1.943-12.167-5.692-17.34-1.449-1.993-3.09-3.634-5.782-3.628-.254 0-.418-.213-.46-.731h7.176c.638 0 1.62-.241 1.084 1.076-.158.373.172.69.591.752.309.042.728 0 .755-.338.089-1.028.632-.841 1.298-.614 6.296 2.201 10.759 10.043 9.674 16.568zm11.735-12.747c-.316.594-8.871 13.395-9.112 13.692-.446.524-1.236-.152-.927-.69 2.39-4.325 4.985-8.532 7.663-12.677a1.176 1.176 0 00-.687-.4c-.233-.525-.549-.925-1.201-.649-.295.124-.385.269-.371.435h-1.229v-.207c-.096.062-.206.096-.302.152-.096.055 0-.076 0-.111 0-.034.048-.083.062-.131a1.157 1.157 0 00-1.168.304h-.796v-.235l-.213.117v-.082c0-.028.048-.062.062-.097-.385-.138-.769.062-1.154.048l-.171.187-.055.055h-2.142c-.2.017-.398.051-.591.103.57-.496 1.305-.393 2.06-.441.686-.69 1.517-.138 2.266-.269l2.54-.366c1.648-.303 3.241.242 4.861.276.838.028.804.614.605.986zm7.168-11.035c-.165-.09-.316-.193-.487-.269a.348.348 0 00-.467.124.253.253 0 000 .055.244.244 0 00-.035.055.33.33 0 00-.391.235 11.565 11.565 0 01-1.861 3.552c-.995-.849-1.771-2.069-2.746-2.89a.35.35 0 00-.062-.076 7.527 7.527 0 00-.323-.345c-.783-.69-1.655-1.331-2.403-2.069-.185-.186-.357-.386-.536-.579-.329-.283-.686-.552-1.002-.814a.795.795 0 000 .138c-.316 2.945-5.218 9.559-5.493 9.835-3.433 1.38-5.184.586-8.061.469-2.108-.076-3.804-1.772-5.905-2.186-.501-.097-.206-.58-.171-.918.521-5.283 3.433-9.208 7.065-12.656-.446-.938-.81-1.918-1.209-2.876a6.645 6.645 0 01-1.647-2.614 11.51 11.51 0 01-.721-2.401l-.227-.455a.591.591 0 01.134-.824.586.586 0 01.82.134c.056.061.1.131.131.207a18.909 18.909 0 014.593 2.173h.062a1.1 1.1 0 01.721.248.603.603 0 01-.261.987 8.712 8.712 0 00-.817.275l-.556.228h-.069a6.94 6.94 0 01-1.373.559l-.062.062a.76.76 0 01-.13.158c1.153.69 2.41 1.083 3.605 1.663a15.253 15.253 0 013.268 2.276 17.892 17.892 0 00-1.923 5.518c-.178.207-.096.6.234.572a16.217 16.217 0 007.209-2.442l.138.056c.252.116.453.322.563.579l1.023 1.138v-.221a32.82 32.82 0 013.35 3.352c1.025 1 1.989 2.062 2.884 3.18.048-.193.096-.386.138-.579.137-.545.212-1.104.308-1.662a9.115 9.115 0 00.145-2.29c0-.38.48-.428.638-.152 1.552.483 2.568 1.145 3.131 2.221a4.603 4.603 0 00-1.222-.724v-.007z" fill="#000"/><path d="M351.716 201.541c.003.067.003.133 0 .2l.171-.186-.171-.014zM338.224 216.22c0 .352 0 .69-.048 1.055.157-.152.288-.138.384.062 0-.648.185-1.331-.288-1.903a.644.644 0 01-.048.786z" fill="#000"/><path d="M338.176 217.275l.384.062c-.096-.2-.227-.214-.384-.062zM338.272 215.434c0 .262 0 .524-.048.786a.644.644 0 00.048-.786zM355.382 211.342c0-.069 0-.131.041-.2-.089-.138-.164-.276-.24-.413.062.206.144.413.199.613zM355.087 201.735c.096-.056.206-.09.302-.152a1.218 1.218 0 00-.24-.097c0 .049-.055.076-.062.131-.007.056.007.083 0 .118zM352.979 201.687l.213-.117a.692.692 0 00-.158-.062s-.055.055-.062.096c-.007.042.007.056.007.083zM254.161 456.943a1.668 1.668 0 000 .2h1.723a1.668 1.668 0 000-.2h-1.723zM257.12 457.378c.762.152 1.277.379 1.792-.055a2.29 2.29 0 00-1.792.055zM250.24 458.37c.433.525 1.119.4 1.669.628-.44-.593-1.126-.324-1.669-.628zM251.133 459.088a8.77 8.77 0 00-.687-.262.742.742 0 00.687.262z" fill="#000"/><path d="M251.133 459.088c.254 0 .522-.083.776-.09-.55-.228-1.236-.103-1.669-.628.033.165.101.32.199.456.234.075.467.165.694.262z" fill="#000"/><path d="M299.661 272c-2.211 0-2.218 3.449 0 3.449s2.211-3.449 0-3.449zM293.73 269.141a3.935 3.935 0 00-1.161-2.903 3.15 3.15 0 00-2.856-.98c-.513.138-.942.49-1.181.966a.683.683 0 00-.542.193 3.024 3.024 0 00-.783 2.897c.054.189.128.371.22.545v.193c.148.464.415.88.775 1.207l.618.428c.338.174.702.288 1.078.338.257.075.523.112.79.11l.803-.104a3.05 3.05 0 001.339-.689l.474-.552c.27-.409.413-.889.412-1.38v-.075a1.79 1.79 0 00.014-.194zM257.071 254.782a64.76 64.76 0 001.099 11.953 135.176 135.176 0 011.538 17.788c0 .525-.165 1.228.687 1.249.686 0 .686-.656.686-1.097.111-.966.157-1.938.137-2.911a188.587 188.587 0 00-2.883-26.637c-.062-.352-.172-.69-.289-1.166-.158-.062-.377-.241-.556-.207-.597.152-.412.628-.419 1.028zM294.341 282.957a.689.689 0 000 1.379.689.689 0 000-1.379zM282.5 291a.5.5 0 100 1 .5.5 0 000-1zM310.5 261a.5.5 0 100 1 .5.5 0 000-1z" fill="#fff"/><path d="M291.787 267.348a.35.35 0 00-.474-.083.346.346 0 00-.082.476c.034.042.062.09.096.138v.062c.044.092.08.186.11.283v.483a2.613 2.613 0 01-.042.304.314.314 0 010 .075v.09a.215.215 0 010 .062 1.49 1.49 0 01-.123.262.238.238 0 01-.048.069.944.944 0 01-.103.131.338.338 0 00.048.476.343.343 0 00.474-.041 2.334 2.334 0 00.144-2.787z" fill="#000"/></g><defs><clipPath id="clip0"><path fill="#fff" d="M0 0h550v672H0z"/></clipPath></defs></svg>