<svg width="555" height="678" fill="none" xmlns="http://www.w3.org/2000/svg"><path d="M427.296 33.244L424.963 21l-4.668-15.872-63.102 2.774c.766 3.12 1.294 6.46 1.584 10.018.266 3.26.22 8.508.032 16.104 7.338.423 13.154 6.31 13.154 13.51 0 7.474-6.75 14.466-14.482 14.466-.086 0-.171 0-.256-.003-.087.002-.175.003-.262.003-7.179 0-13-5.82-13-13 0-.24.007-.48.02-.718-.013-.249-.02-.498-.02-.749 0-7.007 5.51-12.77 12.57-13.463a39.552 39.552 0 01-.081-2.51c0-3.1.658-7.955 0-12.4-.438-2.954-1.595-6.66-3.471-11.119L306.963 9c-22.791.722-35.312 1.121-37.561 1.198a299825.95 299825.95 0 01-91.573 3.104c-1.544 3.476-2.499 6.375-2.866 8.698-.566 3.585 0 7.5 0 10v3c7.732 0 14 6.268 14 14s-6.268 14-14 14-14-6.268-14-14c0-6.325 1.966-11.298 7.725-13.035.852-.257 2.727-.6 4.3-.8a.635.635 0 01-.025-.165c-.183-6.675-1-8-1-11 0-3.215.308-6.725.923-10.532-20.472.69-39.12 1.316-55.944 1.877-1.613.053-2.611 11.007-1.979 17.655.174 1.822.841 3.037 1.394 3.813.791.499 1.647 1.228 2.606 2.187 2 2 5 6.821 5 12 0 6.627-5.372 12-12 12-6.627 0-12-5.373-12-12 0-3.952 3.713-9.33 7.356-12.468a4.06 4.06 0 01-.356-.532c-1.092-1.949-1.486-7.04-2-10-1.185-6.827-1.593-12.204-2.574-12.171C38.697 17.943 4.889 19 .963 19c4.094 58.538 26 170.769 26 326 0 82-9 313-9 331 2.667 2 34 2 94 0l441.015-12.021c2.701-105.604 2.696-214.597-.015-326.979a7235.273 7235.273 0 00-16-337L438.68 4.32c-1.612 1.863-3.184 4.423-4.717 7.68-2.433 5.171-3 11.032-3 16 0 1.19.129 2.555.388 4.095a13.65 13.65 0 011.612-.095c4.349 0 8.531 1.807 11 5 1.765 2.282 2.5 5.393 2.5 8.5 0 7.456-6.044 13.5-13.5 13.5-2.853 0-5.819-.489-8-2-3.516-2.437-5.5-6.898-5.5-11.5 0-5.432 3.208-10.114 7.833-12.256zm-68.513 1.818l-.002.082c6.236.98 11.766 6.837 12.16 13.141.015-.239.022-.478.022-.718 0-6.518-5.557-11.877-12.18-12.505zM187.941 49.235c.015-.243.022-.488.022-.735 0-6.904-5.82-12.5-13-12.5-1.306 0-4.638.517-5.827.862-5.348 1.55-7.173 5.99-7.173 11.638 0 .25.008.497.023.743.229-3.89 2.19-8.006 4.977-10.243 2.227-1.786 4.924-2 8-2 6.923 0 12.582 5.411 12.978 12.235z" fill="#fff"/><path d="M341.838 338.964a4.166 4.166 0 01-1.596.096c-.127.601-.255 1.209-.375 1.81.328 6.232.862 12.447 1.221 18.671.415 7.313-.159 14.554-.478 21.819-.24 5.455-.447 10.91-1.046 16.333-.08.736-.088 1.77.902 1.778.989.008.798-1.049.878-1.77.223-3.017.441-6.04.654-9.068.551-7.954 1.117-15.907.886-23.877-.248-8.595-.655-17.198-1.046-25.792zM304.158 267.867h.087v-.048l-.087.048zM354.391 367.936c-.048.28-.096.56-.168.841.102-.27.158-.554.168-.841zM353.936 381.232c-.048.265-.088.521-.152.801.088-.258.139-.528.152-.801zM217.761 268.412l.287.048c0-.112-.064-.224-.104-.337-1.452-1.113-2.226-1.217-2.625-.288a1.943 1.943 0 012.442.577zM255.896 268.628c-.279 0-.55-.08-.798-.128.244.133.525.178.798.128zM255.377 268.428c.12.08.266.112.407.088l-.407-.088zM236.409 240.121h-.127c-.064 0-.096.088-.168.128-.359.425-.519.801-.207 1.234h.047l.455-1.362zM354.726 263.974c-1.357 2.163-.798 4.806-1.868 7.049.91.569.862-.737.966-1.185.463-2.075.702-4.214 1.74-6.12 0-.128-.048-.248-.064-.368-.399.04-.559.264-.774.624zM227.871 269.237c.95.665 2.266-.176 3.08.921h.056c-.439-1.474-1.74-1.153-2.777-1.193-1.181-.048-.958.801-.798 1.602.054.339-.001.688-.16.993.061.157.111.317.152.481 1.349-.697.367-1.795.447-2.804zM290.967 249.693h-.343a.468.468 0 01.048.088c.078.461.302.885.638 1.209l.112-.04-.455-1.257zM355.763 264.175v.128a8.213 8.213 0 00-.112 1.866c.077-.355.214-.694.407-1.001 0-.281-.055-.569-.087-.857l-.208-.136z" fill="#000"/><path d="M355.651 266.169a8.16 8.16 0 01.112-1.866v-.128a1.283 1.283 0 00-.136-.096c-.957 2.098-.558 4.125.367 6.111-.04-1.337-.646-2.683-.343-4.021z" fill="#000"/><path d="M356.002 269.237c0-1.354.04-2.707.056-4.069-.193.307-.33.646-.407 1.001.054 1.029.172 2.054.351 3.068z" fill="#000"/><path d="M356.003 269.237a25.076 25.076 0 01-.352-3.068c-.303 1.338.304 2.684.344 4.005 0-.304.008-.617.008-.937zM315.242 243.181c3-7.378 5.985-14.763 9.831-21.755-2.729 4.501-4.98 9.259-7.246 13.993-1.596 3.356-2.88 6.856-4.421 10.245-.367.801-.933 1.602-.319 2.563v.072l.998-.801c.292.368.292.89 0 1.257.742.137-.192 1.602 1.069 1.33 0-.08-.048-.152-.064-.232 0-.881.798-1.794-.311-2.643-.527-.401 0-1.106.239-1.65-.558-.858-.079-1.643.224-2.379z" fill="#000"/><path d="M326.182 220.072c-1.261-.721-1.596 1.322-2.394 2.115-.132.18-.242.377-.327.584-4.197 7.682-7.565 15.748-11.052 23.758-.303.697-.798 1.602.263 2.146l.455-.376v-.072c-.614-.945-.048-1.77.319-2.563 1.54-3.388 2.809-6.889 4.421-10.245 2.266-4.734 4.517-9.492 7.246-13.993-3.846 6.992-6.831 14.418-9.831 21.755-.304.737-.798 1.522-.168 2.355a173.627 173.627 0 019.967-22.901c.479-.865 2.075-2.002 1.101-2.563zM315.25 249.925l-.104-.096c0 .08 0 .152.064.232l.04-.136zM307.015 264.399c.518 0 .798-.593 1.284-.649a5.191 5.191 0 01.974-1.602c-1.285.273-1.381.433-2.258 2.251z" fill="#000"/><path d="M308.323 263.766a.607.607 0 01.391.08c.24-.632.95-1.009.958-1.77l-.375.08a5.202 5.202 0 00-.974 1.61z" fill="#000"/><path d="M308.323 263.766c-.455.056-.798.641-1.285.649.878-1.818.974-1.978 2.259-2.259.056-.056.087-.128.143-.184-.614-.352-1.237-1.306-1.803 0-.495 1.153-2.059 2.603-1.237 3.42.958.953 1.141-.753 1.819-1.353a.71.71 0 010-.113.394.394 0 01.104-.16z" fill="#000"/><path d="M309.273 262.164l.375-.08a.94.94 0 01-.231-.104c-.056.032-.088.104-.144.184zM308.323 263.766c0 .064-.064.12-.088.184a.524.524 0 000 .112.744.744 0 01.272-.168c.073-.02.148-.036.223-.048a.604.604 0 00-.407-.08zM223.29 248.115c0-.521 0-1.146-.734-1.178-.734-.032-.798.673-.798 1.138.078 3.467.393 6.925.942 10.349.056.36.144.801.654.729a.802.802 0 00.583-.858c-.064-1.209-.176-2.403-.287-3.892.279-1.939-.264-4.101-.36-6.288zM224.32 264.327c-.519-.873.598-2.523-1.101-2.716-.798-.088-.407.914-.535 1.41.104.721-.088 1.602.575 2.003.299.037.6.053.901.048a.54.54 0 00.16-.745zM223.258 265.024c.138.082.289.139.447.168a.544.544 0 00.455-.12 6.476 6.476 0 01-.902-.048zM284.264 257.839a4.635 4.635 0 00-4.069.697 7.302 7.302 0 01-4.932 1.145c-2.442-.44-4.564.617-6.711 1.482-.511.208-1.189.617-.798 1.37.319.624.886.312 1.396.152 1.277-.409 2.562-1.073 3.855-1.113 3.886-.097 7.461-1.554 11.171-2.299.391-.072.798-.209.798-.657 0-.449-.319-.649-.71-.777zM291.613 258.071a.7.7 0 00-.566.144c-.439.577-.168 1.146.152 1.65.454.705.399 1.771 1.452 2.147a2.07 2.07 0 00.511-.32c.47-.617-.751-3.477-1.549-3.621zM307.35 246.264c.079.753-.391 1.763.853 2.019.04-1.362.16-2.723.104-4.085-.282-7.647-.593-15.291-.933-22.933 0-.624.423-1.842-.798-1.722-1.062.112-.551 1.242-.527 1.915.271 6.359.582 12.719.878 19.071 1.029 1.859.223 3.829.423 5.735z" fill="#000"/><path d="M303.304 237.678c.686 3.148 1.492 6.264 2.322 9.371.415 1.546 1.532 2.019 2.578 1.234-2.019.216-1.437-1.314-1.301-2.211a17.47 17.47 0 00.056-5.543v4.662a28.557 28.557 0 01-1.891-5.719c-1.054-4.285-1.796-8.659-3.192-12.816-.168-.513-.399-1.177-1.006-.969-.606.208-.343.857-.175 1.362a108.877 108.877 0 012.609 10.629z" fill="#000"/><path d="M306.903 246.072c-.136.897-.718 2.403 1.301 2.211-1.245-.256-.798-1.266-.854-2.019-.2-1.906.606-3.876-.391-5.735a17.47 17.47 0 01-.056 5.543zM321.178 218.262l-.997-.305-4.884 14.042.687.256c2.713-4.301 3.511-9.3 5.194-13.993zM328.089 223.252c.223-.353-.072-.569-.311-.705a.525.525 0 00-.511.072 15.619 15.619 0 00-2.721 5.719c2.131-1.554 2.545-3.524 3.543-5.086zM304.07 253.89c-.104-.16-.168-.401-.327-.505a197.135 197.135 0 00-5.099-3.204.52.52 0 00-.798.153c-.192.384.063.696.359.961a21.614 21.614 0 004.7 2.963c.407.161.886.273 1.165-.368zM306.799 260.562a.567.567 0 00-.798-.761 7.56 7.56 0 00-2.801 2.788c-.263.504 0 .841.918.801.83-.745 2.019-1.546 2.681-2.828zM303.399 257.414c.148.032.3.032.447 0 .535-.088 1.157-.232 1.141-.849 0-.801-.798-.448-1.125-.52a3.84 3.84 0 00-2.769.865.513.513 0 000 .801c.846.576 1.485-.529 2.306-.297z" fill="#000"/><path d="M355.986 270.174c-.917-1.986-1.316-4.005-.359-6.111 0-.121-.047-.241-.063-.361-1.038 1.906-1.277 4.045-1.74 6.12-.104.448-.056 1.754-.966 1.185a.268.268 0 010 .08 165.482 165.482 0 00-1.244 27.755c.51 11.862.231 23.725-.136 35.58-.686 22.195-1.684 44.375-1.444 66.587.071 6.536.798 13.056.47 19.6-.223 4.478-.319 8.963-.454 13.441-.048 1.69-.759 2.603-2.434 3.292-10.334 4.237-21.171 6.215-32.159 7.537a426.52 426.52 0 01-43.506 2.643 186.225 186.225 0 01-47.296-4.99c-4.788-1.153-9.576-2.05-14.228-3.772-1.253-.465-1.724-.85-1.468-2.403.303-1.907 0-3.933-.168-5.904-1.508-20.161-1.811-40.378-2.537-60.587-.727-20.209-1.596-40.562-1.325-60.876a325.235 325.235 0 00-1.788-41.435c-.175-1.466.12-1.65 1.469-1.314a45.862 45.862 0 0010.254 1.754c.151-.064.303-.112.455-.16.399-.929 1.173-.801 2.625.289.04.112.072.224.104.336a44.02 44.02 0 005.258.801c1.852.096 3.336.473 3.942 2.267a1.61 1.61 0 00.16-.993c-.136-.801-.359-1.602.798-1.602 1.037 0 2.338-.281 2.777 1.193 18.17 3.132 36.468 2.555 54.773 1.946 0 .665 0 1.338.12 1.987.199 1.282-.447 1.45-1.548 1.482-5.762.184-11.539.08-17.308.216-2.634.064-5.586.801-8.076-.328-2.641-1.234-5.745.528-8.075-1.602-4.054 1.081-8.076-.305-12.122-.145-2.481.097-4.979-.216-7.469-.344a2.074 2.074 0 01-.223 0c-1.437-.24-2.49-1.081-2.394-2.539.12-1.602 1.596-.136 2.258-.673-.798-1.097-2.13-.256-3.08-.921-.08 1.009.902 2.107-.471 2.779-.088.321.551.889.064.881-.966 0-2.25.641-2.873-.544a5.887 5.887 0 00-.742-1.29 1.28 1.28 0 00-.303 0c-.27.378-.455.809-.543 1.266-.207.705-3.99 0-4.405-.801a5.228 5.228 0 01-.798-3.148 1.941 1.941 0 00-2.441-.577 1.73 1.73 0 00-.112.272c.423.127.781.414.997.801.291.296.498.663.599 1.066 2.25 9.836 12.097 15.667 13.486 25.952a378.772 378.772 0 003.942 4.149c.694.048 4.261 1.162 4.788 1.322 6.08 2.042 11.331-.457 16.478-3.204 2.059-1.09 3.934-2.523 5.889-3.797 1.524-1.554 3.04-3.108 4.564-4.654a.267.267 0 01.072-.28c.088-.312.28-.641.335-.953.053-.077.101-.158.144-.24 1.875.4 3.735.881 5.586 1.441a38.359 38.359 0 005.586 2.652c3.718 1.145 11.044-.801 11.171-.914a31.85 31.85 0 005.451-.304c2.266-.953 4.093.048 5.961.881 7.924 1.274 15.488 1.69 22.926-.721 3.423-1.602 6.2-4.245 8.921-6.904a2.388 2.388 0 012.282-.913h.104c.368-.452.898-.74 1.476-.801l.734-.097a31.58 31.58 0 013.687-.264 2.78 2.78 0 01.447 0c.838-.12 1.676-.272 2.537-.464a2.78 2.78 0 012.385.483 2.807 2.807 0 011.103 2.176c0 3.957.175 70.72-.048 79.002-.248 9.572-.447 19.144-.966 28.7-.159 2.923-.096 5.895-.694 8.811-.224 1.081-.503 1.329-1.556 1.65-14.452 4.381-29.422 5.967-44.288 7.914-10.884 1.425-21.897 1.361-32.885.8-6.272-.328-12.544-.608-18.808-.993a169.91 169.91 0 01-18.298-2.17c-2.881 0-5.985-1.066-8.634-1.891a2.957 2.957 0 01-.431-.2h-.335c0 .841.072 1.69.112 2.531a130.649 130.649 0 0017.755 3.284 469.341 469.341 0 0049.187 2.059c10.542 0 20.907-1.69 31.225-3.781 6.727-1.37 13.646-1.602 20.293-3.46.223-.064.463-.056.67-.12 9.057-3.068 7.461-1.514 8.259-10.197 1.181-14.082 1.596-28.211 1.596-42.333 0-10.02-1.197-20.025-.798-30.069.335-7.89.615-15.788 1.437-23.629a230.507 230.507 0 00.957-24.383c0-2.403-1.532-2.939-3.399-3.019-2.338-.097-4.692 0-7.182 0 .678-1.65 1.348-3.204 1.971-4.806a1.646 1.646 0 011.38-1.018l9.456-1.954v5.791c1.094-2.219.511-4.886 1.868-7.049.215-.36.375-.584.798-.624 0-.297 0-.593-.04-.89-2.394-2.403-5.69-2.819-8.563-4.173-.797-.216-2.393.561-1.851-1.409.471-2.107.942-4.206 1.421-6.312a5.56 5.56 0 01.438-2.74l.072-.921v-1.666c0-.553.2-1.089.296-1.602v-.256c.379-2.116.596-4.259.646-6.408a9.81 9.81 0 00-1.708-5.92c-.119-.584-.239-1.177-.303-1.794-.678-6.792-3.655-12.375-9.847-15.419-8.69-4.277-17.747-4.934-26.876-1.105-.498.5-1.17.788-1.875.801a49.303 49.303 0 00-6.448 4.173c-.136.729-.87.897-1.277 1.386-.119.36-.502.801-.718.552-.503-.624-.199-1.353.192-1.994l.119-.857v-1.827c.072-1.281-.263-2.595.319-3.828 0-.705.072-1.402.112-2.107 0-1.129-.159-2.275.343-3.356l.12-2.579c.128-1.73-.255-3.501.335-5.199l.12-3.003c.072-1.29-.216-2.596.327-3.837.048-.545.096-1.09.136-1.602 0-.985-.16-1.987.327-2.924 0-1.001.088-2.01.128-3.012.143-1.978-.272-4.005.383-5.927 0-.457 0-.913.055-1.378-.037-1.372.03-2.746.2-4.109.024-.215.072-.428.144-.633l.119-8.49c.144-1.602-.263-3.204.343-4.806l.12-4.806c.112-1.298-.231-2.635.335-3.901 0-.521.072-1.049.104-1.602a4.219 4.219 0 01.351-2.403c0-.264.064-.529.088-.801.151-1.45-.176-2.94.367-4.349.04-1.29.08-2.579.112-3.869v-4.502c-.503-.969-1.692-1.081-2.346-1.858h-4.086a4.974 4.974 0 00-3.344 1.874c-.047.361-.287.497-.614.545-.223.585-.902 1.001-.662 1.762a3.796 3.796 0 01-.367 2.347l-.096 2.675c-.064 1.106.255 2.243-.343 3.285-.04.576-.072 1.153-.104 1.73a6.472 6.472 0 01-.192 2.403 1.315 1.315 0 01-.175.416l-.096 2.684c-.088 1.433.287 2.907-.327 4.301 0 .697-.08 1.394-.128 2.09 0 .946.184 1.915-.359 2.788l-.096 1.77c0 .985.224 1.995-.327 2.916l-.119 3.02c-.08 1.401.287 2.843-.352 4.197l-.071 2.138c0 1.114.215 2.251-.328 3.308-.047 2.088-.09 4.179-.127 6.272-.064 1.883.311 3.781-.327 5.607l-.112 9.917c0 1.281.279 2.595-.327 3.828 0 1.458-.088 2.924-.136 4.39-.112 2.483.399 4.998-.319 7.457.279 1.33-.678 2.611-.128 3.949 0 1.081.248 2.187-.279 3.204-.064 1.97-.122 3.941-.176 5.911 0 .985.232 1.995-.327 2.916-.399.681 0 1.402-.127 2.107.178.801.053 1.64-.352 2.354l-.119 2.203a2.187 2.187 0 01-.351 1.85c-.104 1.186.047 2.716-.304 3.493-.798 1.73-2.489-.257-3.814.128a.524.524 0 01-.223 0 1.686 1.686 0 01-.727-.152 32.257 32.257 0 00-6.902.488 32.777 32.777 0 00-6.735 2.475 50.3 50.3 0 00-6.464 3.925c-1.923 1.322-4.149 2.467-5.713 4.222-.726.801-1.54.584-2.243-.225-.191-.208-.478-2.403-.798-3.204a35.896 35.896 0 01-1.596-4.806c-.127-.632-.941-1.105-.965-1.217-3.192-.889-6.288-2.059-9.44-3.076a6.636 6.636 0 01-1.828-.368c-.462-.153-.917-.289-1.372-.425a1.771 1.771 0 01-.902.593l-.455 1.305c4.214-.432 7.797 1.674 11.635 2.884-5.45.272-10.837 1.418-16.295.433-2.122-.385-4.181.184-6.232.728-.591.161-1.365.225-1.261.986.12.881.958.568 1.484.464 2.546-.496 5.123-.24 7.669-.416 5.067-.361 10.102 1.097 15.162.136 1.244-.24 2.816 6.103 4.388 8.386.28.417 1.301.585 1.596.801-.454 3.877.144 7.73.463 11.583.296.256.455.801.798.985.134.039.27.072.407.096a1.07 1.07 0 00.319-.12c.655-.353.623-1.057.559-1.794-.279-3.204-.455-6.352-.686-9.524a4.578 4.578 0 012.394-4.518 83.93 83.93 0 0120.659-8.947 4.823 4.823 0 014.262.617c2.609 1.658 5.33 3.148 7.979 4.766 1.245.761-.111.504-.319.697l.455 1.265c.798-.737 1.349-1.033 2.394-.12 2.019 1.714 2.889 4.005 3.671 6.352 1.157 3.46 1.731 7.105 3.591 10.413-2.618.577-5.107 0-7.485.649v.04l.239.096-.239-.096h-.064c-9.081.152-18.162.24-27.235.48-1.9.056-2.713-.344-2.721-2.403a27.787 27.787 0 00-.798-5.382c-.336-1.602.271-2.515 1.811-3.068 5.338-1.899 10.876-2.972 16.39-4.157a80.953 80.953 0 0010.374-2.756 2.18 2.18 0 01-.638-1.209.468.468 0 00-.048-.088c-4.07-.056-7.9 1.393-11.874 1.97-5.586.801-10.661 3.036-15.696 5.383-1.373.641-2.195.801-3.136-.489-.503-.705-1.349-1.602-2.243-.801-.893.801.064 1.698.719 2.227a5.787 5.787 0 012.234 4.806c0 1.906.798 3.805 1.237 5.919-2.059-.128-3.99.096-5.969-.136-.273.05-.555.005-.798-.128-.16 0-.327 0-.487-.08-1.293.272-21.242-1.282-28.376-2.571a1.983 1.983 0 01-.726-.281c-.551.225-1.476.128-3.072-.04-5.044-.528-5.044-.528-5.036-5.607.12-4.992-.077-9.987-.59-14.954 1.436 0 2.282.977 3.343 1.393.391.153.798.185 1.03-.144.375-.496 0-.801-.391-1.081a14.296 14.296 0 01-3.448-2.523c2.394-.184 4.868-.449 7.31-.537 2.873-.096 5.753 0 8.634-.072a4.215 4.215 0 002.586-.481c-.312-.392-.152-.801.207-1.233.072-.04.104-.088.168-.128l-.32-.112c-4.194.34-8.407.388-12.608.144a6.954 6.954 0 01-3.311.336c-2.163.192-4.581.505-5.099 2.908-.447 2.09.055 4.397.135 6.608.583 1.065.335 2.211.335 3.332-.542 1.53.479 3.044.056 4.574-.63.801-1.5.24-2.25.384h-.463c-.75.177-1.444.617-2.266.441-3.192.801-6.456 1.45-9.025 3.765l-1.349 1.962c-.048.248-.096.505-.135.753v3.204c-.559 1.482.558 2.924.119 4.405.076.24.13.487.16.737.202 1.626.269 3.266.199 4.902 0 .561.056 1.13.088 1.698.607 1.995.271 4.005.359 6.056l.096 2.499c.135.366.203.755.199 1.146.391 2.827.04 5.687.136 8.522.072 2.331 0 4.67 0 7.001V339.116l.08 11.158a4.92 4.92 0 01.199 2.042c.296 3.5.048 7.025.176 10.533l.096 2.988c.646 3.244.247 6.528.367 9.796.223 1.732.247 3.485.072 5.223.212.705.28 1.446.199 2.178.319 3.917.064 7.85.184 11.767 0 .849.055 1.706.087 2.555.183.513.249 1.06.192 1.602.279 2.723.072 5.463.183 8.202 0 .545.056 1.09.08 1.602.567 1.859.287 3.773.351 5.663 0 .553.072 1.114.104 1.666.575 2.003.287 4.061.359 6.096l.096 1.666c.063.213.111.429.144.649a29.78 29.78 0 01.303 4.525c0 .225 0 .449.064.681.518 1.098.343 2.275.423 3.429.518 2.659.279 5.534 2.258 7.753a8.614 8.614 0 013.471 1.834c4.469 2.347 9.432 2.708 14.26 3.637a2.626 2.626 0 011.859.409 4.865 4.865 0 011.971.336.869.869 0 01.311.16c.798.849 1.86 0 2.682.521a3.07 3.07 0 011.971.36l.75.104a2.751 2.751 0 011.891.369c.902.961 2.139-.056 3.112.528a4.3 4.3 0 012.394.369l.798.104a4.512 4.512 0 012.49.352l1.149.113c.997 0 2.019-.153 2.96.344l1.133.104c1.445.112 2.921-.216 4.326.361l2.034.096c2.394.144 4.788-.208 7.182.32h16.191c2.474-.625 5.004-.24 7.501-.376l1.237-.08c1.827-.601 3.719-.265 5.586-.377l.91-.072c1.939-.609 3.942-.32 5.913-.424l.167-.105.184.072c.194-.069.394-.12.598-.152a20.675 20.675 0 014.046-.216l1.596-.104c1.708-.569 3.471-.256 5.211-.369l.798-.072a2.74 2.74 0 01.59-.16 20.756 20.756 0 013.599-.248l.168-.112.183.064c.149-.076.307-.13.471-.16a11.376 11.376 0 012.801-.289 27.244 27.244 0 015.897-.921c.091-.062.19-.111.295-.144a4.86 4.86 0 012.011-.272l.136-.121.167.064a3.286 3.286 0 012.394-.368 9.8 9.8 0 013.519-.993c1.062-.441 2.083-1.026 3.296-.849.798-.457 1.476-1.138 2.498-1.002a5.69 5.69 0 012.458-.953l2.266-1.017c1.596-.449 2.721-1.73 4.101-2.555.304-.457.599-.913.894-1.37a4.764 4.764 0 01.599-2.723 4.02 4.02 0 01.359-2.331c0-.288.056-.577.08-.865.039-1.242-.168-2.515.375-3.709 0-.432.063-.873.087-1.313.08-1.146-.151-2.331.352-3.437 0-.801.063-1.666.103-2.491v-13.617c-.04-1.153-.072-2.299-.111-3.444a120.853 120.853 0 010-18.623c0-1.017.071-2.035.111-3.052.208-3.42-.311-6.872.351-10.277 0-.985.056-1.97.088-2.955.152-3.397-.247-6.817.359-10.197l.072-1.658c.112-2.043-.08-4.093.231-6.12.031-.31.082-.617.152-.921 0-.537.056-1.073.08-1.602.128-2.403-.088-4.854.223-7.265.031-.384.082-.766.152-1.145l.072-2.075v-41.98a58.593 58.593 0 010-10.053c.127-2.499-.248-5.022.359-7.497l.096-1.602c.047-2.2.061-4.368.039-6.504zm-7.852-8.979c.798.288 1.509.625 2.785 1.161-3.016.601-5.354 1.426-7.852 1.45 0-.208-.12-.352-.08-.448 1.445-3.597 1.453-3.597 5.147-2.147v-.016zm-38.215 13.433c-1.053 0-.718-.978-.718-1.562 0-.585-.583-1.883.463-1.827 1.045.057.151 1.458.646 1.963-.016.625.407 1.402-.391 1.426zm4.589.168a18.49 18.49 0 00-1.341-.192c-1.197-.561-.16-2.067-.503-2.964-.487-1.282.846-.801 1.445-.905 1.595-.321 1.412.801 1.244 2.443-.024.296.487 1.506-.822 1.618h-.023zm5.386-.537c-1.373-.088-.335-1.329-.742-1.986.423-.593-.607-2.003.734-1.859 1.045.113.566 1.49.582 2.307.04.537.575 1.61-.55 1.538h-.024zm3.918-.12c-1.548-.288-2.067-1.666-2.011-3.276 0-.801.487-.857.966-.913 1.995-.224 3.989-.401 6.184-.609-.447 1.234-.854 2.267-1.213 3.316-.686 2.083-2.498 1.746-3.902 1.522l-.024-.04zm4.692-.184c1.692-1.818.734-5.079 4.788-5.03-1.875 1.658-1.125 4.749-4.764 5.03h-.024zm5.586-.705c1.955-4.806 1.955-4.806 4.405-5.134-.248 2.659-2.298 5.126-4.397 5.134h-.008zm13.406 1.514c.638 0 1.309.072 1.253.913-.072 1.129-.918.36-1.373.432-.828-.01-1.657.025-2.481.105-1.189.304-1.541.969-.296 1.786h3.081c-1.437.448-2.171.905-3.081.801l-9.528 1.994c1.014-1.762 1.86-3.204 2.674-4.629a1.404 1.404 0 011.181-.906c2.864-.144 5.721-.336 8.578-.496h-.008zm-9.4-47.427c1.596 6.264 1.093 12.568-.407 18.943-1.373 5.8-2.131 11.735-3.815 17.486-.502 1.73-1.149 2.155-2.8 2.027 1.803-6.248 3.487-12.424 4.668-18.736 1.532-8.162 2.266-16.244-1.149-24.15a26.713 26.713 0 00-3.32-5.607 28.192 28.192 0 016.831 10.037h-.008zm-4.373 13.2c-5.115 1.939-10.134 4.133-15.21 6.176-.734.296-1.428.937-2.394.577a136.485 136.485 0 0118.809-19.889c.463 3.468 1.077 6.584 1.053 9.788.008 1.698-.527 2.683-2.258 3.348zm-15.609-27.65a5.565 5.565 0 014.142.304c5.434 2.107 9.639 5.431 11.563 11.214.287.841.638 1.498-.184 2.219a185.94 185.94 0 00-18.13 18.775c-.08.096-.271.096-.407.137-.231.544-.798 1.249-.239 1.65 1.133.849.311 1.762.311 2.643l20.284-8.619a24.72 24.72 0 00-.67 4.422c.064 1.802-.902 2.29-2.346 2.491-5.729.801-11.451 1.602-17.236 1.938-1.261.288-.327-1.193-1.07-1.33l-.798.049a1.802 1.802 0 01-1.484.865v.056h-.04c-.271 1.297.639 2.523.056 3.901-1.037 2.403-3.567 2.931-5.386.801.471-.369.957-.129 1.436-.097 2.163.145 3.551-1.321 2.865-3.388-.495-1.474.144-1.305 1.029-1.217a.09.09 0 010-.04c-1.835-2.107-.678-4.47-.263-6.585 1.819-9.219 3.87-18.422 5.841-27.578.264-.921.232-2.419.726-2.619v.008zm-26.086-26.97c.328-13.28 1.74-26.504 2.666-39.745.287-4.085.933-8.154.885-12.255 0-1.498 1.118-1.602 1.955-1.546.368 0 .551.112.639.256a2.984 2.984 0 00-.551 1.378c-1.747 13.537-3.503 27.074-4.429 40.691-.462 6.792-.726 13.616-.678 20.417v1.85c-.495 3.37-.957 6.745-1.388 10.125.415-7.044.715-14.1.901-21.171zm5.921 67.436c-1.811-3.869-4.787-6.312-8.179-8.538-.439-.297-1.596-.337-.798-1.37 2.969-4.133 4.293-9.123 7.014-13.385a18.962 18.962 0 016.584-8.747c4.437-3.075 8.45-6.928 14.252-8.01-1.532 6.745-3.104 13.481-4.573 20.234-1.085 4.99-2.242 9.98-2.928 15.034-.264 1.891-2.33 1.795-2.498 3.372v1.691c-.463-.657-1.389-1.226-.423-2.123a2.317 2.317 0 00-.399-1.69c-3.511-5.647-6.99-11.31-10.485-16.973-1.596.921-.312 1.906.111 2.619 2.634 4.558 5.395 9.059 8.1 13.617.183.296.327.609.798 1.474-2.841-2.227-4.373-4.806-6.496-6.761-.415-.384-.87-1.233-1.428-.745-.718.617.12 1.202.527 1.658a422.255 422.255 0 005.992 6.505c.958.993 1.86 1.938 1.987 3.42a2.13 2.13 0 001.293 1.746c2.394.985 3.112 3.204 4.11 5.238.518.081.51.465.502.858l1.756 2.322c.335.433.75.922 1.293.553.542-.368.223-.929-.048-1.402a348.17 348.17 0 01-3.033-5.302c-.159-.297-.55-.561-.127-1.234 1.763 1.202 2.753 3.092 4.181 4.534a31.093 31.093 0 012.115 2.659c.287.361.582.801 1.109.497.726-.409.295-.969 0-1.346-1.596-2.106-3.272-4.165-4.9-6.256-.271-.344-.686-.64-.582-1.273.798-.409 1.125.44 1.556.801 3.192 2.659 6.288 5.455 9.919 7.529.503.289 1.38 1.282 1.899.224.519-1.057-.726-1.033-1.301-1.393-3.814-2.403-7.094-5.535-10.996-8.747 5.538.561 10.063 3.116 15.098 3.508-4.652-2.555-9.711-3.885-14.747-5.286-1.061-.505-.103-1.418-.798-2.187 1.102.2.758 1.081 1.269 1.33 6.384-.898 12.856-1.266 19.495-2.644-1.381 5.375-2.753 10.678-4.07 16.02-.207.849-.75.801-1.349.849-5.354.345-10.716.713-16.071 1.009-2.146.121-2.745-.72-2.234-2.851.104-.441.127-.897.191-1.346-.111-.568-.191-1.177-1.029-.993l.064.136c0 .761-.718 1.138-.958 1.77.343 3.164-1.652 3.845-4.141 4.005.004.054.004.107 0 .161l-.096-.153h-.303c-1.181.169-1.477-.648-1.78-1.538-1.5-4.437-2.474-8.923-4.445-13.08zm2.219 34.219c1.444.88 2.98 1.6 4.58 2.146.487.233.974.457 1.468.665a28.913 28.913 0 01-4.229-1.129 3.131 3.131 0 01-2.258-.681c-.447-.457.064-.729.439-1.041v.04zm-7.565-6.288l.519.464c.798.801 1.691 1.562 2.585 2.283.479.489.974.954 1.492 1.394.016.37.147.726.375 1.017.136.185-.686.473-1.069.185-1.963-1.474-4.078-2.796-5.267-5.383a9.716 9.716 0 011.365 0v.04zm-2.697-2.94v.04c.391.497.798.978 1.213 1.442-1.094-.16-1.285-.857-1.445-1.746l.232.264zm-79.12-16.821l4.972-.801c.343 3.957.343 3.957-3.264 3.485-.303 0-.599-.104-.894-.152l-5.586-.946a11.388 11.388 0 014.772-1.658v.072z" fill="#000"/><path d="M207.522 282.694c0-.713.04-6.216 0-8.523a2.3 2.3 0 011.836-2.403c.029-.232.072-.462.127-.689-2.226-.144-2.769.481-2.673 2.86.694 16.821.559 33.594 1.006 50.382.231 8.651.375 17.326.917 25.961.982 15.547 1.093 31.126 1.804 46.682.127 2.707.526 5.406.869 8.098.184 1.394 1.469 1.722 2.498 1.986l.982.241c-.91-20.37-1.285-40.763-2.713-61.116-1.493-21.163-3.528-42.285-4.653-63.479zM315.625 390.067c.494.615.724 1.402.638 2.187 0 1.049 0 2.01-.798 2.699-.303.257-.678.649-1.101.273-.423-.377-.048-.665.159-1.002.558-.91.52-2.067-.095-2.939-.256-.417-.798-.873-1.301-.385-.503.489-.862 1.138-.311 1.602.55.465.638.641.071 1.001-.566.361-1.069.081-1.396-.472a3.1 3.1 0 01.742-3.629c1.132-.688 2.6-.4 3.392.665zM282.876 368.576c.81.263 1.441.907 1.69 1.724a2.62 2.62 0 01-.445 2.377.636.636 0 01-.886.185.546.546 0 01-.136-.873c.184-.274.294-.592.319-.922a1.457 1.457 0 00-.798-1.201c-.399-.24-.566.216-.798.384-.231.169-.407.393-.726.305-.183-.048-.191-.2-.191-.361a1.942 1.942 0 011.971-1.618zM313.326 354.655a1.2 1.2 0 00-1.197 1.202 1.196 1.196 0 002.234.6 1.204 1.204 0 00-1.037-1.802zM259.295 227.441a3.533 3.533 0 012.227-.913c1.165-.04 1.157-.617.981-1.442.168-.977 0-1.858-1.085-2.139-1.085-.28-2.274-.584-3.192.321a3.397 3.397 0 00-.974 3.292c.24.993.495 2.403 2.043.881zM265.344 205.846c-1.309.265-2.338.873-2.394 2.403-.001.69.288 1.349.795 1.815a2.44 2.44 0 001.87.636c1.516-.184 1.013-2.258 1.596-3.436.287-.617-.67-1.57-1.867-1.418zM264.673 219.92c-1.524-1.755-3.527-.337-5.083-1.226-.383-.224-.694.088-.686.553.008.464-.335 1.458.295 1.602 1.253.344 2.689-.232 3.91.705a20.104 20.104 0 001.564-1.634zM256.949 219.519c-.654-.737-1.412-1.249-2.394-.737-1.54.801-2.155 2.235-2.274 4.005.096 1.602 1.229 2.219 2.673 2.459 1.444.241.862-1.017 1.141-1.602a8.252 8.252 0 011.077-1.706c.719-.881.455-1.666-.223-2.419zM251.148 228.634a3.056 3.056 0 00-3.025 3.044c-.07.647.137 1.293.569 1.777.433.485 1.05.762 1.698.762 1.675-.056 4.085-2.266 3.814-3.532a2.65 2.65 0 00-3.056-2.051zM256.893 229.251a.796.796 0 00-.91-.496c-.452.112-.776.51-.798.977-.183 1.137.12 2.403-.901 3.604 1.133-.136 2.449.201 2.394-.344-.112-1.266.869-2.499.215-3.741zM251.746 226.264c-.087 1.137 1.094.801 1.596 1.289.27.205.552.393.846.561.527-1.794-.67-1.866-1.596-2.219-.455-.176-.822.08-.846.369zM249.847 215.57c-1.157 0-1.205 1.426-1.141 2.123.136 1.282 1.596.705 2.434 1.185.495.297.471-.312.59-.801-1.165-.416-.327-2.483-1.883-2.507zM253.972 211.99c-1.651.609-2.33 2.251-1.731 4.109.287.881.558 1.514 1.668.801 1.109-.713 2.17-.376 3.463-.128-.511-.945-.255-1.85-.303-2.731-.096-1.835-1.413-2.684-3.097-2.051zM260.268 207.28a2.252 2.252 0 00-2.298.561c-.678.657-1.404 1.458-1.189 2.259.096.384.798 1.994 2.107.801a2.902 2.902 0 012.003-.921c.535 0 .878-.161.622-1.17a2.167 2.167 0 00-1.245-1.53zM260.947 211.645a3.727 3.727 0 00-2.178 3.653c.143 1.738 1.484 2.203 3.096 2.515a5.005 5.005 0 01.654-4.51c.263-.36 1.285-.656.487-1.385a1.592 1.592 0 00-2.059-.273zM262.703 247.034c.423-.801-.87-1.154-1.285-1.803a5.912 5.912 0 01-.798-1.842c-.072-.336-.311-.801-.583-.889-.742-.224-3.335 1.93-3.391 2.723-.112 1.498.463 2.491 1.644 2.916a7.363 7.363 0 012.146.24l1.102-.248a2.567 2.567 0 001.165-1.097zM242.992 239.304c-1.005-.337-1.524.184-1.891.929a1.43 1.43 0 00-.287.393 1.816 1.816 0 00.167 1.722 3.35 3.35 0 001.333 1.137 4.578 4.578 0 001.748.561 1.794 1.794 0 001.596-.617 1.05 1.05 0 00.167-.408h.056c1.157-3.172-1.492-3.285-2.889-3.717zM268.424 214.105c-.048 2.25.91 3.099 2.617 3.5 1.9.44 1.596-1.009 1.9-1.979a4.459 4.459 0 01.798-1.602c1.061-1.337.694-2.499-.934-3.003a3.411 3.411 0 00-2.93.483 3.443 3.443 0 00-1.451 2.601zM274.704 240.217c-.311-1.386-1.236-1.522-2.481-1.25 1.237 1.698.694 3.461.191 5.495 1.74-1.161 2.729-2.323 2.29-4.245zM246.639 229.123c.886-1.602-.966-1.914-1.341-2.915-.375-1.002-1.085-.505-1.699-.249-2.514 1.034-3.104 3.949-1.333 7.073 3.487-2.395 3.711-2.699 4.373-3.909zM268.887 206.543a20.202 20.202 0 013.702 2.603c.926.321 1.373-.12 1.756-.801.383-.68.71-1.265.159-2.058a2.784 2.784 0 00-.662-.633c-.878-.304-1.787-.593-2.705-.801a3.258 3.258 0 00-1.875.481c-.519.336-.886.937-.375 1.209zM269.142 208.201c-1.237.177-1.699 1.026-1.596 2.523.479-.32.798-.536 1.094-.728.295-.193.662-.313.973-.513.974-.633.678-1.45-.471-1.282zM241.875 236.949a5.32 5.32 0 00-.175-2.155v-.096a1.608 1.608 0 00-.439-.961 1.978 1.978 0 00-.655-.657 1.36 1.36 0 00-1.747.385 3.374 3.374 0 00-.646 2.018c0 1.266.678 3.1 2.218 2.98a1.383 1.383 0 001.277-1.13.304.304 0 00.151-.32l.016-.064zM266.03 212.903c-.87-.288-1.596.345-2.131.953-1.404 1.53-1.045 3.332.798 4.222a6.886 6.886 0 003.719.472 5.876 5.876 0 01-2.131-3.877c-.032-.568.766-1.433-.255-1.77zM278.415 233.272c.351-2.138-1.022-2.283-2.53-2.403a3.331 3.331 0 01-1.484-.536c-1.109-.737-1.987-.249-2.857.424a3.131 3.131 0 00-1.165 3.845c.742 1.778 2.33 2.491 4.245 2.403 2.107-.032 3.376-1.362 3.791-3.733zM266.573 245.535c2.09 0 4.484-2.178 4.588-4.229.064-1.45-2.929-4.806-4.221-4.806-2.131.104-4.397 1.955-4.421 3.613-.056 2.939 1.795 5.39 4.054 5.422zM255.058 246.569a2.72 2.72 0 00-2.617-.545.564.564 0 00-.136.064 2.231 2.231 0 00-1.077.545h-.048a.549.549 0 00-.072.064 1.27 1.27 0 00-.184 1.242c.034.194.102.381.2.552.292.512.774.886 1.341 1.042.47.243.995.362 1.524.344a1.78 1.78 0 001.667-1.33 2.03 2.03 0 00-.598-1.978zM283.49 220.512c.12-1.065-.423-1.698-1.317-1.602-1.093.161-2.394.801-2.449 1.931-.064.849 1.173 1.346 1.851 1.994 1.029-.536 1.787-1.137 1.915-2.323zM283.681 227.385c.551-.921.559-2.195-1.061-2.9-.096.857-.12 1.53-.247 2.187-.328 1.738.901 1.378 1.308.713zM284.32 217.196a.385.385 0 000-.096c-.104-1.217-.383-2.475-1.804-2.763a1.127 1.127 0 00-1.364 1.105c-.076.418-.02.849.159 1.234a.432.432 0 00.104.344 3.31 3.31 0 001.349.937c.291.137.616.184.933.137a.802.802 0 00.655-.633.432.432 0 00-.032-.265zM276.516 239.584c0 1.498.359 2.98 2.346 2.86 1.596-.096 2.274-1.234 2.617-2.483a4.214 4.214 0 00-.654-1.706.711.711 0 01-.407-.489 1.8 1.8 0 00-1.365-.537c-.933.105-2.569.737-2.537 2.355zM285.182 235.427a.875.875 0 00-.982 0h-.048a1.912 1.912 0 00-1.061.801 2.465 2.465 0 00-.335 2.251c.146.418.458.758.862.937.44.131.917.012 1.245-.312a2.906 2.906 0 00.885-2.267 1.734 1.734 0 00-.566-1.41zM283.849 232.407a9.569 9.569 0 01-.319-2.018.614.614 0 01-.048-.096c-.455-.689-1.029-1.29-1.596-1.963-.678.649-1.285 1.202-1.867 1.778-1.181 1.17-.064 2.483-.056 3.685 0 .721 1.516.665 2.394.424a2.256 2.256 0 001.492-1.81zM246.511 224.678a2.977 2.977 0 002.075 2.539c1.341.36 1.516-1.354 2.171-2.179.654-.825-.304-1.658-.152-2.547.096-.577.407-1.442-.455-1.786a2.39 2.39 0 00-2.498.552c-.845.713-1.157 1.715-1.141 3.421zM264.306 235.411c2.897-.256 3.192-2.82 4.365-4.726a6.48 6.48 0 01-4.229-1.802c-1.213-1.274-2.466-.865-3.591-.08a3.315 3.315 0 00-1.205 4.213c.599 1.634 2.713 2.563 4.66 2.395zM261.059 237.702c0-.393-3.663-2.507-4.325-2.507a3.495 3.495 0 00-3.408 3.524c0 1.642 1.596 3.14 3.495 3.204 1.429-.024 4.302-2.859 4.238-4.221zM255.05 243.605c-3.99-2.243-4.197-2.651-3.735-6.696 0-.329.431-.729-.191-.849-.375-.064-.798 0-.846.496a3.55 3.55 0 01-1.803 2.74c-.974.624-.982 1.369-.743 2.323.894 3.724 3.839 4.525 7.318 1.986zM246.017 238.423a2.562 2.562 0 002.665-1.731c.527-1.137-.798-.929-1.301-1.369a4.14 4.14 0 01-1.237-1.602.639.639 0 00-1.069-.337 3.058 3.058 0 00-1.221 3.204c.152 1.266 1.022 1.747 2.163 1.835zM242.474 222.811c0 .441-.32 1.33.462 1.162.607-.136 1.892.432 1.844-.985-.048-1.739.981-2.924 2.114-4.134-3.056.145-4.46 1.418-4.42 3.957zM277.377 228.595c1.445.096 3.296-1.787 3.36-3.413a3.47 3.47 0 00-3.336-3.3 3.313 3.313 0 00-2.438.806 3.337 3.337 0 00-1.137 2.31 3.599 3.599 0 003.551 3.597zM272.526 224.582c-.088-2.484-1.269-3.717-3.543-3.661-1.979.048-3.99 2.019-3.99 3.901 0 1.882 2.154 4.005 3.99 3.917 1.835-.088 3.606-2.219 3.543-4.157zM277.385 212.623a6.28 6.28 0 012.674.977c.191-.489.375-.969.566-1.434a3.02 3.02 0 00.052-2.471 3.002 3.002 0 00-1.807-1.678c-1.197-.417-3.4.801-3.4 2.163 0 1.049.367 2.37 1.915 2.443zM277.337 218.782c1.078 0 2.394.136 2.394-1.546-.048-1.498-.726-2.579-2.442-2.699a2.294 2.294 0 00-1.722.674 2.313 2.313 0 00-.672 1.729c-.087 1.562 1.158 1.858 2.442 1.842zM275.718 220.513c-1.429-1.034-2.833-2.107-5.115-1.058 1.915.329 2.609 4.149 5.115 1.058zM265.679 434.058c13.191-.425 26.397-.441 39.588-.217 11.858.201 23.748.801 35.47 2.684 2.067.344 4.142.713 6.169 1.257 1.19.275 2.335.72 3.399 1.322.798.505 1.237-.577 1.229-1.21a3.04 3.04 0 00-1.309-2.491 4.988 4.988 0 00-.542-.272c-.096-.04-.192-.088-.288-.12-.614-.232-.303-.096-.159-.048l-.479-.152a18.174 18.174 0 00-1.748-.409c-1.659-.312-3.335-.513-5.011-.665-4.955-.456-9.927-.552-14.898-.649-13.287-.256-26.581-.448-39.899-.096-7.182.201-14.364.513-21.546 1.05l.024.016z" fill="#000"/></svg>