<svg width="550" height="672" fill="none" xmlns="http://www.w3.org/2000/svg"><path d="M437.622 36.586c.516.329.987.534 1.378.534 1.449 0 3 1 5 3s6 5.821 6 11c0 6.627-8.373 15-15 15-6.627 0-13-7.373-13-14 0-5.42 5.394-11.438 7.83-15.736-.96-8.212.534-32.371-.83-32.384-16.373-.154-42.803-.374-68.495-.615-1.089-.01-2.099 25.325-2.409 32.702C365.353 36.882 371 43.03 371 50.5c0 8.008-6.492 14.5-14.5 14.5S343 59.008 343 51c0-2.374-.505-5.274 0-7 1.197-4.097 4.552-5.64 8.426-7.087.466-.174 1.942-.445 3.186-.646-1.791-9.348-2.706-32.963-4.426-32.979L183.378 1.722C181.885 3.545 180.425 5.972 179 9c-2.434 5.171-3 11.032-3 16 0 2.952.794 6.98 2.383 12.084 7.312.447 13.105 6.519 13.105 13.944 0 7.715-6.255 13.97-13.971 13.97-2.851 0-5.55.432-7.761-1.035-3.771-2.502-7.244-7.554-7.244-12.418 0-6.431 5.065-12.207 11.22-13.952L170 18l-4.838-16.45-47.134-.442c.876 3.426 1.471 7.493 1.786 12.2.28 4.189.213 11.07 0 21.158a26.82 26.82 0 00.109 2.69c1.364.414 3.707 1.813 6.711 6.026 1.991 2.802 2.836 6.29 2.368 9.778a14.35 14.35 0 01-3.017 6.778c-2.311 3.014-5.643 5.083-9.324 5.79-3.348.581-6.746-.091-9.54-1.889-.698-.459-1.374-.973-2.061-1.46a11.37 11.37 0 01-1.634-1.424 11.037 11.037 0 01-2.251-3.637C98.859 51.112 99.908 44.944 105 41c.75-.575 2.172-1.549 3-2 .51-.293 1.352-.195 1 0-2.937 1.53-5.437 4.708-6.816 7.72-1.15 2.673-1.359 5.626-.593 8.363a10.77 10.77 0 001.799 3.63c.258.303.527.594.809.874-1.288-2.012-2.135-4.326-2.135-6.594 0-6.89 6.509-12.936 13.398-12.936 6.889 0 12.474 5.585 12.474 12.474 0 1.385-.226 2.718-.643 3.963.247-.52.459-1.057.632-1.608.765-2.932.455-6.002-.871-8.644-1.877-3.91-1.409-2.597-5.054-6.242-1-1-3-2-3-2s-.027-.07-.061-.172c-.313-.17-.626-.446-.939-.828-.504-1.619-.512-3.29-.512-7.067 0-3.779.659-9.696 0-15.113-.436-3.596-1.591-8.18-3.464-13.75l-5.993-.056L0 0l1 672c220.097-1.514 365.097-4.514 435-9 27.158-1.743 114.973-88.629 113-113-7.01-86.604-6.677-268.216 1-544.836-49.116-.561-85.116-.95-108-1.164-1.948-.018-2.804 26.114-4.378 32.586zM546 550c-11.299 23.09-25.633 43.09-43 60-17.367 16.91-38.367 33.91-63 51l5-92c31 0 74-13 101-19z" fill="#fff"/><path d="M331.96 271.593c-.022-2.42.231-4.834.752-7.196.856-3.438.848-6.973 1.6-10.443.672-2.625.899-5.343.672-8.043a3.331 3.331 0 01.68-2.519l-.072-4.27c-.44 2.399-.8 4.878-1.048 7.356-.128 1.464-.8 2.879-.8 4.398 0 .424-.28.864-.8.8a.609.609 0 01-.536-.536v.336a67.297 67.297 0 01-2.032 15.831c-.027.124-.046.25-.056.376.288-.384.632-.712 1.128-.456.664.344.216 1.064.128 1.639a51.398 51.398 0 00-1.056 7.396 19.345 19.345 0 01-.8 5.837c-.592 1.759-.456 3.63-.568 5.461a20.427 20.427 0 001.464-5.365c.072-1.743-.072-3.454.472-5.197.549-1.751.843-3.571.872-5.405z" fill="#000"/><path d="M330.552 276.262a51.398 51.398 0 011.056-7.396c.088-.575.536-1.295-.128-1.639-.496-.256-.8.072-1.128.456 0 .224-.04.456-.064.68.448-.176.368-1.08 1.256-.8a10.57 10.57 0 00-1.032 4.27c.072 1.191-.88 2.087-.664 3.134.544 2.543-.264 4.869-.704 7.308-.312 1.687-.944 3.566 0 5.317.112-1.831 0-3.702.568-5.461.58-1.901.863-3.881.84-5.869zM335.592 237.931c-1.6 4.357-1.368 9.035-2.664 13.473-.136-1.192-.064-2.399-.152-3.606-.12-1.6.408-3.199-.32-4.798 0 2.703-.056 5.405 0 8.108a.606.606 0 00.536.535c.512.064.8-.375.8-.799.048-1.519.68-2.935.8-4.398.216-2.478.608-4.917 1.048-7.356v-1.167l-.048.008zM335.4 251.907c.288-2.118-.136-4.293.632-6.34v-1.096a.653.653 0 01-.264-.351c-.256 2.806-.424 5.597-.736 8.419-.312 2.823-.856 5.445-1.296 8.164-.8 4.981-1.072 10.026-1.896 14.992-.36 2.166-.8 4.325-1.192 6.5a44.852 44.852 0 001.824-7.58c-.064-3.454.968-6.78 1.2-10.202.28-4.206 1.144-8.34 1.728-12.506z" fill="#000"/><path d="M333.728 260.703c.44-2.719.992-5.429 1.296-8.164.304-2.734.48-5.597.736-8.419a2.382 2.382 0 01-.072-.728 3.331 3.331 0 00-.68 2.519c.226 2.7-.001 5.418-.672 8.043-.8 3.471-.8 7.005-1.6 10.443a32.004 32.004 0 00-.752 7.196 19.093 19.093 0 01-.848 5.405c-.544 1.743-.4 3.454-.472 5.197.376-2.175.8-4.333 1.192-6.5.8-4.982 1.072-10.011 1.872-14.992zM335.792 250.724c-.464 6.181-1.488 12.281-2.4 18.39-.264 1.831-.8 3.622-.96 5.469 2.52-9.515 4.28-19.133 3.568-29.048-.416 1.735-.08 3.486-.208 5.189z" fill="#000"/><path d="M335.792 250.724c.128-1.727-.208-3.478.24-5.181-.8 2.047-.344 4.222-.632 6.341-.584 4.165-1.448 8.299-1.736 12.505-.232 3.422-1.264 6.748-1.2 10.202.168-1.847.696-3.638.96-5.469.88-6.092 1.904-12.193 2.368-18.398zM335.736 238.435c.36 1.471 0 2.982.128 4.453 0 .232-.04.472-.056.704.104.28 0 .648.216.879a37.175 37.175 0 00-.176-6.988c.008.131.008.261 0 .392l-.112.56z" fill="#000"/><path d="M335.592 237.931c.059.156.107.317.144.48l.096-.56c.008-.13.008-.261 0-.392-.04-.256-.056-.511-.112-.799l-.128 1.271zM335.864 242.888c-.152-1.471.232-2.982-.128-4.453l-.12.687.072 4.27a.506.506 0 01.12.2c.016-.232.032-.472.056-.704z" fill="#000"/><path d="M335.592 237.931v1.167l.12-.687a3.583 3.583 0 00-.12-.48zM335.76 244.12a.653.653 0 00.264.351c-.256-.232-.112-.599-.216-.879-.024.176-.032.352-.048.528z" fill="#000"/><path d="M335.688 243.392c-.014.245.011.49.072.728 0-.176 0-.352.048-.528a.525.525 0 00-.12-.2zM335.736 236.716c.096-5.437-.616-10.81-1.296-16.184-1.328-10.394-2.992-20.724-4.88-31.031-.952-5.205-2.96-15.607-2.96-15.607s-2.608-13.449-3.112-14.848c-.2-.544-.384-1.2-1.224-1.016-.8-.304-1.6-.855-2.52-.744 1.176 1.016 1.384 2.199.616 3.199 1.024-.064 1.504.336 1.552 1.599.052 1.773.285 3.536.696 5.261.104.408.208.8.344 1.231.8 5.054 1.6 10.091 2.312 15.152 1.904 13.593 4.248 27.114 5.752 40.778.68 6.173 1.024 12.362 1.432 18.55.728 1.551.2 3.199.32 4.798.088 1.199 0 2.398.152 3.606 1.296-4.438 1.088-9.115 2.664-13.473l.144-1.231c.056.256.072.511.112.799a2.27 2.27 0 00-.104-.839zm-12.28-70.362zm-.4.871a1.21 1.21 0 000 .016v-.016zM279.256 210.194c0-.168 0-.328-.056-.512-.152-.943 0-1.447 1.072-1.095a2.4 2.4 0 00-2.224-.28 2.672 2.672 0 011.208 1.887z" fill="#000"/><path d="M280.272 208.491c-1.104-.352-1.224.152-1.072 1.103 0 .176 0 .336.056.504.056.168 0 .176 0 .272a3.703 3.703 0 01-2.024 3.51c-1.6.799-3.2 1.655-4.872 2.399a45.228 45.228 0 01-7.68 2.606c-2.808.648-5.336.416-7.472-1.815-2.36-2.47-7.92-8.843-7.352-9.715.484-.04.972-.011 1.448.088 4.632.192 9.28-.216 13.904.4 2.2.296 4.424.488 6.64.672.576.048 1.392 0 1.408-.728.016-.727-.744-.592-1.28-.671-5.208-.8-17.504-1.152-18.248-1.224-1.064-.112-2.144-.128-3.2-.152-2.112 0-4.224 0-6.336-.08s.296 1.416 2.872 1.424a.8.8 0 01.8.551c.329.244.618.538.856.872 2.28 3.03 4.496 6.101 7.312 8.699 2.816 2.599 6.296 3.198 10.048 2.399 4.296-.928 8-3.119 11.784-5.205a3.95 3.95 0 001.736-4.958c-.344-1.007.16-.879.672-.951zM240.2 206.596z" fill="#000"/><path d="M279.256 210.194v.264c.024-.088.008-.176 0-.264zM320.112 160.493h.256c.8-.984.56-2.167-.616-3.199.632 1 1 2.039.36 3.199zM267.048 446.834c.32.24.8.072 1.144.216a.061.061 0 010-.056 3.465 3.465 0 01-1.144-.16z" fill="#000"/><path d="M268.2 447.05c-.36-.144-.8 0-1.144-.216a3.46 3.46 0 001.152.16v-.056c0-.016.096-.112.136-.112-.8.064-1.528-.567-2.4-.199.656 1.023 1.6.311 2.4.575a.352.352 0 01-.144-.152z" fill="#000"/><path d="M268.2 446.994a.061.061 0 000 .056l.12.064v-.104l-.12-.016zM268.2 446.994h.12v-.184s-.088.04-.136.112c-.048.072.016.048.016.072z" fill="#000"/><path d="M268.2 447.05c.023.06.061.113.112.152v-.088l-.112-.064zM281.552 449.817a2.832 2.832 0 00-2.08.072c.68.222 1.417.197 2.08-.072zM268.4 339.844h-.536c-.312 0-.28.144-.24.192.243-.114.507-.179.776-.192zM268.792 339.844l.504.04v-.048l-.504.008z" fill="#000"/><path d="M269.296 339.884l-.504-.04h-.392a2.066 2.066 0 00-.8.152c.593.06 1.19.06 1.784 0a.221.221 0 01-.088-.112z" fill="#000"/><path d="M267.864 339.836h1.432s.088-.096.128-.096a7.199 7.199 0 00-2.704.136c.295.085.598.144.904.176-.04-.072-.072-.192.24-.216z" fill="#000"/><path d="M269.296 339.884h.128v-.056h-.128v.056z" fill="#000"/><path d="M269.296 339.836h.128v-.12s-.08 0-.128.096.008.016 0 .024zM269.296 339.884a.232.232 0 00.128.12v-.112l-.128-.008zM282.512 185.295c.752.192 1.288.392 1.848 0-.544-.328-1.056-.192-1.848 0zM237.552 123.976c-.368.12-.92.288-.6.728.208.288.688-.104.976-.384-.384.168-.44-.024-.376-.344z" fill="#000"/><path d="M237.928 124.32l-.376-.344c-.064.32-.008.512.376.344zM278.256 444.444a1.301 1.301 0 01-.376-.08.132.132 0 010 .056c.12.008.248.024.376.024zM278.976 444.38h.128-.056a.111.111 0 01-.072 0zM278.976 444.38a3.354 3.354 0 01-.528.064c.174-.008.348-.026.52-.056l.008-.008z" fill="#000"/><path d="M278.968 444.388c-.172.03-.346.048-.52.056H277.88v.072c0 .024-.088.12-.136.12a2.681 2.681 0 001.6-.136.88.88 0 00-.208-.104H279l-.032-.008z" fill="#000"/><path d="M277.88 444.364c.12.045.247.072.376.08h.192c.177-.007.354-.029.528-.064a.11.11 0 00.072-.04 5.753 5.753 0 00-1.248-.12c.039.04.066.09.08.144zM277.88 444.42a.132.132 0 000-.056l-.112-.056v.104l.112.008z" fill="#000"/><path d="M277.88 444.42h-.128c.004.066.004.133 0 .2.048 0 .088-.04.136-.12.048-.08-.008-.056-.008-.08zM274.024 226.945a67.151 67.151 0 002.592 8.483c.152.376.296 1.016.712.744s.08-.616 0-.92c-1.552-4.613-2.784-9.387-3.936-14.208-.096-.408-.264-.863-.608-.688-.344.176-.128.584 0 1.32a93.268 93.268 0 001.24 5.269zM277.88 444.364a.321.321 0 00-.08-.144v.08l.08.064zM270.864 418.37a5.48 5.48 0 001.032 3.774c.401-.321.558-.858.392-1.344-.616-3.294-.296-6.612-.264-9.914.152-15.992.416-31.983.576-47.935 0-3.678-.192-7.356-.288-11.034 0-.559-.056-1.215-.704-1.271-.648-.056-.744.616-.8 1.159-.104 1.8-.304 3.607-.288 5.414.072 7.651.264 15.311.296 22.971.088 12.729.048 25.458.048 38.18zM233.664 469.494c-.104 0-.2-.064-.304-.096a.742.742 0 00.304.096z" fill="#000"/><path d="M235.688 471.005c3.872.464 7.736 1.12 11.656 1.128.448 0 1.16.176 1.2-.456.048-.8-.712-.576-1.216-.64-2.904-.368-5.848-.36-8.72-1.031-.8-.32-1.752.352-2.48-.256h-.176a1.005 1.005 0 00-.288-.16h-.136a4.795 4.795 0 01-1.864-.064.758.758 0 01-.304-.096 4.677 4.677 0 01-1.184-.64l3.6.8H238.584c.104-.536-.04-.928-.64-1.023l-2.544-.456-2.448-.408a2.244 2.244 0 000-.232h2.448c.376-1.039.192-1.295-1.36-1.423-2.512-.208-5.016-.32-7.528-.48 3.424-.288 6.84-.28 10.256-.296.472 0 1.28.416 1.296-.423 0-.608-.728-.624-1.28-.696-5.24-.712-10.48-.136-15.712 0-.592 0-1.088.128-1.232.799a1.433 1.433 0 00.448 1.6 12.322 12.322 0 002.848 1.543 46.491 46.491 0 0012.552 2.91z" fill="#000"/><path d="M235.664 469.59c.104.037.201.091.288.16h.176a1.47 1.47 0 01-.392-.152l-.072-.008z" fill="#000"/><path d="M235.912 469.534h-.312l.064.04h.072c.122.069.254.12.392.152a1.314 1.314 0 01-.216-.192zM257.464 460.011c-.536-.088-1.208-.432-1.4.232-.24.8.608.896 1.144 1.015a146.272 146.272 0 0017.088 2.511c1.08-.096 2.16-.152 3.2-.304 3.272-.447 6.568-.687 9.792-1.455.688-.168 1.68-.304 1.52-1.167-.16-.864-1.096-.352-1.688-.288-4.36.456-8.712 1.199-13.08 1.327-5.56.16-11.072-.983-16.576-1.871zM242.552 468.894l3.928.272v.064h1.248c.4 0 .8-.128.8-.559 0-.432-.4-.504-.8-.536-1.72-.112-3.448-.256-5.168-.352-.376 0-.928-.208-.984.432-.056.639.496.647.976.679zM321.8 469.262c.568.92 1.744-.52 2.688-.799.522-.116.9-.57.92-1.104-.56-.679-1.104-.232-1.6.16-.768.568-2.552.92-2.008 1.743zM317.8 462.858h-.88c.293.021.587.021.88 0z" fill="#000"/><path d="M323.192 462.866a2.16 2.16 0 00-1.784-1.744 4.317 4.317 0 00-1.248-.047c-.328-.048-.648-.072-.952-.096a13.73 13.73 0 00-3.032.127c-.749.056-1.494.152-2.232.288-.663.128-1.318.296-1.96.504a3.7 3.7 0 00-1.496.712 1.17 1.17 0 00-.328.583c-.008.29-.04.579-.096.864-.1.197-.253.363-.44.48-3.896.327-7.8.655-11.696 1.015-.568.048-1.6-.232-1.456.8.096.895.992.687 1.6.703 5.424.12 10.816-.455 16.224-.799 2.4-.171 4.771-.628 7.064-1.36.648-.199 1.384-.343 1.6-1.071.176-.287.257-.623.232-.959zM271.184 451.92c.4-.104 1.072.223 1.096-.52 0-.504-.432-.64-.896-.624-.464.016-1.072.144-1.128.656-.056.511.56.408.928.488zM237.072 469.806c-.312 0-.632-.04-.944-.04.311.061.629.075.944.04zM238.6 470.006v-.448c-.23.117-.48.19-.736.216.26.016.513.096.736.232z" fill="#000"/><path d="M237.072 469.806a3.115 3.115 0 01-.944-.04c.728.608 1.696-.064 2.48.256a1.6 1.6 0 00-.736-.232 4.454 4.454 0 01-.8.016z" fill="#000"/><path d="M237.872 469.806a5.34 5.34 0 00-.8 0c.266.024.534.024.8 0z" fill="#000"/><path d="M236.128 469.75c.312 0 .632 0 .944.04.266-.02.533-.02.8 0a2.09 2.09 0 00.736-.216h-2.696c.065.066.138.125.216.176zM234.64 469.446a3.46 3.46 0 01.888.112h.072c-.307-.112-.636-.15-.96-.112z" fill="#000"/><path d="M233.664 469.494a4.795 4.795 0 001.864.064 3.46 3.46 0 00-.888-.112c-.324.042-.65.058-.976.048z" fill="#000"/><path d="M234.64 469.446c-.47.064-.948.023-1.4-.12l.12.072c.104 0 .2.072.304.096.326.01.652-.006.976-.048z" fill="#000"/><path d="M234.64 469.446c.324-.04.652-.005.96.104h.176l-3.6-.8c.362.269.76.485 1.184.64l-.12-.072c.451.146.929.19 1.4.128z" fill="#000"/><path d="M331.544 267.515c-.888-.248-.8.656-1.256.8-1.336 5.437-2.616 10.882-4 16.295-2.488 9.539-7.64 17.59-14.056 24.93a62.768 62.768 0 01-7.632 7.452 45.606 45.606 0 01-17.2 8.588c-1.128.304-1.528 1.135-1.968 1.935a21.662 21.662 0 00-2.032 4.389c-.952 3.358-3.296 4.622-6.504 4.87a9.672 9.672 0 00-1.416.24c-.528.103-1.144.167-1.216.855-.072.688.464.752.96.8-.304 1.527 2.68.863 1.856 2.766 0 .072.192.368.288.36 2.208-.2 1.08 1.375.968 2.087a99.805 99.805 0 00-1.032 13.185c-.12 5.709-.696 11.418-1.184 17.118a160.127 160.127 0 00-.672 23.268c.36 6.077.424 12.169.896 18.23.656 8.444.52 16.967 2.488 25.282.168.688.328 1.376.496 2.095-.432.448-1.704-.096-1.6 1.192a5.73 5.73 0 011.28.112.194.194 0 000-.112c-.08-.224.208.12.176.128h-.112a.78.78 0 01.208.104 2.681 2.681 0 01-1.6.136c-.8.455-3.024-.304-1.744 2.022-.672.4-2.112-.247-1.896 1.472 0 .264-1.296.072-1.992.144s-1.448-.2-1.448.759c0 .84.864.576 1.392.752 1.168.4 2.4.184 3.568.344h1.936a2.931 2.931 0 01-1.936.239c-.448.152-.8.432-.568.928.245.434.742.663 1.232.568 1.864-.12 3.72-.256 5.6-.352.56 0 1.232-.32 1.72.727h-4.8c-.48 0-1.232-.295-1.328.504-.096.8.744.664 1.184.8.746.142 1.504.217 2.264.224a39.32 39.32 0 01-6.128.711c-.8.072-2.328-.224-2.264 1.112.048 1.111 1.432.911 2.248.871a64.829 64.829 0 0010.768-1.031c1.024-.216 1.544-.24 1.8.847.288 1.224.984 1.599 1.808.512.512-.696.976-.328 1.344-.16 5.544 2.535 11.464 2.91 17.424 3.254 4.217.108 8.424.46 12.6 1.056.654.096 1.301.238 1.936.423 2.728.864 4.752 5.597 3.368 8.044-.378.467-.868.83-1.424 1.056a34.581 34.581 0 01-12.944 4.157 406.915 406.915 0 01-60.992 2.399c-3.2-.128-6.4 0-9.6-.144a71.258 71.258 0 01-15.944-2.622 13.22 13.22 0 01-6.216-3.662c1.496.592 3.069.966 4.672 1.111l.392.096c11.64 3.502 23.568 4.469 35.576 3.998 7.688.12 15.272-.208 22.864-.592 7.592-.384 15.2-.32 22.728-1.207 4-.464 8-.984 11.784-2.399.576-.216 1.56-.32 1.24-1.191-.288-.752-1.128-.32-1.744-.184a137.04 137.04 0 01-16.168 2.662c-8.16.8-16.376.464-24.552 1.048-4.208.304-8.456 0-12.672.256-13.12.759-26.048-.208-38.76-3.734a4.984 4.984 0 01-.624-.256.423.423 0 00-.248-.112 1.603 1.603 0 00-.856-.264 21.817 21.817 0 01-2.296-.928 8.723 8.723 0 01-1.736-2.022 1.95 1.95 0 011.24-3.023 51.106 51.106 0 0111.6-1.423c6.936-.264 13.8-.904 20.496-2.902 1.6-.472 2.912-1.68 4.84-1.336.664.112 1.6-.975 2.32-1.599a3.138 3.138 0 013.2-.544 13.7 13.7 0 004.568.896c.36 0 .8 0 .8-.48s-.296-.536-.672-.672c-.872-.327-1.888-.231-2.824-1.063h6.08c.616 0 1.352-.096 1.376-.855 0-.936-.8-.888-1.448-.928-.648-.04-1.6.416-1.8-1.031-.136-.928-1.856-.072-2.472-1.032.328-1.047 2.04.248 2.048-1.079 0-1.056-1.272-.576-1.848-1.032.368-.799 1.064-.431 1.6-.495.68-.096 1.224-.2.952-1.088-.752-.264-1.736.448-2.4-.576.896-.367 1.6.264 2.4.2.592-.12 1.328-.224 1.328-.959 0-.736-.736-.8-1.336-.944l-2.12-.367.048-.264h2.072c.528-.584.4-1.016-.368-1.104-1.744-.2-1.888-1.599-1.696-2.726 1.432-8.412 1.336-16.919 1.816-25.395a446.03 446.03 0 00.64-31.814c-.208-12.538.304-25.091-.8-37.58 0-.32-.296-.8.256-.888.552-.088 1.064-.136.944-.799-.12-.664-.912-.616-1.6-.8.656-.671 2.176.16 1.872-.799-.144-.472.36-.888.648-1.28a2.108 2.108 0 00-.2-.911 2.03 2.03 0 00-.392-.184c-.593.06-1.191.06-1.784 0a5.234 5.234 0 01-.904-.176 7.199 7.199 0 012.704-.136c1.456-2.335 1.48-2.463-1.032-2.998-3.072-.656-4.416-3.055-5.104-5.509-.92-3.247-2.816-4.934-5.808-6.069a85.417 85.417 0 01-9.728-4.694c-6.704-3.494-11.56-8.907-16.416-14.504-6.496-7.46-9.544-16.559-11.448-25.994-2.696-13.432-2.896-27.081-2.28-40.714.848-18.35 4.088-36.38 7.84-54.322 1.84-8.796 2.76-17.719 3.912-26.722.584.104 6.04.384 8 1.095l7.872 20.717 2.52 6.661-4.68 1.743c-3.2 2.398-2.56 4.797-2.4 7.196.036.422.097.841.184 1.255a46.62 46.62 0 00-8.8-.136 15.614 15.614 0 00-5.352 1.096 4.862 4.862 0 00-1.536 1.159 2.192 2.192 0 00-.456.616 3.54 3.54 0 00-.504 1.599l-.12.312c-1.208 3.534-1.336 7.196-1.472 10.866-.192 5.181-1.112 10.29-1.6 15.439a213.264 213.264 0 00-.656 31.415 192.674 192.674 0 003.032 25.283 33.572 33.572 0 002.32 7.38c1.208 2.75 2.456 5.485 3.568 8.275 2.112 5.422 6.36 8.98 10.912 12.178.8.552 1.544 1.095 2.32 1.599a53.165 53.165 0 008 5.693 69.176 69.176 0 012.688 2.167c1.784 1.519 4 2.215 6.104 3.014 1.023.35 2.023.766 2.992 1.247 1.36.736 2.528 1.6 2.88 3.359.48 2.446 2.312 3.438 4.696 3.726 3.76.447 7.272-.8 10.808-1.599 1.4-.336 2.016-2.111 2.4-3.423.8-2.838 2.736-3.997 5.44-4.797 9.184-2.767 16.32-8.476 22.304-15.872 9.952-12.305 15.08-26.545 17.376-42.001 1.544-10.442 1.04-20.909.384-31.383a243.877 243.877 0 00-2.6-24.875 7.421 7.421 0 01-.064-2.342c.28-1.839-.688-2.535-2.272-2.959-1.872-.503-3.792-.671-5.688-1.007-.411.093-.84.074-1.24-.056-1.328 0-19.896.376-28.144.296a3.2 3.2 0 00.408-1.783 6.965 6.965 0 00-2.224-4.374c-2.456-2.591-2.48-2.607.056-5.229a32.833 32.833 0 014.8-4.094c.384-.272.8-.496.944-1.023-1.016-.312-1.016-.312-4.2 1.711.448-2.327.888-4.582 1.328-6.837a41.584 41.584 0 00-1.496-13.248h6c.456 0 1.056.439 1.16-.272.104-.712-.664-.488-1.064-.616-1.712-.52-3.48-.296-5.216-.248-1.096 0-1.36-.552-1.456-1.343-.136-1.167.864-.8 1.384-.8 3.2-.136 19.368.048 20.184 0 0-.272.04-.551.08-.799a1.67 1.67 0 01.064-.28c-3.32.352-17.4.512-20.88 0-.648-.104-1.384.088-1.368-.92.016-1.007.856-.575 1.272-.567 4.592.112 9.176-.2 13.744-.36a40.582 40.582 0 016.688-.488c3.792-.448 7.576-1.015 11.392-1.135a2.99 2.99 0 00-.432-3.055c-1.728-.495-3.432-1.095-5.184-1.463-10.968-2.279-21.992-4.174-33.2-4.797a12.066 12.066 0 01-5.424-1.647 20.658 20.658 0 00-19.744-.768c-1.352.624-2.752.272-4.08.064-.896-.144-.8-1.343-1.064-2.087-1.024-2.87-2-5.773-3.016-8.635-2.712-7.724-4.64-15.68-7.536-23.324-.808-2.126-2.184-3.462-4.416-3.726a18.407 18.407 0 00-9.896 1.464c-1.736.799-2.328 1.959-3.24 3.718-.8 1.599 7.296 23.587 11 33.438.456 1.215.8 2.582.328 3.598-.472 1.015-1.44.927-2.704 1.215-3.032.696-4.48 2.655-4.952 5.597-.8 4.693-1.6 9.379-2.352 14.072-1.936 11.594-4.872 22.98-6.472 34.622-1.232 8.483-2.72 16.895-3.448 25.426a200.115 200.115 0 00-.336 24.587c.344 9.219.984 18.39 3.592 27.353 2.08 7.076 4.376 14.136 9.032 19.989 7.576 9.475 16.624 17.087 28.56 20.637 1.144.336 2.208.936 3.328 1.359.703.22 1.223.817 1.344 1.544.464 2.598 1.968 4.613 3.592 6.572.458.392.764.933.864 1.527.44 6.613 1.104 13.209 1.368 19.829.488 12.53.688 25.067 1.08 37.58.32 10.059-.56 20.101-1.28 30.136a107.704 107.704 0 01-4.4 24.987c-.344 1.111-.632 2.278-1.824 2.71a7.987 7.987 0 00-2.68 1.799 7.21 7.21 0 01-2.968 1.599c-5.528 1.679-11.24 1.983-16.936 2.399-4.992.344-10.048.048-14.936 1.223-3.28.8-6.512 2.103-7.2 5.949-.68 3.702 1.272 6.325 4.24 8.316a27.212 27.212 0 007.712 3.454c5.92 1.703 12 1.783 18.096 1.919 11.28.256 22.544 1.015 33.832.527 8.616-.367 17.224-.799 25.832-1.367 6.88-.448 13.6-1.599 19.896-4.757 3.944-1.983 4.44-2.911 3.912-7.268-.68-5.693-2.104-7.324-7.56-8.468a22.17 22.17 0 00-3.424-.232c-4.632-.184-9.288-.072-13.896-.679-5.392-.752-10.584-1.895-14.624-5.893-2.624-2.615-5.136-5.381-6.336-8.891a41.871 41.871 0 01-1.824-10.299c-1.032-13.169-1.768-26.386-1.528-39.562.256-14.513-.12-29.073 1.88-43.505.536-3.862.328-7.94 2.112-11.49 1.496-2.99 3.2-5.861 4.416-9.003.224-.584.8-.416 1.24-.52a48.481 48.481 0 0011.2-3.91c5.712-2.998 10.304-7.3 14.696-11.889a70.153 70.153 0 0013.776-21.7 9.81 9.81 0 00.944-3.087c-.976-1.751-.344-3.63 0-5.317.44-2.399 1.248-4.797.704-7.308-.216-1.047.736-1.943.664-3.134a10.578 10.578 0 011.032-4.286zm-92.016-107.318a.567.567 0 01.456-.448 9.972 9.972 0 012.672-.136 13.04 13.04 0 011.768 0 .696.696 0 01.504.248H245a33.41 33.41 0 014 .472c.533.13 1.041.346 1.504.639h.216c.426.012.809.267.984.656.592 1.223 1.232 2.399 1.96 3.854h-.368c.208.272.408.544.608.8l.056.08.12.151c.24.336.472.68.688 1.032.537.908.941 1.888 1.2 2.91a71.635 71.635 0 004.048 9.723 3.42 3.42 0 001.672 1.463l-11.584 4.694c-3.864-8.092-10.824-26.066-10.576-26.138zm19.072 11.466c.656.447.104 1.223.928 1.903-1.224-.312-1.008-1.048-1.256-1.504l-1.8-4.837c1.912.904 1.704 2.823 2.128 4.438zm-3.816-7.428c1.184-.192 2.048-.352 2.28.799.056.312.248.76-.28.872-1.384.328-1.168-1.048-2-1.671zm5.72-2.583c.592.048 1.416-.264 1.312.88-.112 1.271-.896.799-1.6.655-.466-.112-.947-.15-1.424-.112a.96.96 0 01-1.176-1.103c.048-.8.8-.264 1.272-.392.239-.032.481-.032.72 0 .296.04.592.04.896.072zm2.96 3.094c.432.048 1.024 0 .8 1.024-.08.264 0 .975-.912.887-.424 0-.984-.08-.672-.655.248-.424-.264-1.368.784-1.256zm0 2.999c1.016.232.288.799.24 1.255-.256 2.191-.56 4.382-.8 6.581-.064.527-.08.983-.8.799-.44-.12-.856-.272-.4-.799.248-2.287.504-4.55.728-6.813.072-.663.168-1.199 1.04-1.023h-.008zm-3.104-1.399c-1.6.191-2.064-.632-2.136-2.607 1.008 1.391 2.808-.304 3.2 1.599.168.808-.336.92-1.056 1.008h-.008zm-1.328 1.223c2.152-.336 2.4-.152 1.928 1.839-.208.895-.152 1.775-.28 2.662v1.2l-.176.064c-.136-.424-.28-.848-.424-1.28-.352-1.487-.68-2.982-1.048-4.485zm2.4 10.074a5.603 5.603 0 014.296 2.655l-.8.232c-2.632.799-3.2.496-3.96-2.127-.168-.56-.144-.752.472-.752l-.008-.008zm4-1.111c-.264.584-.672.352-1.056.248-.536-.136-.344-.552-.272-.872a44.39 44.39 0 00.984-6.932c.072-1.095.584-1.319 1.512-1.199 1.136.152 2.272.28 3.632.44-1.552 2.918-3.552 5.421-4.824 8.323l.024-.008zm8.08-8.419a22.296 22.296 0 01-4.712 5.964c1.52-2.031 1.992-4.909 4.712-5.964zm-.336-1.2c.52-1.383 1.144-2.574 3.104-1.935-.832 1.032-1.248 2.527-3.104 1.935zm-5.6 11.418l3.2-3.91a21.458 21.458 0 002.544-3.262c1.384-2.663 3.48-3.478 6.32-3.046 1.077.16 2.171.16 3.248 0 2.08-.312 3.112.487 3.288 2.566.108.645.271 1.279.488 1.895.136.384-.048.472-.4.584-5.984 1.775-11.856 3.862-17.664 6.157a.678.678 0 01-.352 0c-.36-.072-.68.727-1.048.072-.264-.448.152-.744.4-1.056h-.024zm9.104-11.362c.72-1.359 1.36-2.399 3.152-1.863a6.773 6.773 0 002.672.08c1.36-.144 2.16.312 2.264 1.783h-8.088zm-1.6-3.254c.384-2.399 2.136-1.519 3.536-1.735-1.024 1.871-1.024 1.871-3.552 1.735h.016zm1.512-6.397c-.536.744-.232 2.183-1.744 2.135h-3.24v-.12h-.72c-5.088 0-5.152-.104-3.936-5.053.2-.8.6-1.031 1.392-.943 2.736.295 5.12 1.599 7.64 2.542.576.208 1.016.8.592 1.423l.016.016zm-9.6 4.59c2.216.056 4.432 0 6.792 0-.344 1.599-1.104 1.967-2.304 1.879-1.496-.112-3.008 0-4.52-.072-.536 0-1.16 0-1.112-.8.048-.687.344-1.039 1.144-1.023v.016zm-.392 2.942c1.8.048 3.6 0 5.504 0-.44 1.751-1.416 2.399-3.032 2.127-.8-.136-1.664-.2-2.496-.296-.544-.064-1.256.184-1.128-.847.104-.728.352-1.008 1.152-.984zm-1.16-10.738c-.16 1.239-.32 2.599-.52 3.95-.088.592-.216 1.175-1.08 1.023-.992-.183-.432-.751-.344-1.199.272-1.335.584-2.654.8-3.998.104-.591.472-.599.896-.599.752.016.256.447.248.823zm-1.312 7.548c.8.064.616.632.568 1.071-.16 1.296-1.064.472-1.864.688.52-.72-.056-1.871 1.296-1.759zm-1.264-7.004c-.104.584-.248 1.167-.328 1.751-.376 2.582-.376 2.582-3.2 2.575-.872-.28-2.264.551-2.888-.8-.624-1.351-.744-2.511 1.152-3.126 1.416-.456 2.76-1.128 4.24-1.448 1.152-.295 1.16.232 1.024 1.048zm-6.52 7.572c.08.272.08.799-.232.719-.944-.24-2.336.104-2.4-1.671 1 .152 2.208-.511 2.632.952zm-2.808-3.686a2.82 2.82 0 011.168-1.687c.576 1.919.576 1.919-1.168 1.687zm22.888 114.618c-.176 3.438-12.72 9.139-14.144 9.547-4.408.312-10.024.751-13.368-1.711-2.632-6.285-5.032-18.278-4.992-23.596 0-.431.528-.679.8-1.015a40.438 40.438 0 018-4.861c3.504-1.496 10.616-2.879 14.4-2.399.8.104 3.048-.352 3.536.336 3.624 5.261 6.024 18.854 5.768 23.699zm21.856 11.946c-1.68 1.279-5.6 1.599-8 0-.856-2.983-8.224-26.138-10.4-33.303-.952-3.198-1.96-6.34-3.128-9.434a344.39 344.39 0 00-2.312-7.556 449.62 449.62 0 00-5.056-14.824 5.159 5.159 0 00-1.504-2.047c-3.128 1.287-7.512 2.175-10.4 0-1.744-1.304-2-2.151-3.376-3.814a68.94 68.94 0 01-3.592-4.734l-.144-.096c-.34-.2-.593-.519-.712-.895l-.232-.192a1.406 1.406 0 00-.472-.24l-4.12-4.909c.712.072 21.176 1.935 30.896 2.662 2.952.216 5.904.344 8.952.52a1.553 1.553 0 01-1.864 1.303c-1.496-.088-3.016.16-4.496-.192-.4-.096-.752-.151-.88.296-.128.448.176.648.608.64a2.4 2.4 0 012.224.28l2.352.144c-.24.799-.944 1.119-1.384 1.655-.256.32-.392.655-.136.967.256.312.664.2.952 0 .419-.346.819-.715 1.2-1.103 1.6-1.599 1.6-1.599 4.096-1.455a4.112 4.112 0 01-1.776 2.398 14.615 14.615 0 00-4.376 3.934c-.24.368-.6.664-1.064.376a.94.94 0 00-.8-.168c-.44-.735-.84-1.519-1.04-1.375-.2.144-1.6.184-1.6.799 0 1.847 2.208 7.005 2.448 7.46.568 1.056 3.352 9.171 3.544 9.755a1948.446 1948.446 0 0116.104 50.901c-.28 0-.296 2.079-.512 2.247zm9.832-63.023a45.896 45.896 0 00-4.352 2.855c-2.232 1.831-4.464 1.895-6.96.672a29.473 29.473 0 00-4.352-1.664 33.857 33.857 0 01-10.616-5.596c-.16-.128-.328-.312-.504-.448a7.988 7.988 0 00-.208-1.2c.092-.06.178-.129.256-.208 2.4-2.534 5.48-4.277 7.544-7.196.864-1.207 2.248-.863 3.376-.192a5.448 5.448 0 011.416 1.392c3.4 4.501 8.256 6.396 13.52 7.516 1.742.408 3.538.535 5.32.375a26.932 26.932 0 01-4.44 3.694zm5.176-4.989c-.48.072-.992.088-1.424.176-1.6.304-3.08-.304-4.584-.68-5.944-1.463-8-2.398-10.976-5.501a15.066 15.066 0 01-1.848-2.062c.8-.12 4.504-.192 5.512-.152 1.376 0 2.728 0 4.104-.096a110.28 110.28 0 014.6-.088c1.536 0 3.056-.064 4.552.088.257.023.509.08.752.168a27.975 27.975 0 01-.688 8.147zm-19.2-10.922h2.248c1.456-.096 13.192-.959 16.904-.951a.663.663 0 01.584.967.772.772 0 010 .136c0 .728-.208.991-.528 1.063-.072.152-7.152.152-8.712.104-.72 0-8.352.08-11.112.144-.8 0-5.6-.112-7.712-.048.216-1.199.912-1.431 1.952-1.415 2.176.024 4.296.008 6.416 0h-.04zm-7.032-3.134c-.736 0-1.336 0-1.744-.072a7.338 7.338 0 01-1.248-.08c-2.272-.048-4.544-.104-6.816-.136a2.21 2.21 0 01-1.848-1.127 62.304 62.304 0 00-5.776-6.869 4.135 4.135 0 00-1.656-1.327c-.48 0-1.024-.064-1.072.664.424.423.864.799 1.248 1.279 1.92 2.223 3.824 4.461 5.736 6.7-.392.608-.92.336-1.328.32l-8.864-.44c-3.512-.919-7-1.927-10.512-2.814a96.62 96.62 0 00-9.6-1.991l-.176.008h-.248a17.923 17.923 0 01-.92-4.797c.08-1.935 1.6-2.743 3.136-3.287 2.152-.743 4.448-1.095 6.552-1.951a136.77 136.77 0 0114.224-5.061c3.904-1.159 5.84-.552 8.304 2.607 3.352 4.309 12.32 14.888 12.648 18.374h-.04zm-.296-15.784c-.448 2.031-.752 4.07-2.56 5.549-.672.544-.864.744-1.48.096a68.113 68.113 0 01-4.272-5.469c2.552-.384 4.952-.671 7.296-1.119.952-.176 1.216.048 1.016.943zm-8.552-1.199a3.202 3.202 0 012.976-.312l-2.976.312zm4.304-.8c.8-.192 1.304-.327 1.848 0-.56.432-1.096.232-1.848.04v-.04zm4.688-9.267c0 .336.12.704-.28.912a.45.45 0 01.152.096c.16.088.328.176.328.264.064 2.478.416 4.981-.552 7.819-.64-1.711-1.784-1.527-2.888-1.343-2.496.416-5.032.096-7.552.44-1.6.208-2.024-1.775-3.304-2.567 4.248-1.607 8.616-2.135 12.696-3.646.496-.184 1.048-.216 1.328-.799v-.096l-.2-.12c-.2-.584-.544-.376-.984-.248-4.328 1.279-8.8 1.943-13.056 3.614-.624.248-1.336.568-2.008-.256a67.712 67.712 0 017.648-2.894c2.248-.76 4.472-1.599 6.696-2.463 1.872-.736 1.904-.736 1.976 1.327v-.04zm30.464-17.486a107.834 107.834 0 01-17.464 1.311c-4.272-.104-8.552-.072-12.8-.12-.568 0-1.264.24-1.6-.456-1.216-2.294-3.072-4.109-4.8-6.196a279.133 279.133 0 0136.664 5.501v-.04zM281 162.196c1.008-.064 1.32.631 1.664 1.543h-3.368c.448-.744.76-1.471 1.704-1.543zm-1.6-2.807a2.803 2.803 0 01-2.112-.064l.56-1.471a3.2 3.2 0 011.608 1.535h-.056zm-27.048-8.795c.304-.632.84-.072 1.248-.152-.328.448-.472 1.072-1.088.8a.695.695 0 01-.104-.616l-.056-.032zm.72 3.294c7.4-6.34 16.192-7.364 24.072-.799.432.359 1.04.663.896 1.727a14.78 14.78 0 00-6.76-3.558c-4.376-.8-8.88-.8-13.024 1.423-1.432.751-2.8 1.599-4.248 2.351-1.128.543-.944 1.863-1.736 2.566-.288.256-.28.952-.8.744-.52-.208-.28-.8-.24-1.247a4.798 4.798 0 011.896-3.175l-.056-.032zm-11.712-31.095c-1.12 1.287-2.512.912-3.432 1.599-.288.28-.8.672-.976.384-.32-.44.232-.608.6-.728 1.048-.831 2.216-.951 3.808-1.255zm-11.04 9.963c-1.656-4.19-3.392-8.356-4.8-12.65a6.878 6.878 0 00-.264-.663c-.936-2.207-.84-2.727 1.216-3.998a14.77 14.77 0 019.872-2.119 2.264 2.264 0 012.256 1.959c.098.408.224.808.376 1.199.296.912.92 1.887.8 2.727-.16 1.007-1.6.704-2.344 1.215-1.088.72-2.304 3.151-1.92 4.286.08.232.488.352.712.504-.6.799-2.464 1.263-1.704 2.326.76 1.064 1.6-.671 2.4-1.023 1.28-.528 2.552-1.039 3.864-1.455.704-.224 1.04-.064 1.232.751.264 1.144-.568.592-.92.688a10.754 10.754 0 00-3.704 1.343c-.464.336-.936.904-.536 1.352a2.825 2.825 0 001.848 1.255c.176 0 .528-.256.528-.392 0-2.215 2.24-1.103 3.12-2.055.272-.288.384.344.44.544a180.563 180.563 0 007.424 21.428c.264.656 0 .664-.528.88a10.599 10.599 0 00-3.584 2.023c-.344.32-.752.751-.384 1.247.368.496.8.336 1.312.104.8-.392 1.6-.744 2.448-1.119.616-.184 1.104-.984 1.8-.6.28.152.4 1.103-.28 1.039a3.056 3.056 0 00-1.52 0c-.608.552-2.128.8-1.552 1.783.656 1.128 1.368-.799 2.328-.367 0 .799-.448 1.687-.64 2.598a.735.735 0 01-1.024.664 1.599 1.599 0 00-.528-.112c-2.344.288-3.2-1.039-3.672-3.086a64.67 64.67 0 00-2.24-6.813c-.208-.575-.232-1.735-1.272-1.367-1.04.368-.224 1.167-.056 1.703.92 2.951 1.92 5.885 2.896 8.843-1.656.536-2.144-.375-2.568-1.663a10238.518 10238.518 0 00-12.248-37.124 2.522 2.522 0 00-.08-.352c-.32-.591-.32-1.719-1.256-1.455-.936.264-.568 1.296-.336 1.991 1.312 3.846 2.712 7.652 4 11.498a4449.044 4449.044 0 018.552 25.634c.144.416.648.912 0 1.192-.648.279-.8-.312-.96-.8-2.552-7.94-5.448-15.792-8.504-23.563zm5.528 22.18a.32.32 0 000 .232c.208.543.416 1.087.616 1.599l-4-.472c1.832-1.095 2.768-1.583 3.384-1.359zm45.704 294.881c-.663.269-1.4.294-2.08.072a2.832 2.832 0 012.08-.072z" fill="#000"/><path d="M243.608 257.249c.512.143 1.008.359 1.528.503.52.144 1.056.248 1.6.36 1.024.208 2.04.408 3.072.592l3.2.567a7.386 7.386 0 002.72.104c1.736-.343 3.256-1.663 4.688-2.63l5.064-3.438c1.936-1.312 3.864-2.631 5.808-3.926.464-.304-.152-1.751-.728-1.351-3.296 2.294-6.624 4.549-9.944 6.812l-2.448 1.679c-.684.509-1.428.93-2.216 1.255a5.36 5.36 0 01-2.752.168l-2.912-.432a92.425 92.425 0 00-3.328-.463c-.552-.072-1.112-.16-1.664-.2-.552-.04-1.144 0-1.712 0-.192 0-.056.36.072.392l-.048.008z" fill="#000"/><path d="M256.056 259.016c1.512 8.259 3.496 16.447 5.312 24.65.064.296.264.8.624.8s.392-.472.336-.712c-1.944-8.275-3.752-16.591-5.984-24.786-.064-.232-.344-.256-.288 0v.048zM268.632 253.97a.31.31 0 00-.08-.136l-.08-.056a.392.392 0 00-.208-.056h-.104a.386.386 0 00-.176.096l-.176.184a.319.319 0 00-.08.128.262.262 0 000 .152.273.273 0 000 .16.306.306 0 00.08.128l.08.064a.47.47 0 00.208.048h.104a.492.492 0 00.176-.104l.176-.184a.269.269 0 00.08-.128.247.247 0 000-.152.236.236 0 000-.144zM266.064 256.121a.4.4 0 100 .8.4.4 0 000-.8zM270.048 254.794a.4.4 0 100 .8.4.4 0 000-.8zM268.008 193.587c-1.2-.384-1.288-1.599-1.032-2.607.322-1.138.731-2.25 1.224-3.326.448-1.071.96-2.119 1.512-3.142a26.492 26.492 0 001.688-3.079c.128-.335-.2-1.527-.72-1.119a6.396 6.396 0 00-1.28 1.759c-.408.664-.8 1.335-1.136 2.023a32.735 32.735 0 00-1.768 4.198c-.448 1.319-.96 2.734-.608 4.141.127.618.449 1.179.92 1.6.171.14.37.244.584.303.328.088.4 0 .712-.08.312-.079 0-.583-.12-.639l.024-.032zM292.368 203.27a65 65 0 01.272-8.476c.144-1.399.336-2.798.584-4.182.112-.663.248-1.319.384-1.975.206-.689.351-1.395.432-2.11 0-.224-.352-.928-.592-.512a7.403 7.403 0 00-.52 2.023 63.233 63.233 0 00-.392 2.087 55.274 55.274 0 00-.568 4.293 51.395 51.395 0 00-.096 8.604c0 .152.08.439.256.487.176.048.248-.071.24-.239z" fill="#000"/><path d="M243.648 198.576c1.96-.376 3.904-.688 5.848-1.127 1.944-.44 3.728-.864 5.6-1.28a222.5 222.5 0 015.6-1.159l2.72-.568a19.129 19.129 0 003.08-.711c.44-.176.096-1.304-.344-1.272a34.452 34.452 0 00-5.48 1.296c-1.912.479-3.808 1.015-5.728 1.471-1.92.456-3.848.895-5.768 1.343-1.92.448-3.8 1.016-5.712 1.535-.184.048 0 .504.168.472h.016zM311.4 194.794a31.202 31.202 0 011.512 4.27c.16.732.264 1.475.312 2.223.048.751-.088 1.551 0 2.278 0 .184.408.8.576.392.103-.358.138-.732.104-1.103 0-.44 0-.872-.048-1.312a16.343 16.343 0 00-.392-2.478 10.498 10.498 0 00-1.968-4.398c-.104-.12-.168 0-.128.128h.032zM290.224 187.974c1.216-.429 2.41-.92 3.576-1.471.288-.136 0-.84-.264-.8l-1.928.52.264.751.256-.136c.272-.144 0-.871-.272-.751l-.8.32.264.799 2.136-.967c.28-.128 0-.864-.272-.752-1.114.4-2.173.937-3.152 1.599-.484.327-.946.685-1.384 1.072a5.712 5.712 0 00-1.248 1.343c-.112.208.128.8.408.632a4.14 4.14 0 00.592-.592c.192-.208.4-.408.608-.6.431-.391.885-.757 1.36-1.095a13.157 13.157 0 013.088-1.599l-.272-.752-2.128.96c-.288.128 0 .871.264.799l.8-.328-.272-.751-.248.136c-.272.144 0 .799.264.751l1.928-.511-.264-.8a39.284 39.284 0 00-3.44 1.831c-.136.088 0 .456.144.4l-.008-.008z" fill="#000"/><path d="M293.496 186.151c1.6.703 3.328 1.199 4.984 1.847a48.35 48.35 0 014.712 2.111 53.082 53.082 0 018.84 5.597c.52.399.488-.656.16-.904a53.284 53.284 0 00-8.944-5.597 49.814 49.814 0 00-4.8-2.063 21.237 21.237 0 00-5.008-1.423c-.176 0-.056.352.048.392l.008.04z" fill="#000"/><path d="M295.816 303.983a5.975 5.975 0 002.704-2.015c.4-.575 1.368-1.303.528-1.959-.672-.527-.984.568-1.424.992-.242.264-.51.503-.8.712-.864.551-1.736 1.191-2.776.319-1.04-.871-1-1.967-.544-3.102a2.399 2.399 0 012.4-1.535c.48 0 1.12 0 1.144-.576.024-.576-.568-.799-1.128-.935-2.632-.632-4.608 1.279-4.608 4.477.008 2.919 2.128 4.622 4.504 3.622zM283.904 304.687c.19-.063.365-.166.512-.304.192-.256.168-.512-.184-.712-1.088-.615-.576-.903.248-1.095.392-.096.688-.336.576-.728a1.09 1.09 0 00-.584-.607 1.2 1.2 0 00-1.408.512c-.472.607-.936 1.271-.592 2.11.232.584.84.6 1.432.824zM312.352 275.783a5.132 5.132 0 002.4-2.607c.624-1.639-.936-3.878-2.68-3.998-.576 0-1.104.12-1.248.8-.104.488.184.751.608.975 2.296 1.2 2.344 1.727.4 3.47-.56-.311-.312-1.351-1.248-1.303a.513.513 0 00-.376.296c-.133.72.08 1.46.576 1.999a1.104 1.104 0 001.568.368zM283.888 296.203c0-.911 1.056-.919 1.232-1.719.088-.407-.344-.551-.736-.535-.8 0-1.416.272-1.6 1.111-.064.536.328.84 1.104 1.143z" fill="#fff"/><path d="M244.904 158.35a49.564 49.564 0 002.144 6.708c.8 2.263 1.6 4.51 2.4 6.765 1.552 4.381 3.2 8.715 4.8 13.089.328.911 1.2.615.856-.304-1.6-4.358-3.24-8.708-4.928-13.041-.8-2.167-1.664-4.35-2.456-6.541-.792-2.19-1.48-4.653-2.52-6.78-.112-.24-.352-.152-.296.104zM240.944 158.822c.123 1.148.391 2.277.8 3.358.368 1.151.8 2.295 1.16 3.438.8 2.263 1.6 4.525 2.344 6.796 1.496 4.462 3.2 8.843 4.8 13.281.176.496.72 1.455 1.392 1.215.672-.239.496-1.351.32-1.823-1.648-4.405-3.28-8.795-5.056-13.184-.904-2.159-1.704-4.334-2.504-6.533-.432-1.191-.864-2.399-1.304-3.582a14.686 14.686 0 00-1.4-3.198c-.216-.32-.552-.176-.536.192l-.016.04z" fill="#000"/></svg>